<?xml version="1.0" encoding="utf-8" standalone="no"?>
<!DOCTYPE svg PUBLIC "-//W3C//DTD SVG 1.1//EN"
  "http://www.w3.org/Graphics/SVG/1.1/DTD/svg11.dtd">
<svg xmlns:xlink="http://www.w3.org/1999/xlink" width="460.9965pt" height="472.036344pt" viewBox="0 0 460.9965 472.036344" xmlns="http://www.w3.org/2000/svg" version="1.1">
 <metadata>
  <rdf:RDF xmlns:dc="http://purl.org/dc/elements/1.1/" xmlns:cc="http://creativecommons.org/ns#" xmlns:rdf="http://www.w3.org/1999/02/22-rdf-syntax-ns#">
   <cc:Work>
    <dc:type rdf:resource="http://purl.org/dc/dcmitype/StillImage"/>
    <dc:format>image/svg+xml</dc:format>
    <dc:creator>
     <cc:Agent>
      <dc:title>Matplotlib v3.10.9, https://matplotlib.org/</dc:title>
     </cc:Agent>
    </dc:creator>
   </cc:Work>
  </rdf:RDF>
 </metadata>
 <defs>
  <style type="text/css">*{stroke-linejoin: round; stroke-linecap: butt}</style>
 </defs>
 <g id="figure_1">
  <g id="patch_1">
   <path d="M 0 472.036344
L 460.9965 472.036344
L 460.9965 0
L 0 0
z
" style="fill: #ffffff"/>
  </g>
  <g id="axes_1">
   <g id="patch_2">
    <path d="M 51.2 433.676969
L 453.7965 433.676969
L 453.7965 31.080469
L 51.2 31.080469
z
" style="fill: #ffffff"/>
   </g>
   <g id="matplotlib.axis_1">
    <g id="xtick_1">
     <g id="line2d_1">
      <path d="M 91.45965 433.676969
L 91.45965 31.080469
" clip-path="url(#pb5eb3b36c4)" style="fill: none; stroke: #cbd5df; stroke-opacity: 0.65; stroke-width: 0.7; stroke-linecap: square"/>
     </g>
     <g id="line2d_2">
      <defs>
       <path id="mffd5499d32" d="M 0 0
L 0 3.5
" style="stroke: #17324d; stroke-width: 0.8"/>
      </defs>
      <g>
       <use xlink:href="#mffd5499d32" x="91.45965" y="433.676969" style="fill: #17324d; stroke: #17324d; stroke-width: 0.8"/>
      </g>
     </g>
     <g id="text_1">
      <text style="font-size: 10px; font-family: 'Hiragino Sans'; text-anchor: middle; fill: #17324d" x="91.45965" y="448.386344" transform="rotate(-0 91.45965 448.386344)">−1.0</text>
     </g>
    </g>
    <g id="xtick_2">
     <g id="line2d_3">
      <path d="M 171.97895 433.676969
L 171.97895 31.080469
" clip-path="url(#pb5eb3b36c4)" style="fill: none; stroke: #cbd5df; stroke-opacity: 0.65; stroke-width: 0.7; stroke-linecap: square"/>
     </g>
     <g id="line2d_4">
      <g>
       <use xlink:href="#mffd5499d32" x="171.97895" y="433.676969" style="fill: #17324d; stroke: #17324d; stroke-width: 0.8"/>
      </g>
     </g>
     <g id="text_2">
      <text style="font-size: 10px; font-family: 'Hiragino Sans'; text-anchor: middle; fill: #17324d" x="171.97895" y="448.386344" transform="rotate(-0 171.97895 448.386344)">−0.5</text>
     </g>
    </g>
    <g id="xtick_3">
     <g id="line2d_5">
      <path d="M 252.49825 433.676969
L 252.49825 31.080469
" clip-path="url(#pb5eb3b36c4)" style="fill: none; stroke: #cbd5df; stroke-opacity: 0.65; stroke-width: 0.7; stroke-linecap: square"/>
     </g>
     <g id="line2d_6">
      <g>
       <use xlink:href="#mffd5499d32" x="252.49825" y="433.676969" style="fill: #17324d; stroke: #17324d; stroke-width: 0.8"/>
      </g>
     </g>
     <g id="text_3">
      <text style="font-size: 10px; font-family: 'Hiragino Sans'; text-anchor: middle; fill: #17324d" x="252.49825" y="448.386344" transform="rotate(-0 252.49825 448.386344)">0.0</text>
     </g>
    </g>
    <g id="xtick_4">
     <g id="line2d_7">
      <path d="M 333.01755 433.676969
L 333.01755 31.080469
" clip-path="url(#pb5eb3b36c4)" style="fill: none; stroke: #cbd5df; stroke-opacity: 0.65; stroke-width: 0.7; stroke-linecap: square"/>
     </g>
     <g id="line2d_8">
      <g>
       <use xlink:href="#mffd5499d32" x="333.01755" y="433.676969" style="fill: #17324d; stroke: #17324d; stroke-width: 0.8"/>
      </g>
     </g>
     <g id="text_4">
      <text style="font-size: 10px; font-family: 'Hiragino Sans'; text-anchor: middle; fill: #17324d" x="333.01755" y="448.386344" transform="rotate(-0 333.01755 448.386344)">0.5</text>
     </g>
    </g>
    <g id="xtick_5">
     <g id="line2d_9">
      <path d="M 413.53685 433.676969
L 413.53685 31.080469
" clip-path="url(#pb5eb3b36c4)" style="fill: none; stroke: #cbd5df; stroke-opacity: 0.65; stroke-width: 0.7; stroke-linecap: square"/>
     </g>
     <g id="line2d_10">
      <g>
       <use xlink:href="#mffd5499d32" x="413.53685" y="433.676969" style="fill: #17324d; stroke: #17324d; stroke-width: 0.8"/>
      </g>
     </g>
     <g id="text_5">
      <text style="font-size: 10px; font-family: 'Hiragino Sans'; text-anchor: middle; fill: #17324d" x="413.53685" y="448.386344" transform="rotate(-0 413.53685 448.386344)">1.0</text>
     </g>
    </g>
    <g id="text_6">
     <!-- $\sigma_1/\sigma_{\mathrm{y}}$ -->
     <g style="fill: #17324d" transform="translate(239.89825 461.736344)">
      <text>
       <tspan x="0" y="-0.703125" style="font-style: oblique; font-size: 10px; font-family: 'DejaVu Sans'; fill: #17324d">σ</tspan>
       <tspan x="14.434082" y="-0.703125" style="font-style: oblique; font-size: 10px; font-family: 'DejaVu Sans'; fill: #17324d">σ</tspan>
       <tspan x="6.337891" y="0.9375" style="font-size: 7px; font-family: 'DejaVu Sans'; fill: #17324d">1</tspan>
       <tspan x="20.771973" y="0.9375" style="font-size: 7px; font-family: 'DejaVu Sans'; fill: #17324d">y</tspan>
       <tspan x="11.064941" y="-0.703125" style="font-size: 10px; font-family: 'DejaVu Sans'; fill: #17324d">/</tspan>
      </text>
     </g>
    </g>
   </g>
   <g id="matplotlib.axis_2">
    <g id="ytick_1">
     <g id="line2d_11">
      <path d="M 51.2 393.417319
L 453.7965 393.417319
" clip-path="url(#pb5eb3b36c4)" style="fill: none; stroke: #cbd5df; stroke-opacity: 0.65; stroke-width: 0.7; stroke-linecap: square"/>
     </g>
     <g id="line2d_12">
      <defs>
       <path id="m4f9ed6f179" d="M 0 0
L -3.5 0
" style="stroke: #17324d; stroke-width: 0.8"/>
      </defs>
      <g>
       <use xlink:href="#m4f9ed6f179" x="51.2" y="393.417319" style="fill: #17324d; stroke: #17324d; stroke-width: 0.8"/>
      </g>
     </g>
     <g id="text_7">
      <text style="font-size: 10px; font-family: 'Hiragino Sans'; text-anchor: end; fill: #17324d" x="44.2" y="397.272006" transform="rotate(-0 44.2 397.272006)">−1.0</text>
     </g>
    </g>
    <g id="ytick_2">
     <g id="line2d_13">
      <path d="M 51.2 312.898019
L 453.7965 312.898019
" clip-path="url(#pb5eb3b36c4)" style="fill: none; stroke: #cbd5df; stroke-opacity: 0.65; stroke-width: 0.7; stroke-linecap: square"/>
     </g>
     <g id="line2d_14">
      <g>
       <use xlink:href="#m4f9ed6f179" x="51.2" y="312.898019" style="fill: #17324d; stroke: #17324d; stroke-width: 0.8"/>
      </g>
     </g>
     <g id="text_8">
      <text style="font-size: 10px; font-family: 'Hiragino Sans'; text-anchor: end; fill: #17324d" x="44.2" y="316.752706" transform="rotate(-0 44.2 316.752706)">−0.5</text>
     </g>
    </g>
    <g id="ytick_3">
     <g id="line2d_15">
      <path d="M 51.2 232.378719
L 453.7965 232.378719
" clip-path="url(#pb5eb3b36c4)" style="fill: none; stroke: #cbd5df; stroke-opacity: 0.65; stroke-width: 0.7; stroke-linecap: square"/>
     </g>
     <g id="line2d_16">
      <g>
       <use xlink:href="#m4f9ed6f179" x="51.2" y="232.378719" style="fill: #17324d; stroke: #17324d; stroke-width: 0.8"/>
      </g>
     </g>
     <g id="text_9">
      <text style="font-size: 10px; font-family: 'Hiragino Sans'; text-anchor: end; fill: #17324d" x="44.2" y="236.233406" transform="rotate(-0 44.2 236.233406)">0.0</text>
     </g>
    </g>
    <g id="ytick_4">
     <g id="line2d_17">
      <path d="M 51.2 151.859419
L 453.7965 151.859419
" clip-path="url(#pb5eb3b36c4)" style="fill: none; stroke: #cbd5df; stroke-opacity: 0.65; stroke-width: 0.7; stroke-linecap: square"/>
     </g>
     <g id="line2d_18">
      <g>
       <use xlink:href="#m4f9ed6f179" x="51.2" y="151.859419" style="fill: #17324d; stroke: #17324d; stroke-width: 0.8"/>
      </g>
     </g>
     <g id="text_10">
      <text style="font-size: 10px; font-family: 'Hiragino Sans'; text-anchor: end; fill: #17324d" x="44.2" y="155.714106" transform="rotate(-0 44.2 155.714106)">0.5</text>
     </g>
    </g>
    <g id="ytick_5">
     <g id="line2d_19">
      <path d="M 51.2 71.340119
L 453.7965 71.340119
" clip-path="url(#pb5eb3b36c4)" style="fill: none; stroke: #cbd5df; stroke-opacity: 0.65; stroke-width: 0.7; stroke-linecap: square"/>
     </g>
     <g id="line2d_20">
      <g>
       <use xlink:href="#m4f9ed6f179" x="51.2" y="71.340119" style="fill: #17324d; stroke: #17324d; stroke-width: 0.8"/>
      </g>
     </g>
     <g id="text_11">
      <text style="font-size: 10px; font-family: 'Hiragino Sans'; text-anchor: end; fill: #17324d" x="44.2" y="75.194806" transform="rotate(-0 44.2 75.194806)">1.0</text>
     </g>
    </g>
    <g id="text_12">
     <!-- $\sigma_2/\sigma_{\mathrm{y}}$ -->
     <g style="fill: #17324d" transform="translate(14.5 244.978719) rotate(-90)">
      <text>
       <tspan x="0" y="-0.703125" style="font-style: oblique; font-size: 10px; font-family: 'DejaVu Sans'; fill: #17324d">σ</tspan>
       <tspan x="14.434082" y="-0.703125" style="font-style: oblique; font-size: 10px; font-family: 'DejaVu Sans'; fill: #17324d">σ</tspan>
       <tspan x="6.337891" y="0.9375" style="font-size: 7px; font-family: 'DejaVu Sans'; fill: #17324d">2</tspan>
       <tspan x="20.771973" y="0.9375" style="font-size: 7px; font-family: 'DejaVu Sans'; fill: #17324d">y</tspan>
       <tspan x="11.064941" y="-0.703125" style="font-size: 10px; font-family: 'DejaVu Sans'; fill: #17324d">/</tspan>
      </text>
     </g>
    </g>
   </g>
   <g id="line2d_21">
    <path d="M 413.53685 232.378719
L 417.007995 225.196068
L 420.377488 217.691189
L 423.614635 209.850819
L 426.083948 203.330435
L 428.421559 196.586717
L 430.600916 189.620052
L 432.591668 182.434394
L 434.359526 175.038079
L 435.516289 169.360554
L 436.508711 163.580027
L 437.318158 157.706629
L 437.925045 151.752854
L 438.309043 145.733723
L 438.449359 139.666916
L 438.325085 133.572838
L 437.915626 127.474615
L 437.201189 121.397997
L 436.546288 117.37274
L 435.742606 113.378443
L 434.785607 109.424344
L 433.671307 105.519979
L 432.396353 101.675096
L 430.958102 97.899575
L 429.354687 94.203327
L 427.585086 90.596195
L 425.64917 87.087845
L 423.547747 83.687659
L 421.282584 80.404622
L 418.856419 77.247217
L 416.272958 74.223321
L 413.53685 71.340119
L 410.653647 68.604011
L 407.629752 66.02055
L 404.472347 63.594385
L 401.189309 61.329222
L 397.789123 59.227798
L 394.280774 57.291883
L 390.673642 55.522282
L 386.977394 53.918867
L 383.201873 52.480616
L 379.35699 51.205662
L 375.452625 50.091362
L 371.498526 49.134363
L 367.504228 48.330681
L 361.457525 47.402576
L 355.37069 46.791925
L 349.271114 46.479777
L 343.18369 46.446014
L 337.130643 46.669882
L 331.131466 47.13047
L 325.202942 47.807104
L 319.359234 48.679676
L 313.612025 49.728897
L 307.970707 50.936486
L 300.626003 52.7635
L 293.494497 54.804462
L 286.583351 57.026077
L 279.895552 59.398959
L 273.430715 61.897473
L 265.658344 65.16387
L 258.219068 68.555939
L 251.099033 72.044287
L 244.282112 75.605459
L 236.477284 79.949409
L 229.052515 84.348171
L 221.976487 88.785116
L 214.121205 93.995567
L 206.652811 99.233897
L 199.528009 104.497244
L 192.706712 109.787899
L 185.235446 115.876124
L 178.062489 122.023164
L 171.142713 128.24838
L 164.435522 134.575151
L 157.904478 141.030575
L 151.516994 147.645384
L 145.244159 154.454061
L 139.060713 161.495079
L 132.945229 168.81125
L 126.880567 176.450123
L 121.606056 183.440133
L 116.356983 190.756156
L 111.133848 198.440128
L 106.682202 205.353312
L 102.262659 212.599828
L 97.888813 220.210692
L 93.580682 228.217316
L 90.060693 235.214077
L 86.626938 242.523843
L 83.306326 250.161507
L 80.753505 256.515869
L 78.314828 263.091956
L 76.014146 269.891573
L 73.878943 276.913514
L 71.940544 284.152808
L 70.234233 291.599888
L 69.130245 297.312735
L 68.196693 303.125458
L 67.452548 309.027158
L 66.91767 315.004516
L 66.612576 321.041637
L 66.558139 327.119937
L 66.775215 333.218099
L 67.284189 339.312106
L 68.104467 345.375375
L 68.83316 349.386286
L 69.712966 353.361659
L 70.748155 357.292098
L 71.942406 361.167951
L 73.298725 364.979392
L 74.819376 368.716514
L 76.505811 372.369426
L 78.358611 375.92836
L 80.37744 379.383778
L 82.561015 382.726484
L 84.907083 385.94773
L 87.412418 389.039324
L 90.072841 391.993723
L 92.883246 394.804127
L 95.837645 397.46455
L 98.929239 399.969886
L 102.150485 402.315953
L 105.493191 404.499528
L 108.948609 406.518358
L 112.507543 408.371158
L 116.160455 410.057593
L 119.897577 411.578244
L 123.709018 412.934563
L 127.584871 414.128813
L 131.51531 415.164002
L 135.490683 416.043809
L 139.501594 416.772502
L 145.564862 417.592779
L 151.658869 418.101754
L 157.757031 418.31883
L 163.835331 418.264393
L 169.872452 417.959299
L 175.849811 417.42442
L 181.751511 416.680275
L 187.564234 415.746724
L 193.277081 414.642736
L 200.724161 412.936425
L 207.963455 410.998026
L 214.985396 408.862823
L 221.785013 406.562141
L 228.3611 404.123463
L 236.269852 400.917074
L 243.840869 397.571383
L 251.086769 394.11842
L 258.022897 390.583906
L 265.96139 386.263115
L 273.509349 381.880454
L 280.698178 377.45477
L 287.558753 372.998717
L 295.187473 367.771637
L 302.454431 362.51902
L 309.401102 357.240631
L 316.996865 351.17039
L 324.276143 345.047442
L 331.28587 338.854076
L 338.068294 332.568367
L 344.661373 326.164594
L 351.099109 319.61339
L 357.411779 312.881701
L 363.626022 305.932587
L 369.76474 298.724906
L 375.846752 291.212936
L 381.133202 284.350613
L 386.392942 277.179256
L 391.627601 269.658316
L 396.833471 261.744051
L 401.264947 254.612051
L 405.655904 247.126123
L 409.988621 239.254897
L 413.53685 232.378719
L 413.53685 232.378719
" clip-path="url(#pb5eb3b36c4)" style="fill: none; stroke: #457b9d; stroke-width: 2.8; stroke-linecap: square"/>
   </g>
   <g id="line2d_22">
    <path d="M 413.53685 232.378719
L 413.53685 71.340119
L 252.49825 71.340119
L 91.45965 232.378719
L 91.45965 393.417319
L 252.49825 393.417319
L 413.53685 232.378719
" clip-path="url(#pb5eb3b36c4)" style="fill: none; stroke: #e76f51; stroke-width: 2.8; stroke-linecap: square"/>
   </g>
   <g id="line2d_23">
    <path d="M 59.25193 39.132399
L 63.116856 42.997325
L 66.981783 46.862252
L 70.846709 50.727178
L 74.711636 54.592104
L 78.576562 58.457031
L 82.441488 62.321957
L 86.306415 66.186884
L 90.171341 70.05181
L 94.036268 73.916736
L 97.901194 77.781663
L 101.76612 81.646589
L 105.631047 85.511516
L 109.495973 89.376442
L 113.3609 93.241368
L 117.225826 97.106295
L 121.090752 100.971221
L 124.955679 104.836148
L 128.820605 108.701074
L 132.685532 112.566
L 136.550458 116.430927
L 140.415384 120.295853
L 144.280311 124.16078
L 148.145237 128.025706
L 152.010164 131.890632
L 155.87509 135.755559
L 159.740016 139.620485
L 163.604943 143.485412
L 167.469869 147.350338
L 171.334796 151.215264
L 175.199722 155.080191
L 179.064648 158.945117
L 182.929575 162.810044
L 186.794501 166.67497
L 190.659428 170.539896
L 194.524354 174.404823
L 198.38928 178.269749
L 202.254207 182.134676
L 206.119133 185.999602
L 209.98406 189.864528
L 213.848986 193.729455
L 217.713912 197.594381
L 221.578839 201.459308
L 225.443765 205.324234
L 229.308692 209.18916
L 233.173618 213.054087
L 237.038544 216.919013
L 240.903471 220.78394
L 244.768397 224.648866
L 248.633324 228.513792
L 252.49825 232.378719
L 256.363176 236.243645
L 260.228103 240.108572
L 264.093029 243.973498
L 267.957956 247.838424
L 271.822882 251.703351
L 275.687808 255.568277
L 279.552735 259.433204
L 283.417661 263.29813
L 287.282588 267.163056
L 291.147514 271.027983
L 295.01244 274.892909
L 298.877367 278.757836
L 302.742293 282.622762
L 306.60722 286.487688
L 310.472146 290.352615
L 314.337072 294.217541
L 318.201999 298.082468
L 322.066925 301.947394
L 325.931852 305.81232
L 329.796778 309.677247
L 333.661704 313.542173
L 337.526631 317.4071
L 341.391557 321.272026
L 345.256484 325.136952
L 349.12141 329.001879
L 352.986336 332.866805
L 356.851263 336.731732
L 360.716189 340.596658
L 364.581116 344.461584
L 368.446042 348.326511
L 372.310968 352.191437
L 376.175895 356.056364
L 380.040821 359.92129
L 383.905748 363.786216
L 387.770674 367.651143
L 391.6356 371.516069
L 395.500527 375.380996
L 399.365453 379.245922
L 403.23038 383.110848
L 407.095306 386.975775
L 410.960232 390.840701
L 414.825159 394.705628
L 418.690085 398.570554
L 422.555012 402.43548
L 426.419938 406.300407
L 430.284864 410.165333
L 434.149791 414.03026
L 438.014717 417.895186
L 441.879644 421.760112
L 445.74457 425.625039
" clip-path="url(#pb5eb3b36c4)" style="fill: none; stroke-dasharray: 6.66,2.88; stroke-dashoffset: 0; stroke: #2a9d8f; stroke-width: 1.8"/>
   </g>
   <g id="line2d_24">
    <path d="M 51.2 232.378719
L 453.7965 232.378719
" clip-path="url(#pb5eb3b36c4)" style="fill: none; stroke: #17324d; stroke-linecap: square"/>
   </g>
   <g id="line2d_25">
    <path d="M 252.49825 433.676969
L 252.49825 31.080469
" clip-path="url(#pb5eb3b36c4)" style="fill: none; stroke: #17324d; stroke-linecap: square"/>
   </g>
   <g id="patch_3">
    <path d="M 51.2 433.676969
L 51.2 31.080469
" style="fill: none; stroke: #17324d; stroke-width: 0.8; stroke-linejoin: miter; stroke-linecap: square"/>
   </g>
   <g id="patch_4">
    <path d="M 51.2 433.676969
L 453.7965 433.676969
" style="fill: none; stroke: #17324d; stroke-width: 0.8; stroke-linejoin: miter; stroke-linecap: square"/>
   </g>
   <g id="patch_5">
    <path d="M 386.823219 360.163882
Q 366.914535 343.403956 347.86116 327.364064
" style="fill: none; stroke: #457b9d; stroke-linecap: round"/>
    <path d="M 349.54457 331.26485
L 347.86116 327.364064
L 351.991835 328.357808
" style="fill: none; stroke: #457b9d; stroke-linecap: round"/>
   </g>
   <g id="text_13">
    <!-- $|\tau|/\sigma_{\mathrm{y}}=1/\sqrt{3}$ -->
    <g style="fill: #457b9d" transform="translate(368.446042 374.092687)">
     <text>
      <tspan x="0" y="-0.33625" style="font-size: 9.5px; font-family: 'DejaVu Sans'; fill: #457b9d">|</tspan>
      <tspan x="8.920166" y="-0.33625" style="font-size: 9.5px; font-family: 'DejaVu Sans'; fill: #457b9d">|</tspan>
      <tspan x="12.12085" y="-0.33625" style="font-size: 9.5px; font-family: 'DejaVu Sans'; fill: #457b9d">/</tspan>
      <tspan x="27.402246" y="-0.33625" style="font-size: 9.5px; font-family: 'DejaVu Sans'; fill: #457b9d">=</tspan>
      <tspan x="37.213037" y="-0.33625" style="font-size: 9.5px; font-family: 'DejaVu Sans'; fill: #457b9d">1</tspan>
      <tspan x="43.257227" y="-0.33625" style="font-size: 9.5px; font-family: 'DejaVu Sans'; fill: #457b9d">/</tspan>
      <tspan x="53.326776" y="0.015625" style="font-size: 9.5px; font-family: 'DejaVu Sans'; fill: #457b9d">3</tspan>
      <tspan x="3.200684" y="-0.33625" style="font-style: oblique; font-size: 9.5px; font-family: 'DejaVu Sans'; fill: #457b9d">τ</tspan>
      <tspan x="15.321533" y="-0.33625" style="font-style: oblique; font-size: 9.5px; font-family: 'DejaVu Sans'; fill: #457b9d">σ</tspan>
      <tspan x="21.342529" y="1.304375" style="font-size: 6.65px; font-family: 'DejaVu Sans'; fill: #457b9d">y</tspan>
      <tspan x="46.45791" y="-1.664375" style="font-size: 5.41709px; font-family: 'STIXSizeOneSym'; fill: #457b9d">√</tspan>
     </text>
     <rect x="52.139276" y="-9.8125" width="8.419189" height="0.59375"/>
    </g>
   </g>
   <g id="patch_6">
    <path d="M 353.196895 307.121523
Q 344.069141 309.734414 336.016248 312.039618
" style="fill: none; stroke: #e76f51; stroke-linecap: round"/>
    <path d="M 340.192402 312.820475
L 336.016248 312.039618
L 339.146626 309.167209
" style="fill: none; stroke: #e76f51; stroke-linecap: round"/>
   </g>
   <g id="text_14">
    <!-- $|\tau|/\sigma_{\mathrm{y}}=1/2$ -->
    <g style="fill: #e76f51" transform="translate(353.952568 301.625317)">
     <text>
      <tspan x="0" y="-0.359375" style="font-size: 9.5px; font-family: 'DejaVu Sans'; fill: #e76f51">|</tspan>
      <tspan x="8.920166" y="-0.359375" style="font-size: 9.5px; font-family: 'DejaVu Sans'; fill: #e76f51">|</tspan>
      <tspan x="12.12085" y="-0.359375" style="font-size: 9.5px; font-family: 'DejaVu Sans'; fill: #e76f51">/</tspan>
      <tspan x="27.402246" y="-0.359375" style="font-size: 9.5px; font-family: 'DejaVu Sans'; fill: #e76f51">=</tspan>
      <tspan x="37.213037" y="-0.359375" style="font-size: 9.5px; font-family: 'DejaVu Sans'; fill: #e76f51">1</tspan>
      <tspan x="43.257227" y="-0.359375" style="font-size: 9.5px; font-family: 'DejaVu Sans'; fill: #e76f51">/</tspan>
      <tspan x="46.08291" y="-0.359375" style="font-size: 9.5px; font-family: 'DejaVu Sans'; fill: #e76f51">2</tspan>
      <tspan x="3.200684" y="-0.359375" style="font-style: oblique; font-size: 9.5px; font-family: 'DejaVu Sans'; fill: #e76f51">τ</tspan>
      <tspan x="15.321533" y="-0.359375" style="font-style: oblique; font-size: 9.5px; font-family: 'DejaVu Sans'; fill: #e76f51">σ</tspan>
      <tspan x="21.342529" y="1.28125" style="font-size: 6.65px; font-family: 'DejaVu Sans'; fill: #e76f51">y</tspan>
     </text>
    </g>
   </g>
   <g id="text_15">
    <text style="font-weight: 700; font-size: 15px; font-family: 'Hiragino Sans'; text-anchor: middle; fill: #17324d" x="252.49825" y="19.080469" transform="rotate(-0 252.49825 19.080469)">Mises条件とTresca条件の降伏曲線</text>
   </g>
   <g id="legend_1">
    <g id="patch_7">
     <path d="M 57.85 81.163281
L 170.14 81.163281
Q 172.04 81.163281 172.04 79.263281
L 172.04 37.730469
Q 172.04 35.830469 170.14 35.830469
L 57.85 35.830469
Q 55.95 35.830469 55.95 37.730469
L 55.95 79.263281
Q 55.95 81.163281 57.85 81.163281
z
" style="fill: #ffffff; opacity: 0.8; stroke: #cccccc; stroke-linejoin: miter"/>
    </g>
    <g id="line2d_26">
     <path d="M 59.75 43.629375
L 69.25 43.629375
L 78.75 43.629375
" style="fill: none; stroke: #457b9d; stroke-width: 2.8; stroke-linecap: square"/>
    </g>
    <g id="text_16">
     <text style="font-size: 9.5px; font-family: 'Hiragino Sans'; text-anchor: start; fill: #17324d" x="86.35" y="46.954375" transform="rotate(-0 86.35 46.954375)">Mises</text>
    </g>
    <g id="line2d_27">
     <path d="M 59.75 57.650781
L 69.25 57.650781
L 78.75 57.650781
" style="fill: none; stroke: #e76f51; stroke-width: 2.8; stroke-linecap: square"/>
    </g>
    <g id="text_17">
     <text style="font-size: 9.5px; font-family: 'Hiragino Sans'; text-anchor: start; fill: #17324d" x="86.35" y="60.975781" transform="rotate(-0 86.35 60.975781)">Tresca</text>
    </g>
    <g id="line2d_28">
     <path d="M 59.75 72.090781
L 69.25 72.090781
L 78.75 72.090781
" style="fill: none; stroke-dasharray: 6.66,2.88; stroke-dashoffset: 0; stroke: #2a9d8f; stroke-width: 1.8"/>
    </g>
    <g id="text_18">
     <!-- 純せん断 $\sigma_2=-\sigma_1$ -->
     <g style="fill: #17324d" transform="translate(86.35 75.415781)">
      <text>
       <tspan x="0" y="-0.671875" style="font-size: 9.5px; font-family: 'Hiragino Sans'; fill: #17324d">純</tspan>
       <tspan x="9.499985" y="-0.671875" style="font-size: 9.5px; font-family: 'Hiragino Sans'; fill: #17324d">せ</tspan>
       <tspan x="18.999969" y="-0.671875" style="font-size: 9.5px; font-family: 'Hiragino Sans'; fill: #17324d">ん</tspan>
       <tspan x="28.499954" y="-0.671875" style="font-size: 9.5px; font-family: 'Hiragino Sans'; fill: #17324d">断</tspan>
       <tspan x="37.999939" y="-0.671875" style="font-size: 9.5px; font-family: 'Hiragino Sans'; fill: #17324d"> </tspan>
       <tspan x="41.163437" y="-0.671875" style="font-style: oblique; font-size: 9.5px; font-family: 'DejaVu Sans'; fill: #17324d">σ</tspan>
       <tspan x="71.310385" y="-0.671875" style="font-style: oblique; font-size: 9.5px; font-family: 'DejaVu Sans'; fill: #17324d">σ</tspan>
       <tspan x="47.184433" y="0.96875" style="font-size: 6.65px; font-family: 'DejaVu Sans'; fill: #17324d">2</tspan>
       <tspan x="77.331381" y="0.96875" style="font-size: 6.65px; font-family: 'DejaVu Sans'; fill: #17324d">1</tspan>
       <tspan x="53.539633" y="-0.671875" style="font-size: 9.5px; font-family: 'DejaVu Sans'; fill: #17324d">=</tspan>
       <tspan x="63.350424" y="-0.671875" style="font-size: 9.5px; font-family: 'DejaVu Sans'; fill: #17324d">−</tspan>
      </text>
     </g>
    </g>
   </g>
   <g id="PathCollection_1">
    <defs>
     <path id="mac8b333a85" d="M 0 3.937004
C 1.044106 3.937004 2.045588 3.522176 2.783882 2.783882
C 3.522176 2.045588 3.937004 1.044106 3.937004 0
C 3.937004 -1.044106 3.522176 -2.045588 2.783882 -2.783882
C 2.045588 -3.522176 1.044106 -3.937004 0 -3.937004
C -1.044106 -3.937004 -2.045588 -3.522176 -2.783882 -2.783882
C -3.522176 -2.045588 -3.937004 -1.044106 -3.937004 0
C -3.937004 1.044106 -3.522176 2.045588 -2.783882 2.783882
C -2.045588 3.522176 -1.044106 3.937004 0 3.937004
z
" style="stroke: #ffffff"/>
    </defs>
    <g clip-path="url(#pb5eb3b36c4)">
     <use xlink:href="#mac8b333a85" x="345.473929" y="325.354398" style="fill: #457b9d; stroke: #ffffff"/>
    </g>
   </g>
   <g id="PathCollection_2">
    <defs>
     <path id="mf54225a698" d="M 0 3.937004
C 1.044106 3.937004 2.045588 3.522176 2.783882 2.783882
C 3.522176 2.045588 3.937004 1.044106 3.937004 0
C 3.937004 -1.044106 3.522176 -2.045588 2.783882 -2.783882
C 2.045588 -3.522176 1.044106 -3.937004 0 -3.937004
C -1.044106 -3.937004 -2.045588 -3.522176 -2.783882 -2.783882
C -3.522176 -2.045588 -3.937004 -1.044106 -3.937004 0
C -3.937004 1.044106 -3.522176 2.045588 -2.783882 2.783882
C -2.045588 3.522176 -1.044106 3.937004 0 3.937004
z
" style="stroke: #ffffff"/>
    </defs>
    <g clip-path="url(#pb5eb3b36c4)">
     <use xlink:href="#mf54225a698" x="333.01755" y="312.898019" style="fill: #e76f51; stroke: #ffffff"/>
    </g>
   </g>
  </g>
 </g>
 <defs>
  <clipPath id="pb5eb3b36c4">
   <rect x="51.2" y="31.080469" width="402.5965" height="402.5965"/>
  </clipPath>
 </defs>
</svg>
