<?xml version="1.0" encoding="utf-8" standalone="no"?>
<!DOCTYPE svg PUBLIC "-//W3C//DTD SVG 1.1//EN"
  "http://www.w3.org/Graphics/SVG/1.1/DTD/svg11.dtd">
<svg xmlns:xlink="http://www.w3.org/1999/xlink" width="727.577332pt" height="391.68pt" viewBox="0 0 727.577332 391.68" xmlns="http://www.w3.org/2000/svg" version="1.1">
 <metadata>
  <rdf:RDF xmlns:dc="http://purl.org/dc/elements/1.1/" xmlns:cc="http://creativecommons.org/ns#" xmlns:rdf="http://www.w3.org/1999/02/22-rdf-syntax-ns#">
   <cc:Work>
    <dc:type rdf:resource="http://purl.org/dc/dcmitype/StillImage"/>
    <dc:format>image/svg+xml</dc:format>
    <dc:creator>
     <cc:Agent>
      <dc:title>Matplotlib v3.10.9, https://matplotlib.org/</dc:title>
     </cc:Agent>
    </dc:creator>
   </cc:Work>
  </rdf:RDF>
 </metadata>
 <defs>
  <style type="text/css">*{stroke-linejoin: round; stroke-linecap: butt}</style>
 </defs>
 <g id="figure_1">
  <g id="patch_1">
   <path d="M 0 391.68
L 727.577332 391.68
L 727.577332 0
L 0 0
z
" style="fill: #ffffff"/>
  </g>
  <g id="axes_1">
   <g id="patch_2">
    <path d="M 148.86713 140.446944
C 174.318155 140.446944 198.7302 150.558744 216.726792 168.555337
C 234.723385 186.55193 244.835185 210.963974 244.835185 236.415
C 244.835185 261.866026 234.723385 286.27807 216.726792 304.274663
C 198.7302 322.271256 174.318155 332.383056 148.86713 332.383056
C 123.416104 332.383056 99.00406 322.271256 81.007467 304.274663
C 63.010874 286.27807 52.899074 261.866026 52.899074 236.415
C 52.899074 210.963974 63.010874 186.55193 81.007467 168.555337
C 99.00406 150.558744 123.416104 140.446944 148.86713 140.446944
z
" clip-path="url(#p8e36687f1b)" style="fill: #eef5f8; opacity: 0.9; stroke: #457b9d; stroke-width: 2; stroke-linejoin: miter"/>
   </g>
   <g id="patch_3">
    <path d="M 148.86713 225.447222
C 151.775818 225.447222 154.565766 226.602856 156.62252 228.65961
C 158.679273 230.716363 159.834907 233.506311 159.834907 236.415
C 159.834907 239.323689 158.679273 242.113637 156.62252 244.17039
C 154.565766 246.227144 151.775818 247.382778 148.86713 247.382778
C 145.958441 247.382778 143.168493 246.227144 141.11174 244.17039
C 139.054986 242.113637 137.899352 239.323689 137.899352 236.415
C 137.899352 233.506311 139.054986 230.716363 141.11174 228.65961
C 143.168493 226.602856 145.958441 225.447222 148.86713 225.447222
z
" clip-path="url(#p8e36687f1b)" style="fill: #17324d; stroke: #17324d; stroke-linejoin: miter"/>
   </g>
   <g id="line2d_1">
    <path d="M 214.673796 236.415
L 214.566031 240.179535
L 214.243088 243.931741
L 213.706026 247.659328
L 212.956603 251.350088
L 211.997273 254.991931
L 210.831179 258.572932
L 209.46214 262.081361
L 207.89464 265.505727
L 206.133813 268.834815
L 204.185425 272.057721
L 202.055858 275.163891
L 199.752088 278.143149
L 197.281658 280.985739
L 194.652661 283.682351
L 191.873707 286.224152
L 188.953898 288.602819
L 185.902796 290.810559
L 182.730394 292.840142
L 179.447084 294.684922
L 176.063617 296.338855
L 172.591077 297.796526
L 169.040835 299.053159
L 165.424521 300.104639
L 161.753978 300.947523
L 158.041228 301.579049
L 154.29843 301.99715
L 150.537844 302.200455
L 146.771786 302.188299
L 143.012591 301.960723
L 139.27257 301.51847
L 135.563974 300.86299
L 131.898948 299.99643
L 128.289497 298.921627
L 124.747442 297.642102
L 121.284383 296.162046
L 117.911664 294.486306
L 114.64033 292.62037
L 111.481097 290.57035
L 108.44431 288.34296
L 105.539916 285.945495
L 102.777428 283.385808
L 100.165893 280.672281
L 97.713865 277.813803
L 95.429374 274.819735
L 93.319903 271.699884
L 91.392361 268.464467
L 89.65306 265.124082
L 88.107698 261.689668
L 86.761336 258.172475
L 85.618382 254.584021
L 84.682582 250.936061
L 83.956999 247.24054
L 83.44401 243.509564
L 83.145296 239.755352
L 83.061834 235.990199
L 83.193898 232.226438
L 83.541056 228.476395
L 84.10217 224.752353
L 84.875402 221.066508
L 85.858221 217.430933
L 87.047407 213.857534
L 88.439065 210.358016
L 90.028638 206.94384
L 91.810919 203.626188
L 93.780071 200.415926
L 95.929644 197.323569
L 98.252599 194.359244
L 100.741326 191.53266
L 103.387676 188.853075
L 106.18298 186.329266
L 109.118084 183.969497
L 112.183374 181.781499
L 115.368811 179.772436
L 115.368811 179.772436
" clip-path="url(#p8e36687f1b)" style="fill: none; stroke: #6c5ce7; stroke-width: 3; stroke-linecap: square"/>
   </g>
   <g id="line2d_2">
    <path d="M 148.86713 236.415
L 209.889736 295.586689
" clip-path="url(#p8e36687f1b)" style="fill: none; stroke: #64748b; stroke-width: 1.5; stroke-linecap: square"/>
   </g>
   <g id="text_1">
    <!-- $x_1$ -->
    <g style="fill: #e76f51" transform="translate(274.996574 239.527656)">
     <text>
      <tspan x="0" y="-0.984375" style="font-style: oblique; font-size: 11px; font-family: 'DejaVu Sans'; fill: #e76f51">x</tspan>
      <tspan x="6.509766" y="0.820312" style="font-size: 7.7px; font-family: 'DejaVu Sans'; fill: #e76f51">1</tspan>
     </text>
    </g>
   </g>
   <g id="text_2">
    <!-- $x_2$ -->
    <g style="fill: #2a9d8f" transform="translate(142.98213 357.5475)">
     <text>
      <tspan x="0" y="-0.984375" style="font-style: oblique; font-size: 11px; font-family: 'DejaVu Sans'; fill: #2a9d8f">x</tspan>
      <tspan x="6.509766" y="0.820312" style="font-size: 7.7px; font-family: 'DejaVu Sans'; fill: #2a9d8f">2</tspan>
     </text>
    </g>
   </g>
   <g id="text_3">
    <!-- $r$ -->
    <g style="fill: #64748b" transform="translate(185.588733 267.591481)">
     <text>
      <tspan x="0" y="-0.84375" style="font-style: oblique; font-size: 11px; font-family: 'DejaVu Sans'; fill: #64748b">r</tspan>
     </text>
    </g>
   </g>
   <g id="text_4">
    <!-- $\theta$ -->
    <g style="fill: #6c5ce7" transform="translate(103.168056 274.802222)">
     <text>
      <tspan x="0" y="-0.25" style="font-style: oblique; font-size: 14px; font-family: 'DejaVu Sans'; fill: #6c5ce7">θ</tspan>
     </text>
    </g>
   </g>
   <g id="text_5">
    <!-- 紙面上の時計回りを $\theta&gt;0$ と定義 -->
    <g style="fill: #6c5ce7" transform="translate(76.90463 103.887685)">
     <text>
      <tspan x="0" y="-0.6875" style="font-size: 9.5px; font-family: 'Hiragino Sans'; fill: #6c5ce7">紙</tspan>
      <tspan x="9.499985" y="-0.6875" style="font-size: 9.5px; font-family: 'Hiragino Sans'; fill: #6c5ce7">面</tspan>
      <tspan x="18.999969" y="-0.6875" style="font-size: 9.5px; font-family: 'Hiragino Sans'; fill: #6c5ce7">上</tspan>
      <tspan x="28.499954" y="-0.6875" style="font-size: 9.5px; font-family: 'Hiragino Sans'; fill: #6c5ce7">の</tspan>
      <tspan x="37.999939" y="-0.6875" style="font-size: 9.5px; font-family: 'Hiragino Sans'; fill: #6c5ce7">時</tspan>
      <tspan x="47.499924" y="-0.6875" style="font-size: 9.5px; font-family: 'Hiragino Sans'; fill: #6c5ce7">計</tspan>
      <tspan x="56.999908" y="-0.6875" style="font-size: 9.5px; font-family: 'Hiragino Sans'; fill: #6c5ce7">回</tspan>
      <tspan x="66.499893" y="-0.6875" style="font-size: 9.5px; font-family: 'Hiragino Sans'; fill: #6c5ce7">り</tspan>
      <tspan x="75.999878" y="-0.6875" style="font-size: 9.5px; font-family: 'Hiragino Sans'; fill: #6c5ce7">を</tspan>
      <tspan x="85.499863" y="-0.6875" style="font-size: 9.5px; font-family: 'Hiragino Sans'; fill: #6c5ce7"> </tspan>
      <tspan x="112.181427" y="-0.6875" style="font-size: 9.5px; font-family: 'Hiragino Sans'; fill: #6c5ce7"> </tspan>
      <tspan x="115.344925" y="-0.6875" style="font-size: 9.5px; font-family: 'Hiragino Sans'; fill: #6c5ce7">と</tspan>
      <tspan x="124.84491" y="-0.6875" style="font-size: 9.5px; font-family: 'Hiragino Sans'; fill: #6c5ce7">定</tspan>
      <tspan x="134.344894" y="-0.6875" style="font-size: 9.5px; font-family: 'Hiragino Sans'; fill: #6c5ce7">義</tspan>
      <tspan x="88.663361" y="-0.6875" style="font-style: oblique; font-size: 9.5px; font-family: 'DejaVu Sans'; fill: #6c5ce7">θ</tspan>
      <tspan x="96.326447" y="-0.6875" style="font-size: 9.5px; font-family: 'DejaVu Sans'; fill: #6c5ce7">&gt;</tspan>
      <tspan x="106.137238" y="-0.6875" style="font-size: 9.5px; font-family: 'DejaVu Sans'; fill: #6c5ce7">0</tspan>
     </text>
    </g>
   </g>
   <g id="text_6">
    <g id="patch_4">
     <path d="M 160.576852 247.554815
L 188.576852 247.554815
L 188.576852 235.747315
L 160.576852 235.747315
z
" style="fill: #17324d"/>
    </g>
    <text style="font-size: 8px; font-family: 'Hiragino Sans'; text-anchor: start; fill: #ffffff" x="162.576852" y="243.914815" transform="rotate(-0 162.576852 243.914815)">転位芯</text>
   </g>
   <g id="text_7">
    <!-- $x_1$- -$x_2$ 断面 -->
    <g style="fill: #17324d" transform="translate(116.76713 82.35)">
     <text>
      <tspan x="0" y="-0.421875" style="font-style: oblique; font-size: 12px; font-family: 'DejaVu Sans'; fill: #17324d">x</tspan>
      <tspan x="23.381995" y="-0.421875" style="font-style: oblique; font-size: 12px; font-family: 'DejaVu Sans'; fill: #17324d">x</tspan>
      <tspan x="7.101562" y="1.546875" style="font-size: 8.4px; font-family: 'DejaVu Sans'; fill: #17324d">1</tspan>
      <tspan x="30.483557" y="1.546875" style="font-size: 8.4px; font-family: 'DejaVu Sans'; fill: #17324d">2</tspan>
      <tspan x="12.774023" y="-0.421875" style="font-weight: 700; font-size: 12px; font-family: 'Hiragino Sans'; fill: #17324d">-</tspan>
      <tspan x="18.078009" y="-0.421875" style="font-weight: 700; font-size: 12px; font-family: 'Hiragino Sans'; fill: #17324d">-</tspan>
      <tspan x="36.156018" y="-0.421875" style="font-weight: 700; font-size: 12px; font-family: 'Hiragino Sans'; fill: #17324d"> </tspan>
      <tspan x="40.152005" y="-0.421875" style="font-weight: 700; font-size: 12px; font-family: 'Hiragino Sans'; fill: #17324d">断</tspan>
      <tspan x="52.15199" y="-0.421875" style="font-weight: 700; font-size: 12px; font-family: 'Hiragino Sans'; fill: #17324d">面</tspan>
     </text>
    </g>
   </g>
   <g id="patch_5">
    <path d="M 31.8775 236.415
Q 152.066065 236.415 270.353972 236.415
" clip-path="url(#p8e36687f1b)" style="fill: none; stroke: #e76f51; stroke-width: 1.7; stroke-linecap: round"/>
    <path d="M 265.953972 234.215
L 270.353972 236.415
L 265.953972 238.615
z
" clip-path="url(#p8e36687f1b)" style="fill: #e76f51; stroke: #e76f51; stroke-width: 1.7; stroke-linecap: round"/>
   </g>
   <g id="patch_6">
    <path d="M 148.86713 122.167315
Q 148.86713 239.613935 148.86713 355.159898
" clip-path="url(#p8e36687f1b)" style="fill: none; stroke: #2a9d8f; stroke-width: 1.7; stroke-linecap: round"/>
    <path d="M 151.06713 350.759898
L 148.86713 355.159898
L 146.66713 350.759898
z
" clip-path="url(#p8e36687f1b)" style="fill: #2a9d8f; stroke: #2a9d8f; stroke-width: 1.7; stroke-linecap: round"/>
   </g>
   <g id="patch_7">
    <path d="M 109.075193 183.494472
Q 113.008704 181.1682 114.632602 180.207829
" clip-path="url(#p8e36687f1b)" style="fill: none; stroke: #6c5ce7; stroke-width: 2.4; stroke-linecap: round"/>
    <path d="M 109.279341 180.585447
L 114.632602 180.207829
L 111.72274 184.717009
z
" clip-path="url(#p8e36687f1b)" style="fill: #6c5ce7; stroke: #6c5ce7; stroke-width: 2.4; stroke-linecap: round"/>
   </g>
  </g>
  <g id="axes_2">
   <g id="patch_8">
    <path d="M 447.473214 338.028235
L 679.732038 338.028235
L 679.732038 146.414706
L 447.473214 146.414706
z
" clip-path="url(#p32d4d1e9f6)" style="fill: #f7f4ed; stroke: #cbd5df; stroke-width: 1.5; stroke-linejoin: miter"/>
   </g>
   <g id="line2d_3">
    <path d="M 461.98939 317.705588
L 650.699685 181.253529
" clip-path="url(#p32d4d1e9f6)" style="fill: none; stroke: #e9c46a; stroke-width: 4; stroke-linecap: round"/>
   </g>
   <g id="text_8">
    <!-- $\theta$ -->
    <g style="fill: #6c5ce7" transform="translate(668.119096 320.535276)">
     <text>
      <tspan x="0" y="-0.328125" style="font-style: oblique; font-size: 10px; font-family: 'DejaVu Sans'; fill: #6c5ce7">θ</tspan>
     </text>
    </g>
   </g>
   <g id="text_9">
    <!-- $x_3$ -->
    <g style="fill: #457b9d" transform="translate(456.63939 147.267941)">
     <text>
      <tspan x="0" y="-0.53125" style="font-style: oblique; font-size: 10px; font-family: 'DejaVu Sans'; fill: #457b9d">x</tspan>
      <tspan x="5.917969" y="1.109375" style="font-size: 7px; font-family: 'DejaVu Sans'; fill: #457b9d">3</tspan>
     </text>
    </g>
   </g>
   <g id="text_10">
    <!-- $0$ -->
    <g style="fill: #64748b" transform="translate(458.78939 335.125)">
     <text>
      <tspan x="0" y="-0.578125" style="font-size: 10px; font-family: 'DejaVu Sans'; fill: #64748b">0</tspan>
     </text>
    </g>
   </g>
   <g id="text_11">
    <!-- $2\pi$ -->
    <g style="fill: #6c5ce7" transform="translate(644.499685 335.125)">
     <text>
      <tspan x="0" y="-0.578125" style="font-size: 10px; font-family: 'DejaVu Sans'; fill: #6c5ce7">2</tspan>
      <tspan x="6.362305" y="-0.578125" style="font-style: oblique; font-size: 10px; font-family: 'DejaVu Sans'; fill: #6c5ce7">π</tspan>
     </text>
    </g>
   </g>
   <g id="text_12">
    <!-- 1周すると $x_3$ 方向に $b$ だけずれる -->
    <g style="fill: #17324d" transform="translate(482.619096 118.00943)">
     <text>
      <tspan x="0" y="-0.0625" style="font-weight: 700; font-size: 11px; font-family: 'Hiragino Sans'; fill: #17324d">1</tspan>
      <tspan x="8.151001" y="-0.0625" style="font-weight: 700; font-size: 11px; font-family: 'Hiragino Sans'; fill: #17324d">周</tspan>
      <tspan x="19.151001" y="-0.0625" style="font-weight: 700; font-size: 11px; font-family: 'Hiragino Sans'; fill: #17324d">す</tspan>
      <tspan x="30.151001" y="-0.0625" style="font-weight: 700; font-size: 11px; font-family: 'Hiragino Sans'; fill: #17324d">る</tspan>
      <tspan x="41.151001" y="-0.0625" style="font-weight: 700; font-size: 11px; font-family: 'Hiragino Sans'; fill: #17324d">と</tspan>
      <tspan x="52.151001" y="-0.0625" style="font-weight: 700; font-size: 11px; font-family: 'Hiragino Sans'; fill: #17324d"> </tspan>
      <tspan x="67.523517" y="-0.0625" style="font-weight: 700; font-size: 11px; font-family: 'Hiragino Sans'; fill: #17324d"> </tspan>
      <tspan x="71.186511" y="-0.0625" style="font-weight: 700; font-size: 11px; font-family: 'Hiragino Sans'; fill: #17324d">方</tspan>
      <tspan x="82.186511" y="-0.0625" style="font-weight: 700; font-size: 11px; font-family: 'Hiragino Sans'; fill: #17324d">向</tspan>
      <tspan x="93.186511" y="-0.0625" style="font-weight: 700; font-size: 11px; font-family: 'Hiragino Sans'; fill: #17324d">に</tspan>
      <tspan x="104.186511" y="-0.0625" style="font-weight: 700; font-size: 11px; font-family: 'Hiragino Sans'; fill: #17324d"> </tspan>
      <tspan x="114.831927" y="-0.0625" style="font-weight: 700; font-size: 11px; font-family: 'Hiragino Sans'; fill: #17324d"> </tspan>
      <tspan x="118.494922" y="-0.0625" style="font-weight: 700; font-size: 11px; font-family: 'Hiragino Sans'; fill: #17324d">だ</tspan>
      <tspan x="129.494922" y="-0.0625" style="font-weight: 700; font-size: 11px; font-family: 'Hiragino Sans'; fill: #17324d">け</tspan>
      <tspan x="140.494922" y="-0.0625" style="font-weight: 700; font-size: 11px; font-family: 'Hiragino Sans'; fill: #17324d">ず</tspan>
      <tspan x="151.494922" y="-0.0625" style="font-weight: 700; font-size: 11px; font-family: 'Hiragino Sans'; fill: #17324d">れ</tspan>
      <tspan x="162.494922" y="-0.0625" style="font-weight: 700; font-size: 11px; font-family: 'Hiragino Sans'; fill: #17324d">る</tspan>
      <tspan x="55.813995" y="-0.0625" style="font-style: oblique; font-size: 11px; font-family: 'DejaVu Sans'; fill: #17324d">x</tspan>
      <tspan x="107.849506" y="-0.0625" style="font-style: oblique; font-size: 11px; font-family: 'DejaVu Sans'; fill: #17324d">b</tspan>
      <tspan x="62.323761" y="1.742188" style="font-size: 7.7px; font-family: 'DejaVu Sans'; fill: #17324d">3</tspan>
     </text>
    </g>
   </g>
   <g id="text_13">
    <text style="font-size: 9px; font-family: 'Hiragino Sans'; text-anchor: middle; fill: #64748b" x="569.409096" y="364.157353" transform="rotate(-0 569.409096 364.157353)">円周方向をほどいた模式表示（縮尺なし）</text>
   </g>
   <g id="text_14">
    <text style="font-weight: 700; font-size: 12px; font-family: 'Hiragino Sans'; text-anchor: middle; fill: #17324d" x="572.312332" y="82.35" transform="rotate(-0 572.312332 82.35)">多価変位のイメージ</text>
   </g>
   <g id="PathCollection_1">
    <defs>
     <path id="C0_0_63a1969504" d="M 0 3.708099
C 0.983399 3.708099 1.926654 3.317391 2.622022 2.622022
C 3.317391 1.926654 3.708099 0.983399 3.708099 -0
C 3.708099 -0.983399 3.317391 -1.926654 2.622022 -2.622022
C 1.926654 -3.317391 0.983399 -3.708099 0 -3.708099
C -0.983399 -3.708099 -1.926654 -3.317391 -2.622022 -2.622022
C -3.317391 -1.926654 -3.708099 -0.983399 -3.708099 0
C -3.708099 0.983399 -3.317391 1.926654 -2.622022 2.622022
C -1.926654 3.317391 -0.983399 3.708099 0 3.708099
z
"/>
    </defs>
    <g clip-path="url(#p32d4d1e9f6)">
     <use xlink:href="#C0_0_63a1969504" x="461.98939" y="317.705588" style="fill: #17324d; stroke: #17324d"/>
    </g>
    <g clip-path="url(#p32d4d1e9f6)">
     <use xlink:href="#C0_0_63a1969504" x="650.699685" y="181.253529" style="fill: #e9c46a; stroke: #e9c46a"/>
    </g>
   </g>
   <g id="patch_9">
    <path d="M 688.441743 316.140341
Q 688.441743 249.479559 688.441743 182.818777
" clip-path="url(#p32d4d1e9f6)" style="fill: none; stroke: #457b9d; stroke-width: 1.4; stroke-linecap: round"/>
    <path d="M 690.641743 311.740341
L 688.441743 316.140341
L 686.241743 311.740341
" clip-path="url(#p32d4d1e9f6)" style="fill: none; stroke: #457b9d; stroke-width: 1.4; stroke-linecap: round"/>
    <path d="M 686.241743 187.218777
L 688.441743 182.818777
L 690.641743 187.218777
" clip-path="url(#p32d4d1e9f6)" style="fill: none; stroke: #457b9d; stroke-width: 1.4; stroke-linecap: round"/>
   </g>
   <g id="patch_10">
    <path d="M 461.98939 317.705588
Q 562.151008 317.705588 660.300165 317.705588
" clip-path="url(#p32d4d1e9f6)" style="fill: none; stroke: #6c5ce7; stroke-width: 1.8; stroke-linecap: round"/>
    <path d="M 655.900165 315.505588
L 660.300165 317.705588
L 655.900165 319.905588
z
" clip-path="url(#p32d4d1e9f6)" style="fill: #6c5ce7; stroke: #6c5ce7; stroke-width: 1.8; stroke-linecap: round"/>
   </g>
   <g id="patch_11">
    <path d="M 461.98939 317.705588
Q 461.98939 237.866618 461.98939 160.040108
" clip-path="url(#p32d4d1e9f6)" style="fill: none; stroke: #457b9d; stroke-width: 1.8; stroke-linecap: round"/>
    <path d="M 459.78939 164.440108
L 461.98939 160.040108
L 464.18939 164.440108
z
" clip-path="url(#p32d4d1e9f6)" style="fill: #457b9d; stroke: #457b9d; stroke-width: 1.8; stroke-linecap: round"/>
   </g>
   <g id="text_15">
    <g id="patch_12">
     <path d="M 698.55792 255.559246
L 707.35792 255.559246
L 707.35792 243.399871
L 698.55792 243.399871
z
" style="fill: #ffffff"/>
    </g>
    <!-- $b$ -->
    <g style="fill: #457b9d" transform="translate(699.75792 252.309246)">
     <text>
      <tspan x="0" y="-0.40625" style="font-style: oblique; font-size: 10px; font-family: 'DejaVu Sans'; fill: #457b9d">b</tspan>
     </text>
    </g>
   </g>
  </g>
  <g id="text_16">
   <text style="font-weight: 700; font-size: 16px; font-family: 'Hiragino Sans'; text-anchor: middle; fill: #17324d" x="360.589731" y="20.9275" transform="rotate(-0 360.589731 20.9275)">らせん転位：角度の一周とBurgers vector</text>
  </g>
 </g>
 <defs>
  <clipPath id="p8e36687f1b">
   <rect x="7.2" y="88.35" width="283.334259" height="296.13"/>
  </clipPath>
  <clipPath id="p32d4d1e9f6">
   <rect x="424.247332" y="88.35" width="296.13" height="296.13"/>
  </clipPath>
 </defs>
</svg>
