<?xml version="1.0" encoding="utf-8" standalone="no"?>
<!DOCTYPE svg PUBLIC "-//W3C//DTD SVG 1.1//EN"
  "http://www.w3.org/Graphics/SVG/1.1/DTD/svg11.dtd">
<svg xmlns:xlink="http://www.w3.org/1999/xlink" width="929.268pt" height="271.728pt" viewBox="0 0 929.268 271.728" xmlns="http://www.w3.org/2000/svg" version="1.1">
 <metadata>
  <rdf:RDF xmlns:dc="http://purl.org/dc/elements/1.1/" xmlns:cc="http://creativecommons.org/ns#" xmlns:rdf="http://www.w3.org/1999/02/22-rdf-syntax-ns#">
   <cc:Work>
    <dc:type rdf:resource="http://purl.org/dc/dcmitype/StillImage"/>
    <dc:format>image/svg+xml</dc:format>
    <dc:creator>
     <cc:Agent>
      <dc:title>Matplotlib v3.10.9, https://matplotlib.org/</dc:title>
     </cc:Agent>
    </dc:creator>
   </cc:Work>
  </rdf:RDF>
 </metadata>
 <defs>
  <style type="text/css">*{stroke-linejoin: round; stroke-linecap: butt}</style>
 </defs>
 <g id="figure_1">
  <g id="patch_1">
   <path d="M 0 271.728
L 929.268 271.728
L 929.268 0
L 0 0
z
" style="fill: #ffffff"/>
  </g>
  <g id="axes_1">
   <g id="patch_2">
    <path d="M 185.265835 116.462224
C 186.037448 116.462224 186.777563 116.155658 187.323176 115.610045
C 187.868789 115.064432 188.175355 114.324318 188.175355 113.552704
C 188.175355 112.78109 187.868789 112.040976 187.323176 111.495362
C 186.777563 110.949749 186.037448 110.643184 185.265835 110.643184
C 184.494221 110.643184 183.754107 110.949749 183.208493 111.495362
C 182.66288 112.040976 182.356315 112.78109 182.356315 113.552704
C 182.356315 114.324318 182.66288 115.064432 183.208493 115.610045
C 183.754107 116.155658 184.494221 116.462224 185.265835 116.462224
z
" clip-path="url(#p1385a6674b)" style="fill: #457b9d; opacity: 0.8; stroke: #457b9d; stroke-linejoin: miter"/>
   </g>
   <g id="patch_3">
    <path d="M 58.185764 99.441488
C 58.957378 99.441488 59.697492 99.134923 60.243106 98.589309
C 60.788719 98.043696 61.095284 97.303582 61.095284 96.531968
C 61.095284 95.760354 60.788719 95.02024 60.243106 94.474627
C 59.697492 93.929014 58.957378 93.622448 58.185764 93.622448
C 57.414151 93.622448 56.674036 93.929014 56.128423 94.474627
C 55.58281 95.02024 55.276244 95.760354 55.276244 96.531968
C 55.276244 97.303582 55.58281 98.043696 56.128423 98.589309
C 56.674036 99.134923 57.414151 99.441488 58.185764 99.441488
z
" clip-path="url(#p1385a6674b)" style="fill: #457b9d; opacity: 0.8; stroke: #457b9d; stroke-linejoin: miter"/>
   </g>
   <g id="patch_4">
    <path d="M 89.290117 105.018349
C 90.061731 105.018349 90.801845 104.711784 91.347459 104.16617
C 91.893072 103.620557 92.199637 102.880443 92.199637 102.108829
C 92.199637 101.337215 91.893072 100.597101 91.347459 100.051488
C 90.801845 99.505875 90.061731 99.199309 89.290117 99.199309
C 88.518504 99.199309 87.778389 99.505875 87.232776 100.051488
C 86.687163 100.597101 86.380597 101.337215 86.380597 102.108829
C 86.380597 102.880443 86.687163 103.620557 87.232776 104.16617
C 87.778389 104.711784 88.518504 105.018349 89.290117 105.018349
z
" clip-path="url(#p1385a6674b)" style="fill: #457b9d; opacity: 0.8; stroke: #457b9d; stroke-linejoin: miter"/>
   </g>
   <g id="patch_5">
    <path d="M 59.209334 191.065202
C 59.980948 191.065202 60.721062 190.758636 61.266675 190.213023
C 61.812289 189.66741 62.118854 188.927295 62.118854 188.155682
C 62.118854 187.384068 61.812289 186.643954 61.266675 186.09834
C 60.721062 185.552727 59.980948 185.246162 59.209334 185.246162
C 58.43772 185.246162 57.697606 185.552727 57.151993 186.09834
C 56.606379 186.643954 56.299814 187.384068 56.299814 188.155682
C 56.299814 188.927295 56.606379 189.66741 57.151993 190.213023
C 57.697606 190.758636 58.43772 191.065202 59.209334 191.065202
z
" clip-path="url(#p1385a6674b)" style="fill: #457b9d; opacity: 0.8; stroke: #457b9d; stroke-linejoin: miter"/>
   </g>
   <g id="patch_6">
    <path d="M 177.857761 212.861989
C 178.629375 212.861989 179.369489 212.555423 179.915102 212.00981
C 180.460716 211.464197 180.767281 210.724082 180.767281 209.952469
C 180.767281 209.180855 180.460716 208.440741 179.915102 207.895127
C 179.369489 207.349514 178.629375 207.042949 177.857761 207.042949
C 177.086147 207.042949 176.346033 207.349514 175.80042 207.895127
C 175.254806 208.440741 174.948241 209.180855 174.948241 209.952469
C 174.948241 210.724082 175.254806 211.464197 175.80042 212.00981
C 176.346033 212.555423 177.086147 212.861989 177.857761 212.861989
z
" clip-path="url(#p1385a6674b)" style="fill: #457b9d; opacity: 0.8; stroke: #457b9d; stroke-linejoin: miter"/>
   </g>
   <g id="patch_7">
    <path d="M 107.14159 183.705012
C 107.913203 183.705012 108.653318 183.398447 109.198931 182.852834
C 109.744544 182.30722 110.05111 181.567106 110.05111 180.795492
C 110.05111 180.023879 109.744544 179.283764 109.198931 178.738151
C 108.653318 178.192538 107.913203 177.885972 107.14159 177.885972
C 106.369976 177.885972 105.629862 178.192538 105.084248 178.738151
C 104.538635 179.283764 104.23207 180.023879 104.23207 180.795492
C 104.23207 181.567106 104.538635 182.30722 105.084248 182.852834
C 105.629862 183.398447 106.369976 183.705012 107.14159 183.705012
z
" clip-path="url(#p1385a6674b)" style="fill: #457b9d; opacity: 0.8; stroke: #457b9d; stroke-linejoin: miter"/>
   </g>
   <g id="patch_8">
    <path d="M 163.273756 221.803824
C 164.04537 221.803824 164.785484 221.497259 165.331097 220.951645
C 165.876711 220.406032 166.183276 219.665918 166.183276 218.894304
C 166.183276 218.12269 165.876711 217.382576 165.331097 216.836963
C 164.785484 216.291349 164.04537 215.984784 163.273756 215.984784
C 162.502142 215.984784 161.762028 216.291349 161.216415 216.836963
C 160.670801 217.382576 160.364236 218.12269 160.364236 218.894304
C 160.364236 219.665918 160.670801 220.406032 161.216415 220.951645
C 161.762028 221.497259 162.502142 221.803824 163.273756 221.803824
z
" clip-path="url(#p1385a6674b)" style="fill: #457b9d; opacity: 0.8; stroke: #457b9d; stroke-linejoin: miter"/>
   </g>
   <g id="patch_9">
    <path d="M 39.748594 165.182909
C 40.520208 165.182909 41.260322 164.876344 41.805935 164.33073
C 42.351549 163.785117 42.658114 163.045003 42.658114 162.273389
C 42.658114 161.501775 42.351549 160.761661 41.805935 160.216048
C 41.260322 159.670434 40.520208 159.363869 39.748594 159.363869
C 38.97698 159.363869 38.236866 159.670434 37.691253 160.216048
C 37.145639 160.761661 36.839074 161.501775 36.839074 162.273389
C 36.839074 163.045003 37.145639 163.785117 37.691253 164.33073
C 38.236866 164.876344 38.97698 165.182909 39.748594 165.182909
z
" clip-path="url(#p1385a6674b)" style="fill: #457b9d; opacity: 0.8; stroke: #457b9d; stroke-linejoin: miter"/>
   </g>
   <g id="patch_10">
    <path d="M 146.507077 213.800133
C 147.278691 213.800133 148.018805 213.493567 148.564419 212.947954
C 149.110032 212.402341 149.416597 211.662226 149.416597 210.890613
C 149.416597 210.118999 149.110032 209.378885 148.564419 208.833271
C 148.018805 208.287658 147.278691 207.981093 146.507077 207.981093
C 145.735464 207.981093 144.995349 208.287658 144.449736 208.833271
C 143.904123 209.378885 143.597557 210.118999 143.597557 210.890613
C 143.597557 211.662226 143.904123 212.402341 144.449736 212.947954
C 144.995349 213.493567 145.735464 213.800133 146.507077 213.800133
z
" clip-path="url(#p1385a6674b)" style="fill: #457b9d; opacity: 0.8; stroke: #457b9d; stroke-linejoin: miter"/>
   </g>
   <g id="patch_11">
    <path d="M 121.113462 177.118896
C 121.885075 177.118896 122.62519 176.812331 123.170803 176.266717
C 123.716416 175.721104 124.022982 174.98099 124.022982 174.209376
C 124.022982 173.437762 123.716416 172.697648 123.170803 172.152035
C 122.62519 171.606422 121.885075 171.299856 121.113462 171.299856
C 120.341848 171.299856 119.601733 171.606422 119.05612 172.152035
C 118.510507 172.697648 118.203942 173.437762 118.203942 174.209376
C 118.203942 174.98099 118.510507 175.721104 119.05612 176.266717
C 119.601733 176.812331 120.341848 177.118896 121.113462 177.118896
z
" clip-path="url(#p1385a6674b)" style="fill: #457b9d; opacity: 0.8; stroke: #457b9d; stroke-linejoin: miter"/>
   </g>
   <g id="patch_12">
    <path d="M 142.584737 170.364875
C 143.356351 170.364875 144.096465 170.05831 144.642079 169.512697
C 145.187692 168.967083 145.494257 168.226969 145.494257 167.455355
C 145.494257 166.683742 145.187692 165.943627 144.642079 165.398014
C 144.096465 164.852401 143.356351 164.545835 142.584737 164.545835
C 141.813124 164.545835 141.073009 164.852401 140.527396 165.398014
C 139.981783 165.943627 139.675217 166.683742 139.675217 167.455355
C 139.675217 168.226969 139.981783 168.967083 140.527396 169.512697
C 141.073009 170.05831 141.813124 170.364875 142.584737 170.364875
z
" clip-path="url(#p1385a6674b)" style="fill: #457b9d; opacity: 0.8; stroke: #457b9d; stroke-linejoin: miter"/>
   </g>
   <g id="patch_13">
    <path d="M 65.475214 163.559713
C 66.246828 163.559713 66.986942 163.253148 67.532556 162.707535
C 68.078169 162.161921 68.384734 161.421807 68.384734 160.650193
C 68.384734 159.87858 68.078169 159.138465 67.532556 158.592852
C 66.986942 158.047239 66.246828 157.740673 65.475214 157.740673
C 64.703601 157.740673 63.963486 158.047239 63.417873 158.592852
C 62.87226 159.138465 62.565694 159.87858 62.565694 160.650193
C 62.565694 161.421807 62.87226 162.161921 63.417873 162.707535
C 63.963486 163.253148 64.703601 163.559713 65.475214 163.559713
z
" clip-path="url(#p1385a6674b)" style="fill: #457b9d; opacity: 0.8; stroke: #457b9d; stroke-linejoin: miter"/>
   </g>
   <g id="patch_14">
    <path d="M 152.684735 188.563242
C 153.456349 188.563242 154.196463 188.256676 154.742076 187.711063
C 155.28769 187.16545 155.594255 186.425335 155.594255 185.653722
C 155.594255 184.882108 155.28769 184.141994 154.742076 183.59638
C 154.196463 183.050767 153.456349 182.744202 152.684735 182.744202
C 151.913121 182.744202 151.173007 183.050767 150.627394 183.59638
C 150.08178 184.141994 149.775215 184.882108 149.775215 185.653722
C 149.775215 186.425335 150.08178 187.16545 150.627394 187.711063
C 151.173007 188.256676 151.913121 188.563242 152.684735 188.563242
z
" clip-path="url(#p1385a6674b)" style="fill: #457b9d; opacity: 0.8; stroke: #457b9d; stroke-linejoin: miter"/>
   </g>
   <g id="patch_15">
    <path d="M 139.815193 141.156915
C 140.586806 141.156915 141.326921 140.85035 141.872534 140.304737
C 142.418147 139.759123 142.724713 139.019009 142.724713 138.247395
C 142.724713 137.475782 142.418147 136.735667 141.872534 136.190054
C 141.326921 135.644441 140.586806 135.337875 139.815193 135.337875
C 139.043579 135.337875 138.303465 135.644441 137.757851 136.190054
C 137.212238 136.735667 136.905673 137.475782 136.905673 138.247395
C 136.905673 139.019009 137.212238 139.759123 137.757851 140.304737
C 138.303465 140.85035 139.043579 141.156915 139.815193 141.156915
z
" clip-path="url(#p1385a6674b)" style="fill: #457b9d; opacity: 0.8; stroke: #457b9d; stroke-linejoin: miter"/>
   </g>
   <g id="patch_16">
    <path d="M 89.868913 149.383216
C 90.640526 149.383216 91.380641 149.07665 91.926254 148.531037
C 92.471867 147.985424 92.778433 147.24531 92.778433 146.473696
C 92.778433 145.702082 92.471867 144.961968 91.926254 144.416355
C 91.380641 143.870741 90.640526 143.564176 89.868913 143.564176
C 89.097299 143.564176 88.357185 143.870741 87.811571 144.416355
C 87.265958 144.961968 86.959393 145.702082 86.959393 146.473696
C 86.959393 147.24531 87.265958 147.985424 87.811571 148.531037
C 88.357185 149.07665 89.097299 149.383216 89.868913 149.383216
z
" clip-path="url(#p1385a6674b)" style="fill: #457b9d; opacity: 0.8; stroke: #457b9d; stroke-linejoin: miter"/>
   </g>
   <g id="patch_17">
    <path d="M 46.690307 124.044879
C 47.461921 124.044879 48.202035 123.738314 48.747648 123.192701
C 49.293261 122.647087 49.599827 121.906973 49.599827 121.135359
C 49.599827 120.363746 49.293261 119.623631 48.747648 119.078018
C 48.202035 118.532405 47.461921 118.225839 46.690307 118.225839
C 45.918693 118.225839 45.178579 118.532405 44.632965 119.078018
C 44.087352 119.623631 43.780787 120.363746 43.780787 121.135359
C 43.780787 121.906973 44.087352 122.647087 44.632965 123.192701
C 45.178579 123.738314 45.918693 124.044879 46.690307 124.044879
z
" clip-path="url(#p1385a6674b)" style="fill: #457b9d; opacity: 0.8; stroke: #457b9d; stroke-linejoin: miter"/>
   </g>
   <g id="patch_18">
    <path d="M 29.135099 196.597776
C 29.906713 196.597776 30.646827 196.291211 31.192441 195.745597
C 31.738054 195.199984 32.044619 194.45987 32.044619 193.688256
C 32.044619 192.916642 31.738054 192.176528 31.192441 191.630915
C 30.646827 191.085302 29.906713 190.778736 29.135099 190.778736
C 28.363486 190.778736 27.623371 191.085302 27.077758 191.630915
C 26.532145 192.176528 26.225579 192.916642 26.225579 193.688256
C 26.225579 194.45987 26.532145 195.199984 27.077758 195.745597
C 27.623371 196.291211 28.363486 196.597776 29.135099 196.597776
z
" clip-path="url(#p1385a6674b)" style="fill: #457b9d; opacity: 0.8; stroke: #457b9d; stroke-linejoin: miter"/>
   </g>
   <g id="patch_19">
    <path d="M 115.633583 211.602516
C 116.405196 211.602516 117.145311 211.295951 117.690924 210.750337
C 118.236537 210.204724 118.543103 209.46461 118.543103 208.692996
C 118.543103 207.921382 118.236537 207.181268 117.690924 206.635655
C 117.145311 206.090042 116.405196 205.783476 115.633583 205.783476
C 114.861969 205.783476 114.121855 206.090042 113.576241 206.635655
C 113.030628 207.181268 112.724063 207.921382 112.724063 208.692996
C 112.724063 209.46461 113.030628 210.204724 113.576241 210.750337
C 114.121855 211.295951 114.861969 211.602516 115.633583 211.602516
z
" clip-path="url(#p1385a6674b)" style="fill: #457b9d; opacity: 0.8; stroke: #457b9d; stroke-linejoin: miter"/>
   </g>
   <g id="patch_20">
    <path d="M 49.263219 129.081913
C 50.034832 129.081913 50.774947 128.775347 51.32056 128.229734
C 51.866173 127.684121 52.172739 126.944007 52.172739 126.172393
C 52.172739 125.400779 51.866173 124.660665 51.32056 124.115051
C 50.774947 123.569438 50.034832 123.262873 49.263219 123.262873
C 48.491605 123.262873 47.751491 123.569438 47.205877 124.115051
C 46.660264 124.660665 46.353699 125.400779 46.353699 126.172393
C 46.353699 126.944007 46.660264 127.684121 47.205877 128.229734
C 47.751491 128.775347 48.491605 129.081913 49.263219 129.081913
z
" clip-path="url(#p1385a6674b)" style="fill: #457b9d; opacity: 0.8; stroke: #457b9d; stroke-linejoin: miter"/>
   </g>
   <g id="patch_21">
    <path d="M 103.866505 218.10391
C 104.638119 218.10391 105.378233 217.797344 105.923847 217.251731
C 106.46946 216.706118 106.776025 215.966004 106.776025 215.19439
C 106.776025 214.422776 106.46946 213.682662 105.923847 213.137048
C 105.378233 212.591435 104.638119 212.28487 103.866505 212.28487
C 103.094892 212.28487 102.354777 212.591435 101.809164 213.137048
C 101.263551 213.682662 100.956985 214.422776 100.956985 215.19439
C 100.956985 215.966004 101.263551 216.706118 101.809164 217.251731
C 102.354777 217.797344 103.094892 218.10391 103.866505 218.10391
z
" clip-path="url(#p1385a6674b)" style="fill: #457b9d; opacity: 0.8; stroke: #457b9d; stroke-linejoin: miter"/>
   </g>
   <g id="patch_22">
    <path d="M 110.635721 134.184583
C 111.407335 134.184583 112.147449 133.878018 112.693062 133.332405
C 113.238676 132.786791 113.545241 132.046677 113.545241 131.275063
C 113.545241 130.50345 113.238676 129.763335 112.693062 129.217722
C 112.147449 128.672109 111.407335 128.365543 110.635721 128.365543
C 109.864107 128.365543 109.123993 128.672109 108.57838 129.217722
C 108.032766 129.763335 107.726201 130.50345 107.726201 131.275063
C 107.726201 132.046677 108.032766 132.786791 108.57838 133.332405
C 109.123993 133.878018 109.864107 134.184583 110.635721 134.184583
z
" clip-path="url(#p1385a6674b)" style="fill: #457b9d; opacity: 0.8; stroke: #457b9d; stroke-linejoin: miter"/>
   </g>
   <g id="patch_23">
    <path d="M 55.886554 118.497369
C 56.658168 118.497369 57.398282 118.190803 57.943895 117.64519
C 58.489509 117.099577 58.796074 116.359462 58.796074 115.587849
C 58.796074 114.816235 58.489509 114.076121 57.943895 113.530507
C 57.398282 112.984894 56.658168 112.678329 55.886554 112.678329
C 55.11494 112.678329 54.374826 112.984894 53.829213 113.530507
C 53.283599 114.076121 52.977034 114.816235 52.977034 115.587849
C 52.977034 116.359462 53.283599 117.099577 53.829213 117.64519
C 54.374826 118.190803 55.11494 118.497369 55.886554 118.497369
z
" clip-path="url(#p1385a6674b)" style="fill: #457b9d; opacity: 0.8; stroke: #457b9d; stroke-linejoin: miter"/>
   </g>
   <g id="patch_24">
    <path d="M 26.230865 170.561616
C 27.002479 170.561616 27.742593 170.25505 28.288206 169.709437
C 28.83382 169.163824 29.140385 168.42371 29.140385 167.652096
C 29.140385 166.880482 28.83382 166.140368 28.288206 165.594755
C 27.742593 165.049141 27.002479 164.742576 26.230865 164.742576
C 25.459251 164.742576 24.719137 165.049141 24.173524 165.594755
C 23.627911 166.140368 23.321345 166.880482 23.321345 167.652096
C 23.321345 168.42371 23.627911 169.163824 24.173524 169.709437
C 24.719137 170.25505 25.459251 170.561616 26.230865 170.561616
z
" clip-path="url(#p1385a6674b)" style="fill: #457b9d; opacity: 0.8; stroke: #457b9d; stroke-linejoin: miter"/>
   </g>
   <g id="patch_25">
    <path d="M 116.136619 109.899487
C 116.908233 109.899487 117.648347 109.592921 118.193961 109.047308
C 118.739574 108.501695 119.046139 107.761581 119.046139 106.989967
C 119.046139 106.218353 118.739574 105.478239 118.193961 104.932626
C 117.648347 104.387012 116.908233 104.080447 116.136619 104.080447
C 115.365005 104.080447 114.624891 104.387012 114.079278 104.932626
C 113.533665 105.478239 113.227099 106.218353 113.227099 106.989967
C 113.227099 107.761581 113.533665 108.501695 114.079278 109.047308
C 114.624891 109.592921 115.365005 109.899487 116.136619 109.899487
z
" clip-path="url(#p1385a6674b)" style="fill: #457b9d; opacity: 0.8; stroke: #457b9d; stroke-linejoin: miter"/>
   </g>
   <g id="patch_26">
    <path d="M 42.765364 170.025266
C 43.536978 170.025266 44.277092 169.718701 44.822705 169.173088
C 45.368319 168.627474 45.674884 167.88736 45.674884 167.115746
C 45.674884 166.344133 45.368319 165.604018 44.822705 165.058405
C 44.277092 164.512792 43.536978 164.206226 42.765364 164.206226
C 41.99375 164.206226 41.253636 164.512792 40.708023 165.058405
C 40.162409 165.604018 39.855844 166.344133 39.855844 167.115746
C 39.855844 167.88736 40.162409 168.627474 40.708023 169.173088
C 41.253636 169.718701 41.99375 170.025266 42.765364 170.025266
z
" clip-path="url(#p1385a6674b)" style="fill: #457b9d; opacity: 0.8; stroke: #457b9d; stroke-linejoin: miter"/>
   </g>
   <g id="patch_27">
    <path d="M 143.996239 217.248198
C 144.767853 217.248198 145.507967 216.941633 146.053581 216.396019
C 146.599194 215.850406 146.905759 215.110292 146.905759 214.338678
C 146.905759 213.567064 146.599194 212.82695 146.053581 212.281337
C 145.507967 211.735723 144.767853 211.429158 143.996239 211.429158
C 143.224626 211.429158 142.484511 211.735723 141.938898 212.281337
C 141.393285 212.82695 141.086719 213.567064 141.086719 214.338678
C 141.086719 215.110292 141.393285 215.850406 141.938898 216.396019
C 142.484511 216.941633 143.224626 217.248198 143.996239 217.248198
z
" clip-path="url(#p1385a6674b)" style="fill: #457b9d; opacity: 0.8; stroke: #457b9d; stroke-linejoin: miter"/>
   </g>
   <g id="patch_28">
    <path d="M 37.401252 154.590115
C 38.172866 154.590115 38.91298 154.283549 39.458593 153.737936
C 40.004207 153.192323 40.310772 152.452209 40.310772 151.680595
C 40.310772 150.908981 40.004207 150.168867 39.458593 149.623253
C 38.91298 149.07764 38.172866 148.771075 37.401252 148.771075
C 36.629638 148.771075 35.889524 149.07764 35.343911 149.623253
C 34.798297 150.168867 34.491732 150.908981 34.491732 151.680595
C 34.491732 152.452209 34.798297 153.192323 35.343911 153.737936
C 35.889524 154.283549 36.629638 154.590115 37.401252 154.590115
z
" clip-path="url(#p1385a6674b)" style="fill: #457b9d; opacity: 0.8; stroke: #457b9d; stroke-linejoin: miter"/>
   </g>
   <g id="patch_29">
    <path d="M 99.969732 168.332177
C 100.741346 168.332177 101.48146 168.025612 102.027073 167.479998
C 102.572687 166.934385 102.879252 166.194271 102.879252 165.422657
C 102.879252 164.651043 102.572687 163.910929 102.027073 163.365316
C 101.48146 162.819702 100.741346 162.513137 99.969732 162.513137
C 99.198118 162.513137 98.458004 162.819702 97.912391 163.365316
C 97.366777 163.910929 97.060212 164.651043 97.060212 165.422657
C 97.060212 166.194271 97.366777 166.934385 97.912391 167.479998
C 98.458004 168.025612 99.198118 168.332177 99.969732 168.332177
z
" clip-path="url(#p1385a6674b)" style="fill: #457b9d; opacity: 0.8; stroke: #457b9d; stroke-linejoin: miter"/>
   </g>
   <g id="patch_30">
    <path d="M 148.905272 141.938592
C 149.676885 141.938592 150.417 141.632027 150.962613 141.086413
C 151.508226 140.5408 151.814792 139.800686 151.814792 139.029072
C 151.814792 138.257458 151.508226 137.517344 150.962613 136.971731
C 150.417 136.426117 149.676885 136.119552 148.905272 136.119552
C 148.133658 136.119552 147.393544 136.426117 146.84793 136.971731
C 146.302317 137.517344 145.995752 138.257458 145.995752 139.029072
C 145.995752 139.800686 146.302317 140.5408 146.84793 141.086413
C 147.393544 141.632027 148.133658 141.938592 148.905272 141.938592
z
" clip-path="url(#p1385a6674b)" style="fill: #457b9d; opacity: 0.8; stroke: #457b9d; stroke-linejoin: miter"/>
   </g>
   <g id="patch_31">
    <path d="M 106.488446 150.166701
C 107.260059 150.166701 108.000174 149.860136 108.545787 149.314523
C 109.0914 148.768909 109.397966 148.028795 109.397966 147.257181
C 109.397966 146.485568 109.0914 145.745453 108.545787 145.19984
C 108.000174 144.654227 107.260059 144.347661 106.488446 144.347661
C 105.716832 144.347661 104.976718 144.654227 104.431104 145.19984
C 103.885491 145.745453 103.578926 146.485568 103.578926 147.257181
C 103.578926 148.028795 103.885491 148.768909 104.431104 149.314523
C 104.976718 149.860136 105.716832 150.166701 106.488446 150.166701
z
" clip-path="url(#p1385a6674b)" style="fill: #457b9d; opacity: 0.8; stroke: #457b9d; stroke-linejoin: miter"/>
   </g>
   <g id="patch_32">
    <path d="M 43.537481 218.268721
C 44.309095 218.268721 45.049209 217.962155 45.594822 217.416542
C 46.140436 216.870929 46.447001 216.130814 46.447001 215.359201
C 46.447001 214.587587 46.140436 213.847473 45.594822 213.301859
C 45.049209 212.756246 44.309095 212.449681 43.537481 212.449681
C 42.765867 212.449681 42.025753 212.756246 41.48014 213.301859
C 40.934526 213.847473 40.627961 214.587587 40.627961 215.359201
C 40.627961 216.130814 40.934526 216.870929 41.48014 217.416542
C 42.025753 217.962155 42.765867 218.268721 43.537481 218.268721
z
" clip-path="url(#p1385a6674b)" style="fill: #457b9d; opacity: 0.8; stroke: #457b9d; stroke-linejoin: miter"/>
   </g>
   <g id="patch_33">
    <path d="M 173.930818 167.122979
C 174.702431 167.122979 175.442546 166.816413 175.988159 166.2708
C 176.533772 165.725187 176.840338 164.985072 176.840338 164.213459
C 176.840338 163.441845 176.533772 162.701731 175.988159 162.156117
C 175.442546 161.610504 174.702431 161.303939 173.930818 161.303939
C 173.159204 161.303939 172.41909 161.610504 171.873476 162.156117
C 171.327863 162.701731 171.021298 163.441845 171.021298 164.213459
C 171.021298 164.985072 171.327863 165.725187 171.873476 166.2708
C 172.41909 166.816413 173.159204 167.122979 173.930818 167.122979
z
" clip-path="url(#p1385a6674b)" style="fill: #457b9d; opacity: 0.8; stroke: #457b9d; stroke-linejoin: miter"/>
   </g>
   <g id="patch_34">
    <path d="M 121.244231 202.183976
C 122.015845 202.183976 122.755959 201.87741 123.301573 201.331797
C 123.847186 200.786184 124.153751 200.046069 124.153751 199.274456
C 124.153751 198.502842 123.847186 197.762728 123.301573 197.217114
C 122.755959 196.671501 122.015845 196.364936 121.244231 196.364936
C 120.472618 196.364936 119.732503 196.671501 119.18689 197.217114
C 118.641277 197.762728 118.334711 198.502842 118.334711 199.274456
C 118.334711 200.046069 118.641277 200.786184 119.18689 201.331797
C 119.732503 201.87741 120.472618 202.183976 121.244231 202.183976
z
" clip-path="url(#p1385a6674b)" style="fill: #457b9d; opacity: 0.8; stroke: #457b9d; stroke-linejoin: miter"/>
   </g>
   <g id="patch_35">
    <path d="M 86.467311 193.849942
C 87.238924 193.849942 87.979039 193.543376 88.524652 192.997763
C 89.070265 192.45215 89.376831 191.712036 89.376831 190.940422
C 89.376831 190.168808 89.070265 189.428694 88.524652 188.883081
C 87.979039 188.337467 87.238924 188.030902 86.467311 188.030902
C 85.695697 188.030902 84.955583 188.337467 84.409969 188.883081
C 83.864356 189.428694 83.557791 190.168808 83.557791 190.940422
C 83.557791 191.712036 83.864356 192.45215 84.409969 192.997763
C 84.955583 193.543376 85.695697 193.849942 86.467311 193.849942
z
" clip-path="url(#p1385a6674b)" style="fill: #457b9d; opacity: 0.8; stroke: #457b9d; stroke-linejoin: miter"/>
   </g>
   <g id="patch_36">
    <path d="M 61.374313 227.377797
C 62.145927 227.377797 62.886042 227.071232 63.431655 226.525618
C 63.977268 225.980005 64.283833 225.239891 64.283833 224.468277
C 64.283833 223.696663 63.977268 222.956549 63.431655 222.410936
C 62.886042 221.865322 62.145927 221.558757 61.374313 221.558757
C 60.6027 221.558757 59.862585 221.865322 59.316972 222.410936
C 58.771359 222.956549 58.464793 223.696663 58.464793 224.468277
C 58.464793 225.239891 58.771359 225.980005 59.316972 226.525618
C 59.862585 227.071232 60.6027 227.377797 61.374313 227.377797
z
" clip-path="url(#p1385a6674b)" style="fill: #457b9d; opacity: 0.8; stroke: #457b9d; stroke-linejoin: miter"/>
   </g>
   <g id="patch_37">
    <path d="M 159.520745 112.469417
C 160.292359 112.469417 161.032473 112.162852 161.578086 111.617238
C 162.1237 111.071625 162.430265 110.331511 162.430265 109.559897
C 162.430265 108.788283 162.1237 108.048169 161.578086 107.502556
C 161.032473 106.956942 160.292359 106.650377 159.520745 106.650377
C 158.749131 106.650377 158.009017 106.956942 157.463404 107.502556
C 156.917791 108.048169 156.611225 108.788283 156.611225 109.559897
C 156.611225 110.331511 156.917791 111.071625 157.463404 111.617238
C 158.009017 112.162852 158.749131 112.469417 159.520745 112.469417
z
" clip-path="url(#p1385a6674b)" style="fill: #457b9d; opacity: 0.8; stroke: #457b9d; stroke-linejoin: miter"/>
   </g>
   <g id="patch_38">
    <path d="M 87.140105 113.240951
C 87.911719 113.240951 88.651833 112.934385 89.197446 112.388772
C 89.743059 111.843159 90.049625 111.103044 90.049625 110.331431
C 90.049625 109.559817 89.743059 108.819703 89.197446 108.274089
C 88.651833 107.728476 87.911719 107.421911 87.140105 107.421911
C 86.368491 107.421911 85.628377 107.728476 85.082763 108.274089
C 84.53715 108.819703 84.230585 109.559817 84.230585 110.331431
C 84.230585 111.103044 84.53715 111.843159 85.082763 112.388772
C 85.628377 112.934385 86.368491 113.240951 87.140105 113.240951
z
" clip-path="url(#p1385a6674b)" style="fill: #457b9d; opacity: 0.8; stroke: #457b9d; stroke-linejoin: miter"/>
   </g>
   <g id="patch_39">
    <path d="M 41.766994 173.825559
C 42.538608 173.825559 43.278722 173.518993 43.824336 172.97338
C 44.369949 172.427767 44.676514 171.687652 44.676514 170.916039
C 44.676514 170.144425 44.369949 169.404311 43.824336 168.858697
C 43.278722 168.313084 42.538608 168.006519 41.766994 168.006519
C 40.995381 168.006519 40.255266 168.313084 39.709653 168.858697
C 39.16404 169.404311 38.857474 170.144425 38.857474 170.916039
C 38.857474 171.687652 39.16404 172.427767 39.709653 172.97338
C 40.255266 173.518993 40.995381 173.825559 41.766994 173.825559
z
" clip-path="url(#p1385a6674b)" style="fill: #457b9d; opacity: 0.8; stroke: #457b9d; stroke-linejoin: miter"/>
   </g>
   <g id="line2d_1">
    <path d="M 16.8984 167.544
L 191.4696 159.78528
" clip-path="url(#p1385a6674b)" style="fill: none; stroke: #e76f51; stroke-width: 2.4; stroke-linecap: square"/>
   </g>
   <g id="text_1">
    <text style="font-size: 9px; font-family: 'Hiragino Sans'; text-anchor: middle; fill: #64748b" x="104.184" y="256.76928" transform="rotate(-0 104.184 256.76928)">coherent + shearable</text>
   </g>
   <g id="text_2">
    <text style="font-weight: 700; font-size: 12px; font-family: 'Hiragino Sans'; text-anchor: middle; fill: #17324d" x="104.184" y="64.56" transform="rotate(-0 104.184 64.56)">A: GP zones</text>
   </g>
  </g>
  <g id="axes_2">
   <g id="patch_40">
    <path d="M 316.666596 171.477931
L 334.123716 171.477931
L 334.123716 168.374443
L 316.666596 168.374443
z
" clip-path="url(#p983fd88e0f)" style="fill: #2a9d8f; opacity: 0.9; stroke: #2a9d8f; stroke-linejoin: miter"/>
   </g>
   <g id="patch_41">
    <path d="M 325.395156 182.534107
C 328.738815 182.534107 331.945977 181.205657 334.310301 178.841333
C 336.674626 176.477009 338.003076 173.269847 338.003076 169.926187
C 338.003076 166.582528 336.674626 163.375366 334.310301 161.011042
C 331.945977 158.646717 328.738815 157.318267 325.395156 157.318267
C 322.051496 157.318267 318.844334 158.646717 316.48001 161.011042
C 314.115686 163.375366 312.787236 166.582528 312.787236 169.926187
C 312.787236 173.269847 314.115686 176.477009 316.48001 178.841333
C 318.844334 181.205657 322.051496 182.534107 325.395156 182.534107
L 325.395156 182.534107
z
" clip-path="url(#p983fd88e0f)" style="fill: none; opacity: 0.16; stroke: #2a9d8f; stroke-width: 5; stroke-linejoin: miter"/>
   </g>
   <g id="patch_42">
    <path d="M 399.529987 173.093942
L 416.987107 173.093942
L 416.987107 169.990454
L 399.529987 169.990454
z
" clip-path="url(#p983fd88e0f)" style="fill: #2a9d8f; opacity: 0.9; stroke: #2a9d8f; stroke-linejoin: miter"/>
   </g>
   <g id="patch_43">
    <path d="M 408.258547 184.150118
C 411.602207 184.150118 414.809369 182.821668 417.173693 180.457344
C 419.538017 178.09302 420.866467 174.885858 420.866467 171.542198
C 420.866467 168.198539 419.538017 164.991377 417.173693 162.627053
C 414.809369 160.262728 411.602207 158.934278 408.258547 158.934278
C 404.914888 158.934278 401.707726 160.262728 399.343402 162.627053
C 396.979077 164.991377 395.650627 168.198539 395.650627 171.542198
C 395.650627 174.885858 396.979077 178.09302 399.343402 180.457344
C 401.707726 182.821668 404.914888 184.150118 408.258547 184.150118
L 408.258547 184.150118
z
" clip-path="url(#p983fd88e0f)" style="fill: none; opacity: 0.16; stroke: #2a9d8f; stroke-width: 5; stroke-linejoin: miter"/>
   </g>
   <g id="patch_44">
    <path d="M 273.04684 145.16975
L 290.50396 145.16975
L 290.50396 142.066262
L 273.04684 142.066262
z
" clip-path="url(#p983fd88e0f)" style="fill: #2a9d8f; opacity: 0.9; stroke: #2a9d8f; stroke-linejoin: miter"/>
   </g>
   <g id="patch_45">
    <path d="M 281.7754 156.225926
C 285.11906 156.225926 288.326222 154.897476 290.690546 152.533152
C 293.05487 150.168827 294.38332 146.961665 294.38332 143.618006
C 294.38332 140.274346 293.05487 137.067184 290.690546 134.70286
C 288.326222 132.338536 285.11906 131.010086 281.7754 131.010086
C 278.431741 131.010086 275.224579 132.338536 272.860255 134.70286
C 270.49593 137.067184 269.16748 140.274346 269.16748 143.618006
C 269.16748 146.961665 270.49593 150.168827 272.860255 152.533152
C 275.224579 154.897476 278.431741 156.225926 281.7754 156.225926
L 281.7754 156.225926
z
" clip-path="url(#p983fd88e0f)" style="fill: none; opacity: 0.16; stroke: #2a9d8f; stroke-width: 5; stroke-linejoin: miter"/>
   </g>
   <g id="patch_46">
    <path d="M 350.484465 177.563339
L 367.941585 177.563339
L 367.941585 174.459851
L 350.484465 174.459851
z
" clip-path="url(#p983fd88e0f)" style="fill: #2a9d8f; opacity: 0.9; stroke: #2a9d8f; stroke-linejoin: miter"/>
   </g>
   <g id="patch_47">
    <path d="M 359.213025 188.619515
C 362.556684 188.619515 365.763846 187.291065 368.128171 184.926741
C 370.492495 182.562416 371.820945 179.355254 371.820945 176.011595
C 371.820945 172.667935 370.492495 169.460773 368.128171 167.096449
C 365.763846 164.732125 362.556684 163.403675 359.213025 163.403675
C 355.869365 163.403675 352.662203 164.732125 350.297879 167.096449
C 347.933555 169.460773 346.605105 172.667935 346.605105 176.011595
C 346.605105 179.355254 347.933555 182.562416 350.297879 184.926741
C 352.662203 187.291065 355.869365 188.619515 359.213025 188.619515
L 359.213025 188.619515
z
" clip-path="url(#p983fd88e0f)" style="fill: none; opacity: 0.16; stroke: #2a9d8f; stroke-width: 5; stroke-linejoin: miter"/>
   </g>
   <g id="patch_48">
    <path d="M 385.314282 164.724665
L 402.771402 164.724665
L 402.771402 161.621177
L 385.314282 161.621177
z
" clip-path="url(#p983fd88e0f)" style="fill: #2a9d8f; opacity: 0.9; stroke: #2a9d8f; stroke-linejoin: miter"/>
   </g>
   <g id="patch_49">
    <path d="M 394.042842 175.780841
C 397.386501 175.780841 400.593663 174.452391 402.957987 172.088067
C 405.322312 169.723743 406.650762 166.516581 406.650762 163.172921
C 406.650762 159.829262 405.322312 156.6221 402.957987 154.257775
C 400.593663 151.893451 397.386501 150.565001 394.042842 150.565001
C 390.699182 150.565001 387.49202 151.893451 385.127696 154.257775
C 382.763372 156.6221 381.434922 159.829262 381.434922 163.172921
C 381.434922 166.516581 382.763372 169.723743 385.127696 172.088067
C 387.49202 174.452391 390.699182 175.780841 394.042842 175.780841
L 394.042842 175.780841
z
" clip-path="url(#p983fd88e0f)" style="fill: none; opacity: 0.16; stroke: #2a9d8f; stroke-width: 5; stroke-linejoin: miter"/>
   </g>
   <g id="patch_50">
    <path d="M 321.403359 110.276435
L 338.860479 110.276435
L 338.860479 107.172947
L 321.403359 107.172947
z
" clip-path="url(#p983fd88e0f)" style="fill: #2a9d8f; opacity: 0.9; stroke: #2a9d8f; stroke-linejoin: miter"/>
   </g>
   <g id="patch_51">
    <path d="M 330.131919 121.332611
C 333.475578 121.332611 336.68274 120.004161 339.047064 117.639837
C 341.411389 115.275512 342.739839 112.06835 342.739839 108.724691
C 342.739839 105.381031 341.411389 102.17387 339.047064 99.809545
C 336.68274 97.445221 333.475578 96.116771 330.131919 96.116771
C 326.788259 96.116771 323.581097 97.445221 321.216773 99.809545
C 318.852449 102.17387 317.523999 105.381031 317.523999 108.724691
C 317.523999 112.06835 318.852449 115.275512 321.216773 117.639837
C 323.581097 120.004161 326.788259 121.332611 330.131919 121.332611
L 330.131919 121.332611
z
" clip-path="url(#p983fd88e0f)" style="fill: none; opacity: 0.16; stroke: #2a9d8f; stroke-width: 5; stroke-linejoin: miter"/>
   </g>
   <g id="patch_52">
    <path d="M 319.408228 124.69692
L 336.865348 124.69692
L 336.865348 121.593432
L 319.408228 121.593432
z
" clip-path="url(#p983fd88e0f)" style="fill: #2a9d8f; opacity: 0.9; stroke: #2a9d8f; stroke-linejoin: miter"/>
   </g>
   <g id="patch_53">
    <path d="M 328.136788 135.753096
C 331.480448 135.753096 334.68761 134.424646 337.051934 132.060321
C 339.416258 129.695997 340.744708 126.488835 340.744708 123.145176
C 340.744708 119.801516 339.416258 116.594354 337.051934 114.23003
C 334.68761 111.865705 331.480448 110.537256 328.136788 110.537256
C 324.793129 110.537256 321.585967 111.865705 319.221642 114.23003
C 316.857318 116.594354 315.528868 119.801516 315.528868 123.145176
C 315.528868 126.488835 316.857318 129.695997 319.221642 132.060321
C 321.585967 134.424646 324.793129 135.753096 328.136788 135.753096
L 328.136788 135.753096
z
" clip-path="url(#p983fd88e0f)" style="fill: none; opacity: 0.16; stroke: #2a9d8f; stroke-width: 5; stroke-linejoin: miter"/>
   </g>
   <g id="patch_54">
    <path d="M 353.917768 158.029337
L 371.374888 158.029337
L 371.374888 154.925849
L 353.917768 154.925849
z
" clip-path="url(#p983fd88e0f)" style="fill: #2a9d8f; opacity: 0.9; stroke: #2a9d8f; stroke-linejoin: miter"/>
   </g>
   <g id="patch_55">
    <path d="M 362.646328 169.085513
C 365.989988 169.085513 369.19715 167.757063 371.561474 165.392739
C 373.925798 163.028414 375.254248 159.821253 375.254248 156.477593
C 375.254248 153.133934 373.925798 149.926772 371.561474 147.562447
C 369.19715 145.198123 365.989988 143.869673 362.646328 143.869673
C 359.302669 143.869673 356.095507 145.198123 353.731182 147.562447
C 351.366858 149.926772 350.038408 153.133934 350.038408 156.477593
C 350.038408 159.821253 351.366858 163.028414 353.731182 165.392739
C 356.095507 167.757063 359.302669 169.085513 362.646328 169.085513
L 362.646328 169.085513
z
" clip-path="url(#p983fd88e0f)" style="fill: none; opacity: 0.16; stroke: #2a9d8f; stroke-width: 5; stroke-linejoin: miter"/>
   </g>
   <g id="patch_56">
    <path d="M 409.097424 103.311224
L 426.554544 103.311224
L 426.554544 100.207736
L 409.097424 100.207736
z
" clip-path="url(#p983fd88e0f)" style="fill: #2a9d8f; opacity: 0.9; stroke: #2a9d8f; stroke-linejoin: miter"/>
   </g>
   <g id="patch_57">
    <path d="M 417.825984 114.3674
C 421.169643 114.3674 424.376805 113.03895 426.741129 110.674626
C 429.105454 108.310302 430.433904 105.10314 430.433904 101.75948
C 430.433904 98.415821 429.105454 95.208659 426.741129 92.844335
C 424.376805 90.48001 421.169643 89.15156 417.825984 89.15156
C 414.482324 89.15156 411.275162 90.48001 408.910838 92.844335
C 406.546514 95.208659 405.218064 98.415821 405.218064 101.75948
C 405.218064 105.10314 406.546514 108.310302 408.910838 110.674626
C 411.275162 113.03895 414.482324 114.3674 417.825984 114.3674
L 417.825984 114.3674
z
" clip-path="url(#p983fd88e0f)" style="fill: none; opacity: 0.16; stroke: #2a9d8f; stroke-width: 5; stroke-linejoin: miter"/>
   </g>
   <g id="patch_58">
    <path d="M 260.493764 145.309052
L 277.950884 145.309052
L 277.950884 142.205564
L 260.493764 142.205564
z
" clip-path="url(#p983fd88e0f)" style="fill: #2a9d8f; opacity: 0.9; stroke: #2a9d8f; stroke-linejoin: miter"/>
   </g>
   <g id="patch_59">
    <path d="M 269.222324 156.365228
C 272.565984 156.365228 275.773146 155.036778 278.13747 152.672453
C 280.501794 150.308129 281.830244 147.100967 281.830244 143.757308
C 281.830244 140.413648 280.501794 137.206486 278.13747 134.842162
C 275.773146 132.477838 272.565984 131.149388 269.222324 131.149388
C 265.878665 131.149388 262.671503 132.477838 260.307178 134.842162
C 257.942854 137.206486 256.614404 140.413648 256.614404 143.757308
C 256.614404 147.100967 257.942854 150.308129 260.307178 152.672453
C 262.671503 155.036778 265.878665 156.365228 269.222324 156.365228
L 269.222324 156.365228
z
" clip-path="url(#p983fd88e0f)" style="fill: none; opacity: 0.16; stroke: #2a9d8f; stroke-width: 5; stroke-linejoin: miter"/>
   </g>
   <g id="patch_60">
    <path d="M 279.730037 102.135876
L 297.187157 102.135876
L 297.187157 99.032388
L 279.730037 99.032388
z
" clip-path="url(#p983fd88e0f)" style="fill: #2a9d8f; opacity: 0.9; stroke: #2a9d8f; stroke-linejoin: miter"/>
   </g>
   <g id="patch_61">
    <path d="M 288.458597 113.192052
C 291.802257 113.192052 295.009419 111.863602 297.373743 109.499277
C 299.738067 107.134953 301.066517 103.927791 301.066517 100.584132
C 301.066517 97.240472 299.738067 94.03331 297.373743 91.668986
C 295.009419 89.304662 291.802257 87.976212 288.458597 87.976212
C 285.114938 87.976212 281.907776 89.304662 279.543452 91.668986
C 277.179127 94.03331 275.850677 97.240472 275.850677 100.584132
C 275.850677 103.927791 277.179127 107.134953 279.543452 109.499277
C 281.907776 111.863602 285.114938 113.192052 288.458597 113.192052
L 288.458597 113.192052
z
" clip-path="url(#p983fd88e0f)" style="fill: none; opacity: 0.16; stroke: #2a9d8f; stroke-width: 5; stroke-linejoin: miter"/>
   </g>
   <g id="patch_62">
    <path d="M 311.84572 121.02494
L 329.30284 121.02494
L 329.30284 117.921452
L 311.84572 117.921452
z
" clip-path="url(#p983fd88e0f)" style="fill: #2a9d8f; opacity: 0.9; stroke: #2a9d8f; stroke-linejoin: miter"/>
   </g>
   <g id="patch_63">
    <path d="M 320.57428 132.081116
C 323.917939 132.081116 327.125101 130.752666 329.489426 128.388342
C 331.85375 126.024018 333.1822 122.816856 333.1822 119.473196
C 333.1822 116.129537 331.85375 112.922375 329.489426 110.558051
C 327.125101 108.193726 323.917939 106.865276 320.57428 106.865276
C 317.23062 106.865276 314.023458 108.193726 311.659134 110.558051
C 309.29481 112.922375 307.96636 116.129537 307.96636 119.473196
C 307.96636 122.816856 309.29481 126.024018 311.659134 128.388342
C 314.023458 130.752666 317.23062 132.081116 320.57428 132.081116
L 320.57428 132.081116
z
" clip-path="url(#p983fd88e0f)" style="fill: none; opacity: 0.16; stroke: #2a9d8f; stroke-width: 5; stroke-linejoin: miter"/>
   </g>
   <g id="patch_64">
    <path d="M 318.241703 183.26063
L 335.698823 183.26063
L 335.698823 180.157142
L 318.241703 180.157142
z
" clip-path="url(#p983fd88e0f)" style="fill: #2a9d8f; opacity: 0.9; stroke: #2a9d8f; stroke-linejoin: miter"/>
   </g>
   <g id="patch_65">
    <path d="M 326.970263 194.316806
C 330.313923 194.316806 333.521085 192.988356 335.885409 190.624032
C 338.249733 188.259708 339.578183 185.052546 339.578183 181.708886
C 339.578183 178.365227 338.249733 175.158065 335.885409 172.79374
C 333.521085 170.429416 330.313923 169.100966 326.970263 169.100966
C 323.626604 169.100966 320.419442 170.429416 318.055118 172.79374
C 315.690793 175.158065 314.362343 178.365227 314.362343 181.708886
C 314.362343 185.052546 315.690793 188.259708 318.055118 190.624032
C 320.419442 192.988356 323.626604 194.316806 326.970263 194.316806
L 326.970263 194.316806
z
" clip-path="url(#p983fd88e0f)" style="fill: none; opacity: 0.16; stroke: #2a9d8f; stroke-width: 5; stroke-linejoin: miter"/>
   </g>
   <g id="patch_66">
    <path d="M 384.661551 187.338045
L 402.118671 187.338045
L 402.118671 184.234557
L 384.661551 184.234557
z
" clip-path="url(#p983fd88e0f)" style="fill: #2a9d8f; opacity: 0.9; stroke: #2a9d8f; stroke-linejoin: miter"/>
   </g>
   <g id="patch_67">
    <path d="M 393.390111 198.394221
C 396.73377 198.394221 399.940932 197.065771 402.305257 194.701447
C 404.669581 192.337123 405.998031 189.129961 405.998031 185.786301
C 405.998031 182.442642 404.669581 179.23548 402.305257 176.871156
C 399.940932 174.506831 396.73377 173.178381 393.390111 173.178381
C 390.046451 173.178381 386.839289 174.506831 384.474965 176.871156
C 382.110641 179.23548 380.782191 182.442642 380.782191 185.786301
C 380.782191 189.129961 382.110641 192.337123 384.474965 194.701447
C 386.839289 197.065771 390.046451 198.394221 393.390111 198.394221
L 393.390111 198.394221
z
" clip-path="url(#p983fd88e0f)" style="fill: none; opacity: 0.16; stroke: #2a9d8f; stroke-width: 5; stroke-linejoin: miter"/>
   </g>
   <g id="patch_68">
    <path d="M 341.52399 106.519361
L 358.98111 106.519361
L 358.98111 103.415873
L 341.52399 103.415873
z
" clip-path="url(#p983fd88e0f)" style="fill: #2a9d8f; opacity: 0.9; stroke: #2a9d8f; stroke-linejoin: miter"/>
   </g>
   <g id="patch_69">
    <path d="M 350.25255 117.575537
C 353.59621 117.575537 356.803372 116.247087 359.167696 113.882762
C 361.532021 111.518438 362.86047 108.311276 362.86047 104.967617
C 362.86047 101.623957 361.532021 98.416795 359.167696 96.052471
C 356.803372 93.688147 353.59621 92.359697 350.25255 92.359697
C 346.908891 92.359697 343.701729 93.688147 341.337405 96.052471
C 338.97308 98.416795 337.64463 101.623957 337.64463 104.967617
C 337.64463 108.311276 338.97308 111.518438 341.337405 113.882762
C 343.701729 116.247087 346.908891 117.575537 350.25255 117.575537
L 350.25255 117.575537
z
" clip-path="url(#p983fd88e0f)" style="fill: none; opacity: 0.16; stroke: #2a9d8f; stroke-width: 5; stroke-linejoin: miter"/>
   </g>
   <g id="patch_70">
    <path d="M 411.625308 146.772988
L 429.082428 146.772988
L 429.082428 143.6695
L 411.625308 143.6695
z
" clip-path="url(#p983fd88e0f)" style="fill: #2a9d8f; opacity: 0.9; stroke: #2a9d8f; stroke-linejoin: miter"/>
   </g>
   <g id="patch_71">
    <path d="M 420.353868 157.829164
C 423.697527 157.829164 426.904689 156.500714 429.269014 154.13639
C 431.633338 151.772065 432.961788 148.564903 432.961788 145.221244
C 432.961788 141.877584 431.633338 138.670422 429.269014 136.306098
C 426.904689 133.941774 423.697527 132.613324 420.353868 132.613324
C 417.010208 132.613324 413.803046 133.941774 411.438722 136.306098
C 409.074398 138.670422 407.745948 141.877584 407.745948 145.221244
C 407.745948 148.564903 409.074398 151.772065 411.438722 154.13639
C 413.803046 156.500714 417.010208 157.829164 420.353868 157.829164
L 420.353868 157.829164
z
" clip-path="url(#p983fd88e0f)" style="fill: none; opacity: 0.16; stroke: #2a9d8f; stroke-width: 5; stroke-linejoin: miter"/>
   </g>
   <g id="patch_72">
    <path d="M 396.856914 114.077641
L 414.314034 114.077641
L 414.314034 110.974153
L 396.856914 110.974153
z
" clip-path="url(#p983fd88e0f)" style="fill: #2a9d8f; opacity: 0.9; stroke: #2a9d8f; stroke-linejoin: miter"/>
   </g>
   <g id="patch_73">
    <path d="M 405.585474 125.133817
C 408.929133 125.133817 412.136295 123.805367 414.50062 121.441043
C 416.864944 119.076719 418.193394 115.869557 418.193394 112.525897
C 418.193394 109.182238 416.864944 105.975076 414.50062 103.610752
C 412.136295 101.246427 408.929133 99.917977 405.585474 99.917977
C 402.241815 99.917977 399.034653 101.246427 396.670328 103.610752
C 394.306004 105.975076 392.977554 109.182238 392.977554 112.525897
C 392.977554 115.869557 394.306004 119.076719 396.670328 121.441043
C 399.034653 123.805367 402.241815 125.133817 405.585474 125.133817
L 405.585474 125.133817
z
" clip-path="url(#p983fd88e0f)" style="fill: none; opacity: 0.16; stroke: #2a9d8f; stroke-width: 5; stroke-linejoin: miter"/>
   </g>
   <g id="patch_74">
    <path d="M 279.721852 217.43931
L 297.178972 217.43931
L 297.178972 214.335822
L 279.721852 214.335822
z
" clip-path="url(#p983fd88e0f)" style="fill: #2a9d8f; opacity: 0.9; stroke: #2a9d8f; stroke-linejoin: miter"/>
   </g>
   <g id="patch_75">
    <path d="M 288.450412 228.495486
C 291.794072 228.495486 295.001234 227.167036 297.365558 224.802712
C 299.729882 222.438387 301.058332 219.231225 301.058332 215.887566
C 301.058332 212.543906 299.729882 209.336744 297.365558 206.97242
C 295.001234 204.608096 291.794072 203.279646 288.450412 203.279646
C 285.106753 203.279646 281.899591 204.608096 279.535266 206.97242
C 277.170942 209.336744 275.842492 212.543906 275.842492 215.887566
C 275.842492 219.231225 277.170942 222.438387 279.535266 224.802712
C 281.899591 227.167036 285.106753 228.495486 288.450412 228.495486
L 288.450412 228.495486
z
" clip-path="url(#p983fd88e0f)" style="fill: none; opacity: 0.16; stroke: #2a9d8f; stroke-width: 5; stroke-linejoin: miter"/>
   </g>
   <g id="line2d_2">
    <path d="M 257.1984 175.30272
L 431.7696 152.02656
" clip-path="url(#p983fd88e0f)" style="fill: none; stroke: #e76f51; stroke-width: 2.4; stroke-linecap: square"/>
   </g>
   <g id="text_3">
    <text style="font-size: 9px; font-family: 'Hiragino Sans'; text-anchor: middle; fill: #64748b" x="344.484" y="256.76928" transform="rotate(-0 344.484 256.76928)">strain field + cutting</text>
   </g>
   <g id="text_4">
    <text style="font-weight: 700; font-size: 12px; font-family: 'Hiragino Sans'; text-anchor: middle; fill: #17324d" x="344.484" y="64.56" transform="rotate(-0 344.484 64.56)">B: GP2 / θ″</text>
   </g>
  </g>
  <g id="axes_3">
   <g id="patch_76">
    <path d="M 522.71424 168.51384
C 525.54349 168.51384 528.257243 167.389767 530.257825 165.389185
C 532.258407 163.388603 533.38248 160.67485 533.38248 157.8456
C 533.38248 155.01635 532.258407 152.302597 530.257825 150.302015
C 528.257243 148.301433 525.54349 147.17736 522.71424 147.17736
C 519.88499 147.17736 517.171237 148.301433 515.170655 150.302015
C 513.170073 152.302597 512.046 155.01635 512.046 157.8456
C 512.046 160.67485 513.170073 163.388603 515.170655 165.389185
C 517.171237 167.389767 519.88499 168.51384 522.71424 168.51384
z
" clip-path="url(#p0685b3c5c3)" style="fill: #e9c46a; stroke: #17324d; stroke-width: 1.2; stroke-linejoin: miter"/>
   </g>
   <g id="patch_77">
    <path d="M 569.26656 168.51384
C 572.09581 168.51384 574.809563 167.389767 576.810145 165.389185
C 578.810727 163.388603 579.9348 160.67485 579.9348 157.8456
C 579.9348 155.01635 578.810727 152.302597 576.810145 150.302015
C 574.809563 148.301433 572.09581 147.17736 569.26656 147.17736
C 566.43731 147.17736 563.723557 148.301433 561.722975 150.302015
C 559.722393 152.302597 558.59832 155.01635 558.59832 157.8456
C 558.59832 160.67485 559.722393 163.388603 561.722975 165.389185
C 563.723557 167.389767 566.43731 168.51384 569.26656 168.51384
z
" clip-path="url(#p0685b3c5c3)" style="fill: #e9c46a; stroke: #17324d; stroke-width: 1.2; stroke-linejoin: miter"/>
   </g>
   <g id="patch_78">
    <path d="M 617.75856 168.51384
C 620.58781 168.51384 623.301563 167.389767 625.302145 165.389185
C 627.302727 163.388603 628.4268 160.67485 628.4268 157.8456
C 628.4268 155.01635 627.302727 152.302597 625.302145 150.302015
C 623.301563 148.301433 620.58781 147.17736 617.75856 147.17736
C 614.92931 147.17736 612.215557 148.301433 610.214975 150.302015
C 608.214393 152.302597 607.09032 155.01635 607.09032 157.8456
C 607.09032 160.67485 608.214393 163.388603 610.214975 165.389185
C 612.215557 167.389767 614.92931 168.51384 617.75856 168.51384
z
" clip-path="url(#p0685b3c5c3)" style="fill: #e9c46a; stroke: #17324d; stroke-width: 1.2; stroke-linejoin: miter"/>
   </g>
   <g id="patch_79">
    <path d="M 658.49184 168.51384
C 661.32109 168.51384 664.034843 167.389767 666.035425 165.389185
C 668.036007 163.388603 669.16008 160.67485 669.16008 157.8456
C 669.16008 155.01635 668.036007 152.302597 666.035425 150.302015
C 664.034843 148.301433 661.32109 147.17736 658.49184 147.17736
C 655.66259 147.17736 652.948837 148.301433 650.948255 150.302015
C 648.947673 152.302597 647.8236 155.01635 647.8236 157.8456
C 647.8236 160.67485 648.947673 163.388603 650.948255 165.389185
C 652.948837 167.389767 655.66259 168.51384 658.49184 168.51384
z
" clip-path="url(#p0685b3c5c3)" style="fill: #e9c46a; stroke: #17324d; stroke-width: 1.2; stroke-linejoin: miter"/>
   </g>
   <g id="line2d_3">
    <path d="M 533.38248 183.933315
L 533.701668 184.202693
L 534.020856 184.462541
L 534.340044 184.713137
L 534.659231 184.954737
L 534.978419 185.187579
L 535.297607 185.411885
L 535.616795 185.627863
L 535.935983 185.835704
L 536.255171 186.035588
L 536.574358 186.227685
L 536.893546 186.41215
L 537.212734 186.589131
L 537.531922 186.758766
L 537.85111 186.921182
L 538.170298 187.076501
L 538.489486 187.224834
L 538.808673 187.366287
L 539.127861 187.500959
L 539.447049 187.628942
L 539.766237 187.75032
L 540.085425 187.865176
L 540.404613 187.973582
L 540.723801 188.075609
L 541.042988 188.17132
L 541.362176 188.260777
L 541.681364 188.344032
L 542.000552 188.421138
L 542.31974 188.492141
L 542.638928 188.557082
L 542.958115 188.616001
L 543.277303 188.668931
L 543.596491 188.715904
L 543.915679 188.756947
L 544.234867 188.792084
L 544.554055 188.821333
L 544.873243 188.844713
L 545.19243 188.862237
L 545.511618 188.873914
L 545.830806 188.87975
L 546.149994 188.87975
L 546.469182 188.873914
L 546.78837 188.862237
L 547.107557 188.844713
L 547.426745 188.821333
L 547.745933 188.792084
L 548.065121 188.756947
L 548.384309 188.715904
L 548.703497 188.668931
L 549.022685 188.616001
L 549.341872 188.557082
L 549.66106 188.492141
L 549.980248 188.421138
L 550.299436 188.344032
L 550.618624 188.260777
L 550.937812 188.17132
L 551.256999 188.075609
L 551.576187 187.973582
L 551.895375 187.865176
L 552.214563 187.75032
L 552.533751 187.628942
L 552.852939 187.500959
L 553.172127 187.366287
L 553.491314 187.224834
L 553.810502 187.076501
L 554.12969 186.921182
L 554.448878 186.758766
L 554.768066 186.589131
L 555.087254 186.41215
L 555.406442 186.227685
L 555.725629 186.035588
L 556.044817 185.835704
L 556.364005 185.627863
L 556.683193 185.411885
L 557.002381 185.187579
L 557.321569 184.954737
L 557.640756 184.713137
L 557.959944 184.462541
L 558.279132 184.202693
L 558.59832 183.933315
" clip-path="url(#p0685b3c5c3)" style="fill: none; stroke: #e76f51; stroke-width: 2.3; stroke-linecap: square"/>
   </g>
   <g id="line2d_4">
    <path d="M 579.9348 183.557769
L 580.278541 183.849746
L 580.622282 184.131117
L 580.966022 184.40222
L 581.309763 184.663365
L 581.653504 184.91484
L 581.997245 185.156914
L 582.340985 185.389833
L 582.684726 185.613828
L 583.028467 185.829114
L 583.372208 186.03589
L 583.715948 186.234341
L 584.059689 186.424642
L 584.40343 186.606954
L 584.747171 186.781428
L 585.090911 186.948205
L 585.434652 187.107417
L 585.778393 187.259186
L 586.122134 187.403627
L 586.465874 187.540848
L 586.809615 187.670947
L 587.153356 187.794018
L 587.497097 187.910147
L 587.840837 188.019413
L 588.184578 188.121892
L 588.528319 188.217652
L 588.87206 188.306757
L 589.215801 188.389264
L 589.559541 188.465227
L 589.903282 188.534695
L 590.247023 188.597711
L 590.590764 188.654315
L 590.934504 188.704543
L 591.278245 188.748425
L 591.621986 188.785989
L 591.965727 188.817258
L 592.309467 188.84225
L 592.653208 188.860981
L 592.996949 188.873462
L 593.34069 188.8797
L 593.68443 188.8797
L 594.028171 188.873462
L 594.371912 188.860981
L 594.715653 188.84225
L 595.059393 188.817258
L 595.403134 188.785989
L 595.746875 188.748425
L 596.090616 188.704543
L 596.434356 188.654315
L 596.778097 188.597711
L 597.121838 188.534695
L 597.465579 188.465227
L 597.809319 188.389264
L 598.15306 188.306757
L 598.496801 188.217652
L 598.840542 188.121892
L 599.184283 188.019413
L 599.528023 187.910147
L 599.871764 187.794018
L 600.215505 187.670947
L 600.559246 187.540848
L 600.902986 187.403627
L 601.246727 187.259186
L 601.590468 187.107417
L 601.934209 186.948205
L 602.277949 186.781428
L 602.62169 186.606954
L 602.965431 186.424642
L 603.309172 186.234341
L 603.652912 186.03589
L 603.996653 185.829114
L 604.340394 185.613828
L 604.684135 185.389833
L 605.027875 185.156914
L 605.371616 184.91484
L 605.715357 184.663365
L 606.059098 184.40222
L 606.402838 184.131117
L 606.746579 183.849746
L 607.09032 183.557769
" clip-path="url(#p0685b3c5c3)" style="fill: none; stroke: #e76f51; stroke-width: 2.3; stroke-linecap: square"/>
   </g>
   <g id="line2d_5">
    <path d="M 628.4268 185.135878
L 628.672329 185.335194
L 628.917858 185.528018
L 629.163387 185.714486
L 629.408916 185.894725
L 629.654446 186.068854
L 629.899975 186.236985
L 630.145504 186.399224
L 630.391033 186.555671
L 630.636562 186.706421
L 630.882091 186.851561
L 631.12762 186.991177
L 631.373149 187.125347
L 631.618678 187.254145
L 631.864208 187.377642
L 632.109737 187.495904
L 632.355266 187.608993
L 632.600795 187.716969
L 632.846324 187.819886
L 633.091853 187.917796
L 633.337382 188.010749
L 633.582911 188.098789
L 633.828441 188.18196
L 634.07397 188.260302
L 634.319499 188.333851
L 634.565028 188.402643
L 634.810557 188.466709
L 635.056086 188.52608
L 635.301615 188.580781
L 635.547144 188.630839
L 635.792673 188.676275
L 636.038203 188.717111
L 636.283732 188.753364
L 636.529261 188.785051
L 636.77479 188.812185
L 637.020319 188.834778
L 637.265848 188.852841
L 637.511377 188.866382
L 637.756906 188.875405
L 638.002435 188.879916
L 638.247965 188.879916
L 638.493494 188.875405
L 638.739023 188.866382
L 638.984552 188.852841
L 639.230081 188.834778
L 639.47561 188.812185
L 639.721139 188.785051
L 639.966668 188.753364
L 640.212197 188.717111
L 640.457727 188.676275
L 640.703256 188.630839
L 640.948785 188.580781
L 641.194314 188.52608
L 641.439843 188.466709
L 641.685372 188.402643
L 641.930901 188.333851
L 642.17643 188.260302
L 642.421959 188.18196
L 642.667489 188.098789
L 642.913018 188.010749
L 643.158547 187.917796
L 643.404076 187.819886
L 643.649605 187.716969
L 643.895134 187.608993
L 644.140663 187.495904
L 644.386192 187.377642
L 644.631722 187.254145
L 644.877251 187.125347
L 645.12278 186.991177
L 645.368309 186.851561
L 645.613838 186.706421
L 645.859367 186.555671
L 646.104896 186.399224
L 646.350425 186.236985
L 646.595954 186.068854
L 646.841484 185.894725
L 647.087013 185.714486
L 647.332542 185.528018
L 647.578071 185.335194
L 647.8236 185.135878
" clip-path="url(#p0685b3c5c3)" style="fill: none; stroke: #e76f51; stroke-width: 2.3; stroke-linecap: square"/>
   </g>
   <g id="text_5">
    <text style="font-size: 9px; font-family: 'Hiragino Sans'; text-anchor: middle; fill: #64748b" x="584.784" y="256.76928" transform="rotate(-0 584.784 256.76928)">fine obstacles + bypass</text>
   </g>
   <g id="patch_80">
    <path d="M 594.065701 217.756988
Q 593.350595 202.376685 592.687416 188.113208
" style="fill: none; stroke: #000000; stroke-linecap: round"/>
    <path d="M 590.875354 192.201781
L 592.687416 188.113208
L 594.871037 192.016002
" style="fill: none; stroke: #000000; stroke-linecap: round"/>
   </g>
   <g id="text_6">
    <text style="font-size: 10px; font-family: 'Hiragino Sans'; text-anchor: middle; fill: #17324d" x="594.4824" y="229.61376" transform="rotate(-0 594.4824 229.61376)">Orowan bowing</text>
   </g>
   <g id="text_7">
    <text style="font-weight: 700; font-size: 12px; font-family: 'Hiragino Sans'; text-anchor: middle; fill: #17324d" x="584.784" y="64.56" transform="rotate(-0 584.784 64.56)">C: near peak</text>
   </g>
  </g>
  <g id="axes_4">
   <g id="patch_81">
    <path d="M 766.8936 175.30272
C 773.06651 175.30272 778.987424 172.850197 783.352331 168.485291
C 787.717237 164.120384 790.16976 158.19947 790.16976 152.02656
C 790.16976 145.85365 787.717237 139.932736 783.352331 135.567829
C 778.987424 131.202923 773.06651 128.7504 766.8936 128.7504
C 760.72069 128.7504 754.799776 131.202923 750.434869 135.567829
C 746.069963 139.932736 743.61744 145.85365 743.61744 152.02656
C 743.61744 158.19947 746.069963 164.120384 750.434869 168.485291
C 754.799776 172.850197 760.72069 175.30272 766.8936 175.30272
z
" clip-path="url(#pddca0d39d2)" style="fill: #f4a261; stroke: #17324d; stroke-width: 1.2; stroke-linejoin: miter"/>
   </g>
   <g id="patch_82">
    <path d="M 873.576 198.57888
C 880.777728 198.57888 887.685462 195.717603 892.777852 190.625212
C 897.870243 185.532822 900.73152 178.625088 900.73152 171.42336
C 900.73152 164.221632 897.870243 157.313898 892.777852 152.221508
C 887.685462 147.129117 880.777728 144.26784 873.576 144.26784
C 866.374272 144.26784 859.466538 147.129117 854.374148 152.221508
C 849.281757 157.313898 846.42048 164.221632 846.42048 171.42336
C 846.42048 178.625088 849.281757 185.532822 854.374148 190.625212
C 859.466538 195.717603 866.374272 198.57888 873.576 198.57888
z
" clip-path="url(#pddca0d39d2)" style="fill: #f4a261; stroke: #17324d; stroke-width: 1.2; stroke-linejoin: miter"/>
   </g>
   <g id="line2d_6">
    <path d="M 733.91904 208.27728
L 912.3696 186.9408
" clip-path="url(#pddca0d39d2)" style="fill: none; stroke: #e76f51; stroke-width: 2.3; stroke-linecap: square"/>
   </g>
   <g id="text_8">
    <text style="font-size: 9px; font-family: 'Hiragino Sans'; text-anchor: middle; fill: #64748b" x="825.084" y="256.76928" transform="rotate(-0 825.084 256.76928)">coarse + wide spacing</text>
   </g>
   <g id="patch_83">
    <path d="M 820.691099 224.496698
Q 820.057762 212.125402 819.424425 199.754105
" style="fill: none; stroke: #000000; stroke-linecap: round"/>
    <path d="M 822.483975 220.399675
L 820.691099 224.496698
L 818.489206 220.604184
" style="fill: none; stroke: #000000; stroke-linecap: round"/>
    <path d="M 817.631549 203.851128
L 819.424425 199.754105
L 821.626318 203.64662
" style="fill: none; stroke: #000000; stroke-linecap: round"/>
   </g>
   <g id="text_9">
    <text style="font-size: 10px; font-family: 'Hiragino Sans'; text-anchor: middle; fill: #17324d" x="821.20464" y="237.37248" transform="rotate(-0 821.20464 237.37248)">large λ</text>
   </g>
   <g id="text_10">
    <text style="font-weight: 700; font-size: 12px; font-family: 'Hiragino Sans'; text-anchor: middle; fill: #17324d" x="825.084" y="64.56" transform="rotate(-0 825.084 64.56)">D: over-ageing</text>
   </g>
  </g>
  <g id="text_11">
   <text style="font-weight: 700; font-size: 15px; font-family: 'Hiragino Sans'; text-anchor: middle; fill: #17324d" x="464.634" y="19.125" transform="rotate(-0 464.634 19.125)">Precipitate evolution and dislocation interaction</text>
  </g>
 </g>
 <defs>
  <clipPath id="p1385a6674b">
   <rect x="7.2" y="70.56" width="193.968" height="193.968"/>
  </clipPath>
  <clipPath id="p983fd88e0f">
   <rect x="247.5" y="70.56" width="193.968" height="193.968"/>
  </clipPath>
  <clipPath id="p0685b3c5c3">
   <rect x="487.8" y="70.56" width="193.968" height="193.968"/>
  </clipPath>
  <clipPath id="pddca0d39d2">
   <rect x="728.1" y="70.56" width="193.968" height="193.968"/>
  </clipPath>
 </defs>
</svg>
