<?xml version="1.0" encoding="utf-8" standalone="no"?>
<!DOCTYPE svg PUBLIC "-//W3C//DTD SVG 1.1//EN"
  "http://www.w3.org/Graphics/SVG/1.1/DTD/svg11.dtd">
<svg xmlns:xlink="http://www.w3.org/1999/xlink" width="798.921562pt" height="519.318312pt" viewBox="0 0 798.921562 519.318312" xmlns="http://www.w3.org/2000/svg" version="1.1">
 <metadata>
  <rdf:RDF xmlns:dc="http://purl.org/dc/elements/1.1/" xmlns:cc="http://creativecommons.org/ns#" xmlns:rdf="http://www.w3.org/1999/02/22-rdf-syntax-ns#">
   <cc:Work>
    <dc:type rdf:resource="http://purl.org/dc/dcmitype/StillImage"/>
    <dc:format>image/svg+xml</dc:format>
    <dc:creator>
     <cc:Agent>
      <dc:title>Matplotlib v3.10.9, https://matplotlib.org/</dc:title>
     </cc:Agent>
    </dc:creator>
   </cc:Work>
  </rdf:RDF>
 </metadata>
 <defs>
  <style type="text/css">*{stroke-linejoin: round; stroke-linecap: butt}</style>
 </defs>
 <g id="figure_1">
  <g id="patch_1">
   <path d="M 0 519.318312
L 798.921562 519.318312
L 798.921562 0
L 0 0
z
" style="fill: #ffffff"/>
  </g>
  <g id="axes_1">
   <g id="patch_2">
    <path d="M 54.96875 241.743375
L 380.92875 241.743375
L 380.92875 74.91075
L 54.96875 74.91075
z
" style="fill: #ffffff"/>
   </g>
   <g id="FillBetweenPolyCollection_1">
    <defs>
     <path id="m1f7e3543b0" d="M 69.785114 -343.452436
L 69.785114 -343.452436
L 70.776175 -343.560365
L 71.767236 -343.668312
L 72.758297 -343.776294
L 73.749358 -343.884327
L 74.740419 -343.99243
L 75.73148 -344.100619
L 76.722541 -344.208912
L 77.713603 -344.317326
L 78.704664 -344.425878
L 79.695725 -344.534586
L 80.686786 -344.643467
L 81.677847 -344.752537
L 82.668908 -344.861815
L 83.659969 -344.971316
L 84.65103 -345.08106
L 85.642091 -345.191061
L 86.633153 -345.301339
L 87.624214 -345.411908
L 88.615275 -345.522788
L 89.606336 -345.633994
L 90.597397 -345.745544
L 91.588458 -345.857454
L 92.579519 -345.969741
L 93.57058 -346.082423
L 94.561641 -346.195515
L 95.552703 -346.309035
L 96.543764 -346.423
L 97.534825 -346.537425
L 98.525886 -346.652328
L 99.516947 -346.767726
L 100.508008 -346.883633
L 101.499069 -347.000068
L 102.49013 -347.117046
L 103.481191 -347.234584
L 104.472253 -347.352698
L 105.463314 -347.471404
L 106.454375 -347.590718
L 107.445436 -347.710656
L 108.436497 -347.831234
L 109.427558 -347.952469
L 110.418619 -348.074376
L 111.40968 -348.19697
L 112.400741 -348.320268
L 113.391803 -348.444285
L 114.382864 -348.569037
L 115.373925 -348.694538
L 116.364986 -348.820805
L 117.356047 -348.947853
L 118.347108 -349.075696
L 119.338169 -349.20435
L 120.32923 -349.333831
L 121.320292 -349.464152
L 122.311353 -349.595329
L 123.302414 -349.727376
L 124.293475 -349.860309
L 125.284536 -349.994141
L 126.275597 -350.128888
L 127.266658 -350.264562
L 128.257719 -350.40118
L 129.24878 -350.538754
L 130.239842 -350.677299
L 131.230903 -350.816829
L 132.221964 -350.957358
L 133.213025 -351.098899
L 134.204086 -351.241466
L 135.195147 -351.385072
L 136.186208 -351.529731
L 137.177269 -351.675455
L 138.16833 -351.822259
L 139.159392 -351.970156
L 140.150453 -352.119157
L 141.141514 -352.269276
L 142.132575 -352.420525
L 143.123636 -352.572917
L 144.114697 -352.726465
L 145.105758 -352.881181
L 146.096819 -353.037076
L 147.08788 -353.194163
L 148.078942 -353.352453
L 149.070003 -353.511959
L 150.061064 -353.672692
L 151.052125 -353.834664
L 152.043186 -353.997885
L 153.034247 -354.162368
L 154.025308 -354.328122
L 155.016369 -354.495159
L 156.00743 -354.663491
L 156.998492 -354.833126
L 157.989553 -355.004077
L 158.980614 -355.176353
L 159.971675 -355.349964
L 160.962736 -355.524921
L 161.953797 -355.701233
L 162.944858 -355.878911
L 163.935919 -356.057963
L 164.92698 -356.2384
L 165.918042 -356.42023
L 166.909103 -356.603462
L 167.900164 -356.788107
L 168.891225 -356.974172
L 169.882286 -357.161666
L 170.873347 -357.350597
L 171.864408 -357.540975
L 172.855469 -357.732807
L 173.84653 -357.926102
L 174.837592 -358.120866
L 175.828653 -358.317109
L 176.819714 -358.514837
L 177.810775 -358.714058
L 178.801836 -358.914779
L 179.792897 -359.117007
L 180.783958 -359.320749
L 181.775019 -359.526012
L 182.76608 -359.732802
L 183.757142 -359.941126
L 184.748203 -360.15099
L 185.739264 -360.3624
L 186.730325 -360.575362
L 187.721386 -360.789881
L 188.712447 -361.005963
L 189.703508 -361.223614
L 190.694569 -361.442839
L 191.685631 -361.663642
L 192.676692 -361.886029
L 193.667753 -362.110004
L 194.658814 -362.335572
L 195.649875 -362.562737
L 196.640936 -362.791502
L 197.631997 -363.021873
L 198.623058 -363.253853
L 199.614119 -363.487446
L 200.605181 -363.722654
L 201.596242 -363.959482
L 202.587303 -364.197932
L 203.578364 -364.438007
L 204.569425 -364.679709
L 205.560486 -364.923043
L 206.551547 -365.168009
L 207.542608 -365.41461
L 208.533669 -365.662848
L 209.524731 -365.912725
L 210.515792 -366.164242
L 211.506853 -366.417401
L 212.497914 -366.672203
L 213.488975 -366.928649
L 214.480036 -367.186741
L 215.471097 -367.446478
L 216.462158 -367.707862
L 217.453219 -367.970893
L 218.444281 -368.23557
L 219.435342 -368.501894
L 220.426403 -368.769865
L 221.417464 -369.039483
L 222.408525 -369.310746
L 223.399586 -369.583655
L 224.390647 -369.858208
L 225.381708 -370.134403
L 226.372769 -370.412241
L 227.363831 -370.691719
L 228.354892 -370.972836
L 229.345953 -371.25559
L 230.337014 -371.539979
L 231.328075 -371.826
L 232.319136 -372.113652
L 233.310197 -372.402932
L 234.301258 -372.693837
L 235.292319 -372.986364
L 236.283381 -373.280511
L 237.274442 -373.576273
L 238.265503 -373.873648
L 239.256564 -374.172632
L 240.247625 -374.473221
L 241.238686 -374.775411
L 242.229747 -375.079198
L 243.220808 -375.384578
L 244.211869 -375.691546
L 245.202931 -376.000098
L 246.193992 -376.310228
L 247.185053 -376.621932
L 248.176114 -376.935205
L 249.167175 -377.25004
L 250.158236 -377.566433
L 251.149297 -377.884378
L 252.140358 -378.203869
L 253.13142 -378.5249
L 254.122481 -378.847465
L 255.113542 -379.171557
L 256.104603 -379.497169
L 257.095664 -379.824296
L 258.086725 -380.15293
L 259.077786 -380.483064
L 260.068847 -380.814691
L 261.059908 -381.147803
L 262.05097 -381.482393
L 263.042031 -381.818454
L 264.033092 -382.155977
L 265.024153 -382.494954
L 266.015214 -382.835377
L 267.006275 -383.177238
L 267.997336 -383.520528
L 268.988397 -383.865238
L 269.979458 -384.21136
L 270.97052 -384.558885
L 271.961581 -384.907803
L 272.952642 -385.258106
L 273.943703 -385.609783
L 274.934764 -385.962826
L 275.925825 -386.317224
L 276.916886 -386.672968
L 277.907947 -387.030047
L 278.899008 -387.388451
L 279.89007 -387.74817
L 280.881131 -388.109194
L 281.872192 -388.471511
L 282.863253 -388.835111
L 283.854314 -389.199984
L 284.845375 -389.566117
L 285.836436 -389.933501
L 286.827497 -390.302123
L 287.818558 -390.671972
L 288.80962 -391.043036
L 289.800681 -391.415304
L 290.791742 -391.788763
L 291.782803 -392.163403
L 292.773864 -392.53921
L 293.764925 -392.916173
L 294.755986 -393.294278
L 295.747047 -393.673514
L 296.738108 -394.053868
L 297.72917 -394.435326
L 298.720231 -394.817877
L 299.711292 -395.201507
L 300.702353 -395.586203
L 301.693414 -395.971952
L 302.684475 -396.35874
L 303.675536 -396.746554
L 304.666597 -397.13538
L 305.657658 -397.525205
L 306.64872 -397.916015
L 307.639781 -398.307796
L 308.630842 -398.700533
L 309.621903 -399.094213
L 310.612964 -399.488822
L 311.604025 -399.884344
L 312.595086 -400.280766
L 313.586147 -400.678074
L 314.577208 -401.076252
L 315.56827 -401.475285
L 316.559331 -401.87516
L 317.550392 -402.27586
L 318.541453 -402.677372
L 319.532514 -403.079679
L 320.523575 -403.482767
L 321.514636 -403.88662
L 322.505697 -404.291224
L 323.496759 -404.696562
L 324.48782 -405.102619
L 325.478881 -405.509379
L 326.469942 -405.916827
L 327.461003 -406.324947
L 328.452064 -406.733724
L 329.443125 -407.14314
L 330.434186 -407.553181
L 331.425247 -407.96383
L 332.416309 -408.375071
L 333.40737 -408.786888
L 334.398431 -409.199265
L 335.389492 -409.612185
L 336.380553 -410.025632
L 337.371614 -410.43959
L 338.362675 -410.854042
L 339.353736 -411.268971
L 340.344797 -411.684362
L 341.335859 -412.100196
L 342.32692 -412.516459
L 343.317981 -412.933132
L 344.309042 -413.3502
L 345.300103 -413.767644
L 346.291164 -414.185449
L 347.282225 -414.603598
L 348.273286 -415.022074
L 349.264347 -415.440859
L 350.255409 -415.859936
L 351.24647 -416.279289
L 352.237531 -416.698901
L 353.228592 -417.118754
L 354.219653 -417.538832
L 355.210714 -417.959116
L 356.201775 -418.37959
L 357.192836 -418.800238
L 358.183897 -419.22104
L 359.174959 -419.641981
L 360.16602 -420.063043
L 361.157081 -420.484209
L 362.148142 -420.905461
L 363.139203 -421.326782
L 364.130264 -421.748155
L 365.121325 -422.169563
L 366.112386 -422.590988
L 366.112386 -422.590988
L 366.112386 -422.590988
L 365.121325 -422.517892
L 364.130264 -422.444774
L 363.139203 -422.371613
L 362.148142 -422.29839
L 361.157081 -422.225081
L 360.16602 -422.151667
L 359.174959 -422.078126
L 358.183897 -422.004438
L 357.192836 -421.93058
L 356.201775 -421.856532
L 355.210714 -421.782273
L 354.219653 -421.707782
L 353.228592 -421.633038
L 352.237531 -421.558019
L 351.24647 -421.482706
L 350.255409 -421.407077
L 349.264347 -421.331111
L 348.273286 -421.254787
L 347.282225 -421.178085
L 346.291164 -421.100983
L 345.300103 -421.023462
L 344.309042 -420.9455
L 343.317981 -420.867077
L 342.32692 -420.788173
L 341.335859 -420.708766
L 340.344797 -420.628836
L 339.353736 -420.548363
L 338.362675 -420.467327
L 337.371614 -420.385707
L 336.380553 -420.303484
L 335.389492 -420.220636
L 334.398431 -420.137144
L 333.40737 -420.052988
L 332.416309 -419.968148
L 331.425247 -419.882604
L 330.434186 -419.796336
L 329.443125 -419.709325
L 328.452064 -419.621551
L 327.461003 -419.532994
L 326.469942 -419.443636
L 325.478881 -419.353456
L 324.48782 -419.262435
L 323.496759 -419.170555
L 322.505697 -419.077796
L 321.514636 -418.984139
L 320.523575 -418.889566
L 319.532514 -418.794057
L 318.541453 -418.697594
L 317.550392 -418.600158
L 316.559331 -418.501731
L 315.56827 -418.402294
L 314.577208 -418.30183
L 313.586147 -418.20032
L 312.595086 -418.097745
L 311.604025 -417.99409
L 310.612964 -417.889334
L 309.621903 -417.783461
L 308.630842 -417.676454
L 307.639781 -417.568294
L 306.64872 -417.458965
L 305.657658 -417.348449
L 304.666597 -417.23673
L 303.675536 -417.12379
L 302.684475 -417.009613
L 301.693414 -416.894181
L 300.702353 -416.77748
L 299.711292 -416.659492
L 298.720231 -416.540201
L 297.72917 -416.419591
L 296.738108 -416.297646
L 295.747047 -416.174351
L 294.755986 -416.04969
L 293.764925 -415.923646
L 292.773864 -415.796206
L 291.782803 -415.667354
L 290.791742 -415.537075
L 289.800681 -415.405353
L 288.80962 -415.272175
L 287.818558 -415.137526
L 286.827497 -415.001392
L 285.836436 -414.863757
L 284.845375 -414.724609
L 283.854314 -414.583934
L 282.863253 -414.441717
L 281.872192 -414.297945
L 280.881131 -414.152606
L 279.89007 -414.005685
L 278.899008 -413.857169
L 277.907947 -413.707047
L 276.916886 -413.555305
L 275.925825 -413.40193
L 274.934764 -413.246911
L 273.943703 -413.090236
L 272.952642 -412.931892
L 271.961581 -412.771867
L 270.97052 -412.610151
L 269.979458 -412.446732
L 268.988397 -412.281598
L 267.997336 -412.114738
L 267.006275 -411.946143
L 266.015214 -411.775801
L 265.024153 -411.603701
L 264.033092 -411.429835
L 263.042031 -411.25419
L 262.05097 -411.076759
L 261.059908 -410.89753
L 260.068847 -410.716495
L 259.077786 -410.533645
L 258.086725 -410.34897
L 257.095664 -410.162462
L 256.104603 -409.974111
L 255.113542 -409.78391
L 254.122481 -409.591851
L 253.13142 -409.397924
L 252.140358 -409.202123
L 251.149297 -409.00444
L 250.158236 -408.804868
L 249.167175 -408.603398
L 248.176114 -408.400025
L 247.185053 -408.194742
L 246.193992 -407.987541
L 245.202931 -407.778417
L 244.211869 -407.567363
L 243.220808 -407.354375
L 242.229747 -407.139445
L 241.238686 -406.922568
L 240.247625 -406.703739
L 239.256564 -406.482954
L 238.265503 -406.260206
L 237.274442 -406.035493
L 236.283381 -405.808808
L 235.292319 -405.580148
L 234.301258 -405.34951
L 233.310197 -405.116888
L 232.319136 -404.88228
L 231.328075 -404.645683
L 230.337014 -404.407093
L 229.345953 -404.166507
L 228.354892 -403.923923
L 227.363831 -403.679338
L 226.372769 -403.43275
L 225.381708 -403.184158
L 224.390647 -402.933558
L 223.399586 -402.680951
L 222.408525 -402.426333
L 221.417464 -402.169705
L 220.426403 -401.911066
L 219.435342 -401.650414
L 218.444281 -401.387749
L 217.453219 -401.123072
L 216.462158 -400.856382
L 215.471097 -400.587679
L 214.480036 -400.316963
L 213.488975 -400.044236
L 212.497914 -399.769499
L 211.506853 -399.492752
L 210.515792 -399.213996
L 209.524731 -398.933234
L 208.533669 -398.650467
L 207.542608 -398.365697
L 206.551547 -398.078926
L 205.560486 -397.790157
L 204.569425 -397.499392
L 203.578364 -397.206635
L 202.587303 -396.911888
L 201.596242 -396.615154
L 200.605181 -396.316438
L 199.614119 -396.015743
L 198.623058 -395.713073
L 197.631997 -395.408432
L 196.640936 -395.101824
L 195.649875 -394.793255
L 194.658814 -394.482728
L 193.667753 -394.17025
L 192.676692 -393.855825
L 191.685631 -393.539459
L 190.694569 -393.221158
L 189.703508 -392.900927
L 188.712447 -392.578773
L 187.721386 -392.254702
L 186.730325 -391.92872
L 185.739264 -391.600834
L 184.748203 -391.271052
L 183.757142 -390.93938
L 182.76608 -390.605826
L 181.775019 -390.270398
L 180.783958 -389.933103
L 179.792897 -389.593949
L 178.801836 -389.252944
L 177.810775 -388.910098
L 176.819714 -388.565418
L 175.828653 -388.218914
L 174.837592 -387.870593
L 173.84653 -387.520467
L 172.855469 -387.168544
L 171.864408 -386.814833
L 170.873347 -386.459345
L 169.882286 -386.10209
L 168.891225 -385.743077
L 167.900164 -385.382318
L 166.909103 -385.019822
L 165.918042 -384.655601
L 164.92698 -384.289666
L 163.935919 -383.922027
L 162.944858 -383.552697
L 161.953797 -383.181686
L 160.962736 -382.809006
L 159.971675 -382.434671
L 158.980614 -382.05869
L 157.989553 -381.681077
L 156.998492 -381.301845
L 156.00743 -380.921005
L 155.016369 -380.538572
L 154.025308 -380.154556
L 153.034247 -379.768973
L 152.043186 -379.381835
L 151.052125 -378.993156
L 150.061064 -378.602949
L 149.070003 -378.211228
L 148.078942 -377.818008
L 147.08788 -377.423302
L 146.096819 -377.027125
L 145.105758 -376.629492
L 144.114697 -376.230416
L 143.123636 -375.829914
L 142.132575 -375.427999
L 141.141514 -375.024687
L 140.150453 -374.619994
L 139.159392 -374.213934
L 138.16833 -373.806524
L 137.177269 -373.397779
L 136.186208 -372.987715
L 135.195147 -372.576349
L 134.204086 -372.163695
L 133.213025 -371.749771
L 132.221964 -371.334594
L 131.230903 -370.918179
L 130.239842 -370.500543
L 129.24878 -370.081704
L 128.257719 -369.661678
L 127.266658 -369.240483
L 126.275597 -368.818136
L 125.284536 -368.394654
L 124.293475 -367.970054
L 123.302414 -367.544355
L 122.311353 -367.117575
L 121.320292 -366.68973
L 120.32923 -366.26084
L 119.338169 -365.830921
L 118.347108 -365.399993
L 117.356047 -364.968074
L 116.364986 -364.535183
L 115.373925 -364.101337
L 114.382864 -363.666555
L 113.391803 -363.230857
L 112.400741 -362.794262
L 111.40968 -362.356787
L 110.418619 -361.918453
L 109.427558 -361.479278
L 108.436497 -361.039281
L 107.445436 -360.598483
L 106.454375 -360.156902
L 105.463314 -359.714558
L 104.472253 -359.271471
L 103.481191 -358.82766
L 102.49013 -358.383146
L 101.499069 -357.937947
L 100.508008 -357.492084
L 99.516947 -357.045577
L 98.525886 -356.598446
L 97.534825 -356.150711
L 96.543764 -355.702392
L 95.552703 -355.25351
L 94.561641 -354.804085
L 93.57058 -354.354137
L 92.579519 -353.903687
L 91.588458 -353.452755
L 90.597397 -353.001362
L 89.606336 -352.549528
L 88.615275 -352.097274
L 87.624214 -351.644622
L 86.633153 -351.191591
L 85.642091 -350.738202
L 84.65103 -350.284476
L 83.659969 -349.830435
L 82.668908 -349.376098
L 81.677847 -348.921487
L 80.686786 -348.466624
L 79.695725 -348.011528
L 78.704664 -347.556221
L 77.713603 -347.100724
L 76.722541 -346.645058
L 75.73148 -346.189243
L 74.740419 -345.733303
L 73.749358 -345.277256
L 72.758297 -344.821125
L 71.767236 -344.36493
L 70.776175 -343.908694
L 69.785114 -343.452436
z
" style="stroke: #e9c46a; stroke-opacity: 0.35"/>
    </defs>
    <g clip-path="url(#p12e85cfef9)">
     <use xlink:href="#m1f7e3543b0" x="0" y="519.318312" style="fill: #e9c46a; fill-opacity: 0.35; stroke: #e9c46a; stroke-opacity: 0.35"/>
    </g>
   </g>
   <g id="matplotlib.axis_1">
    <g id="xtick_1">
     <g id="line2d_1">
      <path d="M 69.785114 241.743375
L 69.785114 74.91075
" clip-path="url(#p12e85cfef9)" style="fill: none; stroke: #cbd5df; stroke-opacity: 0.25; stroke-width: 0.8; stroke-linecap: square"/>
     </g>
     <g id="line2d_2">
      <defs>
       <path id="mfec03084be" d="M 0 0
L 0 3.5
" style="stroke: #17324d; stroke-width: 0.8"/>
      </defs>
      <g>
       <use xlink:href="#mfec03084be" x="69.785114" y="241.743375" style="fill: #17324d; stroke: #17324d; stroke-width: 0.8"/>
      </g>
     </g>
     <g id="text_1">
      <text style="font-size: 10px; font-family: 'Hiragino Sans'; text-anchor: middle; fill: #17324d" x="69.785114" y="256.45275" transform="rotate(-0 69.785114 256.45275)">Cu</text>
     </g>
    </g>
    <g id="xtick_2">
     <g id="line2d_3">
      <path d="M 366.112386 241.743375
L 366.112386 74.91075
" clip-path="url(#p12e85cfef9)" style="fill: none; stroke: #cbd5df; stroke-opacity: 0.25; stroke-width: 0.8; stroke-linecap: square"/>
     </g>
     <g id="line2d_4">
      <g>
       <use xlink:href="#mfec03084be" x="366.112386" y="241.743375" style="fill: #17324d; stroke: #17324d; stroke-width: 0.8"/>
      </g>
     </g>
     <g id="text_2">
      <text style="font-size: 10px; font-family: 'Hiragino Sans'; text-anchor: middle; fill: #17324d" x="366.112386" y="256.45275" transform="rotate(-0 366.112386 256.45275)">Ni</text>
     </g>
    </g>
   </g>
   <g id="matplotlib.axis_2">
    <g id="ytick_1">
     <g id="line2d_5">
      <path d="M 54.96875 231.048976
L 380.92875 231.048976
" clip-path="url(#p12e85cfef9)" style="fill: none; stroke: #cbd5df; stroke-opacity: 0.25; stroke-width: 0.8; stroke-linecap: square"/>
     </g>
     <g id="line2d_6">
      <defs>
       <path id="m3f4d5b732d" d="M 0 0
L -3.5 0
" style="stroke: #17324d; stroke-width: 0.8"/>
      </defs>
      <g>
       <use xlink:href="#m3f4d5b732d" x="54.96875" y="231.048976" style="fill: #17324d; stroke: #17324d; stroke-width: 0.8"/>
      </g>
     </g>
     <g id="text_3">
      <text style="font-size: 10px; font-family: 'Hiragino Sans'; text-anchor: end; fill: #17324d" x="47.96875" y="234.903663" transform="rotate(-0 47.96875 234.903663)">1100</text>
     </g>
    </g>
    <g id="ytick_2">
     <g id="line2d_7">
      <path d="M 54.96875 209.660178
L 380.92875 209.660178
" clip-path="url(#p12e85cfef9)" style="fill: none; stroke: #cbd5df; stroke-opacity: 0.25; stroke-width: 0.8; stroke-linecap: square"/>
     </g>
     <g id="line2d_8">
      <g>
       <use xlink:href="#m3f4d5b732d" x="54.96875" y="209.660178" style="fill: #17324d; stroke: #17324d; stroke-width: 0.8"/>
      </g>
     </g>
     <g id="text_4">
      <text style="font-size: 10px; font-family: 'Hiragino Sans'; text-anchor: end; fill: #17324d" x="47.96875" y="213.514865" transform="rotate(-0 47.96875 213.514865)">1200</text>
     </g>
    </g>
    <g id="ytick_3">
     <g id="line2d_9">
      <path d="M 54.96875 188.27138
L 380.92875 188.27138
" clip-path="url(#p12e85cfef9)" style="fill: none; stroke: #cbd5df; stroke-opacity: 0.25; stroke-width: 0.8; stroke-linecap: square"/>
     </g>
     <g id="line2d_10">
      <g>
       <use xlink:href="#m3f4d5b732d" x="54.96875" y="188.27138" style="fill: #17324d; stroke: #17324d; stroke-width: 0.8"/>
      </g>
     </g>
     <g id="text_5">
      <text style="font-size: 10px; font-family: 'Hiragino Sans'; text-anchor: end; fill: #17324d" x="47.96875" y="192.126067" transform="rotate(-0 47.96875 192.126067)">1300</text>
     </g>
    </g>
    <g id="ytick_4">
     <g id="line2d_11">
      <path d="M 54.96875 166.882582
L 380.92875 166.882582
" clip-path="url(#p12e85cfef9)" style="fill: none; stroke: #cbd5df; stroke-opacity: 0.25; stroke-width: 0.8; stroke-linecap: square"/>
     </g>
     <g id="line2d_12">
      <g>
       <use xlink:href="#m3f4d5b732d" x="54.96875" y="166.882582" style="fill: #17324d; stroke: #17324d; stroke-width: 0.8"/>
      </g>
     </g>
     <g id="text_6">
      <text style="font-size: 10px; font-family: 'Hiragino Sans'; text-anchor: end; fill: #17324d" x="47.96875" y="170.737269" transform="rotate(-0 47.96875 170.737269)">1400</text>
     </g>
    </g>
    <g id="ytick_5">
     <g id="line2d_13">
      <path d="M 54.96875 145.493784
L 380.92875 145.493784
" clip-path="url(#p12e85cfef9)" style="fill: none; stroke: #cbd5df; stroke-opacity: 0.25; stroke-width: 0.8; stroke-linecap: square"/>
     </g>
     <g id="line2d_14">
      <g>
       <use xlink:href="#m3f4d5b732d" x="54.96875" y="145.493784" style="fill: #17324d; stroke: #17324d; stroke-width: 0.8"/>
      </g>
     </g>
     <g id="text_7">
      <text style="font-size: 10px; font-family: 'Hiragino Sans'; text-anchor: end; fill: #17324d" x="47.96875" y="149.348471" transform="rotate(-0 47.96875 149.348471)">1500</text>
     </g>
    </g>
    <g id="ytick_6">
     <g id="line2d_15">
      <path d="M 54.96875 124.104986
L 380.92875 124.104986
" clip-path="url(#p12e85cfef9)" style="fill: none; stroke: #cbd5df; stroke-opacity: 0.25; stroke-width: 0.8; stroke-linecap: square"/>
     </g>
     <g id="line2d_16">
      <g>
       <use xlink:href="#m3f4d5b732d" x="54.96875" y="124.104986" style="fill: #17324d; stroke: #17324d; stroke-width: 0.8"/>
      </g>
     </g>
     <g id="text_8">
      <text style="font-size: 10px; font-family: 'Hiragino Sans'; text-anchor: end; fill: #17324d" x="47.96875" y="127.959673" transform="rotate(-0 47.96875 127.959673)">1600</text>
     </g>
    </g>
    <g id="ytick_7">
     <g id="line2d_17">
      <path d="M 54.96875 102.716188
L 380.92875 102.716188
" clip-path="url(#p12e85cfef9)" style="fill: none; stroke: #cbd5df; stroke-opacity: 0.25; stroke-width: 0.8; stroke-linecap: square"/>
     </g>
     <g id="line2d_18">
      <g>
       <use xlink:href="#m3f4d5b732d" x="54.96875" y="102.716188" style="fill: #17324d; stroke: #17324d; stroke-width: 0.8"/>
      </g>
     </g>
     <g id="text_9">
      <text style="font-size: 10px; font-family: 'Hiragino Sans'; text-anchor: end; fill: #17324d" x="47.96875" y="106.570875" transform="rotate(-0 47.96875 106.570875)">1700</text>
     </g>
    </g>
    <g id="ytick_8">
     <g id="line2d_19">
      <path d="M 54.96875 81.327389
L 380.92875 81.327389
" clip-path="url(#p12e85cfef9)" style="fill: none; stroke: #cbd5df; stroke-opacity: 0.25; stroke-width: 0.8; stroke-linecap: square"/>
     </g>
     <g id="line2d_20">
      <g>
       <use xlink:href="#m3f4d5b732d" x="54.96875" y="81.327389" style="fill: #17324d; stroke: #17324d; stroke-width: 0.8"/>
      </g>
     </g>
     <g id="text_10">
      <text style="font-size: 10px; font-family: 'Hiragino Sans'; text-anchor: end; fill: #17324d" x="47.96875" y="85.182077" transform="rotate(-0 47.96875 85.182077)">1800</text>
     </g>
    </g>
    <g id="text_11">
     <text style="font-size: 10px; font-family: 'Hiragino Sans'; text-anchor: middle; fill: #17324d" x="14.979688" y="158.327063" transform="rotate(-90 14.979688 158.327063)">Temperature / K</text>
    </g>
   </g>
   <g id="line2d_21">
    <path d="M 69.785114 175.865877
L 101.499069 161.380366
L 119.338169 153.487391
L 134.204086 147.154617
L 147.08788 141.89501
L 158.980614 137.259622
L 170.873347 132.858967
L 181.775019 129.047915
L 192.676692 125.462487
L 203.578364 122.111678
L 214.480036 119.001349
L 225.381708 116.134155
L 236.283381 113.509504
L 247.185053 111.123571
L 258.086725 108.969342
L 268.988397 107.036715
L 280.881131 105.165707
L 292.773864 103.522106
L 305.657658 101.969863
L 319.532514 100.524256
L 335.389492 99.097677
L 356.201775 97.461781
L 366.112386 96.727324
L 366.112386 96.727324
" clip-path="url(#p12e85cfef9)" style="fill: none; stroke: #e76f51; stroke-width: 2.5; stroke-linecap: square"/>
   </g>
   <g id="line2d_22">
    <path d="M 69.785114 175.865877
L 102.49013 172.201266
L 120.32923 169.984482
L 136.186208 167.788582
L 150.061064 165.64562
L 162.944858 163.439402
L 175.828653 161.001203
L 187.721386 158.528431
L 199.614119 155.830867
L 211.506853 152.900912
L 223.399586 149.734658
L 235.292319 146.331948
L 247.185053 142.69638
L 259.077786 138.835248
L 271.961581 134.410509
L 284.845375 129.752195
L 298.720231 124.500435
L 313.586147 118.640239
L 331.425247 111.354482
L 354.219653 101.779481
L 366.112386 96.727324
L 366.112386 96.727324
" clip-path="url(#p12e85cfef9)" style="fill: none; stroke: #457b9d; stroke-width: 2.5; stroke-linecap: square"/>
   </g>
   <g id="patch_3">
    <path d="M 54.96875 241.743375
L 54.96875 74.91075
" style="fill: none; stroke: #17324d; stroke-width: 0.8; stroke-linejoin: miter; stroke-linecap: square"/>
   </g>
   <g id="patch_4">
    <path d="M 54.96875 241.743375
L 380.92875 241.743375
" style="fill: none; stroke: #17324d; stroke-width: 0.8; stroke-linejoin: miter; stroke-linecap: square"/>
   </g>
   <g id="text_12">
    <text style="font-weight: 700; font-size: 10px; font-family: 'Hiragino Sans'; text-anchor: middle; fill: #17324d" x="217.94875" y="113.410587" transform="rotate(-0 217.94875 113.410587)">L</text>
   </g>
   <g id="text_13">
    <text style="font-size: 10px; font-family: 'Hiragino Sans'; text-anchor: middle; fill: #17324d" x="217.94875" y="157.257623" transform="rotate(-0 217.94875 157.257623)">L + α</text>
   </g>
   <g id="text_14">
    <text style="font-weight: 700; font-size: 10px; font-family: 'Hiragino Sans'; text-anchor: middle; fill: #17324d" x="217.94875" y="211.799058" transform="rotate(-0 217.94875 211.799058)">α (fcc solid solution)</text>
   </g>
   <g id="text_15">
    <text style="font-size: 12px; font-family: 'Hiragino Sans'; text-anchor: middle; fill: #17324d" x="217.94875" y="68.91075" transform="rotate(-0 217.94875 68.91075)">(a) Cu–Ni: complete solid solution</text>
   </g>
  </g>
  <g id="axes_2">
   <g id="patch_5">
    <path d="M 453.01625 241.743375
L 778.97625 241.743375
L 778.97625 74.91075
L 453.01625 74.91075
z
" style="fill: #ffffff"/>
   </g>
   <g id="FillBetweenPolyCollection_2">
    <defs>
     <path id="mbbfb69c680" d="M 462.489678 -289.180685
L 462.489678 -277.574937
L 463.548161 -277.574937
L 464.606645 -277.574937
L 465.665128 -277.574937
L 466.723612 -277.574937
L 467.782095 -277.574937
L 468.840579 -277.574937
L 469.899062 -277.574937
L 470.957546 -277.574937
L 472.016029 -277.574937
L 473.074513 -277.574937
L 474.132996 -277.574937
L 475.19148 -277.574937
L 476.249963 -277.574937
L 477.308447 -277.574937
L 478.36693 -277.574937
L 479.425414 -277.574937
L 480.483897 -277.574937
L 481.542381 -277.574937
L 482.600864 -277.574937
L 483.659348 -277.574937
L 484.717831 -277.574937
L 485.776315 -277.574937
L 486.834798 -277.574937
L 487.893282 -277.574937
L 488.951766 -277.574937
L 490.010249 -277.574937
L 491.068733 -277.574937
L 492.127216 -277.574937
L 493.1857 -277.574937
L 494.244183 -277.574937
L 495.302667 -277.574937
L 496.36115 -277.574937
L 497.419634 -277.574937
L 498.478117 -277.574937
L 499.536601 -277.574937
L 500.595084 -277.574937
L 501.653568 -277.574937
L 502.712051 -277.574937
L 503.770535 -277.574937
L 504.829018 -277.574937
L 505.887502 -277.574937
L 506.945985 -277.574937
L 508.004469 -277.574937
L 509.062952 -277.574937
L 510.121436 -277.574937
L 511.179919 -277.574937
L 512.238403 -277.574937
L 513.296886 -277.574937
L 514.35537 -277.574937
L 515.413854 -277.574937
L 516.472337 -277.574937
L 517.530821 -277.574937
L 518.589304 -277.574937
L 519.647788 -277.574937
L 520.706271 -277.574937
L 521.764755 -277.574937
L 522.823238 -277.574937
L 523.881722 -277.574937
L 524.940205 -277.574937
L 525.998689 -277.574937
L 527.057172 -277.574937
L 528.115656 -277.574937
L 529.174139 -277.574937
L 530.232623 -277.574937
L 531.291106 -277.574937
L 532.34959 -277.574937
L 533.408073 -277.574937
L 534.466557 -277.574937
L 535.52504 -277.574937
L 536.583524 -277.574937
L 537.642007 -277.574937
L 538.700491 -277.574937
L 539.758974 -277.574937
L 540.817458 -277.574937
L 541.875942 -277.574937
L 542.934425 -277.574937
L 543.992909 -277.574937
L 545.051392 -277.574937
L 546.109876 -277.574937
L 547.168359 -277.574937
L 548.226843 -277.574937
L 549.285326 -277.574937
L 550.34381 -277.574937
L 551.402293 -277.574937
L 552.460777 -277.574937
L 553.51926 -277.574937
L 554.577744 -277.574937
L 555.636227 -277.574937
L 556.694711 -277.574937
L 557.753194 -277.574937
L 558.811678 -277.574937
L 559.870161 -277.574937
L 560.928645 -277.574937
L 561.987128 -277.574937
L 563.045612 -277.574937
L 564.104095 -277.574937
L 565.162579 -277.574937
L 566.221062 -277.574937
L 567.279546 -277.574937
L 568.33803 -277.574937
L 569.396513 -277.574937
L 570.454997 -277.574937
L 571.51348 -277.574937
L 572.571964 -277.574937
L 573.630447 -277.574937
L 574.688931 -277.574937
L 575.747414 -277.574937
L 576.805898 -277.574937
L 577.864381 -277.574937
L 578.922865 -277.574937
L 579.981348 -277.574937
L 581.039832 -277.574937
L 582.098315 -277.574937
L 583.156799 -277.574937
L 584.215282 -277.574937
L 585.273766 -277.574937
L 586.332249 -277.574937
L 587.390733 -277.574937
L 588.449216 -277.574937
L 589.5077 -277.574937
L 590.566183 -277.574937
L 591.624667 -277.574937
L 592.68315 -277.574937
L 593.741634 -277.574937
L 594.800118 -277.574937
L 595.858601 -277.574937
L 596.917085 -277.574937
L 597.975568 -277.574937
L 599.034052 -277.574937
L 600.092535 -277.574937
L 601.151019 -277.574937
L 602.209502 -277.574937
L 603.267986 -277.574937
L 604.326469 -277.574937
L 605.384953 -277.574937
L 606.443436 -277.574937
L 607.50192 -277.574937
L 608.560403 -277.574937
L 609.618887 -277.574937
L 610.67737 -277.574937
L 611.735854 -277.574937
L 612.794337 -277.574937
L 613.852821 -277.574937
L 614.911304 -277.574937
L 615.969788 -277.574937
L 617.028271 -277.574937
L 618.086755 -277.574937
L 619.145238 -277.574937
L 620.203722 -277.574937
L 621.262206 -277.574937
L 622.320689 -277.574937
L 623.379173 -277.574937
L 624.437656 -277.574937
L 625.49614 -277.574937
L 626.554623 -277.574937
L 627.613107 -277.574937
L 628.67159 -277.574937
L 629.730074 -277.574937
L 630.788557 -277.574937
L 631.847041 -277.574937
L 632.905524 -277.574937
L 633.964008 -277.574937
L 635.022491 -277.574937
L 636.080975 -277.574937
L 637.139458 -277.574937
L 638.197942 -277.574937
L 639.256425 -277.574937
L 640.314909 -277.574937
L 641.373392 -277.574937
L 642.431876 -277.574937
L 643.490359 -277.574937
L 644.548843 -277.574937
L 645.607326 -277.574937
L 646.66581 -277.574937
L 647.724294 -277.574937
L 648.782777 -277.574937
L 649.841261 -277.574937
L 650.899744 -277.574937
L 651.958228 -277.574937
L 651.958228 -435.539813
L 651.958228 -435.539813
L 650.899744 -435.130416
L 649.841261 -434.719868
L 648.782777 -434.308158
L 647.724294 -433.895276
L 646.66581 -433.481214
L 645.607326 -433.06596
L 644.548843 -432.649503
L 643.490359 -432.231835
L 642.431876 -431.812943
L 641.373392 -431.392818
L 640.314909 -430.971448
L 639.256425 -430.548822
L 638.197942 -430.124928
L 637.139458 -429.699756
L 636.080975 -429.273294
L 635.022491 -428.845529
L 633.964008 -428.41645
L 632.905524 -427.986045
L 631.847041 -427.554301
L 630.788557 -427.121206
L 629.730074 -426.686746
L 628.67159 -426.25091
L 627.613107 -425.813683
L 626.554623 -425.375053
L 625.49614 -424.935005
L 624.437656 -424.493526
L 623.379173 -424.050603
L 622.320689 -423.606219
L 621.262206 -423.160362
L 620.203722 -422.713017
L 619.145238 -422.264167
L 618.086755 -421.813799
L 617.028271 -421.361896
L 615.969788 -420.908443
L 614.911304 -420.453423
L 613.852821 -419.996821
L 612.794337 -419.53862
L 611.735854 -419.078802
L 610.67737 -418.61735
L 609.618887 -418.154248
L 608.560403 -417.689477
L 607.50192 -417.223019
L 606.443436 -416.754855
L 605.384953 -416.284967
L 604.326469 -415.813336
L 603.267986 -415.339941
L 602.209502 -414.864763
L 601.151019 -414.387782
L 600.092535 -413.908977
L 599.034052 -413.428326
L 597.975568 -412.94581
L 596.917085 -412.461404
L 595.858601 -411.975088
L 594.800118 -411.486838
L 593.741634 -410.996631
L 592.68315 -410.504443
L 591.624667 -410.01025
L 590.566183 -409.514028
L 589.5077 -409.015752
L 588.449216 -408.515394
L 587.390733 -408.01293
L 586.332249 -407.508332
L 585.273766 -407.001573
L 584.215282 -406.492625
L 583.156799 -405.98146
L 582.098315 -405.468047
L 581.039832 -404.952358
L 579.981348 -404.434361
L 578.922865 -403.914026
L 577.864381 -403.39132
L 576.805898 -402.866211
L 575.747414 -402.338665
L 574.688931 -401.808648
L 573.630447 -401.276126
L 572.571964 -400.741061
L 571.51348 -400.203417
L 570.454997 -399.663157
L 569.396513 -399.120243
L 568.33803 -398.574634
L 567.279546 -398.02629
L 566.221062 -397.475169
L 565.162579 -396.921229
L 564.104095 -396.364427
L 563.045612 -395.804717
L 561.987128 -395.242053
L 560.928645 -394.676389
L 559.870161 -394.107674
L 558.811678 -393.535861
L 557.753194 -392.960897
L 556.694711 -392.38273
L 555.636227 -391.801305
L 554.577744 -391.216567
L 553.51926 -390.62846
L 552.460777 -390.036922
L 551.402293 -389.441895
L 550.34381 -388.843315
L 549.285326 -388.241119
L 548.226843 -387.635239
L 547.168359 -387.025607
L 546.109876 -386.412153
L 545.051392 -385.794804
L 543.992909 -385.173485
L 542.934425 -384.548118
L 541.875942 -383.918624
L 540.817458 -383.284918
L 539.758974 -382.646916
L 538.700491 -382.004528
L 537.642007 -381.357665
L 536.583524 -380.706229
L 535.52504 -380.050123
L 534.466557 -379.389246
L 533.408073 -378.723491
L 532.34959 -378.052749
L 531.291106 -377.376906
L 530.232623 -376.695844
L 529.174139 -376.00944
L 528.115656 -375.317566
L 527.057172 -374.62009
L 525.998689 -373.916873
L 524.940205 -373.207771
L 523.881722 -372.492634
L 522.823238 -371.771305
L 521.764755 -371.04362
L 520.706271 -370.309409
L 519.647788 -369.568492
L 518.589304 -368.820682
L 517.530821 -368.065783
L 516.472337 -367.303591
L 515.413854 -366.533888
L 514.35537 -365.756449
L 513.296886 -364.971036
L 512.238403 -364.177398
L 511.179919 -363.375271
L 510.121436 -362.564377
L 509.062952 -361.744421
L 508.004469 -360.915094
L 506.945985 -360.076067
L 505.887502 -359.226989
L 504.829018 -358.367493
L 503.770535 -357.497184
L 502.712051 -356.615644
L 501.653568 -355.722426
L 500.595084 -354.817054
L 499.536601 -353.899018
L 498.478117 -352.96777
L 497.419634 -352.022724
L 496.36115 -351.063247
L 495.302667 -350.088658
L 494.244183 -349.098218
L 493.1857 -348.091129
L 492.127216 -347.066522
L 491.068733 -346.023448
L 490.010249 -344.960873
L 488.951766 -343.877659
L 487.893282 -342.772556
L 486.834798 -341.64418
L 485.776315 -340.490995
L 484.717831 -339.31129
L 483.659348 -338.103146
L 482.600864 -336.864402
L 481.542381 -335.592607
L 480.483897 -334.284966
L 479.425414 -332.938265
L 478.36693 -331.548779
L 477.308447 -330.112153
L 476.249963 -328.623234
L 475.19148 -327.075861
L 474.132996 -325.462553
L 473.074513 -323.774089
L 472.016029 -321.99887
L 470.957546 -320.121966
L 469.899062 -318.123604
L 468.840579 -315.976621
L 467.782095 -313.641916
L 466.723612 -311.059475
L 465.665128 -308.128273
L 464.606645 -304.651326
L 463.548161 -300.12008
L 462.489678 -289.180685
z
" style="stroke: #457b9d; stroke-opacity: 0.12"/>
    </defs>
    <g clip-path="url(#p6bbc265432)">
     <use xlink:href="#mbbfb69c680" x="0" y="519.318312" style="fill: #457b9d; fill-opacity: 0.12; stroke: #457b9d; stroke-opacity: 0.12"/>
    </g>
   </g>
   <g id="matplotlib.axis_3">
    <g id="xtick_3">
     <g id="line2d_23">
      <path d="M 462.489678 241.743375
L 462.489678 74.91075
" clip-path="url(#p6bbc265432)" style="fill: none; stroke: #cbd5df; stroke-opacity: 0.25; stroke-width: 0.8; stroke-linecap: square"/>
     </g>
     <g id="line2d_24">
      <g>
       <use xlink:href="#mfec03084be" x="462.489678" y="241.743375" style="fill: #17324d; stroke: #17324d; stroke-width: 0.8"/>
      </g>
     </g>
     <g id="text_16">
      <text style="font-size: 10px; font-family: 'Hiragino Sans'; text-anchor: middle; fill: #17324d" x="462.489678" y="256.45275" transform="rotate(-0 462.489678 256.45275)">Cu</text>
     </g>
    </g>
    <g id="xtick_4">
     <g id="line2d_25">
      <path d="M 778.97625 241.743375
L 778.97625 74.91075
" clip-path="url(#p6bbc265432)" style="fill: none; stroke: #cbd5df; stroke-opacity: 0.25; stroke-width: 0.8; stroke-linecap: square"/>
     </g>
     <g id="line2d_26">
      <g>
       <use xlink:href="#mfec03084be" x="778.97625" y="241.743375" style="fill: #17324d; stroke: #17324d; stroke-width: 0.8"/>
      </g>
     </g>
     <g id="text_17">
      <text style="font-size: 10px; font-family: 'Hiragino Sans'; text-anchor: middle; fill: #17324d" x="778.97625" y="256.45275" transform="rotate(-0 778.97625 256.45275)">Fe →</text>
     </g>
    </g>
   </g>
   <g id="matplotlib.axis_4">
    <g id="ytick_9">
     <g id="line2d_27">
      <path d="M 453.01625 234.489783
L 778.97625 234.489783
" clip-path="url(#p6bbc265432)" style="fill: none; stroke: #cbd5df; stroke-opacity: 0.25; stroke-width: 0.8; stroke-linecap: square"/>
     </g>
     <g id="line2d_28">
      <g>
       <use xlink:href="#m3f4d5b732d" x="453.01625" y="234.489783" style="fill: #17324d; stroke: #17324d; stroke-width: 0.8"/>
      </g>
     </g>
     <g id="text_18">
      <text style="font-size: 10px; font-family: 'Hiragino Sans'; text-anchor: end; fill: #17324d" x="446.01625" y="238.34447" transform="rotate(-0 446.01625 238.34447)">400</text>
     </g>
    </g>
    <g id="ytick_10">
     <g id="line2d_29">
      <path d="M 453.01625 205.475413
L 778.97625 205.475413
" clip-path="url(#p6bbc265432)" style="fill: none; stroke: #cbd5df; stroke-opacity: 0.25; stroke-width: 0.8; stroke-linecap: square"/>
     </g>
     <g id="line2d_30">
      <g>
       <use xlink:href="#m3f4d5b732d" x="453.01625" y="205.475413" style="fill: #17324d; stroke: #17324d; stroke-width: 0.8"/>
      </g>
     </g>
     <g id="text_19">
      <text style="font-size: 10px; font-family: 'Hiragino Sans'; text-anchor: end; fill: #17324d" x="446.01625" y="209.330101" transform="rotate(-0 446.01625 209.330101)">600</text>
     </g>
    </g>
    <g id="ytick_11">
     <g id="line2d_31">
      <path d="M 453.01625 176.461043
L 778.97625 176.461043
" clip-path="url(#p6bbc265432)" style="fill: none; stroke: #cbd5df; stroke-opacity: 0.25; stroke-width: 0.8; stroke-linecap: square"/>
     </g>
     <g id="line2d_32">
      <g>
       <use xlink:href="#m3f4d5b732d" x="453.01625" y="176.461043" style="fill: #17324d; stroke: #17324d; stroke-width: 0.8"/>
      </g>
     </g>
     <g id="text_20">
      <text style="font-size: 10px; font-family: 'Hiragino Sans'; text-anchor: end; fill: #17324d" x="446.01625" y="180.315731" transform="rotate(-0 446.01625 180.315731)">800</text>
     </g>
    </g>
    <g id="ytick_12">
     <g id="line2d_33">
      <path d="M 453.01625 147.446674
L 778.97625 147.446674
" clip-path="url(#p6bbc265432)" style="fill: none; stroke: #cbd5df; stroke-opacity: 0.25; stroke-width: 0.8; stroke-linecap: square"/>
     </g>
     <g id="line2d_34">
      <g>
       <use xlink:href="#m3f4d5b732d" x="453.01625" y="147.446674" style="fill: #17324d; stroke: #17324d; stroke-width: 0.8"/>
      </g>
     </g>
     <g id="text_21">
      <text style="font-size: 10px; font-family: 'Hiragino Sans'; text-anchor: end; fill: #17324d" x="446.01625" y="151.301361" transform="rotate(-0 446.01625 151.301361)">1000</text>
     </g>
    </g>
    <g id="ytick_13">
     <g id="line2d_35">
      <path d="M 453.01625 118.432304
L 778.97625 118.432304
" clip-path="url(#p6bbc265432)" style="fill: none; stroke: #cbd5df; stroke-opacity: 0.25; stroke-width: 0.8; stroke-linecap: square"/>
     </g>
     <g id="line2d_36">
      <g>
       <use xlink:href="#m3f4d5b732d" x="453.01625" y="118.432304" style="fill: #17324d; stroke: #17324d; stroke-width: 0.8"/>
      </g>
     </g>
     <g id="text_22">
      <text style="font-size: 10px; font-family: 'Hiragino Sans'; text-anchor: end; fill: #17324d" x="446.01625" y="122.286992" transform="rotate(-0 446.01625 122.286992)">1200</text>
     </g>
    </g>
    <g id="ytick_14">
     <g id="line2d_37">
      <path d="M 453.01625 89.417935
L 778.97625 89.417935
" clip-path="url(#p6bbc265432)" style="fill: none; stroke: #cbd5df; stroke-opacity: 0.25; stroke-width: 0.8; stroke-linecap: square"/>
     </g>
     <g id="line2d_38">
      <g>
       <use xlink:href="#m3f4d5b732d" x="453.01625" y="89.417935" style="fill: #17324d; stroke: #17324d; stroke-width: 0.8"/>
      </g>
     </g>
     <g id="text_23">
      <text style="font-size: 10px; font-family: 'Hiragino Sans'; text-anchor: end; fill: #17324d" x="446.01625" y="93.272622" transform="rotate(-0 446.01625 93.272622)">1400</text>
     </g>
    </g>
    <g id="text_24">
     <text style="font-size: 10px; font-family: 'Hiragino Sans'; text-anchor: middle; fill: #17324d" x="413.027187" y="158.327063" transform="rotate(-90 413.027187 158.327063)">Temperature / K</text>
    </g>
   </g>
   <g id="line2d_39">
    <path d="M 462.489678 230.137627
L 463.548161 219.198232
L 464.606645 214.666987
L 465.665128 211.19004
L 466.723612 208.258838
L 468.840579 203.341692
L 470.957546 199.196346
L 473.074513 195.544223
L 475.19148 192.242452
L 478.36693 187.769533
L 481.542381 183.725706
L 484.717831 180.007022
L 488.951766 175.440653
L 493.1857 171.227183
L 497.419634 167.295588
L 502.712051 162.702669
L 508.004469 158.403218
L 514.35537 153.561863
L 520.706271 149.008904
L 528.115656 144.000746
L 535.52504 139.268189
L 543.992909 134.144827
L 552.460777 129.28139
L 561.987128 124.076259
L 571.51348 119.114895
L 582.098315 113.850265
L 593.741634 108.321682
L 605.384953 103.033345
L 618.086755 97.504514
L 631.847041 91.764012
L 646.66581 85.837099
L 651.958228 83.778499
L 651.958228 83.778499
" clip-path="url(#p6bbc265432)" style="fill: none; stroke: #e76f51; stroke-width: 2.8; stroke-linecap: square"/>
   </g>
   <g id="patch_6">
    <path d="M 453.01625 241.743375
L 453.01625 74.91075
" style="fill: none; stroke: #17324d; stroke-width: 0.8; stroke-linejoin: miter; stroke-linecap: square"/>
   </g>
   <g id="patch_7">
    <path d="M 453.01625 241.743375
L 778.97625 241.743375
" style="fill: none; stroke: #17324d; stroke-width: 0.8; stroke-linejoin: miter; stroke-linecap: square"/>
   </g>
   <g id="text_25">
    <text style="font-size: 10px; font-family: 'Hiragino Sans'; fill: #17324d" transform="translate(486.603222 110.032491)">α-Cu</text>
    <text style="font-size: 10px; font-family: 'Hiragino Sans'; fill: #17324d" transform="translate(462.98291 121.333741)">(Fe in solution)</text>
   </g>
   <g id="text_26">
    <text style="font-weight: 700; font-size: 10px; font-family: 'Hiragino Sans'; text-anchor: middle; fill: #17324d" x="646.05189" y="204.024695" transform="rotate(-0 646.05189 204.024695)">α-Cu + Fe-rich phase</text>
   </g>
   <g id="patch_8">
    <path d="M 594.805554 123.266951
Q 553.307158 140.41557 512.842048 157.137198
" style="fill: none; stroke: #17324d; stroke-linecap: round"/>
    <path d="M 517.302667 157.457948
L 512.842048 157.137198
L 515.775019 153.761153
" style="fill: none; stroke: #17324d; stroke-linecap: round"/>
   </g>
   <g id="text_27">
    <text style="font-size: 10px; font-family: 'Hiragino Sans'; fill: #17324d" transform="translate(577.12832 107.081054)">solubility decreases</text>
    <text style="font-size: 10px; font-family: 'Hiragino Sans'; fill: #17324d" transform="translate(600.813476 118.432304)">on cooling</text>
   </g>
   <g id="text_28">
    <text style="font-size: 10px; font-family: 'Hiragino Sans'; text-anchor: end; fill: #64748b" x="772.45705" y="235.07007" transform="rotate(-0 772.45705 235.07007)">Cu-rich corner; not to scale</text>
   </g>
   <g id="text_29">
    <text style="font-size: 12px; font-family: 'Hiragino Sans'; text-anchor: middle; fill: #17324d" x="615.99625" y="68.91075" transform="rotate(-0 615.99625 68.91075)">(b) Cu-rich Cu–Fe: precipitation</text>
   </g>
  </g>
  <g id="axes_3">
   <g id="patch_9">
    <path d="M 54.96875 452.536
L 380.92875 452.536
L 380.92875 285.703375
L 54.96875 285.703375
z
" style="fill: #ffffff"/>
   </g>
   <g id="patch_10">
    <path d="M 308.076898 452.536
L 343.462083 452.536
L 343.462083 285.703375
L 308.076898 285.703375
z
" clip-path="url(#p23a6d4bd72)" style="fill: #6c5ce7; opacity: 0.22; stroke: #6c5ce7; stroke-linejoin: miter"/>
   </g>
   <g id="matplotlib.axis_5">
    <g id="xtick_5">
     <g id="line2d_40">
      <path d="M 68.706528 452.536
L 68.706528 285.703375
" clip-path="url(#p23a6d4bd72)" style="fill: none; stroke: #cbd5df; stroke-opacity: 0.25; stroke-width: 0.8; stroke-linecap: square"/>
     </g>
     <g id="line2d_41">
      <g>
       <use xlink:href="#mfec03084be" x="68.706528" y="452.536" style="fill: #17324d; stroke: #17324d; stroke-width: 0.8"/>
      </g>
     </g>
     <g id="text_30">
      <text style="font-size: 10px; font-family: 'Hiragino Sans'; text-anchor: middle; fill: #17324d" x="68.706528" y="467.245375" transform="rotate(-0 68.706528 467.245375)">Cu</text>
     </g>
    </g>
    <g id="xtick_6">
     <g id="line2d_42">
      <path d="M 380.92875 452.536
L 380.92875 285.703375
" clip-path="url(#p23a6d4bd72)" style="fill: none; stroke: #cbd5df; stroke-opacity: 0.25; stroke-width: 0.8; stroke-linecap: square"/>
     </g>
     <g id="line2d_43">
      <g>
       <use xlink:href="#mfec03084be" x="380.92875" y="452.536" style="fill: #17324d; stroke: #17324d; stroke-width: 0.8"/>
      </g>
     </g>
     <g id="text_31">
      <text style="font-size: 10px; font-family: 'Hiragino Sans'; text-anchor: middle; fill: #17324d" x="380.92875" y="467.245375" transform="rotate(-0 380.92875 467.245375)">As →</text>
     </g>
    </g>
    <g id="text_32">
     <text style="font-size: 10px; font-family: 'Hiragino Sans'; text-anchor: middle; fill: #17324d" x="217.94875" y="481.00475" transform="rotate(-0 217.94875 481.00475)">Solute content</text>
    </g>
   </g>
   <g id="matplotlib.axis_6">
    <g id="ytick_15">
     <g id="line2d_44">
      <path d="M 54.96875 444.194369
L 380.92875 444.194369
" clip-path="url(#p23a6d4bd72)" style="fill: none; stroke: #cbd5df; stroke-opacity: 0.25; stroke-width: 0.8; stroke-linecap: square"/>
     </g>
     <g id="line2d_45">
      <g>
       <use xlink:href="#m3f4d5b732d" x="54.96875" y="444.194369" style="fill: #17324d; stroke: #17324d; stroke-width: 0.8"/>
      </g>
     </g>
     <g id="text_33">
      <text style="font-size: 10px; font-family: 'Hiragino Sans'; text-anchor: end; fill: #17324d" x="47.96875" y="448.049056" transform="rotate(-0 47.96875 448.049056)">400</text>
     </g>
    </g>
    <g id="ytick_16">
     <g id="line2d_46">
      <path d="M 54.96875 410.827844
L 380.92875 410.827844
" clip-path="url(#p23a6d4bd72)" style="fill: none; stroke: #cbd5df; stroke-opacity: 0.25; stroke-width: 0.8; stroke-linecap: square"/>
     </g>
     <g id="line2d_47">
      <g>
       <use xlink:href="#m3f4d5b732d" x="54.96875" y="410.827844" style="fill: #17324d; stroke: #17324d; stroke-width: 0.8"/>
      </g>
     </g>
     <g id="text_34">
      <text style="font-size: 10px; font-family: 'Hiragino Sans'; text-anchor: end; fill: #17324d" x="47.96875" y="414.682531" transform="rotate(-0 47.96875 414.682531)">600</text>
     </g>
    </g>
    <g id="ytick_17">
     <g id="line2d_48">
      <path d="M 54.96875 377.461319
L 380.92875 377.461319
" clip-path="url(#p23a6d4bd72)" style="fill: none; stroke: #cbd5df; stroke-opacity: 0.25; stroke-width: 0.8; stroke-linecap: square"/>
     </g>
     <g id="line2d_49">
      <g>
       <use xlink:href="#m3f4d5b732d" x="54.96875" y="377.461319" style="fill: #17324d; stroke: #17324d; stroke-width: 0.8"/>
      </g>
     </g>
     <g id="text_35">
      <text style="font-size: 10px; font-family: 'Hiragino Sans'; text-anchor: end; fill: #17324d" x="47.96875" y="381.316006" transform="rotate(-0 47.96875 381.316006)">800</text>
     </g>
    </g>
    <g id="ytick_18">
     <g id="line2d_50">
      <path d="M 54.96875 344.094794
L 380.92875 344.094794
" clip-path="url(#p23a6d4bd72)" style="fill: none; stroke: #cbd5df; stroke-opacity: 0.25; stroke-width: 0.8; stroke-linecap: square"/>
     </g>
     <g id="line2d_51">
      <g>
       <use xlink:href="#m3f4d5b732d" x="54.96875" y="344.094794" style="fill: #17324d; stroke: #17324d; stroke-width: 0.8"/>
      </g>
     </g>
     <g id="text_36">
      <text style="font-size: 10px; font-family: 'Hiragino Sans'; text-anchor: end; fill: #17324d" x="47.96875" y="347.949481" transform="rotate(-0 47.96875 347.949481)">1000</text>
     </g>
    </g>
    <g id="ytick_19">
     <g id="line2d_52">
      <path d="M 54.96875 310.728269
L 380.92875 310.728269
" clip-path="url(#p23a6d4bd72)" style="fill: none; stroke: #cbd5df; stroke-opacity: 0.25; stroke-width: 0.8; stroke-linecap: square"/>
     </g>
     <g id="line2d_53">
      <g>
       <use xlink:href="#m3f4d5b732d" x="54.96875" y="310.728269" style="fill: #17324d; stroke: #17324d; stroke-width: 0.8"/>
      </g>
     </g>
     <g id="text_37">
      <text style="font-size: 10px; font-family: 'Hiragino Sans'; text-anchor: end; fill: #17324d" x="47.96875" y="314.582956" transform="rotate(-0 47.96875 314.582956)">1200</text>
     </g>
    </g>
    <g id="text_38">
     <text style="font-size: 10px; font-family: 'Hiragino Sans'; text-anchor: middle; fill: #17324d" x="15" y="369.119687" transform="rotate(-90 15 369.119687)">Temperature / K</text>
    </g>
   </g>
   <g id="line2d_54">
    <path d="M 68.706528 440.857716
L 69.750749 433.513502
L 70.794971 430.471429
L 71.839192 428.137164
L 73.927635 424.435554
L 76.016078 421.426752
L 78.104521 418.825073
L 81.237186 415.416612
L 84.36985 412.413696
L 87.502514 409.698854
L 91.6794 406.410298
L 95.856286 403.409424
L 101.077394 399.966861
L 106.298501 396.79243
L 112.56383 393.261768
L 118.829159 389.975507
L 126.138709 386.391565
L 134.492481 382.564822
L 142.846253 378.974266
L 152.244246 375.169066
L 162.686461 371.184382
L 174.172897 367.049276
L 186.703555 362.787647
L 200.278434 358.419115
L 213.853313 354.270706
L 213.853313 354.270706
" clip-path="url(#p23a6d4bd72)" style="fill: none; stroke: #2a9d8f; stroke-width: 2.8; stroke-linecap: square"/>
   </g>
   <g id="patch_11">
    <path d="M 54.96875 452.536
L 54.96875 285.703375
" style="fill: none; stroke: #17324d; stroke-width: 0.8; stroke-linejoin: miter; stroke-linecap: square"/>
   </g>
   <g id="patch_12">
    <path d="M 54.96875 452.536
L 380.92875 452.536
" style="fill: none; stroke: #17324d; stroke-width: 0.8; stroke-linejoin: miter; stroke-linecap: square"/>
   </g>
   <g id="text_39">
    <text style="font-size: 10px; font-family: 'Hiragino Sans'; fill: #17324d" transform="translate(98.552795 329.456891)">α-Cu</text>
    <text style="font-size: 10px; font-family: 'Hiragino Sans'; fill: #17324d" transform="translate(74.41842 340.758141)">(As in solution)</text>
   </g>
   <g id="text_40">
    <text style="font-size: 10px; font-family: 'Hiragino Sans'; text-anchor: middle; fill: #17324d" x="214.410231" y="424.174454" transform="rotate(-0 214.410231 424.174454)">α-Cu + As-rich phase</text>
   </g>
   <g id="text_41">
    <!-- $\mathrm{Cu_3As}$- -->
    <g style="fill: #17324d" transform="translate(308.419491 335.836446)">
     <text>
      <tspan x="0" y="-0.578125" style="font-size: 10px; font-family: 'DejaVu Sans'; fill: #17324d">C</tspan>
      <tspan x="6.982422" y="-0.578125" style="font-size: 10px; font-family: 'DejaVu Sans'; fill: #17324d">u</tspan>
      <tspan x="18.143066" y="-0.578125" style="font-size: 10px; font-family: 'DejaVu Sans'; fill: #17324d">A</tspan>
      <tspan x="24.983887" y="-0.578125" style="font-size: 10px; font-family: 'DejaVu Sans'; fill: #17324d">s</tspan>
      <tspan x="13.416016" y="1.0625" style="font-size: 7px; font-family: 'DejaVu Sans'; fill: #17324d">3</tspan>
      <tspan x="30.193848" y="-0.578125" style="font-weight: 700; font-size: 10px; font-family: 'Hiragino Sans'; fill: #17324d">-</tspan>
     </text>
    </g>
    <text style="font-weight: 700; font-size: 10px; font-family: 'Hiragino Sans'; fill: #17324d" transform="translate(305.830428 347.431446)">related</text>
   </g>
   <g id="text_42">
    <text style="font-size: 10px; font-family: 'Hiragino Sans'; text-anchor: end; fill: #64748b" x="374.40955" y="445.862695" transform="rotate(-0 374.40955 445.862695)">topology only; not to scale</text>
   </g>
   <g id="text_43">
    <text style="font-size: 12px; font-family: 'Hiragino Sans'; text-anchor: middle; fill: #17324d" x="217.94875" y="279.703375" transform="rotate(-0 217.94875 279.703375)">(c) Cu-rich Cu–As: appreciable solubility</text>
   </g>
  </g>
  <g id="axes_4">
   <g id="patch_13">
    <path d="M 453.01625 452.536
L 778.97625 452.536
L 778.97625 285.703375
L 453.01625 285.703375
z
" style="fill: #ffffff"/>
   </g>
   <g id="patch_14">
    <path d="M 467.832614 452.536
L 475.981614 452.536
L 475.981614 285.703375
L 467.832614 285.703375
z
" clip-path="url(#p5173817be6)" style="fill: #2a9d8f; opacity: 0.18; stroke: #2a9d8f; stroke-linejoin: miter"/>
   </g>
   <g id="matplotlib.axis_7">
    <g id="xtick_7">
     <g id="line2d_55">
      <path d="M 467.832614 452.536
L 467.832614 285.703375
" clip-path="url(#p5173817be6)" style="fill: none; stroke: #cbd5df; stroke-opacity: 0.25; stroke-width: 0.8; stroke-linecap: square"/>
     </g>
     <g id="line2d_56">
      <g>
       <use xlink:href="#mfec03084be" x="467.832614" y="452.536" style="fill: #17324d; stroke: #17324d; stroke-width: 0.8"/>
      </g>
     </g>
     <g id="text_44">
      <text style="font-size: 10px; font-family: 'Hiragino Sans'; text-anchor: middle; fill: #17324d" x="467.832614" y="467.245375" transform="rotate(-0 467.832614 467.245375)">Cu</text>
     </g>
    </g>
    <g id="xtick_8">
     <g id="line2d_57">
      <path d="M 764.159886 452.536
L 764.159886 285.703375
" clip-path="url(#p5173817be6)" style="fill: none; stroke: #cbd5df; stroke-opacity: 0.25; stroke-width: 0.8; stroke-linecap: square"/>
     </g>
     <g id="line2d_58">
      <g>
       <use xlink:href="#mfec03084be" x="764.159886" y="452.536" style="fill: #17324d; stroke: #17324d; stroke-width: 0.8"/>
      </g>
     </g>
     <g id="text_45">
      <text style="font-size: 10px; font-family: 'Hiragino Sans'; text-anchor: middle; fill: #17324d" x="764.159886" y="467.245375" transform="rotate(-0 764.159886 467.245375)">Bi →</text>
     </g>
    </g>
    <g id="text_46">
     <text style="font-size: 10px; font-family: 'Hiragino Sans'; text-anchor: middle; fill: #17324d" x="615.99625" y="481.00475" transform="rotate(-0 615.99625 481.00475)">Solute content</text>
    </g>
   </g>
   <g id="matplotlib.axis_8">
    <g id="ytick_20">
     <g id="line2d_59">
      <path d="M 453.01625 444.952699
L 778.97625 444.952699
" clip-path="url(#p5173817be6)" style="fill: none; stroke: #cbd5df; stroke-opacity: 0.25; stroke-width: 0.8; stroke-linecap: square"/>
     </g>
     <g id="line2d_60">
      <g>
       <use xlink:href="#m3f4d5b732d" x="453.01625" y="444.952699" style="fill: #17324d; stroke: #17324d; stroke-width: 0.8"/>
      </g>
     </g>
     <g id="text_47">
      <text style="font-size: 10px; font-family: 'Hiragino Sans'; text-anchor: end; fill: #17324d" x="446.01625" y="448.807386" transform="rotate(-0 446.01625 448.807386)">400</text>
     </g>
    </g>
    <g id="ytick_21">
     <g id="line2d_61">
      <path d="M 453.01625 414.619494
L 778.97625 414.619494
" clip-path="url(#p5173817be6)" style="fill: none; stroke: #cbd5df; stroke-opacity: 0.25; stroke-width: 0.8; stroke-linecap: square"/>
     </g>
     <g id="line2d_62">
      <g>
       <use xlink:href="#m3f4d5b732d" x="453.01625" y="414.619494" style="fill: #17324d; stroke: #17324d; stroke-width: 0.8"/>
      </g>
     </g>
     <g id="text_48">
      <text style="font-size: 10px; font-family: 'Hiragino Sans'; text-anchor: end; fill: #17324d" x="446.01625" y="418.474182" transform="rotate(-0 446.01625 418.474182)">600</text>
     </g>
    </g>
    <g id="ytick_22">
     <g id="line2d_63">
      <path d="M 453.01625 384.28629
L 778.97625 384.28629
" clip-path="url(#p5173817be6)" style="fill: none; stroke: #cbd5df; stroke-opacity: 0.25; stroke-width: 0.8; stroke-linecap: square"/>
     </g>
     <g id="line2d_64">
      <g>
       <use xlink:href="#m3f4d5b732d" x="453.01625" y="384.28629" style="fill: #17324d; stroke: #17324d; stroke-width: 0.8"/>
      </g>
     </g>
     <g id="text_49">
      <text style="font-size: 10px; font-family: 'Hiragino Sans'; text-anchor: end; fill: #17324d" x="446.01625" y="388.140977" transform="rotate(-0 446.01625 388.140977)">800</text>
     </g>
    </g>
    <g id="ytick_23">
     <g id="line2d_65">
      <path d="M 453.01625 353.953085
L 778.97625 353.953085
" clip-path="url(#p5173817be6)" style="fill: none; stroke: #cbd5df; stroke-opacity: 0.25; stroke-width: 0.8; stroke-linecap: square"/>
     </g>
     <g id="line2d_66">
      <g>
       <use xlink:href="#m3f4d5b732d" x="453.01625" y="353.953085" style="fill: #17324d; stroke: #17324d; stroke-width: 0.8"/>
      </g>
     </g>
     <g id="text_50">
      <text style="font-size: 10px; font-family: 'Hiragino Sans'; text-anchor: end; fill: #17324d" x="446.01625" y="357.807773" transform="rotate(-0 446.01625 357.807773)">1000</text>
     </g>
    </g>
    <g id="ytick_24">
     <g id="line2d_67">
      <path d="M 453.01625 323.619881
L 778.97625 323.619881
" clip-path="url(#p5173817be6)" style="fill: none; stroke: #cbd5df; stroke-opacity: 0.25; stroke-width: 0.8; stroke-linecap: square"/>
     </g>
     <g id="line2d_68">
      <g>
       <use xlink:href="#m3f4d5b732d" x="453.01625" y="323.619881" style="fill: #17324d; stroke: #17324d; stroke-width: 0.8"/>
      </g>
     </g>
     <g id="text_51">
      <text style="font-size: 10px; font-family: 'Hiragino Sans'; text-anchor: end; fill: #17324d" x="446.01625" y="327.474568" transform="rotate(-0 446.01625 327.474568)">1200</text>
     </g>
    </g>
    <g id="ytick_25">
     <g id="line2d_69">
      <path d="M 453.01625 293.286676
L 778.97625 293.286676
" clip-path="url(#p5173817be6)" style="fill: none; stroke: #cbd5df; stroke-opacity: 0.25; stroke-width: 0.8; stroke-linecap: square"/>
     </g>
     <g id="line2d_70">
      <g>
       <use xlink:href="#m3f4d5b732d" x="453.01625" y="293.286676" style="fill: #17324d; stroke: #17324d; stroke-width: 0.8"/>
      </g>
     </g>
     <g id="text_52">
      <text style="font-size: 10px; font-family: 'Hiragino Sans'; text-anchor: end; fill: #17324d" x="446.01625" y="297.141364" transform="rotate(-0 446.01625 297.141364)">1400</text>
     </g>
    </g>
    <g id="text_53">
     <text style="font-size: 10px; font-family: 'Hiragino Sans'; text-anchor: middle; fill: #17324d" x="413.027187" y="369.119687" transform="rotate(-90 413.027187 369.119687)">Temperature / K</text>
    </g>
   </g>
   <g id="line2d_71">
    <path d="M 467.832614 299.656649
L 468.823675 302.638814
L 469.814736 303.874067
L 471.796858 305.620978
L 473.77898 306.961431
L 476.752164 308.603143
L 479.725347 309.987171
L 483.689591 311.585308
L 488.644897 313.322644
L 494.591264 315.152431
L 501.528691 317.045508
L 509.45718 318.983285
L 519.367792 321.161344
L 530.269464 323.326847
L 543.153258 325.654558
L 558.019175 328.104687
L 574.867214 330.648213
L 593.697375 333.263938
L 615.500719 336.058608
L 639.286186 338.880901
L 666.044836 341.830826
L 695.77667 344.883416
L 729.472747 348.11109
L 764.159886 351.223097
L 764.159886 351.223097
" clip-path="url(#p5173817be6)" style="fill: none; stroke: #e76f51; stroke-width: 2.6; stroke-linecap: square"/>
   </g>
   <g id="line2d_72">
    <path d="M 453.01625 423.112792
L 778.97625 423.112792
" clip-path="url(#p5173817be6)" style="fill: none; stroke: #457b9d; stroke-width: 2.2; stroke-linecap: square"/>
   </g>
   <g id="patch_15">
    <path d="M 453.01625 452.536
L 453.01625 285.703375
" style="fill: none; stroke: #17324d; stroke-width: 0.8; stroke-linejoin: miter; stroke-linecap: square"/>
   </g>
   <g id="patch_16">
    <path d="M 453.01625 452.536
L 778.97625 452.536
" style="fill: none; stroke: #17324d; stroke-width: 0.8; stroke-linejoin: miter; stroke-linecap: square"/>
   </g>
   <g id="text_54">
    <text style="font-size: 10px; font-family: 'Hiragino Sans'; text-anchor: middle; fill: #17324d" x="564.138977" y="322.10322" transform="rotate(-0 564.138977 322.10322)">L</text>
   </g>
   <g id="text_55">
    <text style="font-size: 10px; font-family: 'Hiragino Sans'; text-anchor: middle; fill: #17324d" x="630.812614" y="379.736309" transform="rotate(-0 630.812614 379.736309)">α-Cu + L</text>
   </g>
   <g id="text_56">
    <text style="font-weight: 700; font-size: 10px; font-family: 'Hiragino Sans'; text-anchor: middle; fill: #17324d" x="615.99625" y="437.369398" transform="rotate(-0 615.99625 437.369398)">α-Cu + Bi</text>
   </g>
   <g id="patch_17">
    <path d="M 532.937582 360.666631
Q 504.18454 379.511725 476.366588 397.743951
" style="fill: none; stroke: #17324d; stroke-linecap: round"/>
    <path d="M 480.808398 397.224024
L 476.366588 397.743951
L 478.615731 393.878547
" style="fill: none; stroke: #17324d; stroke-linecap: round"/>
   </g>
   <g id="text_57">
    <text style="font-size: 10px; font-family: 'Hiragino Sans'; fill: #17324d" transform="translate(517.19721 344.168495)">near-zero bulk</text>
    <text style="font-size: 10px; font-family: 'Hiragino Sans'; fill: #17324d" transform="translate(531.522991 355.469745)">solubility</text>
   </g>
   <g id="text_58">
    <text style="font-size: 10px; font-family: 'Hiragino Sans'; text-anchor: end; fill: #64748b" x="772.45705" y="445.862695" transform="rotate(-0 772.45705 445.862695)">Cu-rich corner; not to scale</text>
   </g>
   <g id="text_59">
    <text style="font-size: 12px; font-family: 'Hiragino Sans'; text-anchor: middle; fill: #17324d" x="615.99625" y="279.703375" transform="rotate(-0 615.99625 279.703375)">(d) Cu-rich Cu–Bi: phase separation</text>
   </g>
  </g>
  <g id="text_60">
   <text style="font-weight: 700; font-size: 15px; font-family: 'Hiragino Sans'; text-anchor: middle; fill: #17324d" x="399.31125" y="19.335937" transform="rotate(-0 399.31125 19.335937)">Cu binary systems — schematic phase-diagram reading</text>
  </g>
  <g id="text_61">
   <text style="font-size: 10px; font-family: 'Hiragino Sans'; text-anchor: middle; fill: #64748b" x="399.31125" y="510.048" transform="rotate(-0 399.31125 510.048)">Purpose: compare phase constitution near dilute Cu. Horizontal scales differ; no quantitative reading.</text>
  </g>
 </g>
 <defs>
  <clipPath id="p12e85cfef9">
   <rect x="54.96875" y="74.91075" width="325.96" height="166.832625"/>
  </clipPath>
  <clipPath id="p6bbc265432">
   <rect x="453.01625" y="74.91075" width="325.96" height="166.832625"/>
  </clipPath>
  <clipPath id="p23a6d4bd72">
   <rect x="54.96875" y="285.703375" width="325.96" height="166.832625"/>
  </clipPath>
  <clipPath id="p5173817be6">
   <rect x="453.01625" y="285.703375" width="325.96" height="166.832625"/>
  </clipPath>
 </defs>
</svg>
