<?xml version="1.0" encoding="utf-8" standalone="no"?>
<!DOCTYPE svg PUBLIC "-//W3C//DTD SVG 1.1//EN"
  "http://www.w3.org/Graphics/SVG/1.1/DTD/svg11.dtd">
<svg xmlns:xlink="http://www.w3.org/1999/xlink" width="881.419688pt" height="448.5652pt" viewBox="0 0 881.419688 448.5652" xmlns="http://www.w3.org/2000/svg" version="1.1">
 <metadata>
  <rdf:RDF xmlns:dc="http://purl.org/dc/elements/1.1/" xmlns:cc="http://creativecommons.org/ns#" xmlns:rdf="http://www.w3.org/1999/02/22-rdf-syntax-ns#">
   <cc:Work>
    <dc:type rdf:resource="http://purl.org/dc/dcmitype/StillImage"/>
    <dc:format>image/svg+xml</dc:format>
    <dc:creator>
     <cc:Agent>
      <dc:title>Matplotlib v3.10.9, https://matplotlib.org/</dc:title>
     </cc:Agent>
    </dc:creator>
   </cc:Work>
  </rdf:RDF>
 </metadata>
 <defs>
  <style type="text/css">*{stroke-linejoin: round; stroke-linecap: butt}</style>
 </defs>
 <g id="figure_1">
  <g id="patch_1">
   <path d="M 0 448.5652
L 881.419688 448.5652
L 881.419688 0
L 0 0
z
" style="fill: #ffffff"/>
  </g>
  <g id="axes_1">
   <g id="patch_2">
    <path d="M 48.379688 382.176
L 293.073021 382.176
L 293.073021 74.16
L 48.379688 74.16
z
" style="fill: #ffffff"/>
   </g>
   <g id="patch_3">
    <path d="M 48.379688 141.3936
L 293.073021 141.3936
L 293.073021 100.656
L 48.379688 100.656
z
" clip-path="url(#p9d16cd8a94)" style="fill: #e9c46a; opacity: 0.12; stroke: #e9c46a; stroke-linejoin: miter"/>
   </g>
   <g id="matplotlib.axis_1">
    <g id="xtick_1">
     <g id="line2d_1">
      <path d="M 48.379688 382.176
L 48.379688 74.16
" clip-path="url(#p9d16cd8a94)" style="fill: none; stroke: #cbd5df; stroke-opacity: 0.2; stroke-width: 0.8; stroke-linecap: square"/>
     </g>
     <g id="line2d_2">
      <defs>
       <path id="m41dd3edd73" d="M 0 0
L 0 3.5
" style="stroke: #17324d; stroke-width: 0.8"/>
      </defs>
      <g>
       <use xlink:href="#m41dd3edd73" x="48.379688" y="382.176" style="fill: #17324d; stroke: #17324d; stroke-width: 0.8"/>
      </g>
     </g>
     <g id="text_1">
      <text style="font-size: 10px; font-family: 'Hiragino Sans'; text-anchor: middle; fill: #17324d" x="48.379688" y="396.885375" transform="rotate(-0 48.379688 396.885375)">0</text>
     </g>
    </g>
    <g id="xtick_2">
     <g id="line2d_3">
      <path d="M 89.16191 382.176
L 89.16191 74.16
" clip-path="url(#p9d16cd8a94)" style="fill: none; stroke: #cbd5df; stroke-opacity: 0.2; stroke-width: 0.8; stroke-linecap: square"/>
     </g>
     <g id="line2d_4">
      <g>
       <use xlink:href="#m41dd3edd73" x="89.16191" y="382.176" style="fill: #17324d; stroke: #17324d; stroke-width: 0.8"/>
      </g>
     </g>
     <g id="text_2">
      <text style="font-size: 10px; font-family: 'Hiragino Sans'; text-anchor: middle; fill: #17324d" x="89.16191" y="396.885375" transform="rotate(-0 89.16191 396.885375)">1</text>
     </g>
    </g>
    <g id="xtick_3">
     <g id="line2d_5">
      <path d="M 129.944132 382.176
L 129.944132 74.16
" clip-path="url(#p9d16cd8a94)" style="fill: none; stroke: #cbd5df; stroke-opacity: 0.2; stroke-width: 0.8; stroke-linecap: square"/>
     </g>
     <g id="line2d_6">
      <g>
       <use xlink:href="#m41dd3edd73" x="129.944132" y="382.176" style="fill: #17324d; stroke: #17324d; stroke-width: 0.8"/>
      </g>
     </g>
     <g id="text_3">
      <text style="font-size: 10px; font-family: 'Hiragino Sans'; text-anchor: middle; fill: #17324d" x="129.944132" y="396.885375" transform="rotate(-0 129.944132 396.885375)">2</text>
     </g>
    </g>
    <g id="xtick_4">
     <g id="line2d_7">
      <path d="M 170.726354 382.176
L 170.726354 74.16
" clip-path="url(#p9d16cd8a94)" style="fill: none; stroke: #cbd5df; stroke-opacity: 0.2; stroke-width: 0.8; stroke-linecap: square"/>
     </g>
     <g id="line2d_8">
      <g>
       <use xlink:href="#m41dd3edd73" x="170.726354" y="382.176" style="fill: #17324d; stroke: #17324d; stroke-width: 0.8"/>
      </g>
     </g>
     <g id="text_4">
      <text style="font-size: 10px; font-family: 'Hiragino Sans'; text-anchor: middle; fill: #17324d" x="170.726354" y="396.885375" transform="rotate(-0 170.726354 396.885375)">3</text>
     </g>
    </g>
    <g id="xtick_5">
     <g id="line2d_9">
      <path d="M 211.508576 382.176
L 211.508576 74.16
" clip-path="url(#p9d16cd8a94)" style="fill: none; stroke: #cbd5df; stroke-opacity: 0.2; stroke-width: 0.8; stroke-linecap: square"/>
     </g>
     <g id="line2d_10">
      <g>
       <use xlink:href="#m41dd3edd73" x="211.508576" y="382.176" style="fill: #17324d; stroke: #17324d; stroke-width: 0.8"/>
      </g>
     </g>
     <g id="text_5">
      <text style="font-size: 10px; font-family: 'Hiragino Sans'; text-anchor: middle; fill: #17324d" x="211.508576" y="396.885375" transform="rotate(-0 211.508576 396.885375)">4</text>
     </g>
    </g>
    <g id="xtick_6">
     <g id="line2d_11">
      <path d="M 252.290799 382.176
L 252.290799 74.16
" clip-path="url(#p9d16cd8a94)" style="fill: none; stroke: #cbd5df; stroke-opacity: 0.2; stroke-width: 0.8; stroke-linecap: square"/>
     </g>
     <g id="line2d_12">
      <g>
       <use xlink:href="#m41dd3edd73" x="252.290799" y="382.176" style="fill: #17324d; stroke: #17324d; stroke-width: 0.8"/>
      </g>
     </g>
     <g id="text_6">
      <text style="font-size: 10px; font-family: 'Hiragino Sans'; text-anchor: middle; fill: #17324d" x="252.290799" y="396.885375" transform="rotate(-0 252.290799 396.885375)">5</text>
     </g>
    </g>
    <g id="xtick_7">
     <g id="line2d_13">
      <path d="M 293.073021 382.176
L 293.073021 74.16
" clip-path="url(#p9d16cd8a94)" style="fill: none; stroke: #cbd5df; stroke-opacity: 0.2; stroke-width: 0.8; stroke-linecap: square"/>
     </g>
     <g id="line2d_14">
      <g>
       <use xlink:href="#m41dd3edd73" x="293.073021" y="382.176" style="fill: #17324d; stroke: #17324d; stroke-width: 0.8"/>
      </g>
     </g>
     <g id="text_7">
      <text style="font-size: 10px; font-family: 'Hiragino Sans'; text-anchor: middle; fill: #17324d" x="293.073021" y="396.885375" transform="rotate(-0 293.073021 396.885375)">6</text>
     </g>
    </g>
    <g id="text_8">
     <text style="font-size: 10px; font-family: 'Hiragino Sans'; text-anchor: middle; fill: #17324d" x="170.726354" y="410.64475" transform="rotate(-0 170.726354 410.64475)">時間（模式）</text>
    </g>
   </g>
   <g id="matplotlib.axis_2">
    <g id="ytick_1">
     <g id="line2d_15">
      <path d="M 48.379688 382.176
L 293.073021 382.176
" clip-path="url(#p9d16cd8a94)" style="fill: none; stroke: #cbd5df; stroke-opacity: 0.2; stroke-width: 0.8; stroke-linecap: square"/>
     </g>
     <g id="line2d_16">
      <defs>
       <path id="m7ba8299c01" d="M 0 0
L -3.5 0
" style="stroke: #17324d; stroke-width: 0.8"/>
      </defs>
      <g>
       <use xlink:href="#m7ba8299c01" x="48.379688" y="382.176" style="fill: #17324d; stroke: #17324d; stroke-width: 0.8"/>
      </g>
     </g>
     <g id="text_9">
      <text style="font-size: 10px; font-family: 'Hiragino Sans'; text-anchor: end; fill: #17324d" x="41.379688" y="386.030687" transform="rotate(-0 41.379688 386.030687)">0</text>
     </g>
    </g>
    <g id="ytick_2">
     <g id="line2d_17">
      <path d="M 48.379688 315.936
L 293.073021 315.936
" clip-path="url(#p9d16cd8a94)" style="fill: none; stroke: #cbd5df; stroke-opacity: 0.2; stroke-width: 0.8; stroke-linecap: square"/>
     </g>
     <g id="line2d_18">
      <g>
       <use xlink:href="#m7ba8299c01" x="48.379688" y="315.936" style="fill: #17324d; stroke: #17324d; stroke-width: 0.8"/>
      </g>
     </g>
     <g id="text_10">
      <text style="font-size: 10px; font-family: 'Hiragino Sans'; text-anchor: end; fill: #17324d" x="41.379688" y="319.790687" transform="rotate(-0 41.379688 319.790687)">200</text>
     </g>
    </g>
    <g id="ytick_3">
     <g id="line2d_19">
      <path d="M 48.379688 249.696
L 293.073021 249.696
" clip-path="url(#p9d16cd8a94)" style="fill: none; stroke: #cbd5df; stroke-opacity: 0.2; stroke-width: 0.8; stroke-linecap: square"/>
     </g>
     <g id="line2d_20">
      <g>
       <use xlink:href="#m7ba8299c01" x="48.379688" y="249.696" style="fill: #17324d; stroke: #17324d; stroke-width: 0.8"/>
      </g>
     </g>
     <g id="text_11">
      <text style="font-size: 10px; font-family: 'Hiragino Sans'; text-anchor: end; fill: #17324d" x="41.379688" y="253.550688" transform="rotate(-0 41.379688 253.550688)">400</text>
     </g>
    </g>
    <g id="ytick_4">
     <g id="line2d_21">
      <path d="M 48.379688 183.456
L 293.073021 183.456
" clip-path="url(#p9d16cd8a94)" style="fill: none; stroke: #cbd5df; stroke-opacity: 0.2; stroke-width: 0.8; stroke-linecap: square"/>
     </g>
     <g id="line2d_22">
      <g>
       <use xlink:href="#m7ba8299c01" x="48.379688" y="183.456" style="fill: #17324d; stroke: #17324d; stroke-width: 0.8"/>
      </g>
     </g>
     <g id="text_12">
      <text style="font-size: 10px; font-family: 'Hiragino Sans'; text-anchor: end; fill: #17324d" x="41.379688" y="187.310688" transform="rotate(-0 41.379688 187.310688)">600</text>
     </g>
    </g>
    <g id="ytick_5">
     <g id="line2d_23">
      <path d="M 48.379688 117.216
L 293.073021 117.216
" clip-path="url(#p9d16cd8a94)" style="fill: none; stroke: #cbd5df; stroke-opacity: 0.2; stroke-width: 0.8; stroke-linecap: square"/>
     </g>
     <g id="line2d_24">
      <g>
       <use xlink:href="#m7ba8299c01" x="48.379688" y="117.216" style="fill: #17324d; stroke: #17324d; stroke-width: 0.8"/>
      </g>
     </g>
     <g id="text_13">
      <text style="font-size: 10px; font-family: 'Hiragino Sans'; text-anchor: end; fill: #17324d" x="41.379688" y="121.070688" transform="rotate(-0 41.379688 121.070688)">800</text>
     </g>
    </g>
    <g id="text_14">
     <text style="font-size: 10px; font-family: 'Hiragino Sans'; text-anchor: middle; fill: #17324d" x="15.120313" y="228.168" transform="rotate(-90 15.120313 228.168)">温度 / °C</text>
    </g>
   </g>
   <g id="line2d_25">
    <path d="M 48.379688 141.3936
L 293.073021 141.3936
" clip-path="url(#p9d16cd8a94)" style="fill: none; stroke-dasharray: 4.44,1.92; stroke-dashoffset: 0; stroke: #64748b; stroke-width: 1.2"/>
   </g>
   <g id="line2d_26">
    <path d="M 48.379688 100.656
L 293.073021 100.656
" clip-path="url(#p9d16cd8a94)" style="fill: none; stroke-dasharray: 1.2,1.98; stroke-dashoffset: 0; stroke: #64748b; stroke-width: 1.2"/>
   </g>
   <g id="line2d_27">
    <path d="M 48.379688 375.552
L 93.240132 120.528
L 178.882799 120.528
L 203.352132 375.552
L 272.68191 375.552
" clip-path="url(#p9d16cd8a94)" style="fill: none; stroke: #457b9d; stroke-width: 3; stroke-linecap: square"/>
   </g>
   <g id="patch_4">
    <path d="M 48.379688 382.176
L 48.379688 74.16
" style="fill: none; stroke: #17324d; stroke-width: 0.8; stroke-linejoin: miter; stroke-linecap: square"/>
   </g>
   <g id="patch_5">
    <path d="M 48.379688 382.176
L 293.073021 382.176
" style="fill: none; stroke: #17324d; stroke-width: 0.8; stroke-linejoin: miter; stroke-linecap: square"/>
   </g>
   <g id="text_15">
    <!-- $A_\mathrm{c1}$ -->
    <g style="fill: #64748b" transform="translate(53.273554 137.7504)">
     <text>
      <tspan x="0" y="-0.703125" style="font-style: oblique; font-size: 10px; font-family: 'DejaVu Sans'; fill: #64748b">A</tspan>
      <tspan x="6.84082" y="0.9375" style="font-size: 7px; font-family: 'DejaVu Sans'; fill: #64748b">c</tspan>
      <tspan x="10.689453" y="0.9375" style="font-size: 7px; font-family: 'DejaVu Sans'; fill: #64748b">1</tspan>
     </text>
    </g>
   </g>
   <g id="text_16">
    <!-- $A_\mathrm{c3}$ -->
    <g style="fill: #64748b" transform="translate(53.273554 97.344)">
     <text>
      <tspan x="0" y="-0.703125" style="font-style: oblique; font-size: 10px; font-family: 'DejaVu Sans'; fill: #64748b">A</tspan>
      <tspan x="6.84082" y="0.9375" style="font-size: 7px; font-family: 'DejaVu Sans'; fill: #64748b">c</tspan>
      <tspan x="10.689453" y="0.9375" style="font-size: 7px; font-family: 'DejaVu Sans'; fill: #64748b">3</tspan>
     </text>
    </g>
   </g>
   <g id="text_17">
    <text style="font-weight: 700; font-size: 10px; font-family: 'Hiragino Sans'; fill: #17324d" transform="translate(101.061465 102.309)">二相域焼なまし</text>
    <text style="font-weight: 700; font-size: 10px; font-family: 'Hiragino Sans'; fill: #17324d" transform="translate(119.236465 113.904)">α + γ</text>
   </g>
   <g id="patch_6">
    <path d="M 246.296373 215.423609
Q 220.44813 240.149484 195.407803 264.102525
" style="fill: none; stroke: #457b9d; stroke-linecap: round"/>
    <path d="M 199.680776 262.782791
L 195.407803 264.102525
L 196.9158 259.892306
" style="fill: none; stroke: #457b9d; stroke-linecap: round"/>
   </g>
   <g id="text_18">
    <text style="font-weight: 700; font-size: 10px; font-family: 'Hiragino Sans'; text-anchor: start; fill: #457b9d" x="221.704132" y="209.952" transform="rotate(-0 221.704132 209.952)">急冷：γ → M</text>
   </g>
   <g id="text_19">
    <text style="font-size: 10px; font-family: 'Hiragino Sans'; fill: #64748b" transform="translate(130.726354 336.09875)">保持温度・時間で</text>
    <text style="font-size: 10px; font-family: 'Hiragino Sans'; fill: #64748b" transform="translate(120.941198 347.4)">γ量と最終M量を調整</text>
   </g>
   <g id="text_20">
    <text style="font-size: 12px; font-family: 'Hiragino Sans'; text-anchor: middle; fill: #17324d" x="170.726354" y="68.16" transform="rotate(-0 170.726354 68.16)">温度履歴</text>
   </g>
  </g>
  <g id="axes_2">
   <g id="patch_7">
    <path d="M 400.287337 171.114189
L 503.316109 171.114189
L 503.316109 122.637094
L 400.287337 122.637094
z
" clip-path="url(#p810461fb42)" style="fill: #e8f5f2; stroke: #17324d; stroke-width: 1.4; stroke-linejoin: miter"/>
   </g>
   <g id="patch_8">
    <path d="M 408.529638 167.236021
L 433.256544 167.236021
L 433.256544 156.08629
L 408.529638 156.08629
z
" clip-path="url(#p810461fb42)" style="fill: #f7f4ed; stroke: #f4a261; stroke-linejoin: miter"/>
   </g>
   <g id="patch_9">
    <path d="M 460.044024 142.997474
L 490.952656 142.997474
L 490.952656 130.8782
L 460.044024 130.8782
z
" clip-path="url(#p810461fb42)" style="fill: #f7f4ed; stroke: #f4a261; stroke-linejoin: miter"/>
   </g>
   <g id="patch_10">
    <path d="M 576.724109 171.114189
L 679.75288 171.114189
L 679.75288 122.637094
L 576.724109 122.637094
z
" clip-path="url(#p810461fb42)" style="fill: #e8f5f2; stroke: #17324d; stroke-width: 1.4; stroke-linejoin: miter"/>
   </g>
   <g id="patch_11">
    <path d="M 599.390438 163.842625
C 602.122793 163.842625 604.743606 163.229682 606.675673 162.138791
C 608.607739 161.0479 609.693316 159.568126 609.693316 158.025373
C 609.693316 156.48262 608.607739 155.002847 606.675673 153.911956
C 604.743606 152.821064 602.122793 152.208122 599.390438 152.208122
C 596.658083 152.208122 594.037271 152.821064 592.105204 153.911956
C 590.173137 155.002847 589.087561 156.48262 589.087561 158.025373
C 589.087561 159.568126 590.173137 161.0479 592.105204 162.138791
C 594.037271 163.229682 596.658083 163.842625 599.390438 163.842625
z
" clip-path="url(#p810461fb42)" style="fill: #e9c46a; stroke: #17324d; stroke-width: 0.9; stroke-linejoin: miter"/>
   </g>
   <g id="patch_12">
    <path d="M 640.601947 161.41877
C 644.017391 161.41877 647.293407 160.907985 649.70849 159.998909
C 652.123573 159.089833 653.480544 157.856688 653.480544 156.571061
C 653.480544 155.285433 652.123573 154.052288 649.70849 153.143212
C 647.293407 152.234136 644.017391 151.723351 640.601947 151.723351
C 637.186503 151.723351 633.910488 152.234136 631.495404 153.143212
C 629.080321 154.052288 627.723351 155.285433 627.723351 156.571061
C 627.723351 157.856688 629.080321 159.089833 631.495404 159.998909
C 633.910488 160.907985 637.186503 161.41877 640.601947 161.41877
z
" clip-path="url(#p810461fb42)" style="fill: #e9c46a; stroke: #17324d; stroke-width: 0.9; stroke-linejoin: miter"/>
   </g>
   <g id="patch_13">
    <path d="M 625.147631 142.755089
C 628.016604 142.755089 630.768457 142.167686 632.797127 141.122248
C 634.825797 140.076811 635.965652 138.658694 635.965652 137.180223
C 635.965652 135.701751 634.825797 134.283635 632.797127 133.238197
C 630.768457 132.19276 628.016604 131.605357 625.147631 131.605357
C 622.278659 131.605357 619.526805 132.19276 617.498135 133.238197
C 615.469465 134.283635 614.32961 135.701751 614.32961 137.180223
C 614.32961 138.658694 615.469465 140.076811 617.498135 141.122248
C 619.526805 142.167686 622.278659 142.755089 625.147631 142.755089
z
" clip-path="url(#p810461fb42)" style="fill: #e9c46a; stroke: #17324d; stroke-width: 0.9; stroke-linejoin: miter"/>
   </g>
   <g id="patch_14">
    <path d="M 661.207702 140.088848
C 663.393586 140.088848 665.490236 139.629142 667.035889 138.810973
C 668.581542 137.992805 669.450003 136.882975 669.450003 135.72591
C 669.450003 134.568845 668.581542 133.459015 667.035889 132.640847
C 665.490236 131.822678 663.393586 131.362971 661.207702 131.362971
C 659.021818 131.362971 656.925167 131.822678 655.379514 132.640847
C 653.833861 133.459015 652.9654 134.568845 652.9654 135.72591
C 652.9654 136.882975 653.833861 137.992805 655.379514 138.810973
C 656.925167 139.629142 659.021818 140.088848 661.207702 140.088848
z
" clip-path="url(#p810461fb42)" style="fill: #e9c46a; stroke: #17324d; stroke-width: 0.9; stroke-linejoin: miter"/>
   </g>
   <g id="patch_15">
    <path d="M 753.16088 171.114189
L 856.189652 171.114189
L 856.189652 122.637094
L 753.16088 122.637094
z
" clip-path="url(#p810461fb42)" style="fill: #e8f5f2; stroke: #17324d; stroke-width: 1.4; stroke-linejoin: miter"/>
   </g>
   <g id="patch_16">
    <path d="M 776.560388 164.734246
C 779.418874 164.061925 781.866302 162.761239 783.363653 161.118649
C 784.861004 159.47606 785.286027 157.625677 784.545115 155.975026
C 783.804203 154.324375 781.957849 153.008224 779.41269 152.31644
C 776.867531 151.624657 773.831368 151.613721 770.972882 152.286043
C 768.114395 152.958364 765.666968 154.25905 764.169617 155.901639
C 762.672265 157.544229 762.247243 159.394612 762.988155 161.045263
C 763.729066 162.695914 765.575421 164.012065 768.12058 164.703848
C 770.665739 165.395632 773.701902 165.406567 776.560388 164.734246
z
" clip-path="url(#p810461fb42)" style="fill: #457b9d; stroke: #17324d; stroke-width: 0.9; stroke-linejoin: miter"/>
   </g>
   <g id="patch_17">
    <path d="M 813.725022 161.8082
C 817.600359 162.404478 821.449531 162.526753 824.424803 162.148096
C 827.400074 161.769439 829.258527 160.920765 829.590859 159.788985
C 829.923191 158.657204 828.702268 157.334723 826.196985 156.112801
C 823.691701 154.89088 820.106603 153.869283 816.231265 153.273005
C 812.355928 152.676727 808.506756 152.554451 805.531485 152.933109
C 802.556213 153.311766 800.69776 154.16044 800.365428 155.29222
C 800.033097 156.424 801.254019 157.746482 803.759303 158.968403
C 806.264586 160.190325 809.849684 161.211922 813.725022 161.8082
z
" clip-path="url(#p810461fb42)" style="fill: #457b9d; stroke: #17324d; stroke-width: 0.9; stroke-linejoin: miter"/>
   </g>
   <g id="patch_18">
    <path d="M 803.872924 142.691399
C 806.984552 142.37484 809.83658 141.388354 811.800881 139.949204
C 813.765182 138.510054 814.68138 136.735739 814.347693 135.017033
C 814.014006 133.298326 812.457677 131.775552 810.021471 130.784084
C 807.585265 129.792617 804.468087 129.413404 801.356458 129.729963
C 798.24483 130.046522 795.392802 131.033008 793.428501 132.472158
C 791.4642 133.911308 790.548002 135.685623 790.881689 137.404329
C 791.215376 139.123036 792.771705 140.645809 795.207911 141.637277
C 797.644117 142.628745 800.761295 143.007958 803.872924 142.691399
z
" clip-path="url(#p810461fb42)" style="fill: #457b9d; stroke: #17324d; stroke-width: 0.9; stroke-linejoin: miter"/>
   </g>
   <g id="patch_19">
    <path d="M 835.354009 140.766038
C 837.536447 141.341044 839.871129 141.412595 841.843869 140.964934
C 843.81661 140.517273 845.266342 139.586948 845.87378 138.378853
C 846.481219 137.170759 846.196768 135.783529 845.083075 134.522687
C 843.969382 133.261844 842.117376 132.23033 839.934938 131.655324
C 837.7525 131.080318 835.417818 131.008766 833.445078 131.456428
C 831.472337 131.904089 830.022605 132.834414 829.415166 134.042508
C 828.807728 135.250603 829.092179 136.637832 830.205872 137.898675
C 831.319564 139.159518 833.171571 140.191032 835.354009 140.766038
z
" clip-path="url(#p810461fb42)" style="fill: #457b9d; stroke: #17324d; stroke-width: 0.9; stroke-linejoin: miter"/>
   </g>
   <g id="patch_20">
    <path d="M 509.183164 146.875642
Q 538.091579 146.875642 565.322943 146.875642
" clip-path="url(#p810461fb42)" style="fill: none; stroke: #17324d; stroke-width: 1.5; stroke-linecap: round"/>
    <path d="M 559.322943 143.875642
L 565.322943 146.875642
L 559.322943 149.875642
z
" clip-path="url(#p810461fb42)" style="fill: #17324d; stroke: #17324d; stroke-width: 1.5; stroke-linecap: round"/>
   </g>
   <g id="patch_21">
    <path d="M 685.619936 146.875642
Q 714.528351 146.875642 741.759715 146.875642
" clip-path="url(#p810461fb42)" style="fill: none; stroke: #17324d; stroke-width: 1.5; stroke-linecap: round"/>
    <path d="M 735.759715 143.875642
L 741.759715 146.875642
L 735.759715 149.875642
z
" clip-path="url(#p810461fb42)" style="fill: #17324d; stroke: #17324d; stroke-width: 1.5; stroke-linecap: round"/>
   </g>
   <g id="line2d_28">
    <path d="M 432.226256 171.114189
L 439.43827 158.510144
L 435.317119 122.637094
" clip-path="url(#p810461fb42)" style="fill: none; stroke: #2a9d8f; stroke-linecap: square"/>
   </g>
   <g id="line2d_29">
    <path d="M 400.287337 142.027932
L 453.862298 144.451787
L 503.316109 137.180223
" clip-path="url(#p810461fb42)" style="fill: none; stroke: #2a9d8f; stroke-linecap: square"/>
   </g>
   <g id="line2d_30">
    <path d="M 409.271446 165.006075
L 432.514736 165.006075
" clip-path="url(#p810461fb42)" style="fill: none; stroke: #17324d; stroke-width: 0.8; stroke-linecap: square"/>
   </g>
   <g id="line2d_31">
    <path d="M 409.271446 162.776129
L 432.514736 162.776129
" clip-path="url(#p810461fb42)" style="fill: none; stroke: #17324d; stroke-width: 0.8; stroke-linecap: square"/>
   </g>
   <g id="line2d_32">
    <path d="M 409.271446 160.546182
L 432.514736 160.546182
" clip-path="url(#p810461fb42)" style="fill: none; stroke: #17324d; stroke-width: 0.8; stroke-linecap: square"/>
   </g>
   <g id="line2d_33">
    <path d="M 409.271446 158.316236
L 432.514736 158.316236
" clip-path="url(#p810461fb42)" style="fill: none; stroke: #17324d; stroke-width: 0.8; stroke-linecap: square"/>
   </g>
   <g id="line2d_34">
    <path d="M 460.971283 140.573619
L 490.025397 140.573619
" clip-path="url(#p810461fb42)" style="fill: none; stroke: #17324d; stroke-width: 0.8; stroke-linecap: square"/>
   </g>
   <g id="line2d_35">
    <path d="M 460.971283 138.149765
L 490.025397 138.149765
" clip-path="url(#p810461fb42)" style="fill: none; stroke: #17324d; stroke-width: 0.8; stroke-linecap: square"/>
   </g>
   <g id="line2d_36">
    <path d="M 460.971283 135.72591
L 490.025397 135.72591
" clip-path="url(#p810461fb42)" style="fill: none; stroke: #17324d; stroke-width: 0.8; stroke-linecap: square"/>
   </g>
   <g id="line2d_37">
    <path d="M 460.971283 133.302055
L 490.025397 133.302055
" clip-path="url(#p810461fb42)" style="fill: none; stroke: #17324d; stroke-width: 0.8; stroke-linecap: square"/>
   </g>
   <g id="line2d_38">
    <path d="M 767.584909 161.903541
L 779.948361 155.116748
" clip-path="url(#p810461fb42)" style="fill: none; stroke: #ffffff; stroke-width: 0.8; stroke-linecap: square"/>
   </g>
   <g id="line2d_39">
    <path d="M 808.796417 160.933999
L 821.15987 154.147206
" clip-path="url(#p810461fb42)" style="fill: none; stroke: #ffffff; stroke-width: 0.8; stroke-linecap: square"/>
   </g>
   <g id="line2d_40">
    <path d="M 796.432965 139.604077
L 808.796417 132.817284
" clip-path="url(#p810461fb42)" style="fill: none; stroke: #ffffff; stroke-width: 0.8; stroke-linecap: square"/>
   </g>
   <g id="line2d_41">
    <path d="M 831.462747 139.604077
L 843.8262 132.817284
" clip-path="url(#p810461fb42)" style="fill: none; stroke: #ffffff; stroke-width: 0.8; stroke-linecap: square"/>
   </g>
   <g id="text_21">
    <text style="font-size: 10px; font-family: 'Hiragino Sans'; text-anchor: middle; fill: #64748b" x="451.801723" y="92.805036" transform="rotate(-0 451.801723 92.805036)">初期</text>
   </g>
   <g id="text_22">
    <text style="font-size: 10px; font-family: 'Hiragino Sans'; text-anchor: middle; fill: #64748b" x="628.238495" y="92.805036" transform="rotate(-0 628.238495 92.805036)">二相域保持</text>
   </g>
   <g id="text_23">
    <text style="font-size: 10px; font-family: 'Hiragino Sans'; text-anchor: middle; fill: #64748b" x="804.675266" y="92.805036" transform="rotate(-0 804.675266 92.805036)">急冷後</text>
   </g>
   <g id="text_24">
    <text style="font-size: 10px; font-family: 'Hiragino Sans'; fill: #64748b" transform="translate(524.708632 100.148823)">P溶解</text>
    <text style="font-size: 10px; font-family: 'Hiragino Sans'; fill: #64748b" transform="translate(518.103163 111.450073)">+ 逆変態</text>
   </g>
   <g id="text_25">
    <text style="font-size: 10px; font-family: 'Hiragino Sans'; text-anchor: middle; fill: #64748b" x="714.525091" y="128.230605" transform="rotate(-0 714.525091 128.230605)">γ → M</text>
   </g>
   <g id="text_26">
    <text style="font-weight: 700; font-size: 10px; font-family: 'Hiragino Sans'; text-anchor: middle; fill: #17324d" x="451.801723" y="187.894722" transform="rotate(-0 451.801723 187.894722)">α + P</text>
   </g>
   <g id="text_27">
    <text style="font-weight: 700; font-size: 10px; font-family: 'Hiragino Sans'; text-anchor: middle; fill: #17324d" x="628.238495" y="187.894722" transform="rotate(-0 628.238495 187.894722)">α + γ</text>
   </g>
   <g id="text_28">
    <text style="font-weight: 700; font-size: 10px; font-family: 'Hiragino Sans'; text-anchor: middle; fill: #17324d" x="804.675266" y="187.894722" transform="rotate(-0 804.675266 187.894722)">α + M</text>
   </g>
   <g id="text_29">
    <text style="font-weight: 700; font-size: 11px; font-family: 'Hiragino Sans'; text-anchor: start; fill: #17324d" x="384.833021" y="68.16" transform="rotate(-0 384.833021 68.16)">（a）初期組織：フェライト + パーライト</text>
   </g>
  </g>
  <g id="axes_3">
   <g id="patch_22">
    <path d="M 400.287337 348.614935
L 503.316109 348.614935
L 503.316109 300.13784
L 400.287337 300.13784
z
" clip-path="url(#p19319ded4b)" style="fill: #e7eef5; stroke: #17324d; stroke-width: 1.4; stroke-linejoin: miter"/>
   </g>
   <g id="patch_23">
    <path d="M 576.724109 348.614935
L 679.75288 348.614935
L 679.75288 300.13784
L 576.724109 300.13784
z
" clip-path="url(#p19319ded4b)" style="fill: #e8f5f2; stroke: #17324d; stroke-width: 1.4; stroke-linejoin: miter"/>
   </g>
   <g id="patch_24">
    <path d="M 599.390438 341.34337
C 602.122793 341.34337 604.743606 340.730428 606.675673 339.639537
C 608.607739 338.548646 609.693316 337.068872 609.693316 335.526119
C 609.693316 333.983366 608.607739 332.503592 606.675673 331.412701
C 604.743606 330.32181 602.122793 329.708868 599.390438 329.708868
C 596.658083 329.708868 594.037271 330.32181 592.105204 331.412701
C 590.173137 332.503592 589.087561 333.983366 589.087561 335.526119
C 589.087561 337.068872 590.173137 338.548646 592.105204 339.639537
C 594.037271 340.730428 596.658083 341.34337 599.390438 341.34337
z
" clip-path="url(#p19319ded4b)" style="fill: #e9c46a; stroke: #17324d; stroke-width: 0.9; stroke-linejoin: miter"/>
   </g>
   <g id="patch_25">
    <path d="M 640.601947 338.919516
C 644.017391 338.919516 647.293407 338.40873 649.70849 337.499655
C 652.123573 336.590579 653.480544 335.357434 653.480544 334.071806
C 653.480544 332.786179 652.123573 331.553034 649.70849 330.643958
C 647.293407 329.734882 644.017391 329.224097 640.601947 329.224097
C 637.186503 329.224097 633.910488 329.734882 631.495404 330.643958
C 629.080321 331.553034 627.723351 332.786179 627.723351 334.071806
C 627.723351 335.357434 629.080321 336.590579 631.495404 337.499655
C 633.910488 338.40873 637.186503 338.919516 640.601947 338.919516
z
" clip-path="url(#p19319ded4b)" style="fill: #e9c46a; stroke: #17324d; stroke-width: 0.9; stroke-linejoin: miter"/>
   </g>
   <g id="patch_26">
    <path d="M 625.147631 320.255834
C 628.016604 320.255834 630.768457 319.668431 632.797127 318.622994
C 634.825797 317.577557 635.965652 316.15944 635.965652 314.680969
C 635.965652 313.202497 634.825797 311.78438 632.797127 310.738943
C 630.768457 309.693506 628.016604 309.106103 625.147631 309.106103
C 622.278659 309.106103 619.526805 309.693506 617.498135 310.738943
C 615.469465 311.78438 614.32961 313.202497 614.32961 314.680969
C 614.32961 316.15944 615.469465 317.577557 617.498135 318.622994
C 619.526805 319.668431 622.278659 320.255834 625.147631 320.255834
z
" clip-path="url(#p19319ded4b)" style="fill: #e9c46a; stroke: #17324d; stroke-width: 0.9; stroke-linejoin: miter"/>
   </g>
   <g id="patch_27">
    <path d="M 661.207702 317.589594
C 663.393586 317.589594 665.490236 317.129887 667.035889 316.311719
C 668.581542 315.493551 669.450003 314.383721 669.450003 313.226656
C 669.450003 312.069591 668.581542 310.959761 667.035889 310.141592
C 665.490236 309.323424 663.393586 308.863717 661.207702 308.863717
C 659.021818 308.863717 656.925167 309.323424 655.379514 310.141592
C 653.833861 310.959761 652.9654 312.069591 652.9654 313.226656
C 652.9654 314.383721 653.833861 315.493551 655.379514 316.311719
C 656.925167 317.129887 659.021818 317.589594 661.207702 317.589594
z
" clip-path="url(#p19319ded4b)" style="fill: #e9c46a; stroke: #17324d; stroke-width: 0.9; stroke-linejoin: miter"/>
   </g>
   <g id="patch_28">
    <path d="M 753.16088 348.614935
L 856.189652 348.614935
L 856.189652 300.13784
L 753.16088 300.13784
z
" clip-path="url(#p19319ded4b)" style="fill: #e8f5f2; stroke: #17324d; stroke-width: 1.4; stroke-linejoin: miter"/>
   </g>
   <g id="patch_29">
    <path d="M 776.560388 342.234992
C 779.418874 341.56267 781.866302 340.261985 783.363653 338.619395
C 784.861004 336.976806 785.286027 335.126423 784.545115 333.475772
C 783.804203 331.82512 781.957849 330.50897 779.41269 329.817186
C 776.867531 329.125402 773.831368 329.114467 770.972882 329.786788
C 768.114395 330.45911 765.666968 331.759796 764.169617 333.402385
C 762.672265 335.044975 762.247243 336.895358 762.988155 338.546009
C 763.729066 340.19666 765.575421 341.51281 768.12058 342.204594
C 770.665739 342.896378 773.701902 342.907313 776.560388 342.234992
z
" clip-path="url(#p19319ded4b)" style="fill: #457b9d; stroke: #17324d; stroke-width: 0.9; stroke-linejoin: miter"/>
   </g>
   <g id="patch_30">
    <path d="M 813.725022 339.308946
C 817.600359 339.905224 821.449531 340.027499 824.424803 339.648842
C 827.400074 339.270185 829.258527 338.421511 829.590859 337.28973
C 829.923191 336.15795 828.702268 334.835469 826.196985 333.613547
C 823.691701 332.391626 820.106603 331.370028 816.231265 330.77375
C 812.355928 330.177472 808.506756 330.055197 805.531485 330.433855
C 802.556213 330.812512 800.69776 331.661186 800.365428 332.792966
C 800.033097 333.924746 801.254019 335.247228 803.759303 336.469149
C 806.264586 337.691071 809.849684 338.712668 813.725022 339.308946
z
" clip-path="url(#p19319ded4b)" style="fill: #457b9d; stroke: #17324d; stroke-width: 0.9; stroke-linejoin: miter"/>
   </g>
   <g id="patch_31">
    <path d="M 803.872924 320.192145
C 806.984552 319.875585 809.83658 318.8891 811.800881 317.44995
C 813.765182 316.010799 814.68138 314.236485 814.347693 312.517778
C 814.014006 310.799072 812.457677 309.276298 810.021471 308.28483
C 807.585265 307.293362 804.468087 306.914149 801.356458 307.230709
C 798.24483 307.547268 795.392802 308.533754 793.428501 309.972904
C 791.4642 311.412054 790.548002 313.186368 790.881689 314.905075
C 791.215376 316.623781 792.771705 318.146555 795.207911 319.138023
C 797.644117 320.129491 800.761295 320.508704 803.872924 320.192145
z
" clip-path="url(#p19319ded4b)" style="fill: #457b9d; stroke: #17324d; stroke-width: 0.9; stroke-linejoin: miter"/>
   </g>
   <g id="patch_32">
    <path d="M 835.354009 318.266783
C 837.536447 318.841789 839.871129 318.913341 841.843869 318.46568
C 843.81661 318.018019 845.266342 317.087694 845.87378 315.879599
C 846.481219 314.671504 846.196768 313.284275 845.083075 312.023432
C 843.969382 310.76259 842.117376 309.731076 839.934938 309.15607
C 837.7525 308.581064 835.417818 308.509512 833.445078 308.957173
C 831.472337 309.404835 830.022605 310.335159 829.415166 311.543254
C 828.807728 312.751349 829.092179 314.138578 830.205872 315.399421
C 831.319564 316.660264 833.171571 317.691777 835.354009 318.266783
z
" clip-path="url(#p19319ded4b)" style="fill: #457b9d; stroke: #17324d; stroke-width: 0.9; stroke-linejoin: miter"/>
   </g>
   <g id="patch_33">
    <path d="M 509.183164 324.376387
Q 538.091579 324.376387 565.322943 324.376387
" clip-path="url(#p19319ded4b)" style="fill: none; stroke: #17324d; stroke-width: 1.5; stroke-linecap: round"/>
    <path d="M 559.322943 321.376387
L 565.322943 324.376387
L 559.322943 327.376387
z
" clip-path="url(#p19319ded4b)" style="fill: #17324d; stroke: #17324d; stroke-width: 1.5; stroke-linecap: round"/>
   </g>
   <g id="patch_34">
    <path d="M 685.619936 324.376387
Q 714.528351 324.376387 741.759715 324.376387
" clip-path="url(#p19319ded4b)" style="fill: none; stroke: #17324d; stroke-width: 1.5; stroke-linecap: round"/>
    <path d="M 735.759715 321.376387
L 741.759715 324.376387
L 735.759715 327.376387
z
" clip-path="url(#p19319ded4b)" style="fill: #17324d; stroke: #17324d; stroke-width: 1.5; stroke-linecap: round"/>
   </g>
   <g id="line2d_42">
    <path d="M 404.408488 344.736767
L 427.074817 304.016008
" clip-path="url(#p19319ded4b)" style="fill: none; stroke: #457b9d; stroke-width: 1.2; stroke-linecap: square"/>
   </g>
   <g id="line2d_43">
    <path d="M 414.196221 344.736767
L 436.862551 304.016008
" clip-path="url(#p19319ded4b)" style="fill: none; stroke: #17324d; stroke-width: 1.2; stroke-linecap: square"/>
   </g>
   <g id="line2d_44">
    <path d="M 423.983954 344.736767
L 446.650284 304.016008
" clip-path="url(#p19319ded4b)" style="fill: none; stroke: #457b9d; stroke-width: 1.2; stroke-linecap: square"/>
   </g>
   <g id="line2d_45">
    <path d="M 433.771688 344.736767
L 456.438017 304.016008
" clip-path="url(#p19319ded4b)" style="fill: none; stroke: #17324d; stroke-width: 1.2; stroke-linecap: square"/>
   </g>
   <g id="line2d_46">
    <path d="M 443.559421 344.736767
L 466.225751 304.016008
" clip-path="url(#p19319ded4b)" style="fill: none; stroke: #457b9d; stroke-width: 1.2; stroke-linecap: square"/>
   </g>
   <g id="line2d_47">
    <path d="M 453.347154 344.736767
L 476.013484 304.016008
" clip-path="url(#p19319ded4b)" style="fill: none; stroke: #17324d; stroke-width: 1.2; stroke-linecap: square"/>
   </g>
   <g id="line2d_48">
    <path d="M 463.134888 344.736767
L 485.801217 304.016008
" clip-path="url(#p19319ded4b)" style="fill: none; stroke: #457b9d; stroke-width: 1.2; stroke-linecap: square"/>
   </g>
   <g id="line2d_49">
    <path d="M 472.922621 344.736767
L 495.588951 304.016008
" clip-path="url(#p19319ded4b)" style="fill: none; stroke: #17324d; stroke-width: 1.2; stroke-linecap: square"/>
   </g>
   <g id="line2d_50">
    <path d="M 482.710354 344.736767
L 500.225245 304.016008
" clip-path="url(#p19319ded4b)" style="fill: none; stroke: #457b9d; stroke-width: 1.2; stroke-linecap: square"/>
   </g>
   <g id="line2d_51">
    <path d="M 767.584909 339.404287
L 779.948361 332.617493
" clip-path="url(#p19319ded4b)" style="fill: none; stroke: #ffffff; stroke-width: 0.8; stroke-linecap: square"/>
   </g>
   <g id="line2d_52">
    <path d="M 808.796417 338.434745
L 821.15987 331.647952
" clip-path="url(#p19319ded4b)" style="fill: none; stroke: #ffffff; stroke-width: 0.8; stroke-linecap: square"/>
   </g>
   <g id="line2d_53">
    <path d="M 796.432965 317.104823
L 808.796417 310.31803
" clip-path="url(#p19319ded4b)" style="fill: none; stroke: #ffffff; stroke-width: 0.8; stroke-linecap: square"/>
   </g>
   <g id="line2d_54">
    <path d="M 831.462747 317.104823
L 843.8262 310.31803
" clip-path="url(#p19319ded4b)" style="fill: none; stroke: #ffffff; stroke-width: 0.8; stroke-linecap: square"/>
   </g>
   <g id="text_30">
    <text style="font-size: 10px; font-family: 'Hiragino Sans'; text-anchor: middle; fill: #64748b" x="451.801723" y="270.305782" transform="rotate(-0 451.801723 270.305782)">初期</text>
   </g>
   <g id="text_31">
    <text style="font-size: 10px; font-family: 'Hiragino Sans'; text-anchor: middle; fill: #64748b" x="628.238495" y="270.305782" transform="rotate(-0 628.238495 270.305782)">二相域保持</text>
   </g>
   <g id="text_32">
    <text style="font-size: 10px; font-family: 'Hiragino Sans'; text-anchor: middle; fill: #64748b" x="804.675266" y="270.305782" transform="rotate(-0 804.675266 270.305782)">急冷後</text>
   </g>
   <g id="text_33">
    <text style="font-size: 10px; font-family: 'Hiragino Sans'; fill: #64748b" transform="translate(499.258632 277.649568)">焼戻し・C再分配</text>
    <text style="font-size: 10px; font-family: 'Hiragino Sans'; fill: #64748b" transform="translate(518.103163 288.950818)">+ 逆変態</text>
   </g>
   <g id="text_34">
    <text style="font-size: 10px; font-family: 'Hiragino Sans'; text-anchor: middle; fill: #64748b" x="714.525091" y="305.731351" transform="rotate(-0 714.525091 305.731351)">γ → M</text>
   </g>
   <g id="text_35">
    <text style="font-weight: 700; font-size: 10px; font-family: 'Hiragino Sans'; text-anchor: middle; fill: #17324d" x="451.801723" y="365.395467" transform="rotate(-0 451.801723 365.395467)">M</text>
   </g>
   <g id="text_36">
    <text style="font-weight: 700; font-size: 10px; font-family: 'Hiragino Sans'; text-anchor: middle; fill: #17324d" x="628.238495" y="365.395467" transform="rotate(-0 628.238495 365.395467)">α + γ</text>
   </g>
   <g id="text_37">
    <text style="font-weight: 700; font-size: 10px; font-family: 'Hiragino Sans'; text-anchor: middle; fill: #17324d" x="804.675266" y="365.395467" transform="rotate(-0 804.675266 365.395467)">α + M</text>
   </g>
   <g id="text_38">
    <text style="font-weight: 700; font-size: 11px; font-family: 'Hiragino Sans'; text-anchor: start; fill: #17324d" x="384.833021" y="245.660746" transform="rotate(-0 384.833021 245.660746)">（b）初期組織：マルテンサイト単相</text>
   </g>
  </g>
  <g id="text_39">
   <text style="font-weight: 700; font-size: 15px; font-family: 'Hiragino Sans'; text-anchor: middle; fill: #17324d" x="441.211688" y="19.080469" transform="rotate(-0 441.211688 19.080469)">DP鋼：二相域で作ったγだけを急冷でMにする（模式図）</text>
  </g>
  <g id="text_40">
   <text style="font-size: 10px; font-family: 'Hiragino Sans'; text-anchor: middle; fill: #64748b" x="441.211688" y="439.3152" transform="rotate(-0 441.211688 439.3152)">α：フェライト、P：パーライト、γ：オーステナイト、M：マルテンサイト。温度・時間・相分率は定性的。</text>
  </g>
 </g>
 <defs>
  <clipPath id="p9d16cd8a94">
   <rect x="48.379688" y="74.16" width="244.693333" height="308.016"/>
  </clipPath>
  <clipPath id="p810461fb42">
   <rect x="384.833021" y="74.16" width="489.386667" height="130.515254"/>
  </clipPath>
  <clipPath id="p19319ded4b">
   <rect x="384.833021" y="251.660746" width="489.386667" height="130.515254"/>
  </clipPath>
 </defs>
</svg>
