<?xml version="1.0" encoding="utf-8" standalone="no"?>
<!DOCTYPE svg PUBLIC "-//W3C//DTD SVG 1.1//EN"
  "http://www.w3.org/Graphics/SVG/1.1/DTD/svg11.dtd">
<svg xmlns:xlink="http://www.w3.org/1999/xlink" width="683.81125pt" height="432.703125pt" viewBox="0 0 683.81125 432.703125" xmlns="http://www.w3.org/2000/svg" version="1.1">
 <metadata>
  <rdf:RDF xmlns:dc="http://purl.org/dc/elements/1.1/" xmlns:cc="http://creativecommons.org/ns#" xmlns:rdf="http://www.w3.org/1999/02/22-rdf-syntax-ns#">
   <cc:Work>
    <dc:type rdf:resource="http://purl.org/dc/dcmitype/StillImage"/>
    <dc:format>image/svg+xml</dc:format>
    <dc:creator>
     <cc:Agent>
      <dc:title>Matplotlib v3.10.9, https://matplotlib.org/</dc:title>
     </cc:Agent>
    </dc:creator>
   </cc:Work>
  </rdf:RDF>
 </metadata>
 <defs>
  <style type="text/css">*{stroke-linejoin: round; stroke-linecap: butt}</style>
 </defs>
 <g id="figure_1">
  <g id="patch_1">
   <path d="M 0 432.703125
L 683.81125 432.703125
L 683.81125 -0
L 0 -0
z
" style="fill: #ffffff"/>
  </g>
  <g id="axes_1">
   <g id="patch_2">
    <path d="M 48.31875 305.535925
L 676.61125 305.535925
L 676.61125 22.715625
L 48.31875 22.715625
z
" style="fill: #ffffff"/>
   </g>
   <g id="matplotlib.axis_1">
    <g id="xtick_1">
     <g id="line2d_1">
      <path d="M 196.971953 305.535925
L 196.971953 22.715625
" clip-path="url(#p1b250c13ff)" style="fill: none; stroke: #cbd5df; stroke-opacity: 0.28; stroke-width: 0.8; stroke-linecap: square"/>
     </g>
     <g id="line2d_2">
      <defs>
       <path id="mfec03084be" d="M 0 0
L 0 3.5
" style="stroke: #17324d; stroke-width: 0.8"/>
      </defs>
      <g>
       <use xlink:href="#mfec03084be" x="196.971953" y="305.535925" style="fill: #17324d; stroke: #17324d; stroke-width: 0.8"/>
      </g>
     </g>
     <g id="text_1">
      <!-- $\mathdefault{10^{0}}$ -->
      <g style="fill: #17324d" transform="translate(187.671953 320.2453)">
       <text>
        <tspan x="0" y="-0.276563" style="font-size: 10px; font-family: 'Hiragino Sans'; fill: #17324d">1</tspan>
        <tspan x="6.72998" y="-0.276563" style="font-size: 10px; font-family: 'Hiragino Sans'; fill: #17324d">0</tspan>
        <tspan x="13.560859" y="-4.3125" style="font-size: 7px; font-family: 'Hiragino Sans'; fill: #17324d">0</tspan>
       </text>
      </g>
     </g>
    </g>
    <g id="xtick_2">
     <g id="line2d_3">
      <path d="M 409.646606 305.535925
L 409.646606 22.715625
" clip-path="url(#p1b250c13ff)" style="fill: none; stroke: #cbd5df; stroke-opacity: 0.28; stroke-width: 0.8; stroke-linecap: square"/>
     </g>
     <g id="line2d_4">
      <g>
       <use xlink:href="#mfec03084be" x="409.646606" y="305.535925" style="fill: #17324d; stroke: #17324d; stroke-width: 0.8"/>
      </g>
     </g>
     <g id="text_2">
      <!-- $\mathdefault{10^{1}}$ -->
      <g style="fill: #17324d" transform="translate(400.346606 320.2453)">
       <text>
        <tspan x="0" y="-0.33125" style="font-size: 10px; font-family: 'Hiragino Sans'; fill: #17324d">1</tspan>
        <tspan x="6.72998" y="-0.33125" style="font-size: 10px; font-family: 'Hiragino Sans'; fill: #17324d">0</tspan>
        <tspan x="13.560859" y="-4.367188" style="font-size: 7px; font-family: 'Hiragino Sans'; fill: #17324d">1</tspan>
       </text>
      </g>
     </g>
    </g>
    <g id="xtick_3">
     <g id="line2d_5">
      <path d="M 622.321259 305.535925
L 622.321259 22.715625
" clip-path="url(#p1b250c13ff)" style="fill: none; stroke: #cbd5df; stroke-opacity: 0.28; stroke-width: 0.8; stroke-linecap: square"/>
     </g>
     <g id="line2d_6">
      <g>
       <use xlink:href="#mfec03084be" x="622.321259" y="305.535925" style="fill: #17324d; stroke: #17324d; stroke-width: 0.8"/>
      </g>
     </g>
     <g id="text_3">
      <!-- $\mathdefault{10^{2}}$ -->
      <g style="fill: #17324d" transform="translate(613.021259 320.2453)">
       <text>
        <tspan x="0" y="-0.276563" style="font-size: 10px; font-family: 'Hiragino Sans'; fill: #17324d">1</tspan>
        <tspan x="6.72998" y="-0.276563" style="font-size: 10px; font-family: 'Hiragino Sans'; fill: #17324d">0</tspan>
        <tspan x="13.560859" y="-4.3125" style="font-size: 7px; font-family: 'Hiragino Sans'; fill: #17324d">2</tspan>
       </text>
      </g>
     </g>
    </g>
    <g id="xtick_4">
     <g id="line2d_7">
      <path d="M 48.31875 305.535925
L 48.31875 22.715625
" clip-path="url(#p1b250c13ff)" style="fill: none; stroke: #cbd5df; stroke-opacity: 0.28; stroke-width: 0.8; stroke-linecap: square"/>
     </g>
     <g id="line2d_8">
      <defs>
       <path id="mdb0c36b5ba" d="M 0 0
L 0 2
" style="stroke: #17324d; stroke-width: 0.6"/>
      </defs>
      <g>
       <use xlink:href="#mdb0c36b5ba" x="48.31875" y="305.535925" style="fill: #17324d; stroke: #17324d; stroke-width: 0.6"/>
      </g>
     </g>
    </g>
    <g id="xtick_5">
     <g id="line2d_9">
      <path d="M 85.768897 305.535925
L 85.768897 22.715625
" clip-path="url(#p1b250c13ff)" style="fill: none; stroke: #cbd5df; stroke-opacity: 0.28; stroke-width: 0.8; stroke-linecap: square"/>
     </g>
     <g id="line2d_10">
      <g>
       <use xlink:href="#mdb0c36b5ba" x="85.768897" y="305.535925" style="fill: #17324d; stroke: #17324d; stroke-width: 0.6"/>
      </g>
     </g>
    </g>
    <g id="xtick_6">
     <g id="line2d_11">
      <path d="M 112.3402 305.535925
L 112.3402 22.715625
" clip-path="url(#p1b250c13ff)" style="fill: none; stroke: #cbd5df; stroke-opacity: 0.28; stroke-width: 0.8; stroke-linecap: square"/>
     </g>
     <g id="line2d_12">
      <g>
       <use xlink:href="#mdb0c36b5ba" x="112.3402" y="305.535925" style="fill: #17324d; stroke: #17324d; stroke-width: 0.6"/>
      </g>
     </g>
    </g>
    <g id="xtick_7">
     <g id="line2d_13">
      <path d="M 132.950503 305.535925
L 132.950503 22.715625
" clip-path="url(#p1b250c13ff)" style="fill: none; stroke: #cbd5df; stroke-opacity: 0.28; stroke-width: 0.8; stroke-linecap: square"/>
     </g>
     <g id="line2d_14">
      <g>
       <use xlink:href="#mdb0c36b5ba" x="132.950503" y="305.535925" style="fill: #17324d; stroke: #17324d; stroke-width: 0.6"/>
      </g>
     </g>
    </g>
    <g id="xtick_8">
     <g id="line2d_15">
      <path d="M 149.790347 305.535925
L 149.790347 22.715625
" clip-path="url(#p1b250c13ff)" style="fill: none; stroke: #cbd5df; stroke-opacity: 0.28; stroke-width: 0.8; stroke-linecap: square"/>
     </g>
     <g id="line2d_16">
      <g>
       <use xlink:href="#mdb0c36b5ba" x="149.790347" y="305.535925" style="fill: #17324d; stroke: #17324d; stroke-width: 0.6"/>
      </g>
     </g>
    </g>
    <g id="xtick_9">
     <g id="line2d_17">
      <path d="M 164.028232 305.535925
L 164.028232 22.715625
" clip-path="url(#p1b250c13ff)" style="fill: none; stroke: #cbd5df; stroke-opacity: 0.28; stroke-width: 0.8; stroke-linecap: square"/>
     </g>
     <g id="line2d_18">
      <g>
       <use xlink:href="#mdb0c36b5ba" x="164.028232" y="305.535925" style="fill: #17324d; stroke: #17324d; stroke-width: 0.6"/>
      </g>
     </g>
    </g>
    <g id="xtick_10">
     <g id="line2d_19">
      <path d="M 176.36165 305.535925
L 176.36165 22.715625
" clip-path="url(#p1b250c13ff)" style="fill: none; stroke: #cbd5df; stroke-opacity: 0.28; stroke-width: 0.8; stroke-linecap: square"/>
     </g>
     <g id="line2d_20">
      <g>
       <use xlink:href="#mdb0c36b5ba" x="176.36165" y="305.535925" style="fill: #17324d; stroke: #17324d; stroke-width: 0.6"/>
      </g>
     </g>
    </g>
    <g id="xtick_11">
     <g id="line2d_21">
      <path d="M 187.240495 305.535925
L 187.240495 22.715625
" clip-path="url(#p1b250c13ff)" style="fill: none; stroke: #cbd5df; stroke-opacity: 0.28; stroke-width: 0.8; stroke-linecap: square"/>
     </g>
     <g id="line2d_22">
      <g>
       <use xlink:href="#mdb0c36b5ba" x="187.240495" y="305.535925" style="fill: #17324d; stroke: #17324d; stroke-width: 0.6"/>
      </g>
     </g>
    </g>
    <g id="xtick_12">
     <g id="line2d_23">
      <path d="M 260.993403 305.535925
L 260.993403 22.715625
" clip-path="url(#p1b250c13ff)" style="fill: none; stroke: #cbd5df; stroke-opacity: 0.28; stroke-width: 0.8; stroke-linecap: square"/>
     </g>
     <g id="line2d_24">
      <g>
       <use xlink:href="#mdb0c36b5ba" x="260.993403" y="305.535925" style="fill: #17324d; stroke: #17324d; stroke-width: 0.6"/>
      </g>
     </g>
    </g>
    <g id="xtick_13">
     <g id="line2d_25">
      <path d="M 298.44355 305.535925
L 298.44355 22.715625
" clip-path="url(#p1b250c13ff)" style="fill: none; stroke: #cbd5df; stroke-opacity: 0.28; stroke-width: 0.8; stroke-linecap: square"/>
     </g>
     <g id="line2d_26">
      <g>
       <use xlink:href="#mdb0c36b5ba" x="298.44355" y="305.535925" style="fill: #17324d; stroke: #17324d; stroke-width: 0.6"/>
      </g>
     </g>
    </g>
    <g id="xtick_14">
     <g id="line2d_27">
      <path d="M 325.014853 305.535925
L 325.014853 22.715625
" clip-path="url(#p1b250c13ff)" style="fill: none; stroke: #cbd5df; stroke-opacity: 0.28; stroke-width: 0.8; stroke-linecap: square"/>
     </g>
     <g id="line2d_28">
      <g>
       <use xlink:href="#mdb0c36b5ba" x="325.014853" y="305.535925" style="fill: #17324d; stroke: #17324d; stroke-width: 0.6"/>
      </g>
     </g>
    </g>
    <g id="xtick_15">
     <g id="line2d_29">
      <path d="M 345.625156 305.535925
L 345.625156 22.715625
" clip-path="url(#p1b250c13ff)" style="fill: none; stroke: #cbd5df; stroke-opacity: 0.28; stroke-width: 0.8; stroke-linecap: square"/>
     </g>
     <g id="line2d_30">
      <g>
       <use xlink:href="#mdb0c36b5ba" x="345.625156" y="305.535925" style="fill: #17324d; stroke: #17324d; stroke-width: 0.6"/>
      </g>
     </g>
    </g>
    <g id="xtick_16">
     <g id="line2d_31">
      <path d="M 362.465 305.535925
L 362.465 22.715625
" clip-path="url(#p1b250c13ff)" style="fill: none; stroke: #cbd5df; stroke-opacity: 0.28; stroke-width: 0.8; stroke-linecap: square"/>
     </g>
     <g id="line2d_32">
      <g>
       <use xlink:href="#mdb0c36b5ba" x="362.465" y="305.535925" style="fill: #17324d; stroke: #17324d; stroke-width: 0.6"/>
      </g>
     </g>
    </g>
    <g id="xtick_17">
     <g id="line2d_33">
      <path d="M 376.702885 305.535925
L 376.702885 22.715625
" clip-path="url(#p1b250c13ff)" style="fill: none; stroke: #cbd5df; stroke-opacity: 0.28; stroke-width: 0.8; stroke-linecap: square"/>
     </g>
     <g id="line2d_34">
      <g>
       <use xlink:href="#mdb0c36b5ba" x="376.702885" y="305.535925" style="fill: #17324d; stroke: #17324d; stroke-width: 0.6"/>
      </g>
     </g>
    </g>
    <g id="xtick_18">
     <g id="line2d_35">
      <path d="M 389.036302 305.535925
L 389.036302 22.715625
" clip-path="url(#p1b250c13ff)" style="fill: none; stroke: #cbd5df; stroke-opacity: 0.28; stroke-width: 0.8; stroke-linecap: square"/>
     </g>
     <g id="line2d_36">
      <g>
       <use xlink:href="#mdb0c36b5ba" x="389.036302" y="305.535925" style="fill: #17324d; stroke: #17324d; stroke-width: 0.6"/>
      </g>
     </g>
    </g>
    <g id="xtick_19">
     <g id="line2d_37">
      <path d="M 399.915147 305.535925
L 399.915147 22.715625
" clip-path="url(#p1b250c13ff)" style="fill: none; stroke: #cbd5df; stroke-opacity: 0.28; stroke-width: 0.8; stroke-linecap: square"/>
     </g>
     <g id="line2d_38">
      <g>
       <use xlink:href="#mdb0c36b5ba" x="399.915147" y="305.535925" style="fill: #17324d; stroke: #17324d; stroke-width: 0.6"/>
      </g>
     </g>
    </g>
    <g id="xtick_20">
     <g id="line2d_39">
      <path d="M 473.668056 305.535925
L 473.668056 22.715625
" clip-path="url(#p1b250c13ff)" style="fill: none; stroke: #cbd5df; stroke-opacity: 0.28; stroke-width: 0.8; stroke-linecap: square"/>
     </g>
     <g id="line2d_40">
      <g>
       <use xlink:href="#mdb0c36b5ba" x="473.668056" y="305.535925" style="fill: #17324d; stroke: #17324d; stroke-width: 0.6"/>
      </g>
     </g>
    </g>
    <g id="xtick_21">
     <g id="line2d_41">
      <path d="M 511.118203 305.535925
L 511.118203 22.715625
" clip-path="url(#p1b250c13ff)" style="fill: none; stroke: #cbd5df; stroke-opacity: 0.28; stroke-width: 0.8; stroke-linecap: square"/>
     </g>
     <g id="line2d_42">
      <g>
       <use xlink:href="#mdb0c36b5ba" x="511.118203" y="305.535925" style="fill: #17324d; stroke: #17324d; stroke-width: 0.6"/>
      </g>
     </g>
    </g>
    <g id="xtick_22">
     <g id="line2d_43">
      <path d="M 537.689505 305.535925
L 537.689505 22.715625
" clip-path="url(#p1b250c13ff)" style="fill: none; stroke: #cbd5df; stroke-opacity: 0.28; stroke-width: 0.8; stroke-linecap: square"/>
     </g>
     <g id="line2d_44">
      <g>
       <use xlink:href="#mdb0c36b5ba" x="537.689505" y="305.535925" style="fill: #17324d; stroke: #17324d; stroke-width: 0.6"/>
      </g>
     </g>
    </g>
    <g id="xtick_23">
     <g id="line2d_45">
      <path d="M 558.299809 305.535925
L 558.299809 22.715625
" clip-path="url(#p1b250c13ff)" style="fill: none; stroke: #cbd5df; stroke-opacity: 0.28; stroke-width: 0.8; stroke-linecap: square"/>
     </g>
     <g id="line2d_46">
      <g>
       <use xlink:href="#mdb0c36b5ba" x="558.299809" y="305.535925" style="fill: #17324d; stroke: #17324d; stroke-width: 0.6"/>
      </g>
     </g>
    </g>
    <g id="xtick_24">
     <g id="line2d_47">
      <path d="M 575.139653 305.535925
L 575.139653 22.715625
" clip-path="url(#p1b250c13ff)" style="fill: none; stroke: #cbd5df; stroke-opacity: 0.28; stroke-width: 0.8; stroke-linecap: square"/>
     </g>
     <g id="line2d_48">
      <g>
       <use xlink:href="#mdb0c36b5ba" x="575.139653" y="305.535925" style="fill: #17324d; stroke: #17324d; stroke-width: 0.6"/>
      </g>
     </g>
    </g>
    <g id="xtick_25">
     <g id="line2d_49">
      <path d="M 589.377538 305.535925
L 589.377538 22.715625
" clip-path="url(#p1b250c13ff)" style="fill: none; stroke: #cbd5df; stroke-opacity: 0.28; stroke-width: 0.8; stroke-linecap: square"/>
     </g>
     <g id="line2d_50">
      <g>
       <use xlink:href="#mdb0c36b5ba" x="589.377538" y="305.535925" style="fill: #17324d; stroke: #17324d; stroke-width: 0.6"/>
      </g>
     </g>
    </g>
    <g id="xtick_26">
     <g id="line2d_51">
      <path d="M 601.710955 305.535925
L 601.710955 22.715625
" clip-path="url(#p1b250c13ff)" style="fill: none; stroke: #cbd5df; stroke-opacity: 0.28; stroke-width: 0.8; stroke-linecap: square"/>
     </g>
     <g id="line2d_52">
      <g>
       <use xlink:href="#mdb0c36b5ba" x="601.710955" y="305.535925" style="fill: #17324d; stroke: #17324d; stroke-width: 0.6"/>
      </g>
     </g>
    </g>
    <g id="xtick_27">
     <g id="line2d_53">
      <path d="M 612.5898 305.535925
L 612.5898 22.715625
" clip-path="url(#p1b250c13ff)" style="fill: none; stroke: #cbd5df; stroke-opacity: 0.28; stroke-width: 0.8; stroke-linecap: square"/>
     </g>
     <g id="line2d_54">
      <g>
       <use xlink:href="#mdb0c36b5ba" x="612.5898" y="305.535925" style="fill: #17324d; stroke: #17324d; stroke-width: 0.6"/>
      </g>
     </g>
    </g>
    <g id="text_4">
     <text style="font-size: 10px; font-family: 'Hiragino Sans'; text-anchor: middle; fill: #17324d" x="362.465" y="334.135925" transform="rotate(-0 362.465 334.135925)">Time / s (log scale)</text>
    </g>
   </g>
   <g id="matplotlib.axis_2">
    <g id="ytick_1">
     <g id="line2d_55">
      <path d="M 48.31875 305.535925
L 676.61125 305.535925
" clip-path="url(#p1b250c13ff)" style="fill: none; stroke: #cbd5df; stroke-opacity: 0.28; stroke-width: 0.8; stroke-linecap: square"/>
     </g>
     <g id="line2d_56">
      <defs>
       <path id="m3f4d5b732d" d="M 0 0
L -3.5 0
" style="stroke: #17324d; stroke-width: 0.8"/>
      </defs>
      <g>
       <use xlink:href="#m3f4d5b732d" x="48.31875" y="305.535925" style="fill: #17324d; stroke: #17324d; stroke-width: 0.8"/>
      </g>
     </g>
     <g id="text_5">
      <text style="font-size: 10px; font-family: 'Hiragino Sans'; text-anchor: end; fill: #17324d" x="41.31875" y="309.390612" transform="rotate(-0 41.31875 309.390612)">300</text>
     </g>
    </g>
    <g id="ytick_2">
     <g id="line2d_57">
      <path d="M 48.31875 258.399208
L 676.61125 258.399208
" clip-path="url(#p1b250c13ff)" style="fill: none; stroke: #cbd5df; stroke-opacity: 0.28; stroke-width: 0.8; stroke-linecap: square"/>
     </g>
     <g id="line2d_58">
      <g>
       <use xlink:href="#m3f4d5b732d" x="48.31875" y="258.399208" style="fill: #17324d; stroke: #17324d; stroke-width: 0.8"/>
      </g>
     </g>
     <g id="text_6">
      <text style="font-size: 10px; font-family: 'Hiragino Sans'; text-anchor: end; fill: #17324d" x="41.31875" y="262.253896" transform="rotate(-0 41.31875 262.253896)">400</text>
     </g>
    </g>
    <g id="ytick_3">
     <g id="line2d_59">
      <path d="M 48.31875 211.262492
L 676.61125 211.262492
" clip-path="url(#p1b250c13ff)" style="fill: none; stroke: #cbd5df; stroke-opacity: 0.28; stroke-width: 0.8; stroke-linecap: square"/>
     </g>
     <g id="line2d_60">
      <g>
       <use xlink:href="#m3f4d5b732d" x="48.31875" y="211.262492" style="fill: #17324d; stroke: #17324d; stroke-width: 0.8"/>
      </g>
     </g>
     <g id="text_7">
      <text style="font-size: 10px; font-family: 'Hiragino Sans'; text-anchor: end; fill: #17324d" x="41.31875" y="215.117179" transform="rotate(-0 41.31875 215.117179)">500</text>
     </g>
    </g>
    <g id="ytick_4">
     <g id="line2d_61">
      <path d="M 48.31875 164.125775
L 676.61125 164.125775
" clip-path="url(#p1b250c13ff)" style="fill: none; stroke: #cbd5df; stroke-opacity: 0.28; stroke-width: 0.8; stroke-linecap: square"/>
     </g>
     <g id="line2d_62">
      <g>
       <use xlink:href="#m3f4d5b732d" x="48.31875" y="164.125775" style="fill: #17324d; stroke: #17324d; stroke-width: 0.8"/>
      </g>
     </g>
     <g id="text_8">
      <text style="font-size: 10px; font-family: 'Hiragino Sans'; text-anchor: end; fill: #17324d" x="41.31875" y="167.980462" transform="rotate(-0 41.31875 167.980462)">600</text>
     </g>
    </g>
    <g id="ytick_5">
     <g id="line2d_63">
      <path d="M 48.31875 116.989058
L 676.61125 116.989058
" clip-path="url(#p1b250c13ff)" style="fill: none; stroke: #cbd5df; stroke-opacity: 0.28; stroke-width: 0.8; stroke-linecap: square"/>
     </g>
     <g id="line2d_64">
      <g>
       <use xlink:href="#m3f4d5b732d" x="48.31875" y="116.989058" style="fill: #17324d; stroke: #17324d; stroke-width: 0.8"/>
      </g>
     </g>
     <g id="text_9">
      <text style="font-size: 10px; font-family: 'Hiragino Sans'; text-anchor: end; fill: #17324d" x="41.31875" y="120.843746" transform="rotate(-0 41.31875 120.843746)">700</text>
     </g>
    </g>
    <g id="ytick_6">
     <g id="line2d_65">
      <path d="M 48.31875 69.852342
L 676.61125 69.852342
" clip-path="url(#p1b250c13ff)" style="fill: none; stroke: #cbd5df; stroke-opacity: 0.28; stroke-width: 0.8; stroke-linecap: square"/>
     </g>
     <g id="line2d_66">
      <g>
       <use xlink:href="#m3f4d5b732d" x="48.31875" y="69.852342" style="fill: #17324d; stroke: #17324d; stroke-width: 0.8"/>
      </g>
     </g>
     <g id="text_10">
      <text style="font-size: 10px; font-family: 'Hiragino Sans'; text-anchor: end; fill: #17324d" x="41.31875" y="73.707029" transform="rotate(-0 41.31875 73.707029)">800</text>
     </g>
    </g>
    <g id="ytick_7">
     <g id="line2d_67">
      <path d="M 48.31875 22.715625
L 676.61125 22.715625
" clip-path="url(#p1b250c13ff)" style="fill: none; stroke: #cbd5df; stroke-opacity: 0.28; stroke-width: 0.8; stroke-linecap: square"/>
     </g>
     <g id="line2d_68">
      <g>
       <use xlink:href="#m3f4d5b732d" x="48.31875" y="22.715625" style="fill: #17324d; stroke: #17324d; stroke-width: 0.8"/>
      </g>
     </g>
     <g id="text_11">
      <text style="font-size: 10px; font-family: 'Hiragino Sans'; text-anchor: end; fill: #17324d" x="41.31875" y="26.570312" transform="rotate(-0 41.31875 26.570312)">900</text>
     </g>
    </g>
    <g id="text_12">
     <text style="font-size: 10px; font-family: 'Hiragino Sans'; text-anchor: middle; fill: #17324d" x="15.059375" y="164.125775" transform="rotate(-90 15.059375 164.125775)">Temperature / °C</text>
    </g>
   </g>
   <g id="line2d_69">
    <path d="M 181.961148 201.835148
L 196.971953 164.125775
L 228.049682 126.416402
L 273.902295 100.491207
L 335.893698 83.993357
L 409.646606 74.566013
L 511.118203 69.852342
L 622.321259 67.495506
" clip-path="url(#p1b250c13ff)" style="fill: none; stroke: #2a9d8f; stroke-width: 2.8; stroke-linecap: square"/>
   </g>
   <g id="line2d_70">
    <path d="M 205.775128 211.262492
L 224.690642 178.26679
L 260.993403 149.98476
L 320.277228 128.773237
L 389.036302 116.989058
L 473.668056 112.275387
L 575.139653 109.918551
L 653.398988 109.918551
" clip-path="url(#p1b250c13ff)" style="fill: none; stroke-dasharray: 10.36,4.48; stroke-dashoffset: 0; stroke: #2a9d8f; stroke-width: 2.8"/>
   </g>
   <g id="line2d_71">
    <path d="M 170.400651 232.474014
L 192.234328 211.262492
L 234.4221 194.764641
L 292.071132 187.694133
L 362.465 190.050969
" clip-path="url(#p1b250c13ff)" style="fill: none; stroke: #f4a261; stroke-width: 2.6; stroke-linecap: square"/>
   </g>
   <g id="line2d_72">
    <path d="M 196.971953 239.544522
L 228.049682 232.474014
L 269.796578 237.187686
L 325.014853 248.971865
L 383.075303 265.469716
" clip-path="url(#p1b250c13ff)" style="fill: none; stroke-dasharray: 9.62,4.16; stroke-dashoffset: 0; stroke: #f4a261; stroke-width: 2.6"/>
   </g>
   <g id="line2d_73">
    <path d="M 48.31875 234.83085
L 676.61125 234.83085
" clip-path="url(#p1b250c13ff)" style="fill: none; stroke: #457b9d; stroke-width: 2.4; stroke-linecap: square"/>
   </g>
   <g id="line2d_74">
    <path d="M 80.000894 36.85664
L 81.493348 39.230501
L 82.985801 41.604363
L 84.478255 43.978224
L 85.970709 46.352086
L 87.463162 48.725947
L 88.955616 51.099809
L 90.44807 53.47367
L 91.940524 55.847532
L 93.432977 58.221393
L 94.925431 60.595255
L 96.417885 62.969116
L 97.910338 65.342978
L 99.402792 67.716839
L 100.895246 70.090701
L 102.3877 72.464562
L 103.880153 74.838424
L 105.372607 77.212285
L 106.865061 79.586147
L 108.357514 81.960008
L 109.849968 84.33387
L 111.342422 86.707731
L 112.834875 89.081593
L 114.327329 91.455454
L 115.819783 93.829316
L 117.312237 96.203177
L 118.80469 98.577038
L 120.297144 100.9509
L 121.789598 103.324761
L 123.282051 105.698623
L 124.774505 108.072484
L 126.266959 110.446346
L 127.759412 112.820207
L 129.251866 115.194069
L 130.74432 117.56793
L 132.236774 119.941792
L 133.729227 122.315653
L 135.221681 124.689515
L 136.714135 127.063376
L 138.206588 129.437238
L 139.699042 131.811099
L 141.191496 134.184961
L 142.68395 136.558822
L 144.176403 138.932684
L 145.668857 141.306545
L 147.161311 143.680407
L 148.653764 146.054268
L 150.146218 148.42813
L 151.638672 150.801991
L 153.131125 153.175852
L 154.623579 155.549714
L 156.116033 157.923575
L 157.608487 160.297437
L 159.10094 162.671298
L 160.593394 165.04516
L 162.085848 167.419021
L 163.578301 169.792883
L 165.070755 172.166744
L 166.563209 174.540606
L 168.055662 176.914467
L 169.548116 179.288329
L 171.04057 181.66219
L 172.533024 184.036052
L 174.025477 186.409913
L 175.517931 188.783775
L 177.010385 191.157636
L 178.502838 193.531498
L 179.995292 195.905359
L 181.487746 198.279221
L 182.9802 200.653082
L 184.472653 203.026944
L 185.965107 205.400805
L 187.457561 207.774667
L 188.950014 210.148528
L 190.442468 212.522389
L 191.934922 214.896251
L 193.427375 217.270112
L 194.919829 219.643974
L 196.412283 222.017835
L 197.904737 224.391697
L 199.39719 226.765558
L 200.889644 229.13942
L 202.382098 231.513281
L 203.874551 233.887143
L 205.367005 236.261004
L 206.859459 238.634866
L 208.351912 241.008727
L 209.844366 243.382589
L 211.33682 245.75645
L 212.829274 248.130312
L 214.321727 250.504173
L 215.814181 252.878035
L 217.306635 255.251896
L 218.799088 257.625758
L 220.291542 259.999619
L 221.783996 262.373481
L 223.27645 264.747342
L 224.768903 267.121203
L 226.261357 269.495065
L 227.753811 271.868926
L 229.246264 274.242788
L 230.738718 276.616649
L 232.231172 278.990511
L 233.723625 281.364372
L 235.216079 283.738234
L 236.708533 286.112095
L 238.200987 288.485957
L 239.69344 290.859818
L 241.185894 293.23368
L 242.678348 295.607541
L 244.170801 297.981403
L 245.663255 300.355264
L 247.155709 302.729126
L 248.648162 305.102987
" clip-path="url(#p1b250c13ff)" style="fill: none; stroke-dasharray: 12.8,3.2,2,3.2; stroke-dashoffset: 0; stroke: #17324d; stroke-width: 2"/>
   </g>
   <g id="line2d_75">
    <path d="M 80.000894 36.85664
L 626.23895 305.405115
L 626.23895 305.405115
" clip-path="url(#p1b250c13ff)" style="fill: none; stroke-dasharray: 12.8,3.2,2,3.2; stroke-dashoffset: 0; stroke: #6c5ce7; stroke-width: 2"/>
   </g>
   <g id="patch_3">
    <path d="M 48.31875 305.535925
L 48.31875 22.715625
" style="fill: none; stroke: #17324d; stroke-width: 0.8; stroke-linejoin: miter; stroke-linecap: square"/>
   </g>
   <g id="patch_4">
    <path d="M 48.31875 305.535925
L 676.61125 305.535925
" style="fill: none; stroke: #17324d; stroke-width: 0.8; stroke-linejoin: miter; stroke-linecap: square"/>
   </g>
   <g id="text_13">
    <text style="font-weight: 700; font-size: 13px; font-family: 'Hiragino Sans'; text-anchor: start; fill: #17324d" x="141.753678" y="182.980462" transform="rotate(-0 141.753678 182.980462)">A</text>
   </g>
   <g id="text_14">
    <text style="font-weight: 700; font-size: 13px; font-family: 'Hiragino Sans'; text-anchor: start; fill: #6c5ce7" x="589.377538" y="178.26679" transform="rotate(-0 589.377538 178.26679)">B</text>
   </g>
   <g id="text_15">
    <g id="patch_5">
     <path d="M 117.219045 123.638785
L 129.219045 123.638785
Q 132.219045 123.638785 132.219045 120.638785
L 132.219045 108.62566
Q 132.219045 105.62566 129.219045 105.62566
L 117.219045 105.62566
Q 114.219045 105.62566 114.219045 108.62566
L 114.219045 120.638785
Q 114.219045 123.638785 117.219045 123.638785
z
" style="fill: #ffffff; opacity: 0.92; stroke: #cbd5df; stroke-linejoin: miter"/>
    </g>
    <text style="font-weight: 700; font-size: 12px; font-family: 'Hiragino Sans'; text-anchor: middle; fill: #17324d" x="123.219045" y="118.130035" transform="rotate(-0 123.219045 118.130035)">①</text>
   </g>
   <g id="text_16">
    <g id="patch_6">
     <path d="M 370.702885 100.070427
L 382.702885 100.070427
Q 385.702885 100.070427 385.702885 97.070427
L 385.702885 85.057302
Q 385.702885 82.057302 382.702885 82.057302
L 370.702885 82.057302
Q 367.702885 82.057302 367.702885 85.057302
L 367.702885 97.070427
Q 367.702885 100.070427 370.702885 100.070427
z
" style="fill: #ffffff; opacity: 0.92; stroke: #cbd5df; stroke-linejoin: miter"/>
    </g>
    <text style="font-weight: 700; font-size: 12px; font-family: 'Hiragino Sans'; text-anchor: middle; fill: #17324d" x="376.702885" y="94.561677" transform="rotate(-0 376.702885 94.561677)">②</text>
   </g>
   <g id="text_17">
    <g id="patch_7">
     <path d="M 319.014853 156.634487
L 331.014853 156.634487
Q 334.014853 156.634487 334.014853 153.634487
L 334.014853 141.621362
Q 334.014853 138.621362 331.014853 138.621362
L 319.014853 138.621362
Q 316.014853 138.621362 316.014853 141.621362
L 316.014853 153.634487
Q 316.014853 156.634487 319.014853 156.634487
z
" style="fill: #ffffff; opacity: 0.92; stroke: #cbd5df; stroke-linejoin: miter"/>
    </g>
    <text style="font-weight: 700; font-size: 12px; font-family: 'Hiragino Sans'; text-anchor: middle; fill: #17324d" x="325.014853" y="151.125737" transform="rotate(-0 325.014853 151.125737)">③</text>
   </g>
   <g id="text_18">
    <g id="patch_8">
     <path d="M 267.902295 222.62589
L 279.902295 222.62589
Q 282.902295 222.62589 282.902295 219.62589
L 282.902295 207.612765
Q 282.902295 204.612765 279.902295 204.612765
L 267.902295 204.612765
Q 264.902295 204.612765 264.902295 207.612765
L 264.902295 219.62589
Q 264.902295 222.62589 267.902295 222.62589
z
" style="fill: #ffffff; opacity: 0.92; stroke: #cbd5df; stroke-linejoin: miter"/>
    </g>
    <text style="font-weight: 700; font-size: 12px; font-family: 'Hiragino Sans'; text-anchor: middle; fill: #17324d" x="273.902295" y="217.11714" transform="rotate(-0 273.902295 217.11714)">④</text>
   </g>
   <g id="text_19">
    <g id="patch_9">
     <path d="M 126.950503 283.903622
L 138.950503 283.903622
Q 141.950503 283.903622 141.950503 280.903622
L 141.950503 268.890497
Q 141.950503 265.890497 138.950503 265.890497
L 126.950503 265.890497
Q 123.950503 265.890497 123.950503 268.890497
L 123.950503 280.903622
Q 123.950503 283.903622 126.950503 283.903622
z
" style="fill: #ffffff; opacity: 0.92; stroke: #cbd5df; stroke-linejoin: miter"/>
    </g>
    <text style="font-weight: 700; font-size: 12px; font-family: 'Hiragino Sans'; text-anchor: middle; fill: #17324d" x="132.950503" y="278.394872" transform="rotate(-0 132.950503 278.394872)">⑤</text>
   </g>
   <g id="text_20">
    <text style="font-size: 10px; font-family: 'Hiragino Sans'; text-anchor: start; fill: #64748b" x="48.31875" y="48.640819" transform="rotate(-0 48.31875 48.640819)">austenitised</text>
   </g>
   <g id="text_21">
    <text style="font-size: 12px; font-family: 'Hiragino Sans'; text-anchor: middle; fill: #17324d" x="362.465" y="16.715625" transform="rotate(-0 362.465 16.715625)">Fe–0.15 wt% C continuous-cooling map — schematic</text>
   </g>
   <g id="legend_1">
    <g id="patch_10">
     <path d="M 198.96375 366.584594
L 525.96625 366.584594
Q 527.56625 366.584594 527.56625 364.984594
L 527.56625 342.089594
Q 527.56625 340.489594 525.96625 340.489594
L 198.96375 340.489594
Q 197.36375 340.489594 197.36375 342.089594
L 197.36375 364.984594
Q 197.36375 366.584594 198.96375 366.584594
z
" style="fill: #ffffff; opacity: 0.8; stroke: #cccccc; stroke-linejoin: miter"/>
    </g>
    <g id="line2d_76">
     <path d="M 200.56375 347.057094
L 208.56375 347.057094
L 216.56375 347.057094
" style="fill: none; stroke: #2a9d8f; stroke-width: 2.8; stroke-linecap: square"/>
    </g>
    <g id="text_22">
     <text style="font-size: 8px; font-family: 'Hiragino Sans'; text-anchor: start; fill: #17324d" x="222.96375" y="349.857094" transform="rotate(-0 222.96375 349.857094)">transformation start</text>
    </g>
    <g id="line2d_77">
     <path d="M 200.56375 358.864594
L 208.56375 358.864594
L 216.56375 358.864594
" style="fill: none; stroke-dasharray: 10.36,4.48; stroke-dashoffset: 0; stroke: #2a9d8f; stroke-width: 2.8"/>
    </g>
    <g id="text_23">
     <text style="font-size: 8px; font-family: 'Hiragino Sans'; text-anchor: start; fill: #17324d" x="222.96375" y="361.664594" transform="rotate(-0 222.96375 361.664594)">transformation finish</text>
    </g>
    <g id="line2d_78">
     <path d="M 324.5975 347.057094
L 332.5975 347.057094
L 340.5975 347.057094
" style="fill: none; stroke: #f4a261; stroke-width: 2.6; stroke-linecap: square"/>
    </g>
    <g id="text_24">
     <text style="font-size: 8px; font-family: 'Hiragino Sans'; text-anchor: start; fill: #17324d" x="346.9975" y="349.857094" transform="rotate(-0 346.9975 349.857094)">lower-temperature start</text>
    </g>
    <g id="line2d_79">
     <path d="M 324.5975 358.944594
L 332.5975 358.944594
L 340.5975 358.944594
" style="fill: none; stroke-dasharray: 9.62,4.16; stroke-dashoffset: 0; stroke: #f4a261; stroke-width: 2.6"/>
    </g>
    <g id="text_25">
     <text style="font-size: 8px; font-family: 'Hiragino Sans'; text-anchor: start; fill: #17324d" x="346.9975" y="361.744594" transform="rotate(-0 346.9975 361.744594)">lower-temperature finish</text>
    </g>
    <g id="line2d_80">
     <path d="M 464.01625 347.057094
L 472.01625 347.057094
L 480.01625 347.057094
" style="fill: none; stroke-dasharray: 12.8,3.2,2,3.2; stroke-dashoffset: 0; stroke: #17324d; stroke-width: 2"/>
    </g>
    <g id="text_26">
     <text style="font-size: 8px; font-family: 'Hiragino Sans'; text-anchor: start; fill: #17324d" x="486.41625" y="349.857094" transform="rotate(-0 486.41625 349.857094)">cooling A</text>
    </g>
    <g id="line2d_81">
     <path d="M 464.01625 358.897094
L 472.01625 358.897094
L 480.01625 358.897094
" style="fill: none; stroke-dasharray: 12.8,3.2,2,3.2; stroke-dashoffset: 0; stroke: #6c5ce7; stroke-width: 2"/>
    </g>
    <g id="text_27">
     <text style="font-size: 8px; font-family: 'Hiragino Sans'; text-anchor: start; fill: #17324d" x="486.41625" y="361.697094" transform="rotate(-0 486.41625 361.697094)">cooling B</text>
    </g>
   </g>
  </g>
  <g id="text_28">
   <text style="font-size: 10px; font-family: 'Hiragino Sans'; text-anchor: middle; fill: #64748b" x="341.81125" y="423.403125" transform="rotate(-0 341.81125 423.403125)">Redrawn from the supplied exam figure. Boundary positions and transformation fractions are not quantitative data.</text>
  </g>
 </g>
 <defs>
  <clipPath id="p1b250c13ff">
   <rect x="48.31875" y="22.715625" width="628.2925" height="282.8203"/>
  </clipPath>
 </defs>
</svg>
