<?xml version="1.0" encoding="utf-8" standalone="no"?>
<!DOCTYPE svg PUBLIC "-//W3C//DTD SVG 1.1//EN"
  "http://www.w3.org/Graphics/SVG/1.1/DTD/svg11.dtd">
<svg xmlns:xlink="http://www.w3.org/1999/xlink" width="672.209932pt" height="377.746pt" viewBox="0 0 672.209932 377.746" xmlns="http://www.w3.org/2000/svg" version="1.1">
 <metadata>
  <rdf:RDF xmlns:dc="http://purl.org/dc/elements/1.1/" xmlns:cc="http://creativecommons.org/ns#" xmlns:rdf="http://www.w3.org/1999/02/22-rdf-syntax-ns#">
   <cc:Work>
    <dc:type rdf:resource="http://purl.org/dc/dcmitype/StillImage"/>
    <dc:format>image/svg+xml</dc:format>
    <dc:creator>
     <cc:Agent>
      <dc:title>Matplotlib v3.10.9, https://matplotlib.org/</dc:title>
     </cc:Agent>
    </dc:creator>
   </cc:Work>
  </rdf:RDF>
 </metadata>
 <defs>
  <style type="text/css">*{stroke-linejoin: round; stroke-linecap: butt}</style>
 </defs>
 <g id="figure_1">
  <g id="patch_1">
   <path d="M 0 377.746
L 672.209932 377.746
L 672.209932 0
L 0 0
z
" style="fill: #ffffff"/>
  </g>
  <g id="axes_1">
   <g id="patch_2">
    <path d="M 14.377433 287.59236
L 239.270317 287.59236
L 239.270317 120.118935
L 14.377433 120.118935
z
" clip-path="url(#p3f46b78405)" style="fill: #f7f4ed"/>
   </g>
   <g id="patch_3">
    <path d="M 14.377433 287.59236
L 26.33982 287.59236
L 26.33982 120.118935
L 14.377433 120.118935
z
" clip-path="url(#p3f46b78405)" style="fill: #e9c46a; opacity: 0.1; stroke: #e9c46a; stroke-linejoin: miter"/>
   </g>
   <g id="patch_4">
    <path d="M 217.73802 287.59236
L 239.270318 287.59236
L 239.270318 120.118935
L 217.73802 120.118935
z
" clip-path="url(#p3f46b78405)" style="fill: #e9c46a; opacity: 0.1; stroke: #e9c46a; stroke-linejoin: miter"/>
   </g>
   <g id="patch_5">
    <path d="M 206.971871 214.621796
C 209.192595 214.621796 211.322662 213.739493 212.892951 212.169205
C 214.46324 210.598916 215.345542 208.468849 215.345542 206.248125
C 215.345542 204.027401 214.46324 201.897334 212.892951 200.327045
C 211.322662 198.756757 209.192595 197.874454 206.971871 197.874454
C 204.751148 197.874454 202.62108 198.756757 201.050792 200.327045
C 199.480503 201.897334 198.5982 204.027401 198.5982 206.248125
C 198.5982 208.468849 199.480503 210.598916 201.050792 212.169205
C 202.62108 213.739493 204.751148 214.621796 206.971871 214.621796
L 206.971871 214.621796
z
" clip-path="url(#p3f46b78405)" style="fill: none; opacity: 0.75; stroke: #e76f51; stroke-width: 1.3; stroke-linejoin: miter"/>
   </g>
   <g id="patch_6">
    <path d="M 206.971871 220.60299
C 210.778826 220.60299 214.43037 219.090471 217.122294 216.398547
C 219.814217 213.706624 221.326736 210.05508 221.326736 206.248125
C 221.326736 202.44117 219.814217 198.789626 217.122294 196.097703
C 214.43037 193.405779 210.778826 191.89326 206.971871 191.89326
C 203.164917 191.89326 199.513372 193.405779 196.821449 196.097703
C 194.129525 198.789626 192.617006 202.44117 192.617006 206.248125
C 192.617006 210.05508 194.129525 213.706624 196.821449 216.398547
C 199.513372 219.090471 203.164917 220.60299 206.971871 220.60299
L 206.971871 220.60299
z
" clip-path="url(#p3f46b78405)" style="fill: none; opacity: 0.45; stroke: #e76f51; stroke-width: 1.3; stroke-linejoin: miter"/>
   </g>
   <g id="patch_7">
    <path d="M 206.971871 226.584184
C 212.365057 226.584184 217.538078 224.441448 221.351636 220.62789
C 225.165195 216.814332 227.30793 211.641311 227.30793 206.248125
C 227.30793 200.854939 225.165195 195.681918 221.351636 191.86836
C 217.538078 188.054802 212.365057 185.912066 206.971871 185.912066
C 201.578685 185.912066 196.405664 188.054802 192.592106 191.86836
C 188.778548 195.681918 186.635812 200.854939 186.635812 206.248125
C 186.635812 211.641311 188.778548 216.814332 192.592106 220.62789
C 196.405664 224.441448 201.578685 226.584184 206.971871 226.584184
L 206.971871 226.584184
z
" clip-path="url(#p3f46b78405)" style="fill: none; opacity: 0.22; stroke: #e76f51; stroke-width: 1.3; stroke-linejoin: miter"/>
   </g>
   <g id="patch_8">
    <path d="M 42.69158 136.866277
Q 70.598701 136.866277 96.269753 136.866277
" clip-path="url(#p3f46b78405)" style="fill: none; stroke: #17324d; stroke-width: 2; stroke-linecap: round"/>
    <path d="M 89.869753 133.666278
L 96.269753 136.866277
L 89.869753 140.066277
z
" clip-path="url(#p3f46b78405)" style="fill: #17324d; stroke: #17324d; stroke-width: 2; stroke-linecap: round"/>
   </g>
   <g id="patch_9">
    <path d="M 34.802226 266.060062
Q 122.038948 266.060062 209.27567 266.060062
" clip-path="url(#p3f46b78405)" style="fill: none; stroke: #64748b; stroke-width: 1.5; stroke-linecap: round"/>
    <path d="M 40.402226 268.860062
L 34.802226 266.060062
L 40.402226 263.260063
" clip-path="url(#p3f46b78405)" style="fill: none; stroke: #64748b; stroke-width: 1.5; stroke-linecap: round"/>
    <path d="M 203.67567 263.260063
L 209.27567 266.060062
L 203.67567 268.860062
" clip-path="url(#p3f46b78405)" style="fill: none; stroke: #64748b; stroke-width: 1.5; stroke-linecap: round"/>
   </g>
   <g id="patch_10">
    <path d="M 216.240969 202.064794
Q 222.522971 189.50079 227.304974 179.936785
" clip-path="url(#p3f46b78405)" style="fill: none; stroke: #2a9d8f; stroke-width: 3; stroke-linecap: round"/>
    <path d="M 220.865098 184.766692
L 227.304974 179.936785
L 227.304974 187.98663
z
" clip-path="url(#p3f46b78405)" style="fill: #2a9d8f; stroke: #2a9d8f; stroke-width: 3; stroke-linecap: round"/>
   </g>
   <g id="line2d_1">
    <path d="M 26.33982 206.248125
L 217.73802 206.248125
" clip-path="url(#p3f46b78405)" style="fill: none; stroke: #457b9d; stroke-width: 2; stroke-linecap: square"/>
   </g>
   <g id="line2d_2">
    <path d="M 217.73802 206.248125
L 236.87784 170.360962
" clip-path="url(#p3f46b78405)" style="fill: none; stroke-dasharray: 6.29,2.72; stroke-dashoffset: 0; stroke: #457b9d; stroke-width: 1.7"/>
   </g>
   <g id="text_1">
    <!-- $\perp$ -->
    <g style="fill: #e76f51" transform="translate(71.556803 207.752846)">
     <text>
      <tspan x="3.506836" y="-0.078125" style="font-size: 18px; font-family: 'STIXGeneral'; fill: #e76f51">⟂</tspan>
     </text>
    </g>
   </g>
   <g id="text_2">
    <!-- $\perp$ -->
    <g style="fill: #e76f51" transform="translate(107.443965 207.752846)">
     <text>
      <tspan x="3.506836" y="-0.078125" style="font-size: 18px; font-family: 'STIXGeneral'; fill: #e76f51">⟂</tspan>
     </text>
    </g>
   </g>
   <g id="text_3">
    <!-- $\perp$ -->
    <g style="fill: #e76f51" transform="translate(136.153695 207.752846)">
     <text>
      <tspan x="3.506836" y="-0.078125" style="font-size: 18px; font-family: 'STIXGeneral'; fill: #e76f51">⟂</tspan>
     </text>
    </g>
   </g>
   <g id="text_4">
    <!-- $\perp$ -->
    <g style="fill: #e76f51" transform="translate(160.07847 207.752846)">
     <text>
      <tspan x="3.506836" y="-0.078125" style="font-size: 18px; font-family: 'STIXGeneral'; fill: #e76f51">⟂</tspan>
     </text>
    </g>
   </g>
   <g id="text_5">
    <!-- $\perp$ -->
    <g style="fill: #e76f51" transform="translate(176.825812 207.752846)">
     <text>
      <tspan x="3.506836" y="-0.078125" style="font-size: 18px; font-family: 'STIXGeneral'; fill: #e76f51">⟂</tspan>
     </text>
    </g>
   </g>
   <g id="text_6">
    <!-- $\perp$ -->
    <g style="fill: #e76f51" transform="translate(188.7882 207.752846)">
     <text>
      <tspan x="3.506836" y="-0.078125" style="font-size: 18px; font-family: 'STIXGeneral'; fill: #e76f51">⟂</tspan>
     </text>
    </g>
   </g>
   <g id="text_7">
    <!-- $\perp$ -->
    <g style="fill: #e76f51" transform="translate(197.161871 207.752846)">
     <text>
      <tspan x="3.506836" y="-0.078125" style="font-size: 18px; font-family: 'STIXGeneral'; fill: #e76f51">⟂</tspan>
     </text>
    </g>
   </g>
   <g id="text_8">
    <!-- 外力 $\tau$ -->
    <g style="fill: #17324d" transform="translate(54.704415 127.638845)">
     <text>
      <tspan x="0" y="-0.3125" style="font-size: 10px; font-family: 'Hiragino Sans'; fill: #17324d">外</tspan>
      <tspan x="9.999985" y="-0.3125" style="font-size: 10px; font-family: 'Hiragino Sans'; fill: #17324d">力</tspan>
      <tspan x="19.999969" y="-0.3125" style="font-size: 10px; font-family: 'Hiragino Sans'; fill: #17324d"> </tspan>
      <tspan x="23.329956" y="-0.3125" style="font-style: oblique; font-size: 10px; font-family: 'DejaVu Sans'; fill: #17324d">τ</tspan>
     </text>
    </g>
   </g>
   <g id="text_9">
    <!-- 粒径 $d$：大 -->
    <g style="fill: #64748b" transform="translate(97.18892 276.826211)">
     <text>
      <tspan x="0" y="-0.21875" style="font-size: 10px; font-family: 'Hiragino Sans'; fill: #64748b">粒</tspan>
      <tspan x="9.999985" y="-0.21875" style="font-size: 10px; font-family: 'Hiragino Sans'; fill: #64748b">径</tspan>
      <tspan x="19.999969" y="-0.21875" style="font-size: 10px; font-family: 'Hiragino Sans'; fill: #64748b"> </tspan>
      <tspan x="29.677612" y="-0.21875" style="font-size: 10px; font-family: 'Hiragino Sans'; fill: #64748b">：</tspan>
      <tspan x="39.677597" y="-0.21875" style="font-size: 10px; font-family: 'Hiragino Sans'; fill: #64748b">大</tspan>
      <tspan x="23.329956" y="-0.21875" style="font-style: oblique; font-size: 10px; font-family: 'DejaVu Sans'; fill: #64748b">d</tspan>
     </text>
    </g>
   </g>
   <g id="text_10">
    <text style="font-size: 10px; font-family: 'Hiragino Sans'; text-anchor: middle; fill: #64748b" x="217.73802" y="112.941503" transform="rotate(-0 217.73802 112.941503)">粒界</text>
   </g>
   <g id="text_11">
    <text style="font-weight: 700; font-size: 10px; font-family: 'Hiragino Sans'; text-anchor: middle; fill: #2a9d8f" x="215.345543" y="158.398575" transform="rotate(-0 215.345543 158.398575)">すべり伝達</text>
   </g>
   <g id="text_12">
    <text style="font-weight: 700; font-size: 10px; font-family: 'Hiragino Sans'; fill: #17324d" transform="translate(53.494187 305.045762)">長い堆積列 → 先頭応力が大きい</text>
    <text style="font-weight: 700; font-size: 10px; font-family: 'Hiragino Sans'; fill: #17324d" transform="translate(61.823875 316.640762)">小さい外力でも隣接粒へ伝達</text>
   </g>
   <g id="text_13">
    <text style="font-weight: 700; font-size: 13px; font-family: 'Hiragino Sans'; text-anchor: middle; fill: #17324d" x="126.823875" y="80.62425" transform="rotate(-0 126.823875 80.62425)">大きい結晶粒</text>
   </g>
   <g id="line2d_3">
    <path d="M 26.33982 282.807405
L 27.560421 277.841886
L 28.051159 274.862574
L 28.251467 271.883262
L 28.127353 268.903951
L 27.699878 265.924639
L 27.04159 262.945328
L 24.877684 254.007393
L 24.503853 251.028081
L 24.441601 248.04877
L 24.701494 245.069458
L 25.239425 242.090146
L 26.226435 238.117731
L 27.470941 233.152212
L 27.997377 230.1729
L 28.242512 227.193588
L 28.164743 224.214277
L 27.777268 221.234965
L 27.145846 218.255654
L 24.784735 208.324615
L 24.46688 205.345303
L 24.46688 202.365992
L 24.784735 199.38668
L 25.366501 196.407368
L 26.898811 190.448745
L 27.777268 186.47633
L 28.164743 183.497018
L 28.242512 180.517707
L 27.997377 177.538395
L 27.470941 174.559083
L 26.490932 170.586668
L 25.239425 165.621149
L 24.701494 162.641837
L 24.441601 159.662525
L 24.503853 156.683214
L 24.877684 153.703902
L 25.499653 150.724591
L 27.872556 140.793552
L 28.204605 137.81424
L 28.220183 134.834929
L 27.916647 131.855617
L 27.34551 128.876305
L 26.33982 124.90389
L 26.33982 124.90389
" clip-path="url(#p3f46b78405)" style="fill: none; stroke: #17324d; stroke-width: 2; stroke-linecap: square"/>
   </g>
   <g id="line2d_4">
    <path d="M 217.73802 282.807405
L 218.958621 277.841886
L 219.449359 274.862574
L 219.649667 271.883262
L 219.525553 268.903951
L 219.098078 265.924639
L 218.43979 262.945328
L 216.275884 254.007393
L 215.902053 251.028081
L 215.839801 248.04877
L 216.099694 245.069458
L 216.637625 242.090146
L 217.624635 238.117731
L 218.869141 233.152212
L 219.395577 230.1729
L 219.640712 227.193588
L 219.562943 224.214277
L 219.175468 221.234965
L 218.544046 218.255654
L 216.182935 208.324615
L 215.86508 205.345303
L 215.86508 202.365992
L 216.182935 199.38668
L 216.764701 196.407368
L 218.297011 190.448745
L 219.175468 186.47633
L 219.562943 183.497018
L 219.640712 180.517707
L 219.395577 177.538395
L 218.869141 174.559083
L 217.889132 170.586668
L 216.637625 165.621149
L 216.099694 162.641837
L 215.839801 159.662525
L 215.902053 156.683214
L 216.275884 153.703902
L 216.897853 150.724591
L 219.270756 140.793552
L 219.602805 137.81424
L 219.618383 134.834929
L 219.314847 131.855617
L 218.74371 128.876305
L 217.73802 124.90389
L 217.73802 124.90389
" clip-path="url(#p3f46b78405)" style="fill: none; stroke: #17324d; stroke-width: 2; stroke-linecap: square"/>
   </g>
  </g>
  <g id="axes_2">
   <g id="patch_11">
    <path d="M 432.939614 287.59236
L 657.832499 287.59236
L 657.832499 120.118935
L 432.939614 120.118935
z
" clip-path="url(#p1b78428253)" style="fill: #f7f4ed"/>
   </g>
   <g id="patch_12">
    <path d="M 432.939614 287.59236
L 497.536507 287.59236
L 497.536507 120.118935
L 432.939614 120.118935
z
" clip-path="url(#p1b78428253)" style="fill: #e9c46a; opacity: 0.1; stroke: #e9c46a; stroke-linejoin: miter"/>
   </g>
   <g id="patch_13">
    <path d="M 593.235607 287.59236
L 657.832499 287.59236
L 657.832499 120.118935
L 593.235607 120.118935
z
" clip-path="url(#p1b78428253)" style="fill: #e9c46a; opacity: 0.1; stroke: #e9c46a; stroke-linejoin: miter"/>
   </g>
   <g id="patch_14">
    <path d="M 580.076981 214.621796
C 582.297704 214.621796 584.427772 213.739493 585.99806 212.169205
C 587.568349 210.598916 588.450652 208.468849 588.450652 206.248125
C 588.450652 204.027401 587.568349 201.897334 585.99806 200.327045
C 584.427772 198.756757 582.297704 197.874454 580.076981 197.874454
C 577.856257 197.874454 575.72619 198.756757 574.155901 200.327045
C 572.585612 201.897334 571.703309 204.027401 571.703309 206.248125
C 571.703309 208.468849 572.585612 210.598916 574.155901 212.169205
C 575.72619 213.739493 577.856257 214.621796 580.076981 214.621796
L 580.076981 214.621796
z
" clip-path="url(#p1b78428253)" style="fill: none; opacity: 0.75; stroke: #e76f51; stroke-width: 1.3; stroke-linejoin: miter"/>
   </g>
   <g id="patch_15">
    <path d="M 580.076981 220.60299
C 583.883935 220.60299 587.535479 219.090471 590.227403 216.398547
C 592.919326 213.706624 594.431846 210.05508 594.431846 206.248125
C 594.431846 202.44117 592.919326 198.789626 590.227403 196.097703
C 587.535479 193.405779 583.883935 191.89326 580.076981 191.89326
C 576.270026 191.89326 572.618482 193.405779 569.926558 196.097703
C 567.234635 198.789626 565.722116 202.44117 565.722116 206.248125
C 565.722116 210.05508 567.234635 213.706624 569.926558 216.398547
C 572.618482 219.090471 576.270026 220.60299 580.076981 220.60299
L 580.076981 220.60299
z
" clip-path="url(#p1b78428253)" style="fill: none; opacity: 0.45; stroke: #e76f51; stroke-width: 1.3; stroke-linejoin: miter"/>
   </g>
   <g id="patch_16">
    <path d="M 580.076981 226.584184
C 585.470166 226.584184 590.643187 224.441448 594.456746 220.62789
C 598.270304 216.814332 600.413039 211.641311 600.413039 206.248125
C 600.413039 200.854939 598.270304 195.681918 594.456746 191.86836
C 590.643187 188.054802 585.470166 185.912066 580.076981 185.912066
C 574.683795 185.912066 569.510774 188.054802 565.697216 191.86836
C 561.883657 195.681918 559.740922 200.854939 559.740922 206.248125
C 559.740922 211.641311 561.883657 216.814332 565.697216 220.62789
C 569.510774 224.441448 574.683795 226.584184 580.076981 226.584184
L 580.076981 226.584184
z
" clip-path="url(#p1b78428253)" style="fill: none; opacity: 0.22; stroke: #e76f51; stroke-width: 1.3; stroke-linejoin: miter"/>
   </g>
   <g id="patch_17">
    <path d="M 513.888267 136.866277
Q 541.795387 136.866277 567.46644 136.866277
" clip-path="url(#p1b78428253)" style="fill: none; stroke: #17324d; stroke-width: 2; stroke-linecap: round"/>
    <path d="M 561.06644 133.666278
L 567.46644 136.866277
L 561.06644 140.066277
z
" clip-path="url(#p1b78428253)" style="fill: #17324d; stroke: #17324d; stroke-width: 2; stroke-linecap: round"/>
   </g>
   <g id="patch_18">
    <path d="M 505.998767 266.060062
Q 545.386177 266.060062 584.773587 266.060062
" clip-path="url(#p1b78428253)" style="fill: none; stroke: #64748b; stroke-width: 1.5; stroke-linecap: round"/>
    <path d="M 511.598767 268.860062
L 505.998767 266.060062
L 511.598767 263.260063
" clip-path="url(#p1b78428253)" style="fill: none; stroke: #64748b; stroke-width: 1.5; stroke-linecap: round"/>
    <path d="M 579.173587 263.260063
L 584.773587 266.060062
L 579.173587 268.860062
" clip-path="url(#p1b78428253)" style="fill: none; stroke: #64748b; stroke-width: 1.5; stroke-linecap: round"/>
   </g>
   <g id="patch_19">
    <path d="M 576.096625 203.855648
Q 581.871036 203.855648 585.40938 203.855648
" clip-path="url(#p1b78428253)" style="fill: none; stroke-dasharray: 7.4,3.2; stroke-dashoffset: 0; stroke: #64748b; stroke-width: 2; stroke-linecap: round"/>
    <path d="M 579.40938 200.855648
L 585.40938 203.855648
L 579.40938 206.855648
z
" clip-path="url(#p1b78428253)" style="fill: #64748b; stroke-dasharray: 7.4,3.2; stroke-dashoffset: 0; stroke: #64748b; stroke-width: 2; stroke-linecap: round"/>
   </g>
   <g id="line2d_5">
    <path d="M 497.536507 206.248125
L 593.235607 206.248125
" clip-path="url(#p1b78428253)" style="fill: none; stroke: #457b9d; stroke-width: 2; stroke-linecap: square"/>
   </g>
   <g id="line2d_6">
    <path d="M 593.235607 206.248125
L 655.440022 170.360962
" clip-path="url(#p1b78428253)" style="fill: none; stroke-dasharray: 6.29,2.72; stroke-dashoffset: 0; stroke: #457b9d; stroke-width: 1.7"/>
   </g>
   <g id="text_14">
    <!-- $\perp$ -->
    <g style="fill: #e76f51" transform="translate(530.791102 207.752846)">
     <text>
      <tspan x="3.506836" y="-0.078125" style="font-size: 18px; font-family: 'STIXGeneral'; fill: #e76f51">⟂</tspan>
     </text>
    </g>
   </g>
   <g id="text_15">
    <!-- $\perp$ -->
    <g style="fill: #e76f51" transform="translate(554.715877 207.752846)">
     <text>
      <tspan x="3.506836" y="-0.078125" style="font-size: 18px; font-family: 'STIXGeneral'; fill: #e76f51">⟂</tspan>
     </text>
    </g>
   </g>
   <g id="text_16">
    <!-- $\perp$ -->
    <g style="fill: #e76f51" transform="translate(570.266981 207.752846)">
     <text>
      <tspan x="3.506836" y="-0.078125" style="font-size: 18px; font-family: 'STIXGeneral'; fill: #e76f51">⟂</tspan>
     </text>
    </g>
   </g>
   <g id="text_17">
    <!-- 外力 $\tau$ -->
    <g style="fill: #17324d" transform="translate(525.901102 127.638845)">
     <text>
      <tspan x="0" y="-0.3125" style="font-size: 10px; font-family: 'Hiragino Sans'; fill: #17324d">外</tspan>
      <tspan x="9.999985" y="-0.3125" style="font-size: 10px; font-family: 'Hiragino Sans'; fill: #17324d">力</tspan>
      <tspan x="19.999969" y="-0.3125" style="font-size: 10px; font-family: 'Hiragino Sans'; fill: #17324d"> </tspan>
      <tspan x="23.329956" y="-0.3125" style="font-style: oblique; font-size: 10px; font-family: 'DejaVu Sans'; fill: #17324d">τ</tspan>
     </text>
    </g>
   </g>
   <g id="text_18">
    <!-- 粒径 $d$：小 -->
    <g style="fill: #64748b" transform="translate(520.536057 276.826211)">
     <text>
      <tspan x="0" y="-0.21875" style="font-size: 10px; font-family: 'Hiragino Sans'; fill: #64748b">粒</tspan>
      <tspan x="9.999985" y="-0.21875" style="font-size: 10px; font-family: 'Hiragino Sans'; fill: #64748b">径</tspan>
      <tspan x="19.999969" y="-0.21875" style="font-size: 10px; font-family: 'Hiragino Sans'; fill: #64748b"> </tspan>
      <tspan x="29.677612" y="-0.21875" style="font-size: 10px; font-family: 'Hiragino Sans'; fill: #64748b">：</tspan>
      <tspan x="39.677597" y="-0.21875" style="font-size: 10px; font-family: 'Hiragino Sans'; fill: #64748b">小</tspan>
      <tspan x="23.329956" y="-0.21875" style="font-style: oblique; font-size: 10px; font-family: 'DejaVu Sans'; fill: #64748b">d</tspan>
     </text>
    </g>
   </g>
   <g id="text_19">
    <text style="font-size: 10px; font-family: 'Hiragino Sans'; text-anchor: middle; fill: #64748b" x="593.235607" y="112.941503" transform="rotate(-0 593.235607 112.941503)">粒界</text>
   </g>
   <g id="text_20">
    <text style="font-size: 20px; font-family: 'Hiragino Sans'; text-anchor: start; fill: #e76f51" x="598.020562" y="209.515023" transform="rotate(-0 598.020562 209.515023)">×</text>
   </g>
   <g id="text_21">
    <text style="font-weight: 700; font-size: 10px; font-family: 'Hiragino Sans'; fill: #17324d" transform="translate(472.056369 305.045762)">短い堆積列 → 先頭応力が小さい</text>
    <text style="font-weight: 700; font-size: 10px; font-family: 'Hiragino Sans'; fill: #17324d" transform="translate(455.386057 316.640762)">粒界を越すには、より大きい外力が必要</text>
   </g>
   <g id="text_22">
    <text style="font-weight: 700; font-size: 13px; font-family: 'Hiragino Sans'; text-anchor: middle; fill: #17324d" x="545.386057" y="80.62425" transform="rotate(-0 545.386057 80.62425)">小さい結晶粒</text>
   </g>
   <g id="line2d_7">
    <path d="M 497.536507 282.807405
L 498.757108 277.841886
L 499.247845 274.862574
L 499.448154 271.883262
L 499.32404 268.903951
L 498.896565 265.924639
L 498.238277 262.945328
L 496.074371 254.007393
L 495.70054 251.028081
L 495.638288 248.04877
L 495.898181 245.069458
L 496.436112 242.090146
L 497.423121 238.117731
L 498.667627 233.152212
L 499.194064 230.1729
L 499.439198 227.193588
L 499.361429 224.214277
L 498.973955 221.234965
L 498.342533 218.255654
L 495.981422 208.324615
L 495.663567 205.345303
L 495.663567 202.365992
L 495.981422 199.38668
L 496.563187 196.407368
L 498.095498 190.448745
L 498.973955 186.47633
L 499.361429 183.497018
L 499.439198 180.517707
L 499.194064 177.538395
L 498.667627 174.559083
L 497.687619 170.586668
L 496.436112 165.621149
L 495.898181 162.641837
L 495.638288 159.662525
L 495.70054 156.683214
L 496.074371 153.703902
L 496.69634 150.724591
L 499.069243 140.793552
L 499.401292 137.81424
L 499.41687 134.834929
L 499.113334 131.855617
L 498.542196 128.876305
L 497.536507 124.90389
L 497.536507 124.90389
" clip-path="url(#p1b78428253)" style="fill: none; stroke: #17324d; stroke-width: 2; stroke-linecap: square"/>
   </g>
   <g id="line2d_8">
    <path d="M 593.235607 282.807405
L 594.456208 277.841886
L 594.946945 274.862574
L 595.147254 271.883262
L 595.02314 268.903951
L 594.595665 265.924639
L 593.937377 262.945328
L 591.773471 254.007393
L 591.39964 251.028081
L 591.337388 248.04877
L 591.597281 245.069458
L 592.135212 242.090146
L 593.122221 238.117731
L 594.366727 233.152212
L 594.893164 230.1729
L 595.138298 227.193588
L 595.060529 224.214277
L 594.673055 221.234965
L 594.041633 218.255654
L 591.680522 208.324615
L 591.362667 205.345303
L 591.362667 202.365992
L 591.680522 199.38668
L 592.262287 196.407368
L 593.794598 190.448745
L 594.673055 186.47633
L 595.060529 183.497018
L 595.138298 180.517707
L 594.893164 177.538395
L 594.366727 174.559083
L 593.386719 170.586668
L 592.135212 165.621149
L 591.597281 162.641837
L 591.337388 159.662525
L 591.39964 156.683214
L 591.773471 153.703902
L 592.39544 150.724591
L 594.768343 140.793552
L 595.100392 137.81424
L 595.11597 134.834929
L 594.812434 131.855617
L 594.241296 128.876305
L 593.235607 124.90389
L 593.235607 124.90389
" clip-path="url(#p1b78428253)" style="fill: none; stroke: #17324d; stroke-width: 2; stroke-linecap: square"/>
   </g>
  </g>
  <g id="text_23">
   <text style="font-weight: 700; font-size: 15px; font-family: 'Hiragino Sans'; text-anchor: middle; fill: #17324d" x="336.104966" y="19.080469" transform="rotate(-0 336.104966 19.080469)">粒径を小さくすると、転位の堆積列が短くなる</text>
  </g>
  <g id="text_24">
   <!-- Hall- -Petch則：$\sigma_y=\sigma_0+k_y d^{-1/2}$ -->
   <g style="fill: #17324d" transform="translate(238.484966 350.8992)">
    <text>
     <tspan x="0" y="-0.171875" style="font-weight: 700; font-size: 12px; font-family: 'Hiragino Sans'; fill: #17324d">H</tspan>
     <tspan x="10.199982" y="-0.171875" style="font-weight: 700; font-size: 12px; font-family: 'Hiragino Sans'; fill: #17324d">a</tspan>
     <tspan x="18.167969" y="-0.171875" style="font-weight: 700; font-size: 12px; font-family: 'Hiragino Sans'; fill: #17324d">l</tspan>
     <tspan x="21.659958" y="-0.171875" style="font-weight: 700; font-size: 12px; font-family: 'Hiragino Sans'; fill: #17324d">l</tspan>
     <tspan x="25.151947" y="-0.171875" style="font-weight: 700; font-size: 12px; font-family: 'Hiragino Sans'; fill: #17324d">-</tspan>
     <tspan x="30.455933" y="-0.171875" style="font-weight: 700; font-size: 12px; font-family: 'Hiragino Sans'; fill: #17324d">-</tspan>
     <tspan x="35.759918" y="-0.171875" style="font-weight: 700; font-size: 12px; font-family: 'Hiragino Sans'; fill: #17324d">P</tspan>
     <tspan x="44.591904" y="-0.171875" style="font-weight: 700; font-size: 12px; font-family: 'Hiragino Sans'; fill: #17324d">e</tspan>
     <tspan x="52.523895" y="-0.171875" style="font-weight: 700; font-size: 12px; font-family: 'Hiragino Sans'; fill: #17324d">t</tspan>
     <tspan x="57.983887" y="-0.171875" style="font-weight: 700; font-size: 12px; font-family: 'Hiragino Sans'; fill: #17324d">c</tspan>
     <tspan x="65.759872" y="-0.171875" style="font-weight: 700; font-size: 12px; font-family: 'Hiragino Sans'; fill: #17324d">h</tspan>
     <tspan x="74.183868" y="-0.171875" style="font-weight: 700; font-size: 12px; font-family: 'Hiragino Sans'; fill: #17324d">則</tspan>
     <tspan x="86.183853" y="-0.171875" style="font-weight: 700; font-size: 12px; font-family: 'Hiragino Sans'; fill: #17324d">：</tspan>
     <tspan x="98.183838" y="-0.171875" style="font-style: oblique; font-size: 12px; font-family: 'DejaVu Sans'; fill: #17324d">σ</tspan>
     <tspan x="125.818994" y="-0.171875" style="font-style: oblique; font-size: 12px; font-family: 'DejaVu Sans'; fill: #17324d">σ</tspan>
     <tspan x="153.827393" y="-0.171875" style="font-style: oblique; font-size: 12px; font-family: 'DejaVu Sans'; fill: #17324d">k</tspan>
     <tspan x="166.07583" y="-0.171875" style="font-style: oblique; font-size: 12px; font-family: 'DejaVu Sans'; fill: #17324d">d</tspan>
     <tspan x="105.789307" y="1.796875" style="font-style: oblique; font-size: 8.4px; font-family: 'DejaVu Sans'; fill: #17324d">y</tspan>
     <tspan x="160.776611" y="1.796875" style="font-style: oblique; font-size: 8.4px; font-family: 'DejaVu Sans'; fill: #17324d">y</tspan>
     <tspan x="113.426416" y="-0.171875" style="font-size: 12px; font-family: 'DejaVu Sans'; fill: #17324d">=</tspan>
     <tspan x="141.434814" y="-0.171875" style="font-size: 12px; font-family: 'DejaVu Sans'; fill: #17324d">+</tspan>
     <tspan x="133.424463" y="1.796875" style="font-size: 8.4px; font-family: 'DejaVu Sans'; fill: #17324d">0</tspan>
     <tspan x="174.587705" y="-4.765625" style="font-size: 8.4px; font-family: 'DejaVu Sans'; fill: #17324d">−</tspan>
     <tspan x="181.625986" y="-4.765625" style="font-size: 8.4px; font-family: 'DejaVu Sans'; fill: #17324d">1</tspan>
     <tspan x="186.970322" y="-4.765625" style="font-size: 8.4px; font-family: 'DejaVu Sans'; fill: #17324d">/</tspan>
     <tspan x="189.5379" y="-4.765625" style="font-size: 8.4px; font-family: 'DejaVu Sans'; fill: #17324d">2</tspan>
    </text>
   </g>
  </g>
  <g id="text_25">
   <text style="font-size: 10px; font-family: 'Hiragino Sans'; text-anchor: middle; fill: #64748b" x="336.104966" y="368.496" transform="rotate(-0 336.104966 368.496)">教育用模式図：古典的pile-upモデルを示す。実材料では粒界からの転位放出なども寄与する。</text>
  </g>
 </g>
 <defs>
  <clipPath id="p3f46b78405">
   <rect x="7.2" y="86.62425" width="239.24775" height="239.24775"/>
  </clipPath>
  <clipPath id="p1b78428253">
   <rect x="425.762182" y="86.62425" width="239.24775" height="239.24775"/>
  </clipPath>
 </defs>
</svg>
