<?xml version="1.0" encoding="utf-8" standalone="no"?>
<!DOCTYPE svg PUBLIC "-//W3C//DTD SVG 1.1//EN"
  "http://www.w3.org/Graphics/SVG/1.1/DTD/svg11.dtd">
<svg xmlns:xlink="http://www.w3.org/1999/xlink" width="682.653957pt" height="378.8692pt" viewBox="0 0 682.653957 378.8692" xmlns="http://www.w3.org/2000/svg" version="1.1">
 <metadata>
  <rdf:RDF xmlns:dc="http://purl.org/dc/elements/1.1/" xmlns:cc="http://creativecommons.org/ns#" xmlns:rdf="http://www.w3.org/1999/02/22-rdf-syntax-ns#">
   <cc:Work>
    <dc:type rdf:resource="http://purl.org/dc/dcmitype/StillImage"/>
    <dc:format>image/svg+xml</dc:format>
    <dc:creator>
     <cc:Agent>
      <dc:title>Matplotlib v3.10.9, https://matplotlib.org/</dc:title>
     </cc:Agent>
    </dc:creator>
   </cc:Work>
  </rdf:RDF>
 </metadata>
 <defs>
  <style type="text/css">*{stroke-linejoin: round; stroke-linecap: butt}</style>
 </defs>
 <g id="figure_1">
  <g id="patch_1">
   <path d="M 0 378.8692
L 682.653957 378.8692
L 682.653957 0
L 0 0
z
" style="fill: #ffffff"/>
  </g>
  <g id="axes_1">
   <g id="line2d_1">
    <path d="M 33.009638 297.92907
L 149.153007 297.92907
" clip-path="url(#pdd7aa070c9)" style="fill: none; stroke: #64748b; stroke-width: 1.6; stroke-linecap: square"/>
   </g>
   <g id="line2d_2">
    <path d="M 33.009638 297.92907
L 88.930519 254.913007
" clip-path="url(#pdd7aa070c9)" style="fill: none; stroke: #64748b; stroke-width: 1.6; stroke-linecap: square"/>
   </g>
   <g id="line2d_3">
    <path d="M 33.009638 297.92907
L 33.009638 173.182488
" clip-path="url(#pdd7aa070c9)" style="fill: none; stroke: #64748b; stroke-width: 1.6; stroke-linecap: square"/>
   </g>
   <g id="line2d_4">
    <path d="M 33.009638 173.182488
L 149.153007 173.182488
" clip-path="url(#pdd7aa070c9)" style="fill: none; stroke: #64748b; stroke-width: 1.6; stroke-linecap: square"/>
   </g>
   <g id="line2d_5">
    <path d="M 33.009638 173.182488
L 88.930519 130.166425
" clip-path="url(#pdd7aa070c9)" style="fill: none; stroke: #64748b; stroke-width: 1.6; stroke-linecap: square"/>
   </g>
   <g id="line2d_6">
    <path d="M 88.930519 254.913007
L 205.073889 254.913007
" clip-path="url(#pdd7aa070c9)" style="fill: none; stroke: #64748b; stroke-width: 1.6; stroke-linecap: square"/>
   </g>
   <g id="line2d_7">
    <path d="M 88.930519 254.913007
L 88.930519 130.166425
" clip-path="url(#pdd7aa070c9)" style="fill: none; stroke: #64748b; stroke-width: 1.6; stroke-linecap: square"/>
   </g>
   <g id="line2d_8">
    <path d="M 88.930519 130.166425
L 205.073889 130.166425
" clip-path="url(#pdd7aa070c9)" style="fill: none; stroke: #64748b; stroke-width: 1.6; stroke-linecap: square"/>
   </g>
   <g id="line2d_9">
    <path d="M 149.153007 297.92907
L 205.073889 254.913007
" clip-path="url(#pdd7aa070c9)" style="fill: none; stroke: #64748b; stroke-width: 1.6; stroke-linecap: square"/>
   </g>
   <g id="line2d_10">
    <path d="M 149.153007 297.92907
L 149.153007 173.182488
" clip-path="url(#pdd7aa070c9)" style="fill: none; stroke: #64748b; stroke-width: 1.6; stroke-linecap: square"/>
   </g>
   <g id="line2d_11">
    <path d="M 149.153007 173.182488
L 205.073889 130.166425
" clip-path="url(#pdd7aa070c9)" style="fill: none; stroke: #64748b; stroke-width: 1.6; stroke-linecap: square"/>
   </g>
   <g id="line2d_12">
    <path d="M 205.073889 254.913007
L 205.073889 130.166425
" clip-path="url(#pdd7aa070c9)" style="fill: none; stroke: #64748b; stroke-width: 1.6; stroke-linecap: square"/>
   </g>
   <g id="patch_2">
    <path d="M 66.736364 142.066331
Q 50.60892 156.945453 35.303209 171.066448
" style="fill: none; stroke: #f4a261; stroke-linecap: round"/>
    <path d="M 39.599305 169.824049
L 35.303209 171.066448
L 36.886948 166.884131
" style="fill: none; stroke: #f4a261; stroke-linecap: round"/>
   </g>
   <g id="text_1">
    <text style="font-weight: 700; font-size: 10px; font-family: 'Hiragino Sans'; text-anchor: start; fill: #f4a261" x="35.160441" y="136.618835" transform="rotate(-0 35.160441 136.618835)">Al：立方体の頂点</text>
   </g>
   <g id="patch_3">
    <path d="M 174.129263 307.573123
Q 160.795462 251.030595 147.718277 195.576252
" style="fill: none; stroke: #457b9d; stroke-linecap: round"/>
    <path d="M 146.689764 199.928512
L 147.718277 195.576252
L 150.582976 199.010418
" style="fill: none; stroke: #457b9d; stroke-linecap: round"/>
   </g>
   <g id="text_2">
    <text style="font-weight: 700; font-size: 10px; font-family: 'Hiragino Sans'; text-anchor: start; fill: #457b9d" x="140.549795" y="319.437101" transform="rotate(-0 140.549795 319.437101)">Ni：各面の中心</text>
   </g>
   <g id="text_3">
    <!-- Ni$_3$Al：Ni 3個に対してAl 1個 -->
    <g style="fill: #17324d" transform="translate(46.840157 328.040314)">
     <text>
      <tspan x="0" y="-0.203125" style="font-size: 10px; font-family: 'Hiragino Sans'; fill: #17324d">N</tspan>
      <tspan x="7.849991" y="-0.203125" style="font-size: 10px; font-family: 'Hiragino Sans'; fill: #17324d">i</tspan>
      <tspan x="15.15274" y="-0.203125" style="font-size: 10px; font-family: 'Hiragino Sans'; fill: #17324d">A</tspan>
      <tspan x="22.812729" y="-0.203125" style="font-size: 10px; font-family: 'Hiragino Sans'; fill: #17324d">l</tspan>
      <tspan x="25.242722" y="-0.203125" style="font-size: 10px; font-family: 'Hiragino Sans'; fill: #17324d">：</tspan>
      <tspan x="35.242706" y="-0.203125" style="font-size: 10px; font-family: 'Hiragino Sans'; fill: #17324d">N</tspan>
      <tspan x="43.092697" y="-0.203125" style="font-size: 10px; font-family: 'Hiragino Sans'; fill: #17324d">i</tspan>
      <tspan x="45.572693" y="-0.203125" style="font-size: 10px; font-family: 'Hiragino Sans'; fill: #17324d"> </tspan>
      <tspan x="48.902679" y="-0.203125" style="font-size: 10px; font-family: 'Hiragino Sans'; fill: #17324d">3</tspan>
      <tspan x="55.63266" y="-0.203125" style="font-size: 10px; font-family: 'Hiragino Sans'; fill: #17324d">個</tspan>
      <tspan x="65.632645" y="-0.203125" style="font-size: 10px; font-family: 'Hiragino Sans'; fill: #17324d">に</tspan>
      <tspan x="75.632629" y="-0.203125" style="font-size: 10px; font-family: 'Hiragino Sans'; fill: #17324d">対</tspan>
      <tspan x="85.632614" y="-0.203125" style="font-size: 10px; font-family: 'Hiragino Sans'; fill: #17324d">し</tspan>
      <tspan x="95.632599" y="-0.203125" style="font-size: 10px; font-family: 'Hiragino Sans'; fill: #17324d">て</tspan>
      <tspan x="105.632584" y="-0.203125" style="font-size: 10px; font-family: 'Hiragino Sans'; fill: #17324d">A</tspan>
      <tspan x="113.292572" y="-0.203125" style="font-size: 10px; font-family: 'Hiragino Sans'; fill: #17324d">l</tspan>
      <tspan x="115.722565" y="-0.203125" style="font-size: 10px; font-family: 'Hiragino Sans'; fill: #17324d"> </tspan>
      <tspan x="119.052551" y="-0.203125" style="font-size: 10px; font-family: 'Hiragino Sans'; fill: #17324d">1</tspan>
      <tspan x="125.782532" y="-0.203125" style="font-size: 10px; font-family: 'Hiragino Sans'; fill: #17324d">個</tspan>
      <tspan x="10.42569" y="1.4375" style="font-size: 7px; font-family: 'DejaVu Sans'; fill: #17324d">3</tspan>
     </text>
    </g>
   </g>
   <g id="text_4">
    <!-- $L1_2$規則構造 -->
    <g style="fill: #17324d" transform="translate(79.97096 106.96)">
     <text>
      <tspan x="0" y="-0.734375" style="font-style: oblique; font-size: 13px; font-family: 'DejaVu Sans'; fill: #17324d">L</tspan>
      <tspan x="7.242676" y="-0.734375" style="font-size: 13px; font-family: 'DejaVu Sans'; fill: #17324d">1</tspan>
      <tspan x="15.638086" y="1.398438" style="font-size: 9.1px; font-family: 'DejaVu Sans'; fill: #17324d">2</tspan>
      <tspan x="21.783252" y="-0.734375" style="font-weight: 700; font-size: 13px; font-family: 'Hiragino Sans'; fill: #17324d">規</tspan>
      <tspan x="34.783252" y="-0.734375" style="font-weight: 700; font-size: 13px; font-family: 'Hiragino Sans'; fill: #17324d">則</tspan>
      <tspan x="47.783252" y="-0.734375" style="font-weight: 700; font-size: 13px; font-family: 'Hiragino Sans'; fill: #17324d">構</tspan>
      <tspan x="60.783252" y="-0.734375" style="font-weight: 700; font-size: 13px; font-family: 'Hiragino Sans'; fill: #17324d">造</tspan>
     </text>
    </g>
   </g>
   <g id="PathCollection_1">
    <defs>
     <path id="m97948dede9" d="M 0 6.324555
C 1.677292 6.324555 3.286112 5.65816 4.472136 4.472136
C 5.65816 3.286112 6.324555 1.677292 6.324555 0
C 6.324555 -1.677292 5.65816 -3.286112 4.472136 -4.472136
C 3.286112 -5.65816 1.677292 -6.324555 0 -6.324555
C -1.677292 -6.324555 -3.286112 -5.65816 -4.472136 -4.472136
C -5.65816 -3.286112 -6.324555 -1.677292 -6.324555 0
C -6.324555 1.677292 -5.65816 3.286112 -4.472136 4.472136
C -3.286112 5.65816 -1.677292 6.324555 0 6.324555
z
" style="stroke: #ffffff; stroke-width: 0.7"/>
    </defs>
    <g clip-path="url(#pdd7aa070c9)">
     <use xlink:href="#m97948dede9" x="33.009638" y="297.92907" style="fill: #f4a261; stroke: #ffffff; stroke-width: 0.7"/>
     <use xlink:href="#m97948dede9" x="33.009638" y="173.182488" style="fill: #f4a261; stroke: #ffffff; stroke-width: 0.7"/>
     <use xlink:href="#m97948dede9" x="88.930519" y="254.913007" style="fill: #f4a261; stroke: #ffffff; stroke-width: 0.7"/>
     <use xlink:href="#m97948dede9" x="88.930519" y="130.166425" style="fill: #f4a261; stroke: #ffffff; stroke-width: 0.7"/>
     <use xlink:href="#m97948dede9" x="149.153007" y="297.92907" style="fill: #f4a261; stroke: #ffffff; stroke-width: 0.7"/>
     <use xlink:href="#m97948dede9" x="149.153007" y="173.182488" style="fill: #f4a261; stroke: #ffffff; stroke-width: 0.7"/>
     <use xlink:href="#m97948dede9" x="205.073889" y="254.913007" style="fill: #f4a261; stroke: #ffffff; stroke-width: 0.7"/>
     <use xlink:href="#m97948dede9" x="205.073889" y="130.166425" style="fill: #f4a261; stroke: #ffffff; stroke-width: 0.7"/>
    </g>
   </g>
   <g id="PathCollection_2">
    <defs>
     <path id="mb833985900" d="M 0 6.324555
C 1.677292 6.324555 3.286112 5.65816 4.472136 4.472136
C 5.65816 3.286112 6.324555 1.677292 6.324555 0
C 6.324555 -1.677292 5.65816 -3.286112 4.472136 -4.472136
C 3.286112 -5.65816 1.677292 -6.324555 0 -6.324555
C -1.677292 -6.324555 -3.286112 -5.65816 -4.472136 -4.472136
C -5.65816 -3.286112 -6.324555 -1.677292 -6.324555 0
C -6.324555 1.677292 -5.65816 3.286112 -4.472136 4.472136
C -3.286112 5.65816 -1.677292 6.324555 0 6.324555
z
" style="stroke: #ffffff; stroke-width: 0.7"/>
    </defs>
    <g clip-path="url(#pdd7aa070c9)">
     <use xlink:href="#mb833985900" x="119.041763" y="276.421038" style="fill: #457b9d; stroke: #ffffff; stroke-width: 0.7"/>
     <use xlink:href="#mb833985900" x="119.041763" y="151.674456" style="fill: #457b9d; stroke: #ffffff; stroke-width: 0.7"/>
     <use xlink:href="#mb833985900" x="91.081322" y="235.555779" style="fill: #457b9d; stroke: #ffffff; stroke-width: 0.7"/>
     <use xlink:href="#mb833985900" x="147.002204" y="192.539716" style="fill: #457b9d; stroke: #ffffff; stroke-width: 0.7"/>
     <use xlink:href="#mb833985900" x="60.970078" y="214.047747" style="fill: #457b9d; stroke: #ffffff; stroke-width: 0.7"/>
     <use xlink:href="#mb833985900" x="177.113448" y="214.047747" style="fill: #457b9d; stroke: #ffffff; stroke-width: 0.7"/>
    </g>
   </g>
  </g>
  <g id="axes_2">
   <g id="patch_4">
    <path d="M 445.347644 298.263175
L 645.56027 298.263175
L 645.56027 142.778902
L 445.347644 142.778902
z
" clip-path="url(#p9aed17da8a)" style="fill: #f7f4ed"/>
   </g>
   <g id="patch_5">
    <path d="M 517.764977 297.240813
L 585.922467 297.240813
L 585.922467 137.092011
L 517.764977 137.092011
z
" clip-path="url(#p9aed17da8a)" style="fill: #e9c46a; opacity: 0.3; stroke: #e9c46a; stroke-linejoin: miter"/>
   </g>
   <g id="patch_6">
    <path d="M 483.554737 306.782861
Q 550.776529 306.782861 615.762252 306.782861
" clip-path="url(#p9aed17da8a)" style="fill: none; stroke: #17324d; stroke-width: 2; stroke-linecap: round"/>
    <path d="M 608.962252 303.382861
L 615.762252 306.782861
L 608.962252 310.182861
z
" clip-path="url(#p9aed17da8a)" style="fill: #17324d; stroke: #17324d; stroke-width: 2; stroke-linecap: round"/>
   </g>
   <g id="line2d_13">
    <path d="M 517.764977 291.87341
L 517.764977 149.168666
" clip-path="url(#p9aed17da8a)" style="fill: none; stroke-dasharray: 9.25,4; stroke-dashoffset: 0; stroke: #e76f51; stroke-width: 2.5"/>
   </g>
   <g id="line2d_14">
    <path d="M 585.922467 291.87341
L 585.922467 149.168666
" clip-path="url(#p9aed17da8a)" style="fill: none; stroke-dasharray: 9.25,4; stroke-dashoffset: 0; stroke: #e76f51; stroke-width: 2.5"/>
   </g>
   <g id="text_5">
    <text style="font-weight: 700; font-size: 10px; font-family: 'Hiragino Sans'; fill: #e76f51" transform="translate(497.764977 120.534294)">後続転位</text>
    <!-- $a/2\langle110\rangle$ -->
    <g style="fill: #e76f51" transform="translate(496.564977 132.129294)">
     <text>
      <tspan x="0" y="-0.40625" style="font-style: oblique; font-size: 10px; font-family: 'DejaVu Sans'; fill: #e76f51">a</tspan>
      <tspan x="6.12793" y="-0.40625" style="font-size: 10px; font-family: 'DejaVu Sans'; fill: #e76f51">/</tspan>
      <tspan x="9.12207" y="-0.40625" style="font-size: 10px; font-family: 'DejaVu Sans'; fill: #e76f51">2</tspan>
      <tspan x="15.484375" y="-0.40625" style="font-size: 10px; font-family: 'DejaVu Sans'; fill: #e76f51">⟨</tspan>
      <tspan x="19.385742" y="-0.40625" style="font-size: 10px; font-family: 'DejaVu Sans'; fill: #e76f51">1</tspan>
      <tspan x="25.748047" y="-0.40625" style="font-size: 10px; font-family: 'DejaVu Sans'; fill: #e76f51">1</tspan>
      <tspan x="32.110352" y="-0.40625" style="font-size: 10px; font-family: 'DejaVu Sans'; fill: #e76f51">0</tspan>
      <tspan x="38.472656" y="-0.40625" style="font-size: 10px; font-family: 'DejaVu Sans'; fill: #e76f51">⟩</tspan>
     </text>
    </g>
   </g>
   <g id="text_6">
    <text style="font-weight: 700; font-size: 10px; font-family: 'Hiragino Sans'; fill: #e76f51" transform="translate(565.922467 120.534294)">先行転位</text>
    <!-- $a/2\langle110\rangle$ -->
    <g style="fill: #e76f51" transform="translate(564.722467 132.129294)">
     <text>
      <tspan x="0" y="-0.40625" style="font-style: oblique; font-size: 10px; font-family: 'DejaVu Sans'; fill: #e76f51">a</tspan>
      <tspan x="6.12793" y="-0.40625" style="font-size: 10px; font-family: 'DejaVu Sans'; fill: #e76f51">/</tspan>
      <tspan x="9.12207" y="-0.40625" style="font-size: 10px; font-family: 'DejaVu Sans'; fill: #e76f51">2</tspan>
      <tspan x="15.484375" y="-0.40625" style="font-size: 10px; font-family: 'DejaVu Sans'; fill: #e76f51">⟨</tspan>
      <tspan x="19.385742" y="-0.40625" style="font-size: 10px; font-family: 'DejaVu Sans'; fill: #e76f51">1</tspan>
      <tspan x="25.748047" y="-0.40625" style="font-size: 10px; font-family: 'DejaVu Sans'; fill: #e76f51">1</tspan>
      <tspan x="32.110352" y="-0.40625" style="font-size: 10px; font-family: 'DejaVu Sans'; fill: #e76f51">0</tspan>
      <tspan x="38.472656" y="-0.40625" style="font-size: 10px; font-family: 'DejaVu Sans'; fill: #e76f51">⟩</tspan>
     </text>
    </g>
   </g>
   <g id="text_7">
    <text style="font-weight: 700; font-size: 10px; font-family: 'Hiragino Sans'; fill: #17324d" transform="translate(540.108566 209.990999)">APB</text>
    <text style="font-weight: 700; font-size: 10px; font-family: 'Hiragino Sans'; fill: #17324d" transform="translate(516.843722 221.585999)">（逆位相境界）</text>
   </g>
   <g id="text_8">
    <text style="font-size: 10px; font-family: 'Hiragino Sans'; text-anchor: middle; fill: #17324d" x="549.7138" y="318.49743" transform="rotate(-0 549.7138 318.49743)">すべり方向</text>
   </g>
   <g id="text_9">
    <text style="font-size: 10px; font-family: 'Hiragino Sans'; text-anchor: middle; fill: #17324d" x="545.453957" y="340.020287" transform="rotate(-0 545.453957 340.020287)">先行転位が規則位相をずらし、後続転位が通過すると回復</text>
   </g>
   <g id="text_10">
    <text style="font-weight: 700; font-size: 13px; font-family: 'Hiragino Sans'; text-anchor: middle; fill: #17324d" x="545.453957" y="84.96" transform="rotate(-0 545.453957 84.96)">二本の転位に挟まれたAPB</text>
   </g>
   <g id="patch_7">
    <path d="M 458.127174 280.371834
C 459.595814 280.371834 461.004501 279.788337 462.042987 278.749851
C 463.081473 277.711365 463.66497 276.302679 463.66497 274.834038
C 463.66497 273.365397 463.081473 271.956711 462.042987 270.918225
C 461.004501 269.879739 459.595814 269.296242 458.127174 269.296242
C 456.658533 269.296242 455.249846 269.879739 454.211361 270.918225
C 453.172875 271.956711 452.589378 273.365397 452.589378 274.834038
C 452.589378 276.302679 453.172875 277.711365 454.211361 278.749851
C 455.249846 279.788337 456.658533 280.371834 458.127174 280.371834
z
" clip-path="url(#p9aed17da8a)" style="fill: #f4a261; stroke: #ffffff; stroke-width: 0.5; stroke-linejoin: miter"/>
   </g>
   <g id="patch_8">
    <path d="M 458.127174 253.747815
C 459.595814 253.747815 461.004501 253.164318 462.042987 252.125832
C 463.081473 251.087346 463.66497 249.678659 463.66497 248.210019
C 463.66497 246.741378 463.081473 245.332691 462.042987 244.294206
C 461.004501 243.25572 459.595814 242.672223 458.127174 242.672223
C 456.658533 242.672223 455.249846 243.25572 454.211361 244.294206
C 453.172875 245.332691 452.589378 246.741378 452.589378 248.210019
C 452.589378 249.678659 453.172875 251.087346 454.211361 252.125832
C 455.249846 253.164318 456.658533 253.747815 458.127174 253.747815
z
" clip-path="url(#p9aed17da8a)" style="fill: #457b9d; stroke: #ffffff; stroke-width: 0.5; stroke-linejoin: miter"/>
   </g>
   <g id="patch_9">
    <path d="M 458.127174 227.123795
C 459.595814 227.123795 461.004501 226.540298 462.042987 225.501812
C 463.081473 224.463327 463.66497 223.05464 463.66497 221.585999
C 463.66497 220.117359 463.081473 218.708672 462.042987 217.670186
C 461.004501 216.6317 459.595814 216.048203 458.127174 216.048203
C 456.658533 216.048203 455.249846 216.6317 454.211361 217.670186
C 453.172875 218.708672 452.589378 220.117359 452.589378 221.585999
C 452.589378 223.05464 453.172875 224.463327 454.211361 225.501812
C 455.249846 226.540298 456.658533 227.123795 458.127174 227.123795
z
" clip-path="url(#p9aed17da8a)" style="fill: #f4a261; stroke: #ffffff; stroke-width: 0.5; stroke-linejoin: miter"/>
   </g>
   <g id="patch_10">
    <path d="M 458.127174 200.499776
C 459.595814 200.499776 461.004501 199.916279 462.042987 198.877793
C 463.081473 197.839307 463.66497 196.43062 463.66497 194.96198
C 463.66497 193.493339 463.081473 192.084652 462.042987 191.046167
C 461.004501 190.007681 459.595814 189.424184 458.127174 189.424184
C 456.658533 189.424184 455.249846 190.007681 454.211361 191.046167
C 453.172875 192.084652 452.589378 193.493339 452.589378 194.96198
C 452.589378 196.43062 453.172875 197.839307 454.211361 198.877793
C 455.249846 199.916279 456.658533 200.499776 458.127174 200.499776
z
" clip-path="url(#p9aed17da8a)" style="fill: #457b9d; stroke: #ffffff; stroke-width: 0.5; stroke-linejoin: miter"/>
   </g>
   <g id="patch_11">
    <path d="M 458.127174 173.875756
C 459.595814 173.875756 461.004501 173.292259 462.042987 172.253774
C 463.081473 171.215288 463.66497 169.806601 463.66497 168.33796
C 463.66497 166.86932 463.081473 165.460633 462.042987 164.422147
C 461.004501 163.383661 459.595814 162.800164 458.127174 162.800164
C 456.658533 162.800164 455.249846 163.383661 454.211361 164.422147
C 453.172875 165.460633 452.589378 166.86932 452.589378 168.33796
C 452.589378 169.806601 453.172875 171.215288 454.211361 172.253774
C 455.249846 173.292259 456.658533 173.875756 458.127174 173.875756
z
" clip-path="url(#p9aed17da8a)" style="fill: #f4a261; stroke: #ffffff; stroke-width: 0.5; stroke-linejoin: miter"/>
   </g>
   <g id="patch_12">
    <path d="M 479.95887 280.371834
C 481.42751 280.371834 482.836197 279.788337 483.874683 278.749851
C 484.913168 277.711365 485.496666 276.302679 485.496666 274.834038
C 485.496666 273.365397 484.913168 271.956711 483.874683 270.918225
C 482.836197 269.879739 481.42751 269.296242 479.95887 269.296242
C 478.490229 269.296242 477.081542 269.879739 476.043056 270.918225
C 475.004571 271.956711 474.421074 273.365397 474.421074 274.834038
C 474.421074 276.302679 475.004571 277.711365 476.043056 278.749851
C 477.081542 279.788337 478.490229 280.371834 479.95887 280.371834
z
" clip-path="url(#p9aed17da8a)" style="fill: #457b9d; stroke: #ffffff; stroke-width: 0.5; stroke-linejoin: miter"/>
   </g>
   <g id="patch_13">
    <path d="M 479.95887 253.747815
C 481.42751 253.747815 482.836197 253.164318 483.874683 252.125832
C 484.913168 251.087346 485.496666 249.678659 485.496666 248.210019
C 485.496666 246.741378 484.913168 245.332691 483.874683 244.294206
C 482.836197 243.25572 481.42751 242.672223 479.95887 242.672223
C 478.490229 242.672223 477.081542 243.25572 476.043056 244.294206
C 475.004571 245.332691 474.421074 246.741378 474.421074 248.210019
C 474.421074 249.678659 475.004571 251.087346 476.043056 252.125832
C 477.081542 253.164318 478.490229 253.747815 479.95887 253.747815
z
" clip-path="url(#p9aed17da8a)" style="fill: #457b9d; stroke: #ffffff; stroke-width: 0.5; stroke-linejoin: miter"/>
   </g>
   <g id="patch_14">
    <path d="M 479.95887 227.123795
C 481.42751 227.123795 482.836197 226.540298 483.874683 225.501812
C 484.913168 224.463327 485.496666 223.05464 485.496666 221.585999
C 485.496666 220.117359 484.913168 218.708672 483.874683 217.670186
C 482.836197 216.6317 481.42751 216.048203 479.95887 216.048203
C 478.490229 216.048203 477.081542 216.6317 476.043056 217.670186
C 475.004571 218.708672 474.421074 220.117359 474.421074 221.585999
C 474.421074 223.05464 475.004571 224.463327 476.043056 225.501812
C 477.081542 226.540298 478.490229 227.123795 479.95887 227.123795
z
" clip-path="url(#p9aed17da8a)" style="fill: #457b9d; stroke: #ffffff; stroke-width: 0.5; stroke-linejoin: miter"/>
   </g>
   <g id="patch_15">
    <path d="M 479.95887 200.499776
C 481.42751 200.499776 482.836197 199.916279 483.874683 198.877793
C 484.913168 197.839307 485.496666 196.43062 485.496666 194.96198
C 485.496666 193.493339 484.913168 192.084652 483.874683 191.046167
C 482.836197 190.007681 481.42751 189.424184 479.95887 189.424184
C 478.490229 189.424184 477.081542 190.007681 476.043056 191.046167
C 475.004571 192.084652 474.421074 193.493339 474.421074 194.96198
C 474.421074 196.43062 475.004571 197.839307 476.043056 198.877793
C 477.081542 199.916279 478.490229 200.499776 479.95887 200.499776
z
" clip-path="url(#p9aed17da8a)" style="fill: #457b9d; stroke: #ffffff; stroke-width: 0.5; stroke-linejoin: miter"/>
   </g>
   <g id="patch_16">
    <path d="M 479.95887 173.875756
C 481.42751 173.875756 482.836197 173.292259 483.874683 172.253774
C 484.913168 171.215288 485.496666 169.806601 485.496666 168.33796
C 485.496666 166.86932 484.913168 165.460633 483.874683 164.422147
C 482.836197 163.383661 481.42751 162.800164 479.95887 162.800164
C 478.490229 162.800164 477.081542 163.383661 476.043056 164.422147
C 475.004571 165.460633 474.421074 166.86932 474.421074 168.33796
C 474.421074 169.806601 475.004571 171.215288 476.043056 172.253774
C 477.081542 173.292259 478.490229 173.875756 479.95887 173.875756
z
" clip-path="url(#p9aed17da8a)" style="fill: #457b9d; stroke: #ffffff; stroke-width: 0.5; stroke-linejoin: miter"/>
   </g>
   <g id="patch_17">
    <path d="M 501.790566 280.371834
C 503.259206 280.371834 504.667893 279.788337 505.706379 278.749851
C 506.744864 277.711365 507.328362 276.302679 507.328362 274.834038
C 507.328362 273.365397 506.744864 271.956711 505.706379 270.918225
C 504.667893 269.879739 503.259206 269.296242 501.790566 269.296242
C 500.321925 269.296242 498.913238 269.879739 497.874752 270.918225
C 496.836267 271.956711 496.252769 273.365397 496.252769 274.834038
C 496.252769 276.302679 496.836267 277.711365 497.874752 278.749851
C 498.913238 279.788337 500.321925 280.371834 501.790566 280.371834
z
" clip-path="url(#p9aed17da8a)" style="fill: #f4a261; stroke: #ffffff; stroke-width: 0.5; stroke-linejoin: miter"/>
   </g>
   <g id="patch_18">
    <path d="M 501.790566 253.747815
C 503.259206 253.747815 504.667893 253.164318 505.706379 252.125832
C 506.744864 251.087346 507.328362 249.678659 507.328362 248.210019
C 507.328362 246.741378 506.744864 245.332691 505.706379 244.294206
C 504.667893 243.25572 503.259206 242.672223 501.790566 242.672223
C 500.321925 242.672223 498.913238 243.25572 497.874752 244.294206
C 496.836267 245.332691 496.252769 246.741378 496.252769 248.210019
C 496.252769 249.678659 496.836267 251.087346 497.874752 252.125832
C 498.913238 253.164318 500.321925 253.747815 501.790566 253.747815
z
" clip-path="url(#p9aed17da8a)" style="fill: #457b9d; stroke: #ffffff; stroke-width: 0.5; stroke-linejoin: miter"/>
   </g>
   <g id="patch_19">
    <path d="M 501.790566 227.123795
C 503.259206 227.123795 504.667893 226.540298 505.706379 225.501812
C 506.744864 224.463327 507.328362 223.05464 507.328362 221.585999
C 507.328362 220.117359 506.744864 218.708672 505.706379 217.670186
C 504.667893 216.6317 503.259206 216.048203 501.790566 216.048203
C 500.321925 216.048203 498.913238 216.6317 497.874752 217.670186
C 496.836267 218.708672 496.252769 220.117359 496.252769 221.585999
C 496.252769 223.05464 496.836267 224.463327 497.874752 225.501812
C 498.913238 226.540298 500.321925 227.123795 501.790566 227.123795
z
" clip-path="url(#p9aed17da8a)" style="fill: #f4a261; stroke: #ffffff; stroke-width: 0.5; stroke-linejoin: miter"/>
   </g>
   <g id="patch_20">
    <path d="M 501.790566 200.499776
C 503.259206 200.499776 504.667893 199.916279 505.706379 198.877793
C 506.744864 197.839307 507.328362 196.43062 507.328362 194.96198
C 507.328362 193.493339 506.744864 192.084652 505.706379 191.046167
C 504.667893 190.007681 503.259206 189.424184 501.790566 189.424184
C 500.321925 189.424184 498.913238 190.007681 497.874752 191.046167
C 496.836267 192.084652 496.252769 193.493339 496.252769 194.96198
C 496.252769 196.43062 496.836267 197.839307 497.874752 198.877793
C 498.913238 199.916279 500.321925 200.499776 501.790566 200.499776
z
" clip-path="url(#p9aed17da8a)" style="fill: #457b9d; stroke: #ffffff; stroke-width: 0.5; stroke-linejoin: miter"/>
   </g>
   <g id="patch_21">
    <path d="M 501.790566 173.875756
C 503.259206 173.875756 504.667893 173.292259 505.706379 172.253774
C 506.744864 171.215288 507.328362 169.806601 507.328362 168.33796
C 507.328362 166.86932 506.744864 165.460633 505.706379 164.422147
C 504.667893 163.383661 503.259206 162.800164 501.790566 162.800164
C 500.321925 162.800164 498.913238 163.383661 497.874752 164.422147
C 496.836267 165.460633 496.252769 166.86932 496.252769 168.33796
C 496.252769 169.806601 496.836267 171.215288 497.874752 172.253774
C 498.913238 173.292259 500.321925 173.875756 501.790566 173.875756
z
" clip-path="url(#p9aed17da8a)" style="fill: #f4a261; stroke: #ffffff; stroke-width: 0.5; stroke-linejoin: miter"/>
   </g>
   <g id="patch_22">
    <path d="M 523.622261 280.371834
C 525.090902 280.371834 526.499589 279.788337 527.538075 278.749851
C 528.57656 277.711365 529.160057 276.302679 529.160057 274.834038
C 529.160057 273.365397 528.57656 271.956711 527.538075 270.918225
C 526.499589 269.879739 525.090902 269.296242 523.622261 269.296242
C 522.153621 269.296242 520.744934 269.879739 519.706448 270.918225
C 518.667963 271.956711 518.084465 273.365397 518.084465 274.834038
C 518.084465 276.302679 518.667963 277.711365 519.706448 278.749851
C 520.744934 279.788337 522.153621 280.371834 523.622261 280.371834
z
" clip-path="url(#p9aed17da8a)" style="fill: #f4a261; stroke: #ffffff; stroke-width: 0.5; stroke-linejoin: miter"/>
   </g>
   <g id="patch_23">
    <path d="M 523.622261 253.747815
C 525.090902 253.747815 526.499589 253.164318 527.538075 252.125832
C 528.57656 251.087346 529.160057 249.678659 529.160057 248.210019
C 529.160057 246.741378 528.57656 245.332691 527.538075 244.294206
C 526.499589 243.25572 525.090902 242.672223 523.622261 242.672223
C 522.153621 242.672223 520.744934 243.25572 519.706448 244.294206
C 518.667963 245.332691 518.084465 246.741378 518.084465 248.210019
C 518.084465 249.678659 518.667963 251.087346 519.706448 252.125832
C 520.744934 253.164318 522.153621 253.747815 523.622261 253.747815
z
" clip-path="url(#p9aed17da8a)" style="fill: #457b9d; stroke: #ffffff; stroke-width: 0.5; stroke-linejoin: miter"/>
   </g>
   <g id="patch_24">
    <path d="M 523.622261 227.123795
C 525.090902 227.123795 526.499589 226.540298 527.538075 225.501812
C 528.57656 224.463327 529.160057 223.05464 529.160057 221.585999
C 529.160057 220.117359 528.57656 218.708672 527.538075 217.670186
C 526.499589 216.6317 525.090902 216.048203 523.622261 216.048203
C 522.153621 216.048203 520.744934 216.6317 519.706448 217.670186
C 518.667963 218.708672 518.084465 220.117359 518.084465 221.585999
C 518.084465 223.05464 518.667963 224.463327 519.706448 225.501812
C 520.744934 226.540298 522.153621 227.123795 523.622261 227.123795
z
" clip-path="url(#p9aed17da8a)" style="fill: #f4a261; stroke: #ffffff; stroke-width: 0.5; stroke-linejoin: miter"/>
   </g>
   <g id="patch_25">
    <path d="M 523.622261 200.499776
C 525.090902 200.499776 526.499589 199.916279 527.538075 198.877793
C 528.57656 197.839307 529.160057 196.43062 529.160057 194.96198
C 529.160057 193.493339 528.57656 192.084652 527.538075 191.046167
C 526.499589 190.007681 525.090902 189.424184 523.622261 189.424184
C 522.153621 189.424184 520.744934 190.007681 519.706448 191.046167
C 518.667963 192.084652 518.084465 193.493339 518.084465 194.96198
C 518.084465 196.43062 518.667963 197.839307 519.706448 198.877793
C 520.744934 199.916279 522.153621 200.499776 523.622261 200.499776
z
" clip-path="url(#p9aed17da8a)" style="fill: #457b9d; stroke: #ffffff; stroke-width: 0.5; stroke-linejoin: miter"/>
   </g>
   <g id="patch_26">
    <path d="M 523.622261 173.875756
C 525.090902 173.875756 526.499589 173.292259 527.538075 172.253774
C 528.57656 171.215288 529.160057 169.806601 529.160057 168.33796
C 529.160057 166.86932 528.57656 165.460633 527.538075 164.422147
C 526.499589 163.383661 525.090902 162.800164 523.622261 162.800164
C 522.153621 162.800164 520.744934 163.383661 519.706448 164.422147
C 518.667963 165.460633 518.084465 166.86932 518.084465 168.33796
C 518.084465 169.806601 518.667963 171.215288 519.706448 172.253774
C 520.744934 173.292259 522.153621 173.875756 523.622261 173.875756
z
" clip-path="url(#p9aed17da8a)" style="fill: #f4a261; stroke: #ffffff; stroke-width: 0.5; stroke-linejoin: miter"/>
   </g>
   <g id="patch_27">
    <path d="M 545.453957 280.371834
C 546.922598 280.371834 548.331285 279.788337 549.36977 278.749851
C 550.408256 277.711365 550.991753 276.302679 550.991753 274.834038
C 550.991753 273.365397 550.408256 271.956711 549.36977 270.918225
C 548.331285 269.879739 546.922598 269.296242 545.453957 269.296242
C 543.985317 269.296242 542.57663 269.879739 541.538144 270.918225
C 540.499658 271.956711 539.916161 273.365397 539.916161 274.834038
C 539.916161 276.302679 540.499658 277.711365 541.538144 278.749851
C 542.57663 279.788337 543.985317 280.371834 545.453957 280.371834
z
" clip-path="url(#p9aed17da8a)" style="fill: #457b9d; stroke: #ffffff; stroke-width: 0.5; stroke-linejoin: miter"/>
   </g>
   <g id="patch_28">
    <path d="M 545.453957 253.747815
C 546.922598 253.747815 548.331285 253.164318 549.36977 252.125832
C 550.408256 251.087346 550.991753 249.678659 550.991753 248.210019
C 550.991753 246.741378 550.408256 245.332691 549.36977 244.294206
C 548.331285 243.25572 546.922598 242.672223 545.453957 242.672223
C 543.985317 242.672223 542.57663 243.25572 541.538144 244.294206
C 540.499658 245.332691 539.916161 246.741378 539.916161 248.210019
C 539.916161 249.678659 540.499658 251.087346 541.538144 252.125832
C 542.57663 253.164318 543.985317 253.747815 545.453957 253.747815
z
" clip-path="url(#p9aed17da8a)" style="fill: #457b9d; stroke: #ffffff; stroke-width: 0.5; stroke-linejoin: miter"/>
   </g>
   <g id="patch_29">
    <path d="M 545.453957 227.123795
C 546.922598 227.123795 548.331285 226.540298 549.36977 225.501812
C 550.408256 224.463327 550.991753 223.05464 550.991753 221.585999
C 550.991753 220.117359 550.408256 218.708672 549.36977 217.670186
C 548.331285 216.6317 546.922598 216.048203 545.453957 216.048203
C 543.985317 216.048203 542.57663 216.6317 541.538144 217.670186
C 540.499658 218.708672 539.916161 220.117359 539.916161 221.585999
C 539.916161 223.05464 540.499658 224.463327 541.538144 225.501812
C 542.57663 226.540298 543.985317 227.123795 545.453957 227.123795
z
" clip-path="url(#p9aed17da8a)" style="fill: #457b9d; stroke: #ffffff; stroke-width: 0.5; stroke-linejoin: miter"/>
   </g>
   <g id="patch_30">
    <path d="M 545.453957 200.499776
C 546.922598 200.499776 548.331285 199.916279 549.36977 198.877793
C 550.408256 197.839307 550.991753 196.43062 550.991753 194.96198
C 550.991753 193.493339 550.408256 192.084652 549.36977 191.046167
C 548.331285 190.007681 546.922598 189.424184 545.453957 189.424184
C 543.985317 189.424184 542.57663 190.007681 541.538144 191.046167
C 540.499658 192.084652 539.916161 193.493339 539.916161 194.96198
C 539.916161 196.43062 540.499658 197.839307 541.538144 198.877793
C 542.57663 199.916279 543.985317 200.499776 545.453957 200.499776
z
" clip-path="url(#p9aed17da8a)" style="fill: #457b9d; stroke: #ffffff; stroke-width: 0.5; stroke-linejoin: miter"/>
   </g>
   <g id="patch_31">
    <path d="M 545.453957 173.875756
C 546.922598 173.875756 548.331285 173.292259 549.36977 172.253774
C 550.408256 171.215288 550.991753 169.806601 550.991753 168.33796
C 550.991753 166.86932 550.408256 165.460633 549.36977 164.422147
C 548.331285 163.383661 546.922598 162.800164 545.453957 162.800164
C 543.985317 162.800164 542.57663 163.383661 541.538144 164.422147
C 540.499658 165.460633 539.916161 166.86932 539.916161 168.33796
C 539.916161 169.806601 540.499658 171.215288 541.538144 172.253774
C 542.57663 173.292259 543.985317 173.875756 545.453957 173.875756
z
" clip-path="url(#p9aed17da8a)" style="fill: #457b9d; stroke: #ffffff; stroke-width: 0.5; stroke-linejoin: miter"/>
   </g>
   <g id="patch_32">
    <path d="M 567.285653 280.371834
C 568.754294 280.371834 570.162981 279.788337 571.201466 278.749851
C 572.239952 277.711365 572.823449 276.302679 572.823449 274.834038
C 572.823449 273.365397 572.239952 271.956711 571.201466 270.918225
C 570.162981 269.879739 568.754294 269.296242 567.285653 269.296242
C 565.817013 269.296242 564.408326 269.879739 563.36984 270.918225
C 562.331354 271.956711 561.747857 273.365397 561.747857 274.834038
C 561.747857 276.302679 562.331354 277.711365 563.36984 278.749851
C 564.408326 279.788337 565.817013 280.371834 567.285653 280.371834
z
" clip-path="url(#p9aed17da8a)" style="fill: #f4a261; stroke: #ffffff; stroke-width: 0.5; stroke-linejoin: miter"/>
   </g>
   <g id="patch_33">
    <path d="M 567.285653 253.747815
C 568.754294 253.747815 570.162981 253.164318 571.201466 252.125832
C 572.239952 251.087346 572.823449 249.678659 572.823449 248.210019
C 572.823449 246.741378 572.239952 245.332691 571.201466 244.294206
C 570.162981 243.25572 568.754294 242.672223 567.285653 242.672223
C 565.817013 242.672223 564.408326 243.25572 563.36984 244.294206
C 562.331354 245.332691 561.747857 246.741378 561.747857 248.210019
C 561.747857 249.678659 562.331354 251.087346 563.36984 252.125832
C 564.408326 253.164318 565.817013 253.747815 567.285653 253.747815
z
" clip-path="url(#p9aed17da8a)" style="fill: #457b9d; stroke: #ffffff; stroke-width: 0.5; stroke-linejoin: miter"/>
   </g>
   <g id="patch_34">
    <path d="M 567.285653 227.123795
C 568.754294 227.123795 570.162981 226.540298 571.201466 225.501812
C 572.239952 224.463327 572.823449 223.05464 572.823449 221.585999
C 572.823449 220.117359 572.239952 218.708672 571.201466 217.670186
C 570.162981 216.6317 568.754294 216.048203 567.285653 216.048203
C 565.817013 216.048203 564.408326 216.6317 563.36984 217.670186
C 562.331354 218.708672 561.747857 220.117359 561.747857 221.585999
C 561.747857 223.05464 562.331354 224.463327 563.36984 225.501812
C 564.408326 226.540298 565.817013 227.123795 567.285653 227.123795
z
" clip-path="url(#p9aed17da8a)" style="fill: #f4a261; stroke: #ffffff; stroke-width: 0.5; stroke-linejoin: miter"/>
   </g>
   <g id="patch_35">
    <path d="M 567.285653 200.499776
C 568.754294 200.499776 570.162981 199.916279 571.201466 198.877793
C 572.239952 197.839307 572.823449 196.43062 572.823449 194.96198
C 572.823449 193.493339 572.239952 192.084652 571.201466 191.046167
C 570.162981 190.007681 568.754294 189.424184 567.285653 189.424184
C 565.817013 189.424184 564.408326 190.007681 563.36984 191.046167
C 562.331354 192.084652 561.747857 193.493339 561.747857 194.96198
C 561.747857 196.43062 562.331354 197.839307 563.36984 198.877793
C 564.408326 199.916279 565.817013 200.499776 567.285653 200.499776
z
" clip-path="url(#p9aed17da8a)" style="fill: #457b9d; stroke: #ffffff; stroke-width: 0.5; stroke-linejoin: miter"/>
   </g>
   <g id="patch_36">
    <path d="M 567.285653 173.875756
C 568.754294 173.875756 570.162981 173.292259 571.201466 172.253774
C 572.239952 171.215288 572.823449 169.806601 572.823449 168.33796
C 572.823449 166.86932 572.239952 165.460633 571.201466 164.422147
C 570.162981 163.383661 568.754294 162.800164 567.285653 162.800164
C 565.817013 162.800164 564.408326 163.383661 563.36984 164.422147
C 562.331354 165.460633 561.747857 166.86932 561.747857 168.33796
C 561.747857 169.806601 562.331354 171.215288 563.36984 172.253774
C 564.408326 173.292259 565.817013 173.875756 567.285653 173.875756
z
" clip-path="url(#p9aed17da8a)" style="fill: #f4a261; stroke: #ffffff; stroke-width: 0.5; stroke-linejoin: miter"/>
   </g>
   <g id="patch_37">
    <path d="M 589.117349 280.371834
C 590.58599 280.371834 591.994677 279.788337 593.033162 278.749851
C 594.071648 277.711365 594.655145 276.302679 594.655145 274.834038
C 594.655145 273.365397 594.071648 271.956711 593.033162 270.918225
C 591.994677 269.879739 590.58599 269.296242 589.117349 269.296242
C 587.648709 269.296242 586.240022 269.879739 585.201536 270.918225
C 584.16305 271.956711 583.579553 273.365397 583.579553 274.834038
C 583.579553 276.302679 584.16305 277.711365 585.201536 278.749851
C 586.240022 279.788337 587.648709 280.371834 589.117349 280.371834
z
" clip-path="url(#p9aed17da8a)" style="fill: #f4a261; stroke: #ffffff; stroke-width: 0.5; stroke-linejoin: miter"/>
   </g>
   <g id="patch_38">
    <path d="M 589.117349 253.747815
C 590.58599 253.747815 591.994677 253.164318 593.033162 252.125832
C 594.071648 251.087346 594.655145 249.678659 594.655145 248.210019
C 594.655145 246.741378 594.071648 245.332691 593.033162 244.294206
C 591.994677 243.25572 590.58599 242.672223 589.117349 242.672223
C 587.648709 242.672223 586.240022 243.25572 585.201536 244.294206
C 584.16305 245.332691 583.579553 246.741378 583.579553 248.210019
C 583.579553 249.678659 584.16305 251.087346 585.201536 252.125832
C 586.240022 253.164318 587.648709 253.747815 589.117349 253.747815
z
" clip-path="url(#p9aed17da8a)" style="fill: #457b9d; stroke: #ffffff; stroke-width: 0.5; stroke-linejoin: miter"/>
   </g>
   <g id="patch_39">
    <path d="M 589.117349 227.123795
C 590.58599 227.123795 591.994677 226.540298 593.033162 225.501812
C 594.071648 224.463327 594.655145 223.05464 594.655145 221.585999
C 594.655145 220.117359 594.071648 218.708672 593.033162 217.670186
C 591.994677 216.6317 590.58599 216.048203 589.117349 216.048203
C 587.648709 216.048203 586.240022 216.6317 585.201536 217.670186
C 584.16305 218.708672 583.579553 220.117359 583.579553 221.585999
C 583.579553 223.05464 584.16305 224.463327 585.201536 225.501812
C 586.240022 226.540298 587.648709 227.123795 589.117349 227.123795
z
" clip-path="url(#p9aed17da8a)" style="fill: #f4a261; stroke: #ffffff; stroke-width: 0.5; stroke-linejoin: miter"/>
   </g>
   <g id="patch_40">
    <path d="M 589.117349 200.499776
C 590.58599 200.499776 591.994677 199.916279 593.033162 198.877793
C 594.071648 197.839307 594.655145 196.43062 594.655145 194.96198
C 594.655145 193.493339 594.071648 192.084652 593.033162 191.046167
C 591.994677 190.007681 590.58599 189.424184 589.117349 189.424184
C 587.648709 189.424184 586.240022 190.007681 585.201536 191.046167
C 584.16305 192.084652 583.579553 193.493339 583.579553 194.96198
C 583.579553 196.43062 584.16305 197.839307 585.201536 198.877793
C 586.240022 199.916279 587.648709 200.499776 589.117349 200.499776
z
" clip-path="url(#p9aed17da8a)" style="fill: #457b9d; stroke: #ffffff; stroke-width: 0.5; stroke-linejoin: miter"/>
   </g>
   <g id="patch_41">
    <path d="M 589.117349 173.875756
C 590.58599 173.875756 591.994677 173.292259 593.033162 172.253774
C 594.071648 171.215288 594.655145 169.806601 594.655145 168.33796
C 594.655145 166.86932 594.071648 165.460633 593.033162 164.422147
C 591.994677 163.383661 590.58599 162.800164 589.117349 162.800164
C 587.648709 162.800164 586.240022 163.383661 585.201536 164.422147
C 584.16305 165.460633 583.579553 166.86932 583.579553 168.33796
C 583.579553 169.806601 584.16305 171.215288 585.201536 172.253774
C 586.240022 173.292259 587.648709 173.875756 589.117349 173.875756
z
" clip-path="url(#p9aed17da8a)" style="fill: #f4a261; stroke: #ffffff; stroke-width: 0.5; stroke-linejoin: miter"/>
   </g>
   <g id="patch_42">
    <path d="M 610.949045 280.371834
C 612.417686 280.371834 613.826372 279.788337 614.864858 278.749851
C 615.903344 277.711365 616.486841 276.302679 616.486841 274.834038
C 616.486841 273.365397 615.903344 271.956711 614.864858 270.918225
C 613.826372 269.879739 612.417686 269.296242 610.949045 269.296242
C 609.480404 269.296242 608.071718 269.879739 607.033232 270.918225
C 605.994746 271.956711 605.411249 273.365397 605.411249 274.834038
C 605.411249 276.302679 605.994746 277.711365 607.033232 278.749851
C 608.071718 279.788337 609.480404 280.371834 610.949045 280.371834
z
" clip-path="url(#p9aed17da8a)" style="fill: #457b9d; stroke: #ffffff; stroke-width: 0.5; stroke-linejoin: miter"/>
   </g>
   <g id="patch_43">
    <path d="M 610.949045 253.747815
C 612.417686 253.747815 613.826372 253.164318 614.864858 252.125832
C 615.903344 251.087346 616.486841 249.678659 616.486841 248.210019
C 616.486841 246.741378 615.903344 245.332691 614.864858 244.294206
C 613.826372 243.25572 612.417686 242.672223 610.949045 242.672223
C 609.480404 242.672223 608.071718 243.25572 607.033232 244.294206
C 605.994746 245.332691 605.411249 246.741378 605.411249 248.210019
C 605.411249 249.678659 605.994746 251.087346 607.033232 252.125832
C 608.071718 253.164318 609.480404 253.747815 610.949045 253.747815
z
" clip-path="url(#p9aed17da8a)" style="fill: #457b9d; stroke: #ffffff; stroke-width: 0.5; stroke-linejoin: miter"/>
   </g>
   <g id="patch_44">
    <path d="M 610.949045 227.123795
C 612.417686 227.123795 613.826372 226.540298 614.864858 225.501812
C 615.903344 224.463327 616.486841 223.05464 616.486841 221.585999
C 616.486841 220.117359 615.903344 218.708672 614.864858 217.670186
C 613.826372 216.6317 612.417686 216.048203 610.949045 216.048203
C 609.480404 216.048203 608.071718 216.6317 607.033232 217.670186
C 605.994746 218.708672 605.411249 220.117359 605.411249 221.585999
C 605.411249 223.05464 605.994746 224.463327 607.033232 225.501812
C 608.071718 226.540298 609.480404 227.123795 610.949045 227.123795
z
" clip-path="url(#p9aed17da8a)" style="fill: #457b9d; stroke: #ffffff; stroke-width: 0.5; stroke-linejoin: miter"/>
   </g>
   <g id="patch_45">
    <path d="M 610.949045 200.499776
C 612.417686 200.499776 613.826372 199.916279 614.864858 198.877793
C 615.903344 197.839307 616.486841 196.43062 616.486841 194.96198
C 616.486841 193.493339 615.903344 192.084652 614.864858 191.046167
C 613.826372 190.007681 612.417686 189.424184 610.949045 189.424184
C 609.480404 189.424184 608.071718 190.007681 607.033232 191.046167
C 605.994746 192.084652 605.411249 193.493339 605.411249 194.96198
C 605.411249 196.43062 605.994746 197.839307 607.033232 198.877793
C 608.071718 199.916279 609.480404 200.499776 610.949045 200.499776
z
" clip-path="url(#p9aed17da8a)" style="fill: #457b9d; stroke: #ffffff; stroke-width: 0.5; stroke-linejoin: miter"/>
   </g>
   <g id="patch_46">
    <path d="M 610.949045 173.875756
C 612.417686 173.875756 613.826372 173.292259 614.864858 172.253774
C 615.903344 171.215288 616.486841 169.806601 616.486841 168.33796
C 616.486841 166.86932 615.903344 165.460633 614.864858 164.422147
C 613.826372 163.383661 612.417686 162.800164 610.949045 162.800164
C 609.480404 162.800164 608.071718 163.383661 607.033232 164.422147
C 605.994746 165.460633 605.411249 166.86932 605.411249 168.33796
C 605.411249 169.806601 605.994746 171.215288 607.033232 172.253774
C 608.071718 173.292259 609.480404 173.875756 610.949045 173.875756
z
" clip-path="url(#p9aed17da8a)" style="fill: #457b9d; stroke: #ffffff; stroke-width: 0.5; stroke-linejoin: miter"/>
   </g>
   <g id="patch_47">
    <path d="M 632.780741 280.371834
C 634.249382 280.371834 635.658068 279.788337 636.696554 278.749851
C 637.73504 277.711365 638.318537 276.302679 638.318537 274.834038
C 638.318537 273.365397 637.73504 271.956711 636.696554 270.918225
C 635.658068 269.879739 634.249382 269.296242 632.780741 269.296242
C 631.3121 269.296242 629.903414 269.879739 628.864928 270.918225
C 627.826442 271.956711 627.242945 273.365397 627.242945 274.834038
C 627.242945 276.302679 627.826442 277.711365 628.864928 278.749851
C 629.903414 279.788337 631.3121 280.371834 632.780741 280.371834
z
" clip-path="url(#p9aed17da8a)" style="fill: #f4a261; stroke: #ffffff; stroke-width: 0.5; stroke-linejoin: miter"/>
   </g>
   <g id="patch_48">
    <path d="M 632.780741 253.747815
C 634.249382 253.747815 635.658068 253.164318 636.696554 252.125832
C 637.73504 251.087346 638.318537 249.678659 638.318537 248.210019
C 638.318537 246.741378 637.73504 245.332691 636.696554 244.294206
C 635.658068 243.25572 634.249382 242.672223 632.780741 242.672223
C 631.3121 242.672223 629.903414 243.25572 628.864928 244.294206
C 627.826442 245.332691 627.242945 246.741378 627.242945 248.210019
C 627.242945 249.678659 627.826442 251.087346 628.864928 252.125832
C 629.903414 253.164318 631.3121 253.747815 632.780741 253.747815
z
" clip-path="url(#p9aed17da8a)" style="fill: #457b9d; stroke: #ffffff; stroke-width: 0.5; stroke-linejoin: miter"/>
   </g>
   <g id="patch_49">
    <path d="M 632.780741 227.123795
C 634.249382 227.123795 635.658068 226.540298 636.696554 225.501812
C 637.73504 224.463327 638.318537 223.05464 638.318537 221.585999
C 638.318537 220.117359 637.73504 218.708672 636.696554 217.670186
C 635.658068 216.6317 634.249382 216.048203 632.780741 216.048203
C 631.3121 216.048203 629.903414 216.6317 628.864928 217.670186
C 627.826442 218.708672 627.242945 220.117359 627.242945 221.585999
C 627.242945 223.05464 627.826442 224.463327 628.864928 225.501812
C 629.903414 226.540298 631.3121 227.123795 632.780741 227.123795
z
" clip-path="url(#p9aed17da8a)" style="fill: #f4a261; stroke: #ffffff; stroke-width: 0.5; stroke-linejoin: miter"/>
   </g>
   <g id="patch_50">
    <path d="M 632.780741 200.499776
C 634.249382 200.499776 635.658068 199.916279 636.696554 198.877793
C 637.73504 197.839307 638.318537 196.43062 638.318537 194.96198
C 638.318537 193.493339 637.73504 192.084652 636.696554 191.046167
C 635.658068 190.007681 634.249382 189.424184 632.780741 189.424184
C 631.3121 189.424184 629.903414 190.007681 628.864928 191.046167
C 627.826442 192.084652 627.242945 193.493339 627.242945 194.96198
C 627.242945 196.43062 627.826442 197.839307 628.864928 198.877793
C 629.903414 199.916279 631.3121 200.499776 632.780741 200.499776
z
" clip-path="url(#p9aed17da8a)" style="fill: #457b9d; stroke: #ffffff; stroke-width: 0.5; stroke-linejoin: miter"/>
   </g>
   <g id="patch_51">
    <path d="M 632.780741 173.875756
C 634.249382 173.875756 635.658068 173.292259 636.696554 172.253774
C 637.73504 171.215288 638.318537 169.806601 638.318537 168.33796
C 638.318537 166.86932 637.73504 165.460633 636.696554 164.422147
C 635.658068 163.383661 634.249382 162.800164 632.780741 162.800164
C 631.3121 162.800164 629.903414 163.383661 628.864928 164.422147
C 627.826442 165.460633 627.242945 166.86932 627.242945 168.33796
C 627.242945 169.806601 627.826442 171.215288 628.864928 172.253774
C 629.903414 173.292259 631.3121 173.875756 632.780741 173.875756
z
" clip-path="url(#p9aed17da8a)" style="fill: #f4a261; stroke: #ffffff; stroke-width: 0.5; stroke-linejoin: miter"/>
   </g>
  </g>
  <g id="text_11">
   <!-- $L1_2$規則配列と逆位相境界 -->
   <g style="fill: #17324d" transform="translate(243.572459 19.514062)">
    <text>
     <tspan x="0" y="-0.84375" style="font-style: oblique; font-size: 15px; font-family: 'DejaVu Sans'; fill: #17324d">L</tspan>
     <tspan x="8.356934" y="-0.84375" style="font-size: 15px; font-family: 'DejaVu Sans'; fill: #17324d">1</tspan>
     <tspan x="18.043945" y="1.617188" style="font-size: 10.5px; font-family: 'DejaVu Sans'; fill: #17324d">2</tspan>
     <tspan x="25.134521" y="-0.84375" style="font-weight: 700; font-size: 15px; font-family: 'Hiragino Sans'; fill: #17324d">規</tspan>
     <tspan x="40.134506" y="-0.84375" style="font-weight: 700; font-size: 15px; font-family: 'Hiragino Sans'; fill: #17324d">則</tspan>
     <tspan x="55.134491" y="-0.84375" style="font-weight: 700; font-size: 15px; font-family: 'Hiragino Sans'; fill: #17324d">配</tspan>
     <tspan x="70.134476" y="-0.84375" style="font-weight: 700; font-size: 15px; font-family: 'Hiragino Sans'; fill: #17324d">列</tspan>
     <tspan x="85.13446" y="-0.84375" style="font-weight: 700; font-size: 15px; font-family: 'Hiragino Sans'; fill: #17324d">と</tspan>
     <tspan x="100.134445" y="-0.84375" style="font-weight: 700; font-size: 15px; font-family: 'Hiragino Sans'; fill: #17324d">逆</tspan>
     <tspan x="115.13443" y="-0.84375" style="font-weight: 700; font-size: 15px; font-family: 'Hiragino Sans'; fill: #17324d">位</tspan>
     <tspan x="130.134415" y="-0.84375" style="font-weight: 700; font-size: 15px; font-family: 'Hiragino Sans'; fill: #17324d">相</tspan>
     <tspan x="145.134399" y="-0.84375" style="font-weight: 700; font-size: 15px; font-family: 'Hiragino Sans'; fill: #17324d">境</tspan>
     <tspan x="160.134384" y="-0.84375" style="font-weight: 700; font-size: 15px; font-family: 'Hiragino Sans'; fill: #17324d">界</tspan>
    </text>
   </g>
  </g>
  <g id="text_12">
   <text style="font-size: 10px; font-family: 'Hiragino Sans'; text-anchor: middle; fill: #64748b" x="331.172459" y="369.6192" transform="rotate(-0 331.172459 369.6192)">教育用模式図：投影方向、転位芯幅、APB幅は定量的ではない。</text>
  </g>
 </g>
 <defs>
  <clipPath id="pdd7aa070c9">
   <rect x="7.2" y="112.96" width="219.38192" height="219.38192"/>
  </clipPath>
  <clipPath id="p9aed17da8a">
   <rect x="438.95788" y="112.96" width="212.992155" height="219.38192"/>
  </clipPath>
 </defs>
</svg>
