<?xml version="1.0" encoding="utf-8" standalone="no"?>
<!DOCTYPE svg PUBLIC "-//W3C//DTD SVG 1.1//EN"
  "http://www.w3.org/Graphics/SVG/1.1/DTD/svg11.dtd">
<svg xmlns:xlink="http://www.w3.org/1999/xlink" width="933.250858pt" height="445.6818pt" viewBox="0 0 933.250858 445.6818" xmlns="http://www.w3.org/2000/svg" version="1.1">
 <metadata>
  <rdf:RDF xmlns:dc="http://purl.org/dc/elements/1.1/" xmlns:cc="http://creativecommons.org/ns#" xmlns:rdf="http://www.w3.org/1999/02/22-rdf-syntax-ns#">
   <cc:Work>
    <dc:type rdf:resource="http://purl.org/dc/dcmitype/StillImage"/>
    <dc:format>image/svg+xml</dc:format>
    <dc:creator>
     <cc:Agent>
      <dc:title>Matplotlib v3.10.9, https://matplotlib.org/</dc:title>
     </cc:Agent>
    </dc:creator>
   </cc:Work>
  </rdf:RDF>
 </metadata>
 <defs>
  <style type="text/css">*{stroke-linejoin: round; stroke-linecap: butt}</style>
 </defs>
 <g id="figure_1">
  <g id="patch_1">
   <path d="M 0 445.6818
L 933.250858 445.6818
L 933.250858 0
L 0 0
z
" style="fill: #ffffff"/>
  </g>
  <g id="axes_1">
   <g id="patch_2">
    <path d="M 18.578295 392.436465
L 494.191013 392.436465
L 494.191013 97.966198
L 18.578295 97.966198
z
" clip-path="url(#p12191665e6)" style="fill: #eef5f8; stroke: #17324d; stroke-width: 1.5; stroke-linejoin: miter"/>
   </g>
   <g id="text_1">
    <text style="font-weight: 700; font-size: 12px; font-family: 'Hiragino Sans'; text-anchor: middle; fill: #17324d" x="255.246825" y="82.946849" transform="rotate(-0 255.246825 82.946849)">粒内：微細で高体積率の整合析出組織</text>
   </g>
   <g id="patch_3">
    <path d="M 39.969489 372.410666
L 118.252156 372.410666
L 118.252156 294.127999
L 39.969489 294.127999
z
" clip-path="url(#p12191665e6)" style="fill: #fbf3d5; stroke: #17324d; stroke-width: 1.5; stroke-linejoin: miter"/>
   </g>
   <g id="patch_4">
    <path d="M 39.969489 207.652959
L 118.252156 207.652959
L 118.252156 129.370291
L 39.969489 129.370291
z
" clip-path="url(#p12191665e6)" style="fill: #fbf3d5; stroke: #17324d; stroke-width: 1.5; stroke-linejoin: miter"/>
   </g>
   <g id="patch_5">
    <path d="M 158.758885 372.410666
L 237.041553 372.410666
L 237.041553 294.127999
L 158.758885 294.127999
z
" clip-path="url(#p12191665e6)" style="fill: #fbf3d5; stroke: #17324d; stroke-width: 1.5; stroke-linejoin: miter"/>
   </g>
   <g id="patch_6">
    <path d="M 158.758885 207.652959
L 237.041553 207.652959
L 237.041553 129.370291
L 158.758885 129.370291
z
" clip-path="url(#p12191665e6)" style="fill: #fbf3d5; stroke: #17324d; stroke-width: 1.5; stroke-linejoin: miter"/>
   </g>
   <g id="patch_7">
    <path d="M 277.548282 372.410666
L 355.83095 372.410666
L 355.83095 294.127999
L 277.548282 294.127999
z
" clip-path="url(#p12191665e6)" style="fill: #fbf3d5; stroke: #17324d; stroke-width: 1.5; stroke-linejoin: miter"/>
   </g>
   <g id="patch_8">
    <path d="M 277.548282 207.652959
L 355.83095 207.652959
L 355.83095 129.370291
L 277.548282 129.370291
z
" clip-path="url(#p12191665e6)" style="fill: #fbf3d5; stroke: #17324d; stroke-width: 1.5; stroke-linejoin: miter"/>
   </g>
   <g id="patch_9">
    <path d="M 39.969489 294.127999
L 49.072125 286.84589
L 127.354792 286.84589
L 118.252156 294.127999
z
" clip-path="url(#p12191665e6)" style="fill: #e9c46a; stroke: #17324d; stroke-linejoin: miter"/>
   </g>
   <g id="patch_10">
    <path d="M 118.252156 372.410666
L 127.354792 365.128558
L 127.354792 286.84589
L 118.252156 294.127999
z
" clip-path="url(#p12191665e6)" style="fill: #f4a261; opacity: 0.72; stroke: #17324d; stroke-linejoin: miter"/>
   </g>
   <g id="patch_11">
    <path d="M 39.969489 129.370291
L 49.072125 122.088183
L 127.354792 122.088183
L 118.252156 129.370291
z
" clip-path="url(#p12191665e6)" style="fill: #e9c46a; stroke: #17324d; stroke-linejoin: miter"/>
   </g>
   <g id="patch_12">
    <path d="M 118.252156 207.652959
L 127.354792 200.37085
L 127.354792 122.088183
L 118.252156 129.370291
z
" clip-path="url(#p12191665e6)" style="fill: #f4a261; opacity: 0.72; stroke: #17324d; stroke-linejoin: miter"/>
   </g>
   <g id="patch_13">
    <path d="M 158.758885 294.127999
L 167.861521 286.84589
L 246.144189 286.84589
L 237.041553 294.127999
z
" clip-path="url(#p12191665e6)" style="fill: #e9c46a; stroke: #17324d; stroke-linejoin: miter"/>
   </g>
   <g id="patch_14">
    <path d="M 237.041553 372.410666
L 246.144189 365.128558
L 246.144189 286.84589
L 237.041553 294.127999
z
" clip-path="url(#p12191665e6)" style="fill: #f4a261; opacity: 0.72; stroke: #17324d; stroke-linejoin: miter"/>
   </g>
   <g id="patch_15">
    <path d="M 158.758885 129.370291
L 167.861521 122.088183
L 246.144189 122.088183
L 237.041553 129.370291
z
" clip-path="url(#p12191665e6)" style="fill: #e9c46a; stroke: #17324d; stroke-linejoin: miter"/>
   </g>
   <g id="patch_16">
    <path d="M 237.041553 207.652959
L 246.144189 200.37085
L 246.144189 122.088183
L 237.041553 129.370291
z
" clip-path="url(#p12191665e6)" style="fill: #f4a261; opacity: 0.72; stroke: #17324d; stroke-linejoin: miter"/>
   </g>
   <g id="patch_17">
    <path d="M 277.548282 294.127999
L 286.650918 286.84589
L 364.933585 286.84589
L 355.83095 294.127999
z
" clip-path="url(#p12191665e6)" style="fill: #e9c46a; stroke: #17324d; stroke-linejoin: miter"/>
   </g>
   <g id="patch_18">
    <path d="M 355.83095 372.410666
L 364.933585 365.128558
L 364.933585 286.84589
L 355.83095 294.127999
z
" clip-path="url(#p12191665e6)" style="fill: #f4a261; opacity: 0.72; stroke: #17324d; stroke-linejoin: miter"/>
   </g>
   <g id="patch_19">
    <path d="M 277.548282 129.370291
L 286.650918 122.088183
L 364.933585 122.088183
L 355.83095 129.370291
z
" clip-path="url(#p12191665e6)" style="fill: #e9c46a; stroke: #17324d; stroke-linejoin: miter"/>
   </g>
   <g id="patch_20">
    <path d="M 355.83095 207.652959
L 364.933585 200.37085
L 364.933585 122.088183
L 355.83095 129.370291
z
" clip-path="url(#p12191665e6)" style="fill: #f4a261; opacity: 0.72; stroke: #17324d; stroke-linejoin: miter"/>
   </g>
   <g id="text_2">
    <text style="font-weight: 700; font-size: 12px; font-family: 'Hiragino Sans'; text-anchor: middle; fill: #17324d" x="79.110823" y="336.767145" transform="rotate(-0 79.110823 336.767145)">γ′</text>
   </g>
   <g id="text_3">
    <text style="font-weight: 700; font-size: 12px; font-family: 'Hiragino Sans'; text-anchor: middle; fill: #17324d" x="79.110823" y="172.009438" transform="rotate(-0 79.110823 172.009438)">γ′</text>
   </g>
   <g id="text_4">
    <text style="font-weight: 700; font-size: 12px; font-family: 'Hiragino Sans'; text-anchor: middle; fill: #17324d" x="197.900219" y="336.767145" transform="rotate(-0 197.900219 336.767145)">γ′</text>
   </g>
   <g id="text_5">
    <text style="font-weight: 700; font-size: 12px; font-family: 'Hiragino Sans'; text-anchor: middle; fill: #17324d" x="197.900219" y="172.009438" transform="rotate(-0 197.900219 172.009438)">γ′</text>
   </g>
   <g id="text_6">
    <text style="font-weight: 700; font-size: 12px; font-family: 'Hiragino Sans'; text-anchor: middle; fill: #17324d" x="316.689616" y="336.767145" transform="rotate(-0 316.689616 336.767145)">γ′</text>
   </g>
   <g id="text_7">
    <text style="font-weight: 700; font-size: 12px; font-family: 'Hiragino Sans'; text-anchor: middle; fill: #17324d" x="316.689616" y="172.009438" transform="rotate(-0 316.689616 172.009438)">γ′</text>
   </g>
   <g id="patch_21">
    <path d="M 390.420966 213.569672
L 484.633246 213.569672
Q 490.094827 213.569672 490.094827 208.108091
L 490.094827 110.709888
Q 490.094827 105.248307 484.633246 105.248307
L 390.420966 105.248307
Q 384.959384 105.248307 384.959384 110.709888
L 384.959384 208.108091
Q 384.959384 213.569672 390.420966 213.569672
z
" clip-path="url(#p12191665e6)" style="fill: #ffffff; stroke: #cbd5df; stroke-width: 1.1; stroke-linejoin: miter"/>
   </g>
   <g id="line2d_1">
    <path d="M 23.129613 253.62127
L 27.453365 251.03195
L 31.777117 248.578506
L 36.100869 246.389679
L 40.424621 244.580331
L 44.748373 243.245404
L 49.072125 242.454951
L 53.395876 242.25045
L 57.719628 242.642631
L 62.04338 243.610916
L 66.367132 245.104494
L 70.690884 247.044989
L 75.014636 249.330573
L 79.338388 251.841312
L 83.66214 254.445454
L 87.985892 257.006347
L 92.309644 259.389608
L 96.633396 261.470176
L 100.957148 263.138873
L 105.2809 264.308135
L 109.604652 264.916604
L 113.928404 264.932351
L 118.252156 264.354549
L 122.575908 263.21352
L 126.89966 261.569138
L 131.223412 259.507692
L 135.547164 257.137356
L 139.870916 254.582514
L 144.194668 251.977231
L 148.51842 249.458218
L 152.842172 247.157661
L 157.165924 245.196282
L 161.489676 243.677004
L 165.813428 242.67955
L 170.13718 242.256262
L 174.460932 242.429352
L 178.784684 243.189738
L 183.108436 244.497517
L 187.432188 246.284065
L 191.75594 248.455632
L 196.079692 250.898265
L 200.403444 253.483788
L 204.727196 256.076526
L 209.050948 258.540424
L 213.3747 260.746189
L 217.698452 262.578075
L 222.022204 263.939953
L 226.345956 264.760359
L 230.669708 264.996242
L 234.99346 264.635224
L 239.317212 263.696249
L 243.640964 262.228591
L 247.964716 260.309263
L 252.288468 258.038984
L 256.61222 255.536886
L 260.935972 252.934265
L 265.259724 250.367695
L 269.583476 247.971857
L 273.907228 245.87247
L 278.23098 244.179702
L 282.554732 242.982379
L 286.878484 242.343331
L 291.202236 242.296093
L 295.525988 242.843142
L 299.84974 243.955773
L 304.173492 245.5756
L 308.497244 247.617623
L 312.820996 249.974687
L 317.144748 252.523106
L 321.4685 255.12915
L 325.792252 257.656068
L 330.116004 259.971261
L 334.439756 261.953238
L 338.763508 263.497996
L 343.08726 264.524473
L 347.411012 264.978805
L 351.734764 264.837151
L 356.058516 264.106945
L 360.382268 262.826503
L 364.70602 261.063018
L 369.029772 258.909027
" clip-path="url(#p12191665e6)" style="fill: none; stroke: #e76f51; stroke-width: 3.1; stroke-linecap: round"/>
   </g>
   <g id="patch_22">
    <path d="M 387.254377 157.476929
Q 372.216817 140.977384 358.082991 125.469436
" style="fill: none; stroke: #64748b; stroke-width: 1.2; stroke-linecap: round"/>
    <path d="M 359.29922 129.773015
L 358.082991 125.469436
L 362.255591 127.0786
" style="fill: none; stroke: #64748b; stroke-width: 1.2; stroke-linecap: round"/>
   </g>
   <g id="patch_23">
    <path d="M 106.028401 244.214355
Q 122.568484 249.523131 137.405298 254.285218
" style="fill: none; stroke: #457b9d; stroke-width: 1.6; stroke-linecap: round"/>
    <path d="M 134.207886 251.15847
L 137.405298 254.285218
L 132.985452 254.967099
" style="fill: none; stroke: #457b9d; stroke-width: 1.6; stroke-linecap: round"/>
   </g>
   <g id="text_8">
    <text style="font-weight: 700; font-size: 10px; font-family: 'Hiragino Sans'; text-anchor: middle; fill: #457b9d" x="82.296745" y="239.512184" transform="rotate(-0 82.296745 239.512184)">γ母相チャネル</text>
   </g>
   <g id="patch_24">
    <path d="M 360.562831 253.62127
Q 369.029482 253.62127 374.365637 253.62127
" clip-path="url(#p12191665e6)" style="fill: none; stroke: #e76f51; stroke-width: 2.8; stroke-linecap: round"/>
    <path d="M 368.365637 250.62127
L 374.365637 253.62127
L 368.365637 256.62127
z
" clip-path="url(#p12191665e6)" style="fill: #e76f51; stroke: #e76f51; stroke-width: 2.8; stroke-linecap: round"/>
   </g>
   <g id="text_9">
    <text style="font-weight: 700; font-size: 9px; font-family: 'Hiragino Sans'; text-anchor: middle; fill: #17324d" x="437.754672" y="118.90226" transform="rotate(-0 437.754672 118.90226)">整合界面（拡大）</text>
   </g>
   <g id="line2d_2">
    <path d="M 437.29954 196.729796
L 437.29954 130.280555
" clip-path="url(#p12191665e6)" style="fill: none; stroke-dasharray: 4.81,2.08; stroke-dashoffset: 0; stroke: #17324d; stroke-width: 1.3"/>
   </g>
   <g id="text_10">
    <text style="font-size: 9px; font-family: 'Hiragino Sans'; text-anchor: middle; fill: #17324d" x="411.357028" y="201.736246" transform="rotate(-0 411.357028 201.736246)">γ</text>
   </g>
   <g id="text_11">
    <text style="font-size: 9px; font-family: 'Hiragino Sans'; text-anchor: middle; fill: #17324d" x="461.876656" y="201.736246" transform="rotate(-0 461.876656 201.736246)">γ′</text>
   </g>
   <g id="text_12">
    <text style="font-size: 8px; font-family: 'Hiragino Sans'; text-anchor: middle; fill: #64748b" x="437.754672" y="210.38375" transform="rotate(-0 437.754672 210.38375)">格子面がほぼ連続</text>
   </g>
   <g id="text_13">
    <text style="font-size: 9px; font-family: 'Hiragino Sans'; text-anchor: start; fill: #64748b" x="32.232248" y="383.309356" transform="rotate(-0 32.232248 383.309356)">格子定数が近い → 低い界面エネルギーで微細分散を保ちやすい</text>
   </g>
   <g id="patch_25">
    <path d="M 404.074919 191.040649
C 404.980187 191.040649 405.848499 190.680982 406.48862 190.040861
C 407.128741 189.40074 407.488408 188.532428 407.488408 187.62716
C 407.488408 186.721893 407.128741 185.85358 406.48862 185.213459
C 405.848499 184.573339 404.980187 184.213672 404.074919 184.213672
C 403.169651 184.213672 402.301339 184.573339 401.661218 185.213459
C 401.021097 185.85358 400.661431 186.721893 400.661431 187.62716
C 400.661431 188.532428 401.021097 189.40074 401.661218 190.040861
C 402.301339 190.680982 403.169651 191.040649 404.074919 191.040649
z
" clip-path="url(#p12191665e6)" style="fill: #457b9d; stroke: #ffffff; stroke-width: 0.4; stroke-linejoin: miter"/>
   </g>
   <g id="patch_26">
    <path d="M 404.074919 173.745641
C 404.980187 173.745641 405.848499 173.385974 406.48862 172.745853
C 407.128741 172.105732 407.488408 171.23742 407.488408 170.332152
C 407.488408 169.426885 407.128741 168.558572 406.48862 167.918452
C 405.848499 167.278331 404.980187 166.918664 404.074919 166.918664
C 403.169651 166.918664 402.301339 167.278331 401.661218 167.918452
C 401.021097 168.558572 400.661431 169.426885 400.661431 170.332152
C 400.661431 171.23742 401.021097 172.105732 401.661218 172.745853
C 402.301339 173.385974 403.169651 173.745641 404.074919 173.745641
z
" clip-path="url(#p12191665e6)" style="fill: #457b9d; stroke: #ffffff; stroke-width: 0.4; stroke-linejoin: miter"/>
   </g>
   <g id="patch_27">
    <path d="M 404.074919 156.450633
C 404.980187 156.450633 405.848499 156.090966 406.48862 155.450845
C 407.128741 154.810724 407.488408 153.942412 407.488408 153.037144
C 407.488408 152.131877 407.128741 151.263565 406.48862 150.623444
C 405.848499 149.983323 404.980187 149.623656 404.074919 149.623656
C 403.169651 149.623656 402.301339 149.983323 401.661218 150.623444
C 401.021097 151.263565 400.661431 152.131877 400.661431 153.037144
C 400.661431 153.942412 401.021097 154.810724 401.661218 155.450845
C 402.301339 156.090966 403.169651 156.450633 404.074919 156.450633
z
" clip-path="url(#p12191665e6)" style="fill: #457b9d; stroke: #ffffff; stroke-width: 0.4; stroke-linejoin: miter"/>
   </g>
   <g id="patch_28">
    <path d="M 404.074919 139.155625
C 404.980187 139.155625 405.848499 138.795958 406.48862 138.155837
C 407.128741 137.515716 407.488408 136.647404 407.488408 135.742136
C 407.488408 134.836869 407.128741 133.968557 406.48862 133.328436
C 405.848499 132.688315 404.980187 132.328648 404.074919 132.328648
C 403.169651 132.328648 402.301339 132.688315 401.661218 133.328436
C 401.021097 133.968557 400.661431 134.836869 400.661431 135.742136
C 400.661431 136.647404 401.021097 137.515716 401.661218 138.155837
C 402.301339 138.795958 403.169651 139.155625 404.074919 139.155625
z
" clip-path="url(#p12191665e6)" style="fill: #457b9d; stroke: #ffffff; stroke-width: 0.4; stroke-linejoin: miter"/>
   </g>
   <g id="patch_29">
    <path d="M 420.459664 191.040649
C 421.364931 191.040649 422.233243 190.680982 422.873364 190.040861
C 423.513485 189.40074 423.873152 188.532428 423.873152 187.62716
C 423.873152 186.721893 423.513485 185.85358 422.873364 185.213459
C 422.233243 184.573339 421.364931 184.213672 420.459664 184.213672
C 419.554396 184.213672 418.686084 184.573339 418.045963 185.213459
C 417.405842 185.85358 417.046175 186.721893 417.046175 187.62716
C 417.046175 188.532428 417.405842 189.40074 418.045963 190.040861
C 418.686084 190.680982 419.554396 191.040649 420.459664 191.040649
z
" clip-path="url(#p12191665e6)" style="fill: #457b9d; stroke: #ffffff; stroke-width: 0.4; stroke-linejoin: miter"/>
   </g>
   <g id="patch_30">
    <path d="M 420.459664 173.745641
C 421.364931 173.745641 422.233243 173.385974 422.873364 172.745853
C 423.513485 172.105732 423.873152 171.23742 423.873152 170.332152
C 423.873152 169.426885 423.513485 168.558572 422.873364 167.918452
C 422.233243 167.278331 421.364931 166.918664 420.459664 166.918664
C 419.554396 166.918664 418.686084 167.278331 418.045963 167.918452
C 417.405842 168.558572 417.046175 169.426885 417.046175 170.332152
C 417.046175 171.23742 417.405842 172.105732 418.045963 172.745853
C 418.686084 173.385974 419.554396 173.745641 420.459664 173.745641
z
" clip-path="url(#p12191665e6)" style="fill: #457b9d; stroke: #ffffff; stroke-width: 0.4; stroke-linejoin: miter"/>
   </g>
   <g id="patch_31">
    <path d="M 420.459664 156.450633
C 421.364931 156.450633 422.233243 156.090966 422.873364 155.450845
C 423.513485 154.810724 423.873152 153.942412 423.873152 153.037144
C 423.873152 152.131877 423.513485 151.263565 422.873364 150.623444
C 422.233243 149.983323 421.364931 149.623656 420.459664 149.623656
C 419.554396 149.623656 418.686084 149.983323 418.045963 150.623444
C 417.405842 151.263565 417.046175 152.131877 417.046175 153.037144
C 417.046175 153.942412 417.405842 154.810724 418.045963 155.450845
C 418.686084 156.090966 419.554396 156.450633 420.459664 156.450633
z
" clip-path="url(#p12191665e6)" style="fill: #457b9d; stroke: #ffffff; stroke-width: 0.4; stroke-linejoin: miter"/>
   </g>
   <g id="patch_32">
    <path d="M 420.459664 139.155625
C 421.364931 139.155625 422.233243 138.795958 422.873364 138.155837
C 423.513485 137.515716 423.873152 136.647404 423.873152 135.742136
C 423.873152 134.836869 423.513485 133.968557 422.873364 133.328436
C 422.233243 132.688315 421.364931 132.328648 420.459664 132.328648
C 419.554396 132.328648 418.686084 132.688315 418.045963 133.328436
C 417.405842 133.968557 417.046175 134.836869 417.046175 135.742136
C 417.046175 136.647404 417.405842 137.515716 418.045963 138.155837
C 418.686084 138.795958 419.554396 139.155625 420.459664 139.155625
z
" clip-path="url(#p12191665e6)" style="fill: #457b9d; stroke: #ffffff; stroke-width: 0.4; stroke-linejoin: miter"/>
   </g>
   <g id="patch_33">
    <path d="M 437.29954 191.040649
C 438.204807 191.040649 439.07312 190.680982 439.713241 190.040861
C 440.353361 189.40074 440.713028 188.532428 440.713028 187.62716
C 440.713028 186.721893 440.353361 185.85358 439.713241 185.213459
C 439.07312 184.573339 438.204807 184.213672 437.29954 184.213672
C 436.394272 184.213672 435.52596 184.573339 434.885839 185.213459
C 434.245718 185.85358 433.886051 186.721893 433.886051 187.62716
C 433.886051 188.532428 434.245718 189.40074 434.885839 190.040861
C 435.52596 190.680982 436.394272 191.040649 437.29954 191.040649
z
" clip-path="url(#p12191665e6)" style="fill: #e9c46a; stroke: #ffffff; stroke-width: 0.4; stroke-linejoin: miter"/>
   </g>
   <g id="patch_34">
    <path d="M 437.29954 173.745641
C 438.204807 173.745641 439.07312 173.385974 439.713241 172.745853
C 440.353361 172.105732 440.713028 171.23742 440.713028 170.332152
C 440.713028 169.426885 440.353361 168.558572 439.713241 167.918452
C 439.07312 167.278331 438.204807 166.918664 437.29954 166.918664
C 436.394272 166.918664 435.52596 167.278331 434.885839 167.918452
C 434.245718 168.558572 433.886051 169.426885 433.886051 170.332152
C 433.886051 171.23742 434.245718 172.105732 434.885839 172.745853
C 435.52596 173.385974 436.394272 173.745641 437.29954 173.745641
z
" clip-path="url(#p12191665e6)" style="fill: #e9c46a; stroke: #ffffff; stroke-width: 0.4; stroke-linejoin: miter"/>
   </g>
   <g id="patch_35">
    <path d="M 437.29954 156.450633
C 438.204807 156.450633 439.07312 156.090966 439.713241 155.450845
C 440.353361 154.810724 440.713028 153.942412 440.713028 153.037144
C 440.713028 152.131877 440.353361 151.263565 439.713241 150.623444
C 439.07312 149.983323 438.204807 149.623656 437.29954 149.623656
C 436.394272 149.623656 435.52596 149.983323 434.885839 150.623444
C 434.245718 151.263565 433.886051 152.131877 433.886051 153.037144
C 433.886051 153.942412 434.245718 154.810724 434.885839 155.450845
C 435.52596 156.090966 436.394272 156.450633 437.29954 156.450633
z
" clip-path="url(#p12191665e6)" style="fill: #e9c46a; stroke: #ffffff; stroke-width: 0.4; stroke-linejoin: miter"/>
   </g>
   <g id="patch_36">
    <path d="M 437.29954 139.155625
C 438.204807 139.155625 439.07312 138.795958 439.713241 138.155837
C 440.353361 137.515716 440.713028 136.647404 440.713028 135.742136
C 440.713028 134.836869 440.353361 133.968557 439.713241 133.328436
C 439.07312 132.688315 438.204807 132.328648 437.29954 132.328648
C 436.394272 132.328648 435.52596 132.688315 434.885839 133.328436
C 434.245718 133.968557 433.886051 134.836869 433.886051 135.742136
C 433.886051 136.647404 434.245718 137.515716 434.885839 138.155837
C 435.52596 138.795958 436.394272 139.155625 437.29954 139.155625
z
" clip-path="url(#p12191665e6)" style="fill: #e9c46a; stroke: #ffffff; stroke-width: 0.4; stroke-linejoin: miter"/>
   </g>
   <g id="patch_37">
    <path d="M 454.139416 191.040649
C 455.044684 191.040649 455.912996 190.680982 456.553117 190.040861
C 457.193238 189.40074 457.552904 188.532428 457.552904 187.62716
C 457.552904 186.721893 457.193238 185.85358 456.553117 185.213459
C 455.912996 184.573339 455.044684 184.213672 454.139416 184.213672
C 453.234148 184.213672 452.365836 184.573339 451.725715 185.213459
C 451.085594 185.85358 450.725927 186.721893 450.725927 187.62716
C 450.725927 188.532428 451.085594 189.40074 451.725715 190.040861
C 452.365836 190.680982 453.234148 191.040649 454.139416 191.040649
z
" clip-path="url(#p12191665e6)" style="fill: #e9c46a; stroke: #ffffff; stroke-width: 0.4; stroke-linejoin: miter"/>
   </g>
   <g id="patch_38">
    <path d="M 454.139416 173.745641
C 455.044684 173.745641 455.912996 173.385974 456.553117 172.745853
C 457.193238 172.105732 457.552904 171.23742 457.552904 170.332152
C 457.552904 169.426885 457.193238 168.558572 456.553117 167.918452
C 455.912996 167.278331 455.044684 166.918664 454.139416 166.918664
C 453.234148 166.918664 452.365836 167.278331 451.725715 167.918452
C 451.085594 168.558572 450.725927 169.426885 450.725927 170.332152
C 450.725927 171.23742 451.085594 172.105732 451.725715 172.745853
C 452.365836 173.385974 453.234148 173.745641 454.139416 173.745641
z
" clip-path="url(#p12191665e6)" style="fill: #e9c46a; stroke: #ffffff; stroke-width: 0.4; stroke-linejoin: miter"/>
   </g>
   <g id="patch_39">
    <path d="M 454.139416 156.450633
C 455.044684 156.450633 455.912996 156.090966 456.553117 155.450845
C 457.193238 154.810724 457.552904 153.942412 457.552904 153.037144
C 457.552904 152.131877 457.193238 151.263565 456.553117 150.623444
C 455.912996 149.983323 455.044684 149.623656 454.139416 149.623656
C 453.234148 149.623656 452.365836 149.983323 451.725715 150.623444
C 451.085594 151.263565 450.725927 152.131877 450.725927 153.037144
C 450.725927 153.942412 451.085594 154.810724 451.725715 155.450845
C 452.365836 156.090966 453.234148 156.450633 454.139416 156.450633
z
" clip-path="url(#p12191665e6)" style="fill: #e9c46a; stroke: #ffffff; stroke-width: 0.4; stroke-linejoin: miter"/>
   </g>
   <g id="patch_40">
    <path d="M 454.139416 139.155625
C 455.044684 139.155625 455.912996 138.795958 456.553117 138.155837
C 457.193238 137.515716 457.552904 136.647404 457.552904 135.742136
C 457.552904 134.836869 457.193238 133.968557 456.553117 133.328436
C 455.912996 132.688315 455.044684 132.328648 454.139416 132.328648
C 453.234148 132.328648 452.365836 132.688315 451.725715 133.328436
C 451.085594 133.968557 450.725927 134.836869 450.725927 135.742136
C 450.725927 136.647404 451.085594 137.515716 451.725715 138.155837
C 452.365836 138.795958 453.234148 139.155625 454.139416 139.155625
z
" clip-path="url(#p12191665e6)" style="fill: #e9c46a; stroke: #ffffff; stroke-width: 0.4; stroke-linejoin: miter"/>
   </g>
   <g id="patch_41">
    <path d="M 470.52416 191.040649
C 471.429428 191.040649 472.29774 190.680982 472.937861 190.040861
C 473.577982 189.40074 473.937649 188.532428 473.937649 187.62716
C 473.937649 186.721893 473.577982 185.85358 472.937861 185.213459
C 472.29774 184.573339 471.429428 184.213672 470.52416 184.213672
C 469.618893 184.213672 468.75058 184.573339 468.110459 185.213459
C 467.470339 185.85358 467.110672 186.721893 467.110672 187.62716
C 467.110672 188.532428 467.470339 189.40074 468.110459 190.040861
C 468.75058 190.680982 469.618893 191.040649 470.52416 191.040649
z
" clip-path="url(#p12191665e6)" style="fill: #e9c46a; stroke: #ffffff; stroke-width: 0.4; stroke-linejoin: miter"/>
   </g>
   <g id="patch_42">
    <path d="M 470.52416 173.745641
C 471.429428 173.745641 472.29774 173.385974 472.937861 172.745853
C 473.577982 172.105732 473.937649 171.23742 473.937649 170.332152
C 473.937649 169.426885 473.577982 168.558572 472.937861 167.918452
C 472.29774 167.278331 471.429428 166.918664 470.52416 166.918664
C 469.618893 166.918664 468.75058 167.278331 468.110459 167.918452
C 467.470339 168.558572 467.110672 169.426885 467.110672 170.332152
C 467.110672 171.23742 467.470339 172.105732 468.110459 172.745853
C 468.75058 173.385974 469.618893 173.745641 470.52416 173.745641
z
" clip-path="url(#p12191665e6)" style="fill: #e9c46a; stroke: #ffffff; stroke-width: 0.4; stroke-linejoin: miter"/>
   </g>
   <g id="patch_43">
    <path d="M 470.52416 156.450633
C 471.429428 156.450633 472.29774 156.090966 472.937861 155.450845
C 473.577982 154.810724 473.937649 153.942412 473.937649 153.037144
C 473.937649 152.131877 473.577982 151.263565 472.937861 150.623444
C 472.29774 149.983323 471.429428 149.623656 470.52416 149.623656
C 469.618893 149.623656 468.75058 149.983323 468.110459 150.623444
C 467.470339 151.263565 467.110672 152.131877 467.110672 153.037144
C 467.110672 153.942412 467.470339 154.810724 468.110459 155.450845
C 468.75058 156.090966 469.618893 156.450633 470.52416 156.450633
z
" clip-path="url(#p12191665e6)" style="fill: #e9c46a; stroke: #ffffff; stroke-width: 0.4; stroke-linejoin: miter"/>
   </g>
   <g id="patch_44">
    <path d="M 470.52416 139.155625
C 471.429428 139.155625 472.29774 138.795958 472.937861 138.155837
C 473.577982 137.515716 473.937649 136.647404 473.937649 135.742136
C 473.937649 134.836869 473.577982 133.968557 472.937861 133.328436
C 472.29774 132.688315 471.429428 132.328648 470.52416 132.328648
C 469.618893 132.328648 468.75058 132.688315 468.110459 133.328436
C 467.470339 133.968557 467.110672 134.836869 467.110672 135.742136
C 467.110672 136.647404 467.470339 137.515716 468.110459 138.155837
C 468.75058 138.795958 469.618893 139.155625 470.52416 139.155625
z
" clip-path="url(#p12191665e6)" style="fill: #e9c46a; stroke: #ffffff; stroke-width: 0.4; stroke-linejoin: miter"/>
   </g>
   <g id="patch_45">
    <path d="M 228.60042 275.74141
Q 220.470354 265.465751 213.380859 256.505279
" style="fill: none; stroke: #e76f51; stroke-width: 1.5; stroke-linecap: round"/>
    <path d="M 214.202968 260.445347
L 213.380859 256.505279
L 217.026179 258.211632
" style="fill: none; stroke: #e76f51; stroke-width: 1.5; stroke-linecap: round"/>
   </g>
   <g id="text_14">
    <g id="patch_46">
     <path d="M 158.317212 301.259125
L 320.317212 301.259125
Q 322.567212 301.259125 322.567212 299.009125
L 322.567212 279.563781
Q 322.567212 277.313781 320.317212 277.313781
L 158.317212 277.313781
Q 156.067212 277.313781 156.067212 279.563781
L 156.067212 299.009125
Q 156.067212 301.259125 158.317212 301.259125
z
" style="fill: #ffffff; opacity: 0.88"/>
    </g>
    <text style="font-weight: 700; font-size: 9px; font-family: 'Hiragino Sans'; fill: #e76f51" transform="translate(158.317212 286.692063)">転位は析出物で湾曲・切断抵抗を受ける</text>
    <text style="font-weight: 700; font-size: 9px; font-family: 'Hiragino Sans'; fill: #e76f51" transform="translate(165.818853 297.127563)">→ 移動しにくく、高温強度が上がる</text>
   </g>
  </g>
  <g id="axes_2">
   <g id="patch_47">
    <path d="M 571.048063 245.428897
L 738.081429 245.428897
L 728.978793 95.235407
L 571.048063 95.235407
z
" clip-path="url(#pc4c96f00db)" style="fill: #f7f4ed; stroke: #17324d; stroke-width: 1.3; stroke-linejoin: miter"/>
   </g>
   <g id="patch_48">
    <path d="M 738.081429 245.428897
L 912.396904 245.428897
L 912.396904 95.235407
L 728.978793 95.235407
z
" clip-path="url(#pc4c96f00db)" style="fill: #eef5f8; stroke: #17324d; stroke-width: 1.3; stroke-linejoin: miter"/>
   </g>
   <g id="patch_49">
    <path d="M 576.054513 399.718574
L 906.025059 399.718574
Q 911.48664 399.718574 911.48664 394.256992
L 911.48664 268.640619
Q 911.48664 263.179037 906.025059 263.179037
L 576.054513 263.179037
Q 570.592931 263.179037 570.592931 268.640619
L 570.592931 394.256992
Q 570.592931 399.718574 576.054513 399.718574
z
" clip-path="url(#pc4c96f00db)" style="fill: #ffffff; stroke: #cbd5df; stroke-width: 1.3; stroke-linejoin: miter"/>
   </g>
   <g id="text_15">
    <text style="font-weight: 700; font-size: 12px; font-family: 'Hiragino Sans'; text-anchor: middle; fill: #17324d" x="741.722483" y="82.946849" transform="rotate(-0 741.722483 82.946849)">粒界：B偏析で粒界破壊を抑える</text>
   </g>
   <g id="text_16">
    <text style="font-weight: 700; font-size: 10px; font-family: 'Hiragino Sans'; text-anchor: middle; fill: #6c5ce7" x="641.59349" y="166.691098" transform="rotate(-0 641.59349 166.691098)">転位</text>
   </g>
   <g id="text_17">
    <text style="font-weight: 700; font-size: 10px; font-family: 'Hiragino Sans'; text-anchor: middle; fill: #6c5ce7" x="801.799879" y="187.62716" transform="rotate(-0 801.799879 187.62716)">すべり伝達</text>
   </g>
   <g id="line2d_3">
    <path d="M 738.081429 244.063502
L 736.716034 227.223626
L 734.895507 210.38375
L 733.530111 193.088742
L 732.164716 175.793734
L 730.799321 158.498726
L 729.889057 141.203718
L 728.978793 123.90871
L 728.523662 106.613702
L 728.978793 96.145671
" clip-path="url(#pc4c96f00db)" style="fill: none; stroke: #17324d; stroke-width: 2.3; stroke-linecap: square"/>
   </g>
   <g id="text_18">
    <text style="font-weight: 700; font-size: 11px; font-family: 'Hiragino Sans'; text-anchor: start; fill: #17324d" x="586.977675" y="288.731257" transform="rotate(-0 586.977675 288.731257)">B添加で提案されている機構</text>
   </g>
   <g id="text_19">
    <text style="font-size: 9.5px; font-family: 'Hiragino Sans'; fill: #17324d" transform="translate(586.977675 305.548091)">① 粒界凝集力を高める</text>
    <text style="font-size: 9.5px; font-family: 'Hiragino Sans'; fill: #17324d" transform="translate(586.977675 318.847646)">② 粒界からの転位放出・すべり伝達を助ける</text>
    <text style="font-size: 9.5px; font-family: 'Hiragino Sans'; fill: #17324d" transform="translate(586.977675 332.1472)">③ O・Hが関わる環境脆化を抑える可能性</text>
   </g>
   <g id="text_20">
    <text style="font-weight: 700; font-size: 8.7px; font-family: 'Hiragino Sans'; text-anchor: start; fill: #e76f51" x="586.977675" y="383.335513" transform="rotate(-0 586.977675 383.335513)">※ 単一機構に限定しない。組成・粒界性格・試験環境に依存。</text>
   </g>
   <g id="patch_50">
    <path d="M 730.799321 232.00251
C 732.066695 232.00251 733.282332 231.498976 734.178502 230.602807
C 735.074671 229.706638 735.578204 228.491001 735.578204 227.223626
C 735.578204 225.956251 735.074671 224.740614 734.178502 223.844445
C 733.282332 222.948275 732.066695 222.444742 730.799321 222.444742
C 729.531946 222.444742 728.316309 222.948275 727.420139 223.844445
C 726.52397 224.740614 726.020437 225.956251 726.020437 227.223626
C 726.020437 228.491001 726.52397 229.706638 727.420139 230.602807
C 728.316309 231.498976 729.531946 232.00251 730.799321 232.00251
z
" clip-path="url(#pc4c96f00db)" style="fill: #e76f51; stroke: #ffffff; stroke-width: 0.6; stroke-linejoin: miter"/>
   </g>
   <g id="patch_51">
    <path d="M 740.81222 215.162633
C 742.079595 215.162633 743.295232 214.6591 744.191401 213.762931
C 745.08757 212.866761 745.591104 211.651124 745.591104 210.38375
C 745.591104 209.116375 745.08757 207.900738 744.191401 207.004569
C 743.295232 206.108399 742.079595 205.604866 740.81222 205.604866
C 739.544845 205.604866 738.329208 206.108399 737.433039 207.004569
C 736.536869 207.900738 736.033336 209.116375 736.033336 210.38375
C 736.033336 211.651124 736.536869 212.866761 737.433039 213.762931
C 738.329208 214.6591 739.544845 215.162633 740.81222 215.162633
z
" clip-path="url(#pc4c96f00db)" style="fill: #e76f51; stroke: #ffffff; stroke-width: 0.6; stroke-linejoin: miter"/>
   </g>
   <g id="patch_52">
    <path d="M 727.613398 197.867625
C 728.880773 197.867625 730.09641 197.364092 730.992579 196.467923
C 731.888748 195.571754 732.392282 194.356117 732.392282 193.088742
C 732.392282 191.821367 731.888748 190.60573 730.992579 189.709561
C 730.09641 188.813391 728.880773 188.309858 727.613398 188.309858
C 726.346023 188.309858 725.130386 188.813391 724.234217 189.709561
C 723.338048 190.60573 722.834514 191.821367 722.834514 193.088742
C 722.834514 194.356117 723.338048 195.571754 724.234217 196.467923
C 725.130386 197.364092 726.346023 197.867625 727.613398 197.867625
z
" clip-path="url(#pc4c96f00db)" style="fill: #e76f51; stroke: #ffffff; stroke-width: 0.6; stroke-linejoin: miter"/>
   </g>
   <g id="patch_53">
    <path d="M 738.081429 180.572618
C 739.348804 180.572618 740.564441 180.069084 741.46061 179.172915
C 742.35678 178.276746 742.860313 177.061109 742.860313 175.793734
C 742.860313 174.526359 742.35678 173.310722 741.46061 172.414553
C 740.564441 171.518383 739.348804 171.01485 738.081429 171.01485
C 736.814054 171.01485 735.598417 171.518383 734.702248 172.414553
C 733.806079 173.310722 733.302545 174.526359 733.302545 175.793734
C 733.302545 177.061109 733.806079 178.276746 734.702248 179.172915
C 735.598417 180.069084 736.814054 180.572618 738.081429 180.572618
z
" clip-path="url(#pc4c96f00db)" style="fill: #e76f51; stroke: #ffffff; stroke-width: 0.6; stroke-linejoin: miter"/>
   </g>
   <g id="patch_54">
    <path d="M 724.882607 163.27761
C 726.149982 163.27761 727.365619 162.774076 728.261788 161.877907
C 729.157958 160.981738 729.661491 159.766101 729.661491 158.498726
C 729.661491 157.231351 729.157958 156.015714 728.261788 155.119545
C 727.365619 154.223375 726.149982 153.719842 724.882607 153.719842
C 723.615232 153.719842 722.399595 154.223375 721.503426 155.119545
C 720.607257 156.015714 720.103724 157.231351 720.103724 158.498726
C 720.103724 159.766101 720.607257 160.981738 721.503426 161.877907
C 722.399595 162.774076 723.615232 163.27761 724.882607 163.27761
z
" clip-path="url(#pc4c96f00db)" style="fill: #e76f51; stroke: #ffffff; stroke-width: 0.6; stroke-linejoin: miter"/>
   </g>
   <g id="patch_55">
    <path d="M 735.80577 145.982602
C 737.073145 145.982602 738.288782 145.479068 739.184951 144.582899
C 740.081121 143.68673 740.584654 142.471093 740.584654 141.203718
C 740.584654 139.936343 740.081121 138.720706 739.184951 137.824537
C 738.288782 136.928367 737.073145 136.424834 735.80577 136.424834
C 734.538395 136.424834 733.322758 136.928367 732.426589 137.824537
C 731.53042 138.720706 731.026886 139.936343 731.026886 141.203718
C 731.026886 142.471093 731.53042 143.68673 732.426589 144.582899
C 733.322758 145.479068 734.538395 145.982602 735.80577 145.982602
z
" clip-path="url(#pc4c96f00db)" style="fill: #e76f51; stroke: #ffffff; stroke-width: 0.6; stroke-linejoin: miter"/>
   </g>
   <g id="patch_56">
    <path d="M 723.06208 128.687594
C 724.329455 128.687594 725.545092 128.18406 726.441261 127.287891
C 727.337431 126.391722 727.840964 125.176085 727.840964 123.90871
C 727.840964 122.641335 727.337431 121.425698 726.441261 120.529529
C 725.545092 119.63336 724.329455 119.129826 723.06208 119.129826
C 721.794705 119.129826 720.579068 119.63336 719.682899 120.529529
C 718.78673 121.425698 718.283196 122.641335 718.283196 123.90871
C 718.283196 125.176085 718.78673 126.391722 719.682899 127.287891
C 720.579068 128.18406 721.794705 128.687594 723.06208 128.687594
z
" clip-path="url(#pc4c96f00db)" style="fill: #e76f51; stroke: #ffffff; stroke-width: 0.6; stroke-linejoin: miter"/>
   </g>
   <g id="patch_57">
    <path d="M 734.440375 111.392586
C 735.70775 111.392586 736.923387 110.889052 737.819556 109.992883
C 738.715725 109.096714 739.219259 107.881077 739.219259 106.613702
C 739.219259 105.346327 738.715725 104.13069 737.819556 103.234521
C 736.923387 102.338352 735.70775 101.834818 734.440375 101.834818
C 733.173 101.834818 731.957363 102.338352 731.061194 103.234521
C 730.165024 104.13069 729.661491 105.346327 729.661491 106.613702
C 729.661491 107.881077 730.165024 109.096714 731.061194 109.992883
C 731.957363 110.889052 733.173 111.392586 734.440375 111.392586
z
" clip-path="url(#pc4c96f00db)" style="fill: #e76f51; stroke: #ffffff; stroke-width: 0.6; stroke-linejoin: miter"/>
   </g>
   <g id="patch_58">
    <path d="M 793.974233 122.269911
Q 764.362789 141.656099 736.154445 160.123698
" style="fill: none; stroke: #e76f51; stroke-width: 1.5; stroke-linecap: round"/>
    <path d="M 740.596519 159.606028
L 736.154445 160.123698
L 738.405554 156.259437
" style="fill: none; stroke: #e76f51; stroke-width: 1.5; stroke-linecap: round"/>
   </g>
   <g id="text_21">
    <text style="font-weight: 700; font-size: 10px; font-family: 'Hiragino Sans'; text-anchor: middle; fill: #e76f51" x="806.351197" y="117.081733" transform="rotate(-0 806.351197 117.081733)">Bの粒界偏析</text>
   </g>
   <g id="patch_59">
    <path d="M 604.905421 178.524525
Q 656.839527 178.524525 705.866745 178.524525
" clip-path="url(#pc4c96f00db)" style="fill: none; stroke: #6c5ce7; stroke-width: 2.6; stroke-linecap: round"/>
    <path d="M 699.866745 175.524525
L 705.866745 178.524525
L 699.866745 181.524525
z
" clip-path="url(#pc4c96f00db)" style="fill: #6c5ce7; stroke: #6c5ce7; stroke-width: 2.6; stroke-linecap: round"/>
   </g>
   <g id="patch_60">
    <path d="M 755.099077 199.460587
Q 802.482122 199.460587 846.958278 199.460587
" clip-path="url(#pc4c96f00db)" style="fill: none; stroke: #6c5ce7; stroke-width: 2.6; stroke-linecap: round"/>
    <path d="M 840.958278 196.460587
L 846.958278 199.460587
L 840.958278 202.460587
z
" clip-path="url(#pc4c96f00db)" style="fill: #6c5ce7; stroke: #6c5ce7; stroke-width: 2.6; stroke-linecap: round"/>
   </g>
  </g>
  <g id="text_22">
   <text style="font-weight: 700; font-size: 16px; font-family: 'Hiragino Sans'; text-anchor: middle; fill: #17324d" x="457.404489" y="20.2725" transform="rotate(-0 457.404489 20.2725)">Ni基超合金：γ/γ′整合組織と粒界設計</text>
  </g>
  <g id="text_23">
   <text style="font-size: 9px; font-family: 'Hiragino Sans'; text-anchor: middle; fill: #64748b" x="457.404489" y="436.6368" transform="rotate(-0 457.404489 436.6368)">模式図・縮尺なし。γ′の形状・寸法・粒界機構は合金組成、温度、応力、環境で変化する。</text>
  </g>
 </g>
 <defs>
  <clipPath id="p12191665e6">
   <rect x="7.2" y="67.9275" width="498.369308" height="343.6245"/>
  </clipPath>
  <clipPath id="pc4c96f00db">
   <rect x="555.11845" y="67.9275" width="370.932407" height="343.6245"/>
  </clipPath>
 </defs>
</svg>
