<?xml version="1.0" encoding="utf-8" standalone="no"?>
<!DOCTYPE svg PUBLIC "-//W3C//DTD SVG 1.1//EN"
  "http://www.w3.org/Graphics/SVG/1.1/DTD/svg11.dtd">
<svg xmlns:xlink="http://www.w3.org/1999/xlink" width="732.766432pt" height="406.7476pt" viewBox="0 0 732.766432 406.7476" xmlns="http://www.w3.org/2000/svg" version="1.1">
 <metadata>
  <rdf:RDF xmlns:dc="http://purl.org/dc/elements/1.1/" xmlns:cc="http://creativecommons.org/ns#" xmlns:rdf="http://www.w3.org/1999/02/22-rdf-syntax-ns#">
   <cc:Work>
    <dc:type rdf:resource="http://purl.org/dc/dcmitype/StillImage"/>
    <dc:format>image/svg+xml</dc:format>
    <dc:creator>
     <cc:Agent>
      <dc:title>Matplotlib v3.10.9, https://matplotlib.org/</dc:title>
     </cc:Agent>
    </dc:creator>
   </cc:Work>
  </rdf:RDF>
 </metadata>
 <defs>
  <style type="text/css">*{stroke-linejoin: round; stroke-linecap: butt}</style>
 </defs>
 <g id="figure_1">
  <g id="patch_1">
   <path d="M 0 406.7476
L 732.766432 406.7476
L 732.766432 0
L 0 0
z
" style="fill: #ffffff"/>
  </g>
  <g id="axes_1">
   <g id="patch_2">
    <path d="M 18.870657 338.380028
L 287.295775 338.380028
L 287.295775 110.802211
L 18.870657 110.802211
z
" clip-path="url(#p8bb9d43456)" style="fill: #f7f4ed"/>
   </g>
   <g id="patch_3">
    <path d="M 45.129636 211.753397
C 47.141448 211.753397 49.071131 210.954096 50.493697 209.53153
C 51.916262 208.108965 52.715563 206.179281 52.715563 204.16747
C 52.715563 202.155658 51.916262 200.225974 50.493697 198.803409
C 49.071131 197.380843 47.141448 196.581542 45.129636 196.581542
C 43.117825 196.581542 41.188141 197.380843 39.765576 198.803409
C 38.34301 200.225974 37.543709 202.155658 37.543709 204.16747
C 37.543709 206.179281 38.34301 208.108965 39.765576 209.53153
C 41.188141 210.954096 43.117825 211.753397 45.129636 211.753397
L 45.129636 211.753397
z
" clip-path="url(#p8bb9d43456)" style="fill: none; stroke-dasharray: 3.7,1.6; stroke-dashoffset: 0; stroke: #cbd5df; stroke-linejoin: miter"/>
   </g>
   <g id="patch_4">
    <path d="M 79.655331 211.753397
C 81.667142 211.753397 83.596826 210.954096 85.019391 209.53153
C 86.441957 208.108965 87.241258 206.179281 87.241258 204.16747
C 87.241258 202.155658 86.441957 200.225974 85.019391 198.803409
C 83.596826 197.380843 81.667142 196.581542 79.655331 196.581542
C 77.643519 196.581542 75.713835 197.380843 74.29127 198.803409
C 72.868704 200.225974 72.069403 202.155658 72.069403 204.16747
C 72.069403 206.179281 72.868704 208.108965 74.29127 209.53153
C 75.713835 210.954096 77.643519 211.753397 79.655331 211.753397
L 79.655331 211.753397
z
" clip-path="url(#p8bb9d43456)" style="fill: none; stroke-dasharray: 3.7,1.6; stroke-dashoffset: 0; stroke: #cbd5df; stroke-linejoin: miter"/>
   </g>
   <g id="patch_5">
    <path d="M 114.181025 211.753397
C 116.192836 211.753397 118.12252 210.954096 119.545086 209.53153
C 120.967651 208.108965 121.766952 206.179281 121.766952 204.16747
C 121.766952 202.155658 120.967651 200.225974 119.545086 198.803409
C 118.12252 197.380843 116.192836 196.581542 114.181025 196.581542
C 112.169214 196.581542 110.23953 197.380843 108.816964 198.803409
C 107.394399 200.225974 106.595098 202.155658 106.595098 204.16747
C 106.595098 206.179281 107.394399 208.108965 108.816964 209.53153
C 110.23953 210.954096 112.169214 211.753397 114.181025 211.753397
L 114.181025 211.753397
z
" clip-path="url(#p8bb9d43456)" style="fill: none; stroke-dasharray: 3.7,1.6; stroke-dashoffset: 0; stroke: #cbd5df; stroke-linejoin: miter"/>
   </g>
   <g id="patch_6">
    <path d="M 148.706719 211.753397
C 150.718531 211.753397 152.648215 210.954096 154.07078 209.53153
C 155.493346 208.108965 156.292647 206.179281 156.292647 204.16747
C 156.292647 202.155658 155.493346 200.225974 154.07078 198.803409
C 152.648215 197.380843 150.718531 196.581542 148.706719 196.581542
C 146.694908 196.581542 144.765224 197.380843 143.342659 198.803409
C 141.920093 200.225974 141.120792 202.155658 141.120792 204.16747
C 141.120792 206.179281 141.920093 208.108965 143.342659 209.53153
C 144.765224 210.954096 146.694908 211.753397 148.706719 211.753397
L 148.706719 211.753397
z
" clip-path="url(#p8bb9d43456)" style="fill: none; stroke-dasharray: 3.7,1.6; stroke-dashoffset: 0; stroke: #cbd5df; stroke-linejoin: miter"/>
   </g>
   <g id="patch_7">
    <path d="M 183.232414 211.753397
C 185.244225 211.753397 187.173909 210.954096 188.596474 209.53153
C 190.01904 208.108965 190.818341 206.179281 190.818341 204.16747
C 190.818341 202.155658 190.01904 200.225974 188.596474 198.803409
C 187.173909 197.380843 185.244225 196.581542 183.232414 196.581542
C 181.220602 196.581542 179.290919 197.380843 177.868353 198.803409
C 176.445788 200.225974 175.646487 202.155658 175.646487 204.16747
C 175.646487 206.179281 176.445788 208.108965 177.868353 209.53153
C 179.290919 210.954096 181.220602 211.753397 183.232414 211.753397
L 183.232414 211.753397
z
" clip-path="url(#p8bb9d43456)" style="fill: none; stroke-dasharray: 3.7,1.6; stroke-dashoffset: 0; stroke: #cbd5df; stroke-linejoin: miter"/>
   </g>
   <g id="patch_8">
    <path d="M 217.758108 211.753397
C 219.76992 211.753397 221.699603 210.954096 223.122169 209.53153
C 224.544734 208.108965 225.344036 206.179281 225.344036 204.16747
C 225.344036 202.155658 224.544734 200.225974 223.122169 198.803409
C 221.699603 197.380843 219.76992 196.581542 217.758108 196.581542
C 215.746297 196.581542 213.816613 197.380843 212.394048 198.803409
C 210.971482 200.225974 210.172181 202.155658 210.172181 204.16747
C 210.172181 206.179281 210.971482 208.108965 212.394048 209.53153
C 213.816613 210.954096 215.746297 211.753397 217.758108 211.753397
L 217.758108 211.753397
z
" clip-path="url(#p8bb9d43456)" style="fill: none; stroke-dasharray: 3.7,1.6; stroke-dashoffset: 0; stroke: #cbd5df; stroke-linejoin: miter"/>
   </g>
   <g id="patch_9">
    <path d="M 252.283803 211.753397
C 254.295614 211.753397 256.225298 210.954096 257.647863 209.53153
C 259.070429 208.108965 259.86973 206.179281 259.86973 204.16747
C 259.86973 202.155658 259.070429 200.225974 257.647863 198.803409
C 256.225298 197.380843 254.295614 196.581542 252.283803 196.581542
C 250.271991 196.581542 248.342308 197.380843 246.919742 198.803409
C 245.497177 200.225974 244.697876 202.155658 244.697876 204.16747
C 244.697876 206.179281 245.497177 208.108965 246.919742 209.53153
C 248.342308 210.954096 250.271991 211.753397 252.283803 211.753397
L 252.283803 211.753397
z
" clip-path="url(#p8bb9d43456)" style="fill: none; stroke-dasharray: 3.7,1.6; stroke-dashoffset: 0; stroke: #cbd5df; stroke-linejoin: miter"/>
   </g>
   <g id="patch_10">
    <path d="M 45.129636 176.741425
C 47.141448 176.741425 49.071131 175.942124 50.493697 174.519558
C 51.916262 173.096993 52.715563 171.167309 52.715563 169.155498
C 52.715563 167.143686 51.916262 165.214003 50.493697 163.791437
C 49.071131 162.368872 47.141448 161.56957 45.129636 161.56957
C 43.117825 161.56957 41.188141 162.368872 39.765576 163.791437
C 38.34301 165.214003 37.543709 167.143686 37.543709 169.155498
C 37.543709 171.167309 38.34301 173.096993 39.765576 174.519558
C 41.188141 175.942124 43.117825 176.741425 45.129636 176.741425
L 45.129636 176.741425
z
" clip-path="url(#p8bb9d43456)" style="fill: none; stroke-dasharray: 3.7,1.6; stroke-dashoffset: 0; stroke: #cbd5df; stroke-linejoin: miter"/>
   </g>
   <g id="patch_11">
    <path d="M 79.655331 176.741425
C 81.667142 176.741425 83.596826 175.942124 85.019391 174.519558
C 86.441957 173.096993 87.241258 171.167309 87.241258 169.155498
C 87.241258 167.143686 86.441957 165.214003 85.019391 163.791437
C 83.596826 162.368872 81.667142 161.56957 79.655331 161.56957
C 77.643519 161.56957 75.713835 162.368872 74.29127 163.791437
C 72.868704 165.214003 72.069403 167.143686 72.069403 169.155498
C 72.069403 171.167309 72.868704 173.096993 74.29127 174.519558
C 75.713835 175.942124 77.643519 176.741425 79.655331 176.741425
L 79.655331 176.741425
z
" clip-path="url(#p8bb9d43456)" style="fill: none; stroke-dasharray: 3.7,1.6; stroke-dashoffset: 0; stroke: #cbd5df; stroke-linejoin: miter"/>
   </g>
   <g id="patch_12">
    <path d="M 114.181025 176.741425
C 116.192836 176.741425 118.12252 175.942124 119.545086 174.519558
C 120.967651 173.096993 121.766952 171.167309 121.766952 169.155498
C 121.766952 167.143686 120.967651 165.214003 119.545086 163.791437
C 118.12252 162.368872 116.192836 161.56957 114.181025 161.56957
C 112.169214 161.56957 110.23953 162.368872 108.816964 163.791437
C 107.394399 165.214003 106.595098 167.143686 106.595098 169.155498
C 106.595098 171.167309 107.394399 173.096993 108.816964 174.519558
C 110.23953 175.942124 112.169214 176.741425 114.181025 176.741425
L 114.181025 176.741425
z
" clip-path="url(#p8bb9d43456)" style="fill: none; stroke-dasharray: 3.7,1.6; stroke-dashoffset: 0; stroke: #cbd5df; stroke-linejoin: miter"/>
   </g>
   <g id="patch_13">
    <path d="M 148.706719 176.741425
C 150.718531 176.741425 152.648215 175.942124 154.07078 174.519558
C 155.493346 173.096993 156.292647 171.167309 156.292647 169.155498
C 156.292647 167.143686 155.493346 165.214003 154.07078 163.791437
C 152.648215 162.368872 150.718531 161.56957 148.706719 161.56957
C 146.694908 161.56957 144.765224 162.368872 143.342659 163.791437
C 141.920093 165.214003 141.120792 167.143686 141.120792 169.155498
C 141.120792 171.167309 141.920093 173.096993 143.342659 174.519558
C 144.765224 175.942124 146.694908 176.741425 148.706719 176.741425
L 148.706719 176.741425
z
" clip-path="url(#p8bb9d43456)" style="fill: none; stroke-dasharray: 3.7,1.6; stroke-dashoffset: 0; stroke: #cbd5df; stroke-linejoin: miter"/>
   </g>
   <g id="patch_14">
    <path d="M 183.232414 176.741425
C 185.244225 176.741425 187.173909 175.942124 188.596474 174.519558
C 190.01904 173.096993 190.818341 171.167309 190.818341 169.155498
C 190.818341 167.143686 190.01904 165.214003 188.596474 163.791437
C 187.173909 162.368872 185.244225 161.56957 183.232414 161.56957
C 181.220602 161.56957 179.290919 162.368872 177.868353 163.791437
C 176.445788 165.214003 175.646487 167.143686 175.646487 169.155498
C 175.646487 171.167309 176.445788 173.096993 177.868353 174.519558
C 179.290919 175.942124 181.220602 176.741425 183.232414 176.741425
L 183.232414 176.741425
z
" clip-path="url(#p8bb9d43456)" style="fill: none; stroke-dasharray: 3.7,1.6; stroke-dashoffset: 0; stroke: #cbd5df; stroke-linejoin: miter"/>
   </g>
   <g id="patch_15">
    <path d="M 217.758108 176.741425
C 219.76992 176.741425 221.699603 175.942124 223.122169 174.519558
C 224.544734 173.096993 225.344036 171.167309 225.344036 169.155498
C 225.344036 167.143686 224.544734 165.214003 223.122169 163.791437
C 221.699603 162.368872 219.76992 161.56957 217.758108 161.56957
C 215.746297 161.56957 213.816613 162.368872 212.394048 163.791437
C 210.971482 165.214003 210.172181 167.143686 210.172181 169.155498
C 210.172181 171.167309 210.971482 173.096993 212.394048 174.519558
C 213.816613 175.942124 215.746297 176.741425 217.758108 176.741425
L 217.758108 176.741425
z
" clip-path="url(#p8bb9d43456)" style="fill: none; stroke-dasharray: 3.7,1.6; stroke-dashoffset: 0; stroke: #cbd5df; stroke-linejoin: miter"/>
   </g>
   <g id="patch_16">
    <path d="M 252.283803 176.741425
C 254.295614 176.741425 256.225298 175.942124 257.647863 174.519558
C 259.070429 173.096993 259.86973 171.167309 259.86973 169.155498
C 259.86973 167.143686 259.070429 165.214003 257.647863 163.791437
C 256.225298 162.368872 254.295614 161.56957 252.283803 161.56957
C 250.271991 161.56957 248.342308 162.368872 246.919742 163.791437
C 245.497177 165.214003 244.697876 167.143686 244.697876 169.155498
C 244.697876 171.167309 245.497177 173.096993 246.919742 174.519558
C 248.342308 175.942124 250.271991 176.741425 252.283803 176.741425
L 252.283803 176.741425
z
" clip-path="url(#p8bb9d43456)" style="fill: none; stroke-dasharray: 3.7,1.6; stroke-dashoffset: 0; stroke: #cbd5df; stroke-linejoin: miter"/>
   </g>
   <g id="patch_17">
    <path d="M 45.129636 141.729453
C 47.141448 141.729453 49.071131 140.930152 50.493697 139.507586
C 51.916262 138.085021 52.715563 136.155337 52.715563 134.143526
C 52.715563 132.131714 51.916262 130.202031 50.493697 128.779465
C 49.071131 127.3569 47.141448 126.557599 45.129636 126.557599
C 43.117825 126.557599 41.188141 127.3569 39.765576 128.779465
C 38.34301 130.202031 37.543709 132.131714 37.543709 134.143526
C 37.543709 136.155337 38.34301 138.085021 39.765576 139.507586
C 41.188141 140.930152 43.117825 141.729453 45.129636 141.729453
L 45.129636 141.729453
z
" clip-path="url(#p8bb9d43456)" style="fill: none; stroke-dasharray: 3.7,1.6; stroke-dashoffset: 0; stroke: #cbd5df; stroke-linejoin: miter"/>
   </g>
   <g id="patch_18">
    <path d="M 79.655331 141.729453
C 81.667142 141.729453 83.596826 140.930152 85.019391 139.507586
C 86.441957 138.085021 87.241258 136.155337 87.241258 134.143526
C 87.241258 132.131714 86.441957 130.202031 85.019391 128.779465
C 83.596826 127.3569 81.667142 126.557599 79.655331 126.557599
C 77.643519 126.557599 75.713835 127.3569 74.29127 128.779465
C 72.868704 130.202031 72.069403 132.131714 72.069403 134.143526
C 72.069403 136.155337 72.868704 138.085021 74.29127 139.507586
C 75.713835 140.930152 77.643519 141.729453 79.655331 141.729453
L 79.655331 141.729453
z
" clip-path="url(#p8bb9d43456)" style="fill: none; stroke-dasharray: 3.7,1.6; stroke-dashoffset: 0; stroke: #cbd5df; stroke-linejoin: miter"/>
   </g>
   <g id="patch_19">
    <path d="M 114.181025 141.729453
C 116.192836 141.729453 118.12252 140.930152 119.545086 139.507586
C 120.967651 138.085021 121.766952 136.155337 121.766952 134.143526
C 121.766952 132.131714 120.967651 130.202031 119.545086 128.779465
C 118.12252 127.3569 116.192836 126.557599 114.181025 126.557599
C 112.169214 126.557599 110.23953 127.3569 108.816964 128.779465
C 107.394399 130.202031 106.595098 132.131714 106.595098 134.143526
C 106.595098 136.155337 107.394399 138.085021 108.816964 139.507586
C 110.23953 140.930152 112.169214 141.729453 114.181025 141.729453
L 114.181025 141.729453
z
" clip-path="url(#p8bb9d43456)" style="fill: none; stroke-dasharray: 3.7,1.6; stroke-dashoffset: 0; stroke: #cbd5df; stroke-linejoin: miter"/>
   </g>
   <g id="patch_20">
    <path d="M 148.706719 141.729453
C 150.718531 141.729453 152.648215 140.930152 154.07078 139.507586
C 155.493346 138.085021 156.292647 136.155337 156.292647 134.143526
C 156.292647 132.131714 155.493346 130.202031 154.07078 128.779465
C 152.648215 127.3569 150.718531 126.557599 148.706719 126.557599
C 146.694908 126.557599 144.765224 127.3569 143.342659 128.779465
C 141.920093 130.202031 141.120792 132.131714 141.120792 134.143526
C 141.120792 136.155337 141.920093 138.085021 143.342659 139.507586
C 144.765224 140.930152 146.694908 141.729453 148.706719 141.729453
L 148.706719 141.729453
z
" clip-path="url(#p8bb9d43456)" style="fill: none; stroke-dasharray: 3.7,1.6; stroke-dashoffset: 0; stroke: #cbd5df; stroke-linejoin: miter"/>
   </g>
   <g id="patch_21">
    <path d="M 183.232414 141.729453
C 185.244225 141.729453 187.173909 140.930152 188.596474 139.507586
C 190.01904 138.085021 190.818341 136.155337 190.818341 134.143526
C 190.818341 132.131714 190.01904 130.202031 188.596474 128.779465
C 187.173909 127.3569 185.244225 126.557599 183.232414 126.557599
C 181.220602 126.557599 179.290919 127.3569 177.868353 128.779465
C 176.445788 130.202031 175.646487 132.131714 175.646487 134.143526
C 175.646487 136.155337 176.445788 138.085021 177.868353 139.507586
C 179.290919 140.930152 181.220602 141.729453 183.232414 141.729453
L 183.232414 141.729453
z
" clip-path="url(#p8bb9d43456)" style="fill: none; stroke-dasharray: 3.7,1.6; stroke-dashoffset: 0; stroke: #cbd5df; stroke-linejoin: miter"/>
   </g>
   <g id="patch_22">
    <path d="M 217.758108 141.729453
C 219.76992 141.729453 221.699603 140.930152 223.122169 139.507586
C 224.544734 138.085021 225.344036 136.155337 225.344036 134.143526
C 225.344036 132.131714 224.544734 130.202031 223.122169 128.779465
C 221.699603 127.3569 219.76992 126.557599 217.758108 126.557599
C 215.746297 126.557599 213.816613 127.3569 212.394048 128.779465
C 210.971482 130.202031 210.172181 132.131714 210.172181 134.143526
C 210.172181 136.155337 210.971482 138.085021 212.394048 139.507586
C 213.816613 140.930152 215.746297 141.729453 217.758108 141.729453
L 217.758108 141.729453
z
" clip-path="url(#p8bb9d43456)" style="fill: none; stroke-dasharray: 3.7,1.6; stroke-dashoffset: 0; stroke: #cbd5df; stroke-linejoin: miter"/>
   </g>
   <g id="patch_23">
    <path d="M 252.283803 141.729453
C 254.295614 141.729453 256.225298 140.930152 257.647863 139.507586
C 259.070429 138.085021 259.86973 136.155337 259.86973 134.143526
C 259.86973 132.131714 259.070429 130.202031 257.647863 128.779465
C 256.225298 127.3569 254.295614 126.557599 252.283803 126.557599
C 250.271991 126.557599 248.342308 127.3569 246.919742 128.779465
C 245.497177 130.202031 244.697876 132.131714 244.697876 134.143526
C 244.697876 136.155337 245.497177 138.085021 246.919742 139.507586
C 248.342308 140.930152 250.271991 141.729453 252.283803 141.729453
L 252.283803 141.729453
z
" clip-path="url(#p8bb9d43456)" style="fill: none; stroke-dasharray: 3.7,1.6; stroke-dashoffset: 0; stroke: #cbd5df; stroke-linejoin: miter"/>
   </g>
   <g id="patch_24">
    <path d="M 99.644317 107.884547
Q 154.539097 107.884547 206.638792 107.884547
" clip-path="url(#p8bb9d43456)" style="fill: none; stroke: #e76f51; stroke-width: 2.5; stroke-linecap: round"/>
    <path d="M 199.838792 104.484547
L 206.638792 107.884547
L 199.838792 111.284547
z
" clip-path="url(#p8bb9d43456)" style="fill: #e76f51; stroke: #e76f51; stroke-width: 2.5; stroke-linecap: round"/>
   </g>
   <g id="line2d_1">
    <path d="M 27.62365 224.59112
L 281.460446 224.59112
" clip-path="url(#p8bb9d43456)" style="fill: none; stroke-dasharray: 5.18,2.24; stroke-dashoffset: 0; stroke: #64748b; stroke-width: 1.4"/>
   </g>
   <g id="line2d_2">
    <path d="M 45.129636 239.179441
L 67.012119 204.16747
" clip-path="url(#p8bb9d43456)" style="fill: none; stroke: #e76f51; stroke-opacity: 0.72; stroke-linecap: square"/>
   </g>
   <g id="line2d_3">
    <path d="M 79.655331 239.179441
L 101.537813 204.16747
" clip-path="url(#p8bb9d43456)" style="fill: none; stroke: #e76f51; stroke-opacity: 0.72; stroke-linecap: square"/>
   </g>
   <g id="line2d_4">
    <path d="M 114.181025 239.179441
L 136.063507 204.16747
" clip-path="url(#p8bb9d43456)" style="fill: none; stroke: #e76f51; stroke-opacity: 0.72; stroke-linecap: square"/>
   </g>
   <g id="line2d_5">
    <path d="M 148.706719 239.179441
L 170.589202 204.16747
" clip-path="url(#p8bb9d43456)" style="fill: none; stroke: #e76f51; stroke-opacity: 0.72; stroke-linecap: square"/>
   </g>
   <g id="line2d_6">
    <path d="M 183.232414 239.179441
L 205.114896 204.16747
" clip-path="url(#p8bb9d43456)" style="fill: none; stroke: #e76f51; stroke-opacity: 0.72; stroke-linecap: square"/>
   </g>
   <g id="line2d_7">
    <path d="M 217.758108 239.179441
L 239.640591 204.16747
" clip-path="url(#p8bb9d43456)" style="fill: none; stroke: #e76f51; stroke-opacity: 0.72; stroke-linecap: square"/>
   </g>
   <g id="line2d_8">
    <path d="M 252.283803 239.179441
L 274.166285 204.16747
" clip-path="url(#p8bb9d43456)" style="fill: none; stroke: #e76f51; stroke-opacity: 0.72; stroke-linecap: square"/>
   </g>
   <g id="text_1">
    <text style="font-weight: 700; font-size: 10px; font-family: 'Hiragino Sans'; text-anchor: middle; fill: #e76f51" x="153.083216" y="96.21389" transform="rotate(-0 153.083216 96.21389)">上半分を一斉にずらす</text>
   </g>
   <g id="text_2">
    <text style="font-size: 9px; font-family: 'Hiragino Sans'; text-anchor: middle; fill: #64748b" x="156.00088" y="217.296959" transform="rotate(-0 156.00088 217.296959)">すべり面</text>
   </g>
   <g id="text_3">
    <text style="font-weight: 700; font-size: 10px; font-family: 'Hiragino Sans'; fill: #17324d" transform="translate(68.083216 359.42983)">一面の多数の結合を同時に組み替える</text>
    <text style="font-weight: 700; font-size: 10px; font-family: 'Hiragino Sans'; fill: #17324d" transform="translate(81.418372 371.02483)">→ 大きな理想せん断応力が必要</text>
   </g>
   <g id="text_4">
    <text style="font-weight: 700; font-size: 13px; font-family: 'Hiragino Sans'; text-anchor: middle; fill: #17324d" x="153.083216" y="75.625568" transform="rotate(-0 153.083216 75.625568)">完全結晶：原子面の一斉せん断</text>
   </g>
   <g id="patch_25">
    <path d="M 45.129636 310.953984
C 47.141448 310.953984 49.071131 310.154682 50.493697 308.732117
C 51.916262 307.309551 52.715563 305.379868 52.715563 303.368056
C 52.715563 301.356245 51.916262 299.426561 50.493697 298.003996
C 49.071131 296.58143 47.141448 295.782129 45.129636 295.782129
C 43.117825 295.782129 41.188141 296.58143 39.765576 298.003996
C 38.34301 299.426561 37.543709 301.356245 37.543709 303.368056
C 37.543709 305.379868 38.34301 307.309551 39.765576 308.732117
C 41.188141 310.154682 43.117825 310.953984 45.129636 310.953984
z
" clip-path="url(#p8bb9d43456)" style="fill: #457b9d; stroke: #ffffff; stroke-width: 0.6; stroke-linejoin: miter"/>
   </g>
   <g id="patch_26">
    <path d="M 79.655331 310.953984
C 81.667142 310.953984 83.596826 310.154682 85.019391 308.732117
C 86.441957 307.309551 87.241258 305.379868 87.241258 303.368056
C 87.241258 301.356245 86.441957 299.426561 85.019391 298.003996
C 83.596826 296.58143 81.667142 295.782129 79.655331 295.782129
C 77.643519 295.782129 75.713835 296.58143 74.29127 298.003996
C 72.868704 299.426561 72.069403 301.356245 72.069403 303.368056
C 72.069403 305.379868 72.868704 307.309551 74.29127 308.732117
C 75.713835 310.154682 77.643519 310.953984 79.655331 310.953984
z
" clip-path="url(#p8bb9d43456)" style="fill: #457b9d; stroke: #ffffff; stroke-width: 0.6; stroke-linejoin: miter"/>
   </g>
   <g id="patch_27">
    <path d="M 114.181025 310.953984
C 116.192836 310.953984 118.12252 310.154682 119.545086 308.732117
C 120.967651 307.309551 121.766952 305.379868 121.766952 303.368056
C 121.766952 301.356245 120.967651 299.426561 119.545086 298.003996
C 118.12252 296.58143 116.192836 295.782129 114.181025 295.782129
C 112.169214 295.782129 110.23953 296.58143 108.816964 298.003996
C 107.394399 299.426561 106.595098 301.356245 106.595098 303.368056
C 106.595098 305.379868 107.394399 307.309551 108.816964 308.732117
C 110.23953 310.154682 112.169214 310.953984 114.181025 310.953984
z
" clip-path="url(#p8bb9d43456)" style="fill: #457b9d; stroke: #ffffff; stroke-width: 0.6; stroke-linejoin: miter"/>
   </g>
   <g id="patch_28">
    <path d="M 148.706719 310.953984
C 150.718531 310.953984 152.648215 310.154682 154.07078 308.732117
C 155.493346 307.309551 156.292647 305.379868 156.292647 303.368056
C 156.292647 301.356245 155.493346 299.426561 154.07078 298.003996
C 152.648215 296.58143 150.718531 295.782129 148.706719 295.782129
C 146.694908 295.782129 144.765224 296.58143 143.342659 298.003996
C 141.920093 299.426561 141.120792 301.356245 141.120792 303.368056
C 141.120792 305.379868 141.920093 307.309551 143.342659 308.732117
C 144.765224 310.154682 146.694908 310.953984 148.706719 310.953984
z
" clip-path="url(#p8bb9d43456)" style="fill: #457b9d; stroke: #ffffff; stroke-width: 0.6; stroke-linejoin: miter"/>
   </g>
   <g id="patch_29">
    <path d="M 183.232414 310.953984
C 185.244225 310.953984 187.173909 310.154682 188.596474 308.732117
C 190.01904 307.309551 190.818341 305.379868 190.818341 303.368056
C 190.818341 301.356245 190.01904 299.426561 188.596474 298.003996
C 187.173909 296.58143 185.244225 295.782129 183.232414 295.782129
C 181.220602 295.782129 179.290919 296.58143 177.868353 298.003996
C 176.445788 299.426561 175.646487 301.356245 175.646487 303.368056
C 175.646487 305.379868 176.445788 307.309551 177.868353 308.732117
C 179.290919 310.154682 181.220602 310.953984 183.232414 310.953984
z
" clip-path="url(#p8bb9d43456)" style="fill: #457b9d; stroke: #ffffff; stroke-width: 0.6; stroke-linejoin: miter"/>
   </g>
   <g id="patch_30">
    <path d="M 217.758108 310.953984
C 219.76992 310.953984 221.699603 310.154682 223.122169 308.732117
C 224.544734 307.309551 225.344036 305.379868 225.344036 303.368056
C 225.344036 301.356245 224.544734 299.426561 223.122169 298.003996
C 221.699603 296.58143 219.76992 295.782129 217.758108 295.782129
C 215.746297 295.782129 213.816613 296.58143 212.394048 298.003996
C 210.971482 299.426561 210.172181 301.356245 210.172181 303.368056
C 210.172181 305.379868 210.971482 307.309551 212.394048 308.732117
C 213.816613 310.154682 215.746297 310.953984 217.758108 310.953984
z
" clip-path="url(#p8bb9d43456)" style="fill: #457b9d; stroke: #ffffff; stroke-width: 0.6; stroke-linejoin: miter"/>
   </g>
   <g id="patch_31">
    <path d="M 252.283803 310.953984
C 254.295614 310.953984 256.225298 310.154682 257.647863 308.732117
C 259.070429 307.309551 259.86973 305.379868 259.86973 303.368056
C 259.86973 301.356245 259.070429 299.426561 257.647863 298.003996
C 256.225298 296.58143 254.295614 295.782129 252.283803 295.782129
C 250.271991 295.782129 248.342308 296.58143 246.919742 298.003996
C 245.497177 299.426561 244.697876 301.356245 244.697876 303.368056
C 244.697876 305.379868 245.497177 307.309551 246.919742 308.732117
C 248.342308 310.154682 250.271991 310.953984 252.283803 310.953984
z
" clip-path="url(#p8bb9d43456)" style="fill: #457b9d; stroke: #ffffff; stroke-width: 0.6; stroke-linejoin: miter"/>
   </g>
   <g id="patch_32">
    <path d="M 45.129636 275.942012
C 47.141448 275.942012 49.071131 275.142711 50.493697 273.720145
C 51.916262 272.29758 52.715563 270.367896 52.715563 268.356085
C 52.715563 266.344273 51.916262 264.414589 50.493697 262.992024
C 49.071131 261.569458 47.141448 260.770157 45.129636 260.770157
C 43.117825 260.770157 41.188141 261.569458 39.765576 262.992024
C 38.34301 264.414589 37.543709 266.344273 37.543709 268.356085
C 37.543709 270.367896 38.34301 272.29758 39.765576 273.720145
C 41.188141 275.142711 43.117825 275.942012 45.129636 275.942012
z
" clip-path="url(#p8bb9d43456)" style="fill: #457b9d; stroke: #ffffff; stroke-width: 0.6; stroke-linejoin: miter"/>
   </g>
   <g id="patch_33">
    <path d="M 79.655331 275.942012
C 81.667142 275.942012 83.596826 275.142711 85.019391 273.720145
C 86.441957 272.29758 87.241258 270.367896 87.241258 268.356085
C 87.241258 266.344273 86.441957 264.414589 85.019391 262.992024
C 83.596826 261.569458 81.667142 260.770157 79.655331 260.770157
C 77.643519 260.770157 75.713835 261.569458 74.29127 262.992024
C 72.868704 264.414589 72.069403 266.344273 72.069403 268.356085
C 72.069403 270.367896 72.868704 272.29758 74.29127 273.720145
C 75.713835 275.142711 77.643519 275.942012 79.655331 275.942012
z
" clip-path="url(#p8bb9d43456)" style="fill: #457b9d; stroke: #ffffff; stroke-width: 0.6; stroke-linejoin: miter"/>
   </g>
   <g id="patch_34">
    <path d="M 114.181025 275.942012
C 116.192836 275.942012 118.12252 275.142711 119.545086 273.720145
C 120.967651 272.29758 121.766952 270.367896 121.766952 268.356085
C 121.766952 266.344273 120.967651 264.414589 119.545086 262.992024
C 118.12252 261.569458 116.192836 260.770157 114.181025 260.770157
C 112.169214 260.770157 110.23953 261.569458 108.816964 262.992024
C 107.394399 264.414589 106.595098 266.344273 106.595098 268.356085
C 106.595098 270.367896 107.394399 272.29758 108.816964 273.720145
C 110.23953 275.142711 112.169214 275.942012 114.181025 275.942012
z
" clip-path="url(#p8bb9d43456)" style="fill: #457b9d; stroke: #ffffff; stroke-width: 0.6; stroke-linejoin: miter"/>
   </g>
   <g id="patch_35">
    <path d="M 148.706719 275.942012
C 150.718531 275.942012 152.648215 275.142711 154.07078 273.720145
C 155.493346 272.29758 156.292647 270.367896 156.292647 268.356085
C 156.292647 266.344273 155.493346 264.414589 154.07078 262.992024
C 152.648215 261.569458 150.718531 260.770157 148.706719 260.770157
C 146.694908 260.770157 144.765224 261.569458 143.342659 262.992024
C 141.920093 264.414589 141.120792 266.344273 141.120792 268.356085
C 141.120792 270.367896 141.920093 272.29758 143.342659 273.720145
C 144.765224 275.142711 146.694908 275.942012 148.706719 275.942012
z
" clip-path="url(#p8bb9d43456)" style="fill: #457b9d; stroke: #ffffff; stroke-width: 0.6; stroke-linejoin: miter"/>
   </g>
   <g id="patch_36">
    <path d="M 183.232414 275.942012
C 185.244225 275.942012 187.173909 275.142711 188.596474 273.720145
C 190.01904 272.29758 190.818341 270.367896 190.818341 268.356085
C 190.818341 266.344273 190.01904 264.414589 188.596474 262.992024
C 187.173909 261.569458 185.244225 260.770157 183.232414 260.770157
C 181.220602 260.770157 179.290919 261.569458 177.868353 262.992024
C 176.445788 264.414589 175.646487 266.344273 175.646487 268.356085
C 175.646487 270.367896 176.445788 272.29758 177.868353 273.720145
C 179.290919 275.142711 181.220602 275.942012 183.232414 275.942012
z
" clip-path="url(#p8bb9d43456)" style="fill: #457b9d; stroke: #ffffff; stroke-width: 0.6; stroke-linejoin: miter"/>
   </g>
   <g id="patch_37">
    <path d="M 217.758108 275.942012
C 219.76992 275.942012 221.699603 275.142711 223.122169 273.720145
C 224.544734 272.29758 225.344036 270.367896 225.344036 268.356085
C 225.344036 266.344273 224.544734 264.414589 223.122169 262.992024
C 221.699603 261.569458 219.76992 260.770157 217.758108 260.770157
C 215.746297 260.770157 213.816613 261.569458 212.394048 262.992024
C 210.971482 264.414589 210.172181 266.344273 210.172181 268.356085
C 210.172181 270.367896 210.971482 272.29758 212.394048 273.720145
C 213.816613 275.142711 215.746297 275.942012 217.758108 275.942012
z
" clip-path="url(#p8bb9d43456)" style="fill: #457b9d; stroke: #ffffff; stroke-width: 0.6; stroke-linejoin: miter"/>
   </g>
   <g id="patch_38">
    <path d="M 252.283803 275.942012
C 254.295614 275.942012 256.225298 275.142711 257.647863 273.720145
C 259.070429 272.29758 259.86973 270.367896 259.86973 268.356085
C 259.86973 266.344273 259.070429 264.414589 257.647863 262.992024
C 256.225298 261.569458 254.295614 260.770157 252.283803 260.770157
C 250.271991 260.770157 248.342308 261.569458 246.919742 262.992024
C 245.497177 264.414589 244.697876 266.344273 244.697876 268.356085
C 244.697876 270.367896 245.497177 272.29758 246.919742 273.720145
C 248.342308 275.142711 250.271991 275.942012 252.283803 275.942012
z
" clip-path="url(#p8bb9d43456)" style="fill: #457b9d; stroke: #ffffff; stroke-width: 0.6; stroke-linejoin: miter"/>
   </g>
   <g id="patch_39">
    <path d="M 45.129636 246.765369
C 47.141448 246.765369 49.071131 245.966067 50.493697 244.543502
C 51.916262 243.120936 52.715563 241.191253 52.715563 239.179441
C 52.715563 237.16763 51.916262 235.237946 50.493697 233.815381
C 49.071131 232.392815 47.141448 231.593514 45.129636 231.593514
C 43.117825 231.593514 41.188141 232.392815 39.765576 233.815381
C 38.34301 235.237946 37.543709 237.16763 37.543709 239.179441
C 37.543709 241.191253 38.34301 243.120936 39.765576 244.543502
C 41.188141 245.966067 43.117825 246.765369 45.129636 246.765369
z
" clip-path="url(#p8bb9d43456)" style="fill: #457b9d; stroke: #ffffff; stroke-width: 0.6; stroke-linejoin: miter"/>
   </g>
   <g id="patch_40">
    <path d="M 79.655331 246.765369
C 81.667142 246.765369 83.596826 245.966067 85.019391 244.543502
C 86.441957 243.120936 87.241258 241.191253 87.241258 239.179441
C 87.241258 237.16763 86.441957 235.237946 85.019391 233.815381
C 83.596826 232.392815 81.667142 231.593514 79.655331 231.593514
C 77.643519 231.593514 75.713835 232.392815 74.29127 233.815381
C 72.868704 235.237946 72.069403 237.16763 72.069403 239.179441
C 72.069403 241.191253 72.868704 243.120936 74.29127 244.543502
C 75.713835 245.966067 77.643519 246.765369 79.655331 246.765369
z
" clip-path="url(#p8bb9d43456)" style="fill: #457b9d; stroke: #ffffff; stroke-width: 0.6; stroke-linejoin: miter"/>
   </g>
   <g id="patch_41">
    <path d="M 114.181025 246.765369
C 116.192836 246.765369 118.12252 245.966067 119.545086 244.543502
C 120.967651 243.120936 121.766952 241.191253 121.766952 239.179441
C 121.766952 237.16763 120.967651 235.237946 119.545086 233.815381
C 118.12252 232.392815 116.192836 231.593514 114.181025 231.593514
C 112.169214 231.593514 110.23953 232.392815 108.816964 233.815381
C 107.394399 235.237946 106.595098 237.16763 106.595098 239.179441
C 106.595098 241.191253 107.394399 243.120936 108.816964 244.543502
C 110.23953 245.966067 112.169214 246.765369 114.181025 246.765369
z
" clip-path="url(#p8bb9d43456)" style="fill: #457b9d; stroke: #ffffff; stroke-width: 0.6; stroke-linejoin: miter"/>
   </g>
   <g id="patch_42">
    <path d="M 148.706719 246.765369
C 150.718531 246.765369 152.648215 245.966067 154.07078 244.543502
C 155.493346 243.120936 156.292647 241.191253 156.292647 239.179441
C 156.292647 237.16763 155.493346 235.237946 154.07078 233.815381
C 152.648215 232.392815 150.718531 231.593514 148.706719 231.593514
C 146.694908 231.593514 144.765224 232.392815 143.342659 233.815381
C 141.920093 235.237946 141.120792 237.16763 141.120792 239.179441
C 141.120792 241.191253 141.920093 243.120936 143.342659 244.543502
C 144.765224 245.966067 146.694908 246.765369 148.706719 246.765369
z
" clip-path="url(#p8bb9d43456)" style="fill: #457b9d; stroke: #ffffff; stroke-width: 0.6; stroke-linejoin: miter"/>
   </g>
   <g id="patch_43">
    <path d="M 183.232414 246.765369
C 185.244225 246.765369 187.173909 245.966067 188.596474 244.543502
C 190.01904 243.120936 190.818341 241.191253 190.818341 239.179441
C 190.818341 237.16763 190.01904 235.237946 188.596474 233.815381
C 187.173909 232.392815 185.244225 231.593514 183.232414 231.593514
C 181.220602 231.593514 179.290919 232.392815 177.868353 233.815381
C 176.445788 235.237946 175.646487 237.16763 175.646487 239.179441
C 175.646487 241.191253 176.445788 243.120936 177.868353 244.543502
C 179.290919 245.966067 181.220602 246.765369 183.232414 246.765369
z
" clip-path="url(#p8bb9d43456)" style="fill: #457b9d; stroke: #ffffff; stroke-width: 0.6; stroke-linejoin: miter"/>
   </g>
   <g id="patch_44">
    <path d="M 217.758108 246.765369
C 219.76992 246.765369 221.699603 245.966067 223.122169 244.543502
C 224.544734 243.120936 225.344036 241.191253 225.344036 239.179441
C 225.344036 237.16763 224.544734 235.237946 223.122169 233.815381
C 221.699603 232.392815 219.76992 231.593514 217.758108 231.593514
C 215.746297 231.593514 213.816613 232.392815 212.394048 233.815381
C 210.971482 235.237946 210.172181 237.16763 210.172181 239.179441
C 210.172181 241.191253 210.971482 243.120936 212.394048 244.543502
C 213.816613 245.966067 215.746297 246.765369 217.758108 246.765369
z
" clip-path="url(#p8bb9d43456)" style="fill: #457b9d; stroke: #ffffff; stroke-width: 0.6; stroke-linejoin: miter"/>
   </g>
   <g id="patch_45">
    <path d="M 252.283803 246.765369
C 254.295614 246.765369 256.225298 245.966067 257.647863 244.543502
C 259.070429 243.120936 259.86973 241.191253 259.86973 239.179441
C 259.86973 237.16763 259.070429 235.237946 257.647863 233.815381
C 256.225298 232.392815 254.295614 231.593514 252.283803 231.593514
C 250.271991 231.593514 248.342308 232.392815 246.919742 233.815381
C 245.497177 235.237946 244.697876 237.16763 244.697876 239.179441
C 244.697876 241.191253 245.497177 243.120936 246.919742 244.543502
C 248.342308 245.966067 250.271991 246.765369 252.283803 246.765369
z
" clip-path="url(#p8bb9d43456)" style="fill: #457b9d; stroke: #ffffff; stroke-width: 0.6; stroke-linejoin: miter"/>
   </g>
   <g id="patch_46">
    <path d="M 67.012119 211.753397
C 69.02393 211.753397 70.953614 210.954096 72.376179 209.53153
C 73.798745 208.108965 74.598046 206.179281 74.598046 204.16747
C 74.598046 202.155658 73.798745 200.225974 72.376179 198.803409
C 70.953614 197.380843 69.02393 196.581542 67.012119 196.581542
C 65.000307 196.581542 63.070623 197.380843 61.648058 198.803409
C 60.225492 200.225974 59.426191 202.155658 59.426191 204.16747
C 59.426191 206.179281 60.225492 208.108965 61.648058 209.53153
C 63.070623 210.954096 65.000307 211.753397 67.012119 211.753397
z
" clip-path="url(#p8bb9d43456)" style="fill: #457b9d; stroke: #ffffff; stroke-width: 0.6; stroke-linejoin: miter"/>
   </g>
   <g id="patch_47">
    <path d="M 101.537813 211.753397
C 103.549624 211.753397 105.479308 210.954096 106.901874 209.53153
C 108.324439 208.108965 109.12374 206.179281 109.12374 204.16747
C 109.12374 202.155658 108.324439 200.225974 106.901874 198.803409
C 105.479308 197.380843 103.549624 196.581542 101.537813 196.581542
C 99.526002 196.581542 97.596318 197.380843 96.173752 198.803409
C 94.751187 200.225974 93.951886 202.155658 93.951886 204.16747
C 93.951886 206.179281 94.751187 208.108965 96.173752 209.53153
C 97.596318 210.954096 99.526002 211.753397 101.537813 211.753397
z
" clip-path="url(#p8bb9d43456)" style="fill: #457b9d; stroke: #ffffff; stroke-width: 0.6; stroke-linejoin: miter"/>
   </g>
   <g id="patch_48">
    <path d="M 136.063507 211.753397
C 138.075319 211.753397 140.005002 210.954096 141.427568 209.53153
C 142.850133 208.108965 143.649435 206.179281 143.649435 204.16747
C 143.649435 202.155658 142.850133 200.225974 141.427568 198.803409
C 140.005002 197.380843 138.075319 196.581542 136.063507 196.581542
C 134.051696 196.581542 132.122012 197.380843 130.699447 198.803409
C 129.276881 200.225974 128.47758 202.155658 128.47758 204.16747
C 128.47758 206.179281 129.276881 208.108965 130.699447 209.53153
C 132.122012 210.954096 134.051696 211.753397 136.063507 211.753397
z
" clip-path="url(#p8bb9d43456)" style="fill: #457b9d; stroke: #ffffff; stroke-width: 0.6; stroke-linejoin: miter"/>
   </g>
   <g id="patch_49">
    <path d="M 170.589202 211.753397
C 172.601013 211.753397 174.530697 210.954096 175.953262 209.53153
C 177.375828 208.108965 178.175129 206.179281 178.175129 204.16747
C 178.175129 202.155658 177.375828 200.225974 175.953262 198.803409
C 174.530697 197.380843 172.601013 196.581542 170.589202 196.581542
C 168.57739 196.581542 166.647707 197.380843 165.225141 198.803409
C 163.802576 200.225974 163.003275 202.155658 163.003275 204.16747
C 163.003275 206.179281 163.802576 208.108965 165.225141 209.53153
C 166.647707 210.954096 168.57739 211.753397 170.589202 211.753397
z
" clip-path="url(#p8bb9d43456)" style="fill: #457b9d; stroke: #ffffff; stroke-width: 0.6; stroke-linejoin: miter"/>
   </g>
   <g id="patch_50">
    <path d="M 205.114896 211.753397
C 207.126708 211.753397 209.056391 210.954096 210.478957 209.53153
C 211.901522 208.108965 212.700823 206.179281 212.700823 204.16747
C 212.700823 202.155658 211.901522 200.225974 210.478957 198.803409
C 209.056391 197.380843 207.126708 196.581542 205.114896 196.581542
C 203.103085 196.581542 201.173401 197.380843 199.750836 198.803409
C 198.32827 200.225974 197.528969 202.155658 197.528969 204.16747
C 197.528969 206.179281 198.32827 208.108965 199.750836 209.53153
C 201.173401 210.954096 203.103085 211.753397 205.114896 211.753397
z
" clip-path="url(#p8bb9d43456)" style="fill: #457b9d; stroke: #ffffff; stroke-width: 0.6; stroke-linejoin: miter"/>
   </g>
   <g id="patch_51">
    <path d="M 239.640591 211.753397
C 241.652402 211.753397 243.582086 210.954096 245.004651 209.53153
C 246.427217 208.108965 247.226518 206.179281 247.226518 204.16747
C 247.226518 202.155658 246.427217 200.225974 245.004651 198.803409
C 243.582086 197.380843 241.652402 196.581542 239.640591 196.581542
C 237.628779 196.581542 235.699096 197.380843 234.27653 198.803409
C 232.853965 200.225974 232.054663 202.155658 232.054663 204.16747
C 232.054663 206.179281 232.853965 208.108965 234.27653 209.53153
C 235.699096 210.954096 237.628779 211.753397 239.640591 211.753397
z
" clip-path="url(#p8bb9d43456)" style="fill: #457b9d; stroke: #ffffff; stroke-width: 0.6; stroke-linejoin: miter"/>
   </g>
   <g id="patch_52">
    <path d="M 274.166285 211.753397
C 276.178097 211.753397 278.10778 210.954096 279.530346 209.53153
C 280.952911 208.108965 281.752212 206.179281 281.752212 204.16747
C 281.752212 202.155658 280.952911 200.225974 279.530346 198.803409
C 278.10778 197.380843 276.178097 196.581542 274.166285 196.581542
C 272.154474 196.581542 270.22479 197.380843 268.802225 198.803409
C 267.379659 200.225974 266.580358 202.155658 266.580358 204.16747
C 266.580358 206.179281 267.379659 208.108965 268.802225 209.53153
C 270.22479 210.954096 272.154474 211.753397 274.166285 211.753397
z
" clip-path="url(#p8bb9d43456)" style="fill: #457b9d; stroke: #ffffff; stroke-width: 0.6; stroke-linejoin: miter"/>
   </g>
   <g id="patch_53">
    <path d="M 67.012119 176.741425
C 69.02393 176.741425 70.953614 175.942124 72.376179 174.519558
C 73.798745 173.096993 74.598046 171.167309 74.598046 169.155498
C 74.598046 167.143686 73.798745 165.214003 72.376179 163.791437
C 70.953614 162.368872 69.02393 161.56957 67.012119 161.56957
C 65.000307 161.56957 63.070623 162.368872 61.648058 163.791437
C 60.225492 165.214003 59.426191 167.143686 59.426191 169.155498
C 59.426191 171.167309 60.225492 173.096993 61.648058 174.519558
C 63.070623 175.942124 65.000307 176.741425 67.012119 176.741425
z
" clip-path="url(#p8bb9d43456)" style="fill: #457b9d; stroke: #ffffff; stroke-width: 0.6; stroke-linejoin: miter"/>
   </g>
   <g id="patch_54">
    <path d="M 101.537813 176.741425
C 103.549624 176.741425 105.479308 175.942124 106.901874 174.519558
C 108.324439 173.096993 109.12374 171.167309 109.12374 169.155498
C 109.12374 167.143686 108.324439 165.214003 106.901874 163.791437
C 105.479308 162.368872 103.549624 161.56957 101.537813 161.56957
C 99.526002 161.56957 97.596318 162.368872 96.173752 163.791437
C 94.751187 165.214003 93.951886 167.143686 93.951886 169.155498
C 93.951886 171.167309 94.751187 173.096993 96.173752 174.519558
C 97.596318 175.942124 99.526002 176.741425 101.537813 176.741425
z
" clip-path="url(#p8bb9d43456)" style="fill: #457b9d; stroke: #ffffff; stroke-width: 0.6; stroke-linejoin: miter"/>
   </g>
   <g id="patch_55">
    <path d="M 136.063507 176.741425
C 138.075319 176.741425 140.005002 175.942124 141.427568 174.519558
C 142.850133 173.096993 143.649435 171.167309 143.649435 169.155498
C 143.649435 167.143686 142.850133 165.214003 141.427568 163.791437
C 140.005002 162.368872 138.075319 161.56957 136.063507 161.56957
C 134.051696 161.56957 132.122012 162.368872 130.699447 163.791437
C 129.276881 165.214003 128.47758 167.143686 128.47758 169.155498
C 128.47758 171.167309 129.276881 173.096993 130.699447 174.519558
C 132.122012 175.942124 134.051696 176.741425 136.063507 176.741425
z
" clip-path="url(#p8bb9d43456)" style="fill: #457b9d; stroke: #ffffff; stroke-width: 0.6; stroke-linejoin: miter"/>
   </g>
   <g id="patch_56">
    <path d="M 170.589202 176.741425
C 172.601013 176.741425 174.530697 175.942124 175.953262 174.519558
C 177.375828 173.096993 178.175129 171.167309 178.175129 169.155498
C 178.175129 167.143686 177.375828 165.214003 175.953262 163.791437
C 174.530697 162.368872 172.601013 161.56957 170.589202 161.56957
C 168.57739 161.56957 166.647707 162.368872 165.225141 163.791437
C 163.802576 165.214003 163.003275 167.143686 163.003275 169.155498
C 163.003275 171.167309 163.802576 173.096993 165.225141 174.519558
C 166.647707 175.942124 168.57739 176.741425 170.589202 176.741425
z
" clip-path="url(#p8bb9d43456)" style="fill: #457b9d; stroke: #ffffff; stroke-width: 0.6; stroke-linejoin: miter"/>
   </g>
   <g id="patch_57">
    <path d="M 205.114896 176.741425
C 207.126708 176.741425 209.056391 175.942124 210.478957 174.519558
C 211.901522 173.096993 212.700823 171.167309 212.700823 169.155498
C 212.700823 167.143686 211.901522 165.214003 210.478957 163.791437
C 209.056391 162.368872 207.126708 161.56957 205.114896 161.56957
C 203.103085 161.56957 201.173401 162.368872 199.750836 163.791437
C 198.32827 165.214003 197.528969 167.143686 197.528969 169.155498
C 197.528969 171.167309 198.32827 173.096993 199.750836 174.519558
C 201.173401 175.942124 203.103085 176.741425 205.114896 176.741425
z
" clip-path="url(#p8bb9d43456)" style="fill: #457b9d; stroke: #ffffff; stroke-width: 0.6; stroke-linejoin: miter"/>
   </g>
   <g id="patch_58">
    <path d="M 239.640591 176.741425
C 241.652402 176.741425 243.582086 175.942124 245.004651 174.519558
C 246.427217 173.096993 247.226518 171.167309 247.226518 169.155498
C 247.226518 167.143686 246.427217 165.214003 245.004651 163.791437
C 243.582086 162.368872 241.652402 161.56957 239.640591 161.56957
C 237.628779 161.56957 235.699096 162.368872 234.27653 163.791437
C 232.853965 165.214003 232.054663 167.143686 232.054663 169.155498
C 232.054663 171.167309 232.853965 173.096993 234.27653 174.519558
C 235.699096 175.942124 237.628779 176.741425 239.640591 176.741425
z
" clip-path="url(#p8bb9d43456)" style="fill: #457b9d; stroke: #ffffff; stroke-width: 0.6; stroke-linejoin: miter"/>
   </g>
   <g id="patch_59">
    <path d="M 274.166285 176.741425
C 276.178097 176.741425 278.10778 175.942124 279.530346 174.519558
C 280.952911 173.096993 281.752212 171.167309 281.752212 169.155498
C 281.752212 167.143686 280.952911 165.214003 279.530346 163.791437
C 278.10778 162.368872 276.178097 161.56957 274.166285 161.56957
C 272.154474 161.56957 270.22479 162.368872 268.802225 163.791437
C 267.379659 165.214003 266.580358 167.143686 266.580358 169.155498
C 266.580358 171.167309 267.379659 173.096993 268.802225 174.519558
C 270.22479 175.942124 272.154474 176.741425 274.166285 176.741425
z
" clip-path="url(#p8bb9d43456)" style="fill: #457b9d; stroke: #ffffff; stroke-width: 0.6; stroke-linejoin: miter"/>
   </g>
   <g id="patch_60">
    <path d="M 67.012119 141.729453
C 69.02393 141.729453 70.953614 140.930152 72.376179 139.507586
C 73.798745 138.085021 74.598046 136.155337 74.598046 134.143526
C 74.598046 132.131714 73.798745 130.202031 72.376179 128.779465
C 70.953614 127.3569 69.02393 126.557599 67.012119 126.557599
C 65.000307 126.557599 63.070623 127.3569 61.648058 128.779465
C 60.225492 130.202031 59.426191 132.131714 59.426191 134.143526
C 59.426191 136.155337 60.225492 138.085021 61.648058 139.507586
C 63.070623 140.930152 65.000307 141.729453 67.012119 141.729453
z
" clip-path="url(#p8bb9d43456)" style="fill: #457b9d; stroke: #ffffff; stroke-width: 0.6; stroke-linejoin: miter"/>
   </g>
   <g id="patch_61">
    <path d="M 101.537813 141.729453
C 103.549624 141.729453 105.479308 140.930152 106.901874 139.507586
C 108.324439 138.085021 109.12374 136.155337 109.12374 134.143526
C 109.12374 132.131714 108.324439 130.202031 106.901874 128.779465
C 105.479308 127.3569 103.549624 126.557599 101.537813 126.557599
C 99.526002 126.557599 97.596318 127.3569 96.173752 128.779465
C 94.751187 130.202031 93.951886 132.131714 93.951886 134.143526
C 93.951886 136.155337 94.751187 138.085021 96.173752 139.507586
C 97.596318 140.930152 99.526002 141.729453 101.537813 141.729453
z
" clip-path="url(#p8bb9d43456)" style="fill: #457b9d; stroke: #ffffff; stroke-width: 0.6; stroke-linejoin: miter"/>
   </g>
   <g id="patch_62">
    <path d="M 136.063507 141.729453
C 138.075319 141.729453 140.005002 140.930152 141.427568 139.507586
C 142.850133 138.085021 143.649435 136.155337 143.649435 134.143526
C 143.649435 132.131714 142.850133 130.202031 141.427568 128.779465
C 140.005002 127.3569 138.075319 126.557599 136.063507 126.557599
C 134.051696 126.557599 132.122012 127.3569 130.699447 128.779465
C 129.276881 130.202031 128.47758 132.131714 128.47758 134.143526
C 128.47758 136.155337 129.276881 138.085021 130.699447 139.507586
C 132.122012 140.930152 134.051696 141.729453 136.063507 141.729453
z
" clip-path="url(#p8bb9d43456)" style="fill: #457b9d; stroke: #ffffff; stroke-width: 0.6; stroke-linejoin: miter"/>
   </g>
   <g id="patch_63">
    <path d="M 170.589202 141.729453
C 172.601013 141.729453 174.530697 140.930152 175.953262 139.507586
C 177.375828 138.085021 178.175129 136.155337 178.175129 134.143526
C 178.175129 132.131714 177.375828 130.202031 175.953262 128.779465
C 174.530697 127.3569 172.601013 126.557599 170.589202 126.557599
C 168.57739 126.557599 166.647707 127.3569 165.225141 128.779465
C 163.802576 130.202031 163.003275 132.131714 163.003275 134.143526
C 163.003275 136.155337 163.802576 138.085021 165.225141 139.507586
C 166.647707 140.930152 168.57739 141.729453 170.589202 141.729453
z
" clip-path="url(#p8bb9d43456)" style="fill: #457b9d; stroke: #ffffff; stroke-width: 0.6; stroke-linejoin: miter"/>
   </g>
   <g id="patch_64">
    <path d="M 205.114896 141.729453
C 207.126708 141.729453 209.056391 140.930152 210.478957 139.507586
C 211.901522 138.085021 212.700823 136.155337 212.700823 134.143526
C 212.700823 132.131714 211.901522 130.202031 210.478957 128.779465
C 209.056391 127.3569 207.126708 126.557599 205.114896 126.557599
C 203.103085 126.557599 201.173401 127.3569 199.750836 128.779465
C 198.32827 130.202031 197.528969 132.131714 197.528969 134.143526
C 197.528969 136.155337 198.32827 138.085021 199.750836 139.507586
C 201.173401 140.930152 203.103085 141.729453 205.114896 141.729453
z
" clip-path="url(#p8bb9d43456)" style="fill: #457b9d; stroke: #ffffff; stroke-width: 0.6; stroke-linejoin: miter"/>
   </g>
   <g id="patch_65">
    <path d="M 239.640591 141.729453
C 241.652402 141.729453 243.582086 140.930152 245.004651 139.507586
C 246.427217 138.085021 247.226518 136.155337 247.226518 134.143526
C 247.226518 132.131714 246.427217 130.202031 245.004651 128.779465
C 243.582086 127.3569 241.652402 126.557599 239.640591 126.557599
C 237.628779 126.557599 235.699096 127.3569 234.27653 128.779465
C 232.853965 130.202031 232.054663 132.131714 232.054663 134.143526
C 232.054663 136.155337 232.853965 138.085021 234.27653 139.507586
C 235.699096 140.930152 237.628779 141.729453 239.640591 141.729453
z
" clip-path="url(#p8bb9d43456)" style="fill: #457b9d; stroke: #ffffff; stroke-width: 0.6; stroke-linejoin: miter"/>
   </g>
   <g id="patch_66">
    <path d="M 274.166285 141.729453
C 276.178097 141.729453 278.10778 140.930152 279.530346 139.507586
C 280.952911 138.085021 281.752212 136.155337 281.752212 134.143526
C 281.752212 132.131714 280.952911 130.202031 279.530346 128.779465
C 278.10778 127.3569 276.178097 126.557599 274.166285 126.557599
C 272.154474 126.557599 270.22479 127.3569 268.802225 128.779465
C 267.379659 130.202031 266.580358 132.131714 266.580358 134.143526
C 266.580358 136.155337 267.379659 138.085021 268.802225 139.507586
C 270.22479 140.930152 272.154474 141.729453 274.166285 141.729453
z
" clip-path="url(#p8bb9d43456)" style="fill: #457b9d; stroke: #ffffff; stroke-width: 0.6; stroke-linejoin: miter"/>
   </g>
  </g>
  <g id="axes_2">
   <g id="patch_67">
    <path d="M 445.470657 291.697399
L 713.895775 291.697399
L 713.895775 110.802211
L 445.470657 110.802211
z
" clip-path="url(#p9ab5ff86d5)" style="fill: #f7f4ed"/>
   </g>
   <g id="patch_68">
    <path d="M 559.259566 236.84531
C 563.283189 236.84531 567.142556 235.246708 569.987687 232.401577
C 572.832818 229.556446 574.43142 225.697078 574.43142 221.673455
C 574.43142 217.649833 572.832818 213.790465 569.987687 210.945334
C 567.142556 208.100203 563.283189 206.501601 559.259566 206.501601
C 555.235943 206.501601 551.376576 208.100203 548.531445 210.945334
C 545.686314 213.790465 544.087711 217.649833 544.087711 221.673455
C 544.087711 225.697078 545.686314 229.556446 548.531445 232.401577
C 551.376576 235.246708 555.235943 236.84531 559.259566 236.84531
L 559.259566 236.84531
z
" clip-path="url(#p9ab5ff86d5)" style="fill: none; stroke: #e76f51; stroke-width: 2.3; stroke-linejoin: miter"/>
   </g>
   <g id="patch_69">
    <path d="M 646.789495 236.84531
C 650.813118 236.84531 654.672485 235.246708 657.517616 232.401577
C 660.362747 229.556446 661.96135 225.697078 661.96135 221.673455
C 661.96135 217.649833 660.362747 213.790465 657.517616 210.945334
C 654.672485 208.100203 650.813118 206.501601 646.789495 206.501601
C 642.765872 206.501601 638.906505 208.100203 636.061374 210.945334
C 633.216243 213.790465 631.617641 217.649833 631.617641 221.673455
C 631.617641 225.697078 633.216243 229.556446 636.061374 232.401577
C 638.906505 235.246708 642.765872 236.84531 646.789495 236.84531
L 646.789495 236.84531
z
" clip-path="url(#p9ab5ff86d5)" style="fill: none; stroke-dasharray: 1.5,2.475; stroke-dashoffset: 0; stroke: #64748b; stroke-width: 1.5; stroke-linejoin: miter"/>
   </g>
   <g id="patch_70">
    <path d="M 578.762542 221.673455
Q 603.022412 221.673455 624.599 221.673455
" clip-path="url(#p9ab5ff86d5)" style="fill: none; stroke: #e76f51; stroke-width: 2.4; stroke-linecap: round"/>
    <path d="M 617.799 218.273455
L 624.599 221.673455
L 617.799 225.073455
z
" clip-path="url(#p9ab5ff86d5)" style="fill: #e76f51; stroke: #e76f51; stroke-width: 2.4; stroke-linecap: round"/>
   </g>
   <g id="patch_71">
    <path d="M 561.257624 317.956378
Q 588.43602 317.956378 613.378347 317.956378
" clip-path="url(#p9ab5ff86d5)" style="fill: none; stroke: #e76f51; stroke-width: 2; stroke-linecap: round"/>
    <path d="M 606.978347 314.756378
L 613.378347 317.956378
L 606.978347 321.156378
z
" clip-path="url(#p9ab5ff86d5)" style="fill: #e76f51; stroke: #e76f51; stroke-width: 2; stroke-linecap: round"/>
   </g>
   <g id="line2d_9">
    <path d="M 454.22365 221.673455
L 708.060446 221.673455
" clip-path="url(#p9ab5ff86d5)" style="fill: none; stroke-dasharray: 5.18,2.24; stroke-dashoffset: 0; stroke: #64748b; stroke-width: 1.4"/>
   </g>
   <g id="line2d_10">
    <path d="M 559.259566 212.920462
L 559.259566 125.390533
" clip-path="url(#p9ab5ff86d5)" style="fill: none; stroke: #f4a261; stroke-opacity: 0.8; stroke-width: 2; stroke-linecap: square"/>
   </g>
   <g id="line2d_11">
    <path d="M 646.789495 212.920462
L 646.789495 125.390533
" clip-path="url(#p9ab5ff86d5)" style="fill: none; stroke-dasharray: 1.5,2.475; stroke-dashoffset: 0; stroke: #64748b; stroke-opacity: 0.85; stroke-width: 1.5"/>
   </g>
   <g id="line2d_12">
    <path d="M 462.976643 335.461218
L 480.58021 335.359045
L 486.181345 335.132511
L 490.182155 334.764807
L 493.382804 334.252094
L 495.78329 333.683411
L 498.183776 332.909697
L 500.584263 331.886578
L 502.984749 330.572505
L 505.385236 328.934537
L 507.785722 326.955128
L 510.186208 324.639161
L 512.586695 322.020154
L 515.787343 318.176235
L 522.18864 310.320047
L 524.589126 307.776522
L 526.189451 306.331564
L 527.789775 305.137312
L 529.390099 304.229979
L 530.990423 303.637747
L 532.590748 303.379312
L 534.191072 303.462907
L 535.791396 303.885863
L 537.39172 304.634755
L 538.992045 305.686105
L 540.592369 307.007608
L 542.992855 309.408534
L 545.393342 312.174171
L 554.995287 323.776312
L 557.395773 326.201114
L 559.79626 328.297319
L 562.196746 330.050888
L 564.597233 331.472482
L 566.997719 332.590579
L 569.398205 333.444503
L 571.798692 334.07823
L 574.99934 334.655808
L 578.199989 335.012057
L 583.000961 335.288992
L 590.20242 335.427787
L 609.406311 335.462201
L 702.225117 335.462364
L 702.225117 335.462364
" clip-path="url(#p9ab5ff86d5)" style="fill: none; stroke: #2a9d8f; stroke-width: 3; stroke-linecap: square"/>
   </g>
   <g id="line2d_13">
    <path d="M 462.976643 335.462364
L 591.002582 335.368756
L 596.603717 335.160357
L 600.604528 334.818887
L 603.805176 334.339204
L 606.205663 333.804005
L 608.606149 333.072007
L 611.006636 332.098839
L 613.407122 330.842023
L 615.807608 329.266515
L 618.208095 327.351349
L 620.608581 325.096701
L 623.009067 322.53034
L 626.209716 318.732223
L 633.411175 309.924596
L 635.811661 307.439938
L 637.411985 306.046564
L 639.01231 304.912446
L 640.612634 304.072178
L 642.212958 303.55197
L 643.813282 303.368286
L 645.413607 303.526984
L 647.013931 304.023002
L 648.614255 304.840628
L 650.214579 305.954325
L 651.814904 307.330058
L 654.21539 309.794342
L 657.416039 313.582275
L 664.617498 322.398085
L 667.017984 324.978391
L 669.41847 327.249135
L 671.818957 329.181066
L 674.219443 330.7728
L 676.619929 332.044435
L 679.020416 333.03049
L 681.420902 333.77322
L 683.821388 334.31701
L 687.022037 334.805144
L 691.022848 335.153303
L 696.623982 335.366306
L 702.225117 335.436175
L 702.225117 335.436175
" clip-path="url(#p9ab5ff86d5)" style="fill: none; stroke-dasharray: 2,3.3; stroke-dashoffset: 0; stroke: #64748b; stroke-width: 2"/>
   </g>
   <g id="patch_72">
    <path d="M 501.352222 121.607537
Q 529.416996 136.16737 556.489343 150.212337
" style="fill: none; stroke: #f4a261; stroke-linecap: round"/>
    <path d="M 553.859744 146.594989
L 556.489343 150.212337
L 552.017705 150.145607
" style="fill: none; stroke: #f4a261; stroke-linecap: round"/>
   </g>
   <g id="text_5">
    <text style="font-size: 10px; font-family: 'Hiragino Sans'; text-anchor: middle; fill: #f4a261" x="486.317958" y="116.63754" transform="rotate(-0 486.317958 116.63754)">余分な半原子面</text>
   </g>
   <g id="patch_73">
    <path d="M 516.906788 209.574612
Q 537.122846 215.349698 556.263875 220.817682
" style="fill: none; stroke: #e76f51; stroke-linecap: round"/>
    <path d="M 552.967093 217.79589
L 556.263875 220.817682
L 551.868372 221.642032
" style="fill: none; stroke: #e76f51; stroke-linecap: round"/>
   </g>
   <g id="text_6">
    <text style="font-weight: 700; font-size: 10px; font-family: 'Hiragino Sans'; text-anchor: middle; fill: #e76f51" x="497.988615" y="207.085134" transform="rotate(-0 497.988615 207.085134)">転位芯</text>
   </g>
   <g id="text_7">
    <text style="font-weight: 700; font-size: 10px; font-family: 'Hiragino Sans'; text-anchor: middle; fill: #17324d" x="579.683216" y="288.147942" transform="rotate(-0 579.683216 288.147942)">芯近傍の結合だけを順次組み替える</text>
   </g>
   <g id="text_8">
    <text style="font-size: 10px; font-family: 'Hiragino Sans'; text-anchor: middle; fill: #17324d" x="579.683216" y="366.097839" transform="rotate(-0 579.683216 366.097839)">じゅうたん全体ではなく「しわ」を移すのと同じ直感</text>
   </g>
   <g id="text_9">
    <text style="font-weight: 700; font-size: 13px; font-family: 'Hiragino Sans'; text-anchor: middle; fill: #17324d" x="579.683216" y="75.625568" transform="rotate(-0 579.683216 75.625568)">実在結晶：転位の局所移動</text>
   </g>
   <g id="patch_74">
    <path d="M 471.729636 281.77734
C 473.741448 281.77734 475.671131 280.978039 477.093697 279.555474
C 478.516262 278.132908 479.315563 276.203225 479.315563 274.191413
C 479.315563 272.179602 478.516262 270.249918 477.093697 268.827353
C 475.671131 267.404787 473.741448 266.605486 471.729636 266.605486
C 469.717825 266.605486 467.788141 267.404787 466.365576 268.827353
C 464.94301 270.249918 464.143709 272.179602 464.143709 274.191413
C 464.143709 276.203225 464.94301 278.132908 466.365576 279.555474
C 467.788141 280.978039 469.717825 281.77734 471.729636 281.77734
z
" clip-path="url(#p9ab5ff86d5)" style="fill: #457b9d; stroke: #ffffff; stroke-width: 0.6; stroke-linejoin: miter"/>
   </g>
   <g id="patch_75">
    <path d="M 507.714163 281.77734
C 509.725974 281.77734 511.655658 280.978039 513.078223 279.555474
C 514.500789 278.132908 515.30009 276.203225 515.30009 274.191413
C 515.30009 272.179602 514.500789 270.249918 513.078223 268.827353
C 511.655658 267.404787 509.725974 266.605486 507.714163 266.605486
C 505.702351 266.605486 503.772668 267.404787 502.350102 268.827353
C 500.927537 270.249918 500.128236 272.179602 500.128236 274.191413
C 500.128236 276.203225 500.927537 278.132908 502.350102 279.555474
C 503.772668 280.978039 505.702351 281.77734 507.714163 281.77734
z
" clip-path="url(#p9ab5ff86d5)" style="fill: #457b9d; stroke: #ffffff; stroke-width: 0.6; stroke-linejoin: miter"/>
   </g>
   <g id="patch_76">
    <path d="M 543.698689 281.77734
C 545.710501 281.77734 547.640184 280.978039 549.06275 279.555474
C 550.485315 278.132908 551.284617 276.203225 551.284617 274.191413
C 551.284617 272.179602 550.485315 270.249918 549.06275 268.827353
C 547.640184 267.404787 545.710501 266.605486 543.698689 266.605486
C 541.686878 266.605486 539.757194 267.404787 538.334629 268.827353
C 536.912063 270.249918 536.112762 272.179602 536.112762 274.191413
C 536.112762 276.203225 536.912063 278.132908 538.334629 279.555474
C 539.757194 280.978039 541.686878 281.77734 543.698689 281.77734
z
" clip-path="url(#p9ab5ff86d5)" style="fill: #457b9d; stroke: #ffffff; stroke-width: 0.6; stroke-linejoin: miter"/>
   </g>
   <g id="patch_77">
    <path d="M 579.683216 281.77734
C 581.695027 281.77734 583.624711 280.978039 585.047276 279.555474
C 586.469842 278.132908 587.269143 276.203225 587.269143 274.191413
C 587.269143 272.179602 586.469842 270.249918 585.047276 268.827353
C 583.624711 267.404787 581.695027 266.605486 579.683216 266.605486
C 577.671404 266.605486 575.741721 267.404787 574.319155 268.827353
C 572.89659 270.249918 572.097289 272.179602 572.097289 274.191413
C 572.097289 276.203225 572.89659 278.132908 574.319155 279.555474
C 575.741721 280.978039 577.671404 281.77734 579.683216 281.77734
z
" clip-path="url(#p9ab5ff86d5)" style="fill: #457b9d; stroke: #ffffff; stroke-width: 0.6; stroke-linejoin: miter"/>
   </g>
   <g id="patch_78">
    <path d="M 615.667743 281.77734
C 617.679554 281.77734 619.609238 280.978039 621.031803 279.555474
C 622.454369 278.132908 623.25367 276.203225 623.25367 274.191413
C 623.25367 272.179602 622.454369 270.249918 621.031803 268.827353
C 619.609238 267.404787 617.679554 266.605486 615.667743 266.605486
C 613.655931 266.605486 611.726247 267.404787 610.303682 268.827353
C 608.881116 270.249918 608.081815 272.179602 608.081815 274.191413
C 608.081815 276.203225 608.881116 278.132908 610.303682 279.555474
C 611.726247 280.978039 613.655931 281.77734 615.667743 281.77734
z
" clip-path="url(#p9ab5ff86d5)" style="fill: #457b9d; stroke: #ffffff; stroke-width: 0.6; stroke-linejoin: miter"/>
   </g>
   <g id="patch_79">
    <path d="M 651.652269 281.77734
C 653.664081 281.77734 655.593764 280.978039 657.01633 279.555474
C 658.438895 278.132908 659.238196 276.203225 659.238196 274.191413
C 659.238196 272.179602 658.438895 270.249918 657.01633 268.827353
C 655.593764 267.404787 653.664081 266.605486 651.652269 266.605486
C 649.640458 266.605486 647.710774 267.404787 646.288209 268.827353
C 644.865643 270.249918 644.066342 272.179602 644.066342 274.191413
C 644.066342 276.203225 644.865643 278.132908 646.288209 279.555474
C 647.710774 280.978039 649.640458 281.77734 651.652269 281.77734
z
" clip-path="url(#p9ab5ff86d5)" style="fill: #457b9d; stroke: #ffffff; stroke-width: 0.6; stroke-linejoin: miter"/>
   </g>
   <g id="patch_80">
    <path d="M 687.636796 281.77734
C 689.648607 281.77734 691.578291 280.978039 693.000856 279.555474
C 694.423422 278.132908 695.222723 276.203225 695.222723 274.191413
C 695.222723 272.179602 694.423422 270.249918 693.000856 268.827353
C 691.578291 267.404787 689.648607 266.605486 687.636796 266.605486
C 685.624984 266.605486 683.695301 267.404787 682.272735 268.827353
C 680.85017 270.249918 680.050868 272.179602 680.050868 274.191413
C 680.050868 276.203225 680.85017 278.132908 682.272735 279.555474
C 683.695301 280.978039 685.624984 281.77734 687.636796 281.77734
z
" clip-path="url(#p9ab5ff86d5)" style="fill: #457b9d; stroke: #ffffff; stroke-width: 0.6; stroke-linejoin: miter"/>
   </g>
   <g id="patch_81">
    <path d="M 471.729636 249.683033
C 473.741448 249.683033 475.671131 248.883732 477.093697 247.461166
C 478.516262 246.038601 479.315563 244.108917 479.315563 242.097106
C 479.315563 240.085294 478.516262 238.155611 477.093697 236.733045
C 475.671131 235.31048 473.741448 234.511178 471.729636 234.511178
C 469.717825 234.511178 467.788141 235.31048 466.365576 236.733045
C 464.94301 238.155611 464.143709 240.085294 464.143709 242.097106
C 464.143709 244.108917 464.94301 246.038601 466.365576 247.461166
C 467.788141 248.883732 469.717825 249.683033 471.729636 249.683033
z
" clip-path="url(#p9ab5ff86d5)" style="fill: #457b9d; stroke: #ffffff; stroke-width: 0.6; stroke-linejoin: miter"/>
   </g>
   <g id="patch_82">
    <path d="M 507.714163 249.683033
C 509.725974 249.683033 511.655658 248.883732 513.078223 247.461166
C 514.500789 246.038601 515.30009 244.108917 515.30009 242.097106
C 515.30009 240.085294 514.500789 238.155611 513.078223 236.733045
C 511.655658 235.31048 509.725974 234.511178 507.714163 234.511178
C 505.702351 234.511178 503.772668 235.31048 502.350102 236.733045
C 500.927537 238.155611 500.128236 240.085294 500.128236 242.097106
C 500.128236 244.108917 500.927537 246.038601 502.350102 247.461166
C 503.772668 248.883732 505.702351 249.683033 507.714163 249.683033
z
" clip-path="url(#p9ab5ff86d5)" style="fill: #457b9d; stroke: #ffffff; stroke-width: 0.6; stroke-linejoin: miter"/>
   </g>
   <g id="patch_83">
    <path d="M 543.698689 249.683033
C 545.710501 249.683033 547.640184 248.883732 549.06275 247.461166
C 550.485315 246.038601 551.284617 244.108917 551.284617 242.097106
C 551.284617 240.085294 550.485315 238.155611 549.06275 236.733045
C 547.640184 235.31048 545.710501 234.511178 543.698689 234.511178
C 541.686878 234.511178 539.757194 235.31048 538.334629 236.733045
C 536.912063 238.155611 536.112762 240.085294 536.112762 242.097106
C 536.112762 244.108917 536.912063 246.038601 538.334629 247.461166
C 539.757194 248.883732 541.686878 249.683033 543.698689 249.683033
z
" clip-path="url(#p9ab5ff86d5)" style="fill: #457b9d; stroke: #ffffff; stroke-width: 0.6; stroke-linejoin: miter"/>
   </g>
   <g id="patch_84">
    <path d="M 579.683216 249.683033
C 581.695027 249.683033 583.624711 248.883732 585.047276 247.461166
C 586.469842 246.038601 587.269143 244.108917 587.269143 242.097106
C 587.269143 240.085294 586.469842 238.155611 585.047276 236.733045
C 583.624711 235.31048 581.695027 234.511178 579.683216 234.511178
C 577.671404 234.511178 575.741721 235.31048 574.319155 236.733045
C 572.89659 238.155611 572.097289 240.085294 572.097289 242.097106
C 572.097289 244.108917 572.89659 246.038601 574.319155 247.461166
C 575.741721 248.883732 577.671404 249.683033 579.683216 249.683033
z
" clip-path="url(#p9ab5ff86d5)" style="fill: #457b9d; stroke: #ffffff; stroke-width: 0.6; stroke-linejoin: miter"/>
   </g>
   <g id="patch_85">
    <path d="M 615.667743 249.683033
C 617.679554 249.683033 619.609238 248.883732 621.031803 247.461166
C 622.454369 246.038601 623.25367 244.108917 623.25367 242.097106
C 623.25367 240.085294 622.454369 238.155611 621.031803 236.733045
C 619.609238 235.31048 617.679554 234.511178 615.667743 234.511178
C 613.655931 234.511178 611.726247 235.31048 610.303682 236.733045
C 608.881116 238.155611 608.081815 240.085294 608.081815 242.097106
C 608.081815 244.108917 608.881116 246.038601 610.303682 247.461166
C 611.726247 248.883732 613.655931 249.683033 615.667743 249.683033
z
" clip-path="url(#p9ab5ff86d5)" style="fill: #457b9d; stroke: #ffffff; stroke-width: 0.6; stroke-linejoin: miter"/>
   </g>
   <g id="patch_86">
    <path d="M 651.652269 249.683033
C 653.664081 249.683033 655.593764 248.883732 657.01633 247.461166
C 658.438895 246.038601 659.238196 244.108917 659.238196 242.097106
C 659.238196 240.085294 658.438895 238.155611 657.01633 236.733045
C 655.593764 235.31048 653.664081 234.511178 651.652269 234.511178
C 649.640458 234.511178 647.710774 235.31048 646.288209 236.733045
C 644.865643 238.155611 644.066342 240.085294 644.066342 242.097106
C 644.066342 244.108917 644.865643 246.038601 646.288209 247.461166
C 647.710774 248.883732 649.640458 249.683033 651.652269 249.683033
z
" clip-path="url(#p9ab5ff86d5)" style="fill: #457b9d; stroke: #ffffff; stroke-width: 0.6; stroke-linejoin: miter"/>
   </g>
   <g id="patch_87">
    <path d="M 687.636796 249.683033
C 689.648607 249.683033 691.578291 248.883732 693.000856 247.461166
C 694.423422 246.038601 695.222723 244.108917 695.222723 242.097106
C 695.222723 240.085294 694.423422 238.155611 693.000856 236.733045
C 691.578291 235.31048 689.648607 234.511178 687.636796 234.511178
C 685.624984 234.511178 683.695301 235.31048 682.272735 236.733045
C 680.85017 238.155611 680.050868 240.085294 680.050868 242.097106
C 680.050868 244.108917 680.85017 246.038601 682.272735 247.461166
C 683.695301 248.883732 685.624984 249.683033 687.636796 249.683033
z
" clip-path="url(#p9ab5ff86d5)" style="fill: #457b9d; stroke: #ffffff; stroke-width: 0.6; stroke-linejoin: miter"/>
   </g>
   <g id="patch_88">
    <path d="M 471.729636 208.835732
C 473.741448 208.835732 475.671131 208.036431 477.093697 206.613866
C 478.516262 205.1913 479.315563 203.261617 479.315563 201.249805
C 479.315563 199.237994 478.516262 197.30831 477.093697 195.885745
C 475.671131 194.463179 473.741448 193.663878 471.729636 193.663878
C 469.717825 193.663878 467.788141 194.463179 466.365576 195.885745
C 464.94301 197.30831 464.143709 199.237994 464.143709 201.249805
C 464.143709 203.261617 464.94301 205.1913 466.365576 206.613866
C 467.788141 208.036431 469.717825 208.835732 471.729636 208.835732
z
" clip-path="url(#p9ab5ff86d5)" style="fill: #457b9d; stroke: #ffffff; stroke-width: 0.6; stroke-linejoin: miter"/>
   </g>
   <g id="patch_89">
    <path d="M 507.714163 208.835732
C 509.725974 208.835732 511.655658 208.036431 513.078223 206.613866
C 514.500789 205.1913 515.30009 203.261617 515.30009 201.249805
C 515.30009 199.237994 514.500789 197.30831 513.078223 195.885745
C 511.655658 194.463179 509.725974 193.663878 507.714163 193.663878
C 505.702351 193.663878 503.772668 194.463179 502.350102 195.885745
C 500.927537 197.30831 500.128236 199.237994 500.128236 201.249805
C 500.128236 203.261617 500.927537 205.1913 502.350102 206.613866
C 503.772668 208.036431 505.702351 208.835732 507.714163 208.835732
z
" clip-path="url(#p9ab5ff86d5)" style="fill: #457b9d; stroke: #ffffff; stroke-width: 0.6; stroke-linejoin: miter"/>
   </g>
   <g id="patch_90">
    <path d="M 543.698689 208.835732
C 545.710501 208.835732 547.640184 208.036431 549.06275 206.613866
C 550.485315 205.1913 551.284617 203.261617 551.284617 201.249805
C 551.284617 199.237994 550.485315 197.30831 549.06275 195.885745
C 547.640184 194.463179 545.710501 193.663878 543.698689 193.663878
C 541.686878 193.663878 539.757194 194.463179 538.334629 195.885745
C 536.912063 197.30831 536.112762 199.237994 536.112762 201.249805
C 536.112762 203.261617 536.912063 205.1913 538.334629 206.613866
C 539.757194 208.036431 541.686878 208.835732 543.698689 208.835732
z
" clip-path="url(#p9ab5ff86d5)" style="fill: #457b9d; stroke: #ffffff; stroke-width: 0.6; stroke-linejoin: miter"/>
   </g>
   <g id="patch_91">
    <path d="M 579.683216 208.835732
C 581.695027 208.835732 583.624711 208.036431 585.047276 206.613866
C 586.469842 205.1913 587.269143 203.261617 587.269143 201.249805
C 587.269143 199.237994 586.469842 197.30831 585.047276 195.885745
C 583.624711 194.463179 581.695027 193.663878 579.683216 193.663878
C 577.671404 193.663878 575.741721 194.463179 574.319155 195.885745
C 572.89659 197.30831 572.097289 199.237994 572.097289 201.249805
C 572.097289 203.261617 572.89659 205.1913 574.319155 206.613866
C 575.741721 208.036431 577.671404 208.835732 579.683216 208.835732
z
" clip-path="url(#p9ab5ff86d5)" style="fill: #457b9d; stroke: #ffffff; stroke-width: 0.6; stroke-linejoin: miter"/>
   </g>
   <g id="patch_92">
    <path d="M 615.667743 208.835732
C 617.679554 208.835732 619.609238 208.036431 621.031803 206.613866
C 622.454369 205.1913 623.25367 203.261617 623.25367 201.249805
C 623.25367 199.237994 622.454369 197.30831 621.031803 195.885745
C 619.609238 194.463179 617.679554 193.663878 615.667743 193.663878
C 613.655931 193.663878 611.726247 194.463179 610.303682 195.885745
C 608.881116 197.30831 608.081815 199.237994 608.081815 201.249805
C 608.081815 203.261617 608.881116 205.1913 610.303682 206.613866
C 611.726247 208.036431 613.655931 208.835732 615.667743 208.835732
z
" clip-path="url(#p9ab5ff86d5)" style="fill: #457b9d; stroke: #ffffff; stroke-width: 0.6; stroke-linejoin: miter"/>
   </g>
   <g id="patch_93">
    <path d="M 651.652269 208.835732
C 653.664081 208.835732 655.593764 208.036431 657.01633 206.613866
C 658.438895 205.1913 659.238196 203.261617 659.238196 201.249805
C 659.238196 199.237994 658.438895 197.30831 657.01633 195.885745
C 655.593764 194.463179 653.664081 193.663878 651.652269 193.663878
C 649.640458 193.663878 647.710774 194.463179 646.288209 195.885745
C 644.865643 197.30831 644.066342 199.237994 644.066342 201.249805
C 644.066342 203.261617 644.865643 205.1913 646.288209 206.613866
C 647.710774 208.036431 649.640458 208.835732 651.652269 208.835732
z
" clip-path="url(#p9ab5ff86d5)" style="fill: #457b9d; stroke: #ffffff; stroke-width: 0.6; stroke-linejoin: miter"/>
   </g>
   <g id="patch_94">
    <path d="M 687.636796 208.835732
C 689.648607 208.835732 691.578291 208.036431 693.000856 206.613866
C 694.423422 205.1913 695.222723 203.261617 695.222723 201.249805
C 695.222723 199.237994 694.423422 197.30831 693.000856 195.885745
C 691.578291 194.463179 689.648607 193.663878 687.636796 193.663878
C 685.624984 193.663878 683.695301 194.463179 682.272735 195.885745
C 680.85017 197.30831 680.050868 199.237994 680.050868 201.249805
C 680.050868 203.261617 680.85017 205.1913 682.272735 206.613866
C 683.695301 208.036431 685.624984 208.835732 687.636796 208.835732
z
" clip-path="url(#p9ab5ff86d5)" style="fill: #457b9d; stroke: #ffffff; stroke-width: 0.6; stroke-linejoin: miter"/>
   </g>
   <g id="patch_95">
    <path d="M 471.729636 176.741425
C 473.741448 176.741425 475.671131 175.942124 477.093697 174.519558
C 478.516262 173.096993 479.315563 171.167309 479.315563 169.155498
C 479.315563 167.143686 478.516262 165.214003 477.093697 163.791437
C 475.671131 162.368872 473.741448 161.56957 471.729636 161.56957
C 469.717825 161.56957 467.788141 162.368872 466.365576 163.791437
C 464.94301 165.214003 464.143709 167.143686 464.143709 169.155498
C 464.143709 171.167309 464.94301 173.096993 466.365576 174.519558
C 467.788141 175.942124 469.717825 176.741425 471.729636 176.741425
z
" clip-path="url(#p9ab5ff86d5)" style="fill: #457b9d; stroke: #ffffff; stroke-width: 0.6; stroke-linejoin: miter"/>
   </g>
   <g id="patch_96">
    <path d="M 507.714163 176.741425
C 509.725974 176.741425 511.655658 175.942124 513.078223 174.519558
C 514.500789 173.096993 515.30009 171.167309 515.30009 169.155498
C 515.30009 167.143686 514.500789 165.214003 513.078223 163.791437
C 511.655658 162.368872 509.725974 161.56957 507.714163 161.56957
C 505.702351 161.56957 503.772668 162.368872 502.350102 163.791437
C 500.927537 165.214003 500.128236 167.143686 500.128236 169.155498
C 500.128236 171.167309 500.927537 173.096993 502.350102 174.519558
C 503.772668 175.942124 505.702351 176.741425 507.714163 176.741425
z
" clip-path="url(#p9ab5ff86d5)" style="fill: #457b9d; stroke: #ffffff; stroke-width: 0.6; stroke-linejoin: miter"/>
   </g>
   <g id="patch_97">
    <path d="M 543.698689 176.741425
C 545.710501 176.741425 547.640184 175.942124 549.06275 174.519558
C 550.485315 173.096993 551.284617 171.167309 551.284617 169.155498
C 551.284617 167.143686 550.485315 165.214003 549.06275 163.791437
C 547.640184 162.368872 545.710501 161.56957 543.698689 161.56957
C 541.686878 161.56957 539.757194 162.368872 538.334629 163.791437
C 536.912063 165.214003 536.112762 167.143686 536.112762 169.155498
C 536.112762 171.167309 536.912063 173.096993 538.334629 174.519558
C 539.757194 175.942124 541.686878 176.741425 543.698689 176.741425
z
" clip-path="url(#p9ab5ff86d5)" style="fill: #457b9d; stroke: #ffffff; stroke-width: 0.6; stroke-linejoin: miter"/>
   </g>
   <g id="patch_98">
    <path d="M 579.683216 176.741425
C 581.695027 176.741425 583.624711 175.942124 585.047276 174.519558
C 586.469842 173.096993 587.269143 171.167309 587.269143 169.155498
C 587.269143 167.143686 586.469842 165.214003 585.047276 163.791437
C 583.624711 162.368872 581.695027 161.56957 579.683216 161.56957
C 577.671404 161.56957 575.741721 162.368872 574.319155 163.791437
C 572.89659 165.214003 572.097289 167.143686 572.097289 169.155498
C 572.097289 171.167309 572.89659 173.096993 574.319155 174.519558
C 575.741721 175.942124 577.671404 176.741425 579.683216 176.741425
z
" clip-path="url(#p9ab5ff86d5)" style="fill: #457b9d; stroke: #ffffff; stroke-width: 0.6; stroke-linejoin: miter"/>
   </g>
   <g id="patch_99">
    <path d="M 615.667743 176.741425
C 617.679554 176.741425 619.609238 175.942124 621.031803 174.519558
C 622.454369 173.096993 623.25367 171.167309 623.25367 169.155498
C 623.25367 167.143686 622.454369 165.214003 621.031803 163.791437
C 619.609238 162.368872 617.679554 161.56957 615.667743 161.56957
C 613.655931 161.56957 611.726247 162.368872 610.303682 163.791437
C 608.881116 165.214003 608.081815 167.143686 608.081815 169.155498
C 608.081815 171.167309 608.881116 173.096993 610.303682 174.519558
C 611.726247 175.942124 613.655931 176.741425 615.667743 176.741425
z
" clip-path="url(#p9ab5ff86d5)" style="fill: #457b9d; stroke: #ffffff; stroke-width: 0.6; stroke-linejoin: miter"/>
   </g>
   <g id="patch_100">
    <path d="M 651.652269 176.741425
C 653.664081 176.741425 655.593764 175.942124 657.01633 174.519558
C 658.438895 173.096993 659.238196 171.167309 659.238196 169.155498
C 659.238196 167.143686 658.438895 165.214003 657.01633 163.791437
C 655.593764 162.368872 653.664081 161.56957 651.652269 161.56957
C 649.640458 161.56957 647.710774 162.368872 646.288209 163.791437
C 644.865643 165.214003 644.066342 167.143686 644.066342 169.155498
C 644.066342 171.167309 644.865643 173.096993 646.288209 174.519558
C 647.710774 175.942124 649.640458 176.741425 651.652269 176.741425
z
" clip-path="url(#p9ab5ff86d5)" style="fill: #457b9d; stroke: #ffffff; stroke-width: 0.6; stroke-linejoin: miter"/>
   </g>
   <g id="patch_101">
    <path d="M 687.636796 176.741425
C 689.648607 176.741425 691.578291 175.942124 693.000856 174.519558
C 694.423422 173.096993 695.222723 171.167309 695.222723 169.155498
C 695.222723 167.143686 694.423422 165.214003 693.000856 163.791437
C 691.578291 162.368872 689.648607 161.56957 687.636796 161.56957
C 685.624984 161.56957 683.695301 162.368872 682.272735 163.791437
C 680.85017 165.214003 680.050868 167.143686 680.050868 169.155498
C 680.050868 171.167309 680.85017 173.096993 682.272735 174.519558
C 683.695301 175.942124 685.624984 176.741425 687.636796 176.741425
z
" clip-path="url(#p9ab5ff86d5)" style="fill: #457b9d; stroke: #ffffff; stroke-width: 0.6; stroke-linejoin: miter"/>
   </g>
   <g id="patch_102">
    <path d="M 471.729636 144.647117
C 473.741448 144.647117 475.671131 143.847816 477.093697 142.425251
C 478.516262 141.002685 479.315563 139.073002 479.315563 137.06119
C 479.315563 135.049379 478.516262 133.119695 477.093697 131.69713
C 475.671131 130.274564 473.741448 129.475263 471.729636 129.475263
C 469.717825 129.475263 467.788141 130.274564 466.365576 131.69713
C 464.94301 133.119695 464.143709 135.049379 464.143709 137.06119
C 464.143709 139.073002 464.94301 141.002685 466.365576 142.425251
C 467.788141 143.847816 469.717825 144.647117 471.729636 144.647117
z
" clip-path="url(#p9ab5ff86d5)" style="fill: #457b9d; stroke: #ffffff; stroke-width: 0.6; stroke-linejoin: miter"/>
   </g>
   <g id="patch_103">
    <path d="M 507.714163 144.647117
C 509.725974 144.647117 511.655658 143.847816 513.078223 142.425251
C 514.500789 141.002685 515.30009 139.073002 515.30009 137.06119
C 515.30009 135.049379 514.500789 133.119695 513.078223 131.69713
C 511.655658 130.274564 509.725974 129.475263 507.714163 129.475263
C 505.702351 129.475263 503.772668 130.274564 502.350102 131.69713
C 500.927537 133.119695 500.128236 135.049379 500.128236 137.06119
C 500.128236 139.073002 500.927537 141.002685 502.350102 142.425251
C 503.772668 143.847816 505.702351 144.647117 507.714163 144.647117
z
" clip-path="url(#p9ab5ff86d5)" style="fill: #457b9d; stroke: #ffffff; stroke-width: 0.6; stroke-linejoin: miter"/>
   </g>
   <g id="patch_104">
    <path d="M 543.698689 144.647117
C 545.710501 144.647117 547.640184 143.847816 549.06275 142.425251
C 550.485315 141.002685 551.284617 139.073002 551.284617 137.06119
C 551.284617 135.049379 550.485315 133.119695 549.06275 131.69713
C 547.640184 130.274564 545.710501 129.475263 543.698689 129.475263
C 541.686878 129.475263 539.757194 130.274564 538.334629 131.69713
C 536.912063 133.119695 536.112762 135.049379 536.112762 137.06119
C 536.112762 139.073002 536.912063 141.002685 538.334629 142.425251
C 539.757194 143.847816 541.686878 144.647117 543.698689 144.647117
z
" clip-path="url(#p9ab5ff86d5)" style="fill: #457b9d; stroke: #ffffff; stroke-width: 0.6; stroke-linejoin: miter"/>
   </g>
   <g id="patch_105">
    <path d="M 579.683216 144.647117
C 581.695027 144.647117 583.624711 143.847816 585.047276 142.425251
C 586.469842 141.002685 587.269143 139.073002 587.269143 137.06119
C 587.269143 135.049379 586.469842 133.119695 585.047276 131.69713
C 583.624711 130.274564 581.695027 129.475263 579.683216 129.475263
C 577.671404 129.475263 575.741721 130.274564 574.319155 131.69713
C 572.89659 133.119695 572.097289 135.049379 572.097289 137.06119
C 572.097289 139.073002 572.89659 141.002685 574.319155 142.425251
C 575.741721 143.847816 577.671404 144.647117 579.683216 144.647117
z
" clip-path="url(#p9ab5ff86d5)" style="fill: #457b9d; stroke: #ffffff; stroke-width: 0.6; stroke-linejoin: miter"/>
   </g>
   <g id="patch_106">
    <path d="M 615.667743 144.647117
C 617.679554 144.647117 619.609238 143.847816 621.031803 142.425251
C 622.454369 141.002685 623.25367 139.073002 623.25367 137.06119
C 623.25367 135.049379 622.454369 133.119695 621.031803 131.69713
C 619.609238 130.274564 617.679554 129.475263 615.667743 129.475263
C 613.655931 129.475263 611.726247 130.274564 610.303682 131.69713
C 608.881116 133.119695 608.081815 135.049379 608.081815 137.06119
C 608.081815 139.073002 608.881116 141.002685 610.303682 142.425251
C 611.726247 143.847816 613.655931 144.647117 615.667743 144.647117
z
" clip-path="url(#p9ab5ff86d5)" style="fill: #457b9d; stroke: #ffffff; stroke-width: 0.6; stroke-linejoin: miter"/>
   </g>
   <g id="patch_107">
    <path d="M 651.652269 144.647117
C 653.664081 144.647117 655.593764 143.847816 657.01633 142.425251
C 658.438895 141.002685 659.238196 139.073002 659.238196 137.06119
C 659.238196 135.049379 658.438895 133.119695 657.01633 131.69713
C 655.593764 130.274564 653.664081 129.475263 651.652269 129.475263
C 649.640458 129.475263 647.710774 130.274564 646.288209 131.69713
C 644.865643 133.119695 644.066342 135.049379 644.066342 137.06119
C 644.066342 139.073002 644.865643 141.002685 646.288209 142.425251
C 647.710774 143.847816 649.640458 144.647117 651.652269 144.647117
z
" clip-path="url(#p9ab5ff86d5)" style="fill: #457b9d; stroke: #ffffff; stroke-width: 0.6; stroke-linejoin: miter"/>
   </g>
   <g id="patch_108">
    <path d="M 687.636796 144.647117
C 689.648607 144.647117 691.578291 143.847816 693.000856 142.425251
C 694.423422 141.002685 695.222723 139.073002 695.222723 137.06119
C 695.222723 135.049379 694.423422 133.119695 693.000856 131.69713
C 691.578291 130.274564 689.648607 129.475263 687.636796 129.475263
C 685.624984 129.475263 683.695301 130.274564 682.272735 131.69713
C 680.85017 133.119695 680.050868 135.049379 680.050868 137.06119
C 680.050868 139.073002 680.85017 141.002685 682.272735 142.425251
C 683.695301 143.847816 685.624984 144.647117 687.636796 144.647117
z
" clip-path="url(#p9ab5ff86d5)" style="fill: #457b9d; stroke: #ffffff; stroke-width: 0.6; stroke-linejoin: miter"/>
   </g>
   <g id="patch_109">
    <path d="M 559.259566 209.711032
C 561.503509 209.711032 563.655849 208.819504 565.242556 207.232796
C 566.829264 205.646088 567.720792 203.493749 567.720792 201.249805
C 567.720792 199.005862 566.829264 196.853522 565.242556 195.266815
C 563.655849 193.680107 561.503509 192.788579 559.259566 192.788579
C 557.015622 192.788579 554.863283 193.680107 553.276575 195.266815
C 551.689867 196.853522 550.798339 199.005862 550.798339 201.249805
C 550.798339 203.493749 551.689867 205.646088 553.276575 207.232796
C 554.863283 208.819504 557.015622 209.711032 559.259566 209.711032
z
" clip-path="url(#p9ab5ff86d5)" style="fill: #f4a261; stroke: #ffffff; stroke-width: 0.6; stroke-linejoin: miter"/>
   </g>
   <g id="patch_110">
    <path d="M 559.259566 177.616724
C 561.503509 177.616724 563.655849 176.725196 565.242556 175.138488
C 566.829264 173.551781 567.720792 171.399441 567.720792 169.155498
C 567.720792 166.911554 566.829264 164.759215 565.242556 163.172507
C 563.655849 161.585799 561.503509 160.694271 559.259566 160.694271
C 557.015622 160.694271 554.863283 161.585799 553.276575 163.172507
C 551.689867 164.759215 550.798339 166.911554 550.798339 169.155498
C 550.798339 171.399441 551.689867 173.551781 553.276575 175.138488
C 554.863283 176.725196 557.015622 177.616724 559.259566 177.616724
z
" clip-path="url(#p9ab5ff86d5)" style="fill: #f4a261; stroke: #ffffff; stroke-width: 0.6; stroke-linejoin: miter"/>
   </g>
   <g id="patch_111">
    <path d="M 559.259566 145.522417
C 561.503509 145.522417 563.655849 144.630889 565.242556 143.044181
C 566.829264 141.457473 567.720792 139.305134 567.720792 137.06119
C 567.720792 134.817247 566.829264 132.664907 565.242556 131.0782
C 563.655849 129.491492 561.503509 128.599964 559.259566 128.599964
C 557.015622 128.599964 554.863283 129.491492 553.276575 131.0782
C 551.689867 132.664907 550.798339 134.817247 550.798339 137.06119
C 550.798339 139.305134 551.689867 141.457473 553.276575 143.044181
C 554.863283 144.630889 557.015622 145.522417 559.259566 145.522417
z
" clip-path="url(#p9ab5ff86d5)" style="fill: #f4a261; stroke: #ffffff; stroke-width: 0.6; stroke-linejoin: miter"/>
   </g>
  </g>
  <g id="text_10">
   <text style="font-weight: 700; font-size: 15px; font-family: 'Hiragino Sans'; text-anchor: middle; fill: #17324d" x="366.383216" y="19.080469" transform="rotate(-0 366.383216 19.080469)">塑性変形では、結晶全体を一度にずらす必要はない</text>
  </g>
  <g id="text_11">
   <text style="font-size: 10px; font-family: 'Hiragino Sans'; text-anchor: middle; fill: #64748b" x="366.383216" y="397.4976" transform="rotate(-0 366.383216 397.4976)">教育用模式図：原子配置、転位芯の形状、移動距離は定量的ではない。</text>
  </g>
 </g>
 <defs>
  <clipPath id="p8bb9d43456">
   <rect x="7.2" y="81.625568" width="291.766432" height="291.766432"/>
  </clipPath>
  <clipPath id="p9ab5ff86d5">
   <rect x="433.8" y="81.625568" width="291.766432" height="291.766432"/>
  </clipPath>
 </defs>
</svg>
