<?xml version="1.0" encoding="utf-8" standalone="no"?>
<!DOCTYPE svg PUBLIC "-//W3C//DTD SVG 1.1//EN"
  "http://www.w3.org/Graphics/SVG/1.1/DTD/svg11.dtd">
<svg xmlns:xlink="http://www.w3.org/1999/xlink" width="747.499687pt" height="448.5652pt" viewBox="0 0 747.499687 448.5652" xmlns="http://www.w3.org/2000/svg" version="1.1">
 <metadata>
  <rdf:RDF xmlns:dc="http://purl.org/dc/elements/1.1/" xmlns:cc="http://creativecommons.org/ns#" xmlns:rdf="http://www.w3.org/1999/02/22-rdf-syntax-ns#">
   <cc:Work>
    <dc:type rdf:resource="http://purl.org/dc/dcmitype/StillImage"/>
    <dc:format>image/svg+xml</dc:format>
    <dc:creator>
     <cc:Agent>
      <dc:title>Matplotlib v3.10.9, https://matplotlib.org/</dc:title>
     </cc:Agent>
    </dc:creator>
   </cc:Work>
  </rdf:RDF>
 </metadata>
 <defs>
  <style type="text/css">*{stroke-linejoin: round; stroke-linecap: butt}</style>
 </defs>
 <g id="figure_1">
  <g id="patch_1">
   <path d="M 0 448.5652
L 747.499687 448.5652
L 747.499687 0
L 0 0
z
" style="fill: #ffffff"/>
  </g>
  <g id="axes_1">
   <g id="patch_2">
    <path d="M 48.379688 395.568
L 253.393021 395.568
L 253.393021 51.84
L 48.379688 51.84
z
" style="fill: #ffffff"/>
   </g>
   <g id="patch_3">
    <path d="M 48.379688 126.8688
L 253.393021 126.8688
L 253.393021 81.408
L 48.379688 81.408
z
" clip-path="url(#p17cdaf3b21)" style="fill: #e9c46a; opacity: 0.12; stroke: #e9c46a; stroke-linejoin: miter"/>
   </g>
   <g id="matplotlib.axis_1">
    <g id="xtick_1">
     <g id="line2d_1">
      <path d="M 48.379688 395.568
L 48.379688 51.84
" clip-path="url(#p17cdaf3b21)" style="fill: none; stroke: #cbd5df; stroke-opacity: 0.2; stroke-width: 0.8; stroke-linecap: square"/>
     </g>
     <g id="line2d_2">
      <defs>
       <path id="m41dd3edd73" d="M 0 0
L 0 3.5
" style="stroke: #17324d; stroke-width: 0.8"/>
      </defs>
      <g>
       <use xlink:href="#m41dd3edd73" x="48.379688" y="395.568" style="fill: #17324d; stroke: #17324d; stroke-width: 0.8"/>
      </g>
     </g>
     <g id="text_1">
      <text style="font-size: 10px; font-family: 'Hiragino Sans'; text-anchor: middle; fill: #17324d" x="48.379688" y="410.277375" transform="rotate(-0 48.379688 410.277375)">0</text>
     </g>
    </g>
    <g id="xtick_2">
     <g id="line2d_3">
      <path d="M 82.548576 395.568
L 82.548576 51.84
" clip-path="url(#p17cdaf3b21)" style="fill: none; stroke: #cbd5df; stroke-opacity: 0.2; stroke-width: 0.8; stroke-linecap: square"/>
     </g>
     <g id="line2d_4">
      <g>
       <use xlink:href="#m41dd3edd73" x="82.548576" y="395.568" style="fill: #17324d; stroke: #17324d; stroke-width: 0.8"/>
      </g>
     </g>
     <g id="text_2">
      <text style="font-size: 10px; font-family: 'Hiragino Sans'; text-anchor: middle; fill: #17324d" x="82.548576" y="410.277375" transform="rotate(-0 82.548576 410.277375)">1</text>
     </g>
    </g>
    <g id="xtick_3">
     <g id="line2d_5">
      <path d="M 116.717465 395.568
L 116.717465 51.84
" clip-path="url(#p17cdaf3b21)" style="fill: none; stroke: #cbd5df; stroke-opacity: 0.2; stroke-width: 0.8; stroke-linecap: square"/>
     </g>
     <g id="line2d_6">
      <g>
       <use xlink:href="#m41dd3edd73" x="116.717465" y="395.568" style="fill: #17324d; stroke: #17324d; stroke-width: 0.8"/>
      </g>
     </g>
     <g id="text_3">
      <text style="font-size: 10px; font-family: 'Hiragino Sans'; text-anchor: middle; fill: #17324d" x="116.717465" y="410.277375" transform="rotate(-0 116.717465 410.277375)">2</text>
     </g>
    </g>
    <g id="xtick_4">
     <g id="line2d_7">
      <path d="M 150.886354 395.568
L 150.886354 51.84
" clip-path="url(#p17cdaf3b21)" style="fill: none; stroke: #cbd5df; stroke-opacity: 0.2; stroke-width: 0.8; stroke-linecap: square"/>
     </g>
     <g id="line2d_8">
      <g>
       <use xlink:href="#m41dd3edd73" x="150.886354" y="395.568" style="fill: #17324d; stroke: #17324d; stroke-width: 0.8"/>
      </g>
     </g>
     <g id="text_4">
      <text style="font-size: 10px; font-family: 'Hiragino Sans'; text-anchor: middle; fill: #17324d" x="150.886354" y="410.277375" transform="rotate(-0 150.886354 410.277375)">3</text>
     </g>
    </g>
    <g id="xtick_5">
     <g id="line2d_9">
      <path d="M 185.055243 395.568
L 185.055243 51.84
" clip-path="url(#p17cdaf3b21)" style="fill: none; stroke: #cbd5df; stroke-opacity: 0.2; stroke-width: 0.8; stroke-linecap: square"/>
     </g>
     <g id="line2d_10">
      <g>
       <use xlink:href="#m41dd3edd73" x="185.055243" y="395.568" style="fill: #17324d; stroke: #17324d; stroke-width: 0.8"/>
      </g>
     </g>
     <g id="text_5">
      <text style="font-size: 10px; font-family: 'Hiragino Sans'; text-anchor: middle; fill: #17324d" x="185.055243" y="410.277375" transform="rotate(-0 185.055243 410.277375)">4</text>
     </g>
    </g>
    <g id="xtick_6">
     <g id="line2d_11">
      <path d="M 219.224132 395.568
L 219.224132 51.84
" clip-path="url(#p17cdaf3b21)" style="fill: none; stroke: #cbd5df; stroke-opacity: 0.2; stroke-width: 0.8; stroke-linecap: square"/>
     </g>
     <g id="line2d_12">
      <g>
       <use xlink:href="#m41dd3edd73" x="219.224132" y="395.568" style="fill: #17324d; stroke: #17324d; stroke-width: 0.8"/>
      </g>
     </g>
     <g id="text_6">
      <text style="font-size: 10px; font-family: 'Hiragino Sans'; text-anchor: middle; fill: #17324d" x="219.224132" y="410.277375" transform="rotate(-0 219.224132 410.277375)">5</text>
     </g>
    </g>
    <g id="xtick_7">
     <g id="line2d_13">
      <path d="M 253.393021 395.568
L 253.393021 51.84
" clip-path="url(#p17cdaf3b21)" style="fill: none; stroke: #cbd5df; stroke-opacity: 0.2; stroke-width: 0.8; stroke-linecap: square"/>
     </g>
     <g id="line2d_14">
      <g>
       <use xlink:href="#m41dd3edd73" x="253.393021" y="395.568" style="fill: #17324d; stroke: #17324d; stroke-width: 0.8"/>
      </g>
     </g>
     <g id="text_7">
      <text style="font-size: 10px; font-family: 'Hiragino Sans'; text-anchor: middle; fill: #17324d" x="253.393021" y="410.277375" transform="rotate(-0 253.393021 410.277375)">6</text>
     </g>
    </g>
    <g id="text_8">
     <text style="font-size: 10px; font-family: 'Hiragino Sans'; text-anchor: middle; fill: #17324d" x="150.886354" y="424.03675" transform="rotate(-0 150.886354 424.03675)">時間（模式）</text>
    </g>
   </g>
   <g id="matplotlib.axis_2">
    <g id="ytick_1">
     <g id="line2d_15">
      <path d="M 48.379688 395.568
L 253.393021 395.568
" clip-path="url(#p17cdaf3b21)" style="fill: none; stroke: #cbd5df; stroke-opacity: 0.2; stroke-width: 0.8; stroke-linecap: square"/>
     </g>
     <g id="line2d_16">
      <defs>
       <path id="m7ba8299c01" d="M 0 0
L -3.5 0
" style="stroke: #17324d; stroke-width: 0.8"/>
      </defs>
      <g>
       <use xlink:href="#m7ba8299c01" x="48.379688" y="395.568" style="fill: #17324d; stroke: #17324d; stroke-width: 0.8"/>
      </g>
     </g>
     <g id="text_9">
      <text style="font-size: 10px; font-family: 'Hiragino Sans'; text-anchor: end; fill: #17324d" x="41.379688" y="399.422687" transform="rotate(-0 41.379688 399.422687)">0</text>
     </g>
    </g>
    <g id="ytick_2">
     <g id="line2d_17">
      <path d="M 48.379688 321.648
L 253.393021 321.648
" clip-path="url(#p17cdaf3b21)" style="fill: none; stroke: #cbd5df; stroke-opacity: 0.2; stroke-width: 0.8; stroke-linecap: square"/>
     </g>
     <g id="line2d_18">
      <g>
       <use xlink:href="#m7ba8299c01" x="48.379688" y="321.648" style="fill: #17324d; stroke: #17324d; stroke-width: 0.8"/>
      </g>
     </g>
     <g id="text_10">
      <text style="font-size: 10px; font-family: 'Hiragino Sans'; text-anchor: end; fill: #17324d" x="41.379688" y="325.502687" transform="rotate(-0 41.379688 325.502687)">200</text>
     </g>
    </g>
    <g id="ytick_3">
     <g id="line2d_19">
      <path d="M 48.379688 247.728
L 253.393021 247.728
" clip-path="url(#p17cdaf3b21)" style="fill: none; stroke: #cbd5df; stroke-opacity: 0.2; stroke-width: 0.8; stroke-linecap: square"/>
     </g>
     <g id="line2d_20">
      <g>
       <use xlink:href="#m7ba8299c01" x="48.379688" y="247.728" style="fill: #17324d; stroke: #17324d; stroke-width: 0.8"/>
      </g>
     </g>
     <g id="text_11">
      <text style="font-size: 10px; font-family: 'Hiragino Sans'; text-anchor: end; fill: #17324d" x="41.379688" y="251.582688" transform="rotate(-0 41.379688 251.582688)">400</text>
     </g>
    </g>
    <g id="ytick_4">
     <g id="line2d_21">
      <path d="M 48.379688 173.808
L 253.393021 173.808
" clip-path="url(#p17cdaf3b21)" style="fill: none; stroke: #cbd5df; stroke-opacity: 0.2; stroke-width: 0.8; stroke-linecap: square"/>
     </g>
     <g id="line2d_22">
      <g>
       <use xlink:href="#m7ba8299c01" x="48.379688" y="173.808" style="fill: #17324d; stroke: #17324d; stroke-width: 0.8"/>
      </g>
     </g>
     <g id="text_12">
      <text style="font-size: 10px; font-family: 'Hiragino Sans'; text-anchor: end; fill: #17324d" x="41.379688" y="177.662688" transform="rotate(-0 41.379688 177.662688)">600</text>
     </g>
    </g>
    <g id="ytick_5">
     <g id="line2d_23">
      <path d="M 48.379688 99.888
L 253.393021 99.888
" clip-path="url(#p17cdaf3b21)" style="fill: none; stroke: #cbd5df; stroke-opacity: 0.2; stroke-width: 0.8; stroke-linecap: square"/>
     </g>
     <g id="line2d_24">
      <g>
       <use xlink:href="#m7ba8299c01" x="48.379688" y="99.888" style="fill: #17324d; stroke: #17324d; stroke-width: 0.8"/>
      </g>
     </g>
     <g id="text_13">
      <text style="font-size: 10px; font-family: 'Hiragino Sans'; text-anchor: end; fill: #17324d" x="41.379688" y="103.742687" transform="rotate(-0 41.379688 103.742687)">800</text>
     </g>
    </g>
    <g id="text_14">
     <text style="font-size: 10px; font-family: 'Hiragino Sans'; text-anchor: middle; fill: #17324d" x="15.120313" y="223.704" transform="rotate(-90 15.120313 223.704)">温度 / °C</text>
    </g>
   </g>
   <g id="line2d_25">
    <path d="M 48.379688 126.8688
L 253.393021 126.8688
" clip-path="url(#p17cdaf3b21)" style="fill: none; stroke-dasharray: 4.44,1.92; stroke-dashoffset: 0; stroke: #64748b; stroke-width: 1.2"/>
   </g>
   <g id="line2d_26">
    <path d="M 48.379688 81.408
L 253.393021 81.408
" clip-path="url(#p17cdaf3b21)" style="fill: none; stroke-dasharray: 1.2,1.98; stroke-dashoffset: 0; stroke: #64748b; stroke-width: 1.2"/>
   </g>
   <g id="line2d_27">
    <path d="M 48.379688 388.176
L 85.965465 103.584
L 157.720132 103.584
L 178.221465 388.176
L 236.308576 388.176
" clip-path="url(#p17cdaf3b21)" style="fill: none; stroke: #457b9d; stroke-width: 3; stroke-linecap: square"/>
   </g>
   <g id="patch_4">
    <path d="M 48.379688 395.568
L 48.379688 51.84
" style="fill: none; stroke: #17324d; stroke-width: 0.8; stroke-linejoin: miter; stroke-linecap: square"/>
   </g>
   <g id="patch_5">
    <path d="M 48.379688 395.568
L 253.393021 395.568
" style="fill: none; stroke: #17324d; stroke-width: 0.8; stroke-linejoin: miter; stroke-linecap: square"/>
   </g>
   <g id="text_15">
    <!-- $A_\mathrm{c1}$ -->
    <g style="fill: #64748b" transform="translate(52.479954 122.8032)">
     <text>
      <tspan x="0" y="-0.703125" style="font-style: oblique; font-size: 10px; font-family: 'DejaVu Sans'; fill: #64748b">A</tspan>
      <tspan x="6.84082" y="0.9375" style="font-size: 7px; font-family: 'DejaVu Sans'; fill: #64748b">c</tspan>
      <tspan x="10.689453" y="0.9375" style="font-size: 7px; font-family: 'DejaVu Sans'; fill: #64748b">1</tspan>
     </text>
    </g>
   </g>
   <g id="text_16">
    <!-- $A_\mathrm{c3}$ -->
    <g style="fill: #64748b" transform="translate(52.479954 77.712)">
     <text>
      <tspan x="0" y="-0.703125" style="font-style: oblique; font-size: 10px; font-family: 'DejaVu Sans'; fill: #64748b">A</tspan>
      <tspan x="6.84082" y="0.9375" style="font-size: 7px; font-family: 'DejaVu Sans'; fill: #64748b">c</tspan>
      <tspan x="10.689453" y="0.9375" style="font-size: 7px; font-family: 'DejaVu Sans'; fill: #64748b">3</tspan>
     </text>
    </g>
   </g>
   <g id="text_17">
    <text style="font-weight: 700; font-size: 10px; font-family: 'Hiragino Sans'; fill: #17324d" transform="translate(86.842799 84.597)">二相域焼なまし</text>
    <text style="font-weight: 700; font-size: 10px; font-family: 'Hiragino Sans'; fill: #17324d" transform="translate(105.017799 96.192)">α + γ</text>
   </g>
   <g id="patch_6">
    <path d="M 219.539671 208.975051
Q 195.265275 236.838736 171.725286 263.859423
" style="fill: none; stroke: #457b9d; stroke-linecap: round"/>
    <path d="M 175.860781 262.157166
L 171.725286 263.859423
L 172.844778 259.529673
" style="fill: none; stroke: #457b9d; stroke-linecap: round"/>
   </g>
   <g id="text_18">
    <text style="font-weight: 700; font-size: 10px; font-family: 'Hiragino Sans'; text-anchor: start; fill: #457b9d" x="193.597465" y="203.376" transform="rotate(-0 193.597465 203.376)">急冷：γ → M</text>
   </g>
   <g id="text_19">
    <text style="font-size: 10px; font-family: 'Hiragino Sans'; fill: #64748b" transform="translate(110.886354 345.45875)">保持温度・時間で</text>
    <text style="font-size: 10px; font-family: 'Hiragino Sans'; fill: #64748b" transform="translate(101.101198 356.76)">γ量と最終M量を調整</text>
   </g>
   <g id="text_20">
    <text style="font-size: 12px; font-family: 'Hiragino Sans'; text-anchor: middle; fill: #17324d" x="150.886354" y="45.84" transform="rotate(-0 150.886354 45.84)">温度履歴</text>
   </g>
  </g>
  <g id="axes_2">
   <g id="patch_7">
    <path d="M 343.221231 157.154316
L 429.542635 157.154316
L 429.542635 98.895332
L 343.221231 98.895332
z
" clip-path="url(#p692cbefbf2)" style="fill: #e8f5f2; stroke: #17324d; stroke-width: 1.4; stroke-linejoin: miter"/>
   </g>
   <g id="patch_8">
    <path d="M 350.126944 152.493597
L 370.84408 152.493597
L 370.84408 139.094031
L 350.126944 139.094031
z
" clip-path="url(#p692cbefbf2)" style="fill: #f7f4ed; stroke: #f4a261; stroke-linejoin: miter"/>
   </g>
   <g id="patch_9">
    <path d="M 393.287645 123.364105
L 419.184066 123.364105
L 419.184066 108.79936
L 393.287645 108.79936
z
" clip-path="url(#p692cbefbf2)" style="fill: #f7f4ed; stroke: #f4a261; stroke-linejoin: miter"/>
   </g>
   <g id="patch_10">
    <path d="M 491.046635 157.154316
L 577.368038 157.154316
L 577.368038 98.895332
L 491.046635 98.895332
z
" clip-path="url(#p692cbefbf2)" style="fill: #e8f5f2; stroke: #17324d; stroke-width: 1.4; stroke-linejoin: miter"/>
   </g>
   <g id="patch_11">
    <path d="M 510.037344 148.415468
C 512.326614 148.415468 514.52243 147.678844 516.141189 146.367829
C 517.759947 145.056813 518.669484 143.278446 518.669484 141.42439
C 518.669484 139.570335 517.759947 137.791967 516.141189 136.480951
C 514.52243 135.169936 512.326614 134.433312 510.037344 134.433312
C 507.748073 134.433312 505.552257 135.169936 503.933499 136.480951
C 502.31474 137.791967 501.405203 139.570335 501.405203 141.42439
C 501.405203 143.278446 502.31474 145.056813 503.933499 146.367829
C 505.552257 147.678844 507.748073 148.415468 510.037344 148.415468
z
" clip-path="url(#p692cbefbf2)" style="fill: #e9c46a; stroke: #17324d; stroke-width: 0.9; stroke-linejoin: miter"/>
   </g>
   <g id="patch_12">
    <path d="M 544.565905 145.502519
C 547.427493 145.502519 550.172263 144.888666 552.195711 143.796153
C 554.21916 142.70364 555.35608 141.221667 555.35608 139.676621
C 555.35608 138.131574 554.21916 136.649601 552.195711 135.557088
C 550.172263 134.464576 547.427493 133.850722 544.565905 133.850722
C 541.704317 133.850722 538.959547 134.464576 536.936099 135.557088
C 534.912651 136.649601 533.77573 138.131574 533.77573 139.676621
C 533.77573 141.221667 534.912651 142.70364 536.936099 143.796153
C 538.959547 144.888666 541.704317 145.502519 544.565905 145.502519
z
" clip-path="url(#p692cbefbf2)" style="fill: #e9c46a; stroke: #17324d; stroke-width: 0.9; stroke-linejoin: miter"/>
   </g>
   <g id="patch_13">
    <path d="M 531.617695 123.07281
C 534.021428 123.07281 536.327035 122.366879 538.026732 121.110489
C 539.726428 119.8541 540.681442 118.149831 540.681442 116.373027
C 540.681442 114.596224 539.726428 112.891955 538.026732 111.635565
C 536.327035 110.379176 534.021428 109.673244 531.617695 109.673244
C 529.213961 109.673244 526.908354 110.379176 525.208657 111.635565
C 523.508961 112.891955 522.553947 114.596224 522.553947 116.373027
C 522.553947 118.149831 523.508961 119.8541 525.208657 121.110489
C 526.908354 122.366879 529.213961 123.07281 531.617695 123.07281
z
" clip-path="url(#p692cbefbf2)" style="fill: #e9c46a; stroke: #17324d; stroke-width: 0.9; stroke-linejoin: miter"/>
   </g>
   <g id="patch_14">
    <path d="M 561.830186 119.868566
C 563.661602 119.868566 565.418255 119.316098 566.713262 118.332837
C 568.008269 117.349575 568.735898 116.0158 568.735898 114.625258
C 568.735898 113.234716 568.008269 111.90094 566.713262 110.917679
C 565.418255 109.934417 563.661602 109.381949 561.830186 109.381949
C 559.998769 109.381949 558.242117 109.934417 556.94711 110.917679
C 555.652103 111.90094 554.924473 113.234716 554.924473 114.625258
C 554.924473 116.0158 555.652103 117.349575 556.94711 118.332837
C 558.242117 119.316098 559.998769 119.868566 561.830186 119.868566
z
" clip-path="url(#p692cbefbf2)" style="fill: #e9c46a; stroke: #17324d; stroke-width: 0.9; stroke-linejoin: miter"/>
   </g>
   <g id="patch_15">
    <path d="M 638.872038 157.154316
L 725.193442 157.154316
L 725.193442 98.895332
L 638.872038 98.895332
z
" clip-path="url(#p692cbefbf2)" style="fill: #e8f5f2; stroke: #17324d; stroke-width: 1.4; stroke-linejoin: miter"/>
   </g>
   <g id="patch_16">
    <path d="M 658.477031 149.487004
C 660.871979 148.679019 662.922527 147.115876 664.177064 145.141839
C 665.431602 143.167801 665.787702 140.944041 665.166938 138.960316
C 664.546174 136.97659 662.999228 135.394862 660.866797 134.563487
C 658.734367 133.732113 656.190555 133.718971 653.795607 134.526956
C 651.400659 135.334941 649.350112 136.898084 648.095574 138.872121
C 646.841037 140.846158 646.484936 143.069919 647.1057 145.053644
C 647.726464 147.03737 649.27341 148.619098 651.405841 149.450473
C 653.538271 150.281847 656.082083 150.294989 658.477031 149.487004
z
" clip-path="url(#p692cbefbf2)" style="fill: #457b9d; stroke: #17324d; stroke-width: 0.9; stroke-linejoin: miter"/>
   </g>
   <g id="patch_17">
    <path d="M 689.614968 145.97053
C 692.861872 146.687127 696.086854 146.834075 698.579649 146.379011
C 701.072444 145.923947 702.629526 144.904024 702.907966 143.543869
C 703.186406 142.183714 702.163471 140.594378 700.06445 139.125892
C 697.965429 137.657407 694.961698 136.429668 691.714793 135.713071
C 688.467889 134.996474 685.242907 134.849525 682.750112 135.304589
C 680.257317 135.759654 678.700235 136.779576 678.421795 138.139731
C 678.143355 139.499886 679.16629 141.089223 681.265311 142.557708
C 683.364332 144.026194 686.368063 145.253933 689.614968 145.97053
z
" clip-path="url(#p692cbefbf2)" style="fill: #457b9d; stroke: #17324d; stroke-width: 0.9; stroke-linejoin: miter"/>
   </g>
   <g id="patch_18">
    <path d="M 681.360507 122.996269
C 683.967547 122.615833 686.357084 121.430291 688.00285 119.700744
C 689.648615 117.971196 690.416241 115.838854 690.136665 113.773341
C 689.857089 111.707827 688.553138 109.877782 686.511993 108.686252
C 684.470847 107.494723 681.859157 107.038991 679.252117 107.419426
C 676.645077 107.799862 674.25554 108.985404 672.609774 110.714952
C 670.964009 112.444499 670.196383 114.576841 670.475959 116.642355
C 670.755535 118.707868 672.059486 120.537913 674.100631 121.729443
C 676.141777 122.920973 678.753467 123.376705 681.360507 122.996269
z
" clip-path="url(#p692cbefbf2)" style="fill: #457b9d; stroke: #17324d; stroke-width: 0.9; stroke-linejoin: miter"/>
   </g>
   <g id="patch_19">
    <path d="M 707.736551 120.682401
C 709.56508 121.373434 711.521166 121.459424 713.174002 120.921432
C 714.826838 120.38344 716.041479 119.265391 716.550414 117.813522
C 717.059349 116.361654 716.821025 114.694504 715.887931 113.179244
C 714.954837 111.663984 713.403156 110.424327 711.574627 109.733294
C 709.746098 109.042261 707.790013 108.956272 706.137177 109.494264
C 704.48434 110.032256 703.269699 111.150305 702.760764 112.602173
C 702.25183 114.054042 702.490153 115.721191 703.423247 117.236452
C 704.356341 118.751712 705.908023 119.991368 707.736551 120.682401
z
" clip-path="url(#p692cbefbf2)" style="fill: #457b9d; stroke: #17324d; stroke-width: 0.9; stroke-linejoin: miter"/>
   </g>
   <g id="patch_20">
    <path d="M 434.780717 128.024824
Q 458.675256 128.024824 480.892744 128.024824
" clip-path="url(#p692cbefbf2)" style="fill: none; stroke: #17324d; stroke-width: 1.5; stroke-linecap: round"/>
    <path d="M 474.892744 125.024824
L 480.892744 128.024824
L 474.892744 131.024824
z
" clip-path="url(#p692cbefbf2)" style="fill: #17324d; stroke: #17324d; stroke-width: 1.5; stroke-linecap: round"/>
   </g>
   <g id="patch_21">
    <path d="M 582.606121 128.024824
Q 606.50066 128.024824 628.718147 128.024824
" clip-path="url(#p692cbefbf2)" style="fill: none; stroke: #17324d; stroke-width: 1.5; stroke-linecap: round"/>
    <path d="M 622.718147 125.024824
L 628.718147 128.024824
L 622.718147 131.024824
z
" clip-path="url(#p692cbefbf2)" style="fill: #17324d; stroke: #17324d; stroke-width: 1.5; stroke-linecap: round"/>
   </g>
   <g id="line2d_28">
    <path d="M 369.980866 157.154316
L 376.023365 142.00698
L 372.570509 98.895332
" clip-path="url(#p692cbefbf2)" style="fill: none; stroke: #2a9d8f; stroke-linecap: square"/>
   </g>
   <g id="line2d_29">
    <path d="M 343.221231 122.198926
L 388.108361 125.111875
L 429.542635 116.373027
" clip-path="url(#p692cbefbf2)" style="fill: none; stroke: #2a9d8f; stroke-linecap: square"/>
   </g>
   <g id="line2d_30">
    <path d="M 350.748458 149.813684
L 370.222566 149.813684
" clip-path="url(#p692cbefbf2)" style="fill: none; stroke: #17324d; stroke-width: 0.8; stroke-linecap: square"/>
   </g>
   <g id="line2d_31">
    <path d="M 350.748458 147.13377
L 370.222566 147.13377
" clip-path="url(#p692cbefbf2)" style="fill: none; stroke: #17324d; stroke-width: 0.8; stroke-linecap: square"/>
   </g>
   <g id="line2d_32">
    <path d="M 350.748458 144.453857
L 370.222566 144.453857
" clip-path="url(#p692cbefbf2)" style="fill: none; stroke: #17324d; stroke-width: 0.8; stroke-linecap: square"/>
   </g>
   <g id="line2d_33">
    <path d="M 350.748458 141.773944
L 370.222566 141.773944
" clip-path="url(#p692cbefbf2)" style="fill: none; stroke: #17324d; stroke-width: 0.8; stroke-linecap: square"/>
   </g>
   <g id="line2d_34">
    <path d="M 394.064538 120.451156
L 418.407174 120.451156
" clip-path="url(#p692cbefbf2)" style="fill: none; stroke: #17324d; stroke-width: 0.8; stroke-linecap: square"/>
   </g>
   <g id="line2d_35">
    <path d="M 394.064538 117.538207
L 418.407174 117.538207
" clip-path="url(#p692cbefbf2)" style="fill: none; stroke: #17324d; stroke-width: 0.8; stroke-linecap: square"/>
   </g>
   <g id="line2d_36">
    <path d="M 394.064538 114.625258
L 418.407174 114.625258
" clip-path="url(#p692cbefbf2)" style="fill: none; stroke: #17324d; stroke-width: 0.8; stroke-linecap: square"/>
   </g>
   <g id="line2d_37">
    <path d="M 394.064538 111.712309
L 418.407174 111.712309
" clip-path="url(#p692cbefbf2)" style="fill: none; stroke: #17324d; stroke-width: 0.8; stroke-linecap: square"/>
   </g>
   <g id="line2d_38">
    <path d="M 650.957035 146.085109
L 661.315603 137.928851
" clip-path="url(#p692cbefbf2)" style="fill: none; stroke: #ffffff; stroke-width: 0.8; stroke-linecap: square"/>
   </g>
   <g id="line2d_39">
    <path d="M 685.485596 144.919929
L 695.844165 136.763671
" clip-path="url(#p692cbefbf2)" style="fill: none; stroke: #ffffff; stroke-width: 0.8; stroke-linecap: square"/>
   </g>
   <g id="line2d_40">
    <path d="M 675.127028 119.285977
L 685.485596 111.129719
" clip-path="url(#p692cbefbf2)" style="fill: none; stroke: #ffffff; stroke-width: 0.8; stroke-linecap: square"/>
   </g>
   <g id="line2d_41">
    <path d="M 704.476305 119.285977
L 714.834873 111.129719
" clip-path="url(#p692cbefbf2)" style="fill: none; stroke: #ffffff; stroke-width: 0.8; stroke-linecap: square"/>
   </g>
   <g id="text_21">
    <text style="font-size: 10px; font-family: 'Hiragino Sans'; text-anchor: middle; fill: #64748b" x="386.381933" y="74.247301" transform="rotate(-0 386.381933 74.247301)">初期</text>
   </g>
   <g id="text_22">
    <text style="font-size: 10px; font-family: 'Hiragino Sans'; text-anchor: middle; fill: #64748b" x="534.207337" y="74.247301" transform="rotate(-0 534.207337 74.247301)">二相域保持</text>
   </g>
   <g id="text_23">
    <text style="font-size: 10px; font-family: 'Hiragino Sans'; text-anchor: middle; fill: #64748b" x="682.03274" y="74.247301" transform="rotate(-0 682.03274 74.247301)">急冷後</text>
   </g>
   <g id="text_24">
    <text style="font-size: 10px; font-family: 'Hiragino Sans'; text-anchor: middle; fill: #64748b" x="458.676109" y="105.617523" transform="rotate(-0 458.676109 105.617523)">P溶解・逆変態</text>
   </g>
   <g id="text_25">
    <text style="font-size: 10px; font-family: 'Hiragino Sans'; text-anchor: middle; fill: #64748b" x="606.501512" y="105.617523" transform="rotate(-0 606.501512 105.617523)">γ → M</text>
   </g>
   <g id="text_26">
    <text style="font-weight: 700; font-size: 10px; font-family: 'Hiragino Sans'; text-anchor: middle; fill: #17324d" x="386.381933" y="177.320887" transform="rotate(-0 386.381933 177.320887)">α + P</text>
   </g>
   <g id="text_27">
    <text style="font-weight: 700; font-size: 10px; font-family: 'Hiragino Sans'; text-anchor: middle; fill: #17324d" x="534.207337" y="177.320887" transform="rotate(-0 534.207337 177.320887)">α + γ</text>
   </g>
   <g id="text_28">
    <text style="font-weight: 700; font-size: 10px; font-family: 'Hiragino Sans'; text-anchor: middle; fill: #17324d" x="682.03274" y="177.320887" transform="rotate(-0 682.03274 177.320887)">α + M</text>
   </g>
   <g id="text_29">
    <text style="font-weight: 700; font-size: 11px; font-family: 'Hiragino Sans'; text-anchor: start; fill: #17324d" x="330.273021" y="45.84" transform="rotate(-0 330.273021 45.84)">（a）初期組織：フェライト + パーライト</text>
   </g>
  </g>
  <g id="axes_3">
   <g id="patch_22">
    <path d="M 343.221231 355.234858
L 429.542635 355.234858
L 429.542635 296.975875
L 343.221231 296.975875
z
" clip-path="url(#pe296a6a7e0)" style="fill: #e7eef5; stroke: #17324d; stroke-width: 1.4; stroke-linejoin: miter"/>
   </g>
   <g id="patch_23">
    <path d="M 491.046635 355.234858
L 577.368038 355.234858
L 577.368038 296.975875
L 491.046635 296.975875
z
" clip-path="url(#pe296a6a7e0)" style="fill: #e8f5f2; stroke: #17324d; stroke-width: 1.4; stroke-linejoin: miter"/>
   </g>
   <g id="patch_24">
    <path d="M 510.037344 346.49601
C 512.326614 346.49601 514.52243 345.759386 516.141189 344.448371
C 517.759947 343.137356 518.669484 341.358988 518.669484 339.504932
C 518.669484 337.650877 517.759947 335.872509 516.141189 334.561494
C 514.52243 333.250479 512.326614 332.513854 510.037344 332.513854
C 507.748073 332.513854 505.552257 333.250479 503.933499 334.561494
C 502.31474 335.872509 501.405203 337.650877 501.405203 339.504932
C 501.405203 341.358988 502.31474 343.137356 503.933499 344.448371
C 505.552257 345.759386 507.748073 346.49601 510.037344 346.49601
z
" clip-path="url(#pe296a6a7e0)" style="fill: #e9c46a; stroke: #17324d; stroke-width: 0.9; stroke-linejoin: miter"/>
   </g>
   <g id="patch_25">
    <path d="M 544.565905 343.583061
C 547.427493 343.583061 550.172263 342.969208 552.195711 341.876695
C 554.21916 340.784182 555.35608 339.302209 555.35608 337.757163
C 555.35608 336.212117 554.21916 334.730143 552.195711 333.637631
C 550.172263 332.545118 547.427493 331.931265 544.565905 331.931265
C 541.704317 331.931265 538.959547 332.545118 536.936099 333.637631
C 534.912651 334.730143 533.77573 336.212117 533.77573 337.757163
C 533.77573 339.302209 534.912651 340.784182 536.936099 341.876695
C 538.959547 342.969208 541.704317 343.583061 544.565905 343.583061
z
" clip-path="url(#pe296a6a7e0)" style="fill: #e9c46a; stroke: #17324d; stroke-width: 0.9; stroke-linejoin: miter"/>
   </g>
   <g id="patch_26">
    <path d="M 531.617695 321.153353
C 534.021428 321.153353 536.327035 320.447421 538.026732 319.191032
C 539.726428 317.934642 540.681442 316.230373 540.681442 314.45357
C 540.681442 312.676767 539.726428 310.972497 538.026732 309.716108
C 536.327035 308.459718 534.021428 307.753787 531.617695 307.753787
C 529.213961 307.753787 526.908354 308.459718 525.208657 309.716108
C 523.508961 310.972497 522.553947 312.676767 522.553947 314.45357
C 522.553947 316.230373 523.508961 317.934642 525.208657 319.191032
C 526.908354 320.447421 529.213961 321.153353 531.617695 321.153353
z
" clip-path="url(#pe296a6a7e0)" style="fill: #e9c46a; stroke: #17324d; stroke-width: 0.9; stroke-linejoin: miter"/>
   </g>
   <g id="patch_27">
    <path d="M 561.830186 317.949109
C 563.661602 317.949109 565.418255 317.396641 566.713262 316.413379
C 568.008269 315.430118 568.735898 314.096342 568.735898 312.7058
C 568.735898 311.315259 568.008269 309.981483 566.713262 308.998221
C 565.418255 308.01496 563.661602 307.462492 561.830186 307.462492
C 559.998769 307.462492 558.242117 308.01496 556.94711 308.998221
C 555.652103 309.981483 554.924473 311.315259 554.924473 312.7058
C 554.924473 314.096342 555.652103 315.430118 556.94711 316.413379
C 558.242117 317.396641 559.998769 317.949109 561.830186 317.949109
z
" clip-path="url(#pe296a6a7e0)" style="fill: #e9c46a; stroke: #17324d; stroke-width: 0.9; stroke-linejoin: miter"/>
   </g>
   <g id="patch_28">
    <path d="M 638.872038 355.234858
L 725.193442 355.234858
L 725.193442 296.975875
L 638.872038 296.975875
z
" clip-path="url(#pe296a6a7e0)" style="fill: #e8f5f2; stroke: #17324d; stroke-width: 1.4; stroke-linejoin: miter"/>
   </g>
   <g id="patch_29">
    <path d="M 658.477031 347.567546
C 660.871979 346.759562 662.922527 345.196418 664.177064 343.222381
C 665.431602 341.248344 665.787702 339.024584 665.166938 337.040858
C 664.546174 335.057133 662.999228 333.475404 660.866797 332.64403
C 658.734367 331.812655 656.190555 331.799513 653.795607 332.607498
C 651.400659 333.415483 649.350112 334.978626 648.095574 336.952664
C 646.841037 338.926701 646.484936 341.150461 647.1057 343.134187
C 647.726464 345.117912 649.27341 346.699641 651.405841 347.531015
C 653.538271 348.362389 656.082083 348.375531 658.477031 347.567546
z
" clip-path="url(#pe296a6a7e0)" style="fill: #457b9d; stroke: #17324d; stroke-width: 0.9; stroke-linejoin: miter"/>
   </g>
   <g id="patch_30">
    <path d="M 689.614968 344.051072
C 692.861872 344.767669 696.086854 344.914618 698.579649 344.459554
C 701.072444 344.004489 702.629526 342.984567 702.907966 341.624412
C 703.186406 340.264257 702.163471 338.67492 700.06445 337.206435
C 697.965429 335.737949 694.961698 334.51021 691.714793 333.793613
C 688.467889 333.077016 685.242907 332.930068 682.750112 333.385132
C 680.257317 333.840196 678.700235 334.860119 678.421795 336.220274
C 678.143355 337.580428 679.16629 339.169765 681.265311 340.638251
C 683.364332 342.106736 686.368063 343.334475 689.614968 344.051072
z
" clip-path="url(#pe296a6a7e0)" style="fill: #457b9d; stroke: #17324d; stroke-width: 0.9; stroke-linejoin: miter"/>
   </g>
   <g id="patch_31">
    <path d="M 681.360507 321.076812
C 683.967547 320.696376 686.357084 319.510833 688.00285 317.781286
C 689.648615 316.051739 690.416241 313.919397 690.136665 311.853883
C 689.857089 309.78837 688.553138 307.958325 686.511993 306.766795
C 684.470847 305.575265 681.859157 305.119533 679.252117 305.499969
C 676.645077 305.880404 674.25554 307.065947 672.609774 308.795494
C 670.964009 310.525041 670.196383 312.657384 670.475959 314.722897
C 670.755535 316.788411 672.059486 318.618455 674.100631 319.809985
C 676.141777 321.001515 678.753467 321.457247 681.360507 321.076812
z
" clip-path="url(#pe296a6a7e0)" style="fill: #457b9d; stroke: #17324d; stroke-width: 0.9; stroke-linejoin: miter"/>
   </g>
   <g id="patch_32">
    <path d="M 707.736551 318.762944
C 709.56508 319.453977 711.521166 319.539966 713.174002 319.001974
C 714.826838 318.463982 716.041479 317.345933 716.550414 315.894065
C 717.059349 314.442196 716.821025 312.775046 715.887931 311.259786
C 714.954837 309.744526 713.403156 308.504869 711.574627 307.813836
C 709.746098 307.122804 707.790013 307.036814 706.137177 307.574806
C 704.48434 308.112798 703.269699 309.230847 702.760764 310.682716
C 702.25183 312.134584 702.490153 313.801734 703.423247 315.316994
C 704.356341 316.832254 705.908023 318.071911 707.736551 318.762944
z
" clip-path="url(#pe296a6a7e0)" style="fill: #457b9d; stroke: #17324d; stroke-width: 0.9; stroke-linejoin: miter"/>
   </g>
   <g id="patch_33">
    <path d="M 434.780717 326.105366
Q 458.675256 326.105366 480.892744 326.105366
" clip-path="url(#pe296a6a7e0)" style="fill: none; stroke: #17324d; stroke-width: 1.5; stroke-linecap: round"/>
    <path d="M 474.892744 323.105366
L 480.892744 326.105366
L 474.892744 329.105366
z
" clip-path="url(#pe296a6a7e0)" style="fill: #17324d; stroke: #17324d; stroke-width: 1.5; stroke-linecap: round"/>
   </g>
   <g id="patch_34">
    <path d="M 582.606121 326.105366
Q 606.50066 326.105366 628.718147 326.105366
" clip-path="url(#pe296a6a7e0)" style="fill: none; stroke: #17324d; stroke-width: 1.5; stroke-linecap: round"/>
    <path d="M 622.718147 323.105366
L 628.718147 326.105366
L 622.718147 329.105366
z
" clip-path="url(#pe296a6a7e0)" style="fill: #17324d; stroke: #17324d; stroke-width: 1.5; stroke-linecap: round"/>
   </g>
   <g id="line2d_42">
    <path d="M 346.674088 350.574139
L 365.664796 301.636593
" clip-path="url(#pe296a6a7e0)" style="fill: none; stroke: #457b9d; stroke-width: 1.2; stroke-linecap: square"/>
   </g>
   <g id="line2d_43">
    <path d="M 354.874621 350.574139
L 373.86533 301.636593
" clip-path="url(#pe296a6a7e0)" style="fill: none; stroke: #17324d; stroke-width: 1.2; stroke-linecap: square"/>
   </g>
   <g id="line2d_44">
    <path d="M 363.075154 350.574139
L 382.065863 301.636593
" clip-path="url(#pe296a6a7e0)" style="fill: none; stroke: #457b9d; stroke-width: 1.2; stroke-linecap: square"/>
   </g>
   <g id="line2d_45">
    <path d="M 371.275688 350.574139
L 390.266396 301.636593
" clip-path="url(#pe296a6a7e0)" style="fill: none; stroke: #17324d; stroke-width: 1.2; stroke-linecap: square"/>
   </g>
   <g id="line2d_46">
    <path d="M 379.476221 350.574139
L 398.46693 301.636593
" clip-path="url(#pe296a6a7e0)" style="fill: none; stroke: #457b9d; stroke-width: 1.2; stroke-linecap: square"/>
   </g>
   <g id="line2d_47">
    <path d="M 387.676754 350.574139
L 406.667463 301.636593
" clip-path="url(#pe296a6a7e0)" style="fill: none; stroke: #17324d; stroke-width: 1.2; stroke-linecap: square"/>
   </g>
   <g id="line2d_48">
    <path d="M 395.877288 350.574139
L 414.867996 301.636593
" clip-path="url(#pe296a6a7e0)" style="fill: none; stroke: #457b9d; stroke-width: 1.2; stroke-linecap: square"/>
   </g>
   <g id="line2d_49">
    <path d="M 404.077821 350.574139
L 423.06853 301.636593
" clip-path="url(#pe296a6a7e0)" style="fill: none; stroke: #17324d; stroke-width: 1.2; stroke-linecap: square"/>
   </g>
   <g id="line2d_50">
    <path d="M 412.278354 350.574139
L 426.952993 301.636593
" clip-path="url(#pe296a6a7e0)" style="fill: none; stroke: #457b9d; stroke-width: 1.2; stroke-linecap: square"/>
   </g>
   <g id="line2d_51">
    <path d="M 650.957035 344.165651
L 661.315603 336.009393
" clip-path="url(#pe296a6a7e0)" style="fill: none; stroke: #ffffff; stroke-width: 0.8; stroke-linecap: square"/>
   </g>
   <g id="line2d_52">
    <path d="M 685.485596 343.000471
L 695.844165 334.844214
" clip-path="url(#pe296a6a7e0)" style="fill: none; stroke: #ffffff; stroke-width: 0.8; stroke-linecap: square"/>
   </g>
   <g id="line2d_53">
    <path d="M 675.127028 317.366519
L 685.485596 309.210261
" clip-path="url(#pe296a6a7e0)" style="fill: none; stroke: #ffffff; stroke-width: 0.8; stroke-linecap: square"/>
   </g>
   <g id="line2d_54">
    <path d="M 704.476305 317.366519
L 714.834873 309.210261
" clip-path="url(#pe296a6a7e0)" style="fill: none; stroke: #ffffff; stroke-width: 0.8; stroke-linecap: square"/>
   </g>
   <g id="text_30">
    <text style="font-size: 10px; font-family: 'Hiragino Sans'; text-anchor: middle; fill: #64748b" x="386.381933" y="272.327844" transform="rotate(-0 386.381933 272.327844)">初期</text>
   </g>
   <g id="text_31">
    <text style="font-size: 10px; font-family: 'Hiragino Sans'; text-anchor: middle; fill: #64748b" x="534.207337" y="272.327844" transform="rotate(-0 534.207337 272.327844)">二相域保持</text>
   </g>
   <g id="text_32">
    <text style="font-size: 10px; font-family: 'Hiragino Sans'; text-anchor: middle; fill: #64748b" x="682.03274" y="272.327844" transform="rotate(-0 682.03274 272.327844)">急冷後</text>
   </g>
   <g id="text_33">
    <text style="font-size: 10px; font-family: 'Hiragino Sans'; text-anchor: middle; fill: #64748b" x="458.676109" y="303.698065" transform="rotate(-0 458.676109 303.698065)">焼戻し・C再分配・逆変態</text>
   </g>
   <g id="text_34">
    <text style="font-size: 10px; font-family: 'Hiragino Sans'; text-anchor: middle; fill: #64748b" x="606.501512" y="303.698065" transform="rotate(-0 606.501512 303.698065)">γ → M</text>
   </g>
   <g id="text_35">
    <text style="font-weight: 700; font-size: 10px; font-family: 'Hiragino Sans'; text-anchor: middle; fill: #17324d" x="386.381933" y="375.401429" transform="rotate(-0 386.381933 375.401429)">M</text>
   </g>
   <g id="text_36">
    <text style="font-weight: 700; font-size: 10px; font-family: 'Hiragino Sans'; text-anchor: middle; fill: #17324d" x="534.207337" y="375.401429" transform="rotate(-0 534.207337 375.401429)">α + γ</text>
   </g>
   <g id="text_37">
    <text style="font-weight: 700; font-size: 10px; font-family: 'Hiragino Sans'; text-anchor: middle; fill: #17324d" x="682.03274" y="375.401429" transform="rotate(-0 682.03274 375.401429)">α + M</text>
   </g>
   <g id="text_38">
    <text style="font-weight: 700; font-size: 11px; font-family: 'Hiragino Sans'; text-anchor: start; fill: #17324d" x="330.273021" y="243.920542" transform="rotate(-0 330.273021 243.920542)">（b）初期組織：マルテンサイト単相</text>
   </g>
  </g>
  <g id="text_39">
   <text style="font-weight: 700; font-size: 15px; font-family: 'Hiragino Sans'; text-anchor: middle; fill: #17324d" x="383.179688" y="19.080469" transform="rotate(-0 383.179688 19.080469)">DP鋼：二相域で作ったγだけを急冷でMにする（模式図）</text>
  </g>
  <g id="text_40">
   <text style="font-size: 10px; font-family: 'Hiragino Sans'; text-anchor: middle; fill: #64748b" x="383.179688" y="439.3152" transform="rotate(-0 383.179688 439.3152)">α：フェライト、P：パーライト、γ：オーステナイト、M：マルテンサイト。温度・時間・相分率は定性的。</text>
  </g>
 </g>
 <defs>
  <clipPath id="p17cdaf3b21">
   <rect x="48.379688" y="51.84" width="205.013333" height="343.728"/>
  </clipPath>
  <clipPath id="p692cbefbf2">
   <rect x="330.273021" y="51.84" width="410.026667" height="145.647458"/>
  </clipPath>
  <clipPath id="pe296a6a7e0">
   <rect x="330.273021" y="249.920542" width="410.026667" height="145.647458"/>
  </clipPath>
 </defs>
</svg>
