<?xml version="1.0" encoding="utf-8" standalone="no"?>
<!DOCTYPE svg PUBLIC "-//W3C//DTD SVG 1.1//EN"
  "http://www.w3.org/Graphics/SVG/1.1/DTD/svg11.dtd">
<svg xmlns:xlink="http://www.w3.org/1999/xlink" width="851.400694pt" height="378.8692pt" viewBox="0 0 851.400694 378.8692" xmlns="http://www.w3.org/2000/svg" version="1.1">
 <metadata>
  <rdf:RDF xmlns:dc="http://purl.org/dc/elements/1.1/" xmlns:cc="http://creativecommons.org/ns#" xmlns:rdf="http://www.w3.org/1999/02/22-rdf-syntax-ns#">
   <cc:Work>
    <dc:type rdf:resource="http://purl.org/dc/dcmitype/StillImage"/>
    <dc:format>image/svg+xml</dc:format>
    <dc:creator>
     <cc:Agent>
      <dc:title>Matplotlib v3.10.9, https://matplotlib.org/</dc:title>
     </cc:Agent>
    </dc:creator>
   </cc:Work>
  </rdf:RDF>
 </metadata>
 <defs>
  <style type="text/css">*{stroke-linejoin: round; stroke-linecap: butt}</style>
 </defs>
 <g id="figure_1">
  <g id="patch_1">
   <path d="M 0 378.8692
L 851.400694 378.8692
L 851.400694 0
L 0 0
z
" style="fill: #ffffff"/>
  </g>
  <g id="axes_1">
   <g id="patch_2">
    <path d="M 25.948481 320.869924
L 317.88911 320.869924
L 382.169615 242.126305
L 90.228986 242.126305
z
" clip-path="url(#p7da7fc3ce5)" style="fill: #457b9d; opacity: 0.15; stroke: #17324d; stroke-linejoin: miter"/>
   </g>
   <g id="patch_3">
    <path d="M 208.07658 328.369316
L 339.315945 271.588203
L 339.315945 108.208585
L 208.07658 164.454027
z
" clip-path="url(#p7da7fc3ce5)" style="fill: #e9c46a; opacity: 0.27; stroke: #17324d; stroke-linejoin: miter"/>
   </g>
   <g id="patch_4">
    <path d="M 62.763593 106.601573
Q 122.366921 106.601573 179.175163 106.601573
" clip-path="url(#p7da7fc3ce5)" style="fill: none; stroke: #f4a261; stroke-width: 2.5; stroke-linecap: round"/>
    <path d="M 171.975163 103.001573
L 179.175163 106.601573
L 171.975163 110.201573
z
" clip-path="url(#p7da7fc3ce5)" style="fill: #f4a261; stroke: #f4a261; stroke-width: 2.5; stroke-linecap: round"/>
   </g>
   <g id="line2d_1">
    <path d="M 52.732025 279.623266
L 216.111643 279.623266
" clip-path="url(#p7da7fc3ce5)" style="fill: none; stroke: #e76f51; stroke-width: 3.3; stroke-linecap: square"/>
   </g>
   <g id="line2d_2">
    <path d="M 216.111643 279.623266
L 288.427212 246.947343
" clip-path="url(#p7da7fc3ce5)" style="fill: none; stroke: #e76f51; stroke-width: 3.3; stroke-linecap: square"/>
   </g>
   <g id="line2d_3">
    <path d="M 288.427212 246.947343
L 288.427212 153.74061
" clip-path="url(#p7da7fc3ce5)" style="fill: none; stroke: #e76f51; stroke-width: 3.3; stroke-linecap: square"/>
   </g>
   <g id="text_1">
    <!-- $\{111\}$ 主すべり面 -->
    <g style="fill: #17324d" transform="translate(50.307341 305.87114)">
     <text>
      <tspan x="0" y="-0.296875" style="font-size: 10px; font-family: 'DejaVu Sans'; fill: #17324d">{</tspan>
      <tspan x="6.362305" y="-0.296875" style="font-size: 10px; font-family: 'DejaVu Sans'; fill: #17324d">1</tspan>
      <tspan x="12.724609" y="-0.296875" style="font-size: 10px; font-family: 'DejaVu Sans'; fill: #17324d">1</tspan>
      <tspan x="19.086914" y="-0.296875" style="font-size: 10px; font-family: 'DejaVu Sans'; fill: #17324d">1</tspan>
      <tspan x="25.449219" y="-0.296875" style="font-size: 10px; font-family: 'DejaVu Sans'; fill: #17324d">}</tspan>
      <tspan x="31.811523" y="-0.296875" style="font-size: 10px; font-family: 'Hiragino Sans'; fill: #17324d"> </tspan>
      <tspan x="35.14151" y="-0.296875" style="font-size: 10px; font-family: 'Hiragino Sans'; fill: #17324d">主</tspan>
      <tspan x="45.141495" y="-0.296875" style="font-size: 10px; font-family: 'Hiragino Sans'; fill: #17324d">す</tspan>
      <tspan x="55.141479" y="-0.296875" style="font-size: 10px; font-family: 'Hiragino Sans'; fill: #17324d">べ</tspan>
      <tspan x="65.141464" y="-0.296875" style="font-size: 10px; font-family: 'Hiragino Sans'; fill: #17324d">り</tspan>
      <tspan x="75.141449" y="-0.296875" style="font-size: 10px; font-family: 'Hiragino Sans'; fill: #17324d">面</tspan>
     </text>
    </g>
   </g>
   <g id="text_2">
    <!-- $\{100\}$ cube面 -->
    <g style="fill: #17324d" transform="translate(269.447338 132.313775)">
     <text>
      <tspan x="0" y="-0.6875" style="font-size: 10px; font-family: 'DejaVu Sans'; fill: #17324d">{</tspan>
      <tspan x="6.362305" y="-0.6875" style="font-size: 10px; font-family: 'DejaVu Sans'; fill: #17324d">1</tspan>
      <tspan x="12.724609" y="-0.6875" style="font-size: 10px; font-family: 'DejaVu Sans'; fill: #17324d">0</tspan>
      <tspan x="19.086914" y="-0.6875" style="font-size: 10px; font-family: 'DejaVu Sans'; fill: #17324d">0</tspan>
      <tspan x="25.449219" y="-0.6875" style="font-size: 10px; font-family: 'DejaVu Sans'; fill: #17324d">}</tspan>
      <tspan x="31.811523" y="-0.6875" style="font-size: 10px; font-family: 'Hiragino Sans'; fill: #17324d"> </tspan>
      <tspan x="35.14151" y="-0.6875" style="font-size: 10px; font-family: 'Hiragino Sans'; fill: #17324d">c</tspan>
      <tspan x="41.051498" y="-0.6875" style="font-size: 10px; font-family: 'Hiragino Sans'; fill: #17324d">u</tspan>
      <tspan x="47.391479" y="-0.6875" style="font-size: 10px; font-family: 'Hiragino Sans'; fill: #17324d">b</tspan>
      <tspan x="54.021469" y="-0.6875" style="font-size: 10px; font-family: 'Hiragino Sans'; fill: #17324d">e</tspan>
      <tspan x="60.041458" y="-0.6875" style="font-size: 10px; font-family: 'Hiragino Sans'; fill: #17324d">面</tspan>
     </text>
    </g>
   </g>
   <g id="patch_5">
    <path d="M 186.813007 212.602233
Q 219.412757 237.207509 251.120126 261.139243
" style="fill: none; stroke: #6c5ce7; stroke-linecap: round"/>
    <path d="M 249.132315 257.133171
L 251.120126 261.139243
L 246.722582 260.325848
" style="fill: none; stroke: #6c5ce7; stroke-linecap: round"/>
   </g>
   <g id="text_3">
    <text style="font-weight: 700; font-size: 10px; font-family: 'Hiragino Sans'; text-anchor: middle; fill: #6c5ce7" x="175.936327" y="207.307698" transform="rotate(-0 175.936327 207.307698)">交差すべり</text>
   </g>
   <g id="patch_6">
    <path d="M 193.637964 145.182399
Q 240.105465 163.820583 285.535292 182.042555
" style="fill: none; stroke: #17324d; stroke-linecap: round"/>
    <path d="M 282.567341 178.69722
L 285.535292 182.042555
L 281.078254 182.409715
" style="fill: none; stroke: #17324d; stroke-linecap: round"/>
   </g>
   <g id="text_4">
    <text style="font-weight: 700; font-size: 10px; font-family: 'Hiragino Sans'; fill: #17324d" transform="translate(107.072451 128.753838)">Kear–Wilsdorf lock</text>
    <text style="font-weight: 700; font-size: 10px; font-family: 'Hiragino Sans'; fill: #17324d" transform="translate(114.866201 140.348838)">（不動化した区間）</text>
   </g>
   <g id="text_5">
    <text style="font-size: 10px; font-family: 'Hiragino Sans'; text-anchor: middle; fill: #e76f51" x="103.620758" y="270.516862" transform="rotate(-0 103.620758 270.516862)">規則格子転位のねじ成分</text>
   </g>
   <g id="text_6">
    <text style="font-weight: 700; font-size: 10px; font-family: 'Hiragino Sans'; text-anchor: middle; fill: #f4a261" x="122.369239" y="99.10218" transform="rotate(-0 122.369239 99.10218)">温度上昇：交差すべり確率が増加</text>
   </g>
   <g id="text_7">
    <!-- $\{111\}\rightarrow\{100\}$ の交差すべり -->
    <g style="fill: #17324d" transform="translate(110.835694 80.78175)">
     <text>
      <tspan x="0" y="-0.578125" style="font-size: 13px; font-family: 'DejaVu Sans'; fill: #17324d">{</tspan>
      <tspan x="8.270996" y="-0.578125" style="font-size: 13px; font-family: 'DejaVu Sans'; fill: #17324d">1</tspan>
      <tspan x="16.541992" y="-0.578125" style="font-size: 13px; font-family: 'DejaVu Sans'; fill: #17324d">1</tspan>
      <tspan x="24.812988" y="-0.578125" style="font-size: 13px; font-family: 'DejaVu Sans'; fill: #17324d">1</tspan>
      <tspan x="33.083984" y="-0.578125" style="font-size: 13px; font-family: 'DejaVu Sans'; fill: #17324d">}</tspan>
      <tspan x="43.887695" y="-0.578125" style="font-size: 13px; font-family: 'DejaVu Sans'; fill: #17324d">→</tspan>
      <tspan x="57.312988" y="-0.578125" style="font-size: 13px; font-family: 'DejaVu Sans'; fill: #17324d">{</tspan>
      <tspan x="65.583984" y="-0.578125" style="font-size: 13px; font-family: 'DejaVu Sans'; fill: #17324d">1</tspan>
      <tspan x="73.85498" y="-0.578125" style="font-size: 13px; font-family: 'DejaVu Sans'; fill: #17324d">0</tspan>
      <tspan x="82.125977" y="-0.578125" style="font-size: 13px; font-family: 'DejaVu Sans'; fill: #17324d">0</tspan>
      <tspan x="90.396973" y="-0.578125" style="font-size: 13px; font-family: 'DejaVu Sans'; fill: #17324d">}</tspan>
      <tspan x="98.667969" y="-0.578125" style="font-weight: 700; font-size: 13px; font-family: 'Hiragino Sans'; fill: #17324d"> </tspan>
      <tspan x="102.996964" y="-0.578125" style="font-weight: 700; font-size: 13px; font-family: 'Hiragino Sans'; fill: #17324d">の</tspan>
      <tspan x="115.996964" y="-0.578125" style="font-weight: 700; font-size: 13px; font-family: 'Hiragino Sans'; fill: #17324d">交</tspan>
      <tspan x="128.996964" y="-0.578125" style="font-weight: 700; font-size: 13px; font-family: 'Hiragino Sans'; fill: #17324d">差</tspan>
      <tspan x="141.996964" y="-0.578125" style="font-weight: 700; font-size: 13px; font-family: 'Hiragino Sans'; fill: #17324d">す</tspan>
      <tspan x="154.996964" y="-0.578125" style="font-weight: 700; font-size: 13px; font-family: 'Hiragino Sans'; fill: #17324d">べ</tspan>
      <tspan x="167.996964" y="-0.578125" style="font-weight: 700; font-size: 13px; font-family: 'Hiragino Sans'; fill: #17324d">り</tspan>
     </text>
    </g>
   </g>
  </g>
  <g id="axes_2">
   <g id="patch_7">
    <path d="M 445.040694 330.512
L 844.200694 330.512
L 844.200694 86.78175
L 445.040694 86.78175
z
" style="fill: #ffffff"/>
   </g>
   <g id="FillBetweenPolyCollection_1">
    <defs>
     <path id="md8a74e568a" d="M 445.040694 -120.042568
L 445.040694 -48.3572
L 446.002618 -48.3572
L 446.964542 -48.3572
L 447.926466 -48.3572
L 448.88839 -48.3572
L 449.850314 -48.3572
L 450.812238 -48.3572
L 451.774162 -48.3572
L 452.736086 -48.3572
L 453.69801 -48.3572
L 454.659934 -48.3572
L 455.621858 -48.3572
L 456.583782 -48.3572
L 457.545706 -48.3572
L 458.50763 -48.3572
L 459.469554 -48.3572
L 460.431478 -48.3572
L 461.393402 -48.3572
L 462.355326 -48.3572
L 463.31725 -48.3572
L 464.279174 -48.3572
L 465.241099 -48.3572
L 466.203023 -48.3572
L 467.164947 -48.3572
L 468.126871 -48.3572
L 469.088795 -48.3572
L 470.050719 -48.3572
L 471.012643 -48.3572
L 471.974567 -48.3572
L 472.936491 -48.3572
L 473.898415 -48.3572
L 474.860339 -48.3572
L 475.822263 -48.3572
L 476.784187 -48.3572
L 477.746111 -48.3572
L 478.708035 -48.3572
L 479.669959 -48.3572
L 480.631883 -48.3572
L 481.593807 -48.3572
L 482.555731 -48.3572
L 483.517655 -48.3572
L 484.479579 -48.3572
L 485.441503 -48.3572
L 486.403427 -48.3572
L 487.365351 -48.3572
L 488.327276 -48.3572
L 489.2892 -48.3572
L 490.251124 -48.3572
L 491.213048 -48.3572
L 492.174972 -48.3572
L 493.136896 -48.3572
L 494.09882 -48.3572
L 495.060744 -48.3572
L 496.022668 -48.3572
L 496.984592 -48.3572
L 497.946516 -48.3572
L 498.90844 -48.3572
L 499.870364 -48.3572
L 500.832288 -48.3572
L 501.794212 -48.3572
L 502.756136 -48.3572
L 503.71806 -48.3572
L 504.679984 -48.3572
L 505.641908 -48.3572
L 506.603832 -48.3572
L 507.565756 -48.3572
L 508.52768 -48.3572
L 509.489604 -48.3572
L 510.451528 -48.3572
L 511.413453 -48.3572
L 512.375377 -48.3572
L 513.337301 -48.3572
L 514.299225 -48.3572
L 515.261149 -48.3572
L 516.223073 -48.3572
L 517.184997 -48.3572
L 518.146921 -48.3572
L 519.108845 -48.3572
L 520.070769 -48.3572
L 521.032693 -48.3572
L 521.994617 -48.3572
L 522.956541 -48.3572
L 523.918465 -48.3572
L 524.880389 -48.3572
L 525.842313 -48.3572
L 526.804237 -48.3572
L 527.766161 -48.3572
L 528.728085 -48.3572
L 529.690009 -48.3572
L 530.651933 -48.3572
L 531.613857 -48.3572
L 532.575781 -48.3572
L 533.537705 -48.3572
L 534.499629 -48.3572
L 535.461554 -48.3572
L 536.423478 -48.3572
L 537.385402 -48.3572
L 538.347326 -48.3572
L 539.30925 -48.3572
L 540.271174 -48.3572
L 541.233098 -48.3572
L 542.195022 -48.3572
L 543.156946 -48.3572
L 544.11887 -48.3572
L 545.080794 -48.3572
L 546.042718 -48.3572
L 547.004642 -48.3572
L 547.966566 -48.3572
L 548.92849 -48.3572
L 549.890414 -48.3572
L 550.852338 -48.3572
L 551.814262 -48.3572
L 552.776186 -48.3572
L 553.73811 -48.3572
L 554.700034 -48.3572
L 555.661958 -48.3572
L 556.623882 -48.3572
L 557.585806 -48.3572
L 558.547731 -48.3572
L 559.509655 -48.3572
L 560.471579 -48.3572
L 561.433503 -48.3572
L 562.395427 -48.3572
L 563.357351 -48.3572
L 564.319275 -48.3572
L 565.281199 -48.3572
L 566.243123 -48.3572
L 567.205047 -48.3572
L 568.166971 -48.3572
L 569.128895 -48.3572
L 570.090819 -48.3572
L 571.052743 -48.3572
L 572.014667 -48.3572
L 572.976591 -48.3572
L 573.938515 -48.3572
L 574.900439 -48.3572
L 575.862363 -48.3572
L 576.824287 -48.3572
L 577.786211 -48.3572
L 578.748135 -48.3572
L 579.710059 -48.3572
L 580.671983 -48.3572
L 581.633907 -48.3572
L 582.595832 -48.3572
L 583.557756 -48.3572
L 584.51968 -48.3572
L 585.481604 -48.3572
L 586.443528 -48.3572
L 587.405452 -48.3572
L 588.367376 -48.3572
L 589.3293 -48.3572
L 590.291224 -48.3572
L 591.253148 -48.3572
L 592.215072 -48.3572
L 593.176996 -48.3572
L 594.13892 -48.3572
L 595.100844 -48.3572
L 596.062768 -48.3572
L 597.024692 -48.3572
L 597.986616 -48.3572
L 598.94854 -48.3572
L 599.910464 -48.3572
L 600.872388 -48.3572
L 601.834312 -48.3572
L 602.796236 -48.3572
L 603.75816 -48.3572
L 604.720084 -48.3572
L 605.682009 -48.3572
L 606.643933 -48.3572
L 607.605857 -48.3572
L 608.567781 -48.3572
L 609.529705 -48.3572
L 610.491629 -48.3572
L 611.453553 -48.3572
L 612.415477 -48.3572
L 613.377401 -48.3572
L 614.339325 -48.3572
L 615.301249 -48.3572
L 616.263173 -48.3572
L 617.225097 -48.3572
L 618.187021 -48.3572
L 619.148945 -48.3572
L 620.110869 -48.3572
L 621.072793 -48.3572
L 622.034717 -48.3572
L 622.996641 -48.3572
L 623.958565 -48.3572
L 624.920489 -48.3572
L 625.882413 -48.3572
L 626.844337 -48.3572
L 627.806261 -48.3572
L 628.768185 -48.3572
L 629.73011 -48.3572
L 630.692034 -48.3572
L 631.653958 -48.3572
L 632.615882 -48.3572
L 633.577806 -48.3572
L 634.53973 -48.3572
L 635.501654 -48.3572
L 636.463578 -48.3572
L 637.425502 -48.3572
L 638.387426 -48.3572
L 639.34935 -48.3572
L 640.311274 -48.3572
L 641.273198 -48.3572
L 642.235122 -48.3572
L 643.197046 -48.3572
L 644.15897 -48.3572
L 645.120894 -48.3572
L 646.082818 -48.3572
L 647.044742 -48.3572
L 648.006666 -48.3572
L 648.96859 -48.3572
L 649.930514 -48.3572
L 650.892438 -48.3572
L 651.854362 -48.3572
L 652.816287 -48.3572
L 653.778211 -48.3572
L 654.740135 -48.3572
L 655.702059 -48.3572
L 656.663983 -48.3572
L 657.625907 -48.3572
L 658.587831 -48.3572
L 659.549755 -48.3572
L 660.511679 -48.3572
L 661.473603 -48.3572
L 662.435527 -48.3572
L 663.397451 -48.3572
L 664.359375 -48.3572
L 665.321299 -48.3572
L 666.283223 -48.3572
L 667.245147 -48.3572
L 668.207071 -48.3572
L 669.168995 -48.3572
L 670.130919 -48.3572
L 671.092843 -48.3572
L 672.054767 -48.3572
L 673.016691 -48.3572
L 673.978615 -48.3572
L 674.940539 -48.3572
L 675.902463 -48.3572
L 676.864388 -48.3572
L 677.826312 -48.3572
L 678.788236 -48.3572
L 679.75016 -48.3572
L 680.712084 -48.3572
L 681.674008 -48.3572
L 682.635932 -48.3572
L 683.597856 -48.3572
L 684.55978 -48.3572
L 685.521704 -48.3572
L 686.483628 -48.3572
L 687.445552 -48.3572
L 688.407476 -48.3572
L 689.3694 -48.3572
L 690.331324 -48.3572
L 691.293248 -48.3572
L 692.255172 -48.3572
L 693.217096 -48.3572
L 694.17902 -48.3572
L 695.140944 -48.3572
L 696.102868 -48.3572
L 697.064792 -48.3572
L 698.026716 -48.3572
L 698.98864 -48.3572
L 699.950565 -48.3572
L 700.912489 -48.3572
L 701.874413 -48.3572
L 702.836337 -48.3572
L 703.798261 -48.3572
L 704.760185 -48.3572
L 705.722109 -48.3572
L 706.684033 -48.3572
L 707.645957 -48.3572
L 708.607881 -48.3572
L 709.569805 -48.3572
L 710.531729 -48.3572
L 711.493653 -48.3572
L 712.455577 -48.3572
L 713.417501 -48.3572
L 714.379425 -48.3572
L 715.341349 -48.3572
L 716.303273 -48.3572
L 717.265197 -48.3572
L 718.227121 -48.3572
L 719.189045 -48.3572
L 720.150969 -48.3572
L 721.112893 -48.3572
L 722.074817 -48.3572
L 723.036741 -48.3572
L 723.998666 -48.3572
L 724.96059 -48.3572
L 725.922514 -48.3572
L 726.884438 -48.3572
L 727.846362 -48.3572
L 728.808286 -48.3572
L 728.808286 -265.802468
L 728.808286 -265.802468
L 727.846362 -265.794715
L 726.884438 -265.776921
L 725.922514 -265.749281
L 724.96059 -265.711988
L 723.998666 -265.665237
L 723.036741 -265.609223
L 722.074817 -265.544139
L 721.112893 -265.47018
L 720.150969 -265.387541
L 719.189045 -265.296416
L 718.227121 -265.196998
L 717.265197 -265.089483
L 716.303273 -264.974065
L 715.341349 -264.850938
L 714.379425 -264.720296
L 713.417501 -264.582334
L 712.455577 -264.437246
L 711.493653 -264.285227
L 710.531729 -264.12647
L 709.569805 -263.96117
L 708.607881 -263.789522
L 707.645957 -263.61172
L 706.684033 -263.427957
L 705.722109 -263.238429
L 704.760185 -263.04333
L 703.798261 -262.842854
L 702.836337 -262.637196
L 701.874413 -262.426549
L 700.912489 -262.211108
L 699.950565 -261.991068
L 698.98864 -261.766623
L 698.026716 -261.537966
L 697.064792 -261.305293
L 696.102868 -261.068798
L 695.140944 -260.828676
L 694.17902 -260.585119
L 693.217096 -260.338324
L 692.255172 -260.088483
L 691.293248 -259.835792
L 690.331324 -259.580445
L 689.3694 -259.322636
L 688.407476 -259.062559
L 687.445552 -258.80041
L 686.483628 -258.533713
L 685.521704 -258.234363
L 684.55978 -257.895651
L 683.597856 -257.518663
L 682.635932 -257.104484
L 681.674008 -256.6542
L 680.712084 -256.168898
L 679.75016 -255.649663
L 678.788236 -255.097581
L 677.826312 -254.513738
L 676.864388 -253.89922
L 675.902463 -253.255113
L 674.940539 -252.582502
L 673.978615 -251.882474
L 673.016691 -251.156113
L 672.054767 -250.404508
L 671.092843 -249.628742
L 670.130919 -248.829902
L 669.168995 -248.009074
L 668.207071 -247.167344
L 667.245147 -246.305797
L 666.283223 -245.42552
L 665.321299 -244.527598
L 664.359375 -243.613117
L 663.397451 -242.683164
L 662.435527 -241.738823
L 661.473603 -240.781182
L 660.511679 -239.811325
L 659.549755 -238.830338
L 658.587831 -237.839309
L 657.625907 -236.839321
L 656.663983 -235.831462
L 655.702059 -234.816817
L 654.740135 -233.796472
L 653.778211 -232.771513
L 652.816287 -231.743026
L 651.854362 -230.712096
L 650.892438 -229.67981
L 649.930514 -228.647254
L 648.96859 -227.615512
L 648.006666 -226.585672
L 647.044742 -225.558819
L 646.082818 -224.536039
L 645.120894 -223.518418
L 644.15897 -222.507041
L 643.197046 -221.502995
L 642.235122 -220.507365
L 641.273198 -219.521238
L 640.311274 -218.545699
L 639.34935 -217.581834
L 638.387426 -216.630729
L 637.425502 -215.693469
L 636.463578 -214.771142
L 635.501654 -213.864832
L 634.53973 -212.975625
L 633.577806 -212.104608
L 632.615882 -211.252866
L 631.653958 -210.421486
L 630.692034 -209.611552
L 629.73011 -208.824151
L 628.768185 -208.056996
L 627.806261 -207.292091
L 626.844337 -206.526703
L 625.882413 -205.760936
L 624.920489 -204.994891
L 623.958565 -204.228673
L 622.996641 -203.462385
L 622.034717 -202.696128
L 621.072793 -201.930008
L 620.110869 -201.164125
L 619.148945 -200.398584
L 618.187021 -199.633488
L 617.225097 -198.868939
L 616.263173 -198.105041
L 615.301249 -197.341896
L 614.339325 -196.579609
L 613.377401 -195.818281
L 612.415477 -195.058015
L 611.453553 -194.298916
L 610.491629 -193.541086
L 609.529705 -192.784627
L 608.567781 -192.029644
L 607.605857 -191.276238
L 606.643933 -190.524514
L 605.682009 -189.774574
L 604.720084 -189.026521
L 603.75816 -188.280458
L 602.796236 -187.536489
L 601.834312 -186.794716
L 600.872388 -186.055242
L 599.910464 -185.318171
L 598.94854 -184.583605
L 597.986616 -183.851647
L 597.024692 -183.122401
L 596.062768 -182.39597
L 595.100844 -181.672457
L 594.13892 -180.951964
L 593.176996 -180.234594
L 592.215072 -179.520452
L 591.253148 -178.80964
L 590.291224 -178.10226
L 589.3293 -177.398416
L 588.367376 -176.698211
L 587.405452 -176.001748
L 586.443528 -175.309131
L 585.481604 -174.620461
L 584.51968 -173.935843
L 583.557756 -173.255378
L 582.595832 -172.579171
L 581.633907 -171.907324
L 580.671983 -171.239941
L 579.710059 -170.577124
L 578.748135 -169.918976
L 577.786211 -169.265601
L 576.824287 -168.617101
L 575.862363 -167.97358
L 574.900439 -167.335141
L 573.938515 -166.701886
L 572.976591 -166.073918
L 572.014667 -165.451342
L 571.052743 -164.834259
L 570.090819 -164.222773
L 569.128895 -163.616988
L 568.166971 -163.017004
L 567.205047 -162.422927
L 566.243123 -161.834859
L 565.281199 -161.252903
L 564.319275 -160.677163
L 563.357351 -160.10774
L 562.395427 -159.544738
L 561.433503 -158.988261
L 560.471579 -158.438411
L 559.509655 -157.893537
L 558.547731 -157.348686
L 557.585806 -156.803695
L 556.623882 -156.258723
L 555.661958 -155.71393
L 554.700034 -155.169476
L 553.73811 -154.62552
L 552.776186 -154.082222
L 551.814262 -153.539742
L 550.852338 -152.998239
L 549.890414 -152.457873
L 548.92849 -151.918804
L 547.966566 -151.381192
L 547.004642 -150.845196
L 546.042718 -150.310975
L 545.080794 -149.77869
L 544.11887 -149.248501
L 543.156946 -148.720566
L 542.195022 -148.195046
L 541.233098 -147.6721
L 540.271174 -147.151888
L 539.30925 -146.63457
L 538.347326 -146.120305
L 537.385402 -145.609253
L 536.423478 -145.101574
L 535.461554 -144.597427
L 534.499629 -144.096972
L 533.537705 -143.600369
L 532.575781 -143.107778
L 531.613857 -142.619358
L 530.651933 -142.135268
L 529.690009 -141.655669
L 528.728085 -141.18072
L 527.766161 -140.710582
L 526.804237 -140.245412
L 525.842313 -139.785372
L 524.880389 -139.330621
L 523.918465 -138.881319
L 522.956541 -138.437625
L 521.994617 -137.999699
L 521.032693 -137.5677
L 520.070769 -137.141789
L 519.108845 -136.722126
L 518.146921 -136.308868
L 517.184997 -135.902178
L 516.223073 -135.502213
L 515.261149 -135.109135
L 514.299225 -134.723101
L 513.337301 -134.344273
L 512.375377 -133.97281
L 511.413453 -133.608872
L 510.451528 -133.252617
L 509.489604 -132.904207
L 508.52768 -132.5638
L 507.565756 -132.231557
L 506.603832 -131.907636
L 505.641908 -131.592199
L 504.679984 -131.285403
L 503.71806 -130.98741
L 502.756136 -130.698379
L 501.794212 -130.418469
L 500.832288 -130.14784
L 499.870364 -129.886651
L 498.90844 -129.635064
L 497.946516 -129.389861
L 496.984592 -129.145512
L 496.022668 -128.902033
L 495.060744 -128.65953
L 494.09882 -128.418112
L 493.136896 -128.177883
L 492.174972 -127.938952
L 491.213048 -127.701425
L 490.251124 -127.465408
L 489.2892 -127.231008
L 488.327276 -126.998332
L 487.365351 -126.767487
L 486.403427 -126.53858
L 485.441503 -126.311716
L 484.479579 -126.087003
L 483.517655 -125.864548
L 482.555731 -125.644457
L 481.593807 -125.426836
L 480.631883 -125.211794
L 479.669959 -124.999436
L 478.708035 -124.789869
L 477.746111 -124.583199
L 476.784187 -124.379535
L 475.822263 -124.178981
L 474.860339 -123.981645
L 473.898415 -123.787634
L 472.936491 -123.597055
L 471.974567 -123.410013
L 471.012643 -123.226616
L 470.050719 -123.046971
L 469.088795 -122.871184
L 468.126871 -122.699362
L 467.164947 -122.531611
L 466.203023 -122.368039
L 465.241099 -122.208752
L 464.279174 -122.053857
L 463.31725 -121.90346
L 462.355326 -121.757669
L 461.393402 -121.616589
L 460.431478 -121.480328
L 459.469554 -121.348993
L 458.50763 -121.222689
L 457.545706 -121.101525
L 456.583782 -120.985605
L 455.621858 -120.875038
L 454.659934 -120.76993
L 453.69801 -120.670388
L 452.736086 -120.576518
L 451.774162 -120.488427
L 450.812238 -120.406222
L 449.850314 -120.330009
L 448.88839 -120.259895
L 447.926466 -120.195988
L 446.964542 -120.138393
L 446.002618 -120.087217
L 445.040694 -120.042568
z
" style="stroke: #e9c46a; stroke-opacity: 0.22"/>
    </defs>
    <g clip-path="url(#pbebffb096b)">
     <use xlink:href="#md8a74e568a" x="0" y="378.8692" style="fill: #e9c46a; fill-opacity: 0.22; stroke: #e9c46a; stroke-opacity: 0.22"/>
    </g>
   </g>
   <g id="FillBetweenPolyCollection_2">
    <defs>
     <path id="mfedcb215de" d="M 729.77021 -265.779396
L 729.77021 -48.3572
L 730.732134 -48.3572
L 731.694058 -48.3572
L 732.655982 -48.3572
L 733.617906 -48.3572
L 734.57983 -48.3572
L 735.541754 -48.3572
L 736.503678 -48.3572
L 737.465602 -48.3572
L 738.427526 -48.3572
L 739.38945 -48.3572
L 740.351374 -48.3572
L 741.313298 -48.3572
L 742.275222 -48.3572
L 743.237146 -48.3572
L 744.19907 -48.3572
L 745.160994 -48.3572
L 746.122918 -48.3572
L 747.084843 -48.3572
L 748.046767 -48.3572
L 749.008691 -48.3572
L 749.970615 -48.3572
L 750.932539 -48.3572
L 751.894463 -48.3572
L 752.856387 -48.3572
L 753.818311 -48.3572
L 754.780235 -48.3572
L 755.742159 -48.3572
L 756.704083 -48.3572
L 757.666007 -48.3572
L 758.627931 -48.3572
L 759.589855 -48.3572
L 760.551779 -48.3572
L 761.513703 -48.3572
L 762.475627 -48.3572
L 763.437551 -48.3572
L 764.399475 -48.3572
L 765.361399 -48.3572
L 766.323323 -48.3572
L 767.285247 -48.3572
L 768.247171 -48.3572
L 769.209095 -48.3572
L 770.171019 -48.3572
L 771.132944 -48.3572
L 772.094868 -48.3572
L 773.056792 -48.3572
L 774.018716 -48.3572
L 774.98064 -48.3572
L 775.942564 -48.3572
L 776.904488 -48.3572
L 777.866412 -48.3572
L 778.828336 -48.3572
L 779.79026 -48.3572
L 780.752184 -48.3572
L 781.714108 -48.3572
L 782.676032 -48.3572
L 783.637956 -48.3572
L 784.59988 -48.3572
L 785.561804 -48.3572
L 786.523728 -48.3572
L 787.485652 -48.3572
L 788.447576 -48.3572
L 789.4095 -48.3572
L 790.371424 -48.3572
L 791.333348 -48.3572
L 792.295272 -48.3572
L 793.257196 -48.3572
L 794.219121 -48.3572
L 795.181045 -48.3572
L 796.142969 -48.3572
L 797.104893 -48.3572
L 798.066817 -48.3572
L 799.028741 -48.3572
L 799.990665 -48.3572
L 800.952589 -48.3572
L 801.914513 -48.3572
L 802.876437 -48.3572
L 803.838361 -48.3572
L 804.800285 -48.3572
L 805.762209 -48.3572
L 806.724133 -48.3572
L 807.686057 -48.3572
L 808.647981 -48.3572
L 809.609905 -48.3572
L 810.571829 -48.3572
L 811.533753 -48.3572
L 812.495677 -48.3572
L 813.457601 -48.3572
L 814.419525 -48.3572
L 815.381449 -48.3572
L 816.343373 -48.3572
L 817.305297 -48.3572
L 818.267222 -48.3572
L 819.229146 -48.3572
L 820.19107 -48.3572
L 821.152994 -48.3572
L 822.114918 -48.3572
L 823.076842 -48.3572
L 824.038766 -48.3572
L 825.00069 -48.3572
L 825.962614 -48.3572
L 826.924538 -48.3572
L 827.886462 -48.3572
L 828.848386 -48.3572
L 828.848386 -134.379641
L 828.848386 -134.379641
L 827.886462 -135.957367
L 826.924538 -137.529435
L 825.962614 -139.095822
L 825.00069 -140.656506
L 824.038766 -142.211465
L 823.076842 -143.760678
L 822.114918 -145.304121
L 821.152994 -146.841774
L 820.19107 -148.373613
L 819.229146 -149.899617
L 818.267222 -151.419764
L 817.305297 -152.934031
L 816.343373 -154.442397
L 815.381449 -155.944839
L 814.419525 -157.441335
L 813.457601 -158.931864
L 812.495677 -160.416402
L 811.533753 -161.894929
L 810.571829 -163.367422
L 809.609905 -164.833858
L 808.647981 -166.294217
L 807.686057 -167.748475
L 806.724133 -169.19661
L 805.762209 -170.638601
L 804.800285 -172.074426
L 803.838361 -173.504062
L 802.876437 -174.927487
L 801.914513 -176.344679
L 800.952589 -177.755617
L 799.990665 -179.160277
L 799.028741 -180.558638
L 798.066817 -181.950678
L 797.104893 -183.336375
L 796.142969 -184.715706
L 795.181045 -186.08865
L 794.219121 -187.455185
L 793.257196 -188.815287
L 792.295272 -190.168936
L 791.333348 -191.516109
L 790.371424 -192.856785
L 789.4095 -194.19094
L 788.447576 -195.518553
L 787.485652 -196.839602
L 786.523728 -198.154065
L 785.561804 -199.46192
L 784.59988 -200.763144
L 783.637956 -202.057715
L 782.676032 -203.345612
L 781.714108 -204.626812
L 780.752184 -205.901294
L 779.79026 -207.169034
L 778.828336 -208.430012
L 777.866412 -209.684204
L 776.904488 -210.93159
L 775.942564 -212.172146
L 774.98064 -213.406258
L 774.018716 -214.659094
L 773.056792 -215.943779
L 772.094868 -217.257786
L 771.132944 -218.598593
L 770.171019 -219.963674
L 769.209095 -221.350504
L 768.247171 -222.756558
L 767.285247 -224.179313
L 766.323323 -225.616242
L 765.361399 -227.064822
L 764.399475 -228.522528
L 763.437551 -229.986835
L 762.475627 -231.455219
L 761.513703 -232.925154
L 760.551779 -234.394116
L 759.589855 -235.859581
L 758.627931 -237.319023
L 757.666007 -238.769918
L 756.704083 -240.209741
L 755.742159 -241.635968
L 754.780235 -243.046074
L 753.818311 -244.437534
L 752.856387 -245.807823
L 751.894463 -247.154418
L 750.932539 -248.474792
L 749.970615 -249.766421
L 749.008691 -251.026782
L 748.046767 -252.253348
L 747.084843 -253.443595
L 746.122918 -254.594999
L 745.160994 -255.705035
L 744.19907 -256.771179
L 743.237146 -257.790904
L 742.275222 -258.761688
L 741.313298 -259.681004
L 740.351374 -260.546329
L 739.38945 -261.355138
L 738.427526 -262.104906
L 737.465602 -262.793108
L 736.503678 -263.41722
L 735.541754 -263.974716
L 734.57983 -264.463073
L 733.617906 -264.879765
L 732.655982 -265.222268
L 731.694058 -265.488058
L 730.732134 -265.674609
L 729.77021 -265.779396
z
" style="stroke: #457b9d; stroke-opacity: 0.12"/>
    </defs>
    <g clip-path="url(#pbebffb096b)">
     <use xlink:href="#mfedcb215de" x="0" y="378.8692" style="fill: #457b9d; fill-opacity: 0.12; stroke: #457b9d; stroke-opacity: 0.12"/>
    </g>
   </g>
   <g id="matplotlib.axis_1">
    <g id="text_8">
     <text style="font-size: 10px; font-family: 'Hiragino Sans'; text-anchor: middle; fill: #17324d" x="644.620694" y="342.221375" transform="rotate(-0 644.620694 342.221375)">温度  →</text>
    </g>
   </g>
   <g id="matplotlib.axis_2">
    <g id="text_9">
     <text style="font-size: 10px; font-family: 'Hiragino Sans'; text-anchor: middle; fill: #17324d" x="438.990694" y="208.646875" transform="rotate(-90 438.990694 208.646875)">降伏強度  →</text>
    </g>
   </g>
   <g id="line2d_4">
    <path d="M 445.040694 258.826632
L 450.812238 258.462978
L 456.583782 257.883595
L 463.31725 256.96574
L 470.050719 255.822229
L 477.746111 254.286001
L 486.403427 252.33062
L 497.946516 249.479339
L 502.756136 248.170821
L 507.565756 246.637643
L 512.375377 244.89639
L 518.146921 242.560332
L 523.918465 239.987881
L 530.651933 236.733932
L 538.347326 232.748895
L 547.966566 227.488008
L 563.357351 218.76146
L 570.090819 214.646427
L 576.824287 210.252099
L 584.51968 204.933357
L 592.215072 199.348748
L 601.834312 192.074484
L 613.377401 183.050919
L 631.653958 168.447714
L 635.501654 165.004368
L 640.311274 160.323501
L 646.082818 154.333161
L 661.473603 138.088018
L 666.283223 133.44368
L 670.130919 130.039298
L 673.978615 126.986726
L 676.864388 124.96998
L 679.75016 123.219537
L 682.635932 121.764716
L 685.521704 120.634837
L 689.3694 119.546564
L 698.026716 117.331234
L 704.760185 115.82587
L 710.531729 114.74273
L 716.303273 113.895135
L 721.112893 113.39902
L 725.922514 113.119919
L 729.77021 113.089804
L 731.694058 113.381142
L 733.617906 113.989435
L 735.541754 114.894484
L 737.465602 116.076092
L 739.38945 117.514062
L 741.313298 119.188196
L 744.19907 122.098021
L 747.084843 125.425605
L 749.970615 129.102779
L 753.818311 134.431666
L 758.627931 141.550177
L 770.171019 158.905526
L 774.018716 164.210106
L 785.561804 179.40728
L 793.257196 190.053913
L 800.952589 201.113583
L 808.647981 212.574983
L 816.343373 224.426803
L 824.038766 236.657735
L 828.848386 244.489559
L 828.848386 244.489559
" clip-path="url(#pbebffb096b)" style="fill: none; stroke: #17324d; stroke-width: 3.2; stroke-linecap: square"/>
   </g>
   <g id="line2d_5">
    <path d="M 729.058386 330.512
L 729.058386 86.78175
" clip-path="url(#pbebffb096b)" style="fill: none; stroke-dasharray: 1.4,2.31; stroke-dashoffset: 0; stroke: #64748b; stroke-width: 1.4"/>
   </g>
   <g id="patch_8">
    <path d="M 445.040694 330.512
L 445.040694 86.78175
" style="fill: none; stroke: #17324d; stroke-width: 0.8; stroke-linejoin: miter; stroke-linecap: square"/>
   </g>
   <g id="patch_9">
    <path d="M 445.040694 330.512
L 844.200694 330.512
" style="fill: none; stroke: #17324d; stroke-width: 0.8; stroke-linejoin: miter; stroke-linecap: square"/>
   </g>
   <g id="patch_10">
    <path d="M 579.918717 125.335208
Q 611.406828 143.785088 641.930298 161.669754
" style="fill: none; stroke: #f4a261; stroke-linecap: round"/>
    <path d="M 639.490177 157.92198
L 641.930298 161.669754
L 637.468006 161.373186
" style="fill: none; stroke: #f4a261; stroke-linecap: round"/>
   </g>
   <g id="text_10">
    <text style="font-weight: 700; font-size: 10px; font-family: 'Hiragino Sans'; fill: #f4a261" transform="translate(511.085549 108.639922)">K–W lockが増える</text>
    <text style="font-weight: 700; font-size: 10px; font-family: 'Hiragino Sans'; fill: #f4a261" transform="translate(499.680081 120.234922)">→ 温度とともに強度上昇</text>
   </g>
   <g id="patch_11">
    <path d="M 724.293038 236.425675
Q 752.822802 208.893493 780.548058 182.137689
" style="fill: none; stroke: #457b9d; stroke-linecap: round"/>
    <path d="M 776.280928 183.476196
L 780.548058 182.137689
L 779.058585 186.354498
" style="fill: none; stroke: #457b9d; stroke-linecap: round"/>
   </g>
   <g id="text_11">
    <text style="font-size: 10px; font-family: 'Hiragino Sans'; fill: #457b9d" transform="translate(619.528939 247.525382)">さらに高温：lock解除・上昇運動・拡散</text>
    <text style="font-size: 10px; font-family: 'Hiragino Sans'; fill: #457b9d" transform="translate(673.203158 258.826632)">→ 通常の熱軟化</text>
   </g>
   <g id="text_12">
    <!-- $\{111\}$上のすべり -->
    <g style="fill: #64748b" transform="translate(453.985694 277.94273)">
     <text>
      <tspan x="0" y="-0.53125" style="font-size: 10px; font-family: 'DejaVu Sans'; fill: #64748b">{</tspan>
      <tspan x="6.362305" y="-0.53125" style="font-size: 10px; font-family: 'DejaVu Sans'; fill: #64748b">1</tspan>
      <tspan x="12.724609" y="-0.53125" style="font-size: 10px; font-family: 'DejaVu Sans'; fill: #64748b">1</tspan>
      <tspan x="19.086914" y="-0.53125" style="font-size: 10px; font-family: 'DejaVu Sans'; fill: #64748b">1</tspan>
      <tspan x="25.449219" y="-0.53125" style="font-size: 10px; font-family: 'DejaVu Sans'; fill: #64748b">}</tspan>
      <tspan x="31.811523" y="-0.53125" style="font-size: 10px; font-family: 'Hiragino Sans'; fill: #64748b">上</tspan>
      <tspan x="41.811508" y="-0.53125" style="font-size: 10px; font-family: 'Hiragino Sans'; fill: #64748b">の</tspan>
      <tspan x="51.811493" y="-0.53125" style="font-size: 10px; font-family: 'Hiragino Sans'; fill: #64748b">す</tspan>
      <tspan x="61.811478" y="-0.53125" style="font-size: 10px; font-family: 'Hiragino Sans'; fill: #64748b">べ</tspan>
      <tspan x="71.811462" y="-0.53125" style="font-size: 10px; font-family: 'Hiragino Sans'; fill: #64748b">り</tspan>
     </text>
    </g>
   </g>
   <g id="text_13">
    <text style="font-weight: 700; font-size: 13px; font-family: 'Hiragino Sans'; text-anchor: middle; fill: #17324d" x="644.620694" y="80.78175" transform="rotate(-0 644.620694 80.78175)">逆温度依存性は有限の温度域で現れる</text>
   </g>
   <g id="PathCollection_1">
    <defs>
     <path id="mc4e7dccd8c" d="M 0 3.708099
C 0.983399 3.708099 1.926654 3.317391 2.622022 2.622022
C 3.317391 1.926654 3.708099 0.983399 3.708099 0
C 3.708099 -0.983399 3.317391 -1.926654 2.622022 -2.622022
C 1.926654 -3.317391 0.983399 -3.708099 0 -3.708099
C -0.983399 -3.708099 -1.926654 -3.317391 -2.622022 -2.622022
C -3.317391 -1.926654 -3.708099 -0.983399 -3.708099 0
C -3.708099 0.983399 -3.317391 1.926654 -2.622022 2.622022
C -1.926654 3.317391 -0.983399 3.708099 0 3.708099
z
" style="stroke: #e76f51"/>
    </defs>
    <g clip-path="url(#pbebffb096b)">
     <use xlink:href="#mc4e7dccd8c" x="729.058386" y="113.066385" style="fill: #e76f51; stroke: #e76f51"/>
    </g>
   </g>
  </g>
  <g id="text_14">
   <text style="font-weight: 700; font-size: 15px; font-family: 'Hiragino Sans'; text-anchor: middle; fill: #17324d" x="423.000694" y="19.080469" transform="rotate(-0 423.000694 19.080469)">Kear–Wilsdorf機構：昇温が転位を動きにくくする</text>
  </g>
  <g id="text_15">
   <text style="font-size: 10px; font-family: 'Hiragino Sans'; text-anchor: middle; fill: #64748b" x="423.000694" y="369.6192" transform="rotate(-0 423.000694 369.6192)">教育用模式図：面の角度、転位芯、強度―温度曲線は定量データではない。</text>
  </g>
 </g>
 <defs>
  <clipPath id="p7da7fc3ce5">
   <rect x="7.2" y="86.78175" width="388.361387" height="243.73025"/>
  </clipPath>
  <clipPath id="pbebffb096b">
   <rect x="445.040694" y="86.78175" width="399.16" height="243.73025"/>
  </clipPath>
 </defs>
</svg>
