<?xml version="1.0" encoding="utf-8" standalone="no"?>
<!DOCTYPE svg PUBLIC "-//W3C//DTD SVG 1.1//EN"
  "http://www.w3.org/Graphics/SVG/1.1/DTD/svg11.dtd">
<svg xmlns:xlink="http://www.w3.org/1999/xlink" width="753.31875pt" height="342.288pt" viewBox="0 0 753.31875 342.288" xmlns="http://www.w3.org/2000/svg" version="1.1">
 <metadata>
  <rdf:RDF xmlns:dc="http://purl.org/dc/elements/1.1/" xmlns:cc="http://creativecommons.org/ns#" xmlns:rdf="http://www.w3.org/1999/02/22-rdf-syntax-ns#">
   <cc:Work>
    <dc:type rdf:resource="http://purl.org/dc/dcmitype/StillImage"/>
    <dc:date>2026-07-24T15:29:43.646843</dc:date>
    <dc:format>image/svg+xml</dc:format>
    <dc:creator>
     <cc:Agent>
      <dc:title>Matplotlib v3.10.9, https://matplotlib.org/</dc:title>
     </cc:Agent>
    </dc:creator>
   </cc:Work>
  </rdf:RDF>
 </metadata>
 <defs>
  <style type="text/css">*{stroke-linejoin: round; stroke-linecap: butt}</style>
 </defs>
 <g id="figure_1">
  <g id="patch_1">
   <path d="M 0 342.288 
L 753.31875 342.288 
L 753.31875 0 
L 0 0 
z
" style="fill: #ffffff"/>
  </g>
  <g id="axes_1">
   <g id="patch_2">
    <path d="M 27.953852 288.993754 
C 29.1875 288.993754 30.370788 288.50362 31.243109 287.631298 
C 32.115431 286.758977 32.605565 285.575689 32.605565 284.342041 
C 32.605565 283.108392 32.115431 281.925104 31.243109 281.052783 
C 30.370788 280.180462 29.1875 279.690328 27.953852 279.690328 
C 26.720203 279.690328 25.536915 280.180462 24.664594 281.052783 
C 23.792272 281.925104 23.302139 283.108392 23.302139 284.342041 
C 23.302139 285.575689 23.792272 286.758977 24.664594 287.631298 
C 25.536915 288.50362 26.720203 288.993754 27.953852 288.993754 
z
" clip-path="url(#p4f60362544)" style="fill: #e76f51; stroke: #ffffff; stroke-width: 0.5; stroke-linejoin: miter"/>
   </g>
   <g id="patch_3">
    <path d="M 27.953852 246.705454 
C 29.1875 246.705454 30.370788 246.21532 31.243109 245.342999 
C 32.115431 244.470678 32.605565 243.28739 32.605565 242.053741 
C 32.605565 240.820092 32.115431 239.636805 31.243109 238.764483 
C 30.370788 237.892162 29.1875 237.402028 27.953852 237.402028 
C 26.720203 237.402028 25.536915 237.892162 24.664594 238.764483 
C 23.792272 239.636805 23.302139 240.820092 23.302139 242.053741 
C 23.302139 243.28739 23.792272 244.470678 24.664594 245.342999 
C 25.536915 246.21532 26.720203 246.705454 27.953852 246.705454 
z
" clip-path="url(#p4f60362544)" style="fill: #457b9d; stroke: #ffffff; stroke-width: 0.5; stroke-linejoin: miter"/>
   </g>
   <g id="patch_4">
    <path d="M 27.953852 204.417155 
C 29.1875 204.417155 30.370788 203.927021 31.243109 203.054699 
C 32.115431 202.182378 32.605565 200.99909 32.605565 199.765442 
C 32.605565 198.531793 32.115431 197.348505 31.243109 196.476184 
C 30.370788 195.603863 29.1875 195.113729 27.953852 195.113729 
C 26.720203 195.113729 25.536915 195.603863 24.664594 196.476184 
C 23.792272 197.348505 23.302139 198.531793 23.302139 199.765442 
C 23.302139 200.99909 23.792272 202.182378 24.664594 203.054699 
C 25.536915 203.927021 26.720203 204.417155 27.953852 204.417155 
z
" clip-path="url(#p4f60362544)" style="fill: #e76f51; stroke: #ffffff; stroke-width: 0.5; stroke-linejoin: miter"/>
   </g>
   <g id="patch_5">
    <path d="M 27.953852 162.128855 
C 29.1875 162.128855 30.370788 161.638721 31.243109 160.7664 
C 32.115431 159.894079 32.605565 158.710791 32.605565 157.477142 
C 32.605565 156.243494 32.115431 155.060206 31.243109 154.187884 
C 30.370788 153.315563 29.1875 152.825429 27.953852 152.825429 
C 26.720203 152.825429 25.536915 153.315563 24.664594 154.187884 
C 23.792272 155.060206 23.302139 156.243494 23.302139 157.477142 
C 23.302139 158.710791 23.792272 159.894079 24.664594 160.7664 
C 25.536915 161.638721 26.720203 162.128855 27.953852 162.128855 
z
" clip-path="url(#p4f60362544)" style="fill: #457b9d; stroke: #ffffff; stroke-width: 0.5; stroke-linejoin: miter"/>
   </g>
   <g id="patch_6">
    <path d="M 27.953852 119.840556 
C 29.1875 119.840556 30.370788 119.350422 31.243109 118.478101 
C 32.115431 117.605779 32.605565 116.422491 32.605565 115.188843 
C 32.605565 113.955194 32.115431 112.771906 31.243109 111.899585 
C 30.370788 111.027264 29.1875 110.53713 27.953852 110.53713 
C 26.720203 110.53713 25.536915 111.027264 24.664594 111.899585 
C 23.792272 112.771906 23.302139 113.955194 23.302139 115.188843 
C 23.302139 116.422491 23.792272 117.605779 24.664594 118.478101 
C 25.536915 119.350422 26.720203 119.840556 27.953852 119.840556 
z
" clip-path="url(#p4f60362544)" style="fill: #e76f51; stroke: #ffffff; stroke-width: 0.5; stroke-linejoin: miter"/>
   </g>
   <g id="patch_7">
    <path d="M 70.242151 288.993754 
C 71.4758 288.993754 72.659087 288.50362 73.531409 287.631298 
C 74.40373 286.758977 74.893864 285.575689 74.893864 284.342041 
C 74.893864 283.108392 74.40373 281.925104 73.531409 281.052783 
C 72.659087 280.180462 71.4758 279.690328 70.242151 279.690328 
C 69.008502 279.690328 67.825215 280.180462 66.952893 281.052783 
C 66.080572 281.925104 65.590438 283.108392 65.590438 284.342041 
C 65.590438 285.575689 66.080572 286.758977 66.952893 287.631298 
C 67.825215 288.50362 69.008502 288.993754 70.242151 288.993754 
z
" clip-path="url(#p4f60362544)" style="fill: #457b9d; stroke: #ffffff; stroke-width: 0.5; stroke-linejoin: miter"/>
   </g>
   <g id="patch_8">
    <path d="M 70.242151 246.705454 
C 71.4758 246.705454 72.659087 246.21532 73.531409 245.342999 
C 74.40373 244.470678 74.893864 243.28739 74.893864 242.053741 
C 74.893864 240.820092 74.40373 239.636805 73.531409 238.764483 
C 72.659087 237.892162 71.4758 237.402028 70.242151 237.402028 
C 69.008502 237.402028 67.825215 237.892162 66.952893 238.764483 
C 66.080572 239.636805 65.590438 240.820092 65.590438 242.053741 
C 65.590438 243.28739 66.080572 244.470678 66.952893 245.342999 
C 67.825215 246.21532 69.008502 246.705454 70.242151 246.705454 
z
" clip-path="url(#p4f60362544)" style="fill: #457b9d; stroke: #ffffff; stroke-width: 0.5; stroke-linejoin: miter"/>
   </g>
   <g id="patch_9">
    <path d="M 70.242151 204.417155 
C 71.4758 204.417155 72.659087 203.927021 73.531409 203.054699 
C 74.40373 202.182378 74.893864 200.99909 74.893864 199.765442 
C 74.893864 198.531793 74.40373 197.348505 73.531409 196.476184 
C 72.659087 195.603863 71.4758 195.113729 70.242151 195.113729 
C 69.008502 195.113729 67.825215 195.603863 66.952893 196.476184 
C 66.080572 197.348505 65.590438 198.531793 65.590438 199.765442 
C 65.590438 200.99909 66.080572 202.182378 66.952893 203.054699 
C 67.825215 203.927021 69.008502 204.417155 70.242151 204.417155 
z
" clip-path="url(#p4f60362544)" style="fill: #457b9d; stroke: #ffffff; stroke-width: 0.5; stroke-linejoin: miter"/>
   </g>
   <g id="patch_10">
    <path d="M 70.242151 162.128855 
C 71.4758 162.128855 72.659087 161.638721 73.531409 160.7664 
C 74.40373 159.894079 74.893864 158.710791 74.893864 157.477142 
C 74.893864 156.243494 74.40373 155.060206 73.531409 154.187884 
C 72.659087 153.315563 71.4758 152.825429 70.242151 152.825429 
C 69.008502 152.825429 67.825215 153.315563 66.952893 154.187884 
C 66.080572 155.060206 65.590438 156.243494 65.590438 157.477142 
C 65.590438 158.710791 66.080572 159.894079 66.952893 160.7664 
C 67.825215 161.638721 69.008502 162.128855 70.242151 162.128855 
z
" clip-path="url(#p4f60362544)" style="fill: #457b9d; stroke: #ffffff; stroke-width: 0.5; stroke-linejoin: miter"/>
   </g>
   <g id="patch_11">
    <path d="M 70.242151 119.840556 
C 71.4758 119.840556 72.659087 119.350422 73.531409 118.478101 
C 74.40373 117.605779 74.893864 116.422491 74.893864 115.188843 
C 74.893864 113.955194 74.40373 112.771906 73.531409 111.899585 
C 72.659087 111.027264 71.4758 110.53713 70.242151 110.53713 
C 69.008502 110.53713 67.825215 111.027264 66.952893 111.899585 
C 66.080572 112.771906 65.590438 113.955194 65.590438 115.188843 
C 65.590438 116.422491 66.080572 117.605779 66.952893 118.478101 
C 67.825215 119.350422 69.008502 119.840556 70.242151 119.840556 
z
" clip-path="url(#p4f60362544)" style="fill: #457b9d; stroke: #ffffff; stroke-width: 0.5; stroke-linejoin: miter"/>
   </g>
   <g id="patch_12">
    <path d="M 112.530451 288.993754 
C 113.764099 288.993754 114.947387 288.50362 115.819708 287.631298 
C 116.69203 286.758977 117.182163 285.575689 117.182163 284.342041 
C 117.182163 283.108392 116.69203 281.925104 115.819708 281.052783 
C 114.947387 280.180462 113.764099 279.690328 112.530451 279.690328 
C 111.296802 279.690328 110.113514 280.180462 109.241193 281.052783 
C 108.368871 281.925104 107.878738 283.108392 107.878738 284.342041 
C 107.878738 285.575689 108.368871 286.758977 109.241193 287.631298 
C 110.113514 288.50362 111.296802 288.993754 112.530451 288.993754 
z
" clip-path="url(#p4f60362544)" style="fill: #e76f51; stroke: #ffffff; stroke-width: 0.5; stroke-linejoin: miter"/>
   </g>
   <g id="patch_13">
    <path d="M 112.530451 246.705454 
C 113.764099 246.705454 114.947387 246.21532 115.819708 245.342999 
C 116.69203 244.470678 117.182163 243.28739 117.182163 242.053741 
C 117.182163 240.820092 116.69203 239.636805 115.819708 238.764483 
C 114.947387 237.892162 113.764099 237.402028 112.530451 237.402028 
C 111.296802 237.402028 110.113514 237.892162 109.241193 238.764483 
C 108.368871 239.636805 107.878738 240.820092 107.878738 242.053741 
C 107.878738 243.28739 108.368871 244.470678 109.241193 245.342999 
C 110.113514 246.21532 111.296802 246.705454 112.530451 246.705454 
z
" clip-path="url(#p4f60362544)" style="fill: #457b9d; stroke: #ffffff; stroke-width: 0.5; stroke-linejoin: miter"/>
   </g>
   <g id="patch_14">
    <path d="M 112.530451 204.417155 
C 113.764099 204.417155 114.947387 203.927021 115.819708 203.054699 
C 116.69203 202.182378 117.182163 200.99909 117.182163 199.765442 
C 117.182163 198.531793 116.69203 197.348505 115.819708 196.476184 
C 114.947387 195.603863 113.764099 195.113729 112.530451 195.113729 
C 111.296802 195.113729 110.113514 195.603863 109.241193 196.476184 
C 108.368871 197.348505 107.878738 198.531793 107.878738 199.765442 
C 107.878738 200.99909 108.368871 202.182378 109.241193 203.054699 
C 110.113514 203.927021 111.296802 204.417155 112.530451 204.417155 
z
" clip-path="url(#p4f60362544)" style="fill: #e76f51; stroke: #ffffff; stroke-width: 0.5; stroke-linejoin: miter"/>
   </g>
   <g id="patch_15">
    <path d="M 112.530451 162.128855 
C 113.764099 162.128855 114.947387 161.638721 115.819708 160.7664 
C 116.69203 159.894079 117.182163 158.710791 117.182163 157.477142 
C 117.182163 156.243494 116.69203 155.060206 115.819708 154.187884 
C 114.947387 153.315563 113.764099 152.825429 112.530451 152.825429 
C 111.296802 152.825429 110.113514 153.315563 109.241193 154.187884 
C 108.368871 155.060206 107.878738 156.243494 107.878738 157.477142 
C 107.878738 158.710791 108.368871 159.894079 109.241193 160.7664 
C 110.113514 161.638721 111.296802 162.128855 112.530451 162.128855 
z
" clip-path="url(#p4f60362544)" style="fill: #457b9d; stroke: #ffffff; stroke-width: 0.5; stroke-linejoin: miter"/>
   </g>
   <g id="patch_16">
    <path d="M 112.530451 119.840556 
C 113.764099 119.840556 114.947387 119.350422 115.819708 118.478101 
C 116.69203 117.605779 117.182163 116.422491 117.182163 115.188843 
C 117.182163 113.955194 116.69203 112.771906 115.819708 111.899585 
C 114.947387 111.027264 113.764099 110.53713 112.530451 110.53713 
C 111.296802 110.53713 110.113514 111.027264 109.241193 111.899585 
C 108.368871 112.771906 107.878738 113.955194 107.878738 115.188843 
C 107.878738 116.422491 108.368871 117.605779 109.241193 118.478101 
C 110.113514 119.350422 111.296802 119.840556 112.530451 119.840556 
z
" clip-path="url(#p4f60362544)" style="fill: #e76f51; stroke: #ffffff; stroke-width: 0.5; stroke-linejoin: miter"/>
   </g>
   <g id="patch_17">
    <path d="M 154.81875 288.993754 
C 156.052399 288.993754 157.235686 288.50362 158.108008 287.631298 
C 158.980329 286.758977 159.470463 285.575689 159.470463 284.342041 
C 159.470463 283.108392 158.980329 281.925104 158.108008 281.052783 
C 157.235686 280.180462 156.052399 279.690328 154.81875 279.690328 
C 153.585101 279.690328 152.401814 280.180462 151.529492 281.052783 
C 150.657171 281.925104 150.167037 283.108392 150.167037 284.342041 
C 150.167037 285.575689 150.657171 286.758977 151.529492 287.631298 
C 152.401814 288.50362 153.585101 288.993754 154.81875 288.993754 
z
" clip-path="url(#p4f60362544)" style="fill: #457b9d; stroke: #ffffff; stroke-width: 0.5; stroke-linejoin: miter"/>
   </g>
   <g id="patch_18">
    <path d="M 154.81875 246.705454 
C 156.052399 246.705454 157.235686 246.21532 158.108008 245.342999 
C 158.980329 244.470678 159.470463 243.28739 159.470463 242.053741 
C 159.470463 240.820092 158.980329 239.636805 158.108008 238.764483 
C 157.235686 237.892162 156.052399 237.402028 154.81875 237.402028 
C 153.585101 237.402028 152.401814 237.892162 151.529492 238.764483 
C 150.657171 239.636805 150.167037 240.820092 150.167037 242.053741 
C 150.167037 243.28739 150.657171 244.470678 151.529492 245.342999 
C 152.401814 246.21532 153.585101 246.705454 154.81875 246.705454 
z
" clip-path="url(#p4f60362544)" style="fill: #457b9d; stroke: #ffffff; stroke-width: 0.5; stroke-linejoin: miter"/>
   </g>
   <g id="patch_19">
    <path d="M 154.81875 204.417155 
C 156.052399 204.417155 157.235686 203.927021 158.108008 203.054699 
C 158.980329 202.182378 159.470463 200.99909 159.470463 199.765442 
C 159.470463 198.531793 158.980329 197.348505 158.108008 196.476184 
C 157.235686 195.603863 156.052399 195.113729 154.81875 195.113729 
C 153.585101 195.113729 152.401814 195.603863 151.529492 196.476184 
C 150.657171 197.348505 150.167037 198.531793 150.167037 199.765442 
C 150.167037 200.99909 150.657171 202.182378 151.529492 203.054699 
C 152.401814 203.927021 153.585101 204.417155 154.81875 204.417155 
z
" clip-path="url(#p4f60362544)" style="fill: #457b9d; stroke: #ffffff; stroke-width: 0.5; stroke-linejoin: miter"/>
   </g>
   <g id="patch_20">
    <path d="M 154.81875 162.128855 
C 156.052399 162.128855 157.235686 161.638721 158.108008 160.7664 
C 158.980329 159.894079 159.470463 158.710791 159.470463 157.477142 
C 159.470463 156.243494 158.980329 155.060206 158.108008 154.187884 
C 157.235686 153.315563 156.052399 152.825429 154.81875 152.825429 
C 153.585101 152.825429 152.401814 153.315563 151.529492 154.187884 
C 150.657171 155.060206 150.167037 156.243494 150.167037 157.477142 
C 150.167037 158.710791 150.657171 159.894079 151.529492 160.7664 
C 152.401814 161.638721 153.585101 162.128855 154.81875 162.128855 
z
" clip-path="url(#p4f60362544)" style="fill: #457b9d; stroke: #ffffff; stroke-width: 0.5; stroke-linejoin: miter"/>
   </g>
   <g id="patch_21">
    <path d="M 154.81875 119.840556 
C 156.052399 119.840556 157.235686 119.350422 158.108008 118.478101 
C 158.980329 117.605779 159.470463 116.422491 159.470463 115.188843 
C 159.470463 113.955194 158.980329 112.771906 158.108008 111.899585 
C 157.235686 111.027264 156.052399 110.53713 154.81875 110.53713 
C 153.585101 110.53713 152.401814 111.027264 151.529492 111.899585 
C 150.657171 112.771906 150.167037 113.955194 150.167037 115.188843 
C 150.167037 116.422491 150.657171 117.605779 151.529492 118.478101 
C 152.401814 119.350422 153.585101 119.840556 154.81875 119.840556 
z
" clip-path="url(#p4f60362544)" style="fill: #457b9d; stroke: #ffffff; stroke-width: 0.5; stroke-linejoin: miter"/>
   </g>
   <g id="patch_22">
    <path d="M 197.107049 288.993754 
C 198.340698 288.993754 199.523986 288.50362 200.396307 287.631298 
C 201.268629 286.758977 201.758762 285.575689 201.758762 284.342041 
C 201.758762 283.108392 201.268629 281.925104 200.396307 281.052783 
C 199.523986 280.180462 198.340698 279.690328 197.107049 279.690328 
C 195.873401 279.690328 194.690113 280.180462 193.817792 281.052783 
C 192.94547 281.925104 192.455337 283.108392 192.455337 284.342041 
C 192.455337 285.575689 192.94547 286.758977 193.817792 287.631298 
C 194.690113 288.50362 195.873401 288.993754 197.107049 288.993754 
z
" clip-path="url(#p4f60362544)" style="fill: #457b9d; stroke: #ffffff; stroke-width: 0.5; stroke-linejoin: miter"/>
   </g>
   <g id="patch_23">
    <path d="M 197.107049 246.705454 
C 198.340698 246.705454 199.523986 246.21532 200.396307 245.342999 
C 201.268629 244.470678 201.758762 243.28739 201.758762 242.053741 
C 201.758762 240.820092 201.268629 239.636805 200.396307 238.764483 
C 199.523986 237.892162 198.340698 237.402028 197.107049 237.402028 
C 195.873401 237.402028 194.690113 237.892162 193.817792 238.764483 
C 192.94547 239.636805 192.455337 240.820092 192.455337 242.053741 
C 192.455337 243.28739 192.94547 244.470678 193.817792 245.342999 
C 194.690113 246.21532 195.873401 246.705454 197.107049 246.705454 
z
" clip-path="url(#p4f60362544)" style="fill: #457b9d; stroke: #ffffff; stroke-width: 0.5; stroke-linejoin: miter"/>
   </g>
   <g id="patch_24">
    <path d="M 197.107049 204.417155 
C 198.340698 204.417155 199.523986 203.927021 200.396307 203.054699 
C 201.268629 202.182378 201.758762 200.99909 201.758762 199.765442 
C 201.758762 198.531793 201.268629 197.348505 200.396307 196.476184 
C 199.523986 195.603863 198.340698 195.113729 197.107049 195.113729 
C 195.873401 195.113729 194.690113 195.603863 193.817792 196.476184 
C 192.94547 197.348505 192.455337 198.531793 192.455337 199.765442 
C 192.455337 200.99909 192.94547 202.182378 193.817792 203.054699 
C 194.690113 203.927021 195.873401 204.417155 197.107049 204.417155 
z
" clip-path="url(#p4f60362544)" style="fill: #457b9d; stroke: #ffffff; stroke-width: 0.5; stroke-linejoin: miter"/>
   </g>
   <g id="patch_25">
    <path d="M 197.107049 162.128855 
C 198.340698 162.128855 199.523986 161.638721 200.396307 160.7664 
C 201.268629 159.894079 201.758762 158.710791 201.758762 157.477142 
C 201.758762 156.243494 201.268629 155.060206 200.396307 154.187884 
C 199.523986 153.315563 198.340698 152.825429 197.107049 152.825429 
C 195.873401 152.825429 194.690113 153.315563 193.817792 154.187884 
C 192.94547 155.060206 192.455337 156.243494 192.455337 157.477142 
C 192.455337 158.710791 192.94547 159.894079 193.817792 160.7664 
C 194.690113 161.638721 195.873401 162.128855 197.107049 162.128855 
z
" clip-path="url(#p4f60362544)" style="fill: #457b9d; stroke: #ffffff; stroke-width: 0.5; stroke-linejoin: miter"/>
   </g>
   <g id="patch_26">
    <path d="M 197.107049 119.840556 
C 198.340698 119.840556 199.523986 119.350422 200.396307 118.478101 
C 201.268629 117.605779 201.758762 116.422491 201.758762 115.188843 
C 201.758762 113.955194 201.268629 112.771906 200.396307 111.899585 
C 199.523986 111.027264 198.340698 110.53713 197.107049 110.53713 
C 195.873401 110.53713 194.690113 111.027264 193.817792 111.899585 
C 192.94547 112.771906 192.455337 113.955194 192.455337 115.188843 
C 192.455337 116.422491 192.94547 117.605779 193.817792 118.478101 
C 194.690113 119.350422 195.873401 119.840556 197.107049 119.840556 
z
" clip-path="url(#p4f60362544)" style="fill: #457b9d; stroke: #ffffff; stroke-width: 0.5; stroke-linejoin: miter"/>
   </g>
   <g id="patch_27">
    <path d="M 239.395349 288.993754 
C 240.628998 288.993754 241.812285 288.50362 242.684607 287.631298 
C 243.556928 286.758977 244.047062 285.575689 244.047062 284.342041 
C 244.047062 283.108392 243.556928 281.925104 242.684607 281.052783 
C 241.812285 280.180462 240.628998 279.690328 239.395349 279.690328 
C 238.1617 279.690328 236.978413 280.180462 236.106091 281.052783 
C 235.23377 281.925104 234.743636 283.108392 234.743636 284.342041 
C 234.743636 285.575689 235.23377 286.758977 236.106091 287.631298 
C 236.978413 288.50362 238.1617 288.993754 239.395349 288.993754 
z
" clip-path="url(#p4f60362544)" style="fill: #e76f51; stroke: #ffffff; stroke-width: 0.5; stroke-linejoin: miter"/>
   </g>
   <g id="patch_28">
    <path d="M 239.395349 246.705454 
C 240.628998 246.705454 241.812285 246.21532 242.684607 245.342999 
C 243.556928 244.470678 244.047062 243.28739 244.047062 242.053741 
C 244.047062 240.820092 243.556928 239.636805 242.684607 238.764483 
C 241.812285 237.892162 240.628998 237.402028 239.395349 237.402028 
C 238.1617 237.402028 236.978413 237.892162 236.106091 238.764483 
C 235.23377 239.636805 234.743636 240.820092 234.743636 242.053741 
C 234.743636 243.28739 235.23377 244.470678 236.106091 245.342999 
C 236.978413 246.21532 238.1617 246.705454 239.395349 246.705454 
z
" clip-path="url(#p4f60362544)" style="fill: #457b9d; stroke: #ffffff; stroke-width: 0.5; stroke-linejoin: miter"/>
   </g>
   <g id="patch_29">
    <path d="M 239.395349 204.417155 
C 240.628998 204.417155 241.812285 203.927021 242.684607 203.054699 
C 243.556928 202.182378 244.047062 200.99909 244.047062 199.765442 
C 244.047062 198.531793 243.556928 197.348505 242.684607 196.476184 
C 241.812285 195.603863 240.628998 195.113729 239.395349 195.113729 
C 238.1617 195.113729 236.978413 195.603863 236.106091 196.476184 
C 235.23377 197.348505 234.743636 198.531793 234.743636 199.765442 
C 234.743636 200.99909 235.23377 202.182378 236.106091 203.054699 
C 236.978413 203.927021 238.1617 204.417155 239.395349 204.417155 
z
" clip-path="url(#p4f60362544)" style="fill: #e76f51; stroke: #ffffff; stroke-width: 0.5; stroke-linejoin: miter"/>
   </g>
   <g id="patch_30">
    <path d="M 239.395349 162.128855 
C 240.628998 162.128855 241.812285 161.638721 242.684607 160.7664 
C 243.556928 159.894079 244.047062 158.710791 244.047062 157.477142 
C 244.047062 156.243494 243.556928 155.060206 242.684607 154.187884 
C 241.812285 153.315563 240.628998 152.825429 239.395349 152.825429 
C 238.1617 152.825429 236.978413 153.315563 236.106091 154.187884 
C 235.23377 155.060206 234.743636 156.243494 234.743636 157.477142 
C 234.743636 158.710791 235.23377 159.894079 236.106091 160.7664 
C 236.978413 161.638721 238.1617 162.128855 239.395349 162.128855 
z
" clip-path="url(#p4f60362544)" style="fill: #457b9d; stroke: #ffffff; stroke-width: 0.5; stroke-linejoin: miter"/>
   </g>
   <g id="patch_31">
    <path d="M 239.395349 119.840556 
C 240.628998 119.840556 241.812285 119.350422 242.684607 118.478101 
C 243.556928 117.605779 244.047062 116.422491 244.047062 115.188843 
C 244.047062 113.955194 243.556928 112.771906 242.684607 111.899585 
C 241.812285 111.027264 240.628998 110.53713 239.395349 110.53713 
C 238.1617 110.53713 236.978413 111.027264 236.106091 111.899585 
C 235.23377 112.771906 234.743636 113.955194 234.743636 115.188843 
C 234.743636 116.422491 235.23377 117.605779 236.106091 118.478101 
C 236.978413 119.350422 238.1617 119.840556 239.395349 119.840556 
z
" clip-path="url(#p4f60362544)" style="fill: #e76f51; stroke: #ffffff; stroke-width: 0.5; stroke-linejoin: miter"/>
   </g>
   <g id="patch_32">
    <path d="M 281.683648 288.993754 
C 282.917297 288.993754 284.100585 288.50362 284.972906 287.631298 
C 285.845228 286.758977 286.335361 285.575689 286.335361 284.342041 
C 286.335361 283.108392 285.845228 281.925104 284.972906 281.052783 
C 284.100585 280.180462 282.917297 279.690328 281.683648 279.690328 
C 280.45 279.690328 279.266712 280.180462 278.394391 281.052783 
C 277.522069 281.925104 277.031935 283.108392 277.031935 284.342041 
C 277.031935 285.575689 277.522069 286.758977 278.394391 287.631298 
C 279.266712 288.50362 280.45 288.993754 281.683648 288.993754 
z
" clip-path="url(#p4f60362544)" style="fill: #457b9d; stroke: #ffffff; stroke-width: 0.5; stroke-linejoin: miter"/>
   </g>
   <g id="patch_33">
    <path d="M 281.683648 246.705454 
C 282.917297 246.705454 284.100585 246.21532 284.972906 245.342999 
C 285.845228 244.470678 286.335361 243.28739 286.335361 242.053741 
C 286.335361 240.820092 285.845228 239.636805 284.972906 238.764483 
C 284.100585 237.892162 282.917297 237.402028 281.683648 237.402028 
C 280.45 237.402028 279.266712 237.892162 278.394391 238.764483 
C 277.522069 239.636805 277.031935 240.820092 277.031935 242.053741 
C 277.031935 243.28739 277.522069 244.470678 278.394391 245.342999 
C 279.266712 246.21532 280.45 246.705454 281.683648 246.705454 
z
" clip-path="url(#p4f60362544)" style="fill: #457b9d; stroke: #ffffff; stroke-width: 0.5; stroke-linejoin: miter"/>
   </g>
   <g id="patch_34">
    <path d="M 281.683648 204.417155 
C 282.917297 204.417155 284.100585 203.927021 284.972906 203.054699 
C 285.845228 202.182378 286.335361 200.99909 286.335361 199.765442 
C 286.335361 198.531793 285.845228 197.348505 284.972906 196.476184 
C 284.100585 195.603863 282.917297 195.113729 281.683648 195.113729 
C 280.45 195.113729 279.266712 195.603863 278.394391 196.476184 
C 277.522069 197.348505 277.031935 198.531793 277.031935 199.765442 
C 277.031935 200.99909 277.522069 202.182378 278.394391 203.054699 
C 279.266712 203.927021 280.45 204.417155 281.683648 204.417155 
z
" clip-path="url(#p4f60362544)" style="fill: #457b9d; stroke: #ffffff; stroke-width: 0.5; stroke-linejoin: miter"/>
   </g>
   <g id="patch_35">
    <path d="M 281.683648 162.128855 
C 282.917297 162.128855 284.100585 161.638721 284.972906 160.7664 
C 285.845228 159.894079 286.335361 158.710791 286.335361 157.477142 
C 286.335361 156.243494 285.845228 155.060206 284.972906 154.187884 
C 284.100585 153.315563 282.917297 152.825429 281.683648 152.825429 
C 280.45 152.825429 279.266712 153.315563 278.394391 154.187884 
C 277.522069 155.060206 277.031935 156.243494 277.031935 157.477142 
C 277.031935 158.710791 277.522069 159.894079 278.394391 160.7664 
C 279.266712 161.638721 280.45 162.128855 281.683648 162.128855 
z
" clip-path="url(#p4f60362544)" style="fill: #457b9d; stroke: #ffffff; stroke-width: 0.5; stroke-linejoin: miter"/>
   </g>
   <g id="patch_36">
    <path d="M 281.683648 119.840556 
C 282.917297 119.840556 284.100585 119.350422 284.972906 118.478101 
C 285.845228 117.605779 286.335361 116.422491 286.335361 115.188843 
C 286.335361 113.955194 285.845228 112.771906 284.972906 111.899585 
C 284.100585 111.027264 282.917297 110.53713 281.683648 110.53713 
C 280.45 110.53713 279.266712 111.027264 278.394391 111.899585 
C 277.522069 112.771906 277.031935 113.955194 277.031935 115.188843 
C 277.031935 116.422491 277.522069 117.605779 278.394391 118.478101 
C 279.266712 119.350422 280.45 119.840556 281.683648 119.840556 
z
" clip-path="url(#p4f60362544)" style="fill: #457b9d; stroke: #ffffff; stroke-width: 0.5; stroke-linejoin: miter"/>
   </g>
   <g id="patch_37">
    <path d="M 156.933165 335.088 
L 182.306145 335.088 
L 182.306145 81.358203 
L 156.933165 81.358203 
z
" clip-path="url(#p4f60362544)" style="fill: #e9c46a; opacity: 0.35; stroke: #e9c46a; stroke-linejoin: miter"/>
   </g>
   <g id="patch_38">
    <path d="M 72.240418 307.600605 
Q 99.842769 307.600605 125.209051 307.600605 
" clip-path="url(#p4f60362544)" style="fill: none; stroke: #e76f51; stroke-width: 2; stroke-linecap: round"/>
    <path d="M 119.209051 304.600605 
L 125.209051 307.600605 
L 119.209051 310.600605 
z
" clip-path="url(#p4f60362544)" style="fill: #e76f51; stroke: #e76f51; stroke-width: 2; stroke-linecap: round"/>
   </g>
   <g id="patch_39">
    <path d="M 199.105316 307.600605 
Q 226.707667 307.600605 252.07395 307.600605 
" clip-path="url(#p4f60362544)" style="fill: none; stroke: #e76f51; stroke-width: 2; stroke-linecap: round"/>
    <path d="M 246.07395 304.600605 
L 252.07395 307.600605 
L 246.07395 310.600605 
z
" clip-path="url(#p4f60362544)" style="fill: #e76f51; stroke: #e76f51; stroke-width: 2; stroke-linecap: round"/>
   </g>
   <g id="line2d_1">
    <path d="M 169.619655 297.02853 
L 169.619655 102.502353 
" clip-path="url(#p4f60362544)" style="fill: none; stroke-dasharray: 7.4,3.2; stroke-dashoffset: 0; stroke: #17324d; stroke-width: 2"/>
   </g>
   <g id="text_1">
    <text style="font-weight: 700; font-size: 10px; font-family: 'Hiragino Sans'; text-anchor: middle; fill: #17324d" x="169.619655" y="96.159108" transform="rotate(-0 169.619655 96.159108)">APB</text>
   </g>
   <g id="text_2">
    <!-- $a/2\langle110\rangle$ -->
    <g style="fill: #17324d" transform="translate(78.643961 322.40151)">
     <text>
      <tspan x="0" y="-0.40625" style="font-style: oblique; font-size: 10px; font-family: 'DejaVu Sans'; fill: #17324d">a</tspan>
      <tspan x="6.12793" y="-0.40625" style="font-size: 10px; font-family: 'DejaVu Sans'; fill: #17324d">/</tspan>
      <tspan x="9.12207" y="-0.40625" style="font-size: 10px; font-family: 'DejaVu Sans'; fill: #17324d">2</tspan>
      <tspan x="15.484375" y="-0.40625" style="font-size: 10px; font-family: 'DejaVu Sans'; fill: #17324d">⟨</tspan>
      <tspan x="19.385742" y="-0.40625" style="font-size: 10px; font-family: 'DejaVu Sans'; fill: #17324d">1</tspan>
      <tspan x="25.748047" y="-0.40625" style="font-size: 10px; font-family: 'DejaVu Sans'; fill: #17324d">1</tspan>
      <tspan x="32.110352" y="-0.40625" style="font-size: 10px; font-family: 'DejaVu Sans'; fill: #17324d">0</tspan>
      <tspan x="38.472656" y="-0.40625" style="font-size: 10px; font-family: 'DejaVu Sans'; fill: #17324d">⟩</tspan>
     </text>
    </g>
   </g>
   <g id="text_3">
    <!-- $a/2\langle110\rangle$ -->
    <g style="fill: #17324d" transform="translate(205.508859 322.40151)">
     <text>
      <tspan x="0" y="-0.40625" style="font-style: oblique; font-size: 10px; font-family: 'DejaVu Sans'; fill: #17324d">a</tspan>
      <tspan x="6.12793" y="-0.40625" style="font-size: 10px; font-family: 'DejaVu Sans'; fill: #17324d">/</tspan>
      <tspan x="9.12207" y="-0.40625" style="font-size: 10px; font-family: 'DejaVu Sans'; fill: #17324d">2</tspan>
      <tspan x="15.484375" y="-0.40625" style="font-size: 10px; font-family: 'DejaVu Sans'; fill: #17324d">⟨</tspan>
      <tspan x="19.385742" y="-0.40625" style="font-size: 10px; font-family: 'DejaVu Sans'; fill: #17324d">1</tspan>
      <tspan x="25.748047" y="-0.40625" style="font-size: 10px; font-family: 'DejaVu Sans'; fill: #17324d">1</tspan>
      <tspan x="32.110352" y="-0.40625" style="font-size: 10px; font-family: 'DejaVu Sans'; fill: #17324d">0</tspan>
      <tspan x="38.472656" y="-0.40625" style="font-size: 10px; font-family: 'DejaVu Sans'; fill: #17324d">⟩</tspan>
     </text>
    </g>
   </g>
   <g id="text_4">
    <text style="font-weight: 700; font-size: 12px; font-family: 'Hiragino Sans'; text-anchor: middle; fill: #17324d" x="154.81875" y="75.358203" transform="rotate(-0 154.81875 75.358203)">Superdislocation pair + antiphase boundary</text>
   </g>
  </g>
  <g id="axes_2">
   <g id="patch_40">
    <path d="M 385.625599 287.74365 
L 661.296832 287.74365 
L 730.21464 213.524471 
L 454.543408 213.524471 
z
" clip-path="url(#pab02843d17)" style="fill: #457b9d; opacity: 0.16; stroke: #17324d; stroke-linejoin: miter"/>
   </g>
   <g id="patch_41">
    <path d="M 560.570805 308.949129 
L 687.803682 255.93543 
L 687.803682 102.195704 
L 560.570805 155.209403 
z
" clip-path="url(#pab02843d17)" style="fill: #e9c46a; opacity: 0.24; stroke: #17324d; stroke-linejoin: miter"/>
   </g>
   <g id="line2d_2">
    <path d="M 417.433818 253.284745 
L 576.474914 253.284745 
" clip-path="url(#pab02843d17)" style="fill: none; stroke: #e76f51; stroke-width: 3; stroke-linecap: square"/>
   </g>
   <g id="line2d_3">
    <path d="M 576.474914 253.284745 
L 650.694092 221.476526 
" clip-path="url(#pab02843d17)" style="fill: none; stroke: #e76f51; stroke-width: 3; stroke-linecap: square"/>
   </g>
   <g id="line2d_4">
    <path d="M 650.694092 221.476526 
L 650.694092 147.257348 
" clip-path="url(#pab02843d17)" style="fill: none; stroke: #e76f51; stroke-width: 3; stroke-linecap: square"/>
   </g>
   <g id="text_5">
    <text style="font-size: 10px; font-family: 'Hiragino Sans'; text-anchor: middle; fill: #17324d" x="454.543408" y="277.14091" transform="rotate(-0 454.543408 277.14091)">{111} glide</text>
   </g>
   <g id="text_6">
    <text style="font-size: 10px; font-family: 'Hiragino Sans'; fill: #17324d" transform="translate(644.901616 114.750619)">{100}</text>
    <text style="font-size: 10px; font-family: 'Hiragino Sans'; fill: #17324d" transform="translate(634.332085 126.051869)">cross-slip</text>
   </g>
   <g id="patch_42">
    <path d="M 551.235566 133.664549 
Q 600.064883 157.255607 647.887499 180.360294 
" style="fill: none; stroke: #17324d; stroke-linecap: round"/>
    <path d="M 645.155866 176.819365 
L 647.887499 180.360294 
L 643.415776 180.421044 
" style="fill: none; stroke: #17324d; stroke-linecap: round"/>
   </g>
   <g id="text_7">
    <text style="font-weight: 700; font-size: 10px; font-family: 'Hiragino Sans'; text-anchor: start; fill: #17324d" x="491.652997" y="128.702554" transform="rotate(-0 491.652997 128.702554)">sessile KW lock</text>
   </g>
   <g id="text_8">
    <text style="font-weight: 700; font-size: 12px; font-family: 'Hiragino Sans'; text-anchor: middle; fill: #17324d" x="552.61875" y="80.291595" transform="rotate(-0 552.61875 80.291595)">Thermally activated cube cross-slip</text>
   </g>
  </g>
  <g id="text_9">
   <!-- $L1_2$ Ni$_3$Al: order makes an ordinary fcc translation incomplete -->
   <g style="fill: #17324d" transform="translate(95.64375 19.35)">
    <text>
     <tspan x="0" y="-0.625" style="font-style: oblique; font-size: 15px; font-family: 'DejaVu Sans'; fill: #17324d">L</tspan>
     <tspan x="8.356934" y="-0.625" style="font-size: 15px; font-family: 'DejaVu Sans'; fill: #17324d">1</tspan>
     <tspan x="18.043945" y="1.835938" style="font-size: 10.5px; font-family: 'DejaVu Sans'; fill: #17324d">2</tspan>
     <tspan x="47.343048" y="1.835938" style="font-size: 10.5px; font-family: 'DejaVu Sans'; fill: #17324d">3</tspan>
     <tspan x="25.134521" y="-0.625" style="font-weight: 700; font-size: 15px; font-family: 'Hiragino Sans'; fill: #17324d"> </tspan>
     <tspan x="30.129517" y="-0.625" style="font-weight: 700; font-size: 15px; font-family: 'Hiragino Sans'; fill: #17324d">N</tspan>
     <tspan x="42.819504" y="-0.625" style="font-weight: 700; font-size: 15px; font-family: 'Hiragino Sans'; fill: #17324d">i</tspan>
     <tspan x="54.433624" y="-0.625" style="font-weight: 700; font-size: 15px; font-family: 'Hiragino Sans'; fill: #17324d">A</tspan>
     <tspan x="66.988602" y="-0.625" style="font-weight: 700; font-size: 15px; font-family: 'Hiragino Sans'; fill: #17324d">l</tspan>
     <tspan x="71.353592" y="-0.625" style="font-weight: 700; font-size: 15px; font-family: 'Hiragino Sans'; fill: #17324d">:</tspan>
     <tspan x="75.658585" y="-0.625" style="font-weight: 700; font-size: 15px; font-family: 'Hiragino Sans'; fill: #17324d"> </tspan>
     <tspan x="80.65358" y="-0.625" style="font-weight: 700; font-size: 15px; font-family: 'Hiragino Sans'; fill: #17324d">o</tspan>
     <tspan x="91.01857" y="-0.625" style="font-weight: 700; font-size: 15px; font-family: 'Hiragino Sans'; fill: #17324d">r</tspan>
     <tspan x="98.833557" y="-0.625" style="font-weight: 700; font-size: 15px; font-family: 'Hiragino Sans'; fill: #17324d">d</tspan>
     <tspan x="109.858536" y="-0.625" style="font-weight: 700; font-size: 15px; font-family: 'Hiragino Sans'; fill: #17324d">e</tspan>
     <tspan x="119.773514" y="-0.625" style="font-weight: 700; font-size: 15px; font-family: 'Hiragino Sans'; fill: #17324d">r</tspan>
     <tspan x="127.588501" y="-0.625" style="font-weight: 700; font-size: 15px; font-family: 'Hiragino Sans'; fill: #17324d"> </tspan>
     <tspan x="132.583496" y="-0.625" style="font-weight: 700; font-size: 15px; font-family: 'Hiragino Sans'; fill: #17324d">m</tspan>
     <tspan x="148.34848" y="-0.625" style="font-weight: 700; font-size: 15px; font-family: 'Hiragino Sans'; fill: #17324d">a</tspan>
     <tspan x="158.308472" y="-0.625" style="font-weight: 700; font-size: 15px; font-family: 'Hiragino Sans'; fill: #17324d">k</tspan>
     <tspan x="168.643448" y="-0.625" style="font-weight: 700; font-size: 15px; font-family: 'Hiragino Sans'; fill: #17324d">e</tspan>
     <tspan x="178.558426" y="-0.625" style="font-weight: 700; font-size: 15px; font-family: 'Hiragino Sans'; fill: #17324d">s</tspan>
     <tspan x="187.888412" y="-0.625" style="font-weight: 700; font-size: 15px; font-family: 'Hiragino Sans'; fill: #17324d"> </tspan>
     <tspan x="192.883408" y="-0.625" style="font-weight: 700; font-size: 15px; font-family: 'Hiragino Sans'; fill: #17324d">a</tspan>
     <tspan x="202.843399" y="-0.625" style="font-weight: 700; font-size: 15px; font-family: 'Hiragino Sans'; fill: #17324d">n</tspan>
     <tspan x="213.373383" y="-0.625" style="font-weight: 700; font-size: 15px; font-family: 'Hiragino Sans'; fill: #17324d"> </tspan>
     <tspan x="218.368378" y="-0.625" style="font-weight: 700; font-size: 15px; font-family: 'Hiragino Sans'; fill: #17324d">o</tspan>
     <tspan x="228.733368" y="-0.625" style="font-weight: 700; font-size: 15px; font-family: 'Hiragino Sans'; fill: #17324d">r</tspan>
     <tspan x="236.548355" y="-0.625" style="font-weight: 700; font-size: 15px; font-family: 'Hiragino Sans'; fill: #17324d">d</tspan>
     <tspan x="247.573334" y="-0.625" style="font-weight: 700; font-size: 15px; font-family: 'Hiragino Sans'; fill: #17324d">i</tspan>
     <tspan x="251.953323" y="-0.625" style="font-weight: 700; font-size: 15px; font-family: 'Hiragino Sans'; fill: #17324d">n</tspan>
     <tspan x="262.483307" y="-0.625" style="font-weight: 700; font-size: 15px; font-family: 'Hiragino Sans'; fill: #17324d">a</tspan>
     <tspan x="272.443298" y="-0.625" style="font-weight: 700; font-size: 15px; font-family: 'Hiragino Sans'; fill: #17324d">r</tspan>
     <tspan x="280.258286" y="-0.625" style="font-weight: 700; font-size: 15px; font-family: 'Hiragino Sans'; fill: #17324d">y</tspan>
     <tspan x="290.263275" y="-0.625" style="font-weight: 700; font-size: 15px; font-family: 'Hiragino Sans'; fill: #17324d"> </tspan>
     <tspan x="295.25827" y="-0.625" style="font-weight: 700; font-size: 15px; font-family: 'Hiragino Sans'; fill: #17324d">f</tspan>
     <tspan x="302.89325" y="-0.625" style="font-weight: 700; font-size: 15px; font-family: 'Hiragino Sans'; fill: #17324d">c</tspan>
     <tspan x="312.613235" y="-0.625" style="font-weight: 700; font-size: 15px; font-family: 'Hiragino Sans'; fill: #17324d">c</tspan>
     <tspan x="322.333221" y="-0.625" style="font-weight: 700; font-size: 15px; font-family: 'Hiragino Sans'; fill: #17324d"> </tspan>
     <tspan x="327.328217" y="-0.625" style="font-weight: 700; font-size: 15px; font-family: 'Hiragino Sans'; fill: #17324d">t</tspan>
     <tspan x="334.153198" y="-0.625" style="font-weight: 700; font-size: 15px; font-family: 'Hiragino Sans'; fill: #17324d">r</tspan>
     <tspan x="341.968185" y="-0.625" style="font-weight: 700; font-size: 15px; font-family: 'Hiragino Sans'; fill: #17324d">a</tspan>
     <tspan x="351.928177" y="-0.625" style="font-weight: 700; font-size: 15px; font-family: 'Hiragino Sans'; fill: #17324d">n</tspan>
     <tspan x="362.45816" y="-0.625" style="font-weight: 700; font-size: 15px; font-family: 'Hiragino Sans'; fill: #17324d">s</tspan>
     <tspan x="371.788147" y="-0.625" style="font-weight: 700; font-size: 15px; font-family: 'Hiragino Sans'; fill: #17324d">l</tspan>
     <tspan x="376.153137" y="-0.625" style="font-weight: 700; font-size: 15px; font-family: 'Hiragino Sans'; fill: #17324d">a</tspan>
     <tspan x="386.113129" y="-0.625" style="font-weight: 700; font-size: 15px; font-family: 'Hiragino Sans'; fill: #17324d">t</tspan>
     <tspan x="392.93811" y="-0.625" style="font-weight: 700; font-size: 15px; font-family: 'Hiragino Sans'; fill: #17324d">i</tspan>
     <tspan x="397.3181" y="-0.625" style="font-weight: 700; font-size: 15px; font-family: 'Hiragino Sans'; fill: #17324d">o</tspan>
     <tspan x="407.68309" y="-0.625" style="font-weight: 700; font-size: 15px; font-family: 'Hiragino Sans'; fill: #17324d">n</tspan>
     <tspan x="418.213074" y="-0.625" style="font-weight: 700; font-size: 15px; font-family: 'Hiragino Sans'; fill: #17324d"> </tspan>
     <tspan x="423.208069" y="-0.625" style="font-weight: 700; font-size: 15px; font-family: 'Hiragino Sans'; fill: #17324d">i</tspan>
     <tspan x="427.588058" y="-0.625" style="font-weight: 700; font-size: 15px; font-family: 'Hiragino Sans'; fill: #17324d">n</tspan>
     <tspan x="438.118042" y="-0.625" style="font-weight: 700; font-size: 15px; font-family: 'Hiragino Sans'; fill: #17324d">c</tspan>
     <tspan x="447.838028" y="-0.625" style="font-weight: 700; font-size: 15px; font-family: 'Hiragino Sans'; fill: #17324d">o</tspan>
     <tspan x="458.203018" y="-0.625" style="font-weight: 700; font-size: 15px; font-family: 'Hiragino Sans'; fill: #17324d">m</tspan>
     <tspan x="473.968002" y="-0.625" style="font-weight: 700; font-size: 15px; font-family: 'Hiragino Sans'; fill: #17324d">p</tspan>
     <tspan x="485.02298" y="-0.625" style="font-weight: 700; font-size: 15px; font-family: 'Hiragino Sans'; fill: #17324d">l</tspan>
     <tspan x="489.38797" y="-0.625" style="font-weight: 700; font-size: 15px; font-family: 'Hiragino Sans'; fill: #17324d">e</tspan>
     <tspan x="499.302948" y="-0.625" style="font-weight: 700; font-size: 15px; font-family: 'Hiragino Sans'; fill: #17324d">t</tspan>
     <tspan x="506.12793" y="-0.625" style="font-weight: 700; font-size: 15px; font-family: 'Hiragino Sans'; fill: #17324d">e</tspan>
    </text>
   </g>
  </g>
 </g>
 <defs>
  <clipPath id="p4f60362544">
   <rect x="11.038532" y="81.358203" width="287.560436" height="253.729797"/>
  </clipPath>
  <clipPath id="pab02843d17">
   <rect x="359.11875" y="86.291595" width="387" height="243.863014"/>
  </clipPath>
 </defs>
</svg>
