<?xml version="1.0" encoding="utf-8" standalone="no"?>
<!DOCTYPE svg PUBLIC "-//W3C//DTD SVG 1.1//EN"
  "http://www.w3.org/Graphics/SVG/1.1/DTD/svg11.dtd">
<svg xmlns:xlink="http://www.w3.org/1999/xlink" width="900pt" height="349.954pt" viewBox="0 0 900 349.954" xmlns="http://www.w3.org/2000/svg" version="1.1">
 <metadata>
  <rdf:RDF xmlns:dc="http://purl.org/dc/elements/1.1/" xmlns:cc="http://creativecommons.org/ns#" xmlns:rdf="http://www.w3.org/1999/02/22-rdf-syntax-ns#">
   <cc:Work>
    <dc:type rdf:resource="http://purl.org/dc/dcmitype/StillImage"/>
    <dc:format>image/svg+xml</dc:format>
    <dc:creator>
     <cc:Agent>
      <dc:title>Matplotlib v3.10.9, https://matplotlib.org/</dc:title>
     </cc:Agent>
    </dc:creator>
   </cc:Work>
  </rdf:RDF>
 </metadata>
 <defs>
  <style type="text/css">*{stroke-linejoin: round; stroke-linecap: butt}</style>
 </defs>
 <g id="figure_1">
  <g id="patch_1">
   <path d="M -0 349.954
L 900 349.954
L 900 0
L -0 0
z
" style="fill: #ffffff"/>
  </g>
  <g id="axes_1">
   <g id="patch_2">
    <path d="M 11.388 287.751075
L 212.412 287.751075
Q 216.1812 287.751075 216.1812 283.981875
L 216.1812 95.521875
Q 216.1812 91.752675 212.412 91.752675
L 11.388 91.752675
Q 7.6188 91.752675 7.6188 95.521875
L 7.6188 283.981875
Q 7.6188 287.751075 11.388 287.751075
z
" clip-path="url(#p86afc7b801)" style="fill: #ffffff; stroke: #cbd5df; stroke-width: 1.3; stroke-linejoin: miter"/>
   </g>
   <g id="patch_3">
    <path d="M 32.328 254.665875
L 57.456 120.649875
L 153.78 108.085875
L 195.66 170.905875
L 170.532 258.853875
z
" clip-path="url(#p86afc7b801)" style="fill: #f7f4ed; stroke: #17324d; stroke-width: 2; stroke-linejoin: miter"/>
   </g>
   <g id="patch_4">
    <path d="M 42.798 246.289875
L 63.738 129.025875
L 107.712 166.717875
L 105.618 246.289875
z
" clip-path="url(#p86afc7b801)" style="fill: #2a9d8f; opacity: 0.65; stroke: #ffffff; stroke-linejoin: miter"/>
   </g>
   <g id="patch_5">
    <path d="M 63.738 129.025875
L 149.592 118.555875
L 153.78 193.939875
L 107.712 166.717875
z
" clip-path="url(#p86afc7b801)" style="fill: #e9c46a; opacity: 0.72; stroke: #ffffff; stroke-linejoin: miter"/>
   </g>
   <g id="patch_6">
    <path d="M 107.712 166.717875
L 153.78 193.939875
L 181.002 172.999875
L 162.156 248.383875
L 105.618 246.289875
z
" clip-path="url(#p86afc7b801)" style="fill: #6c5ce7; opacity: 0.5; stroke: #ffffff; stroke-linejoin: miter"/>
   </g>
   <g id="text_1">
    <text style="font-weight: 700; font-size: 13px; font-family: 'Hiragino Sans'; text-anchor: middle; fill: #17324d" x="111.9" y="99.536281" transform="rotate(-0 111.9 99.536281)">旧γ粒</text>
   </g>
   <g id="text_2">
    <text style="font-size: 10px; font-family: 'Hiragino Sans'; text-anchor: middle; fill: #64748b" x="111.9" y="275.605875" transform="rotate(-0 111.9 275.605875)">内部に複数のpacket</text>
   </g>
  </g>
  <g id="axes_2">
   <g id="patch_7">
    <path d="M 236.788 287.751075
L 437.812 287.751075
Q 441.5812 287.751075 441.5812 283.981875
L 441.5812 95.521875
Q 441.5812 91.752675 437.812 91.752675
L 236.788 91.752675
Q 233.0188 91.752675 233.0188 95.521875
L 233.0188 283.981875
Q 233.0188 287.751075 236.788 287.751075
z
" clip-path="url(#pc059ddde6a)" style="fill: #ffffff; stroke: #cbd5df; stroke-width: 1.3; stroke-linejoin: miter"/>
   </g>
   <g id="patch_8">
    <path d="M 257.728 254.665875
L 295.42 116.461875
L 416.872 135.307875
L 379.18 267.229875
z
" clip-path="url(#pc059ddde6a)" style="fill: #f7f4ed; stroke: #17324d; stroke-width: 1.8; stroke-linejoin: miter"/>
   </g>
   <g id="patch_9">
    <path d="M 274.48 250.477875
L 289.138 223.255875
L 400.12 233.725875
L 387.556 260.947875
z
" clip-path="url(#pc059ddde6a)" style="fill: #2a9d8f; opacity: 0.68; stroke: #ffffff; stroke-linejoin: miter"/>
   </g>
   <g id="patch_10">
    <path d="M 282.856 220.114875
L 297.514 192.892875
L 408.496 203.362875
L 395.932 230.584875
z
" clip-path="url(#pc059ddde6a)" style="fill: #e9c46a; opacity: 0.68; stroke: #ffffff; stroke-linejoin: miter"/>
   </g>
   <g id="patch_11">
    <path d="M 291.232 189.751875
L 305.89 162.529875
L 416.872 172.999875
L 404.308 200.221875
z
" clip-path="url(#pc059ddde6a)" style="fill: #6c5ce7; opacity: 0.68; stroke: #ffffff; stroke-linejoin: miter"/>
   </g>
   <g id="patch_12">
    <path d="M 299.608 159.388875
L 314.266 132.166875
L 425.248 142.636875
L 412.684 169.858875
z
" clip-path="url(#pc059ddde6a)" style="fill: #f4a261; opacity: 0.68; stroke: #ffffff; stroke-linejoin: miter"/>
   </g>
   <g id="text_3">
    <text style="font-weight: 700; font-size: 13px; font-family: 'Hiragino Sans'; text-anchor: middle; fill: #17324d" x="337.3" y="99.536281" transform="rotate(-0 337.3 99.536281)">packet</text>
   </g>
   <g id="text_4">
    <text style="font-size: 10px; font-family: 'Hiragino Sans'; text-anchor: middle; fill: #64748b" x="337.3" y="275.605875" transform="rotate(-0 337.3 275.605875)">同じ晶癖面を共有</text>
   </g>
  </g>
  <g id="axes_3">
   <g id="patch_13">
    <path d="M 462.188 287.751075
L 663.212 287.751075
Q 666.9812 287.751075 666.9812 283.981875
L 666.9812 95.521875
Q 666.9812 91.752675 663.212 91.752675
L 462.188 91.752675
Q 458.4188 91.752675 458.4188 95.521875
L 458.4188 283.981875
Q 458.4188 287.751075 462.188 287.751075
z
" clip-path="url(#pccd53215fe)" style="fill: #ffffff; stroke: #cbd5df; stroke-width: 1.3; stroke-linejoin: miter"/>
   </g>
   <g id="patch_14">
    <path d="M 483.128 254.665875
L 504.068 118.555875
L 642.272 139.495875
L 621.332 271.417875
z
" clip-path="url(#pccd53215fe)" style="fill: #f7f4ed; stroke: #17324d; stroke-width: 1.8; stroke-linejoin: miter"/>
   </g>
   <g id="patch_15">
    <path d="M 495.692 254.665875
L 501.974 245.242875
L 631.802 225.349875
L 625.52 234.772875
z
" clip-path="url(#pccd53215fe)" style="fill: #457b9d; opacity: 0.72; stroke: #ffffff; stroke-linejoin: miter"/>
   </g>
   <g id="patch_16">
    <path d="M 495.692 239.798475
L 501.974 230.375475
L 631.802 210.482475
L 625.52 219.905475
z
" clip-path="url(#pccd53215fe)" style="fill: #2a9d8f; opacity: 0.72; stroke: #ffffff; stroke-linejoin: miter"/>
   </g>
   <g id="patch_17">
    <path d="M 495.692 224.931075
L 501.974 215.508075
L 631.802 195.615075
L 625.52 205.038075
z
" clip-path="url(#pccd53215fe)" style="fill: #457b9d; opacity: 0.72; stroke: #ffffff; stroke-linejoin: miter"/>
   </g>
   <g id="patch_18">
    <path d="M 495.692 210.063675
L 501.974 200.640675
L 631.802 180.747675
L 625.52 190.170675
z
" clip-path="url(#pccd53215fe)" style="fill: #2a9d8f; opacity: 0.72; stroke: #ffffff; stroke-linejoin: miter"/>
   </g>
   <g id="patch_19">
    <path d="M 495.692 195.196275
L 501.974 185.773275
L 631.802 165.880275
L 625.52 175.303275
z
" clip-path="url(#pccd53215fe)" style="fill: #457b9d; opacity: 0.72; stroke: #ffffff; stroke-linejoin: miter"/>
   </g>
   <g id="patch_20">
    <path d="M 495.692 180.328875
L 501.974 170.905875
L 631.802 151.012875
L 625.52 160.435875
z
" clip-path="url(#pccd53215fe)" style="fill: #2a9d8f; opacity: 0.72; stroke: #ffffff; stroke-linejoin: miter"/>
   </g>
   <g id="patch_21">
    <path d="M 495.692 165.461475
L 501.974 156.038475
L 631.802 136.145475
L 625.52 145.568475
z
" clip-path="url(#pccd53215fe)" style="fill: #457b9d; opacity: 0.72; stroke: #ffffff; stroke-linejoin: miter"/>
   </g>
   <g id="patch_22">
    <path d="M 495.692 150.594075
L 501.974 141.171075
L 631.802 121.278075
L 625.52 130.701075
z
" clip-path="url(#pccd53215fe)" style="fill: #2a9d8f; opacity: 0.72; stroke: #ffffff; stroke-linejoin: miter"/>
   </g>
   <g id="text_5">
    <text style="font-weight: 700; font-size: 13px; font-family: 'Hiragino Sans'; text-anchor: middle; fill: #17324d" x="562.7" y="99.536281" transform="rotate(-0 562.7 99.536281)">block</text>
   </g>
   <g id="text_6">
    <text style="font-size: 10px; font-family: 'Hiragino Sans'; text-anchor: middle; fill: #64748b" x="562.7" y="275.605875" transform="rotate(-0 562.7 275.605875)">近い結晶方位のlath群</text>
   </g>
  </g>
  <g id="axes_4">
   <g id="patch_23">
    <path d="M 687.588 287.751075
L 888.612 287.751075
Q 892.3812 287.751075 892.3812 283.981875
L 892.3812 95.521875
Q 892.3812 91.752675 888.612 91.752675
L 687.588 91.752675
Q 683.8188 91.752675 683.8188 95.521875
L 683.8188 283.981875
Q 683.8188 287.751075 687.588 287.751075
z
" clip-path="url(#p3ee77a04fd)" style="fill: #ffffff; stroke: #cbd5df; stroke-width: 1.3; stroke-linejoin: miter"/>
   </g>
   <g id="patch_24">
    <path d="M 704.34 181.375875
L 871.86 181.375875
L 871.86 116.461875
L 704.34 116.461875
z
" clip-path="url(#p3ee77a04fd)" style="fill: #457b9d; opacity: 0.16; stroke: #17324d; stroke-width: 1.8; stroke-linejoin: miter"/>
   </g>
   <g id="patch_25">
    <path d="M 729.468 170.487075
C 730.467604 170.487075 731.4264 170.089928 732.133227 169.383102
C 732.840053 168.676275 733.2372 167.717479 733.2372 166.717875
C 733.2372 165.718271 732.840053 164.759475 732.133227 164.052648
C 731.4264 163.345822 730.467604 162.948675 729.468 162.948675
C 728.468396 162.948675 727.5096 163.345822 726.802773 164.052648
C 726.095947 164.759475 725.6988 165.718271 725.6988 166.717875
C 725.6988 167.717479 726.095947 168.676275 726.802773 169.383102
C 727.5096 170.089928 728.468396 170.487075 729.468 170.487075
L 729.468 170.487075
z
" clip-path="url(#p3ee77a04fd)" style="fill: none; stroke: #e76f51; stroke-width: 1.2; stroke-linejoin: miter"/>
   </g>
   <g id="patch_26">
    <path d="M 762.972 141.171075
C 763.971604 141.171075 764.9304 140.773928 765.637227 140.067102
C 766.344053 139.360275 766.7412 138.401479 766.7412 137.401875
C 766.7412 136.402271 766.344053 135.443475 765.637227 134.736648
C 764.9304 134.029822 763.971604 133.632675 762.972 133.632675
C 761.972396 133.632675 761.0136 134.029822 760.306773 134.736648
C 759.599947 135.443475 759.2028 136.402271 759.2028 137.401875
C 759.2028 138.401479 759.599947 139.360275 760.306773 140.067102
C 761.0136 140.773928 761.972396 141.171075 762.972 141.171075
L 762.972 141.171075
z
" clip-path="url(#p3ee77a04fd)" style="fill: none; stroke: #e76f51; stroke-width: 1.2; stroke-linejoin: miter"/>
   </g>
   <g id="patch_27">
    <path d="M 800.664 162.111075
C 801.663604 162.111075 802.6224 161.713928 803.329227 161.007102
C 804.036053 160.300275 804.4332 159.341479 804.4332 158.341875
C 804.4332 157.342271 804.036053 156.383475 803.329227 155.676648
C 802.6224 154.969822 801.663604 154.572675 800.664 154.572675
C 799.664396 154.572675 798.7056 154.969822 797.998773 155.676648
C 797.291947 156.383475 796.8948 157.342271 796.8948 158.341875
C 796.8948 159.341479 797.291947 160.300275 797.998773 161.007102
C 798.7056 161.713928 799.664396 162.111075 800.664 162.111075
L 800.664 162.111075
z
" clip-path="url(#p3ee77a04fd)" style="fill: none; stroke: #e76f51; stroke-width: 1.2; stroke-linejoin: miter"/>
   </g>
   <g id="patch_28">
    <path d="M 838.356 134.889075
C 839.355604 134.889075 840.3144 134.491928 841.021227 133.785102
C 841.728053 133.078275 842.1252 132.119479 842.1252 131.119875
C 842.1252 130.120271 841.728053 129.161475 841.021227 128.454648
C 840.3144 127.747822 839.355604 127.350675 838.356 127.350675
C 837.356396 127.350675 836.3976 127.747822 835.690773 128.454648
C 834.983947 129.161475 834.5868 130.120271 834.5868 131.119875
C 834.5868 132.119479 834.983947 133.078275 835.690773 133.785102
C 836.3976 134.491928 837.356396 134.889075 838.356 134.889075
L 838.356 134.889075
z
" clip-path="url(#p3ee77a04fd)" style="fill: none; stroke: #e76f51; stroke-width: 1.2; stroke-linejoin: miter"/>
   </g>
   <g id="patch_29">
    <path d="M 733.656 268.905075
C 734.655604 268.905075 735.6144 268.507928 736.321227 267.801102
C 737.028053 267.094275 737.4252 266.135479 737.4252 265.135875
C 737.4252 264.136271 737.028053 263.177475 736.321227 262.470648
C 735.6144 261.763822 734.655604 261.366675 733.656 261.366675
C 732.656396 261.366675 731.6976 261.763822 730.990773 262.470648
C 730.283947 263.177475 729.8868 264.136271 729.8868 265.135875
C 729.8868 266.135479 730.283947 267.094275 730.990773 267.801102
C 731.6976 268.507928 732.656396 268.905075 733.656 268.905075
z
" clip-path="url(#p3ee77a04fd)" style="fill: #457b9d; stroke: #17324d; stroke-width: 0.7; stroke-linejoin: miter"/>
   </g>
   <g id="patch_30">
    <path d="M 733.656 239.589075
C 734.655604 239.589075 735.6144 239.191928 736.321227 238.485102
C 737.028053 237.778275 737.4252 236.819479 737.4252 235.819875
C 737.4252 234.820271 737.028053 233.861475 736.321227 233.154648
C 735.6144 232.447822 734.655604 232.050675 733.656 232.050675
C 732.656396 232.050675 731.6976 232.447822 730.990773 233.154648
C 730.283947 233.861475 729.8868 234.820271 729.8868 235.819875
C 729.8868 236.819479 730.283947 237.778275 730.990773 238.485102
C 731.6976 239.191928 732.656396 239.589075 733.656 239.589075
z
" clip-path="url(#p3ee77a04fd)" style="fill: #457b9d; stroke: #17324d; stroke-width: 0.7; stroke-linejoin: miter"/>
   </g>
   <g id="patch_31">
    <path d="M 733.656 206.085075
C 734.655604 206.085075 735.6144 205.687928 736.321227 204.981102
C 737.028053 204.274275 737.4252 203.315479 737.4252 202.315875
C 737.4252 201.316271 737.028053 200.357475 736.321227 199.650648
C 735.6144 198.943822 734.655604 198.546675 733.656 198.546675
C 732.656396 198.546675 731.6976 198.943822 730.990773 199.650648
C 730.283947 200.357475 729.8868 201.316271 729.8868 202.315875
C 729.8868 203.315479 730.283947 204.274275 730.990773 204.981102
C 731.6976 205.687928 732.656396 206.085075 733.656 206.085075
z
" clip-path="url(#p3ee77a04fd)" style="fill: #457b9d; stroke: #17324d; stroke-width: 0.7; stroke-linejoin: miter"/>
   </g>
   <g id="patch_32">
    <path d="M 781.818 268.905075
C 782.817604 268.905075 783.7764 268.507928 784.483227 267.801102
C 785.190053 267.094275 785.5872 266.135479 785.5872 265.135875
C 785.5872 264.136271 785.190053 263.177475 784.483227 262.470648
C 783.7764 261.763822 782.817604 261.366675 781.818 261.366675
C 780.818396 261.366675 779.8596 261.763822 779.152773 262.470648
C 778.445947 263.177475 778.0488 264.136271 778.0488 265.135875
C 778.0488 266.135479 778.445947 267.094275 779.152773 267.801102
C 779.8596 268.507928 780.818396 268.905075 781.818 268.905075
z
" clip-path="url(#p3ee77a04fd)" style="fill: #457b9d; stroke: #17324d; stroke-width: 0.7; stroke-linejoin: miter"/>
   </g>
   <g id="patch_33">
    <path d="M 781.818 239.589075
C 782.817604 239.589075 783.7764 239.191928 784.483227 238.485102
C 785.190053 237.778275 785.5872 236.819479 785.5872 235.819875
C 785.5872 234.820271 785.190053 233.861475 784.483227 233.154648
C 783.7764 232.447822 782.817604 232.050675 781.818 232.050675
C 780.818396 232.050675 779.8596 232.447822 779.152773 233.154648
C 778.445947 233.861475 778.0488 234.820271 778.0488 235.819875
C 778.0488 236.819479 778.445947 237.778275 779.152773 238.485102
C 779.8596 239.191928 780.818396 239.589075 781.818 239.589075
z
" clip-path="url(#p3ee77a04fd)" style="fill: #457b9d; stroke: #17324d; stroke-width: 0.7; stroke-linejoin: miter"/>
   </g>
   <g id="patch_34">
    <path d="M 781.818 206.085075
C 782.817604 206.085075 783.7764 205.687928 784.483227 204.981102
C 785.190053 204.274275 785.5872 203.315479 785.5872 202.315875
C 785.5872 201.316271 785.190053 200.357475 784.483227 199.650648
C 783.7764 198.943822 782.817604 198.546675 781.818 198.546675
C 780.818396 198.546675 779.8596 198.943822 779.152773 199.650648
C 778.445947 200.357475 778.0488 201.316271 778.0488 202.315875
C 778.0488 203.315479 778.445947 204.274275 779.152773 204.981102
C 779.8596 205.687928 780.818396 206.085075 781.818 206.085075
z
" clip-path="url(#p3ee77a04fd)" style="fill: #457b9d; stroke: #17324d; stroke-width: 0.7; stroke-linejoin: miter"/>
   </g>
   <g id="patch_35">
    <path d="M 829.98 268.905075
C 830.979604 268.905075 831.9384 268.507928 832.645227 267.801102
C 833.352053 267.094275 833.7492 266.135479 833.7492 265.135875
C 833.7492 264.136271 833.352053 263.177475 832.645227 262.470648
C 831.9384 261.763822 830.979604 261.366675 829.98 261.366675
C 828.980396 261.366675 828.0216 261.763822 827.314773 262.470648
C 826.607947 263.177475 826.2108 264.136271 826.2108 265.135875
C 826.2108 266.135479 826.607947 267.094275 827.314773 267.801102
C 828.0216 268.507928 828.980396 268.905075 829.98 268.905075
z
" clip-path="url(#p3ee77a04fd)" style="fill: #457b9d; stroke: #17324d; stroke-width: 0.7; stroke-linejoin: miter"/>
   </g>
   <g id="patch_36">
    <path d="M 829.98 239.589075
C 830.979604 239.589075 831.9384 239.191928 832.645227 238.485102
C 833.352053 237.778275 833.7492 236.819479 833.7492 235.819875
C 833.7492 234.820271 833.352053 233.861475 832.645227 233.154648
C 831.9384 232.447822 830.979604 232.050675 829.98 232.050675
C 828.980396 232.050675 828.0216 232.447822 827.314773 233.154648
C 826.607947 233.861475 826.2108 234.820271 826.2108 235.819875
C 826.2108 236.819479 826.607947 237.778275 827.314773 238.485102
C 828.0216 239.191928 828.980396 239.589075 829.98 239.589075
z
" clip-path="url(#p3ee77a04fd)" style="fill: #457b9d; stroke: #17324d; stroke-width: 0.7; stroke-linejoin: miter"/>
   </g>
   <g id="patch_37">
    <path d="M 829.98 206.085075
C 830.979604 206.085075 831.9384 205.687928 832.645227 204.981102
C 833.352053 204.274275 833.7492 203.315479 833.7492 202.315875
C 833.7492 201.316271 833.352053 200.357475 832.645227 199.650648
C 831.9384 198.943822 830.979604 198.546675 829.98 198.546675
C 828.980396 198.546675 828.0216 198.943822 827.314773 199.650648
C 826.607947 200.357475 826.2108 201.316271 826.2108 202.315875
C 826.2108 203.315479 826.607947 204.274275 827.314773 204.981102
C 828.0216 205.687928 828.980396 206.085075 829.98 206.085075
z
" clip-path="url(#p3ee77a04fd)" style="fill: #457b9d; stroke: #17324d; stroke-width: 0.7; stroke-linejoin: miter"/>
   </g>
   <g id="patch_38">
    <path d="M 781.818 224.302875
C 783.206338 224.302875 784.538001 223.751282 785.519704 222.769579
C 786.501407 221.787876 787.053 220.456213 787.053 219.067875
C 787.053 217.679537 786.501407 216.347874 785.519704 215.366171
C 784.538001 214.384468 783.206338 213.832875 781.818 213.832875
C 780.429662 213.832875 779.097999 214.384468 778.116296 215.366171
C 777.134593 216.347874 776.583 217.679537 776.583 219.067875
C 776.583 220.456213 777.134593 221.787876 778.116296 222.769579
C 779.097999 223.751282 780.429662 224.302875 781.818 224.302875
z
" clip-path="url(#p3ee77a04fd)" style="fill: #e76f51; stroke: #17324d; stroke-width: 0.8; stroke-linejoin: miter"/>
   </g>
   <g id="patch_39">
    <path d="M 716.904 261.572994
Q 716.904 233.727524 716.904 205.882054
" clip-path="url(#p3ee77a04fd)" style="fill: none; stroke: #6c5ce7; stroke-width: 1.4; stroke-linecap: round"/>
    <path d="M 719.304 256.772994
L 716.904 261.572994
L 714.504 256.772994
" clip-path="url(#p3ee77a04fd)" style="fill: none; stroke: #6c5ce7; stroke-width: 1.4; stroke-linecap: round"/>
    <path d="M 714.504 210.682054
L 716.904 205.882054
L 719.304 210.682054
" clip-path="url(#p3ee77a04fd)" style="fill: none; stroke: #6c5ce7; stroke-width: 1.4; stroke-linecap: round"/>
   </g>
   <g id="line2d_1">
    <path d="M 712.716 173.29569
L 713.982958 173.399357
L 715.249916 173.413204
L 716.516874 173.336734
L 717.783832 173.1727
L 719.05079 172.927012
L 720.317748 172.608519
L 721.584706 172.228694
L 722.851664 171.801219
L 724.118622 171.341492
L 725.38558 170.866074
L 726.652538 170.392089
L 727.919496 169.936612
L 729.186454 169.51605
L 730.453412 169.14555
L 731.72037 168.838461
L 732.987328 168.605843
L 734.254286 168.456076
L 735.521244 168.394555
L 736.788202 168.423495
L 738.05516 168.541855
L 739.322118 168.74537
L 740.589076 169.02671
L 741.856034 169.375741
L 743.122992 169.779889
L 744.38995 170.224598
L 745.656908 170.693847
L 746.923866 171.170733
L 748.190824 171.638079
L 749.457782 172.07905
L 750.724739 172.477761
L 751.991697 172.819851
L 753.258655 173.092996
L 754.525613 173.287357
L 755.792571 173.395934
L 757.059529 173.414814
L 758.326487 173.343319
L 759.593445 173.184023
L 760.860403 172.942665
L 762.127361 172.627938
L 763.394319 172.25118
L 764.661277 171.825962
L 765.928235 171.367601
L 767.195193 170.892608
L 768.462151 170.418092
L 769.729109 169.961147
L 770.996067 169.538233
L 772.263025 169.164584
L 773.529983 168.853659
L 774.796941 168.616657
L 776.063899 168.462117
L 777.330857 168.395605
L 778.597815 168.419517
L 779.864773 168.532992
L 781.131731 168.731941
L 782.398689 169.009199
L 783.665647 169.354778
L 784.932605 169.756231
L 786.199563 170.199095
L 787.466521 170.667418
L 788.733479 171.144332
L 790.000437 171.612655
L 791.267395 172.055519
L 792.534353 172.456972
L 793.801311 172.802551
L 795.068269 173.079809
L 796.335227 173.278758
L 797.602185 173.392233
L 798.869143 173.416145
L 800.136101 173.349633
L 801.403059 173.195093
L 802.670017 172.958091
L 803.936975 172.647166
L 805.203933 172.273517
L 806.470891 171.850603
L 807.737849 171.393658
L 809.004807 170.919142
L 810.271765 170.444149
L 811.538723 169.985788
L 812.805681 169.56057
L 814.072639 169.183812
L 815.339597 168.869085
L 816.606555 168.627727
L 817.873513 168.468431
L 819.140471 168.396936
L 820.407429 168.415816
L 821.674387 168.524393
L 822.941345 168.718754
L 824.208303 168.991899
L 825.475261 169.333989
L 826.742218 169.7327
L 828.009176 170.173671
L 829.276134 170.641017
L 830.543092 171.117903
L 831.81005 171.587152
L 833.077008 172.031861
L 834.343966 172.436009
L 835.610924 172.78504
L 836.877882 173.06638
L 838.14484 173.269895
L 839.411798 173.388255
L 840.678756 173.417195
L 841.945714 173.355674
L 843.212672 173.205907
L 844.47963 172.973289
L 845.746588 172.6662
L 847.013546 172.2957
L 848.280504 171.875138
L 849.547462 171.419661
L 850.81442 170.945676
L 852.081378 170.470258
L 853.348336 170.010531
L 854.615294 169.583056
L 855.882252 169.203231
L 857.14921 168.884738
L 858.416168 168.63905
L 859.683126 168.475016
L 860.950084 168.398546
L 862.217042 168.412393
L 863.484 168.51606
" clip-path="url(#p3ee77a04fd)" style="fill: none; stroke: #e76f51; stroke-width: 1.2; stroke-linecap: square"/>
   </g>
   <g id="line2d_2">
    <path d="M 712.716 164.055698
L 713.982958 163.719996
L 715.249916 163.326339
L 716.516874 162.888905
L 717.783832 162.423454
L 719.05079 161.946749
L 720.317748 161.475964
L 721.584706 161.028057
L 722.851664 160.619162
L 724.118622 160.264007
L 725.38558 159.975387
L 726.652538 159.763698
L 727.919496 159.636566
L 729.186454 159.598568
L 730.453412 159.651076
L 731.72037 159.792196
L 732.987328 160.016846
L 734.254286 160.316934
L 735.521244 160.681649
L 736.788202 161.097855
L 738.05516 161.550558
L 739.322118 162.023452
L 740.589076 162.499503
L 741.856034 162.961561
L 743.122992 163.392984
L 744.38995 163.77823
L 745.656908 164.103423
L 746.923866 164.356848
L 748.190824 164.529377
L 749.457782 164.614795
L 750.724739 164.610025
L 751.991697 164.515239
L 753.258655 164.33385
L 754.525613 164.072394
L 755.792571 163.740289
L 757.059529 163.349496
L 758.326487 162.914093
L 759.593445 162.449765
L 760.860403 161.973236
L 762.127361 161.501673
L 763.394319 161.052061
L 764.661277 160.640596
L 765.928235 160.282101
L 767.195193 159.989488
L 768.462151 159.773298
L 769.729109 159.641318
L 770.996067 159.598303
L 772.263025 159.645802
L 773.529983 159.782104
L 774.796941 160.002299
L 776.063899 160.298456
L 777.330857 160.659906
L 778.597815 161.07363
L 779.864773 161.524724
L 781.131731 161.996939
L 782.398689 162.473265
L 783.665647 162.936545
L 784.932605 163.370091
L 786.199563 163.758284
L 787.466521 164.087142
L 788.733479 164.34482
L 790.000437 164.522034
L 791.267395 164.612402
L 792.534353 164.612668
L 793.801311 164.522822
L 795.068269 164.346102
L 796.335227 164.088872
L 797.602185 163.760399
L 798.869143 163.372515
L 800.136101 162.939192
L 801.403059 162.476038
L 802.670017 161.999739
L 803.936975 161.527449
L 805.203933 161.076183
L 806.470891 160.662195
L 807.737849 160.300398
L 809.004807 160.003825
L 810.271765 159.783158
L 811.538723 159.646346
L 812.805681 159.598318
L 814.072639 159.640803
L 815.339597 159.772271
L 816.606555 159.987987
L 817.873513 160.28018
L 819.140471 160.638325
L 820.407429 161.04952
L 821.674387 161.498954
L 822.941345 161.970438
L 824.208303 162.446988
L 825.475261 162.911437
L 826.742218 163.347057
L 828.009176 163.738154
L 829.276134 164.070641
L 830.543092 164.332542
L 831.81005 164.514422
L 833.077008 164.609729
L 834.343966 164.615031
L 835.610924 164.530137
L 836.877882 164.358104
L 838.14484 164.10513
L 839.411798 163.780326
L 840.678756 163.395394
L 841.945714 162.964198
L 843.212672 162.502271
L 844.47963 162.026253
L 845.746588 161.553291
L 847.013546 161.10042
L 848.280504 160.683955
L 849.547462 160.318897
L 850.81442 160.018397
L 852.081378 159.793277
L 853.348336 159.651649
L 854.615294 159.598613
L 855.882252 159.63608
L 857.14921 159.7627
L 858.416168 159.973912
L 859.683126 160.262108
L 860.950084 160.616907
L 862.217042 161.025529
L 863.484 161.473253
" clip-path="url(#p3ee77a04fd)" style="fill: none; stroke: #17324d; stroke-width: 1.2; stroke-linecap: square"/>
   </g>
   <g id="line2d_3">
    <path d="M 712.716 153.027829
L 713.982958 152.561401
L 715.249916 152.122165
L 716.516874 151.725943
L 717.783832 151.387008
L 719.05079 151.117567
L 720.317748 150.927328
L 721.584706 150.823142
L 722.851664 150.808763
L 724.118622 150.884708
L 725.38558 151.048242
L 726.652538 151.293474
L 727.919496 151.611571
L 729.186454 151.991074
L 730.453412 152.418313
L 731.72037 152.877898
L 732.987328 153.353274
L 734.254286 153.827317
L 735.521244 154.282951
L 736.788202 154.703765
L 738.05516 155.074599
L 739.322118 155.382095
L 740.589076 155.615177
L 741.856034 155.765449
L 743.122992 155.827498
L 744.38995 155.799088
L 745.656908 155.681244
L 746.923866 155.47821
L 748.190824 155.197299
L 749.457782 154.848631
L 750.724739 154.444766
L 751.991697 154.00025
L 753.258655 153.531096
L 754.525613 153.054204
L 755.792571 152.586752
L 757.059529 152.145579
L 758.326487 151.746576
L 759.593445 151.404117
L 760.860403 151.130536
L 762.127361 150.935689
L 763.394319 150.826594
L 764.661277 150.807182
L 765.928235 150.878151
L 767.195193 151.036945
L 768.462151 151.277845
L 769.729109 151.592172
L 770.996067 151.968604
L 772.263025 152.393581
L 773.529983 152.851795
L 774.796941 153.32674
L 776.063899 153.801308
L 777.330857 154.258405
L 778.597815 154.681565
L 779.864773 155.055544
L 781.131731 155.366873
L 782.398689 155.604336
L 783.665647 155.759379
L 784.932605 155.826417
L 786.199563 155.803037
L 787.466521 155.690079
L 788.733479 155.491613
L 790.000437 155.214788
L 791.267395 154.869576
L 792.534353 154.468411
L 793.801311 154.025744
L 795.068269 153.557521
L 796.335227 153.080608
L 797.602185 152.612185
L 798.869143 152.169123
L 800.136101 151.767384
L 801.403059 151.421439
L 802.670017 151.143748
L 803.936975 150.944315
L 805.203933 150.830324
L 806.470891 150.805881
L 807.737849 150.871866
L 809.004807 151.025903
L 810.271765 151.262443
L 811.538723 151.572964
L 812.805681 151.946283
L 814.072639 152.368951
L 815.339597 152.825743
L 816.606555 153.300205
L 817.873513 153.775246
L 819.140471 154.233753
L 820.407429 154.659212
L 821.674387 155.036296
L 822.941345 155.351422
L 824.208303 155.593239
L 825.475261 155.753036
L 826.742218 155.825057
L 828.009176 155.806708
L 829.276134 155.69865
L 830.543092 155.504774
L 831.81005 155.232065
L 833.077008 154.890347
L 834.343966 154.491928
L 835.610924 154.05116
L 836.877882 153.58392
L 838.14484 153.107039
L 839.411798 152.637696
L 840.678756 152.192795
L 841.945714 151.788365
L 843.212672 151.438972
L 844.47963 151.157202
L 845.746588 150.953206
L 847.013546 150.834331
L 848.280504 150.80486
L 849.547462 150.865854
L 850.81442 151.015116
L 852.081378 151.247269
L 853.348336 151.553952
L 854.615294 151.924116
L 855.882252 152.344427
L 857.14921 152.799746
L 858.416168 153.273672
L 859.683126 153.749132
L 860.950084 154.209
L 862.217042 154.63671
L 863.484 155.016856
" clip-path="url(#p3ee77a04fd)" style="fill: none; stroke: #e76f51; stroke-width: 1.2; stroke-linecap: square"/>
   </g>
   <g id="line2d_4">
    <path d="M 712.716 142.265156
L 713.982958 142.096834
L 715.249916 142.015851
L 716.516874 142.025125
L 717.783832 142.124321
L 719.05079 142.309867
L 720.317748 142.575078
L 721.584706 142.910402
L 722.851664 143.303759
L 724.118622 143.74098
L 725.38558 144.206316
L 726.652538 144.683004
L 727.919496 145.153874
L 729.186454 145.601964
L 730.453412 146.011132
L 731.72037 146.366641
L 732.987328 146.655685
L 734.254286 146.86785
L 735.521244 146.995496
L 736.788202 147.034023
L 738.05516 146.982044
L 739.322118 146.841432
L 740.589076 146.617251
L 741.856034 146.317577
L 743.122992 145.953205
L 744.38995 145.537259
L 745.656908 145.084723
L 746.923866 144.611898
L 748.190824 144.135816
L 749.457782 143.673626
L 750.724739 143.241977
L 751.991697 142.856418
L 753.258655 142.530836
L 754.525613 142.27696
L 755.792571 142.103936
L 757.059529 142.017995
L 758.326487 142.022233
L 759.593445 142.116498
L 760.860403 142.297394
L 762.127361 142.558405
L 763.394319 142.890129
L 764.661277 143.280616
L 765.928235 143.715801
L 767.195193 144.180008
L 768.462151 144.656515
L 769.729109 145.128158
L 770.996067 145.577947
L 772.263025 145.98968
L 773.529983 146.348526
L 774.796941 146.641559
L 776.063899 146.858223
L 777.330857 146.990714
L 778.597815 147.034259
L 779.864773 146.987289
L 781.131731 146.851497
L 782.398689 146.631773
L 783.665647 146.336034
L 784.932605 145.974931
L 786.199563 145.561472
L 787.466521 145.110551
L 788.733479 144.638411
L 790.000437 144.162058
L 791.267395 143.698652
L 792.534353 143.264886
L 793.801311 142.876383
L 795.068269 142.54714
L 796.335227 142.289015
L 797.602185 142.111307
L 798.869143 142.020417
L 800.136101 142.01962
L 801.403059 142.108942
L 802.670017 142.285169
L 803.936975 142.54195
L 805.203933 142.870037
L 806.470891 143.257612
L 807.737849 143.690713
L 809.004807 144.153739
L 810.271765 144.630012
L 811.538723 145.102375
L 812.805681 145.553813
L 814.072639 145.968064
L 815.339597 146.330208
L 816.606555 146.627197
L 817.873513 146.848336
L 819.140471 146.985657
L 820.407429 147.034214
L 821.674387 146.992259
L 822.941345 146.861302
L 824.208303 146.646061
L 825.475261 146.354288
L 826.742218 145.996495
L 828.009176 145.58557
L 829.276134 145.136314
L 830.543092 144.66491
L 831.81005 144.18834
L 833.077008 143.72377
L 834.343966 143.287934
L 835.610924 142.896533
L 836.877882 142.563664
L 838.14484 142.301319
L 839.411798 142.118948
L 840.678756 142.023119
L 841.945714 142.017285
L 843.212672 142.101656
L 844.47963 142.273193
L 845.746588 142.525716
L 847.013546 142.85013
L 848.280504 143.234748
L 849.547462 143.665716
L 850.81442 144.12751
L 852.081378 144.603496
L 853.348336 145.076526
L 854.615294 145.529563
L 855.882252 145.946287
L 857.14921 146.311687
L 858.416168 146.612601
L 859.683126 146.838189
L 860.950084 146.980325
L 862.217042 147.03389
L 863.484 146.996953
" clip-path="url(#p3ee77a04fd)" style="fill: none; stroke: #17324d; stroke-width: 1.2; stroke-linecap: square"/>
   </g>
   <g id="line2d_5">
    <path d="M 712.716 133.576932
L 713.982958 133.86147
L 715.249916 134.213196
L 716.516874 134.619439
L 717.783832 135.065567
L 719.05079 135.535509
L 720.317748 136.012337
L 721.584706 136.478875
L 722.851664 136.918318
L 724.118622 137.314836
L 725.38558 137.654145
L 726.652538 137.924025
L 727.919496 138.114752
L 729.186454 138.219457
L 730.453412 138.234368
L 731.72037 138.158947
L 732.987328 137.995913
L 734.254286 137.751137
L 735.521244 137.433437
L 736.788202 137.054256
L 738.05516 136.627254
L 739.322118 136.167811
L 740.589076 135.692479
L 741.856034 135.218377
L 743.122992 134.762586
L 744.38995 134.341523
L 745.656908 133.970355
L 746.923866 133.662452
L 748.190824 133.428906
L 749.457782 133.27813
L 750.724739 133.215553
L 751.991697 133.243432
L 753.258655 133.36076
L 754.525613 133.563313
L 755.792571 133.843794
L 757.059529 134.192098
L 758.326487 134.595681
L 759.593445 135.040004
L 760.860403 135.509062
L 762.127361 135.985959
L 763.394319 136.453515
L 764.661277 136.89489
L 765.928235 137.294184
L 767.195193 137.637014
L 768.462151 137.91103
L 769.729109 138.106363
L 770.996067 138.215975
L 772.263025 138.235919
L 773.529983 138.165475
L 774.796941 138.007183
L 776.063899 137.766743
L 777.330857 137.452816
L 778.597815 137.076711
L 779.864773 136.651976
L 781.131731 136.193909
L 782.398689 135.719013
L 783.665647 135.244392
L 784.932605 134.787144
L 786.199563 134.363739
L 787.466521 133.989429
L 788.733479 133.677698
L 790.000437 133.439774
L 791.267395 133.284228
L 792.534353 133.216663
L 793.801311 133.239512
L 795.068269 133.351953
L 796.335227 133.549935
L 797.602185 133.826327
L 798.869143 134.171172
L 800.136101 134.572049
L 801.403059 135.014518
L 802.670017 135.482639
L 803.936975 135.959551
L 805.203933 136.428075
L 806.470891 136.871332
L 807.737849 137.273358
L 809.004807 137.61967
L 810.271765 137.897792
L 811.538723 138.097708
L 812.805681 138.212216
L 814.072639 138.23719
L 815.339597 138.171732
L 816.606555 138.018198
L 817.873513 137.782121
L 819.140471 137.472003
L 820.407429 137.099015
L 821.674387 136.676594
L 822.941345 136.219955
L 824.208303 135.745548
L 825.475261 135.27046
L 826.742218 134.811806
L 828.009176 134.386107
L 829.276134 134.008698
L 830.543092 133.693173
L 831.81005 133.450897
L 833.077008 133.290599
L 834.343966 133.218052
L 835.610924 133.23587
L 836.877882 133.343411
L 838.14484 133.5368
L 839.411798 133.809072
L 840.678756 134.15042
L 841.945714 134.548546
L 843.212672 134.989111
L 844.47963 135.456244
L 845.746588 135.933118
L 847.013546 136.402556
L 848.280504 136.847647
L 849.547462 137.252359
L 850.81442 137.602114
L 852.081378 137.884313
L 853.348336 138.088789
L 854.615294 138.208179
L 855.882252 138.238181
L 857.14921 138.177715
L 858.416168 138.028958
L 859.683126 137.79727
L 860.950084 137.490995
L 862.217042 137.121167
L 863.484 136.701107
" clip-path="url(#p3ee77a04fd)" style="fill: none; stroke: #e76f51; stroke-width: 1.2; stroke-linecap: square"/>
   </g>
   <g id="line2d_6">
    <path d="M 712.716 126.865172
L 713.982958 127.340967
L 715.249916 127.802026
L 716.516874 128.231741
L 717.783832 128.614632
L 719.05079 128.936908
L 720.317748 129.186959
L 721.584706 129.355779
L 722.851664 129.437286
L 724.118622 129.428544
L 725.38558 129.329868
L 726.652538 129.144812
L 727.919496 128.880043
L 729.186454 128.545098
L 730.453412 128.152042
L 731.72037 127.715033
L 732.987328 127.249814
L 734.254286 126.773143
L 735.521244 126.302189
L 736.788202 125.853917
L 738.05516 125.444476
L 739.322118 125.088612
L 740.589076 124.799146
L 741.856034 124.586504
L 743.122992 124.458346
L 744.38995 124.419289
L 745.656908 124.470739
L 746.923866 124.610843
L 748.190824 124.834554
L 749.457782 125.133814
L 750.724739 125.497843
L 751.991697 125.913528
L 753.258655 126.365896
L 754.525613 126.838651
L 755.792571 127.314764
L 757.059529 127.777085
L 758.326487 128.20896
L 759.593445 128.594832
L 760.860403 128.920802
L 762.127361 129.175128
L 763.394319 129.348648
L 764.661277 129.435113
L 765.928235 129.431406
L 767.195193 129.337663
L 768.462151 129.157259
L 769.729109 128.896693
L 770.996067 128.565352
L 772.263025 128.17517
L 773.529983 127.740203
L 774.796941 127.276118
L 776.063899 126.799633
L 777.330857 126.327912
L 778.597815 125.877946
L 779.864773 125.465945
L 781.131731 125.106749
L 782.398689 124.813297
L 783.665647 124.596159
L 784.932605 124.463157
L 786.199563 124.419083
L 787.466521 124.465523
L 788.733479 124.600805
L 790.000437 124.820056
L 791.267395 125.115379
L 792.534353 125.476134
L 793.801311 125.889327
L 795.068269 126.340075
L 796.335227 126.81214
L 797.602185 127.288518
L 798.869143 127.752049
L 800.136101 128.186037
L 801.403059 128.574847
L 802.670017 128.904475
L 803.936975 129.163047
L 805.203933 129.341248
L 806.470891 129.43266
L 807.737849 129.43399
L 809.004807 129.34519
L 810.271765 129.169458
L 811.538723 128.913125
L 812.805681 128.585424
L 814.072639 128.19816
L 815.339597 127.765282
L 816.606555 127.302383
L 817.873513 126.826138
L 819.140471 126.353702
L 820.407429 125.902093
L 821.674387 125.487578
L 822.941345 125.125089
L 824.208303 124.827683
L 825.475261 124.606074
L 826.742218 124.468243
L 828.009176 124.419157
L 829.276134 124.460582
L 830.543092 124.591028
L 831.81005 124.805794
L 833.077008 125.097146
L 834.343966 125.454587
L 835.610924 125.865242
L 836.877882 126.314319
L 838.14484 126.785642
L 839.411798 127.262232
L 840.678756 127.726922
L 841.945714 128.162973
L 843.212672 128.554679
L 844.47963 128.887928
L 845.746588 129.150717
L 847.013546 129.33358
L 848.280504 129.429929
L 849.547462 129.436295
L 850.81442 129.352448
L 852.081378 129.181407
L 853.348336 128.929335
L 854.615294 128.605312
L 855.882252 128.221008
L 857.14921 127.790268
L 858.416168 127.328607
L 859.683126 126.852655
L 860.950084 126.379557
L 862.217042 125.926355
L 863.484 125.509372
" clip-path="url(#p3ee77a04fd)" style="fill: none; stroke: #17324d; stroke-width: 1.2; stroke-linecap: square"/>
   </g>
   <g id="line2d_7">
    <path d="M 733.656 265.135875
L 829.98 265.135875
L 829.98 202.315875
L 733.656 202.315875
L 733.656 265.135875
" clip-path="url(#p3ee77a04fd)" style="fill: none; stroke: #64748b; stroke-linecap: square"/>
   </g>
   <g id="patch_40">
    <path d="M 819.818448 109.913934
Q 824.626951 126.884951 829.130672 142.780277
" style="fill: none; stroke: #e76f51; stroke-linecap: round"/>
    <path d="M 829.964504 138.386563
L 829.130672 142.780277
L 826.116 139.476984
" style="fill: none; stroke: #e76f51; stroke-linecap: round"/>
   </g>
   <g id="text_7">
    <text style="font-weight: 700; font-size: 10px; font-family: 'Hiragino Sans'; text-anchor: start; fill: #e76f51" x="792.288" y="103.897875" transform="rotate(-0 792.288 103.897875)">高転位密度</text>
   </g>
   <g id="patch_41">
    <path d="M 840.636275 218.440081
Q 812.226948 218.743306 784.935591 219.0346
" style="fill: none; stroke: #e76f51; stroke-linecap: round"/>
    <path d="M 788.956708 220.991794
L 784.935591 219.0346
L 788.914017 216.992022
" style="fill: none; stroke: #e76f51; stroke-linecap: round"/>
   </g>
   <g id="text_8">
    <text style="font-weight: 700; font-size: 10px; font-family: 'Hiragino Sans'; text-anchor: start; fill: #e76f51" x="844.638" y="221.161875" transform="rotate(-0 844.638 221.161875)">侵入C</text>
   </g>
   <g id="text_9">
    <!-- $c&gt;a$ -->
    <g style="fill: #6c5ce7" transform="translate(709.263688 245.725875) rotate(-90)">
     <text>
      <tspan x="0" y="-0.1875" style="font-style: oblique; font-size: 10px; font-family: 'DejaVu Sans'; fill: #6c5ce7">c</tspan>
      <tspan x="17.773438" y="-0.1875" style="font-style: oblique; font-size: 10px; font-family: 'DejaVu Sans'; fill: #6c5ce7">a</tspan>
      <tspan x="7.446289" y="-0.1875" style="font-size: 10px; font-family: 'DejaVu Sans'; fill: #6c5ce7">&gt;</tspan>
     </text>
    </g>
   </g>
   <g id="text_10">
    <text style="font-weight: 700; font-size: 13px; font-family: 'Hiragino Sans'; text-anchor: middle; fill: #17324d" x="788.1" y="99.536281" transform="rotate(-0 788.1 99.536281)">lath</text>
   </g>
   <g id="text_11">
    <text style="font-size: 10px; font-family: 'Hiragino Sans'; text-anchor: middle; fill: #64748b" x="788.1" y="281.887875" transform="rotate(-0 788.1 281.887875)">Cによるbct格子ひずみ</text>
   </g>
  </g>
  <g id="patch_42">
   <path d="M 220.660682 169.632
Q 232.271358 169.632 242.204983 169.632
" style="fill: none; stroke: #17324d; stroke-width: 1.5; stroke-linecap: round"/>
   <path d="M 235.804983 166.432
L 242.204983 169.632
L 235.804983 172.832
z
" style="fill: #17324d; stroke: #17324d; stroke-width: 1.5; stroke-linecap: round"/>
  </g>
  <g id="patch_43">
   <path d="M 447.460682 169.632
Q 459.071358 169.632 469.004983 169.632
" style="fill: none; stroke: #17324d; stroke-width: 1.5; stroke-linecap: round"/>
   <path d="M 462.604983 166.432
L 469.004983 169.632
L 462.604983 172.832
z
" style="fill: #17324d; stroke: #17324d; stroke-width: 1.5; stroke-linecap: round"/>
  </g>
  <g id="patch_44">
   <path d="M 674.260682 169.632
Q 685.871358 169.632 695.804983 169.632
" style="fill: none; stroke: #17324d; stroke-width: 1.5; stroke-linecap: round"/>
   <path d="M 689.404983 166.432
L 695.804983 169.632
L 689.404983 172.832
z
" style="fill: #17324d; stroke: #17324d; stroke-width: 1.5; stroke-linecap: round"/>
  </g>
  <g id="text_12">
   <text style="font-weight: 700; font-size: 15px; font-family: 'Hiragino Sans'; text-anchor: middle; fill: #17324d" x="450" y="19.080469" transform="rotate(-0 450 19.080469)">マルテンサイトの階層組織と強化因子（模式図）</text>
  </g>
  <g id="text_13">
   <text style="font-size: 10px; font-family: 'Hiragino Sans'; text-anchor: middle; fill: #64748b" x="450" y="340.704" transform="rotate(-0 450 340.704)">各パネルの縮尺は共通ではない。階層境界・高転位密度・侵入Cの格子ひずみが転位運動を妨げる。</text>
  </g>
 </g>
 <defs>
  <clipPath id="p86afc7b801">
   <rect x="7.2" y="82.957875" width="209.4" height="209.4"/>
  </clipPath>
  <clipPath id="pc059ddde6a">
   <rect x="232.6" y="82.957875" width="209.4" height="209.4"/>
  </clipPath>
  <clipPath id="pccd53215fe">
   <rect x="458" y="82.957875" width="209.4" height="209.4"/>
  </clipPath>
  <clipPath id="p3ee77a04fd">
   <rect x="683.4" y="82.957875" width="209.4" height="209.4"/>
  </clipPath>
 </defs>
</svg>
