<?xml version="1.0" encoding="utf-8" standalone="no"?>
<!DOCTYPE svg PUBLIC "-//W3C//DTD SVG 1.1//EN"
  "http://www.w3.org/Graphics/SVG/1.1/DTD/svg11.dtd">
<svg xmlns:xlink="http://www.w3.org/1999/xlink" width="655.425545pt" height="350.9908pt" viewBox="0 0 655.425545 350.9908" xmlns="http://www.w3.org/2000/svg" version="1.1">
 <metadata>
  <rdf:RDF xmlns:dc="http://purl.org/dc/elements/1.1/" xmlns:cc="http://creativecommons.org/ns#" xmlns:rdf="http://www.w3.org/1999/02/22-rdf-syntax-ns#">
   <cc:Work>
    <dc:type rdf:resource="http://purl.org/dc/dcmitype/StillImage"/>
    <dc:format>image/svg+xml</dc:format>
    <dc:creator>
     <cc:Agent>
      <dc:title>Matplotlib v3.10.9, https://matplotlib.org/</dc:title>
     </cc:Agent>
    </dc:creator>
   </cc:Work>
  </rdf:RDF>
 </metadata>
 <defs>
  <style type="text/css">*{stroke-linejoin: round; stroke-linecap: butt}</style>
 </defs>
 <g id="figure_1">
  <g id="patch_1">
   <path d="M 0 350.9908
L 655.425545 350.9908
L 655.425545 0
L 0 0
z
" style="fill: #ffffff"/>
  </g>
  <g id="axes_1">
   <g id="patch_2">
    <path d="M 14.34645 290.9502
L 238.26855 290.9502
L 238.26855 107.52465
L 14.34645 107.52465
z
" clip-path="url(#pafe2bc2e2e)" style="fill: #f7f4ed"/>
   </g>
   <g id="patch_3">
    <path d="M 75.421813 124.1997
Q 126.309394 124.1997 177.196974 124.1997
" clip-path="url(#pafe2bc2e2e)" style="fill: none; stroke: #64748b; stroke-width: 1.7; stroke-linecap: round"/>
    <path d="M 81.421813 127.1997
L 75.421813 124.1997
L 81.421813 121.1997
" clip-path="url(#pafe2bc2e2e)" style="fill: none; stroke: #64748b; stroke-width: 1.7; stroke-linecap: round"/>
    <path d="M 171.196974 121.1997
L 177.196974 124.1997
L 171.196974 127.1997
" clip-path="url(#pafe2bc2e2e)" style="fill: none; stroke: #64748b; stroke-width: 1.7; stroke-linecap: round"/>
   </g>
   <g id="patch_4">
    <path d="M 128.053399 170.69456
Q 138.218762 191.749381 148.384125 212.804201
" clip-path="url(#pafe2bc2e2e)" style="fill: none; stroke: #457b9d; stroke-width: 1.8; stroke-linecap: round"/>
    <path d="M 127.972876 176.507779
L 128.053399 170.69456
L 132.65566 174.24691
" clip-path="url(#pafe2bc2e2e)" style="fill: none; stroke: #457b9d; stroke-width: 1.8; stroke-linecap: round"/>
    <path d="M 148.464647 206.990982
L 148.384125 212.804201
L 143.781863 209.251851
" clip-path="url(#pafe2bc2e2e)" style="fill: none; stroke: #457b9d; stroke-width: 1.8; stroke-linecap: round"/>
   </g>
   <g id="patch_5">
    <path d="M 71.51805 172.65444
Q 71.51805 187.92467 71.51805 200.958832
" clip-path="url(#pafe2bc2e2e)" style="fill: none; stroke: #2a9d8f; stroke-width: 2; stroke-linecap: round"/>
    <path d="M 74.31805 195.358832
L 71.51805 200.958832
L 68.71805 195.358832
z
" clip-path="url(#pafe2bc2e2e)" style="fill: #2a9d8f; stroke: #2a9d8f; stroke-width: 2; stroke-linecap: round"/>
   </g>
   <g id="patch_6">
    <path d="M 181.09695 203.189985
Q 181.09695 187.919755 181.09695 174.885593
" clip-path="url(#pafe2bc2e2e)" style="fill: none; stroke: #2a9d8f; stroke-width: 2; stroke-linecap: round"/>
    <path d="M 178.29695 180.485593
L 181.09695 174.885593
L 183.89695 180.485593
z
" clip-path="url(#pafe2bc2e2e)" style="fill: #2a9d8f; stroke: #2a9d8f; stroke-width: 2; stroke-linecap: round"/>
   </g>
   <g id="patch_7">
    <path d="M 126.3075 226.252088
Q 126.3075 244.500775 126.3075 260.06618
" clip-path="url(#pafe2bc2e2e)" style="fill: none; stroke: #6c5ce7; stroke-width: 2.4; stroke-linecap: round"/>
    <path d="M 129.5075 253.66618
L 126.3075 260.06618
L 123.1075 253.66618
z
" clip-path="url(#pafe2bc2e2e)" style="fill: #6c5ce7; stroke: #6c5ce7; stroke-width: 2.4; stroke-linecap: round"/>
   </g>
   <g id="line2d_1">
    <path d="M 19.11075 167.0784
L 71.51805 167.0784
" clip-path="url(#pafe2bc2e2e)" style="fill: none; stroke: #e76f51; stroke-width: 3; stroke-linecap: square"/>
   </g>
   <g id="line2d_2">
    <path d="M 71.51805 167.0784
L 71.976539 174.151626
L 72.893517 179.278002
L 73.810496 182.761141
L 75.185963 186.7881
L 76.56143 190.039506
L 78.395387 193.654954
L 80.229343 196.72106
L 82.0633 199.394566
L 84.355745 202.319486
L 86.648191 204.880821
L 88.940637 207.148356
L 91.691571 209.547463
L 94.442506 211.648637
L 97.193441 213.492357
L 100.402865 215.357109
L 103.612288 216.946338
L 106.821712 218.285703
L 110.031136 219.3944
L 113.24056 220.286848
L 116.449984 220.973791
L 120.117897 221.517105
L 123.78581 221.809789
L 127.453723 221.855859
L 131.121636 221.655941
L 134.789549 221.207308
L 137.998973 220.6059
L 141.208396 219.802655
L 144.41782 218.788168
L 147.627244 217.549702
L 150.836668 216.070274
L 154.046092 214.327256
L 156.797027 212.600621
L 159.547961 210.632453
L 162.298896 208.388244
L 165.049831 205.820053
L 167.342276 203.383096
L 169.634722 200.613988
L 171.468678 198.100195
L 173.302635 195.244712
L 175.136591 191.930033
L 176.512059 189.018913
L 177.887526 185.555
L 178.804504 182.761141
L 179.721483 179.278002
L 180.179972 177.060415
L 180.638461 174.151626
L 181.09695 167.0784
L 181.09695 167.0784
" clip-path="url(#pafe2bc2e2e)" style="fill: none; stroke: #e76f51; stroke-width: 3; stroke-linecap: square"/>
   </g>
   <g id="line2d_3">
    <path d="M 181.09695 167.0784
L 233.50425 167.0784
" clip-path="url(#pafe2bc2e2e)" style="fill: none; stroke: #e76f51; stroke-width: 3; stroke-linecap: square"/>
   </g>
   <g id="text_1">
    <!-- 有効自由間隔 $\lambda$ -->
    <g style="fill: #64748b" transform="translate(91.6575 118.244325)">
     <text>
      <tspan x="0" y="-0.265625" style="font-size: 10px; font-family: 'Hiragino Sans'; fill: #64748b">有</tspan>
      <tspan x="9.999985" y="-0.265625" style="font-size: 10px; font-family: 'Hiragino Sans'; fill: #64748b">効</tspan>
      <tspan x="19.999969" y="-0.265625" style="font-size: 10px; font-family: 'Hiragino Sans'; fill: #64748b">自</tspan>
      <tspan x="29.999954" y="-0.265625" style="font-size: 10px; font-family: 'Hiragino Sans'; fill: #64748b">由</tspan>
      <tspan x="39.999939" y="-0.265625" style="font-size: 10px; font-family: 'Hiragino Sans'; fill: #64748b">間</tspan>
      <tspan x="49.999924" y="-0.265625" style="font-size: 10px; font-family: 'Hiragino Sans'; fill: #64748b">隔</tspan>
      <tspan x="59.999908" y="-0.265625" style="font-size: 10px; font-family: 'Hiragino Sans'; fill: #64748b"> </tspan>
      <tspan x="63.329895" y="-0.265625" style="font-style: oblique; font-size: 10px; font-family: 'DejaVu Sans'; fill: #64748b">λ</tspan>
     </text>
    </g>
   </g>
   <g id="text_2">
    <!-- $R$ -->
    <g style="fill: #457b9d" transform="translate(139.48255 195.6642)">
     <text>
      <tspan x="0" y="-0.703125" style="font-style: oblique; font-size: 10px; font-family: 'DejaVu Sans'; fill: #457b9d">R</tspan>
     </text>
    </g>
   </g>
   <g id="text_3">
    <!-- $T$ -->
    <g style="fill: #2a9d8f" transform="translate(63.180525 202.81065)">
     <text>
      <tspan x="0" y="-0.703125" style="font-style: oblique; font-size: 10px; font-family: 'DejaVu Sans'; fill: #2a9d8f">T</tspan>
     </text>
    </g>
   </g>
   <g id="text_4">
    <!-- $T$ -->
    <g style="fill: #2a9d8f" transform="translate(187.052325 202.81065)">
     <text>
      <tspan x="0" y="-0.703125" style="font-style: oblique; font-size: 10px; font-family: 'DejaVu Sans'; fill: #2a9d8f">T</tspan>
     </text>
    </g>
   </g>
   <g id="text_5">
    <!-- 単位長さ当たりの力 $\tau b$ -->
    <g style="fill: #6c5ce7" transform="translate(132.262875 250.901187)">
     <text>
      <tspan x="0" y="-0.234375" style="font-size: 10px; font-family: 'Hiragino Sans'; fill: #6c5ce7">単</tspan>
      <tspan x="9.999985" y="-0.234375" style="font-size: 10px; font-family: 'Hiragino Sans'; fill: #6c5ce7">位</tspan>
      <tspan x="19.999969" y="-0.234375" style="font-size: 10px; font-family: 'Hiragino Sans'; fill: #6c5ce7">長</tspan>
      <tspan x="29.999954" y="-0.234375" style="font-size: 10px; font-family: 'Hiragino Sans'; fill: #6c5ce7">さ</tspan>
      <tspan x="39.999939" y="-0.234375" style="font-size: 10px; font-family: 'Hiragino Sans'; fill: #6c5ce7">当</tspan>
      <tspan x="49.999924" y="-0.234375" style="font-size: 10px; font-family: 'Hiragino Sans'; fill: #6c5ce7">た</tspan>
      <tspan x="59.999908" y="-0.234375" style="font-size: 10px; font-family: 'Hiragino Sans'; fill: #6c5ce7">り</tspan>
      <tspan x="69.999893" y="-0.234375" style="font-size: 10px; font-family: 'Hiragino Sans'; fill: #6c5ce7">の</tspan>
      <tspan x="79.999878" y="-0.234375" style="font-size: 10px; font-family: 'Hiragino Sans'; fill: #6c5ce7">力</tspan>
      <tspan x="89.999863" y="-0.234375" style="font-size: 10px; font-family: 'Hiragino Sans'; fill: #6c5ce7"> </tspan>
      <tspan x="93.329849" y="-0.234375" style="font-style: oblique; font-size: 10px; font-family: 'DejaVu Sans'; fill: #6c5ce7">τ</tspan>
      <tspan x="99.350357" y="-0.234375" style="font-style: oblique; font-size: 10px; font-family: 'DejaVu Sans'; fill: #6c5ce7">b</tspan>
     </text>
    </g>
   </g>
   <g id="text_6">
    <!-- 臨界付近：$R\simeq\lambda/2,\quad \tau b\simeq T/R$ -->
    <g style="fill: #17324d" transform="translate(56.1575 284.994825)">
     <text>
      <tspan x="0" y="-0.140625" style="font-weight: 700; font-size: 10px; font-family: 'Hiragino Sans'; fill: #17324d">臨</tspan>
      <tspan x="9.999985" y="-0.140625" style="font-weight: 700; font-size: 10px; font-family: 'Hiragino Sans'; fill: #17324d">界</tspan>
      <tspan x="19.999969" y="-0.140625" style="font-weight: 700; font-size: 10px; font-family: 'Hiragino Sans'; fill: #17324d">付</tspan>
      <tspan x="29.999954" y="-0.140625" style="font-weight: 700; font-size: 10px; font-family: 'Hiragino Sans'; fill: #17324d">近</tspan>
      <tspan x="39.999939" y="-0.140625" style="font-weight: 700; font-size: 10px; font-family: 'Hiragino Sans'; fill: #17324d">：</tspan>
      <tspan x="49.999924" y="-0.140625" style="font-style: oblique; font-size: 10px; font-family: 'DejaVu Sans'; fill: #17324d">R</tspan>
      <tspan x="69.223557" y="-0.140625" style="font-style: oblique; font-size: 10px; font-family: 'DejaVu Sans'; fill: #17324d">λ</tspan>
      <tspan x="99.366135" y="-0.140625" style="font-style: oblique; font-size: 10px; font-family: 'DejaVu Sans'; fill: #17324d">τ</tspan>
      <tspan x="105.386642" y="-0.140625" style="font-style: oblique; font-size: 10px; font-family: 'DejaVu Sans'; fill: #17324d">b</tspan>
      <tspan x="124.009689" y="-0.140625" style="font-style: oblique; font-size: 10px; font-family: 'DejaVu Sans'; fill: #17324d">T</tspan>
      <tspan x="133.362228" y="-0.140625" style="font-style: oblique; font-size: 10px; font-family: 'DejaVu Sans'; fill: #17324d">R</tspan>
      <tspan x="58.896408" y="-0.140625" style="font-size: 10px; font-family: 'DejaVu Sans'; fill: #17324d">≃</tspan>
      <tspan x="75.141525" y="-0.140625" style="font-size: 10px; font-family: 'DejaVu Sans'; fill: #17324d">/</tspan>
      <tspan x="78.135666" y="-0.140625" style="font-size: 10px; font-family: 'DejaVu Sans'; fill: #17324d">2</tspan>
      <tspan x="84.497971" y="-0.140625" style="font-size: 10px; font-family: 'DejaVu Sans'; fill: #17324d">,</tspan>
      <tspan x="113.682541" y="-0.140625" style="font-size: 10px; font-family: 'DejaVu Sans'; fill: #17324d">≃</tspan>
      <tspan x="130.118088" y="-0.140625" style="font-size: 10px; font-family: 'DejaVu Sans'; fill: #17324d">/</tspan>
     </text>
    </g>
   </g>
   <g id="text_7">
    <text style="font-weight: 700; font-size: 13px; font-family: 'Hiragino Sans'; text-anchor: middle; fill: #17324d" x="126.3075" y="75.321" transform="rotate(-0 126.3075 75.321)">粒子間で連続転位線が張り出す</text>
   </g>
   <g id="patch_8">
    <path d="M 71.51805 184.944525
C 76.256202 184.944525 80.800929 183.062037 84.151308 179.711658
C 87.501687 176.361279 89.384175 171.816552 89.384175 167.0784
C 89.384175 162.340248 87.501687 157.795521 84.151308 154.445142
C 80.800929 151.094763 76.256202 149.212275 71.51805 149.212275
C 66.779898 149.212275 62.235171 151.094763 58.884792 154.445142
C 55.534413 157.795521 53.651925 162.340248 53.651925 167.0784
C 53.651925 171.816552 55.534413 176.361279 58.884792 179.711658
C 62.235171 183.062037 66.779898 184.944525 71.51805 184.944525
z
" clip-path="url(#pafe2bc2e2e)" style="fill: #e9c46a; stroke: #17324d; stroke-width: 1.6; stroke-linejoin: miter"/>
   </g>
   <g id="patch_9">
    <path d="M 181.09695 184.944525
C 185.835102 184.944525 190.379829 183.062037 193.730208 179.711658
C 197.080587 176.361279 198.963075 171.816552 198.963075 167.0784
C 198.963075 162.340248 197.080587 157.795521 193.730208 154.445142
C 190.379829 151.094763 185.835102 149.212275 181.09695 149.212275
C 176.358798 149.212275 171.814071 151.094763 168.463692 154.445142
C 165.113313 157.795521 163.230825 162.340248 163.230825 167.0784
C 163.230825 171.816552 165.113313 176.361279 168.463692 179.711658
C 171.814071 183.062037 176.358798 184.944525 181.09695 184.944525
z
" clip-path="url(#pafe2bc2e2e)" style="fill: #e9c46a; stroke: #17324d; stroke-width: 1.6; stroke-linejoin: miter"/>
   </g>
  </g>
  <g id="axes_2">
   <g id="patch_10">
    <path d="M 417.156995 290.9502
L 641.079095 290.9502
L 641.079095 107.52465
L 417.156995 107.52465
z
" clip-path="url(#pbb18ebaffd)" style="fill: #f7f4ed"/>
   </g>
   <g id="patch_11">
    <path d="M 474.328595 198.04635
C 482.541392 198.04635 490.418919 194.783371 496.226243 188.976047
C 502.033567 183.168723 505.296545 175.291196 505.296545 167.0784
C 505.296545 158.865604 502.033567 150.988077 496.226243 145.180753
C 490.418919 139.373429 482.541392 136.11045 474.328595 136.11045
C 466.115799 136.11045 458.238272 139.373429 452.430948 145.180753
C 446.623624 150.988077 443.360645 158.865604 443.360645 167.0784
C 443.360645 175.291196 446.623624 183.168723 452.430948 188.976047
C 458.238272 194.783371 466.115799 198.04635 474.328595 198.04635
L 474.328595 198.04635
z
" clip-path="url(#pbb18ebaffd)" style="fill: none; stroke: #e76f51; stroke-width: 2.8; stroke-linejoin: miter"/>
   </g>
   <g id="patch_12">
    <path d="M 583.907495 198.04635
C 592.120292 198.04635 599.997819 194.783371 605.805143 188.976047
C 611.612467 183.168723 614.875445 175.291196 614.875445 167.0784
C 614.875445 158.865604 611.612467 150.988077 605.805143 145.180753
C 599.997819 139.373429 592.120292 136.11045 583.907495 136.11045
C 575.694699 136.11045 567.817172 139.373429 562.009848 145.180753
C 556.202524 150.988077 552.939545 158.865604 552.939545 167.0784
C 552.939545 175.291196 556.202524 183.168723 562.009848 188.976047
C 567.817172 194.783371 575.694699 198.04635 583.907495 198.04635
L 583.907495 198.04635
z
" clip-path="url(#pbb18ebaffd)" style="fill: none; stroke: #e76f51; stroke-width: 2.8; stroke-linejoin: miter"/>
   </g>
   <g id="patch_13">
    <path d="M 581.140921 248.0715
Q 602.964789 248.0715 621.993573 248.0715
" clip-path="url(#pbb18ebaffd)" style="fill: none; stroke: #e76f51; stroke-width: 2.5; stroke-linecap: round"/>
    <path d="M 615.593573 244.8715
L 621.993573 248.0715
L 615.593573 251.2715
z
" clip-path="url(#pbb18ebaffd)" style="fill: #e76f51; stroke: #e76f51; stroke-width: 2.5; stroke-linecap: round"/>
   </g>
   <g id="line2d_4">
    <path d="M 426.685595 248.0715
L 631.550495 248.0715
" clip-path="url(#pbb18ebaffd)" style="fill: none; stroke: #e76f51; stroke-width: 3; stroke-linecap: square"/>
   </g>
   <g id="patch_14">
    <path d="M 499.566062 124.369276
Q 487.854608 129.817771 477.156856 134.794664
" style="fill: none; stroke: #e76f51; stroke-linecap: round"/>
    <path d="M 481.627214 134.920773
L 477.156856 134.794664
L 479.939958 131.294044
" style="fill: none; stroke: #e76f51; stroke-linecap: round"/>
   </g>
   <g id="text_8">
    <text style="font-weight: 700; font-size: 10px; font-family: 'Hiragino Sans'; fill: #e76f51" transform="translate(494.118045 107.636025)">粒子周囲に残る</text>
    <text style="font-weight: 700; font-size: 10px; font-family: 'Hiragino Sans'; fill: #e76f51" transform="translate(493.768827 119.4354)">Orowan loop</text>
   </g>
   <g id="patch_15">
    <path d="M 565.4266 265.477671
Q 572.797004 257.508696 579.408265 250.360515
" style="fill: none; stroke: #e76f51; stroke-linecap: round"/>
    <path d="M 575.223994 251.939083
L 579.408265 250.360515
L 578.160557 254.655073
" style="fill: none; stroke: #e76f51; stroke-linecap: round"/>
   </g>
   <g id="text_9">
    <text style="font-size: 10px; font-family: 'Hiragino Sans'; text-anchor: middle; fill: #e76f51" x="557.703845" y="276.6573" transform="rotate(-0 557.703845 276.6573)">通過後の転位</text>
   </g>
   <g id="text_10">
    <text style="font-size: 10px; font-family: 'Hiragino Sans'; text-anchor: middle; fill: #64748b" x="529.118045" y="200.4285" transform="rotate(-0 529.118045 200.4285)">粒子は切断されない</text>
   </g>
   <g id="text_11">
    <text style="font-weight: 700; font-size: 13px; font-family: 'Hiragino Sans'; text-anchor: middle; fill: #17324d" x="529.118045" y="75.321" transform="rotate(-0 529.118045 75.321)">通過後、粒子周囲へループを残す</text>
   </g>
   <g id="patch_16">
    <path d="M 474.328595 184.944525
C 479.066747 184.944525 483.611474 183.062037 486.961854 179.711658
C 490.312233 176.361279 492.19472 171.816552 492.19472 167.0784
C 492.19472 162.340248 490.312233 157.795521 486.961854 154.445142
C 483.611474 151.094763 479.066747 149.212275 474.328595 149.212275
C 469.590444 149.212275 465.045717 151.094763 461.695337 154.445142
C 458.344958 157.795521 456.46247 162.340248 456.46247 167.0784
C 456.46247 171.816552 458.344958 176.361279 461.695337 179.711658
C 465.045717 183.062037 469.590444 184.944525 474.328595 184.944525
z
" clip-path="url(#pbb18ebaffd)" style="fill: #e9c46a; stroke: #17324d; stroke-width: 1.6; stroke-linejoin: miter"/>
   </g>
   <g id="patch_17">
    <path d="M 583.907495 184.944525
C 588.645647 184.944525 593.190374 183.062037 596.540754 179.711658
C 599.891133 176.361279 601.77362 171.816552 601.77362 167.0784
C 601.77362 162.340248 599.891133 157.795521 596.540754 154.445142
C 593.190374 151.094763 588.645647 149.212275 583.907495 149.212275
C 579.169344 149.212275 574.624617 151.094763 571.274237 154.445142
C 567.923858 157.795521 566.04137 162.340248 566.04137 167.0784
C 566.04137 171.816552 567.923858 176.361279 571.274237 179.711658
C 574.624617 183.062037 579.169344 184.944525 583.907495 184.944525
z
" clip-path="url(#pbb18ebaffd)" style="fill: #e9c46a; stroke: #17324d; stroke-width: 1.6; stroke-linejoin: miter"/>
   </g>
  </g>
  <g id="text_12">
   <text style="font-weight: 700; font-size: 15px; font-family: 'Hiragino Sans'; text-anchor: middle; fill: #17324d" x="327.712773" y="19.080469" transform="rotate(-0 327.712773 19.080469)">Orowan機構：非切断粒子を転位が迂回する</text>
  </g>
  <g id="text_13">
   <text style="font-size: 10px; font-family: 'Hiragino Sans'; text-anchor: middle; fill: #64748b" x="327.712773" y="341.7408" transform="rotate(-0 327.712773 341.7408)">教育用模式図：粒子径、転位形状、力の矢印は定量的ではない。</text>
  </g>
 </g>
 <defs>
  <clipPath id="pafe2bc2e2e">
   <rect x="7.2" y="81.321" width="238.215" height="238.215"/>
  </clipPath>
  <clipPath id="pbb18ebaffd">
   <rect x="410.010545" y="81.321" width="238.215" height="238.215"/>
  </clipPath>
 </defs>
</svg>
