<?xml version="1.0" encoding="utf-8" standalone="no"?>
<!DOCTYPE svg PUBLIC "-//W3C//DTD SVG 1.1//EN"
  "http://www.w3.org/Graphics/SVG/1.1/DTD/svg11.dtd">
<svg xmlns:xlink="http://www.w3.org/1999/xlink" width="696.391875pt" height="395.474219pt" viewBox="0 0 696.391875 395.474219" xmlns="http://www.w3.org/2000/svg" version="1.1">
 <metadata>
  <rdf:RDF xmlns:dc="http://purl.org/dc/elements/1.1/" xmlns:cc="http://creativecommons.org/ns#" xmlns:rdf="http://www.w3.org/1999/02/22-rdf-syntax-ns#">
   <cc:Work>
    <dc:type rdf:resource="http://purl.org/dc/dcmitype/StillImage"/>
    <dc:format>image/svg+xml</dc:format>
    <dc:creator>
     <cc:Agent>
      <dc:title>Matplotlib v3.10.9, https://matplotlib.org/</dc:title>
     </cc:Agent>
    </dc:creator>
   </cc:Work>
  </rdf:RDF>
 </metadata>
 <defs>
  <style type="text/css">*{stroke-linejoin: round; stroke-linecap: butt}</style>
 </defs>
 <g id="figure_1">
  <g id="patch_1">
   <path d="M 0 395.474219
L 696.391875 395.474219
L 696.391875 0
L 0 0
z
" style="fill: #ffffff"/>
  </g>
  <g id="axes_1">
   <g id="patch_2">
    <path d="M 20.959375 342.759219
L 689.191875 342.759219
L 689.191875 25.080469
L 20.959375 25.080469
z
" style="fill: #ffffff"/>
   </g>
   <g id="FillBetweenPolyCollection_1">
    <defs>
     <path id="m33a1585c4a" d="M 20.959375 -52.715
L 20.959375 -52.715
L 22.624813 -52.715
L 24.290251 -52.715
L 25.955689 -52.715
L 27.621127 -52.715
L 29.286565 -52.715
L 30.952003 -52.715
L 32.617441 -52.715
L 34.282879 -52.715
L 35.948317 -52.715
L 37.613755 -52.715
L 39.279193 -52.715
L 40.944631 -52.715
L 42.610069 -52.715
L 44.275507 -52.715
L 45.940945 -52.715
L 47.606383 -52.715
L 49.271821 -52.715
L 50.937259 -52.715
L 52.602697 -52.715
L 54.268135 -52.715
L 55.933573 -52.715
L 57.599011 -52.715
L 59.264449 -52.715
L 60.929887 -52.715
L 62.595325 -52.715
L 64.260763 -52.715
L 65.926201 -52.715
L 67.591639 -52.715
L 69.257077 -52.715
L 70.922515 -52.715
L 72.587953 -52.715
L 74.253391 -52.715
L 75.918829 -52.715
L 77.584267 -52.715
L 79.249704 -52.715
L 80.915142 -52.715
L 82.58058 -52.715
L 84.246018 -52.715
L 85.911456 -52.715
L 87.576894 -52.715
L 89.242332 -52.715
L 90.90777 -52.715
L 92.573208 -52.715
L 94.238646 -52.715
L 95.904084 -52.715
L 97.569522 -52.715
L 99.23496 -52.715
L 100.900398 -52.715
L 102.565836 -52.715
L 104.231274 -52.715
L 105.896712 -52.715
L 107.56215 -52.715
L 109.227588 -52.715
L 110.893026 -52.715
L 112.558464 -52.715
L 114.223902 -52.715
L 115.88934 -52.715
L 117.554778 -52.715
L 119.220216 -52.715
L 120.885654 -52.715
L 122.551092 -52.715
L 124.21653 -52.715
L 125.881968 -52.715
L 127.547406 -52.715
L 129.212844 -52.715
L 130.878282 -52.715
L 132.54372 -52.715
L 134.209158 -52.715
L 135.874596 -52.715
L 137.540034 -52.715
L 139.205472 -52.715
L 140.87091 -52.715
L 142.536348 -52.715
L 144.201786 -52.715
L 145.867224 -52.715
L 147.532662 -52.715
L 149.1981 -52.715
L 150.863538 -52.715
L 152.528976 -52.715
L 154.194414 -52.715
L 155.859852 -52.715
L 157.52529 -52.715
L 159.190728 -52.715
L 160.856166 -52.715
L 162.521604 -52.715
L 164.187042 -52.715
L 165.85248 -52.715
L 167.517918 -52.715
L 169.183356 -52.715
L 170.848794 -52.715
L 172.514232 -52.715
L 174.17967 -52.715
L 175.845108 -52.715
L 177.510546 -52.715
L 179.175984 -52.715
L 180.841422 -52.715
L 182.50686 -52.715
L 184.172298 -52.715
L 185.837736 -52.715
L 187.503174 -52.715
L 189.168612 -52.715
L 190.83405 -52.715
L 192.499488 -52.715
L 194.164926 -52.715
L 195.830363 -52.715
L 197.495801 -52.715
L 199.161239 -52.715
L 200.826677 -52.715
L 202.492115 -52.715
L 204.157553 -52.715
L 205.822991 -52.715
L 207.488429 -52.715
L 209.153867 -52.715
L 210.819305 -52.715
L 212.484743 -52.715
L 214.150181 -52.715
L 215.815619 -52.715
L 217.481057 -52.715
L 219.146495 -52.715
L 220.811933 -52.715
L 222.477371 -52.715
L 224.142809 -52.715
L 225.808247 -52.715
L 227.473685 -52.715
L 229.139123 -52.715
L 230.804561 -52.715
L 232.469999 -52.715
L 234.135437 -52.715
L 235.800875 -52.715
L 237.466313 -52.715
L 239.131751 -52.715
L 240.797189 -52.715
L 242.462627 -52.715
L 244.128065 -52.715
L 245.793503 -52.715
L 247.458941 -52.715
L 249.124379 -52.715
L 250.789817 -52.715
L 252.455255 -52.715
L 254.120693 -52.715
L 255.786131 -52.715
L 257.451569 -52.715
L 259.117007 -52.715
L 260.782445 -52.715
L 262.447883 -52.715
L 264.113321 -52.715
L 265.778759 -52.715
L 267.444197 -52.715
L 269.109635 -52.715
L 270.775073 -52.715
L 272.440511 -52.715
L 274.105949 -52.715
L 275.771387 -52.715
L 277.436825 -52.715
L 279.102263 -52.715
L 280.767701 -52.715
L 282.433139 -52.715
L 284.098577 -52.715
L 285.764015 -52.715
L 287.429453 -52.715
L 289.094891 -52.715
L 290.760329 -52.715
L 292.425767 -52.715
L 294.091205 -52.715
L 295.756643 -52.715
L 297.422081 -52.715
L 299.087519 -52.715
L 300.752957 -52.715
L 302.418395 -52.715
L 304.083833 -52.715
L 305.749271 -52.715
L 307.414709 -52.715
L 309.080147 -52.715
L 310.745585 -52.715
L 312.411022 -52.715
L 314.07646 -52.715
L 315.741898 -52.715
L 317.407336 -52.715
L 319.072774 -52.715
L 320.738212 -52.715
L 322.40365 -52.715
L 324.069088 -52.715
L 325.734526 -52.715
L 327.399964 -52.715
L 329.065402 -52.715
L 330.73084 -52.715
L 332.396278 -52.715
L 334.061716 -52.715
L 335.727154 -52.715
L 337.392592 -52.715
L 339.05803 -52.715
L 340.723468 -52.715
L 342.388906 -52.715
L 344.054344 -52.715
L 345.719782 -52.715
L 347.38522 -52.715
L 349.050658 -52.715
L 350.716096 -52.715
L 352.381534 -52.715
L 354.046972 -52.715
L 355.71241 -52.715
L 357.377848 -52.715
L 359.043286 -52.715
L 360.708724 -52.715
L 362.374162 -52.715
L 364.0396 -52.715
L 365.705038 -52.715
L 367.370476 -52.715
L 369.035914 -52.715
L 370.701352 -52.715
L 372.36679 -52.715
L 374.032228 -52.715
L 375.697666 -52.715
L 377.363104 -52.715
L 379.028542 -52.715
L 380.69398 -52.715
L 382.359418 -52.715
L 384.024856 -52.715
L 385.690294 -52.715
L 387.355732 -52.715
L 389.02117 -52.715
L 390.686608 -52.715
L 392.352046 -52.715
L 394.017484 -52.715
L 395.682922 -52.715
L 397.34836 -52.715
L 399.013798 -52.715
L 400.679236 -52.715
L 402.344674 -52.715
L 404.010112 -52.715
L 405.67555 -52.715
L 407.340988 -52.715
L 409.006426 -52.715
L 410.671864 -52.715
L 412.337302 -52.715
L 414.00274 -52.715
L 415.668178 -52.715
L 417.333616 -52.715
L 418.999054 -52.715
L 420.664492 -52.715
L 422.32993 -52.715
L 423.995368 -52.715
L 425.660806 -52.715
L 427.326243 -52.715
L 428.991681 -52.715
L 430.657119 -52.715
L 432.322557 -52.715
L 433.987995 -52.715
L 435.653433 -52.715
L 437.318871 -52.715
L 438.984309 -52.715
L 440.649747 -52.715
L 442.315185 -52.715
L 443.980623 -52.715
L 445.646061 -52.715
L 447.311499 -52.715
L 448.976937 -52.715
L 450.642375 -52.715
L 452.307813 -52.715
L 453.973251 -52.715
L 455.638689 -52.715
L 457.304127 -52.715
L 458.969565 -52.715
L 460.635003 -52.715
L 462.300441 -52.715
L 463.965879 -52.715
L 465.631317 -52.715
L 467.296755 -52.715
L 468.962193 -52.715
L 470.627631 -52.715
L 472.293069 -52.715
L 473.958507 -52.715
L 475.623945 -52.715
L 477.289383 -52.715
L 478.954821 -52.715
L 480.620259 -52.715
L 482.285697 -52.715
L 483.951135 -52.715
L 485.616573 -52.715
L 487.282011 -52.715
L 488.947449 -52.715
L 490.612887 -52.715
L 492.278325 -52.715
L 493.943763 -52.715
L 495.609201 -52.715
L 497.274639 -52.715
L 498.940077 -52.715
L 500.605515 -52.715
L 502.270953 -52.715
L 503.936391 -52.715
L 505.601829 -52.715
L 507.267267 -52.715
L 508.932705 -52.715
L 510.598143 -52.715
L 512.263581 -52.715
L 513.929019 -52.715
L 515.594457 -52.715
L 517.259895 -52.715
L 518.925333 -52.715
L 520.590771 -52.715
L 522.256209 -52.715
L 523.921647 -52.715
L 525.587085 -52.715
L 527.252523 -52.715
L 528.917961 -52.715
L 530.583399 -52.715
L 532.248837 -52.715
L 533.914275 -52.715
L 535.579713 -52.715
L 537.245151 -52.715
L 538.910589 -52.715
L 540.576027 -52.715
L 542.241465 -52.715
L 543.906902 -52.715
L 545.57234 -52.715
L 547.237778 -52.715
L 548.903216 -52.715
L 550.568654 -52.715
L 552.234092 -52.715
L 553.89953 -52.715
L 555.564968 -52.715
L 557.230406 -52.715
L 558.895844 -52.715
L 560.561282 -52.715
L 562.22672 -52.715
L 563.892158 -52.715
L 565.557596 -52.715
L 567.223034 -52.715
L 568.888472 -52.715
L 570.55391 -52.715
L 572.219348 -52.715
L 573.884786 -52.715
L 575.550224 -52.715
L 577.215662 -52.715
L 578.8811 -52.715
L 580.546538 -52.715
L 582.211976 -52.715
L 583.877414 -52.715
L 585.542852 -52.715
L 587.20829 -52.715
L 588.873728 -52.715
L 590.539166 -52.715
L 592.204604 -52.715
L 593.870042 -52.715
L 595.53548 -52.715
L 597.200918 -52.715
L 598.866356 -52.715
L 600.531794 -52.715
L 602.197232 -52.715
L 603.86267 -52.715
L 605.528108 -52.715
L 607.193546 -52.715
L 608.858984 -52.715
L 610.524422 -52.715
L 612.18986 -52.715
L 613.855298 -52.715
L 615.520736 -52.715
L 617.186174 -52.715
L 618.851612 -52.715
L 618.851612 -266.326573
L 618.851612 -266.326573
L 617.186174 -267.255639
L 615.520736 -268.183574
L 613.855298 -269.109684
L 612.18986 -270.033271
L 610.524422 -270.953639
L 608.858984 -271.870093
L 607.193546 -272.781937
L 605.528108 -273.688473
L 603.86267 -274.589006
L 602.197232 -275.482839
L 600.531794 -276.369277
L 598.866356 -277.247623
L 597.200918 -278.117181
L 595.53548 -278.977255
L 593.870042 -279.827149
L 592.204604 -280.666165
L 590.539166 -281.493609
L 588.873728 -282.308785
L 587.20829 -283.110994
L 585.542852 -283.899543
L 583.877414 -284.673734
L 582.211976 -285.432871
L 580.546538 -286.176259
L 578.8811 -286.9032
L 577.215662 -287.612998
L 575.550224 -288.304959
L 573.884786 -288.978384
L 572.219348 -289.632579
L 570.55391 -290.266847
L 568.888472 -290.880491
L 567.223034 -291.472816
L 565.557596 -292.043125
L 563.892158 -292.590722
L 562.22672 -293.114911
L 560.561282 -293.614996
L 558.895844 -294.09028
L 557.230406 -294.540068
L 555.564968 -294.963663
L 553.89953 -295.360369
L 552.234092 -295.729489
L 550.568654 -296.070328
L 548.903216 -296.38219
L 547.237778 -296.672579
L 545.57234 -296.960191
L 543.906902 -297.245714
L 542.241465 -297.529063
L 540.576027 -297.810156
L 538.910589 -298.088909
L 537.245151 -298.36524
L 535.579713 -298.639064
L 533.914275 -298.910299
L 532.248837 -299.178862
L 530.583399 -299.444669
L 528.917961 -299.707637
L 527.252523 -299.967683
L 525.587085 -300.224723
L 523.921647 -300.478675
L 522.256209 -300.729455
L 520.590771 -300.976979
L 518.925333 -301.221165
L 517.259895 -301.461929
L 515.594457 -301.699189
L 513.929019 -301.93286
L 512.263581 -302.16286
L 510.598143 -302.389105
L 508.932705 -302.611512
L 507.267267 -302.829998
L 505.601829 -303.04448
L 503.936391 -303.254874
L 502.270953 -303.461097
L 500.605515 -303.663066
L 498.940077 -303.860698
L 497.274639 -304.053909
L 495.609201 -304.242617
L 493.943763 -304.426737
L 492.278325 -304.606187
L 490.612887 -304.780884
L 488.947449 -304.950743
L 487.282011 -305.115683
L 485.616573 -305.275619
L 483.951135 -305.430469
L 482.285697 -305.580149
L 480.620259 -305.724576
L 478.954821 -305.863667
L 477.289383 -305.997338
L 475.623945 -306.125506
L 473.958507 -306.248089
L 472.293069 -306.365002
L 470.627631 -306.476163
L 468.962193 -306.581488
L 467.296755 -306.680894
L 465.631317 -306.774298
L 463.965879 -306.861617
L 462.300441 -306.942767
L 460.635003 -307.017665
L 458.969565 -307.086228
L 457.304127 -307.148372
L 455.638689 -307.204015
L 453.973251 -307.253073
L 452.307813 -307.295463
L 450.642375 -307.331101
L 448.976937 -307.359905
L 447.311499 -307.381791
L 445.646061 -307.396676
L 443.980623 -307.404476
L 442.315185 -307.404637
L 440.649747 -307.393035
L 438.984309 -307.368899
L 437.318871 -307.332441
L 435.653433 -307.283869
L 433.987995 -307.223396
L 432.322557 -307.15123
L 430.657119 -307.067582
L 428.991681 -306.972663
L 427.326243 -306.866682
L 425.660806 -306.749851
L 423.995368 -306.622379
L 422.32993 -306.484476
L 420.664492 -306.336354
L 418.999054 -306.178222
L 417.333616 -306.010291
L 415.668178 -305.83277
L 414.00274 -305.645871
L 412.337302 -305.449804
L 410.671864 -305.244778
L 409.006426 -305.031005
L 407.340988 -304.808694
L 405.67555 -304.578055
L 404.010112 -304.3393
L 402.344674 -304.092639
L 400.679236 -303.838281
L 399.013798 -303.576437
L 397.34836 -303.307318
L 395.682922 -303.031133
L 394.017484 -302.748093
L 392.352046 -302.458408
L 390.686608 -302.162289
L 389.02117 -301.859946
L 387.355732 -301.55159
L 385.690294 -301.237429
L 384.024856 -300.917676
L 382.359418 -300.59254
L 380.69398 -300.262231
L 379.028542 -299.92696
L 377.363104 -299.586937
L 375.697666 -299.242373
L 374.032228 -298.893477
L 372.36679 -298.54046
L 370.701352 -298.183533
L 369.035914 -297.822905
L 367.370476 -297.458787
L 365.705038 -297.091389
L 364.0396 -296.720922
L 362.374162 -296.347596
L 360.708724 -295.971621
L 359.043286 -295.593208
L 357.377848 -295.212566
L 355.71241 -294.829906
L 354.046972 -294.445439
L 352.381534 -294.059375
L 350.716096 -293.671923
L 349.050658 -293.283296
L 347.38522 -292.893701
L 345.719782 -292.503351
L 344.054344 -292.112455
L 342.388906 -291.721223
L 340.723468 -291.329867
L 339.05803 -290.938596
L 337.392592 -290.54762
L 335.727154 -290.15715
L 334.061716 -289.767396
L 332.396278 -289.378569
L 330.73084 -288.990879
L 329.065402 -288.604535
L 327.399964 -288.219749
L 325.734526 -287.836731
L 324.069088 -287.45569
L 322.40365 -287.076838
L 320.738212 -286.700385
L 319.072774 -286.326541
L 317.407336 -285.955516
L 315.741898 -285.58752
L 314.07646 -285.222764
L 312.411022 -284.861459
L 310.745585 -284.503814
L 309.080147 -284.15004
L 307.414709 -283.800347
L 305.749271 -283.454945
L 304.083833 -283.114045
L 302.418395 -282.777857
L 300.752957 -282.443845
L 299.087519 -282.108641
L 297.422081 -281.77223
L 295.756643 -281.434608
L 294.091205 -281.09577
L 292.425767 -280.755713
L 290.760329 -280.414432
L 289.094891 -280.071923
L 287.429453 -279.728183
L 285.764015 -279.383206
L 284.098577 -279.036989
L 282.433139 -278.689528
L 280.767701 -278.340818
L 279.102263 -277.990855
L 277.436825 -277.639635
L 275.771387 -277.287155
L 274.105949 -276.933409
L 272.440511 -276.578394
L 270.775073 -276.222106
L 269.109635 -275.864539
L 267.444197 -275.505691
L 265.778759 -275.145558
L 264.113321 -274.784133
L 262.447883 -274.421415
L 260.782445 -274.057398
L 259.117007 -273.692079
L 257.451569 -273.325453
L 255.786131 -272.957516
L 254.120693 -272.588264
L 252.455255 -272.217693
L 250.789817 -271.845799
L 249.124379 -271.472577
L 247.458941 -271.098023
L 245.793503 -270.722134
L 244.128065 -270.344904
L 242.462627 -269.966331
L 240.797189 -269.586409
L 239.131751 -269.205135
L 237.466313 -268.822504
L 235.800875 -268.438513
L 234.135437 -268.053157
L 232.469999 -267.666431
L 230.804561 -267.278333
L 229.139123 -266.888857
L 227.473685 -266.497999
L 225.808247 -266.105756
L 224.142809 -265.712123
L 222.477371 -265.317096
L 220.811933 -264.920671
L 219.146495 -264.522844
L 217.481057 -264.12361
L 215.815619 -263.722966
L 214.150181 -263.320907
L 212.484743 -262.917429
L 210.819305 -262.512528
L 209.153867 -262.1062
L 207.488429 -261.698441
L 205.822991 -261.289246
L 204.157553 -260.878611
L 202.492115 -260.466533
L 200.826677 -260.053006
L 199.161239 -259.638028
L 197.495801 -259.221593
L 195.830363 -258.803698
L 194.164926 -258.384338
L 192.499488 -257.963509
L 190.83405 -257.541208
L 189.168612 -257.117429
L 187.503174 -256.692169
L 185.837736 -256.265424
L 184.172298 -255.83719
L 182.50686 -255.407461
L 180.841422 -254.976235
L 179.175984 -254.543507
L 177.510546 -254.109273
L 175.845108 -253.673529
L 174.17967 -253.23627
L 172.514232 -252.797492
L 170.848794 -252.357192
L 169.183356 -251.915365
L 167.517918 -251.472007
L 165.85248 -251.027113
L 164.187042 -250.58068
L 162.521604 -250.132704
L 160.856166 -249.683637
L 159.190728 -249.236458
L 157.52529 -248.791461
L 155.859852 -248.348349
L 154.194414 -247.906823
L 152.528976 -247.466587
L 150.863538 -247.027341
L 149.1981 -246.588789
L 147.532662 -246.150632
L 145.867224 -245.712574
L 144.201786 -245.274315
L 142.536348 -244.835558
L 140.87091 -244.396006
L 139.205472 -243.955361
L 137.540034 -243.513325
L 135.874596 -243.069599
L 134.209158 -242.623887
L 132.54372 -242.175891
L 130.878282 -241.725312
L 129.212844 -241.271854
L 127.547406 -240.815217
L 125.881968 -240.355105
L 124.21653 -239.89122
L 122.551092 -239.423264
L 120.885654 -238.950939
L 119.220216 -238.473947
L 117.554778 -237.991991
L 115.88934 -237.504772
L 114.223902 -237.011994
L 112.558464 -236.513357
L 110.893026 -236.008565
L 109.227588 -235.49732
L 107.56215 -234.979324
L 105.896712 -234.454279
L 104.231274 -233.921887
L 102.565836 -233.381851
L 100.900398 -232.833872
L 99.23496 -232.277654
L 97.569522 -231.712898
L 95.904084 -231.139306
L 94.238646 -230.556581
L 92.573208 -229.964424
L 90.90777 -229.362539
L 89.242332 -228.750627
L 87.576894 -228.128391
L 85.911456 -227.495532
L 84.246018 -226.851754
L 82.58058 -226.196757
L 80.915142 -225.530246
L 79.249704 -224.85192
L 77.584267 -224.161484
L 75.918829 -223.458639
L 74.253391 -222.743087
L 72.587953 -222.027323
L 70.922515 -221.346414
L 69.257077 -220.692868
L 67.591639 -220.056085
L 65.926201 -219.425467
L 64.260763 -218.790415
L 62.595325 -218.14033
L 60.929887 -217.464612
L 59.264449 -216.752663
L 57.599011 -215.993885
L 55.933573 -215.177678
L 54.268135 -214.293442
L 52.602697 -213.330581
L 50.937259 -212.278494
L 49.271821 -211.126582
L 47.606383 -209.864247
L 45.940945 -208.48089
L 44.275507 -206.965912
L 42.610069 -205.308714
L 40.944631 -203.498697
L 39.279193 -201.525262
L 37.613755 -198.843595
L 35.948317 -193.057703
L 34.282879 -184.227239
L 32.617441 -172.758338
L 30.952003 -159.057134
L 29.286565 -143.529759
L 27.621127 -126.582347
L 25.955689 -108.621031
L 24.290251 -90.051946
L 22.624813 -71.281225
L 20.959375 -52.715
z
" style="stroke: #2a9d8f; stroke-opacity: 0.2"/>
    </defs>
    <g clip-path="url(#pf5fe31956c)">
     <use xlink:href="#m33a1585c4a" x="0" y="395.474219" style="fill: #2a9d8f; fill-opacity: 0.2; stroke: #2a9d8f; stroke-opacity: 0.2"/>
    </g>
   </g>
   <g id="FillBetweenPolyCollection_2">
    <defs>
     <path id="ma67147a828" d="M 20.959375 -52.715
L 20.959375 -52.715
L 21.534484 -52.715
L 22.109593 -52.715
L 22.684702 -52.715
L 23.259811 -52.715
L 23.83492 -52.715
L 24.410029 -52.715
L 24.985138 -52.715
L 25.560248 -52.715
L 26.135357 -52.715
L 26.710466 -52.715
L 27.285575 -52.715
L 27.860684 -52.715
L 28.435793 -52.715
L 29.010902 -52.715
L 29.586011 -52.715
L 30.16112 -52.715
L 30.736229 -52.715
L 31.311338 -52.715
L 31.886447 -52.715
L 32.461556 -52.715
L 33.036665 -52.715
L 33.611775 -52.715
L 34.186884 -52.715
L 34.761993 -52.715
L 35.337102 -52.715
L 35.912211 -52.715
L 36.48732 -52.715
L 37.062429 -52.715
L 37.637538 -52.715
L 38.212647 -52.715
L 38.787756 -52.715
L 39.362865 -52.715
L 39.937974 -52.715
L 40.513083 -52.715
L 41.088192 -52.715
L 41.663302 -52.715
L 42.238411 -52.715
L 42.81352 -52.715
L 43.388629 -52.715
L 43.963738 -52.715
L 44.538847 -52.715
L 45.113956 -52.715
L 45.689065 -52.715
L 46.264174 -52.715
L 46.839283 -52.715
L 47.414392 -52.715
L 47.989501 -52.715
L 48.56461 -52.715
L 49.139719 -52.715
L 49.714828 -52.715
L 50.289938 -52.715
L 50.865047 -52.715
L 51.440156 -52.715
L 52.015265 -52.715
L 52.590374 -52.715
L 53.165483 -52.715
L 53.740592 -52.715
L 54.315701 -52.715
L 54.89081 -52.715
L 55.465919 -52.715
L 56.041028 -52.715
L 56.616137 -52.715
L 57.191246 -52.715
L 57.766355 -52.715
L 58.341465 -52.715
L 58.916574 -52.715
L 59.491683 -52.715
L 60.066792 -52.715
L 60.641901 -52.715
L 61.21701 -52.715
L 61.792119 -52.715
L 62.367228 -52.715
L 62.942337 -52.715
L 63.517446 -52.715
L 64.092555 -52.715
L 64.667664 -52.715
L 65.242773 -52.715
L 65.817882 -52.715
L 66.392992 -52.715
L 66.968101 -52.715
L 67.54321 -52.715
L 68.118319 -52.715
L 68.693428 -52.715
L 69.268537 -52.715
L 69.843646 -52.715
L 70.418755 -52.715
L 70.993864 -52.715
L 71.568973 -52.715
L 72.144082 -52.715
L 72.719191 -52.715
L 73.2943 -52.715
L 73.869409 -52.715
L 74.444518 -52.715
L 75.019628 -52.715
L 75.594737 -52.715
L 76.169846 -52.715
L 76.744955 -52.715
L 77.320064 -52.715
L 77.895173 -52.715
L 78.470282 -52.715
L 79.045391 -52.715
L 79.6205 -52.715
L 80.195609 -52.715
L 80.770718 -52.715
L 81.345827 -52.715
L 81.920936 -52.715
L 82.496045 -52.715
L 83.071155 -52.715
L 83.646264 -52.715
L 84.221373 -52.715
L 84.796482 -52.715
L 85.371591 -52.715
L 85.9467 -52.715
L 86.521809 -52.715
L 87.096918 -52.715
L 87.672027 -52.715
L 88.247136 -52.715
L 88.822245 -52.715
L 89.397354 -52.715
L 89.972463 -52.715
L 90.547572 -52.715
L 91.122682 -52.715
L 91.697791 -52.715
L 92.2729 -52.715
L 92.848009 -52.715
L 93.423118 -52.715
L 93.998227 -52.715
L 94.573336 -52.715
L 95.148445 -52.715
L 95.723554 -52.715
L 96.298663 -52.715
L 96.873772 -52.715
L 97.448881 -52.715
L 98.02399 -52.715
L 98.599099 -52.715
L 99.174208 -52.715
L 99.749318 -52.715
L 100.324427 -52.715
L 100.899536 -52.715
L 101.474645 -52.715
L 102.049754 -52.715
L 102.624863 -52.715
L 103.199972 -52.715
L 103.775081 -52.715
L 104.35019 -52.715
L 104.925299 -52.715
L 105.500408 -52.715
L 106.075517 -52.715
L 106.650626 -52.715
L 107.225735 -52.715
L 107.800845 -52.715
L 108.375954 -52.715
L 108.951063 -52.715
L 109.526172 -52.715
L 110.101281 -52.715
L 110.67639 -52.715
L 111.251499 -52.715
L 111.826608 -52.715
L 112.401717 -52.715
L 112.401717 -337.530431
L 112.401717 -337.530431
L 111.826608 -335.642772
L 111.251499 -333.756673
L 110.67639 -331.872134
L 110.101281 -329.989152
L 109.526172 -328.107728
L 108.951063 -326.22786
L 108.375954 -324.349549
L 107.800845 -322.472793
L 107.225735 -320.597591
L 106.650626 -318.723944
L 106.075517 -316.851849
L 105.500408 -314.981306
L 104.925299 -313.112315
L 104.35019 -311.244875
L 103.775081 -309.378985
L 103.199972 -307.514644
L 102.624863 -305.651851
L 102.049754 -303.790607
L 101.474645 -301.930909
L 100.899536 -300.072758
L 100.324427 -298.216152
L 99.749318 -296.361091
L 99.174208 -294.507574
L 98.599099 -292.6556
L 98.02399 -290.805169
L 97.448881 -288.956279
L 96.873772 -287.108931
L 96.298663 -285.263123
L 95.723554 -283.418854
L 95.148445 -281.576125
L 94.573336 -279.734933
L 93.998227 -277.895278
L 93.423118 -276.05716
L 92.848009 -274.220578
L 92.2729 -272.385531
L 91.697791 -270.552018
L 91.122682 -268.720039
L 90.547572 -266.889592
L 89.972463 -265.060678
L 89.397354 -263.233294
L 88.822245 -261.407442
L 88.247136 -259.583119
L 87.672027 -257.760322
L 87.096918 -255.938941
L 86.521809 -254.118934
L 85.9467 -252.300317
L 85.371591 -250.483105
L 84.796482 -248.667313
L 84.221373 -246.852958
L 83.646264 -245.040054
L 83.071155 -243.228617
L 82.496045 -241.418664
L 81.920936 -239.610208
L 81.345827 -237.803266
L 80.770718 -235.997854
L 80.195609 -234.193986
L 79.6205 -232.391679
L 79.045391 -230.590948
L 78.470282 -228.791809
L 77.895173 -226.994276
L 77.320064 -225.198366
L 76.744955 -223.404094
L 76.169846 -221.611476
L 75.594737 -219.820527
L 75.019628 -218.031263
L 74.444518 -216.243699
L 73.869409 -214.457851
L 73.2943 -212.673734
L 72.719191 -210.891365
L 72.144082 -209.110757
L 71.568973 -207.331928
L 70.993864 -205.554892
L 70.418755 -203.779665
L 69.843646 -202.006263
L 69.268537 -200.2347
L 68.693428 -198.464994
L 68.118319 -196.697159
L 67.54321 -194.93121
L 66.968101 -193.167164
L 66.392992 -191.405035
L 65.817882 -189.64484
L 65.242773 -187.886594
L 64.667664 -186.130616
L 64.092555 -184.379147
L 63.517446 -182.632427
L 62.942337 -180.890197
L 62.367228 -179.152199
L 61.792119 -177.418174
L 61.21701 -175.687865
L 60.641901 -173.961013
L 60.066792 -172.237361
L 59.491683 -170.516649
L 58.916574 -168.798619
L 58.341465 -167.083014
L 57.766355 -165.369574
L 57.191246 -163.658043
L 56.616137 -161.948161
L 56.041028 -160.239671
L 55.465919 -158.532313
L 54.89081 -156.825831
L 54.315701 -155.119965
L 53.740592 -153.414458
L 53.165483 -151.70905
L 52.590374 -150.003485
L 52.015265 -148.297503
L 51.440156 -146.590847
L 50.865047 -144.883258
L 50.289938 -143.174479
L 49.714828 -141.46425
L 49.139719 -139.752313
L 48.56461 -138.038411
L 47.989501 -136.322285
L 47.414392 -134.603676
L 46.839283 -132.882328
L 46.264174 -131.157981
L 45.689065 -129.430376
L 45.113956 -127.699257
L 44.538847 -125.964365
L 43.963738 -124.225441
L 43.388629 -122.482227
L 42.81352 -120.734465
L 42.238411 -118.981897
L 41.663302 -117.225038
L 41.088192 -115.466059
L 40.513083 -113.705115
L 39.937974 -111.942215
L 39.362865 -110.177364
L 38.787756 -108.410571
L 38.212647 -106.641841
L 37.637538 -104.871183
L 37.062429 -103.098603
L 36.48732 -101.324108
L 35.912211 -99.547706
L 35.337102 -97.769404
L 34.761993 -95.989208
L 34.186884 -94.207126
L 33.611775 -92.423165
L 33.036665 -90.637332
L 32.461556 -88.849635
L 31.886447 -87.060079
L 31.311338 -85.268673
L 30.736229 -83.475423
L 30.16112 -81.680337
L 29.586011 -79.883422
L 29.010902 -78.084684
L 28.435793 -76.284131
L 27.860684 -74.48177
L 27.285575 -72.677608
L 26.710466 -70.871653
L 26.135357 -69.063911
L 25.560248 -67.254389
L 24.985138 -65.443094
L 24.410029 -63.630034
L 23.83492 -61.815216
L 23.259811 -59.998647
L 22.684702 -58.180334
L 22.109593 -56.360283
L 21.534484 -54.538503
L 20.959375 -52.715
z
" style="stroke: #e76f51; stroke-opacity: 0.2"/>
    </defs>
    <g clip-path="url(#pf5fe31956c)">
     <use xlink:href="#ma67147a828" x="0" y="395.474219" style="fill: #e76f51; fill-opacity: 0.2; stroke: #e76f51; stroke-opacity: 0.2"/>
    </g>
   </g>
   <g id="matplotlib.axis_1">
    <g id="text_1">
     <!-- ひずみ $\varepsilon$  → -->
     <g style="fill: #17324d" transform="translate(327.375625 354.468594)">
      <text>
       <tspan x="0" y="-0.90625" style="font-size: 10px; font-family: 'Hiragino Sans'; fill: #17324d">ひ</tspan>
       <tspan x="9.999985" y="-0.90625" style="font-size: 10px; font-family: 'Hiragino Sans'; fill: #17324d">ず</tspan>
       <tspan x="19.999969" y="-0.90625" style="font-size: 10px; font-family: 'Hiragino Sans'; fill: #17324d">み</tspan>
       <tspan x="29.999954" y="-0.90625" style="font-size: 10px; font-family: 'Hiragino Sans'; fill: #17324d"> </tspan>
       <tspan x="38.735214" y="-0.90625" style="font-size: 10px; font-family: 'Hiragino Sans'; fill: #17324d"> </tspan>
       <tspan x="42.065201" y="-0.90625" style="font-size: 10px; font-family: 'Hiragino Sans'; fill: #17324d"> </tspan>
       <tspan x="45.395187" y="-0.90625" style="font-size: 10px; font-family: 'Hiragino Sans'; fill: #17324d">→</tspan>
       <tspan x="33.329941" y="-0.90625" style="font-style: oblique; font-size: 10px; font-family: 'DejaVu Sans'; fill: #17324d">ε</tspan>
      </text>
     </g>
    </g>
   </g>
   <g id="matplotlib.axis_2">
    <g id="text_2">
     <!-- 応力 $\sigma$  → -->
     <g style="fill: #17324d" transform="translate(14.909375 207.119844) rotate(-90)">
      <text>
       <tspan x="0" y="-0.296875" style="font-size: 10px; font-family: 'Hiragino Sans'; fill: #17324d">応</tspan>
       <tspan x="9.999985" y="-0.296875" style="font-size: 10px; font-family: 'Hiragino Sans'; fill: #17324d">力</tspan>
       <tspan x="19.999969" y="-0.296875" style="font-size: 10px; font-family: 'Hiragino Sans'; fill: #17324d"> </tspan>
       <tspan x="29.667847" y="-0.296875" style="font-size: 10px; font-family: 'Hiragino Sans'; fill: #17324d"> </tspan>
       <tspan x="32.997833" y="-0.296875" style="font-size: 10px; font-family: 'Hiragino Sans'; fill: #17324d"> </tspan>
       <tspan x="36.32782" y="-0.296875" style="font-size: 10px; font-family: 'Hiragino Sans'; fill: #17324d">→</tspan>
       <tspan x="23.329956" y="-0.296875" style="font-style: oblique; font-size: 10px; font-family: 'DejaVu Sans'; fill: #17324d">σ</tspan>
      </text>
     </g>
    </g>
   </g>
   <g id="line2d_1">
    <path d="M 20.959375 342.759219
L 27.621127 268.891872
L 29.286565 251.94446
L 30.952003 236.417085
L 32.617441 222.71588
L 34.282879 211.24698
L 35.948317 202.416516
L 37.613755 196.630623
L 39.279193 193.948957
L 42.610069 190.165505
L 45.940945 186.993329
L 49.271821 184.347637
L 52.602697 182.143638
L 55.933573 180.296541
L 59.264449 178.721555
L 64.260763 176.683804
L 72.587953 173.446896
L 80.915142 169.943973
L 89.242332 166.723592
L 97.569522 163.761321
L 105.896712 161.01994
L 115.88934 157.969447
L 127.547406 154.659001
L 144.201786 150.199904
L 199.161239 135.836191
L 220.811933 130.553547
L 242.462627 125.507888
L 264.113321 120.690085
L 285.764015 116.091013
L 322.40365 108.39738
L 344.054344 103.361764
L 365.705038 98.38283
L 379.028542 95.547259
L 390.686608 93.311929
L 400.679236 91.635938
L 409.006426 90.443214
L 417.333616 89.463928
L 425.660806 88.724368
L 433.987995 88.250823
L 440.649747 88.081184
L 448.976937 88.114314
L 458.969565 88.387991
L 468.962193 88.892731
L 478.954821 89.610552
L 490.612887 90.693335
L 502.270953 92.013121
L 513.929019 93.541359
L 527.252523 95.506536
L 542.241465 97.945156
L 552.234092 99.74473
L 557.230406 100.934151
L 562.22672 102.359308
L 567.223034 104.001403
L 572.219348 105.84164
L 578.8811 108.571019
L 585.542852 111.574676
L 592.204604 114.808053
L 600.531794 119.104942
L 610.524422 124.520579
L 618.851612 129.147645
L 618.851612 129.147645
" clip-path="url(#pf5fe31956c)" style="fill: none; stroke: #2a9d8f; stroke-width: 3.2; stroke-linecap: square"/>
   </g>
   <g id="line2d_2">
    <path d="M 20.959375 342.759219
L 32.461556 306.624584
L 43.388629 272.991992
L 52.015265 247.176715
L 64.667664 209.343603
L 75.594737 175.653691
L 88.247136 135.8911
L 100.899536 95.401461
L 112.401717 57.943788
L 112.401717 57.943788
" clip-path="url(#pf5fe31956c)" style="fill: none; stroke: #e76f51; stroke-width: 3.2; stroke-linecap: square"/>
   </g>
   <g id="patch_3">
    <path d="M 20.959375 342.759219
L 20.959375 25.080469
" style="fill: none; stroke: #17324d; stroke-width: 0.8; stroke-linejoin: miter; stroke-linecap: square"/>
   </g>
   <g id="patch_4">
    <path d="M 20.959375 342.759219
L 689.191875 342.759219
" style="fill: none; stroke: #17324d; stroke-width: 0.8; stroke-linejoin: miter; stroke-linecap: square"/>
   </g>
   <g id="patch_5">
    <path d="M 583.221516 164.586485
Q 600.326528 147.57329 616.638846 131.348533
" style="fill: none; stroke: #2a9d8f; stroke-linecap: round"/>
    <path d="M 612.392415 132.751324
L 616.638846 131.348533
L 615.21322 135.587353
" style="fill: none; stroke: #2a9d8f; stroke-linecap: round"/>
   </g>
   <g id="text_3">
    <text style="font-size: 10px; font-family: 'Hiragino Sans'; text-anchor: middle; fill: #2a9d8f" x="574.888947" y="175.704014" transform="rotate(-0 574.888947 175.704014)">破断</text>
   </g>
   <g id="patch_6">
    <path d="M 156.455128 51.637686
Q 135.419248 54.648903 115.49012 57.501693
" style="fill: none; stroke: #e76f51; stroke-linecap: round"/>
    <path d="M 119.733162 58.914702
L 115.49012 57.501693
L 119.166353 54.955065
" style="fill: none; stroke: #e76f51; stroke-linecap: round"/>
   </g>
   <g id="text_4">
    <text style="font-size: 10px; font-family: 'Hiragino Sans'; text-anchor: middle; fill: #e76f51" x="170.432434" y="52.466568" transform="rotate(-0 170.432434 52.466568)">破断</text>
   </g>
   <g id="patch_7">
    <path d="M 399.776842 78.573506
Q 377.792514 134.424065 356.217692 189.234285
" style="fill: none; stroke: #17324d; stroke-linecap: round"/>
    <path d="M 359.5438 186.244803
L 356.217692 189.234285
L 355.821771 184.779709
" style="fill: none; stroke: #17324d; stroke-linecap: round"/>
   </g>
   <g id="text_5">
    <text style="font-weight: 700; font-size: 10px; font-family: 'Hiragino Sans'; fill: #17324d" transform="translate(372.830822 49.432441)">破断までの面積</text>
    <text style="font-weight: 700; font-size: 10px; font-family: 'Hiragino Sans'; fill: #17324d" transform="translate(326.165979 61.027441)">＝ 単位体積あたりの吸収エネルギー</text>
    <text style="font-weight: 700; font-size: 10px; font-family: 'Hiragino Sans'; fill: #17324d" transform="translate(391.165979 72.622441)">＝ 靭性</text>
   </g>
   <g id="text_6">
    <text style="font-size: 10px; font-family: 'Hiragino Sans'; fill: #e76f51" transform="translate(166.915421 95.937516)">高い応力でも</text>
    <text style="font-size: 10px; font-family: 'Hiragino Sans'; fill: #e76f51" transform="translate(166.915421 107.238766)">破断ひずみが小さい</text>
   </g>
   <g id="text_7">
    <text style="font-size: 10px; font-family: 'Hiragino Sans'; fill: #2a9d8f" transform="translate(461.963618 243.822452)">塑性変形で</text>
    <text style="font-size: 10px; font-family: 'Hiragino Sans'; fill: #2a9d8f" transform="translate(431.963618 255.123702)">大きなエネルギーを吸収</text>
   </g>
   <g id="text_8">
    <text style="font-weight: 700; font-size: 15px; font-family: 'Hiragino Sans'; text-anchor: middle; fill: #17324d" x="355.075625" y="19.080469" transform="rotate(-0 355.075625 19.080469)">靭性は「強さ」だけでなく、破断までの変形を含む</text>
   </g>
   <g id="PathCollection_1">
    <defs>
     <path id="C0_0_4c082fd0ca" d="M -2.304886 4.609772
L 0 2.304886
L 2.304886 4.609772
L 4.609772 2.304886
L 2.304886 -0
L 4.609772 -2.304886
L 2.304886 -4.609772
L 0 -2.304886
L -2.304886 -4.609772
L -4.609772 -2.304886
L -2.304886 0
L -4.609772 2.304886
z
"/>
    </defs>
    <g clip-path="url(#pf5fe31956c)">
     <use xlink:href="#C0_0_4c082fd0ca" x="618.851612" y="129.147645" style="fill: #2a9d8f; stroke: #2a9d8f"/>
    </g>
    <g clip-path="url(#pf5fe31956c)">
     <use xlink:href="#C0_0_4c082fd0ca" x="112.401717" y="57.943788" style="fill: #e76f51; stroke: #e76f51"/>
    </g>
   </g>
   <g id="legend_1">
    <g id="line2d_3">
     <path d="M 622.191875 38.289844
L 632.191875 38.289844
L 642.191875 38.289844
" style="fill: none; stroke: #2a9d8f; stroke-width: 3.2; stroke-linecap: square"/>
    </g>
    <g id="text_9">
     <text style="font-size: 10px; font-family: 'Hiragino Sans'; text-anchor: start; fill: #17324d" x="650.191875" y="41.789844" transform="rotate(-0 650.191875 41.789844)">延性材</text>
    </g>
    <g id="line2d_4">
     <path d="M 622.191875 53.049219
L 632.191875 53.049219
L 642.191875 53.049219
" style="fill: none; stroke: #e76f51; stroke-width: 3.2; stroke-linecap: square"/>
    </g>
    <g id="text_10">
     <text style="font-size: 10px; font-family: 'Hiragino Sans'; text-anchor: start; fill: #17324d" x="650.191875" y="56.549219" transform="rotate(-0 650.191875 56.549219)">脆性材</text>
    </g>
   </g>
  </g>
  <g id="text_11">
   <text style="font-size: 10px; font-family: 'Hiragino Sans'; text-anchor: middle; fill: #64748b" x="347.191875" y="386.224219" transform="rotate(-0 347.191875 386.224219)">教育用模式図：曲線形状・応力・ひずみの値は定量データではない。</text>
  </g>
 </g>
 <defs>
  <clipPath id="pf5fe31956c">
   <rect x="20.959375" y="25.080469" width="668.2325" height="317.67875"/>
  </clipPath>
 </defs>
</svg>
