<?xml version="1.0" encoding="utf-8" standalone="no"?>
<!DOCTYPE svg PUBLIC "-//W3C//DTD SVG 1.1//EN"
  "http://www.w3.org/Graphics/SVG/1.1/DTD/svg11.dtd">
<svg xmlns:xlink="http://www.w3.org/1999/xlink" width="770.312734pt" height="399.778pt" viewBox="0 0 770.312734 399.778" xmlns="http://www.w3.org/2000/svg" version="1.1">
 <metadata>
  <rdf:RDF xmlns:dc="http://purl.org/dc/elements/1.1/" xmlns:cc="http://creativecommons.org/ns#" xmlns:rdf="http://www.w3.org/1999/02/22-rdf-syntax-ns#">
   <cc:Work>
    <dc:type rdf:resource="http://purl.org/dc/dcmitype/StillImage"/>
    <dc:format>image/svg+xml</dc:format>
    <dc:creator>
     <cc:Agent>
      <dc:title>Matplotlib v3.10.9, https://matplotlib.org/</dc:title>
     </cc:Agent>
    </dc:creator>
   </cc:Work>
  </rdf:RDF>
 </metadata>
 <defs>
  <style type="text/css">*{stroke-linejoin: round; stroke-linecap: butt}</style>
 </defs>
 <g id="figure_1">
  <g id="patch_1">
   <path d="M 0 399.778
L 770.312734 399.778
L 770.312734 0
L 0 0
z
" style="fill: #ffffff"/>
  </g>
  <g id="axes_1">
   <g id="patch_2">
    <path d="M 48.379688 351.72
L 240.675072 351.72
L 240.675072 46.8
L 48.379688 46.8
z
" style="fill: #ffffff"/>
   </g>
   <g id="patch_3">
    <path d="M 48.379688 113.357806
L 240.675072 113.357806
L 240.675072 73.029677
L 48.379688 73.029677
z
" clip-path="url(#p14a82c23bd)" style="fill: #e9c46a; opacity: 0.12; stroke: #e9c46a; stroke-linejoin: miter"/>
   </g>
   <g id="patch_4">
    <path d="M 48.379688 236.965161
L 240.675072 236.965161
L 240.675072 194.341935
L 48.379688 194.341935
z
" clip-path="url(#p14a82c23bd)" style="fill: #2a9d8f; opacity: 0.12; stroke: #2a9d8f; stroke-linejoin: miter"/>
   </g>
   <g id="matplotlib.axis_1">
    <g id="xtick_1">
     <g id="line2d_1">
      <path d="M 48.379688 351.72
L 48.379688 46.8
" clip-path="url(#p14a82c23bd)" style="fill: none; stroke: #cbd5df; stroke-opacity: 0.2; stroke-width: 0.8; stroke-linecap: square"/>
     </g>
     <g id="line2d_2">
      <defs>
       <path id="m41dd3edd73" d="M 0 0
L 0 3.5
" style="stroke: #17324d; stroke-width: 0.8"/>
      </defs>
      <g>
       <use xlink:href="#m41dd3edd73" x="48.379688" y="351.72" style="fill: #17324d; stroke: #17324d; stroke-width: 0.8"/>
      </g>
     </g>
     <g id="text_1">
      <text style="font-size: 10px; font-family: 'Hiragino Sans'; text-anchor: middle; fill: #17324d" x="48.379688" y="366.429375" transform="rotate(-0 48.379688 366.429375)">0</text>
     </g>
    </g>
    <g id="xtick_2">
     <g id="line2d_3">
      <path d="M 96.453534 351.72
L 96.453534 46.8
" clip-path="url(#p14a82c23bd)" style="fill: none; stroke: #cbd5df; stroke-opacity: 0.2; stroke-width: 0.8; stroke-linecap: square"/>
     </g>
     <g id="line2d_4">
      <g>
       <use xlink:href="#m41dd3edd73" x="96.453534" y="351.72" style="fill: #17324d; stroke: #17324d; stroke-width: 0.8"/>
      </g>
     </g>
     <g id="text_2">
      <text style="font-size: 10px; font-family: 'Hiragino Sans'; text-anchor: middle; fill: #17324d" x="96.453534" y="366.429375" transform="rotate(-0 96.453534 366.429375)">2</text>
     </g>
    </g>
    <g id="xtick_3">
     <g id="line2d_5">
      <path d="M 144.52738 351.72
L 144.52738 46.8
" clip-path="url(#p14a82c23bd)" style="fill: none; stroke: #cbd5df; stroke-opacity: 0.2; stroke-width: 0.8; stroke-linecap: square"/>
     </g>
     <g id="line2d_6">
      <g>
       <use xlink:href="#m41dd3edd73" x="144.52738" y="351.72" style="fill: #17324d; stroke: #17324d; stroke-width: 0.8"/>
      </g>
     </g>
     <g id="text_3">
      <text style="font-size: 10px; font-family: 'Hiragino Sans'; text-anchor: middle; fill: #17324d" x="144.52738" y="366.429375" transform="rotate(-0 144.52738 366.429375)">4</text>
     </g>
    </g>
    <g id="xtick_4">
     <g id="line2d_7">
      <path d="M 192.601226 351.72
L 192.601226 46.8
" clip-path="url(#p14a82c23bd)" style="fill: none; stroke: #cbd5df; stroke-opacity: 0.2; stroke-width: 0.8; stroke-linecap: square"/>
     </g>
     <g id="line2d_8">
      <g>
       <use xlink:href="#m41dd3edd73" x="192.601226" y="351.72" style="fill: #17324d; stroke: #17324d; stroke-width: 0.8"/>
      </g>
     </g>
     <g id="text_4">
      <text style="font-size: 10px; font-family: 'Hiragino Sans'; text-anchor: middle; fill: #17324d" x="192.601226" y="366.429375" transform="rotate(-0 192.601226 366.429375)">6</text>
     </g>
    </g>
    <g id="xtick_5">
     <g id="line2d_9">
      <path d="M 240.675072 351.72
L 240.675072 46.8
" clip-path="url(#p14a82c23bd)" style="fill: none; stroke: #cbd5df; stroke-opacity: 0.2; stroke-width: 0.8; stroke-linecap: square"/>
     </g>
     <g id="line2d_10">
      <g>
       <use xlink:href="#m41dd3edd73" x="240.675072" y="351.72" style="fill: #17324d; stroke: #17324d; stroke-width: 0.8"/>
      </g>
     </g>
     <g id="text_5">
      <text style="font-size: 10px; font-family: 'Hiragino Sans'; text-anchor: middle; fill: #17324d" x="240.675072" y="366.429375" transform="rotate(-0 240.675072 366.429375)">8</text>
     </g>
    </g>
    <g id="text_6">
     <text style="font-size: 10px; font-family: 'Hiragino Sans'; text-anchor: middle; fill: #17324d" x="144.52738" y="380.18875" transform="rotate(-0 144.52738 380.18875)">時間（模式）</text>
    </g>
   </g>
   <g id="matplotlib.axis_2">
    <g id="ytick_1">
     <g id="line2d_11">
      <path d="M 48.379688 351.72
L 240.675072 351.72
" clip-path="url(#p14a82c23bd)" style="fill: none; stroke: #cbd5df; stroke-opacity: 0.2; stroke-width: 0.8; stroke-linecap: square"/>
     </g>
     <g id="line2d_12">
      <defs>
       <path id="m7ba8299c01" d="M 0 0
L -3.5 0
" style="stroke: #17324d; stroke-width: 0.8"/>
      </defs>
      <g>
       <use xlink:href="#m7ba8299c01" x="48.379688" y="351.72" style="fill: #17324d; stroke: #17324d; stroke-width: 0.8"/>
      </g>
     </g>
     <g id="text_7">
      <text style="font-size: 10px; font-family: 'Hiragino Sans'; text-anchor: end; fill: #17324d" x="41.379688" y="355.574687" transform="rotate(-0 41.379688 355.574687)">0</text>
     </g>
    </g>
    <g id="ytick_2">
     <g id="line2d_13">
      <path d="M 48.379688 286.145806
L 240.675072 286.145806
" clip-path="url(#p14a82c23bd)" style="fill: none; stroke: #cbd5df; stroke-opacity: 0.2; stroke-width: 0.8; stroke-linecap: square"/>
     </g>
     <g id="line2d_14">
      <g>
       <use xlink:href="#m7ba8299c01" x="48.379688" y="286.145806" style="fill: #17324d; stroke: #17324d; stroke-width: 0.8"/>
      </g>
     </g>
     <g id="text_8">
      <text style="font-size: 10px; font-family: 'Hiragino Sans'; text-anchor: end; fill: #17324d" x="41.379688" y="290.000494" transform="rotate(-0 41.379688 290.000494)">200</text>
     </g>
    </g>
    <g id="ytick_3">
     <g id="line2d_15">
      <path d="M 48.379688 220.571613
L 240.675072 220.571613
" clip-path="url(#p14a82c23bd)" style="fill: none; stroke: #cbd5df; stroke-opacity: 0.2; stroke-width: 0.8; stroke-linecap: square"/>
     </g>
     <g id="line2d_16">
      <g>
       <use xlink:href="#m7ba8299c01" x="48.379688" y="220.571613" style="fill: #17324d; stroke: #17324d; stroke-width: 0.8"/>
      </g>
     </g>
     <g id="text_9">
      <text style="font-size: 10px; font-family: 'Hiragino Sans'; text-anchor: end; fill: #17324d" x="41.379688" y="224.4263" transform="rotate(-0 41.379688 224.4263)">400</text>
     </g>
    </g>
    <g id="ytick_4">
     <g id="line2d_17">
      <path d="M 48.379688 154.997419
L 240.675072 154.997419
" clip-path="url(#p14a82c23bd)" style="fill: none; stroke: #cbd5df; stroke-opacity: 0.2; stroke-width: 0.8; stroke-linecap: square"/>
     </g>
     <g id="line2d_18">
      <g>
       <use xlink:href="#m7ba8299c01" x="48.379688" y="154.997419" style="fill: #17324d; stroke: #17324d; stroke-width: 0.8"/>
      </g>
     </g>
     <g id="text_10">
      <text style="font-size: 10px; font-family: 'Hiragino Sans'; text-anchor: end; fill: #17324d" x="41.379688" y="158.852107" transform="rotate(-0 41.379688 158.852107)">600</text>
     </g>
    </g>
    <g id="ytick_5">
     <g id="line2d_19">
      <path d="M 48.379688 89.423226
L 240.675072 89.423226
" clip-path="url(#p14a82c23bd)" style="fill: none; stroke: #cbd5df; stroke-opacity: 0.2; stroke-width: 0.8; stroke-linecap: square"/>
     </g>
     <g id="line2d_20">
      <g>
       <use xlink:href="#m7ba8299c01" x="48.379688" y="89.423226" style="fill: #17324d; stroke: #17324d; stroke-width: 0.8"/>
      </g>
     </g>
     <g id="text_11">
      <text style="font-size: 10px; font-family: 'Hiragino Sans'; text-anchor: end; fill: #17324d" x="41.379688" y="93.277913" transform="rotate(-0 41.379688 93.277913)">800</text>
     </g>
    </g>
    <g id="text_12">
     <text style="font-size: 10px; font-family: 'Hiragino Sans'; text-anchor: middle; fill: #17324d" x="15.120313" y="199.26" transform="rotate(-90 15.120313 199.26)">温度 / °C</text>
    </g>
   </g>
   <g id="line2d_21">
    <path d="M 48.379688 113.357806
L 240.675072 113.357806
" clip-path="url(#p14a82c23bd)" style="fill: none; stroke-dasharray: 4.44,1.92; stroke-dashoffset: 0; stroke: #64748b; stroke-width: 1.2"/>
   </g>
   <g id="line2d_22">
    <path d="M 48.379688 73.029677
L 240.675072 73.029677
" clip-path="url(#p14a82c23bd)" style="fill: none; stroke-dasharray: 1.2,1.98; stroke-dashoffset: 0; stroke: #64748b; stroke-width: 1.2"/>
   </g>
   <g id="line2d_23">
    <path d="M 48.379688 345.162581
L 72.416611 92.701935
L 125.297841 92.701935
L 139.719995 214.014194
L 187.793841 214.014194
L 202.215995 345.162581
L 240.675072 345.162581
" clip-path="url(#p14a82c23bd)" style="fill: none; stroke: #6c5ce7; stroke-width: 3; stroke-linecap: square"/>
   </g>
   <g id="patch_5">
    <path d="M 48.379688 351.72
L 48.379688 46.8
" style="fill: none; stroke: #17324d; stroke-width: 0.8; stroke-linejoin: miter; stroke-linecap: square"/>
   </g>
   <g id="patch_6">
    <path d="M 48.379688 351.72
L 240.675072 351.72
" style="fill: none; stroke: #17324d; stroke-width: 0.8; stroke-linejoin: miter; stroke-linecap: square"/>
   </g>
   <g id="text_13">
    <!-- $A_\mathrm{c1}$ -->
    <g style="fill: #64748b" transform="translate(51.264118 109.751226)">
     <text>
      <tspan x="0" y="-0.703125" style="font-style: oblique; font-size: 10px; font-family: 'DejaVu Sans'; fill: #64748b">A</tspan>
      <tspan x="6.84082" y="0.9375" style="font-size: 7px; font-family: 'DejaVu Sans'; fill: #64748b">c</tspan>
      <tspan x="10.689453" y="0.9375" style="font-size: 7px; font-family: 'DejaVu Sans'; fill: #64748b">1</tspan>
     </text>
    </g>
   </g>
   <g id="text_14">
    <!-- $A_\mathrm{c3}$ -->
    <g style="fill: #64748b" transform="translate(51.264118 69.750968)">
     <text>
      <tspan x="0" y="-0.703125" style="font-style: oblique; font-size: 10px; font-family: 'DejaVu Sans'; fill: #64748b">A</tspan>
      <tspan x="6.84082" y="0.9375" style="font-size: 7px; font-family: 'DejaVu Sans'; fill: #64748b">c</tspan>
      <tspan x="10.689453" y="0.9375" style="font-size: 7px; font-family: 'DejaVu Sans'; fill: #64748b">3</tspan>
     </text>
    </g>
   </g>
   <g id="text_15">
    <text style="font-weight: 700; font-size: 10px; font-family: 'Hiragino Sans'; fill: #17324d" transform="translate(85.059072 74.549516)">二相域</text>
    <text style="font-weight: 700; font-size: 10px; font-family: 'Hiragino Sans'; fill: #17324d" transform="translate(83.234072 86.144516)">α + γ</text>
   </g>
   <g id="text_16">
    <text style="font-weight: 700; font-size: 10px; font-family: 'Hiragino Sans'; text-anchor: middle; fill: #17324d" x="163.756918" y="205.817419" transform="rotate(-0 163.756918 205.817419)">ベイナイト域保持</text>
   </g>
   <g id="patch_7">
    <path d="M 183.864538 157.7005
Q 176.476366 184.893236 169.381333 211.007051
" style="fill: none; stroke: #6c5ce7; stroke-linecap: round"/>
    <path d="M 172.360131 207.671371
L 169.381333 211.007051
L 168.500067 206.622605
" style="fill: none; stroke: #6c5ce7; stroke-linecap: round"/>
   </g>
   <g id="text_17">
    <text style="font-size: 10px; font-family: 'Hiragino Sans'; fill: #6c5ce7" transform="translate(155.359466 140.41746)">B生成時にCを</text>
    <text style="font-size: 10px; font-family: 'Hiragino Sans'; fill: #6c5ce7" transform="translate(152.793841 151.71871)">未変態γへ排出</text>
   </g>
   <g id="text_18">
    <text style="font-size: 10px; font-family: 'Hiragino Sans'; text-anchor: middle; fill: #64748b" x="158.949534" y="315.654194" transform="rotate(-0 158.949534 315.654194)">Si/Al：セメンタイト析出を抑制</text>
   </g>
   <g id="text_19">
    <text style="font-size: 12px; font-family: 'Hiragino Sans'; text-anchor: middle; fill: #17324d" x="144.52738" y="40.8" transform="rotate(-0 144.52738 40.8)">温度履歴</text>
   </g>
  </g>
  <g id="axes_2">
   <g id="patch_8">
    <path d="M 323.739811 239.916
L 389.669657 239.916
L 389.669657 134.2104
L 323.739811 134.2104
z
" clip-path="url(#paabddb6695)" style="fill: #e8f5f2; stroke: #17324d; stroke-width: 1.4; stroke-linejoin: miter"/>
   </g>
   <g id="patch_9">
    <path d="M 329.014198 231.459552
L 344.837361 231.459552
L 344.837361 207.147264
L 329.014198 207.147264
z
" clip-path="url(#paabddb6695)" style="fill: #f7f4ed; stroke: #f4a261; stroke-linejoin: miter"/>
   </g>
   <g id="patch_10">
    <path d="M 361.979121 178.606752
L 381.758075 178.606752
L 381.758075 152.180352
L 361.979121 152.180352
z
" clip-path="url(#paabddb6695)" style="fill: #f7f4ed; stroke: #f4a261; stroke-linejoin: miter"/>
   </g>
   <g id="patch_11">
    <path d="M 430.875811 239.916
L 496.805657 239.916
L 496.805657 134.2104
L 430.875811 134.2104
z
" clip-path="url(#paabddb6695)" style="fill: #e8f5f2; stroke: #17324d; stroke-width: 1.4; stroke-linejoin: miter"/>
   </g>
   <g id="patch_12">
    <path d="M 445.380377 224.06016
C 447.128857 224.06016 448.805959 222.723623 450.042321 220.344906
C 451.278683 217.966188 451.973361 214.739502 451.973361 211.375488
C 451.973361 208.011474 451.278683 204.784788 450.042321 202.40607
C 448.805959 200.027353 447.128857 198.690816 445.380377 198.690816
C 443.631897 198.690816 441.954795 200.027353 440.718433 202.40607
C 439.482071 204.784788 438.787392 208.011474 438.787392 211.375488
C 438.787392 214.739502 439.482071 217.966188 440.718433 220.344906
C 441.954795 222.723623 443.631897 224.06016 445.380377 224.06016
z
" clip-path="url(#paabddb6695)" style="fill: #e9c46a; stroke: #17324d; stroke-width: 0.9; stroke-linejoin: miter"/>
   </g>
   <g id="patch_13">
    <path d="M 471.752315 218.77488
C 473.937915 218.77488 476.034293 217.661099 477.579745 215.678835
C 479.125198 213.69657 479.993546 211.007665 479.993546 208.20432
C 479.993546 205.400975 479.125198 202.71207 477.579745 200.729805
C 476.034293 198.747541 473.937915 197.63376 471.752315 197.63376
C 469.566715 197.63376 467.470338 198.747541 465.924885 200.729805
C 464.379432 202.71207 463.511084 205.400975 463.511084 208.20432
C 463.511084 211.007665 464.379432 213.69657 465.924885 215.678835
C 467.470338 217.661099 469.566715 218.77488 471.752315 218.77488
z
" clip-path="url(#paabddb6695)" style="fill: #e9c46a; stroke: #17324d; stroke-width: 0.9; stroke-linejoin: miter"/>
   </g>
   <g id="patch_14">
    <path d="M 461.862838 178.078224
C 463.698742 178.078224 465.459699 176.797376 466.75788 174.517772
C 468.05606 172.238168 468.785472 169.145927 468.785472 165.92208
C 468.785472 162.698233 468.05606 159.605992 466.75788 157.326388
C 465.459699 155.046784 463.698742 153.765936 461.862838 153.765936
C 460.026934 153.765936 458.265977 155.046784 456.967797 157.326388
C 455.669617 159.605992 454.940204 162.698233 454.940204 165.92208
C 454.940204 169.145927 455.669617 172.238168 456.967797 174.517772
C 458.265977 176.797376 460.026934 178.078224 461.862838 178.078224
z
" clip-path="url(#paabddb6695)" style="fill: #e9c46a; stroke: #17324d; stroke-width: 0.9; stroke-linejoin: miter"/>
   </g>
   <g id="patch_15">
    <path d="M 484.938284 172.264416
C 486.337068 172.264416 487.67875 171.262013 488.66784 169.477975
C 489.656929 167.693937 490.212672 165.273923 490.212672 162.750912
C 490.212672 160.227901 489.656929 157.807887 488.66784 156.023849
C 487.67875 154.239811 486.337068 153.237408 484.938284 153.237408
C 483.5395 153.237408 482.197819 154.239811 481.208729 156.023849
C 480.219639 157.807887 479.663897 160.227901 479.663897 162.750912
C 479.663897 165.273923 480.219639 167.693937 481.208729 169.477975
C 482.197819 171.262013 483.5395 172.264416 484.938284 172.264416
z
" clip-path="url(#paabddb6695)" style="fill: #e9c46a; stroke: #17324d; stroke-width: 0.9; stroke-linejoin: miter"/>
   </g>
   <g id="patch_16">
    <path d="M 538.011811 239.916
L 603.941657 239.916
L 603.941657 134.2104
L 538.011811 134.2104
z
" clip-path="url(#paabddb6695)" style="fill: #e8f5f2; stroke: #17324d; stroke-width: 1.4; stroke-linejoin: miter"/>
   </g>
   <g id="patch_17">
    <path d="M 561.087257 217.189296
C 562.398617 217.189296 563.656443 216.465338 564.583715 215.176867
C 565.510986 213.888395 566.031995 212.140606 566.031995 210.318432
C 566.031995 208.496258 565.510986 206.748469 564.583715 205.459997
C 563.656443 204.171526 562.398617 203.447568 561.087257 203.447568
C 559.775897 203.447568 558.51807 204.171526 557.590799 205.459997
C 556.663527 206.748469 556.142518 208.496258 556.142518 210.318432
C 556.142518 212.140606 556.663527 213.888395 557.590799 215.176867
C 558.51807 216.465338 559.775897 217.189296 561.087257 217.189296
z
" clip-path="url(#paabddb6695)" style="fill: #e9c46a; stroke: #17324d; stroke-width: 0.8; stroke-linejoin: miter"/>
   </g>
   <g id="patch_18">
    <path d="M 588.118494 215.075184
C 589.429854 215.075184 590.68768 214.351226 591.614952 213.062755
C 592.542223 211.774283 593.063232 210.026494 593.063232 208.20432
C 593.063232 206.382146 592.542223 204.634357 591.614952 203.345885
C 590.68768 202.057414 589.429854 201.333456 588.118494 201.333456
C 586.807134 201.333456 585.549307 202.057414 584.622036 203.345885
C 583.694764 204.634357 583.173755 206.382146 583.173755 208.20432
C 583.173755 210.026494 583.694764 211.774283 584.622036 213.062755
C 585.549307 214.351226 586.807134 215.075184 588.118494 215.075184
z
" clip-path="url(#paabddb6695)" style="fill: #e9c46a; stroke: #17324d; stroke-width: 0.8; stroke-linejoin: miter"/>
   </g>
   <g id="patch_19">
    <path d="M 557.790764 167.507664
C 559.102124 167.507664 560.359951 166.783706 561.287223 165.495235
C 562.214494 164.206763 562.735503 162.458974 562.735503 160.6368
C 562.735503 158.814626 562.214494 157.066837 561.287223 155.778365
C 560.359951 154.489894 559.102124 153.765936 557.790764 153.765936
C 556.479404 153.765936 555.221578 154.489894 554.294306 155.778365
C 553.367035 157.066837 552.846026 158.814626 552.846026 160.6368
C 552.846026 162.458974 553.367035 164.206763 554.294306 165.495235
C 555.221578 166.783706 556.479404 167.507664 557.790764 167.507664
z
" clip-path="url(#paabddb6695)" style="fill: #e9c46a; stroke: #17324d; stroke-width: 0.8; stroke-linejoin: miter"/>
   </g>
   <g id="patch_20">
    <path d="M 589.437091 166.450608
C 590.748451 166.450608 592.006277 165.72665 592.933549 164.438179
C 593.86082 163.149707 594.381829 161.401918 594.381829 159.579744
C 594.381829 157.75757 593.86082 156.009781 592.933549 154.721309
C 592.006277 153.432838 590.748451 152.70888 589.437091 152.70888
C 588.125731 152.70888 586.867904 153.432838 585.940632 154.721309
C 585.013361 156.009781 584.492352 157.75757 584.492352 159.579744
C 584.492352 161.401918 585.013361 163.149707 585.940632 164.438179
C 586.867904 165.72665 588.125731 166.450608 589.437091 166.450608
z
" clip-path="url(#paabddb6695)" style="fill: #e9c46a; stroke: #17324d; stroke-width: 0.8; stroke-linejoin: miter"/>
   </g>
   <g id="patch_21">
    <path d="M 645.147811 239.916
L 711.077657 239.916
L 711.077657 134.2104
L 645.147811 134.2104
z
" clip-path="url(#paabddb6695)" style="fill: #e8f5f2; stroke: #17324d; stroke-width: 1.4; stroke-linejoin: miter"/>
   </g>
   <g id="patch_22">
    <path d="M 668.223257 217.189296
C 669.534617 217.189296 670.792443 216.465338 671.719715 215.176867
C 672.646986 213.888395 673.167995 212.140606 673.167995 210.318432
C 673.167995 208.496258 672.646986 206.748469 671.719715 205.459997
C 670.792443 204.171526 669.534617 203.447568 668.223257 203.447568
C 666.911897 203.447568 665.65407 204.171526 664.726799 205.459997
C 663.799527 206.748469 663.278518 208.496258 663.278518 210.318432
C 663.278518 212.140606 663.799527 213.888395 664.726799 215.176867
C 665.65407 216.465338 666.911897 217.189296 668.223257 217.189296
z
" clip-path="url(#paabddb6695)" style="fill: #6c5ce7; stroke: #17324d; stroke-width: 0.8; stroke-linejoin: miter"/>
   </g>
   <g id="patch_23">
    <path d="M 695.254494 215.075184
C 696.565854 215.075184 697.82368 214.351226 698.750952 213.062755
C 699.678223 211.774283 700.199232 210.026494 700.199232 208.20432
C 700.199232 206.382146 699.678223 204.634357 698.750952 203.345885
C 697.82368 202.057414 696.565854 201.333456 695.254494 201.333456
C 693.943134 201.333456 692.685307 202.057414 691.758036 203.345885
C 690.830764 204.634357 690.309755 206.382146 690.309755 208.20432
C 690.309755 210.026494 690.830764 211.774283 691.758036 213.062755
C 692.685307 214.351226 693.943134 215.075184 695.254494 215.075184
z
" clip-path="url(#paabddb6695)" style="fill: #6c5ce7; stroke: #17324d; stroke-width: 0.8; stroke-linejoin: miter"/>
   </g>
   <g id="patch_24">
    <path d="M 664.926764 167.507664
C 666.238124 167.507664 667.495951 166.783706 668.423223 165.495235
C 669.350494 164.206763 669.871503 162.458974 669.871503 160.6368
C 669.871503 158.814626 669.350494 157.066837 668.423223 155.778365
C 667.495951 154.489894 666.238124 153.765936 664.926764 153.765936
C 663.615404 153.765936 662.357578 154.489894 661.430306 155.778365
C 660.503035 157.066837 659.982026 158.814626 659.982026 160.6368
C 659.982026 162.458974 660.503035 164.206763 661.430306 165.495235
C 662.357578 166.783706 663.615404 167.507664 664.926764 167.507664
z
" clip-path="url(#paabddb6695)" style="fill: #6c5ce7; stroke: #17324d; stroke-width: 0.8; stroke-linejoin: miter"/>
   </g>
   <g id="patch_25">
    <path d="M 696.573091 166.450608
C 697.884451 166.450608 699.142277 165.72665 700.069549 164.438179
C 700.99682 163.149707 701.517829 161.401918 701.517829 159.579744
C 701.517829 157.75757 700.99682 156.009781 700.069549 154.721309
C 699.142277 153.432838 697.884451 152.70888 696.573091 152.70888
C 695.261731 152.70888 694.003904 153.432838 693.076632 154.721309
C 692.149361 156.009781 691.628352 157.75757 691.628352 159.579744
C 691.628352 161.401918 692.149361 163.149707 693.076632 164.438179
C 694.003904 165.72665 695.261731 166.450608 696.573091 166.450608
z
" clip-path="url(#paabddb6695)" style="fill: #6c5ce7; stroke: #17324d; stroke-width: 0.8; stroke-linejoin: miter"/>
   </g>
   <g id="patch_26">
    <path d="M 394.140565 187.0632
Q 409.446588 187.0632 423.075561 187.0632
" clip-path="url(#paabddb6695)" style="fill: none; stroke: #17324d; stroke-width: 1.5; stroke-linecap: round"/>
    <path d="M 417.075561 184.0632
L 423.075561 187.0632
L 417.075561 190.0632
z
" clip-path="url(#paabddb6695)" style="fill: #17324d; stroke: #17324d; stroke-width: 1.5; stroke-linecap: round"/>
   </g>
   <g id="patch_27">
    <path d="M 501.276565 187.0632
Q 516.582588 187.0632 530.211561 187.0632
" clip-path="url(#paabddb6695)" style="fill: none; stroke: #17324d; stroke-width: 1.5; stroke-linecap: round"/>
    <path d="M 524.211561 184.0632
L 530.211561 187.0632
L 524.211561 190.0632
z
" clip-path="url(#paabddb6695)" style="fill: #17324d; stroke: #17324d; stroke-width: 1.5; stroke-linecap: round"/>
   </g>
   <g id="patch_28">
    <path d="M 608.412565 187.0632
Q 623.718588 187.0632 637.347561 187.0632
" clip-path="url(#paabddb6695)" style="fill: none; stroke: #17324d; stroke-width: 1.5; stroke-linecap: round"/>
    <path d="M 631.347561 184.0632
L 637.347561 187.0632
L 631.347561 190.0632
z
" clip-path="url(#paabddb6695)" style="fill: #17324d; stroke: #17324d; stroke-width: 1.5; stroke-linecap: round"/>
   </g>
   <g id="line2d_24">
    <path d="M 344.178063 239.916
L 348.793152 212.432544
L 346.155958 134.2104
" clip-path="url(#paabddb6695)" style="fill: none; stroke: #2a9d8f; stroke-linecap: square"/>
   </g>
   <g id="line2d_25">
    <path d="M 323.739811 176.49264
L 358.023331 181.77792
L 389.669657 165.92208
" clip-path="url(#paabddb6695)" style="fill: none; stroke: #2a9d8f; stroke-linecap: square"/>
   </g>
   <g id="line2d_26">
    <path d="M 329.488893 226.597094
L 344.362666 226.597094
" clip-path="url(#paabddb6695)" style="fill: none; stroke: #17324d; stroke-width: 0.8; stroke-linecap: square"/>
   </g>
   <g id="line2d_27">
    <path d="M 329.488893 221.734637
L 344.362666 221.734637
" clip-path="url(#paabddb6695)" style="fill: none; stroke: #17324d; stroke-width: 0.8; stroke-linecap: square"/>
   </g>
   <g id="line2d_28">
    <path d="M 329.488893 216.872179
L 344.362666 216.872179
" clip-path="url(#paabddb6695)" style="fill: none; stroke: #17324d; stroke-width: 0.8; stroke-linecap: square"/>
   </g>
   <g id="line2d_29">
    <path d="M 329.488893 212.009722
L 344.362666 212.009722
" clip-path="url(#paabddb6695)" style="fill: none; stroke: #17324d; stroke-width: 0.8; stroke-linecap: square"/>
   </g>
   <g id="line2d_30">
    <path d="M 362.57249 173.321472
L 381.164707 173.321472
" clip-path="url(#paabddb6695)" style="fill: none; stroke: #17324d; stroke-width: 0.8; stroke-linecap: square"/>
   </g>
   <g id="line2d_31">
    <path d="M 362.57249 168.036192
L 381.164707 168.036192
" clip-path="url(#paabddb6695)" style="fill: none; stroke: #17324d; stroke-width: 0.8; stroke-linecap: square"/>
   </g>
   <g id="line2d_32">
    <path d="M 362.57249 162.750912
L 381.164707 162.750912
" clip-path="url(#paabddb6695)" style="fill: none; stroke: #17324d; stroke-width: 0.8; stroke-linecap: square"/>
   </g>
   <g id="line2d_33">
    <path d="M 362.57249 157.465632
L 381.164707 157.465632
" clip-path="url(#paabddb6695)" style="fill: none; stroke: #17324d; stroke-width: 0.8; stroke-linecap: square"/>
   </g>
   <g id="line2d_34">
    <path d="M 544.604795 223.003104
L 563.065152 193.405536
" clip-path="url(#paabddb6695)" style="fill: none; stroke: #f4a261; stroke-width: 1.2; stroke-linecap: square"/>
   </g>
   <g id="line2d_35">
    <path d="M 546.582691 223.003104
L 565.043048 193.405536
" clip-path="url(#paabddb6695)" style="fill: none; stroke: #f4a261; stroke-width: 1.2; stroke-linecap: square"/>
   </g>
   <g id="line2d_36">
    <path d="M 548.560586 223.003104
L 567.020943 193.405536
" clip-path="url(#paabddb6695)" style="fill: none; stroke: #f4a261; stroke-width: 1.2; stroke-linecap: square"/>
   </g>
   <g id="line2d_37">
    <path d="M 550.538481 223.003104
L 568.998838 193.405536
" clip-path="url(#paabddb6695)" style="fill: none; stroke: #f4a261; stroke-width: 1.2; stroke-linecap: square"/>
   </g>
   <g id="line2d_38">
    <path d="M 569.658137 187.0632
L 588.118494 157.465632
" clip-path="url(#paabddb6695)" style="fill: none; stroke: #f4a261; stroke-width: 1.2; stroke-linecap: square"/>
   </g>
   <g id="line2d_39">
    <path d="M 571.636032 187.0632
L 590.096389 157.465632
" clip-path="url(#paabddb6695)" style="fill: none; stroke: #f4a261; stroke-width: 1.2; stroke-linecap: square"/>
   </g>
   <g id="line2d_40">
    <path d="M 573.613928 187.0632
L 592.074284 157.465632
" clip-path="url(#paabddb6695)" style="fill: none; stroke: #f4a261; stroke-width: 1.2; stroke-linecap: square"/>
   </g>
   <g id="line2d_41">
    <path d="M 575.591823 187.0632
L 594.05218 157.465632
" clip-path="url(#paabddb6695)" style="fill: none; stroke: #f4a261; stroke-width: 1.2; stroke-linecap: square"/>
   </g>
   <g id="line2d_42">
    <path d="M 651.740795 223.003104
L 670.201152 193.405536
" clip-path="url(#paabddb6695)" style="fill: none; stroke: #f4a261; stroke-width: 1.2; stroke-linecap: square"/>
   </g>
   <g id="line2d_43">
    <path d="M 653.718691 223.003104
L 672.179048 193.405536
" clip-path="url(#paabddb6695)" style="fill: none; stroke: #f4a261; stroke-width: 1.2; stroke-linecap: square"/>
   </g>
   <g id="line2d_44">
    <path d="M 655.696586 223.003104
L 674.156943 193.405536
" clip-path="url(#paabddb6695)" style="fill: none; stroke: #f4a261; stroke-width: 1.2; stroke-linecap: square"/>
   </g>
   <g id="line2d_45">
    <path d="M 657.674481 223.003104
L 676.134838 193.405536
" clip-path="url(#paabddb6695)" style="fill: none; stroke: #f4a261; stroke-width: 1.2; stroke-linecap: square"/>
   </g>
   <g id="line2d_46">
    <path d="M 676.794137 187.0632
L 695.254494 157.465632
" clip-path="url(#paabddb6695)" style="fill: none; stroke: #f4a261; stroke-width: 1.2; stroke-linecap: square"/>
   </g>
   <g id="line2d_47">
    <path d="M 678.772032 187.0632
L 697.232389 157.465632
" clip-path="url(#paabddb6695)" style="fill: none; stroke: #f4a261; stroke-width: 1.2; stroke-linecap: square"/>
   </g>
   <g id="line2d_48">
    <path d="M 680.749928 187.0632
L 699.210284 157.465632
" clip-path="url(#paabddb6695)" style="fill: none; stroke: #f4a261; stroke-width: 1.2; stroke-linecap: square"/>
   </g>
   <g id="line2d_49">
    <path d="M 682.727823 187.0632
L 701.18818 157.465632
" clip-path="url(#paabddb6695)" style="fill: none; stroke: #f4a261; stroke-width: 1.2; stroke-linecap: square"/>
   </g>
   <g id="line2d_50">
    <path d="M 683.387121 224.06016
L 691.298703 195.519648
" clip-path="url(#paabddb6695)" style="fill: none; stroke: #17324d; stroke-width: 2.2; stroke-linecap: square"/>
   </g>
   <g id="text_20">
    <text style="font-size: 10px; font-family: 'Hiragino Sans'; text-anchor: middle; fill: #64748b" x="356.704734" y="87.456" transform="rotate(-0 356.704734 87.456)">初期</text>
   </g>
   <g id="text_21">
    <text style="font-size: 10px; font-family: 'Hiragino Sans'; text-anchor: middle; fill: #64748b" x="463.840734" y="87.456" transform="rotate(-0 463.840734 87.456)">二相域</text>
   </g>
   <g id="text_22">
    <text style="font-size: 10px; font-family: 'Hiragino Sans'; text-anchor: middle; fill: #64748b" x="570.976734" y="87.456" transform="rotate(-0 570.976734 87.456)">ベイナイト保持</text>
   </g>
   <g id="text_23">
    <text style="font-size: 10px; font-family: 'Hiragino Sans'; text-anchor: middle; fill: #64748b" x="678.112734" y="87.456" transform="rotate(-0 678.112734 87.456)">室温</text>
   </g>
   <g id="text_24">
    <text style="font-size: 10px; font-family: 'Hiragino Sans'; text-anchor: middle; fill: #64748b" x="409.448611" y="144.3744" transform="rotate(-0 409.448611 144.3744)">P溶解</text>
   </g>
   <g id="text_25">
    <text style="font-size: 10px; font-family: 'Hiragino Sans'; fill: #64748b" transform="translate(489.650236 126.97475)">一部γ → B</text>
    <text style="font-size: 10px; font-family: 'Hiragino Sans'; fill: #64748b" transform="translate(484.425236 138.276)">C → 残りのγ</text>
   </g>
   <g id="text_26">
    <text style="font-size: 10px; font-family: 'Hiragino Sans'; fill: #64748b" transform="translate(599.890923 126.97475)">C濃化γを</text>
    <text style="font-size: 10px; font-family: 'Hiragino Sans'; fill: #64748b" transform="translate(593.720611 138.276)">室温まで保持</text>
   </g>
   <g id="text_27">
    <text style="font-weight: 700; font-size: 10px; font-family: 'Hiragino Sans'; text-anchor: middle; fill: #17324d" x="356.704734" y="278.5392" transform="rotate(-0 356.704734 278.5392)">α + P</text>
   </g>
   <g id="text_28">
    <text style="font-weight: 700; font-size: 10px; font-family: 'Hiragino Sans'; text-anchor: middle; fill: #17324d" x="463.840734" y="278.5392" transform="rotate(-0 463.840734 278.5392)">α + γ</text>
   </g>
   <g id="text_29">
    <!-- α + B + γ$_{\mathrm{C-rich}}$ -->
    <g style="fill: #17324d" transform="translate(529.976734 278.5392)">
     <text>
      <tspan x="0" y="-0.765625" style="font-weight: 700; font-size: 10px; font-family: 'Hiragino Sans'; fill: #17324d">α</tspan>
      <tspan x="9.999985" y="-0.765625" style="font-weight: 700; font-size: 10px; font-family: 'Hiragino Sans'; fill: #17324d"> </tspan>
      <tspan x="13.329971" y="-0.765625" style="font-weight: 700; font-size: 10px; font-family: 'Hiragino Sans'; fill: #17324d">+</tspan>
      <tspan x="20.319962" y="-0.765625" style="font-weight: 700; font-size: 10px; font-family: 'Hiragino Sans'; fill: #17324d"> </tspan>
      <tspan x="23.649948" y="-0.765625" style="font-weight: 700; font-size: 10px; font-family: 'Hiragino Sans'; fill: #17324d">B</tspan>
      <tspan x="31.389938" y="-0.765625" style="font-weight: 700; font-size: 10px; font-family: 'Hiragino Sans'; fill: #17324d"> </tspan>
      <tspan x="34.719925" y="-0.765625" style="font-weight: 700; font-size: 10px; font-family: 'Hiragino Sans'; fill: #17324d">+</tspan>
      <tspan x="41.709915" y="-0.765625" style="font-weight: 700; font-size: 10px; font-family: 'Hiragino Sans'; fill: #17324d"> </tspan>
      <tspan x="45.039902" y="-0.765625" style="font-weight: 700; font-size: 10px; font-family: 'Hiragino Sans'; fill: #17324d">γ</tspan>
      <tspan x="55.13559" y="0.875" style="font-size: 7px; font-family: 'DejaVu Sans'; fill: #17324d">C</tspan>
      <tspan x="61.387054" y="0.875" style="font-size: 7px; font-family: 'DejaVu Sans'; fill: #17324d">−</tspan>
      <tspan x="68.616058" y="0.875" style="font-size: 7px; font-family: 'DejaVu Sans'; fill: #17324d">r</tspan>
      <tspan x="71.493988" y="0.875" style="font-size: 7px; font-family: 'DejaVu Sans'; fill: #17324d">i</tspan>
      <tspan x="73.438812" y="0.875" style="font-size: 7px; font-family: 'DejaVu Sans'; fill: #17324d">c</tspan>
      <tspan x="77.287445" y="0.875" style="font-size: 7px; font-family: 'DejaVu Sans'; fill: #17324d">h</tspan>
     </text>
    </g>
   </g>
   <g id="text_30">
    <!-- α + B + γ$_\mathrm{R}$（+M） -->
    <g style="fill: #17324d" transform="translate(629.412734 278.5392)">
     <text>
      <tspan x="0" y="-0.203125" style="font-weight: 700; font-size: 10px; font-family: 'Hiragino Sans'; fill: #17324d">α</tspan>
      <tspan x="9.999985" y="-0.203125" style="font-weight: 700; font-size: 10px; font-family: 'Hiragino Sans'; fill: #17324d"> </tspan>
      <tspan x="13.329971" y="-0.203125" style="font-weight: 700; font-size: 10px; font-family: 'Hiragino Sans'; fill: #17324d">+</tspan>
      <tspan x="20.319962" y="-0.203125" style="font-weight: 700; font-size: 10px; font-family: 'Hiragino Sans'; fill: #17324d"> </tspan>
      <tspan x="23.649948" y="-0.203125" style="font-weight: 700; font-size: 10px; font-family: 'Hiragino Sans'; fill: #17324d">B</tspan>
      <tspan x="31.389938" y="-0.203125" style="font-weight: 700; font-size: 10px; font-family: 'Hiragino Sans'; fill: #17324d"> </tspan>
      <tspan x="34.719925" y="-0.203125" style="font-weight: 700; font-size: 10px; font-family: 'Hiragino Sans'; fill: #17324d">+</tspan>
      <tspan x="41.709915" y="-0.203125" style="font-weight: 700; font-size: 10px; font-family: 'Hiragino Sans'; fill: #17324d"> </tspan>
      <tspan x="45.039902" y="-0.203125" style="font-weight: 700; font-size: 10px; font-family: 'Hiragino Sans'; fill: #17324d">γ</tspan>
      <tspan x="60.272797" y="-0.203125" style="font-weight: 700; font-size: 10px; font-family: 'Hiragino Sans'; fill: #17324d">（</tspan>
      <tspan x="70.272781" y="-0.203125" style="font-weight: 700; font-size: 10px; font-family: 'Hiragino Sans'; fill: #17324d">+</tspan>
      <tspan x="77.262772" y="-0.203125" style="font-weight: 700; font-size: 10px; font-family: 'Hiragino Sans'; fill: #17324d">M</tspan>
      <tspan x="87.322754" y="-0.203125" style="font-weight: 700; font-size: 10px; font-family: 'Hiragino Sans'; fill: #17324d">）</tspan>
      <tspan x="55.13559" y="1.4375" style="font-size: 7px; font-family: 'DejaVu Sans'; fill: #17324d">R</tspan>
     </text>
    </g>
   </g>
   <g id="text_31">
    <text style="font-weight: 700; font-size: 10px; font-family: 'Hiragino Sans'; fill: #6c5ce7" transform="translate(635.768202 309.633)">変形中：γR → M</text>
    <text style="font-weight: 700; font-size: 10px; font-family: 'Hiragino Sans'; fill: #6c5ce7" transform="translate(593.112734 321.228)">加工硬化を維持してくびれを遅らせる</text>
   </g>
   <g id="text_32">
    <text style="font-weight: 700; font-size: 12px; font-family: 'Hiragino Sans'; text-anchor: start; fill: #17324d" x="318.795072" y="40.8" transform="rotate(-0 318.795072 40.8)">組織遷移</text>
   </g>
  </g>
  <g id="text_33">
   <text style="font-weight: 700; font-size: 15px; font-family: 'Hiragino Sans'; text-anchor: middle; fill: #17324d" x="388.579687" y="19.080469" transform="rotate(-0 388.579687 19.080469)">TRIP鋼：Cを未変態γへ濃化して残留させる（模式図）</text>
  </g>
  <g id="text_34">
   <text style="font-size: 10px; font-family: 'Hiragino Sans'; text-anchor: middle; fill: #64748b" x="388.579687" y="390.528" transform="rotate(-0 388.579687 390.528)">α：フェライト、P：パーライト、B：ベイナイト、γR：残留オーステナイト、M：マルテンサイト。温度・時間・相分率は定性的。</text>
  </g>
 </g>
 <defs>
  <clipPath id="p14a82c23bd">
   <rect x="48.379688" y="46.8" width="192.295385" height="304.92"/>
  </clipPath>
  <clipPath id="paabddb6695">
   <rect x="318.795072" y="46.8" width="432.664615" height="304.92"/>
  </clipPath>
 </defs>
</svg>
