<?xml version="1.0" encoding="utf-8" standalone="no"?>
<!DOCTYPE svg PUBLIC "-//W3C//DTD SVG 1.1//EN"
  "http://www.w3.org/Graphics/SVG/1.1/DTD/svg11.dtd">
<svg xmlns:xlink="http://www.w3.org/1999/xlink" width="890.203687pt" height="399.778pt" viewBox="0 0 890.203687 399.778" xmlns="http://www.w3.org/2000/svg" version="1.1">
 <metadata>
  <rdf:RDF xmlns:dc="http://purl.org/dc/elements/1.1/" xmlns:cc="http://creativecommons.org/ns#" xmlns:rdf="http://www.w3.org/1999/02/22-rdf-syntax-ns#">
   <cc:Work>
    <dc:type rdf:resource="http://purl.org/dc/dcmitype/StillImage"/>
    <dc:format>image/svg+xml</dc:format>
    <dc:creator>
     <cc:Agent>
      <dc:title>Matplotlib v3.10.9, https://matplotlib.org/</dc:title>
     </cc:Agent>
    </dc:creator>
   </cc:Work>
  </rdf:RDF>
 </metadata>
 <defs>
  <style type="text/css">*{stroke-linejoin: round; stroke-linecap: butt}</style>
 </defs>
 <g id="figure_1">
  <g id="patch_1">
   <path d="M 0 399.778
L 890.203687 399.778
L 890.203687 0
L 0 0
z
" style="fill: #ffffff"/>
  </g>
  <g id="axes_1">
   <g id="patch_2">
    <path d="M 48.379688 327.96
L 276.652918 327.96
L 276.652918 70.56
L 48.379688 70.56
z
" style="fill: #ffffff"/>
   </g>
   <g id="patch_3">
    <path d="M 48.379688 126.745161
L 276.652918 126.745161
L 276.652918 92.701935
L 48.379688 92.701935
z
" clip-path="url(#p335dd07841)" style="fill: #e9c46a; opacity: 0.12; stroke: #e9c46a; stroke-linejoin: miter"/>
   </g>
   <g id="patch_4">
    <path d="M 48.379688 231.089032
L 276.652918 231.089032
L 276.652918 195.108387
L 48.379688 195.108387
z
" clip-path="url(#p335dd07841)" style="fill: #2a9d8f; opacity: 0.12; stroke: #2a9d8f; stroke-linejoin: miter"/>
   </g>
   <g id="matplotlib.axis_1">
    <g id="xtick_1">
     <g id="line2d_1">
      <path d="M 48.379688 327.96
L 48.379688 70.56
" clip-path="url(#p335dd07841)" style="fill: none; stroke: #cbd5df; stroke-opacity: 0.2; stroke-width: 0.8; stroke-linecap: square"/>
     </g>
     <g id="line2d_2">
      <defs>
       <path id="m41dd3edd73" d="M 0 0
L 0 3.5
" style="stroke: #17324d; stroke-width: 0.8"/>
      </defs>
      <g>
       <use xlink:href="#m41dd3edd73" x="48.379688" y="327.96" style="fill: #17324d; stroke: #17324d; stroke-width: 0.8"/>
      </g>
     </g>
     <g id="text_1">
      <text style="font-size: 10px; font-family: 'Hiragino Sans'; text-anchor: middle; fill: #17324d" x="48.379688" y="342.669375" transform="rotate(-0 48.379688 342.669375)">0</text>
     </g>
    </g>
    <g id="xtick_2">
     <g id="line2d_3">
      <path d="M 105.447995 327.96
L 105.447995 70.56
" clip-path="url(#p335dd07841)" style="fill: none; stroke: #cbd5df; stroke-opacity: 0.2; stroke-width: 0.8; stroke-linecap: square"/>
     </g>
     <g id="line2d_4">
      <g>
       <use xlink:href="#m41dd3edd73" x="105.447995" y="327.96" style="fill: #17324d; stroke: #17324d; stroke-width: 0.8"/>
      </g>
     </g>
     <g id="text_2">
      <text style="font-size: 10px; font-family: 'Hiragino Sans'; text-anchor: middle; fill: #17324d" x="105.447995" y="342.669375" transform="rotate(-0 105.447995 342.669375)">2</text>
     </g>
    </g>
    <g id="xtick_3">
     <g id="line2d_5">
      <path d="M 162.516303 327.96
L 162.516303 70.56
" clip-path="url(#p335dd07841)" style="fill: none; stroke: #cbd5df; stroke-opacity: 0.2; stroke-width: 0.8; stroke-linecap: square"/>
     </g>
     <g id="line2d_6">
      <g>
       <use xlink:href="#m41dd3edd73" x="162.516303" y="327.96" style="fill: #17324d; stroke: #17324d; stroke-width: 0.8"/>
      </g>
     </g>
     <g id="text_3">
      <text style="font-size: 10px; font-family: 'Hiragino Sans'; text-anchor: middle; fill: #17324d" x="162.516303" y="342.669375" transform="rotate(-0 162.516303 342.669375)">4</text>
     </g>
    </g>
    <g id="xtick_4">
     <g id="line2d_7">
      <path d="M 219.584611 327.96
L 219.584611 70.56
" clip-path="url(#p335dd07841)" style="fill: none; stroke: #cbd5df; stroke-opacity: 0.2; stroke-width: 0.8; stroke-linecap: square"/>
     </g>
     <g id="line2d_8">
      <g>
       <use xlink:href="#m41dd3edd73" x="219.584611" y="327.96" style="fill: #17324d; stroke: #17324d; stroke-width: 0.8"/>
      </g>
     </g>
     <g id="text_4">
      <text style="font-size: 10px; font-family: 'Hiragino Sans'; text-anchor: middle; fill: #17324d" x="219.584611" y="342.669375" transform="rotate(-0 219.584611 342.669375)">6</text>
     </g>
    </g>
    <g id="xtick_5">
     <g id="line2d_9">
      <path d="M 276.652918 327.96
L 276.652918 70.56
" clip-path="url(#p335dd07841)" style="fill: none; stroke: #cbd5df; stroke-opacity: 0.2; stroke-width: 0.8; stroke-linecap: square"/>
     </g>
     <g id="line2d_10">
      <g>
       <use xlink:href="#m41dd3edd73" x="276.652918" y="327.96" style="fill: #17324d; stroke: #17324d; stroke-width: 0.8"/>
      </g>
     </g>
     <g id="text_5">
      <text style="font-size: 10px; font-family: 'Hiragino Sans'; text-anchor: middle; fill: #17324d" x="276.652918" y="342.669375" transform="rotate(-0 276.652918 342.669375)">8</text>
     </g>
    </g>
    <g id="text_6">
     <text style="font-size: 10px; font-family: 'Hiragino Sans'; text-anchor: middle; fill: #17324d" x="162.516303" y="356.42875" transform="rotate(-0 162.516303 356.42875)">時間（模式）</text>
    </g>
   </g>
   <g id="matplotlib.axis_2">
    <g id="ytick_1">
     <g id="line2d_11">
      <path d="M 48.379688 327.96
L 276.652918 327.96
" clip-path="url(#p335dd07841)" style="fill: none; stroke: #cbd5df; stroke-opacity: 0.2; stroke-width: 0.8; stroke-linecap: square"/>
     </g>
     <g id="line2d_12">
      <defs>
       <path id="m7ba8299c01" d="M 0 0
L -3.5 0
" style="stroke: #17324d; stroke-width: 0.8"/>
      </defs>
      <g>
       <use xlink:href="#m7ba8299c01" x="48.379688" y="327.96" style="fill: #17324d; stroke: #17324d; stroke-width: 0.8"/>
      </g>
     </g>
     <g id="text_7">
      <text style="font-size: 10px; font-family: 'Hiragino Sans'; text-anchor: end; fill: #17324d" x="41.379688" y="331.814687" transform="rotate(-0 41.379688 331.814687)">0</text>
     </g>
    </g>
    <g id="ytick_2">
     <g id="line2d_13">
      <path d="M 48.379688 272.605161
L 276.652918 272.605161
" clip-path="url(#p335dd07841)" style="fill: none; stroke: #cbd5df; stroke-opacity: 0.2; stroke-width: 0.8; stroke-linecap: square"/>
     </g>
     <g id="line2d_14">
      <g>
       <use xlink:href="#m7ba8299c01" x="48.379688" y="272.605161" style="fill: #17324d; stroke: #17324d; stroke-width: 0.8"/>
      </g>
     </g>
     <g id="text_8">
      <text style="font-size: 10px; font-family: 'Hiragino Sans'; text-anchor: end; fill: #17324d" x="41.379688" y="276.459849" transform="rotate(-0 41.379688 276.459849)">200</text>
     </g>
    </g>
    <g id="ytick_3">
     <g id="line2d_15">
      <path d="M 48.379688 217.250323
L 276.652918 217.250323
" clip-path="url(#p335dd07841)" style="fill: none; stroke: #cbd5df; stroke-opacity: 0.2; stroke-width: 0.8; stroke-linecap: square"/>
     </g>
     <g id="line2d_16">
      <g>
       <use xlink:href="#m7ba8299c01" x="48.379688" y="217.250323" style="fill: #17324d; stroke: #17324d; stroke-width: 0.8"/>
      </g>
     </g>
     <g id="text_9">
      <text style="font-size: 10px; font-family: 'Hiragino Sans'; text-anchor: end; fill: #17324d" x="41.379688" y="221.10501" transform="rotate(-0 41.379688 221.10501)">400</text>
     </g>
    </g>
    <g id="ytick_4">
     <g id="line2d_17">
      <path d="M 48.379688 161.895484
L 276.652918 161.895484
" clip-path="url(#p335dd07841)" style="fill: none; stroke: #cbd5df; stroke-opacity: 0.2; stroke-width: 0.8; stroke-linecap: square"/>
     </g>
     <g id="line2d_18">
      <g>
       <use xlink:href="#m7ba8299c01" x="48.379688" y="161.895484" style="fill: #17324d; stroke: #17324d; stroke-width: 0.8"/>
      </g>
     </g>
     <g id="text_10">
      <text style="font-size: 10px; font-family: 'Hiragino Sans'; text-anchor: end; fill: #17324d" x="41.379688" y="165.750171" transform="rotate(-0 41.379688 165.750171)">600</text>
     </g>
    </g>
    <g id="ytick_5">
     <g id="line2d_19">
      <path d="M 48.379688 106.540645
L 276.652918 106.540645
" clip-path="url(#p335dd07841)" style="fill: none; stroke: #cbd5df; stroke-opacity: 0.2; stroke-width: 0.8; stroke-linecap: square"/>
     </g>
     <g id="line2d_20">
      <g>
       <use xlink:href="#m7ba8299c01" x="48.379688" y="106.540645" style="fill: #17324d; stroke: #17324d; stroke-width: 0.8"/>
      </g>
     </g>
     <g id="text_11">
      <text style="font-size: 10px; font-family: 'Hiragino Sans'; text-anchor: end; fill: #17324d" x="41.379688" y="110.395333" transform="rotate(-0 41.379688 110.395333)">800</text>
     </g>
    </g>
    <g id="text_12">
     <text style="font-size: 10px; font-family: 'Hiragino Sans'; text-anchor: middle; fill: #17324d" x="15.120313" y="199.26" transform="rotate(-90 15.120313 199.26)">温度 / °C</text>
    </g>
   </g>
   <g id="line2d_21">
    <path d="M 48.379688 126.745161
L 276.652918 126.745161
" clip-path="url(#p335dd07841)" style="fill: none; stroke-dasharray: 4.44,1.92; stroke-dashoffset: 0; stroke: #64748b; stroke-width: 1.2"/>
   </g>
   <g id="line2d_22">
    <path d="M 48.379688 92.701935
L 276.652918 92.701935
" clip-path="url(#p335dd07841)" style="fill: none; stroke-dasharray: 1.2,1.98; stroke-dashoffset: 0; stroke: #64748b; stroke-width: 1.2"/>
   </g>
   <g id="line2d_23">
    <path d="M 48.379688 322.424516
L 76.913841 109.308387
L 139.68898 109.308387
L 156.809472 211.714839
L 213.87778 211.714839
L 230.998272 322.424516
L 276.652918 322.424516
" clip-path="url(#p335dd07841)" style="fill: none; stroke: #6c5ce7; stroke-width: 3; stroke-linecap: square"/>
   </g>
   <g id="patch_5">
    <path d="M 48.379688 327.96
L 48.379688 70.56
" style="fill: none; stroke: #17324d; stroke-width: 0.8; stroke-linejoin: miter; stroke-linecap: square"/>
   </g>
   <g id="patch_6">
    <path d="M 48.379688 327.96
L 276.652918 327.96
" style="fill: none; stroke: #17324d; stroke-width: 0.8; stroke-linejoin: miter; stroke-linecap: square"/>
   </g>
   <g id="text_13">
    <!-- $A_\mathrm{c1}$ -->
    <g style="fill: #64748b" transform="translate(51.803786 123.700645)">
     <text>
      <tspan x="0" y="-0.703125" style="font-style: oblique; font-size: 10px; font-family: 'DejaVu Sans'; fill: #64748b">A</tspan>
      <tspan x="6.84082" y="0.9375" style="font-size: 7px; font-family: 'DejaVu Sans'; fill: #64748b">c</tspan>
      <tspan x="10.689453" y="0.9375" style="font-size: 7px; font-family: 'DejaVu Sans'; fill: #64748b">1</tspan>
     </text>
    </g>
   </g>
   <g id="text_14">
    <!-- $A_\mathrm{c3}$ -->
    <g style="fill: #64748b" transform="translate(51.803786 89.934194)">
     <text>
      <tspan x="0" y="-0.703125" style="font-style: oblique; font-size: 10px; font-family: 'DejaVu Sans'; fill: #64748b">A</tspan>
      <tspan x="6.84082" y="0.9375" style="font-size: 7px; font-family: 'DejaVu Sans'; fill: #64748b">c</tspan>
      <tspan x="10.689453" y="0.9375" style="font-size: 7px; font-family: 'DejaVu Sans'; fill: #64748b">3</tspan>
     </text>
    </g>
   </g>
   <g id="text_15">
    <text style="font-weight: 700; font-size: 10px; font-family: 'Hiragino Sans'; fill: #17324d" transform="translate(94.728118 92.177903)">二相域</text>
    <text style="font-weight: 700; font-size: 10px; font-family: 'Hiragino Sans'; fill: #17324d" transform="translate(92.903118 103.772903)">α + γ</text>
   </g>
   <g id="text_16">
    <text style="font-weight: 700; font-size: 10px; font-family: 'Hiragino Sans'; text-anchor: middle; fill: #17324d" x="185.343626" y="204.795484" transform="rotate(-0 185.343626 204.795484)">ベイナイト域保持</text>
   </g>
   <g id="patch_7">
    <path d="M 208.493983 165.050105
Q 200.121963 187.446842 192.141415 208.79632
" style="fill: none; stroke: #6c5ce7; stroke-linecap: round"/>
    <path d="M 195.415376 205.749818
L 192.141415 208.79632
L 191.66859 204.349249
" style="fill: none; stroke: #6c5ce7; stroke-linecap: round"/>
   </g>
   <g id="text_17">
    <text style="font-size: 10px; font-family: 'Hiragino Sans'; fill: #6c5ce7" transform="translate(181.443405 147.826492)">B生成時にCを</text>
    <text style="font-size: 10px; font-family: 'Hiragino Sans'; fill: #6c5ce7" transform="translate(178.87778 159.127742)">未変態γへ排出</text>
   </g>
   <g id="text_18">
    <text style="font-size: 10px; font-family: 'Hiragino Sans'; text-anchor: middle; fill: #64748b" x="179.636795" y="297.514839" transform="rotate(-0 179.636795 297.514839)">Si/Al：セメンタイト析出を抑制</text>
   </g>
   <g id="text_19">
    <text style="font-size: 12px; font-family: 'Hiragino Sans'; text-anchor: middle; fill: #17324d" x="162.516303" y="64.56" transform="rotate(-0 162.516303 64.56)">温度履歴</text>
   </g>
  </g>
  <g id="axes_2">
   <g id="patch_8">
    <path d="M 375.258801 233.58
L 453.523909 233.58
L 453.523909 144.348
L 375.258801 144.348
z
" clip-path="url(#p503aa50205)" style="fill: #e8f5f2; stroke: #17324d; stroke-width: 1.4; stroke-linejoin: miter"/>
   </g>
   <g id="patch_9">
    <path d="M 381.52001 226.44144
L 400.303636 226.44144
L 400.303636 205.91808
L 381.52001 205.91808
z
" clip-path="url(#p503aa50205)" style="fill: #f7f4ed; stroke: #f4a261; stroke-linejoin: miter"/>
   </g>
   <g id="patch_10">
    <path d="M 420.652564 181.82544
L 444.132096 181.82544
L 444.132096 159.51744
L 420.652564 159.51744
z
" clip-path="url(#p503aa50205)" style="fill: #f7f4ed; stroke: #f4a261; stroke-linejoin: miter"/>
   </g>
   <g id="patch_11">
    <path d="M 502.439601 233.58
L 580.704709 233.58
L 580.704709 144.348
L 502.439601 144.348
z
" clip-path="url(#p503aa50205)" style="fill: #e8f5f2; stroke: #17324d; stroke-width: 1.4; stroke-linejoin: miter"/>
   </g>
   <g id="patch_12">
    <path d="M 519.657925 220.1952
C 521.73354 220.1952 523.724422 219.066954 525.192104 217.058946
C 526.659785 215.050938 527.484436 212.327112 527.484436 209.48736
C 527.484436 206.647608 526.659785 203.923782 525.192104 201.915774
C 523.724422 199.907766 521.73354 198.77952 519.657925 198.77952
C 517.58231 198.77952 515.591428 199.907766 514.123746 201.915774
C 512.656065 203.923782 511.831414 206.647608 511.831414 209.48736
C 511.831414 212.327112 512.656065 215.050938 514.123746 217.058946
C 515.591428 219.066954 517.58231 220.1952 519.657925 220.1952
z
" clip-path="url(#p503aa50205)" style="fill: #e9c46a; stroke: #17324d; stroke-width: 0.9; stroke-linejoin: miter"/>
   </g>
   <g id="patch_13">
    <path d="M 550.963968 215.7336
C 553.558487 215.7336 556.04709 214.793395 557.881692 213.120055
C 559.716293 211.446715 560.747107 209.17686 560.747107 206.8104
C 560.747107 204.44394 559.716293 202.174085 557.881692 200.500745
C 556.04709 198.827405 553.558487 197.8872 550.963968 197.8872
C 548.369449 197.8872 545.880846 198.827405 544.046245 200.500745
C 542.211643 202.174085 541.18083 204.44394 541.18083 206.8104
C 541.18083 209.17686 542.211643 211.446715 544.046245 213.120055
C 545.880846 214.793395 548.369449 215.7336 550.963968 215.7336
z
" clip-path="url(#p503aa50205)" style="fill: #e9c46a; stroke: #17324d; stroke-width: 0.9; stroke-linejoin: miter"/>
   </g>
   <g id="patch_14">
    <path d="M 539.224202 181.37928
C 541.403598 181.37928 543.494024 180.298045 545.03509 178.373704
C 546.576155 176.449362 547.442038 173.839029 547.442038 171.1176
C 547.442038 168.396171 546.576155 165.785838 545.03509 163.861496
C 543.494024 161.937155 541.403598 160.85592 539.224202 160.85592
C 537.044806 160.85592 534.95438 161.937155 533.413314 163.861496
C 531.872249 165.785838 531.006366 168.396171 531.006366 171.1176
C 531.006366 173.839029 531.872249 176.449362 533.413314 178.373704
C 534.95438 180.298045 537.044806 181.37928 539.224202 181.37928
z
" clip-path="url(#p503aa50205)" style="fill: #e9c46a; stroke: #17324d; stroke-width: 0.9; stroke-linejoin: miter"/>
   </g>
   <g id="patch_15">
    <path d="M 566.61699 176.47152
C 568.277482 176.47152 569.870188 175.625336 571.044333 174.11933
C 572.218478 172.613324 572.878198 170.570454 572.878198 168.44064
C 572.878198 166.310826 572.218478 164.267956 571.044333 162.76195
C 569.870188 161.255944 568.277482 160.40976 566.61699 160.40976
C 564.956498 160.40976 563.363792 161.255944 562.189647 162.76195
C 561.015501 164.267956 560.355781 166.310826 560.355781 168.44064
C 560.355781 170.570454 561.015501 172.613324 562.189647 174.11933
C 563.363792 175.625336 564.956498 176.47152 566.61699 176.47152
z
" clip-path="url(#p503aa50205)" style="fill: #e9c46a; stroke: #17324d; stroke-width: 0.9; stroke-linejoin: miter"/>
   </g>
   <g id="patch_16">
    <path d="M 629.620401 233.58
L 707.885509 233.58
L 707.885509 144.348
L 629.620401 144.348
z
" clip-path="url(#p503aa50205)" style="fill: #e8f5f2; stroke: #17324d; stroke-width: 1.4; stroke-linejoin: miter"/>
   </g>
   <g id="patch_17">
    <path d="M 657.013189 214.39512
C 658.5699 214.39512 660.063062 213.783987 661.163823 212.696316
C 662.264584 211.608645 662.883072 210.133239 662.883072 208.59504
C 662.883072 207.056841 662.264584 205.581435 661.163823 204.493764
C 660.063062 203.406093 658.5699 202.79496 657.013189 202.79496
C 655.456478 202.79496 653.963316 203.406093 652.862555 204.493764
C 651.761794 205.581435 651.143306 207.056841 651.143306 208.59504
C 651.143306 210.133239 651.761794 211.608645 652.862555 212.696316
C 653.963316 213.783987 655.456478 214.39512 657.013189 214.39512
z
" clip-path="url(#p503aa50205)" style="fill: #e9c46a; stroke: #17324d; stroke-width: 0.8; stroke-linejoin: miter"/>
   </g>
   <g id="patch_18">
    <path d="M 689.101883 212.61048
C 690.658594 212.61048 692.151756 211.999347 693.252517 210.911676
C 694.353278 209.824005 694.971766 208.348599 694.971766 206.8104
C 694.971766 205.272201 694.353278 203.796795 693.252517 202.709124
C 692.151756 201.621453 690.658594 201.01032 689.101883 201.01032
C 687.545172 201.01032 686.05201 201.621453 684.951249 202.709124
C 683.850488 203.796795 683.232 205.272201 683.232 206.8104
C 683.232 208.348599 683.850488 209.824005 684.951249 210.911676
C 686.05201 211.999347 687.545172 212.61048 689.101883 212.61048
z
" clip-path="url(#p503aa50205)" style="fill: #e9c46a; stroke: #17324d; stroke-width: 0.8; stroke-linejoin: miter"/>
   </g>
   <g id="patch_19">
    <path d="M 653.099934 172.45608
C 654.656645 172.45608 656.149807 171.844947 657.250568 170.757276
C 658.351329 169.669605 658.969817 168.194199 658.969817 166.656
C 658.969817 165.117801 658.351329 163.642395 657.250568 162.554724
C 656.149807 161.467053 654.656645 160.85592 653.099934 160.85592
C 651.543222 160.85592 650.050061 161.467053 648.9493 162.554724
C 647.848538 163.642395 647.230051 165.117801 647.230051 166.656
C 647.230051 168.194199 647.848538 169.669605 648.9493 170.757276
C 650.050061 171.844947 651.543222 172.45608 653.099934 172.45608
z
" clip-path="url(#p503aa50205)" style="fill: #e9c46a; stroke: #17324d; stroke-width: 0.8; stroke-linejoin: miter"/>
   </g>
   <g id="patch_20">
    <path d="M 690.667185 171.56376
C 692.223897 171.56376 693.717058 170.952627 694.817819 169.864956
C 695.918581 168.777285 696.537068 167.301879 696.537068 165.76368
C 696.537068 164.225481 695.918581 162.750075 694.817819 161.662404
C 693.717058 160.574733 692.223897 159.9636 690.667185 159.9636
C 689.110474 159.9636 687.617312 160.574733 686.516551 161.662404
C 685.41579 162.750075 684.797302 164.225481 684.797302 165.76368
C 684.797302 167.301879 685.41579 168.777285 686.516551 169.864956
C 687.617312 170.952627 689.110474 171.56376 690.667185 171.56376
z
" clip-path="url(#p503aa50205)" style="fill: #e9c46a; stroke: #17324d; stroke-width: 0.8; stroke-linejoin: miter"/>
   </g>
   <g id="patch_21">
    <path d="M 756.801201 233.58
L 835.066309 233.58
L 835.066309 144.348
L 756.801201 144.348
z
" clip-path="url(#p503aa50205)" style="fill: #e8f5f2; stroke: #17324d; stroke-width: 1.4; stroke-linejoin: miter"/>
   </g>
   <g id="patch_22">
    <path d="M 784.193989 214.39512
C 785.7507 214.39512 787.243862 213.783987 788.344623 212.696316
C 789.445384 211.608645 790.063872 210.133239 790.063872 208.59504
C 790.063872 207.056841 789.445384 205.581435 788.344623 204.493764
C 787.243862 203.406093 785.7507 202.79496 784.193989 202.79496
C 782.637278 202.79496 781.144116 203.406093 780.043355 204.493764
C 778.942594 205.581435 778.324106 207.056841 778.324106 208.59504
C 778.324106 210.133239 778.942594 211.608645 780.043355 212.696316
C 781.144116 213.783987 782.637278 214.39512 784.193989 214.39512
z
" clip-path="url(#p503aa50205)" style="fill: #6c5ce7; stroke: #17324d; stroke-width: 0.8; stroke-linejoin: miter"/>
   </g>
   <g id="patch_23">
    <path d="M 816.282683 212.61048
C 817.839394 212.61048 819.332556 211.999347 820.433317 210.911676
C 821.534078 209.824005 822.152566 208.348599 822.152566 206.8104
C 822.152566 205.272201 821.534078 203.796795 820.433317 202.709124
C 819.332556 201.621453 817.839394 201.01032 816.282683 201.01032
C 814.725972 201.01032 813.23281 201.621453 812.132049 202.709124
C 811.031288 203.796795 810.4128 205.272201 810.4128 206.8104
C 810.4128 208.348599 811.031288 209.824005 812.132049 210.911676
C 813.23281 211.999347 814.725972 212.61048 816.282683 212.61048
z
" clip-path="url(#p503aa50205)" style="fill: #6c5ce7; stroke: #17324d; stroke-width: 0.8; stroke-linejoin: miter"/>
   </g>
   <g id="patch_24">
    <path d="M 780.280734 172.45608
C 781.837445 172.45608 783.330607 171.844947 784.431368 170.757276
C 785.532129 169.669605 786.150617 168.194199 786.150617 166.656
C 786.150617 165.117801 785.532129 163.642395 784.431368 162.554724
C 783.330607 161.467053 781.837445 160.85592 780.280734 160.85592
C 778.724022 160.85592 777.230861 161.467053 776.1301 162.554724
C 775.029338 163.642395 774.410851 165.117801 774.410851 166.656
C 774.410851 168.194199 775.029338 169.669605 776.1301 170.757276
C 777.230861 171.844947 778.724022 172.45608 780.280734 172.45608
z
" clip-path="url(#p503aa50205)" style="fill: #6c5ce7; stroke: #17324d; stroke-width: 0.8; stroke-linejoin: miter"/>
   </g>
   <g id="patch_25">
    <path d="M 817.847985 171.56376
C 819.404697 171.56376 820.897858 170.952627 821.998619 169.864956
C 823.099381 168.777285 823.717868 167.301879 823.717868 165.76368
C 823.717868 164.225481 823.099381 162.750075 821.998619 161.662404
C 820.897858 160.574733 819.404697 159.9636 817.847985 159.9636
C 816.291274 159.9636 814.798112 160.574733 813.697351 161.662404
C 812.59659 162.750075 811.978102 164.225481 811.978102 165.76368
C 811.978102 167.301879 812.59659 168.777285 813.697351 169.864956
C 814.798112 170.952627 816.291274 171.56376 817.847985 171.56376
z
" clip-path="url(#p503aa50205)" style="fill: #6c5ce7; stroke: #17324d; stroke-width: 0.8; stroke-linejoin: miter"/>
   </g>
   <g id="patch_26">
    <path d="M 458.457635 188.964
Q 477.003146 188.964 493.871607 188.964
" clip-path="url(#p503aa50205)" style="fill: none; stroke: #17324d; stroke-width: 1.5; stroke-linecap: round"/>
    <path d="M 487.871607 185.964
L 493.871607 188.964
L 487.871607 191.964
z
" clip-path="url(#p503aa50205)" style="fill: #17324d; stroke: #17324d; stroke-width: 1.5; stroke-linecap: round"/>
   </g>
   <g id="patch_27">
    <path d="M 585.638435 188.964
Q 604.183946 188.964 621.052407 188.964
" clip-path="url(#p503aa50205)" style="fill: none; stroke: #17324d; stroke-width: 1.5; stroke-linecap: round"/>
    <path d="M 615.052407 185.964
L 621.052407 188.964
L 615.052407 191.964
z
" clip-path="url(#p503aa50205)" style="fill: #17324d; stroke: #17324d; stroke-width: 1.5; stroke-linecap: round"/>
   </g>
   <g id="patch_28">
    <path d="M 712.819235 188.964
Q 731.364746 188.964 748.233207 188.964
" clip-path="url(#p503aa50205)" style="fill: none; stroke: #17324d; stroke-width: 1.5; stroke-linecap: round"/>
    <path d="M 742.233207 185.964
L 748.233207 188.964
L 742.233207 191.964
z
" clip-path="url(#p503aa50205)" style="fill: #17324d; stroke: #17324d; stroke-width: 1.5; stroke-linecap: round"/>
   </g>
   <g id="line2d_24">
    <path d="M 399.520985 233.58
L 404.999542 210.37968
L 401.868938 144.348
" clip-path="url(#p503aa50205)" style="fill: none; stroke: #2a9d8f; stroke-linecap: square"/>
   </g>
   <g id="line2d_25">
    <path d="M 375.258801 180.0408
L 415.956657 184.5024
L 453.523909 171.1176
" clip-path="url(#p503aa50205)" style="fill: none; stroke: #2a9d8f; stroke-linecap: square"/>
   </g>
   <g id="line2d_26">
    <path d="M 382.083519 222.336768
L 399.740127 222.336768
" clip-path="url(#p503aa50205)" style="fill: none; stroke: #17324d; stroke-width: 0.8; stroke-linecap: square"/>
   </g>
   <g id="line2d_27">
    <path d="M 382.083519 218.232096
L 399.740127 218.232096
" clip-path="url(#p503aa50205)" style="fill: none; stroke: #17324d; stroke-width: 0.8; stroke-linecap: square"/>
   </g>
   <g id="line2d_28">
    <path d="M 382.083519 214.127424
L 399.740127 214.127424
" clip-path="url(#p503aa50205)" style="fill: none; stroke: #17324d; stroke-width: 0.8; stroke-linecap: square"/>
   </g>
   <g id="line2d_29">
    <path d="M 382.083519 210.022752
L 399.740127 210.022752
" clip-path="url(#p503aa50205)" style="fill: none; stroke: #17324d; stroke-width: 0.8; stroke-linecap: square"/>
   </g>
   <g id="line2d_30">
    <path d="M 421.35695 177.36384
L 443.42771 177.36384
" clip-path="url(#p503aa50205)" style="fill: none; stroke: #17324d; stroke-width: 0.8; stroke-linecap: square"/>
   </g>
   <g id="line2d_31">
    <path d="M 421.35695 172.90224
L 443.42771 172.90224
" clip-path="url(#p503aa50205)" style="fill: none; stroke: #17324d; stroke-width: 0.8; stroke-linecap: square"/>
   </g>
   <g id="line2d_32">
    <path d="M 421.35695 168.44064
L 443.42771 168.44064
" clip-path="url(#p503aa50205)" style="fill: none; stroke: #17324d; stroke-width: 0.8; stroke-linecap: square"/>
   </g>
   <g id="line2d_33">
    <path d="M 421.35695 163.97904
L 443.42771 163.97904
" clip-path="url(#p503aa50205)" style="fill: none; stroke: #17324d; stroke-width: 0.8; stroke-linecap: square"/>
   </g>
   <g id="line2d_34">
    <path d="M 637.446912 219.30288
L 659.361142 194.31792
" clip-path="url(#p503aa50205)" style="fill: none; stroke: #f4a261; stroke-width: 1.2; stroke-linecap: square"/>
   </g>
   <g id="line2d_35">
    <path d="M 639.794865 219.30288
L 661.709095 194.31792
" clip-path="url(#p503aa50205)" style="fill: none; stroke: #f4a261; stroke-width: 1.2; stroke-linecap: square"/>
   </g>
   <g id="line2d_36">
    <path d="M 642.142819 219.30288
L 664.057049 194.31792
" clip-path="url(#p503aa50205)" style="fill: none; stroke: #f4a261; stroke-width: 1.2; stroke-linecap: square"/>
   </g>
   <g id="line2d_37">
    <path d="M 644.490772 219.30288
L 666.405002 194.31792
" clip-path="url(#p503aa50205)" style="fill: none; stroke: #f4a261; stroke-width: 1.2; stroke-linecap: square"/>
   </g>
   <g id="line2d_38">
    <path d="M 667.187653 188.964
L 689.101883 163.97904
" clip-path="url(#p503aa50205)" style="fill: none; stroke: #f4a261; stroke-width: 1.2; stroke-linecap: square"/>
   </g>
   <g id="line2d_39">
    <path d="M 669.535606 188.964
L 691.449836 163.97904
" clip-path="url(#p503aa50205)" style="fill: none; stroke: #f4a261; stroke-width: 1.2; stroke-linecap: square"/>
   </g>
   <g id="line2d_40">
    <path d="M 671.883559 188.964
L 693.79779 163.97904
" clip-path="url(#p503aa50205)" style="fill: none; stroke: #f4a261; stroke-width: 1.2; stroke-linecap: square"/>
   </g>
   <g id="line2d_41">
    <path d="M 674.231513 188.964
L 696.145743 163.97904
" clip-path="url(#p503aa50205)" style="fill: none; stroke: #f4a261; stroke-width: 1.2; stroke-linecap: square"/>
   </g>
   <g id="line2d_42">
    <path d="M 764.627712 219.30288
L 786.541942 194.31792
" clip-path="url(#p503aa50205)" style="fill: none; stroke: #f4a261; stroke-width: 1.2; stroke-linecap: square"/>
   </g>
   <g id="line2d_43">
    <path d="M 766.975665 219.30288
L 788.889895 194.31792
" clip-path="url(#p503aa50205)" style="fill: none; stroke: #f4a261; stroke-width: 1.2; stroke-linecap: square"/>
   </g>
   <g id="line2d_44">
    <path d="M 769.323619 219.30288
L 791.237849 194.31792
" clip-path="url(#p503aa50205)" style="fill: none; stroke: #f4a261; stroke-width: 1.2; stroke-linecap: square"/>
   </g>
   <g id="line2d_45">
    <path d="M 771.671572 219.30288
L 793.585802 194.31792
" clip-path="url(#p503aa50205)" style="fill: none; stroke: #f4a261; stroke-width: 1.2; stroke-linecap: square"/>
   </g>
   <g id="line2d_46">
    <path d="M 794.368453 188.964
L 816.282683 163.97904
" clip-path="url(#p503aa50205)" style="fill: none; stroke: #f4a261; stroke-width: 1.2; stroke-linecap: square"/>
   </g>
   <g id="line2d_47">
    <path d="M 796.716406 188.964
L 818.630636 163.97904
" clip-path="url(#p503aa50205)" style="fill: none; stroke: #f4a261; stroke-width: 1.2; stroke-linecap: square"/>
   </g>
   <g id="line2d_48">
    <path d="M 799.064359 188.964
L 820.97859 163.97904
" clip-path="url(#p503aa50205)" style="fill: none; stroke: #f4a261; stroke-width: 1.2; stroke-linecap: square"/>
   </g>
   <g id="line2d_49">
    <path d="M 801.412313 188.964
L 823.326543 163.97904
" clip-path="url(#p503aa50205)" style="fill: none; stroke: #f4a261; stroke-width: 1.2; stroke-linecap: square"/>
   </g>
   <g id="line2d_50">
    <path d="M 802.194964 220.1952
L 811.586777 196.10256
" clip-path="url(#p503aa50205)" style="fill: none; stroke: #17324d; stroke-width: 2.2; stroke-linecap: square"/>
   </g>
   <g id="text_20">
    <text style="font-size: 10px; font-family: 'Hiragino Sans'; text-anchor: middle; fill: #64748b" x="414.391355" y="104.88" transform="rotate(-0 414.391355 104.88)">初期</text>
   </g>
   <g id="text_21">
    <text style="font-size: 10px; font-family: 'Hiragino Sans'; text-anchor: middle; fill: #64748b" x="541.572155" y="104.88" transform="rotate(-0 541.572155 104.88)">二相域</text>
   </g>
   <g id="text_22">
    <text style="font-size: 10px; font-family: 'Hiragino Sans'; text-anchor: middle; fill: #64748b" x="668.752955" y="104.88" transform="rotate(-0 668.752955 104.88)">ベイナイト保持</text>
   </g>
   <g id="text_23">
    <text style="font-size: 10px; font-family: 'Hiragino Sans'; text-anchor: middle; fill: #64748b" x="795.933755" y="104.88" transform="rotate(-0 795.933755 104.88)">室温</text>
   </g>
   <g id="text_24">
    <text style="font-size: 10px; font-family: 'Hiragino Sans'; text-anchor: middle; fill: #64748b" x="477.003441" y="152.928" transform="rotate(-0 477.003441 152.928)">P溶解</text>
   </g>
   <g id="text_25">
    <text style="font-size: 10px; font-family: 'Hiragino Sans'; fill: #64748b" transform="translate(577.249866 136.47875)">一部γ → B</text>
    <text style="font-size: 10px; font-family: 'Hiragino Sans'; fill: #64748b" transform="translate(572.024866 147.78)">C → 残りのγ</text>
   </g>
   <g id="text_26">
    <text style="font-size: 10px; font-family: 'Hiragino Sans'; fill: #64748b" transform="translate(707.535354 136.47875)">C濃化γを</text>
    <text style="font-size: 10px; font-family: 'Hiragino Sans'; fill: #64748b" transform="translate(701.365041 147.78)">室温まで保持</text>
   </g>
   <g id="text_27">
    <text style="font-weight: 700; font-size: 10px; font-family: 'Hiragino Sans'; text-anchor: middle; fill: #17324d" x="414.391355" y="266.184" transform="rotate(-0 414.391355 266.184)">α + P</text>
   </g>
   <g id="text_28">
    <text style="font-weight: 700; font-size: 10px; font-family: 'Hiragino Sans'; text-anchor: middle; fill: #17324d" x="541.572155" y="266.184" transform="rotate(-0 541.572155 266.184)">α + γ</text>
   </g>
   <g id="text_29">
    <!-- α + B + γ$_{\mathrm{C-rich}}$ -->
    <g style="fill: #17324d" transform="translate(627.752955 266.184)">
     <text>
      <tspan x="0" y="-0.765625" style="font-weight: 700; font-size: 10px; font-family: 'Hiragino Sans'; fill: #17324d">α</tspan>
      <tspan x="9.999985" y="-0.765625" style="font-weight: 700; font-size: 10px; font-family: 'Hiragino Sans'; fill: #17324d"> </tspan>
      <tspan x="13.329971" y="-0.765625" style="font-weight: 700; font-size: 10px; font-family: 'Hiragino Sans'; fill: #17324d">+</tspan>
      <tspan x="20.319962" y="-0.765625" style="font-weight: 700; font-size: 10px; font-family: 'Hiragino Sans'; fill: #17324d"> </tspan>
      <tspan x="23.649948" y="-0.765625" style="font-weight: 700; font-size: 10px; font-family: 'Hiragino Sans'; fill: #17324d">B</tspan>
      <tspan x="31.389938" y="-0.765625" style="font-weight: 700; font-size: 10px; font-family: 'Hiragino Sans'; fill: #17324d"> </tspan>
      <tspan x="34.719925" y="-0.765625" style="font-weight: 700; font-size: 10px; font-family: 'Hiragino Sans'; fill: #17324d">+</tspan>
      <tspan x="41.709915" y="-0.765625" style="font-weight: 700; font-size: 10px; font-family: 'Hiragino Sans'; fill: #17324d"> </tspan>
      <tspan x="45.039902" y="-0.765625" style="font-weight: 700; font-size: 10px; font-family: 'Hiragino Sans'; fill: #17324d">γ</tspan>
      <tspan x="55.13559" y="0.875" style="font-size: 7px; font-family: 'DejaVu Sans'; fill: #17324d">C</tspan>
      <tspan x="61.387054" y="0.875" style="font-size: 7px; font-family: 'DejaVu Sans'; fill: #17324d">−</tspan>
      <tspan x="68.616058" y="0.875" style="font-size: 7px; font-family: 'DejaVu Sans'; fill: #17324d">r</tspan>
      <tspan x="71.493988" y="0.875" style="font-size: 7px; font-family: 'DejaVu Sans'; fill: #17324d">i</tspan>
      <tspan x="73.438812" y="0.875" style="font-size: 7px; font-family: 'DejaVu Sans'; fill: #17324d">c</tspan>
      <tspan x="77.287445" y="0.875" style="font-size: 7px; font-family: 'DejaVu Sans'; fill: #17324d">h</tspan>
     </text>
    </g>
   </g>
   <g id="text_30">
    <!-- α + B + γ$_\mathrm{R}$（+M） -->
    <g style="fill: #17324d" transform="translate(747.233755 266.184)">
     <text>
      <tspan x="0" y="-0.203125" style="font-weight: 700; font-size: 10px; font-family: 'Hiragino Sans'; fill: #17324d">α</tspan>
      <tspan x="9.999985" y="-0.203125" style="font-weight: 700; font-size: 10px; font-family: 'Hiragino Sans'; fill: #17324d"> </tspan>
      <tspan x="13.329971" y="-0.203125" style="font-weight: 700; font-size: 10px; font-family: 'Hiragino Sans'; fill: #17324d">+</tspan>
      <tspan x="20.319962" y="-0.203125" style="font-weight: 700; font-size: 10px; font-family: 'Hiragino Sans'; fill: #17324d"> </tspan>
      <tspan x="23.649948" y="-0.203125" style="font-weight: 700; font-size: 10px; font-family: 'Hiragino Sans'; fill: #17324d">B</tspan>
      <tspan x="31.389938" y="-0.203125" style="font-weight: 700; font-size: 10px; font-family: 'Hiragino Sans'; fill: #17324d"> </tspan>
      <tspan x="34.719925" y="-0.203125" style="font-weight: 700; font-size: 10px; font-family: 'Hiragino Sans'; fill: #17324d">+</tspan>
      <tspan x="41.709915" y="-0.203125" style="font-weight: 700; font-size: 10px; font-family: 'Hiragino Sans'; fill: #17324d"> </tspan>
      <tspan x="45.039902" y="-0.203125" style="font-weight: 700; font-size: 10px; font-family: 'Hiragino Sans'; fill: #17324d">γ</tspan>
      <tspan x="60.272797" y="-0.203125" style="font-weight: 700; font-size: 10px; font-family: 'Hiragino Sans'; fill: #17324d">（</tspan>
      <tspan x="70.272781" y="-0.203125" style="font-weight: 700; font-size: 10px; font-family: 'Hiragino Sans'; fill: #17324d">+</tspan>
      <tspan x="77.262772" y="-0.203125" style="font-weight: 700; font-size: 10px; font-family: 'Hiragino Sans'; fill: #17324d">M</tspan>
      <tspan x="87.322754" y="-0.203125" style="font-weight: 700; font-size: 10px; font-family: 'Hiragino Sans'; fill: #17324d">）</tspan>
      <tspan x="55.13559" y="1.4375" style="font-size: 7px; font-family: 'DejaVu Sans'; fill: #17324d">R</tspan>
     </text>
    </g>
   </g>
   <g id="text_31">
    <text style="font-weight: 700; font-size: 10px; font-family: 'Hiragino Sans'; fill: #6c5ce7" transform="translate(753.589224 290.625)">変形中：γR → M</text>
    <text style="font-weight: 700; font-size: 10px; font-family: 'Hiragino Sans'; fill: #6c5ce7" transform="translate(710.933755 302.22)">加工硬化を維持してくびれを遅らせる</text>
   </g>
   <g id="text_32">
    <text style="font-weight: 700; font-size: 12px; font-family: 'Hiragino Sans'; text-anchor: start; fill: #17324d" x="369.388918" y="64.56" transform="rotate(-0 369.388918 64.56)">組織遷移</text>
   </g>
  </g>
  <g id="text_33">
   <text style="font-weight: 700; font-size: 15px; font-family: 'Hiragino Sans'; text-anchor: middle; fill: #17324d" x="443.011687" y="19.080469" transform="rotate(-0 443.011687 19.080469)">TRIP鋼：Cを未変態γへ濃化して残留させる（模式図）</text>
  </g>
  <g id="text_34">
   <text style="font-size: 10px; font-family: 'Hiragino Sans'; text-anchor: middle; fill: #64748b" x="443.011687" y="390.528" transform="rotate(-0 443.011687 390.528)">α：フェライト、P：パーライト、B：ベイナイト、γR：残留オーステナイト、M：マルテンサイト。温度・時間・相分率は定性的。</text>
  </g>
 </g>
 <defs>
  <clipPath id="p335dd07841">
   <rect x="48.379688" y="70.56" width="228.273231" height="257.4"/>
  </clipPath>
  <clipPath id="p503aa50205">
   <rect x="369.388918" y="70.56" width="513.614769" height="257.4"/>
  </clipPath>
 </defs>
</svg>
